  0
SECTION
  2
HEADER
  9
$ACADVER
  1
AC1024
  9
$ACADMAINTVER
 70
6
  9
$DWGCODEPAGE
  3
ANSI_1252
  9
$LASTSAVEDBY
  1
ezdxf
  9
$INSBASE
 10
0.0
 20
0.0
 30
0.0
  9
$EXTMIN
 10
1e+20
 20
1e+20
 30
1e+20
  9
$EXTMAX
 10
-1e+20
 20
-1e+20
 30
-1e+20
  9
$LIMMIN
 10
0.0
 20
0.0
  9
$LIMMAX
 10
420.0
 20
297.0
  9
$ORTHOMODE
 70
0
  9
$REGENMODE
 70
1
  9
$FILLMODE
 70
1
  9
$QTEXTMODE
 70
0
  9
$MIRRTEXT
 70
1
  9
$LTSCALE
 40
1.0
  9
$ATTMODE
 70
1
  9
$TEXTSIZE
 40
2.5
  9
$TRACEWID
 40
1.0
  9
$TEXTSTYLE
  7
Standard
  9
$CLAYER
  8
0
  9
$CELTYPE
  6
ByLayer
  9
$CECOLOR
 62
256
  9
$CELTSCALE
 40
1.0
  9
$DISPSILH
 70
0
  9
$DIMSCALE
 40
1.0
  9
$DIMASZ
 40
2.5
  9
$DIMEXO
 40
0.625
  9
$DIMDLI
 40
3.75
  9
$DIMRND
 40
0.0
  9
$DIMDLE
 40
0.0
  9
$DIMEXE
 40
1.25
  9
$DIMTP
 40
0.0
  9
$DIMTM
 40
0.0
  9
$DIMTXT
 40
2.5
  9
$DIMCEN
 40
2.5
  9
$DIMTSZ
 40
0.0
  9
$DIMTOL
 70
0
  9
$DIMLIM
 70
0
  9
$DIMTIH
 70
0
  9
$DIMTOH
 70
0
  9
$DIMSE1
 70
0
  9
$DIMSE2
 70
0
  9
$DIMTAD
 70
1
  9
$DIMZIN
 70
8
  9
$DIMBLK
  1

  9
$DIMASO
 70
1
  9
$DIMSHO
 70
1
  9
$DIMPOST
  1

  9
$DIMAPOST
  1

  9
$DIMALT
 70
0
  9
$DIMALTD
 70
3
  9
$DIMALTF
 40
0.03937007874
  9
$DIMLFAC
 40
1.0
  9
$DIMTOFL
 70
1
  9
$DIMTVP
 40
0.0
  9
$DIMTIX
 70
0
  9
$DIMSOXD
 70
0
  9
$DIMSAH
 70
0
  9
$DIMBLK1
  1

  9
$DIMBLK2
  1

  9
$DIMSTYLE
  2
ISO-25
  9
$DIMCLRD
 70
0
  9
$DIMCLRE
 70
0
  9
$DIMCLRT
 70
0
  9
$DIMTFAC
 40
1.0
  9
$DIMGAP
 40
0.625
  9
$DIMJUST
 70
0
  9
$DIMSD1
 70
0
  9
$DIMSD2
 70
0
  9
$DIMTOLJ
 70
0
  9
$DIMTZIN
 70
8
  9
$DIMALTZ
 70
0
  9
$DIMALTTZ
 70
0
  9
$DIMUPT
 70
0
  9
$DIMDEC
 70
2
  9
$DIMTDEC
 70
2
  9
$DIMALTU
 70
2
  9
$DIMALTTD
 70
3
  9
$DIMTXSTY
  7
Standard
  9
$DIMAUNIT
 70
0
  9
$DIMADEC
 70
0
  9
$DIMALTRND
 40
0.0
  9
$DIMAZIN
 70
0
  9
$DIMDSEP
 70
44
  9
$DIMATFIT
 70
3
  9
$DIMFRAC
 70
0
  9
$DIMLDRBLK
  1

  9
$DIMLUNIT
 70
2
  9
$DIMLWD
 70
-2
  9
$DIMLWE
 70
-2
  9
$DIMTMOVE
 70
0
  9
$DIMFXL
 40
1.0
  9
$DIMFXLON
 70
0
  9
$DIMJOGANG
 40
0.785398163397
  9
$DIMTFILL
 70
0
  9
$DIMTFILLCLR
 70
0
  9
$DIMARCSYM
 70
0
  9
$DIMLTYPE
  6

  9
$DIMLTEX1
  6

  9
$DIMLTEX2
  6

  9
$DIMTXTDIRECTION
 70
0
  9
$LUNITS
 70
2
  9
$LUPREC
 70
4
  9
$SKETCHINC
 40
1.0
  9
$FILLETRAD
 40
10.0
  9
$AUNITS
 70
0
  9
$AUPREC
 70
2
  9
$MENU
  1
.
  9
$ELEVATION
 40
0.0
  9
$PELEVATION
 40
0.0
  9
$THICKNESS
 40
0.0
  9
$LIMCHECK
 70
0
  9
$CHAMFERA
 40
0.0
  9
$CHAMFERB
 40
0.0
  9
$CHAMFERC
 40
0.0
  9
$CHAMFERD
 40
0.0
  9
$SKPOLY
 70
0
  9
$TDCREATE
 40
2460447.36087963
  9
$TDUCREATE
 40
2458532.153996898
  9
$TDUPDATE
 40
2460447.36087963
  9
$TDUUPDATE
 40
2458532.1544311
  9
$TDINDWG
 40
0.0
  9
$TDUSRTIMER
 40
0.0
  9
$USRTIMER
 70
1
  9
$ANGBASE
 50
0.0
  9
$ANGDIR
 70
0
  9
$PDMODE
 70
0
  9
$PDSIZE
 40
0.0
  9
$PLINEWID
 40
0.0
  9
$SPLFRAME
 70
0
  9
$SPLINETYPE
 70
6
  9
$SPLINESEGS
 70
8
  9
$HANDSEED
  5
82
  9
$SURFTAB1
 70
6
  9
$SURFTAB2
 70
6
  9
$SURFTYPE
 70
6
  9
$SURFU
 70
6
  9
$SURFV
 70
6
  9
$UCSBASE
  2

  9
$UCSNAME
  2

  9
$UCSORG
 10
0.0
 20
0.0
 30
0.0
  9
$UCSXDIR
 10
1.0
 20
0.0
 30
0.0
  9
$UCSYDIR
 10
0.0
 20
1.0
 30
0.0
  9
$UCSORTHOREF
  2

  9
$UCSORTHOVIEW
 70
0
  9
$UCSORGTOP
 10
0.0
 20
0.0
 30
0.0
  9
$UCSORGBOTTOM
 10
0.0
 20
0.0
 30
0.0
  9
$UCSORGLEFT
 10
0.0
 20
0.0
 30
0.0
  9
$UCSORGRIGHT
 10
0.0
 20
0.0
 30
0.0
  9
$UCSORGFRONT
 10
0.0
 20
0.0
 30
0.0
  9
$UCSORGBACK
 10
0.0
 20
0.0
 30
0.0
  9
$PUCSBASE
  2

  9
$PUCSNAME
  2

  9
$PUCSORG
 10
0.0
 20
0.0
 30
0.0
  9
$PUCSXDIR
 10
1.0
 20
0.0
 30
0.0
  9
$PUCSYDIR
 10
0.0
 20
1.0
 30
0.0
  9
$PUCSORTHOREF
  2

  9
$PUCSORTHOVIEW
 70
0
  9
$PUCSORGTOP
 10
0.0
 20
0.0
 30
0.0
  9
$PUCSORGBOTTOM
 10
0.0
 20
0.0
 30
0.0
  9
$PUCSORGLEFT
 10
0.0
 20
0.0
 30
0.0
  9
$PUCSORGRIGHT
 10
0.0
 20
0.0
 30
0.0
  9
$PUCSORGFRONT
 10
0.0
 20
0.0
 30
0.0
  9
$PUCSORGBACK
 10
0.0
 20
0.0
 30
0.0
  9
$USERI1
 70
0
  9
$USERI2
 70
0
  9
$USERI3
 70
0
  9
$USERI4
 70
0
  9
$USERI5
 70
0
  9
$USERR1
 40
0.0
  9
$USERR2
 40
0.0
  9
$USERR3
 40
0.0
  9
$USERR4
 40
0.0
  9
$USERR5
 40
0.0
  9
$WORLDVIEW
 70
1
  9
$SHADEDGE
 70
3
  9
$SHADEDIF
 70
70
  9
$TILEMODE
 70
1
  9
$MAXACTVP
 70
64
  9
$PINSBASE
 10
0.0
 20
0.0
 30
0.0
  9
$PLIMCHECK
 70
0
  9
$PEXTMIN
 10
1e+20
 20
1e+20
 30
1e+20
  9
$PEXTMAX
 10
-1e+20
 20
-1e+20
 30
-1e+20
  9
$PLIMMIN
 10
0.0
 20
0.0
  9
$PLIMMAX
 10
420.0
 20
297.0
  9
$UNITMODE
 70
0
  9
$VISRETAIN
 70
1
  9
$PLINEGEN
 70
0
  9
$PSLTSCALE
 70
1
  9
$TREEDEPTH
 70
3020
  9
$CMLSTYLE
  2
Standard
  9
$CMLJUST
 70
0
  9
$CMLSCALE
 40
20.0
  9
$PROXYGRAPHICS
 70
1
  9
$MEASUREMENT
 70
1
  9
$CELWEIGHT
370
-1
  9
$ENDCAPS
280
0
  9
$JOINSTYLE
280
0
  9
$LWDISPLAY
290
0
  9
$INSUNITS
 70
6
  9
$HYPERLINKBASE
  1

  9
$STYLESHEET
  1

  9
$XEDIT
290
1
  9
$CEPSNTYPE
380
0
  9
$PSTYLEMODE
290
1
  9
$FINGERPRINTGUID
  2
{28D27426-DB18-4025-A34D-949CE3F278B5}
  9
$VERSIONGUID
  2
{1C652BA2-05F7-42A9-8226-949F0EE12218}
  9
$EXTNAMES
290
1
  9
$PSVPSCALE
 40
0.0
  9
$OLESTARTUP
290
0
  9
$SORTENTS
280
127
  9
$INDEXCTL
280
0
  9
$HIDETEXT
280
1
  9
$XCLIPFRAME
280
0
  9
$HALOGAP
280
0
  9
$OBSCOLOR
 70
257
  9
$OBSLTYPE
280
0
  9
$INTERSECTIONDISPLAY
280
0
  9
$INTERSECTIONCOLOR
 70
257
  9
$DIMASSOC
280
2
  9
$PROJECTNAME
  1

  9
$CAMERADISPLAY
290
0
  9
$LENSLENGTH
 40
50.0
  9
$CAMERAHEIGHT
 40
0.0
  9
$STEPSPERSEC
 40
24.0
  9
$STEPSIZE
 40
100.0
  9
$3DDWFPREC
 40
2.0
  9
$PSOLWIDTH
 40
0.005
  9
$PSOLHEIGHT
 40
0.08
  9
$LOFTANG1
 40
1.570796326795
  9
$LOFTANG2
 40
1.570796326795
  9
$LOFTMAG1
 40
0.0
  9
$LOFTMAG2
 40
0.0
  9
$LOFTPARAM
 70
7
  9
$LOFTNORMALS
280
1
  9
$LATITUDE
 40
37.795
  9
$LONGITUDE
 40
-122.394
  9
$NORTHDIRECTION
 40
0.0
  9
$TIMEZONE
 70
-8000
  9
$LIGHTGLYPHDISPLAY
280
1
  9
$TILEMODELIGHTSYNCH
280
1
  9
$CMATERIAL
347
20
  9
$SOLIDHIST
280
0
  9
$SHOWHIST
280
1
  9
$DWFFRAME
280
2
  9
$DGNFRAME
280
2
  9
$REALWORLDSCALE
290
1
  9
$INTERFERECOLOR
 62
256
  9
$CSHADOW
280
0
  9
$SHADOWPLANELOCATION
 40
0.0
  0
ENDSEC
  0
SECTION
  2
CLASSES
  0
CLASS
  1
ACDBDICTIONARYWDFLT
  2
AcDbDictionaryWithDefault
  3
ObjectDBX Classes
 90
0
 91
0
280
0
281
0
  0
CLASS
  1
SUN
  2
AcDbSun
  3
SCENEOE
 90
1153
 91
0
280
0
281
0
  0
CLASS
  1
VISUALSTYLE
  2
AcDbVisualStyle
  3
ObjectDBX Classes
 90
4095
 91
0
280
0
281
0
  0
CLASS
  1
MATERIAL
  2
AcDbMaterial
  3
ObjectDBX Classes
 90
1153
 91
0
280
0
281
0
  0
CLASS
  1
SCALE
  2
AcDbScale
  3
ObjectDBX Classes
 90
1153
 91
0
280
0
281
0
  0
CLASS
  1
TABLESTYLE
  2
AcDbTableStyle
  3
ObjectDBX Classes
 90
4095
 91
0
280
0
281
0
  0
CLASS
  1
MLEADERSTYLE
  2
AcDbMLeaderStyle
  3
ACDB_MLEADERSTYLE_CLASS
 90
4095
 91
0
280
0
281
0
  0
CLASS
  1
DICTIONARYVAR
  2
AcDbDictionaryVar
  3
ObjectDBX Classes
 90
0
 91
0
280
0
281
0
  0
CLASS
  1
CELLSTYLEMAP
  2
AcDbCellStyleMap
  3
ObjectDBX Classes
 90
1152
 91
0
280
0
281
0
  0
CLASS
  1
MENTALRAYRENDERSETTINGS
  2
AcDbMentalRayRenderSettings
  3
SCENEOE
 90
1024
 91
0
280
0
281
0
  0
CLASS
  1
ACDBDETAILVIEWSTYLE
  2
AcDbDetailViewStyle
  3
ObjectDBX Classes
 90
1025
 91
0
280
0
281
0
  0
CLASS
  1
ACDBSECTIONVIEWSTYLE
  2
AcDbSectionViewStyle
  3
ObjectDBX Classes
 90
1025
 91
0
280
0
281
0
  0
CLASS
  1
RASTERVARIABLES
  2
AcDbRasterVariables
  3
ISM
 90
0
 91
0
280
0
281
0
  0
CLASS
  1
ACDBPLACEHOLDER
  2
AcDbPlaceHolder
  3
ObjectDBX Classes
 90
0
 91
0
280
0
281
0
  0
CLASS
  1
LAYOUT
  2
AcDbLayout
  3
ObjectDBX Classes
 90
0
 91
0
280
0
281
0
  0
ENDSEC
  0
SECTION
  2
TABLES
  0
TABLE
  2
VPORT
  5
8
330
0
100
AcDbSymbolTable
 70
1
  0
VPORT
  5
23
330
8
100
AcDbSymbolTableRecord
100
AcDbViewportTableRecord
  2
*Active
 70
0
 10
0.0
 20
0.0
 11
1.0
 21
1.0
 12
0.0
 22
0.0
 13
0.0
 23
0.0
 14
0.5
 24
0.5
 15
0.5
 25
0.5
 16
0.0
 26
0.0
 36
1.0
 17
0.0
 27
0.0
 37
0.0
 40
1000.0
 41
1.34
 42
50.0
 43
0.0
 44
0.0
 50
0.0
 51
0.0
 71
0
 72
1000
 73
1
 74
3
 75
0
 76
0
 77
0
 78
0
281
0
 65
0
146
0.0
  0
ENDTAB
  0
TABLE
  2
LTYPE
  5
2
330
0
100
AcDbSymbolTable
 70
3
  0
LTYPE
  5
24
330
2
100
AcDbSymbolTableRecord
100
AcDbLinetypeTableRecord
  2
ByBlock
 70
0
  3

 72
65
 73
0
 40
0.0
  0
LTYPE
  5
25
330
2
100
AcDbSymbolTableRecord
100
AcDbLinetypeTableRecord
  2
ByLayer
 70
0
  3

 72
65
 73
0
 40
0.0
  0
LTYPE
  5
26
330
2
100
AcDbSymbolTableRecord
100
AcDbLinetypeTableRecord
  2
Continuous
 70
0
  3

 72
65
 73
0
 40
0.0
  0
ENDTAB
  0
TABLE
  2
LAYER
  5
1
330
0
100
AcDbSymbolTable
 70
9
  0
LAYER
  5
27
330
1
100
AcDbSymbolTableRecord
100
AcDbLayerTableRecord
  2
0
 70
0
 62
7
  6
Continuous
370
-3
390
13
347
21
  0
LAYER
  5
28
330
1
100
AcDbSymbolTableRecord
100
AcDbLayerTableRecord
  2
Defpoints
 70
0
 62
7
  6
Continuous
290
0
370
-3
390
13
347
21
  0
LAYER
  5
2F
330
1
100
AcDbSymbolTableRecord
100
AcDbLayerTableRecord
  2
V236_LW_COR17_630_ BX1000
 70
0
 62
3
  6
Continuous
370
-3
390
13
347
21
  0
LAYER
  5
31
330
1
100
AcDbSymbolTableRecord
100
AcDbLayerTableRecord
  2
V236_LW_COR17_632_ BX1000
 70
0
 62
3
  6
Continuous
370
-3
390
13
347
21
  0
LAYER
  5
33
330
1
100
AcDbSymbolTableRecord
100
AcDbLayerTableRecord
  2
V236_LW_COR17_638_ BX1000
 70
0
 62
3
  6
Continuous
370
-3
390
13
347
21
  0
LAYER
  5
35
330
1
100
AcDbSymbolTableRecord
100
AcDbLayerTableRecord
  2
V236_LW_COR17_660_ UD90_600
 70
0
 62
1
  6
Continuous
370
-3
390
13
347
21
  0
LAYER
  5
37
330
1
100
AcDbSymbolTableRecord
100
AcDbLayerTableRecord
  2
DATUM LINE
 70
0
 62
141
  6
Continuous
370
-3
390
13
347
21
  0
LAYER
  5
3A
330
1
100
AcDbSymbolTableRecord
100
AcDbLayerTableRecord
  2
TAGGING
 70
0
 62
7
  6
Continuous
370
-3
390
13
347
21
  0
LAYER
  5
7D
330
1
100
AcDbSymbolTableRecord
100
AcDbLayerTableRecord
  2
FRAME
 70
0
 62
30
  6
Continuous
370
-3
390
13
347
21
  0
ENDTAB
  0
TABLE
  2
STYLE
  5
5
330
0
100
AcDbSymbolTable
 70
1
  0
STYLE
  5
29
330
5
100
AcDbSymbolTableRecord
100
AcDbTextStyleTableRecord
  2
Standard
 70
0
 40
0.0
 41
1.0
 50
0.0
 71
0
 42
2.5
  3
txt
  4

  0
ENDTAB
  0
TABLE
  2
VIEW
  5
7
330
0
100
AcDbSymbolTable
 70
0
  0
ENDTAB
  0
TABLE
  2
UCS
  5
6
330
0
100
AcDbSymbolTable
 70
0
  0
ENDTAB
  0
TABLE
  2
APPID
  5
3
330
0
100
AcDbSymbolTable
 70
3
  0
APPID
  5
2A
330
3
100
AcDbSymbolTableRecord
100
AcDbRegAppTableRecord
  2
ACAD
 70
0
  0
APPID
  5
7F
330
3
100
AcDbSymbolTableRecord
100
AcDbRegAppTableRecord
  2
HATCHBACKGROUNDCOLOR
 70
0
  0
APPID
  5
80
330
3
100
AcDbSymbolTableRecord
100
AcDbRegAppTableRecord
  2
EZDXF
 70
0
  0
ENDTAB
  0
TABLE
  2
DIMSTYLE
  5
4
330
0
100
AcDbSymbolTable
 70
1
100
AcDbDimStyleTable
  0
DIMSTYLE
105
2B
330
4
100
AcDbSymbolTableRecord
100
AcDbDimStyleTableRecord
  2
Standard
 70
0
 40
1.0
 41
2.5
 42
0.625
 43
3.75
 44
1.25
 45
0.0
 46
0.0
 47
0.0
 48
0.0
 49
2.5
140
2.5
141
2.5
142
0.0
143
0.03937007874
144
1.0
145
0.0
146
1.0
147
0.625
148
0.0
 69
0
 70
0
 71
0
 72
0
 73
0
 74
0
 75
0
 76
0
 77
1
 78
8
 79
3
170
0
171
3
172
1
173
0
174
0
175
0
176
0
177
0
178
0
179
2
271
2
272
2
273
2
274
3
275
0
276
0
277
2
278
44
279
0
280
0
281
0
282
0
283
0
284
8
285
0
286
0
288
0
289
3
290
0
371
-2
372
-2
  0
ENDTAB
  0
TABLE
  2
BLOCK_RECORD
  5
9
330
0
100
AcDbSymbolTable
 70
2
  0
BLOCK_RECORD
  5
17
330
9
100
AcDbSymbolTableRecord
100
AcDbBlockTableRecord
  2
*Model_Space
340
1A
 70
0
280
1
281
0
  0
BLOCK_RECORD
  5
1B
330
9
100
AcDbSymbolTableRecord
100
AcDbBlockTableRecord
  2
*Paper_Space
340
1E
 70
0
280
1
281
0
  0
ENDTAB
  0
ENDSEC
  0
SECTION
  2
BLOCKS
  0
BLOCK
  5
18
330
17
100
AcDbEntity
  8
0
100
AcDbBlockBegin
  2
*Model_Space
 70
0
 10
0.0
 20
0.0
 30
0.0
  3
*Model_Space
  1

  0
ENDBLK
  5
19
330
17
100
AcDbEntity
  8
0
100
AcDbBlockEnd
  0
BLOCK
  5
1C
330
1B
100
AcDbEntity
  8
0
100
AcDbBlockBegin
  2
*Paper_Space
 70
0
 10
0.0
 20
0.0
 30
0.0
  3
*Paper_Space
  1

  0
ENDBLK
  5
1D
330
1B
100
AcDbEntity
  8
0
100
AcDbBlockEnd
  0
ENDSEC
  0
SECTION
  2
ENTITIES
  0
LWPOLYLINE
  5
30
330
17
100
AcDbEntity
  8
V236_LW_COR17_630_ BX1000
100
AcDbPolyline
 90
40
 70
0
 10
558.8999999999942
 20
507.40000000000146
 10
649.8999999999942
 20
507.5
 10
958.5999999999985
 20
507.7000000000007
 10
1434.699999999997
 20
508.2000000000007
 10
2029.5999999999985
 20
508.09999999999854
 10
2756.5
 20
508.09999999999854
 10
3591.0
 20
508.0
 10
4338.399999999994
 20
507.90000000000146
 10
4918.399999999994
 20
507.7999999999993
 10
5379.5999999999985
 20
507.7999999999993
 10
5708.799999999996
 20
507.7999999999993
 10
5839.399999999994
 20
507.7999999999993
 10
5839.399999999994
 20
507.7999999999993
 10
5838.699999999997
 20
666.0999999999985
 10
5837.799999999996
 20
855.4000000000015
 10
5836.399999999994
 20
1109.199999999997
 10
5834.199999999997
 20
1362.9000000000015
 10
5831.5
 20
1616.699999999997
 10
5830.5
 20
1712.199999999997
 10
5829.899999999994
 20
1776.5999999999985
 10
5829.899999999994
 20
1776.5999999999985
 10
5707.299999999996
 20
1776.699999999997
 10
5238.299999999996
 20
1776.800000000003
 10
4578.399999999994
 20
1777.0999999999985
 10
3913.5
 20
1777.4000000000015
 10
3082.2999999999956
 20
1777.800000000003
 10
2338.5999999999985
 20
1778.199999999997
 10
1741.699999999997
 20
1778.5
 10
1335.5999999999985
 20
1778.699999999997
 10
934.5999999999985
 20
1779.0
 10
699.7999999999956
 20
1779.199999999997
 10
500.0
 20
1779.4000000000015
 10
500.0
 20
1779.4000000000015
 10
504.5
 20
1687.199999999997
 10
511.8999999999942
 20
1532.5999999999985
 10
523.0999999999985
 20
1278.199999999997
 10
535.3999999999942
 20
1023.9000000000015
 10
546.7999999999956
 20
769.4000000000015
 10
554.2999999999956
 20
607.2000000000007
 10
558.8999999999942
 20
507.40000000000146
  0
LWPOLYLINE
  5
32
330
17
100
AcDbEntity
  8
V236_LW_COR17_632_ BX1000
100
AcDbPolyline
 90
28
 70
0
 10
4193.5999999999985
 20
437.7000000000007
 10
4519.399999999994
 20
437.7999999999993
 10
4845.299999999996
 20
437.7000000000007
 10
5171.0999999999985
 20
437.5
 10
5497.0
 20
437.5
 10
5822.799999999996
 20
437.7999999999993
 10
5822.799999999996
 20
437.7999999999993
 10
5822.0999999999985
 20
691.6999999999971
 10
5821.899999999994
 20
945.5
 10
5820.299999999996
 20
1199.300000000003
 10
5818.699999999997
 20
1453.199999999997
 10
5816.299999999996
 20
1707.0
 10
5816.299999999996
 20
1707.0
 10
5778.199999999997
 20
1707.0
 10
5611.299999999996
 20
1706.800000000003
 10
5369.5999999999985
 20
1707.300000000003
 10
5049.5999999999985
 20
1707.0999999999985
 10
4729.5
 20
1707.5
 10
4447.5999999999985
 20
1707.199999999997
 10
4294.5
 20
1707.300000000003
 10
4216.0999999999985
 20
1707.5
 10
4216.0999999999985
 20
1707.5
 10
4214.899999999994
 20
1646.199999999997
 10
4210.199999999997
 20
1392.199999999997
 10
4206.299999999996
 20
1138.300000000003
 10
4202.0
 20
884.3000000000029
 10
4197.399999999994
 20
630.4000000000015
 10
4193.5999999999985
 20
437.7000000000007
  0
LWPOLYLINE
  5
34
330
17
100
AcDbEntity
  8
V236_LW_COR17_638_ BX1000
100
AcDbPolyline
 90
28
 70
0
 10
627.3999999999942
 20
437.5
 10
772.2999999999956
 20
437.7999999999993
 10
1061.199999999997
 20
438.2999999999993
 10
1350.0999999999985
 20
438.5
 10
1639.0
 20
438.09999999999854
 10
1927.8999999999942
 20
438.09999999999854
 10
2071.899999999994
 20
438.2000000000007
 10
2071.899999999994
 20
438.2000000000007
 10
2071.7999999999956
 20
692.1999999999971
 10
2071.699999999997
 20
946.3000000000029
 10
2071.699999999997
 20
1200.300000000003
 10
2071.5999999999985
 20
1454.300000000003
 10
2071.5
 20
1708.300000000003
 10
2071.5
 20
1708.300000000003
 10
1921.199999999997
 20
1708.199999999997
 10
1620.699999999997
 20
1708.300000000003
 10
1320.0999999999985
 20
1708.699999999997
 10
1019.5
 20
1708.5
 10
718.8999999999942
 20
1708.9000000000015
 10
568.5999999999985
 20
1709.300000000003
 10
568.5999999999985
 20
1709.300000000003
 10
571.5999999999985
 20
1647.4000000000015
 10
577.6999999999971
 20
1519.800000000003
 10
588.8999999999942
 20
1265.4000000000015
 10
601.2999999999956
 20
1011.0999999999985
 10
612.7999999999956
 20
756.6999999999971
 10
621.5
 20
564.2000000000007
 10
627.3999999999942
 20
437.5
  0
LWPOLYLINE
  5
36
330
17
100
AcDbEntity
  8
V236_LW_COR17_660_ UD90_600
100
AcDbPolyline
 90
30
 70
0
 10
5402.0999999999985
 20
300.0
 10
5486.699999999997
 20
300.09999999999854
 10
5571.299999999996
 20
300.2000000000007
 10
5655.899999999994
 20
300.2999999999993
 10
5740.5
 20
300.5
 10
5825.0999999999985
 20
300.7000000000007
 10
5825.0999999999985
 20
300.7000000000007
 10
5825.0999999999985
 20
332.90000000000146
 10
5824.899999999994
 20
427.7000000000007
 10
5824.0
 20
602.7000000000007
 10
5822.5999999999985
 20
856.5
 10
5820.699999999997
 20
1110.199999999997
 10
5818.799999999996
 20
1331.800000000003
 10
5817.199999999997
 20
1490.800000000003
 10
5816.299999999996
 20
1569.4000000000015
 10
5816.299999999996
 20
1569.4000000000015
 10
5795.0
 20
1569.5
 10
5710.299999999996
 20
1569.699999999997
 10
5625.5
 20
1569.4000000000015
 10
5540.799999999996
 20
1569.4000000000015
 10
5456.0999999999985
 20
1569.300000000003
 10
5392.699999999997
 20
1569.4000000000015
 10
5392.699999999997
 20
1569.4000000000015
 10
5393.299999999996
 20
1506.0999999999985
 10
5394.0999999999985
 20
1427.5
 10
5396.799999999996
 20
1173.5999999999985
 10
5399.0
 20
919.6999999999971
 10
5400.399999999994
 20
665.8000000000029
 10
5401.5
 20
475.2000000000007
 10
5402.0999999999985
 20
300.0
  0
LWPOLYLINE
  5
38
330
17
100
AcDbEntity
  8
DATUM LINE
100
AcDbPolyline
 90
6
 70
0
 10
2424.6528249999974
 20
1778.1356539999979
 10
2424.6398740000004
 20
1524.1298890000035
 10
2424.626921999996
 20
1270.124125000002
 10
2424.6181919999945
 20
1016.1183109999984
 10
2424.4401579999976
 20
762.1126080000031
 10
2424.2621239999935
 20
508.10690500000055
  0
LWPOLYLINE
  5
39
330
17
100
AcDbEntity
  8
DATUM LINE
100
AcDbPolyline
 90
6
 70
0
 10
4422.8908969999975
 20
437.65832600000067
 10
4427.3849709999995
 20
691.6012189999965
 10
4431.879045999995
 20
945.5441120000032
 10
4436.0170020000005
 20
1199.493257000002
 10
4440.553899999999
 20
1453.4353889999984
 10
4445.090796999997
 20
1707.3775200000018
  0
LWPOLYLINE
  5
3B
330
17
100
AcDbEntity
  8
TAGGING
100
AcDbPolyline
 90
2
 70
0
 10
4316.119953999994
 20
1403.5846620000011
 10
4296.119953999994
 20
1383.5846620000011
  0
LWPOLYLINE
  5
3C
330
17
100
AcDbEntity
  8
TAGGING
100
AcDbPolyline
 90
2
 70
0
 10
4316.119953999994
 20
1383.5846620000011
 10
4296.119953999994
 20
1403.5846620000011
  0
LWPOLYLINE
  5
3D
330
17
100
AcDbEntity
  8
TAGGING
100
AcDbPolyline
 90
2
 70
0
 10
4327.170882999999
 20
842.1469920000018
 10
4307.170882999999
 20
822.1469920000018
  0
LWPOLYLINE
  5
3E
330
17
100
AcDbEntity
  8
TAGGING
100
AcDbPolyline
 90
2
 70
0
 10
4327.170882999999
 20
822.1469920000018
 10
4307.170882999999
 20
842.1469920000018
  0
LWPOLYLINE
  5
3F
330
17
100
AcDbEntity
  8
TAGGING
100
AcDbPolyline
 90
2
 70
0
 10
5695.361883999998
 20
1529.1917650000032
 10
5675.361883999998
 20
1509.1917650000032
  0
LWPOLYLINE
  5
40
330
17
100
AcDbEntity
  8
TAGGING
100
AcDbPolyline
 90
2
 70
0
 10
5695.361883999998
 20
1509.1917650000032
 10
5675.361883999998
 20
1529.1917650000032
  0
LWPOLYLINE
  5
41
330
17
100
AcDbEntity
  8
TAGGING
100
AcDbPolyline
 90
2
 70
0
 10
5516.452967999998
 20
1538.7042409999995
 10
5496.452967999998
 20
1518.7042409999995
  0
LWPOLYLINE
  5
42
330
17
100
AcDbEntity
  8
TAGGING
100
AcDbPolyline
 90
2
 70
0
 10
5516.452967999998
 20
1518.7042409999995
 10
5496.452967999998
 20
1538.7042409999995
  0
LWPOLYLINE
  5
43
330
17
100
AcDbEntity
  8
TAGGING
100
AcDbPolyline
 90
2
 70
0
 10
5737.388127999999
 20
1203.3785379999972
 10
5717.388127999999
 20
1183.3785379999972
  0
LWPOLYLINE
  5
44
330
17
100
AcDbEntity
  8
TAGGING
100
AcDbPolyline
 90
2
 70
0
 10
5737.388127999999
 20
1183.3785379999972
 10
5717.388127999999
 20
1203.3785379999972
  0
LWPOLYLINE
  5
45
330
17
100
AcDbEntity
  8
TAGGING
100
AcDbPolyline
 90
2
 70
0
 10
5499.279977999999
 20
1043.3887000000032
 10
5479.279977999999
 20
1023.3887000000032
  0
LWPOLYLINE
  5
46
330
17
100
AcDbEntity
  8
TAGGING
100
AcDbPolyline
 90
2
 70
0
 10
5499.279977999999
 20
1023.3887000000032
 10
5479.279977999999
 20
1043.3887000000032
  0
LWPOLYLINE
  5
47
330
17
100
AcDbEntity
  8
TAGGING
100
AcDbPolyline
 90
2
 70
0
 10
5733.950487999995
 20
776.8600389999992
 10
5713.950487999995
 20
756.8600389999992
  0
LWPOLYLINE
  5
48
330
17
100
AcDbEntity
  8
TAGGING
100
AcDbPolyline
 90
2
 70
0
 10
5733.950487999995
 20
756.8600389999992
 10
5713.950487999995
 20
776.8600389999992
  0
LWPOLYLINE
  5
49
330
17
100
AcDbEntity
  8
TAGGING
100
AcDbPolyline
 90
2
 70
0
 10
5472.049720999996
 20
566.956420999999
 10
5452.049720999996
 20
546.956420999999
  0
LWPOLYLINE
  5
4A
330
17
100
AcDbEntity
  8
TAGGING
100
AcDbPolyline
 90
2
 70
0
 10
5472.049720999996
 20
546.956420999999
 10
5452.049720999996
 20
566.956420999999
  0
LWPOLYLINE
  5
4B
330
17
100
AcDbEntity
  8
TAGGING
100
AcDbPolyline
 90
2
 70
0
 10
5724.995111999997
 20
498.906798
 10
5704.995111999997
 20
478.906798
  0
LWPOLYLINE
  5
4C
330
17
100
AcDbEntity
  8
TAGGING
100
AcDbPolyline
 90
2
 70
0
 10
5724.995111999997
 20
478.906798
 10
5704.995111999997
 20
498.906798
  0
LWPOLYLINE
  5
4D
330
17
100
AcDbEntity
  8
TAGGING
100
AcDbPolyline
 90
2
 70
0
 10
5122.103326999997
 20
1552.5207020000016
 10
5102.103326999997
 20
1532.5207020000016
  0
LWPOLYLINE
  5
4E
330
17
100
AcDbEntity
  8
TAGGING
100
AcDbPolyline
 90
2
 70
0
 10
5122.103326999997
 20
1532.5207020000016
 10
5102.103326999997
 20
1552.5207020000016
  0
LWPOLYLINE
  5
4F
330
17
100
AcDbEntity
  8
TAGGING
100
AcDbPolyline
 90
2
 70
0
 10
4651.361368999998
 20
1554.8284570000033
 10
4631.361368999998
 20
1534.8284570000033
  0
LWPOLYLINE
  5
50
330
17
100
AcDbEntity
  8
TAGGING
100
AcDbPolyline
 90
2
 70
0
 10
4651.361368999998
 20
1534.8284570000033
 10
4631.361368999998
 20
1554.8284570000033
  0
LWPOLYLINE
  5
51
330
17
100
AcDbEntity
  8
TAGGING
100
AcDbPolyline
 90
2
 70
0
 10
5113.404841999996
 20
1152.5207020000016
 10
5093.404841999996
 20
1132.5207020000016
  0
LWPOLYLINE
  5
52
330
17
100
AcDbEntity
  8
TAGGING
100
AcDbPolyline
 90
2
 70
0
 10
5113.404841999996
 20
1132.5207020000016
 10
5093.404841999996
 20
1152.5207020000016
  0
LWPOLYLINE
  5
53
330
17
100
AcDbEntity
  8
TAGGING
100
AcDbPolyline
 90
2
 70
0
 10
4650.118734999996
 20
1154.8284570000033
 10
4630.118734999996
 20
1134.8284570000033
  0
LWPOLYLINE
  5
54
330
17
100
AcDbEntity
  8
TAGGING
100
AcDbPolyline
 90
2
 70
0
 10
4650.118734999996
 20
1134.8284570000033
 10
4630.118734999996
 20
1154.8284570000033
  0
LWPOLYLINE
  5
55
330
17
100
AcDbEntity
  8
TAGGING
100
AcDbPolyline
 90
2
 70
0
 10
5099.690416999998
 20
670.7454750000034
 10
5079.690416999998
 20
650.7454749999997
  0
LWPOLYLINE
  5
56
330
17
100
AcDbEntity
  8
TAGGING
100
AcDbPolyline
 90
2
 70
0
 10
5099.690416999998
 20
650.7454749999997
 10
5079.690416999998
 20
670.7454750000034
  0
LWPOLYLINE
  5
57
330
17
100
AcDbEntity
  8
TAGGING
100
AcDbPolyline
 90
2
 70
0
 10
4648.876089999998
 20
754.8284570000033
 10
4628.876089999998
 20
734.8284570000033
  0
LWPOLYLINE
  5
58
330
17
100
AcDbEntity
  8
TAGGING
100
AcDbPolyline
 90
2
 70
0
 10
4648.876089999998
 20
734.8284570000033
 10
4628.876089999998
 20
754.8284570000033
  0
LWPOLYLINE
  5
59
330
17
100
AcDbEntity
  8
TAGGING
100
AcDbPolyline
 90
2
 70
0
 10
2048.309771
 20
1674.1392609999966
 10
2028.3097710000002
 20
1654.1392609999966
  0
LWPOLYLINE
  5
5A
330
17
100
AcDbEntity
  8
TAGGING
100
AcDbPolyline
 90
2
 70
0
 10
2048.309771
 20
1654.1392609999966
 10
2028.3097710000002
 20
1674.1392609999966
  0
LWPOLYLINE
  5
5B
330
17
100
AcDbEntity
  8
TAGGING
100
AcDbPolyline
 90
2
 70
0
 10
2048.309771
 20
1406.075622999997
 10
2028.3097710000002
 20
1386.075622999997
  0
LWPOLYLINE
  5
5C
330
17
100
AcDbEntity
  8
TAGGING
100
AcDbPolyline
 90
2
 70
0
 10
2048.309771
 20
1386.075622999997
 10
2028.3097710000002
 20
1406.075622999997
  0
LWPOLYLINE
  5
5D
330
17
100
AcDbEntity
  8
TAGGING
100
AcDbPolyline
 90
2
 70
0
 10
780.654423
 20
1676.9338449999996
 10
760.654423
 20
1656.9338449999996
  0
LWPOLYLINE
  5
5E
330
17
100
AcDbEntity
  8
TAGGING
100
AcDbPolyline
 90
2
 70
0
 10
780.654423
 20
1656.9338449999996
 10
760.654423
 20
1676.9338449999996
  0
LWPOLYLINE
  5
5F
330
17
100
AcDbEntity
  8
TAGGING
100
AcDbPolyline
 90
2
 70
0
 10
743.6322929999951
 20
1371.5985040000014
 10
723.6322929999951
 20
1351.5985040000014
  0
LWPOLYLINE
  5
60
330
17
100
AcDbEntity
  8
TAGGING
100
AcDbPolyline
 90
2
 70
0
 10
743.6322929999951
 20
1351.5985040000014
 10
723.6322929999951
 20
1371.5985040000014
  0
LWPOLYLINE
  5
61
330
17
100
AcDbEntity
  8
TAGGING
100
AcDbPolyline
 90
2
 70
0
 10
2025.4553309999974
 20
757.4352460000009
 10
2005.4553309999974
 20
737.4352460000009
  0
LWPOLYLINE
  5
62
330
17
100
AcDbEntity
  8
TAGGING
100
AcDbPolyline
 90
2
 70
0
 10
2025.4553309999974
 20
737.4352460000009
 10
2005.4553309999974
 20
757.4352460000009
  0
LWPOLYLINE
  5
63
330
17
100
AcDbEntity
  8
TAGGING
100
AcDbPolyline
 90
2
 70
0
 10
759.2883650000003
 20
691.5987830000013
 10
739.2883650000003
 20
671.5987830000013
  0
LWPOLYLINE
  5
64
330
17
100
AcDbEntity
  8
TAGGING
100
AcDbPolyline
 90
2
 70
0
 10
759.2883650000003
 20
671.5987830000013
 10
739.2883650000003
 20
691.5987830000013
  0
LWPOLYLINE
  5
65
330
17
100
AcDbEntity
  8
TAGGING
100
AcDbPolyline
 90
2
 70
0
 10
1376.5536240000001
 20
1183.7223490000033
 10
1356.5536240000001
 20
1163.7223490000033
  0
LWPOLYLINE
  5
66
330
17
100
AcDbEntity
  8
TAGGING
100
AcDbPolyline
 90
2
 70
0
 10
1376.5536240000001
 20
1163.7223490000033
 10
1356.5536240000001
 20
1183.7223490000033
  0
LWPOLYLINE
  5
67
330
17
100
AcDbEntity
  8
TAGGING
100
AcDbPolyline
 90
2
 70
0
 10
2042.7754459999996
 20
1115.2313910000012
 10
2022.7754459999996
 20
1095.2313910000012
  0
LWPOLYLINE
  5
68
330
17
100
AcDbEntity
  8
TAGGING
100
AcDbPolyline
 90
2
 70
0
 10
2042.7754459999996
 20
1095.2313910000012
 10
2022.7754459999996
 20
1115.2313910000012
  0
LWPOLYLINE
  5
69
330
17
100
AcDbEntity
  8
TAGGING
100
AcDbPolyline
 90
2
 70
0
 10
757.2523029999938
 20
965.8355480000027
 10
737.2523029999938
 20
945.8355480000027
  0
LWPOLYLINE
  5
6A
330
17
100
AcDbEntity
  8
TAGGING
100
AcDbPolyline
 90
2
 70
0
 10
757.2523029999938
 20
945.8355480000027
 10
737.2523029999938
 20
965.8355480000027
  0
LWPOLYLINE
  5
6B
330
17
100
AcDbEntity
  8
TAGGING
100
AcDbPolyline
 90
2
 70
0
 10
1395.1733739999981
 20
761.7623279999971
 10
1375.1733739999981
 20
741.7623279999971
  0
LWPOLYLINE
  5
6C
330
17
100
AcDbEntity
  8
TAGGING
100
AcDbPolyline
 90
2
 70
0
 10
1395.1733739999981
 20
741.7623279999971
 10
1375.1733739999981
 20
761.7623279999971
  0
LWPOLYLINE
  5
6D
330
17
100
AcDbEntity
  8
TAGGING
100
AcDbPolyline
 90
2
 70
0
 10
1376.5536240000001
 20
1532.9633059999978
 10
1356.5536240000001
 20
1512.9633059999978
  0
LWPOLYLINE
  5
6E
330
17
100
AcDbEntity
  8
TAGGING
100
AcDbPolyline
 90
2
 70
0
 10
1376.5536240000001
 20
1512.9633059999978
 10
1356.5536240000001
 20
1532.9633059999978
  0
LWPOLYLINE
  5
6F
330
17
100
AcDbEntity
  8
TAGGING
100
AcDbPolyline
 90
2
 70
0
 10
1051.324894999998
 20
1653.910990999997
 10
1031.324894999998
 20
1633.910990999997
  0
LWPOLYLINE
  5
70
330
17
100
AcDbEntity
  8
TAGGING
100
AcDbPolyline
 90
2
 70
0
 10
1051.324894999998
 20
1633.910990999997
 10
1031.324894999998
 20
1653.910990999997
  0
LWPOLYLINE
  5
71
330
17
100
AcDbEntity
  8
TAGGING
100
AcDbPolyline
 90
2
 70
0
 10
1048.803743999997
 20
1157.5215360000002
 10
1028.803743999997
 20
1137.5215360000002
  0
LWPOLYLINE
  5
72
330
17
100
AcDbEntity
  8
TAGGING
100
AcDbPolyline
 90
2
 70
0
 10
1048.803743999997
 20
1137.5215360000002
 10
1028.803743999997
 20
1157.5215360000002
  0
LWPOLYLINE
  5
73
330
17
100
AcDbEntity
  8
TAGGING
100
AcDbPolyline
 90
2
 70
0
 10
1057.0589929999987
 20
587.2945739999996
 10
1037.0589929999987
 20
567.2945739999996
  0
LWPOLYLINE
  5
74
330
17
100
AcDbEntity
  8
TAGGING
100
AcDbPolyline
 90
2
 70
0
 10
1057.0589929999987
 20
567.2945739999996
 10
1037.0589929999987
 20
587.2945739999996
  0
LWPOLYLINE
  5
75
330
17
100
AcDbEntity
  8
TAGGING
100
AcDbPolyline
 90
2
 70
0
 10
1675.386639999997
 20
1368.8326159999997
 10
1655.386639999997
 20
1348.8326159999997
  0
LWPOLYLINE
  5
76
330
17
100
AcDbEntity
  8
TAGGING
100
AcDbPolyline
 90
2
 70
0
 10
1675.386639999997
 20
1348.8326159999997
 10
1655.386639999997
 20
1368.8326159999997
  0
LWPOLYLINE
  5
77
330
17
100
AcDbEntity
  8
TAGGING
100
AcDbPolyline
 90
2
 70
0
 10
1657.679965999996
 20
1667.1497600000002
 10
1637.679965999996
 20
1647.1497600000002
  0
LWPOLYLINE
  5
78
330
17
100
AcDbEntity
  8
TAGGING
100
AcDbPolyline
 90
2
 70
0
 10
1657.679965999996
 20
1647.1497600000002
 10
1637.679965999996
 20
1667.1497600000002
  0
LWPOLYLINE
  5
79
330
17
100
AcDbEntity
  8
TAGGING
100
AcDbPolyline
 90
2
 70
0
 10
1688.0342719999971
 20
923.8850160000002
 10
1668.0342719999971
 20
903.8850160000002
  0
LWPOLYLINE
  5
7A
330
17
100
AcDbEntity
  8
TAGGING
100
AcDbPolyline
 90
2
 70
0
 10
1688.0342719999971
 20
903.8850160000002
 10
1668.0342719999971
 20
923.8850160000002
  0
LWPOLYLINE
  5
7B
330
17
100
AcDbEntity
  8
TAGGING
100
AcDbPolyline
 90
2
 70
0
 10
1686.3912019999989
 20
561.0444629999984
 10
1666.3912019999989
 20
541.0444629999984
  0
LWPOLYLINE
  5
7C
330
17
100
AcDbEntity
  8
TAGGING
100
AcDbPolyline
 90
2
 70
0
 10
1686.3912019999989
 20
541.0444629999984
 10
1666.3912019999989
 20
561.0444629999984
  0
LWPOLYLINE
  5
7E
330
17
100
AcDbEntity
  8
FRAME
100
AcDbPolyline
 90
5
 70
0
 10
0.0
 20
0.0
 10
10000.0
 20
0.0
 10
10000.0
 20
2500.0
 10
0.0
 20
2500.0
 10
0.0
 20
0.0
  0
ENDSEC
  0
SECTION
  2
OBJECTS
  0
DICTIONARY
  5
A
330
0
100
AcDbDictionary
280
0
281
1
  3
ACAD_COLOR
350
B
  3
ACAD_GROUP
350
C
  3
ACAD_LAYOUT
350
D
  3
ACAD_MATERIAL
350
E
  3
ACAD_MLEADERSTYLE
350
F
  3
ACAD_MLINESTYLE
350
10
  3
ACAD_PLOTSETTINGS
350
11
  3
ACAD_PLOTSTYLENAME
350
12
  3
ACAD_SCALELIST
350
14
  3
ACAD_TABLESTYLE
350
15
  3
ACAD_VISUALSTYLE
350
16
  3
EZDXF_META
350
2D
  0
DICTIONARY
  5
B
330
A
100
AcDbDictionary
280
0
281
1
  0
DICTIONARY
  5
C
330
A
100
AcDbDictionary
280
0
281
1
  0
DICTIONARY
  5
D
330
A
100
AcDbDictionary
280
0
281
1
  3
Model
350
1A
  3
Layout1
350
1E
  0
DICTIONARY
  5
E
330
A
100
AcDbDictionary
280
0
281
1
  3
ByBlock
350
1F
  3
ByLayer
350
20
  3
Global
350
21
  0
DICTIONARY
  5
F
330
A
100
AcDbDictionary
280
0
281
1
  3
Standard
350
2C
  0
DICTIONARY
  5
10
330
A
100
AcDbDictionary
280
0
281
1
  3
Standard
350
22
  0
DICTIONARY
  5
11
330
A
100
AcDbDictionary
280
0
281
1
  0
ACDBDICTIONARYWDFLT
  5
12
330
A
100
AcDbDictionary
280
0
281
1
  3
Normal
350
13
100
AcDbDictionaryWithDefault
340
13
  0
ACDBPLACEHOLDER
  5
13
330
12
  0
DICTIONARY
  5
14
330
A
100
AcDbDictionary
280
0
281
1
  0
DICTIONARY
  5
15
330
A
100
AcDbDictionary
280
0
281
1
  0
DICTIONARY
  5
16
330
A
100
AcDbDictionary
280
0
281
1
  0
LAYOUT
  5
1A
330
D
100
AcDbPlotSettings
  1

  2
Adobe PDF
  4
A3
  6

 40
7.5
 41
20.0
 42
7.5
 43
20.0
 44
420.0
 45
297.0
 46
0.0
 47
0.0
 48
0.0
 49
0.0
140
0.0
141
0.0
142
1.0
143
1.0
 70
1024
 72
1
 73
0
 74
5
  7

 75
16
 76
0
 77
2
 78
300
147
1.0
148
0.0
149
0.0
100
AcDbLayout
  1
Model
 70
1
 71
0
 10
0.0
 20
0.0
 11
420.0
 21
297.0
 12
0.0
 22
0.0
 32
0.0
 14
1e+20
 24
1e+20
 34
1e+20
 15
-1e+20
 25
-1e+20
 35
-1e+20
146
0.0
 13
0.0
 23
0.0
 33
0.0
 16
1.0
 26
0.0
 36
0.0
 17
0.0
 27
1.0
 37
0.0
 76
1
330
17
  0
LAYOUT
  5
1E
330
D
100
AcDbPlotSettings
  1

  2
Adobe PDF
  4
A3
  6

 40
7.5
 41
20.0
 42
7.5
 43
20.0
 44
420.0
 45
297.0
 46
0.0
 47
0.0
 48
0.0
 49
0.0
140
0.0
141
0.0
142
1.0
143
1.0
 70
0
 72
1
 73
0
 74
5
  7

 75
16
 76
0
 77
2
 78
300
147
1.0
148
0.0
149
0.0
100
AcDbLayout
  1
Layout1
 70
1
 71
1
 10
0.0
 20
0.0
 11
420.0
 21
297.0
 12
0.0
 22
0.0
 32
0.0
 14
1e+20
 24
1e+20
 34
1e+20
 15
-1e+20
 25
-1e+20
 35
-1e+20
146
0.0
 13
0.0
 23
0.0
 33
0.0
 16
1.0
 26
0.0
 36
0.0
 17
0.0
 27
1.0
 37
0.0
 76
1
330
1B
  0
MATERIAL
  5
1F
102
{ACAD_REACTORS
330
E
102
}
330
E
100
AcDbMaterial
  1
ByBlock
  2

 70
0
 40
1.0
 71
1
 41
1.0
 91
-1023410177
 42
1.0
 72
1
  3

 73
1
 74
1
 75
1
 44
0.5
 73
0
 45
1.0
 46
1.0
 77
1
  4

 78
1
 79
1
170
1
 48
1.0
171
1
  6

172
1
173
1
174
1
140
1.0
141
1.0
175
1
  7

176
1
177
1
178
1
143
1.0
179
1
  8

270
1
271
1
272
1
145
1.0
146
1.0
273
1
  9

274
1
275
1
276
1
 42
1.0
 72
1
  3

 73
1
 74
1
 75
1
 94
63
  0
MATERIAL
  5
20
102
{ACAD_REACTORS
330
E
102
}
330
E
100
AcDbMaterial
  1
ByLayer
  2

 70
0
 40
1.0
 71
1
 41
1.0
 91
-1023410177
 42
1.0
 72
1
  3

 73
1
 74
1
 75
1
 44
0.5
 73
0
 45
1.0
 46
1.0
 77
1
  4

 78
1
 79
1
170
1
 48
1.0
171
1
  6

172
1
173
1
174
1
140
1.0
141
1.0
175
1
  7

176
1
177
1
178
1
143
1.0
179
1
  8

270
1
271
1
272
1
145
1.0
146
1.0
273
1
  9

274
1
275
1
276
1
 42
1.0
 72
1
  3

 73
1
 74
1
 75
1
 94
63
  0
MATERIAL
  5
21
102
{ACAD_REACTORS
330
E
102
}
330
E
100
AcDbMaterial
  1
Global
  2

 70
0
 40
1.0
 71
1
 41
1.0
 91
-1023410177
 42
1.0
 72
1
  3

 73
1
 74
1
 75
1
 44
0.5
 73
0
 45
1.0
 46
1.0
 77
1
  4

 78
1
 79
1
170
1
 48
1.0
171
1
  6

172
1
173
1
174
1
140
1.0
141
1.0
175
1
  7

176
1
177
1
178
1
143
1.0
179
1
  8

270
1
271
1
272
1
145
1.0
146
1.0
273
1
  9

274
1
275
1
276
1
 42
1.0
 72
1
  3

 73
1
 74
1
 75
1
 94
63
  0
MLINESTYLE
  5
22
102
{ACAD_REACTORS
330
10
102
}
330
10
100
AcDbMlineStyle
  2
Standard
 70
0
  3

 62
256
 51
90.0
 52
90.0
 71
2
 49
0.5
 62
256
  6
BYLAYER
 49
-0.5
 62
256
  6
BYLAYER
  0
MLEADERSTYLE
  5
2C
102
{ACAD_REACTORS
330
F
102
}
330
F
100
AcDbMLeaderStyle
179
2
170
2
171
1
172
0
 90
2
 40
0.0
 41
0.0
173
1
 91
-1056964608
 92
-2
290
1
 42
2.0
291
1
 43
8.0
  3
Standard
 44
4.0
300

342
29
174
1
175
1
176
0
178
1
 93
-1056964608
 45
4.0
292
0
297
0
 46
4.0
 94
-1056964608
 47
1.0
 49
1.0
140
1.0
294
1
141
0.0
177
0
142
1.0
295
0
296
0
143
3.75
271
0
272
9
273
9
  0
DICTIONARY
  5
2D
330
A
100
AcDbDictionary
281
1
  3
CREATED_BY_EZDXF
350
2E
  3
WRITTEN_BY_EZDXF
350
81
  0
DICTIONARYVAR
  5
2E
330
2D
100
DictionaryVariables
280
0
  1
1.1.3 @ 2024-05-16T06:39:40.571532+00:00
  0
DICTIONARYVAR
  5
81
330
2D
100
DictionaryVariables
280
0
  1
1.1.3 @ 2024-05-16T06:39:40.582009+00:00
  0
ENDSEC
  0
EOF
