  0
SECTION
  2
HEADER
  9
$ACADVER
  1
AC1032
  9
$ACADMAINTVER
 90
      248
  9
$DWGCODEPAGE
  3
ANSI_1252
  9
$LASTSAVEDBY
  1
Juan Pablo Lopez
  9
$REQUIREDVERSIONS
160
                 0
  9
$INSBASE
 10
0.0
 20
0.0
 30
0.0
  9
$EXTMIN
 10
0.0
 20
0.0
 30
0.0
  9
$EXTMAX
 10
10000.0
 20
2500.0
 30
0.0
  9
$LIMMIN
 10
0.0
 20
0.0
  9
$LIMMAX
 10
420.0
 20
297.0
  9
$ORTHOMODE
 70
     0
  9
$REGENMODE
 70
     1
  9
$FILLMODE
 70
     1
  9
$QTEXTMODE
 70
     0
  9
$MIRRTEXT
 70
     1
  9
$LTSCALE
 40
1.0
  9
$ATTMODE
 70
     1
  9
$TEXTSIZE
 40
2.5
  9
$TRACEWID
 40
1.0
  9
$TEXTSTYLE
  7
Standard
  9
$CLAYER
  8
0
  9
$CELTYPE
  6
ByLayer
  9
$CECOLOR
 62
   256
  9
$CELTSCALE
 40
1.0
  9
$DISPSILH
 70
     0
  9
$DIMSCALE
 40
1.0
  9
$DIMASZ
 40
2.5
  9
$DIMEXO
 40
0.625
  9
$DIMDLI
 40
3.75
  9
$DIMRND
 40
0.0
  9
$DIMDLE
 40
0.0
  9
$DIMEXE
 40
1.25
  9
$DIMTP
 40
0.0
  9
$DIMTM
 40
0.0
  9
$DIMTXT
 40
2.5
  9
$DIMCEN
 40
2.5
  9
$DIMTSZ
 40
0.0
  9
$DIMTOL
 70
     0
  9
$DIMLIM
 70
     0
  9
$DIMTIH
 70
     0
  9
$DIMTOH
 70
     0
  9
$DIMSE1
 70
     0
  9
$DIMSE2
 70
     0
  9
$DIMTAD
 70
     1
  9
$DIMZIN
 70
     8
  9
$DIMBLK
  1

  9
$DIMASO
 70
     1
  9
$DIMSHO
 70
     1
  9
$DIMPOST
  1

  9
$DIMAPOST
  1

  9
$DIMALT
 70
     0
  9
$DIMALTD
 70
     3
  9
$DIMALTF
 40
0.03937007874
  9
$DIMLFAC
 40
1.0
  9
$DIMTOFL
 70
     1
  9
$DIMTVP
 40
0.0
  9
$DIMTIX
 70
     0
  9
$DIMSOXD
 70
     0
  9
$DIMSAH
 70
     0
  9
$DIMBLK1
  1

  9
$DIMBLK2
  1

  9
$DIMSTYLE
  2
Standard
  9
$DIMCLRD
 70
     0
  9
$DIMCLRE
 70
     0
  9
$DIMCLRT
 70
     0
  9
$DIMTFAC
 40
1.0
  9
$DIMGAP
 40
0.625
  9
$DIMJUST
 70
     0
  9
$DIMSD1
 70
     0
  9
$DIMSD2
 70
     0
  9
$DIMTOLJ
 70
     0
  9
$DIMTZIN
 70
     8
  9
$DIMALTZ
 70
     0
  9
$DIMALTTZ
 70
     0
  9
$DIMUPT
 70
     0
  9
$DIMDEC
 70
     2
  9
$DIMTDEC
 70
     2
  9
$DIMALTU
 70
     2
  9
$DIMALTTD
 70
     3
  9
$DIMTXSTY
  7
Standard
  9
$DIMAUNIT
 70
     0
  9
$DIMADEC
 70
     0
  9
$DIMALTRND
 40
0.0
  9
$DIMAZIN
 70
     0
  9
$DIMDSEP
 70
    44
  9
$DIMATFIT
 70
     3
  9
$DIMFRAC
 70
     0
  9
$DIMLDRBLK
  1

  9
$DIMLUNIT
 70
     2
  9
$DIMLWD
 70
    -2
  9
$DIMLWE
 70
    -2
  9
$DIMTMOVE
 70
     0
  9
$DIMFXL
 40
1.0
  9
$DIMFXLON
 70
     0
  9
$DIMJOGANG
 40
0.785398163397
  9
$DIMTFILL
 70
     0
  9
$DIMTFILLCLR
 70
     0
  9
$DIMARCSYM
 70
     0
  9
$DIMLTYPE
  6

  9
$DIMLTEX1
  6

  9
$DIMLTEX2
  6

  9
$DIMTXTDIRECTION
 70
     0
  9
$LUNITS
 70
     2
  9
$LUPREC
 70
     4
  9
$SKETCHINC
 40
1.0
  9
$FILLETRAD
 40
10.0
  9
$AUNITS
 70
     0
  9
$AUPREC
 70
     2
  9
$MENU
  1
.
  9
$ELEVATION
 40
0.0
  9
$PELEVATION
 40
0.0
  9
$THICKNESS
 40
0.0
  9
$LIMCHECK
 70
     0
  9
$CHAMFERA
 40
0.0
  9
$CHAMFERB
 40
0.0
  9
$CHAMFERC
 40
0.0
  9
$CHAMFERD
 40
0.0
  9
$SKPOLY
 70
     0
  9
$TDCREATE
 40
2458532.195659723
  9
$TDUCREATE
 40
2458532.153996898
  9
$TDUPDATE
 40
2460447.629560185
  9
$TDUUPDATE
 40
2460447.546226852
  9
$TDINDWG
 40
0.0058101852
  9
$TDUSRTIMER
 40
0.0058101852
  9
$USRTIMER
 70
     1
  9
$ANGBASE
 50
0.0
  9
$ANGDIR
 70
     0
  9
$PDMODE
 70
     0
  9
$PDSIZE
 40
0.0
  9
$PLINEWID
 40
0.0
  9
$SPLFRAME
 70
     0
  9
$SPLINETYPE
 70
     6
  9
$SPLINESEGS
 70
     8
  9
$HANDSEED
  5
1F9
  9
$SURFTAB1
 70
     6
  9
$SURFTAB2
 70
     6
  9
$SURFTYPE
 70
     6
  9
$SURFU
 70
     6
  9
$SURFV
 70
     6
  9
$UCSBASE
  2

  9
$UCSNAME
  2

  9
$UCSORG
 10
0.0
 20
0.0
 30
0.0
  9
$UCSXDIR
 10
1.0
 20
0.0
 30
0.0
  9
$UCSYDIR
 10
0.0
 20
1.0
 30
0.0
  9
$UCSORTHOREF
  2

  9
$UCSORTHOVIEW
 70
     0
  9
$UCSORGTOP
 10
0.0
 20
0.0
 30
0.0
  9
$UCSORGBOTTOM
 10
0.0
 20
0.0
 30
0.0
  9
$UCSORGLEFT
 10
0.0
 20
0.0
 30
0.0
  9
$UCSORGRIGHT
 10
0.0
 20
0.0
 30
0.0
  9
$UCSORGFRONT
 10
0.0
 20
0.0
 30
0.0
  9
$UCSORGBACK
 10
0.0
 20
0.0
 30
0.0
  9
$PUCSBASE
  2

  9
$PUCSNAME
  2

  9
$PUCSORG
 10
0.0
 20
0.0
 30
0.0
  9
$PUCSXDIR
 10
1.0
 20
0.0
 30
0.0
  9
$PUCSYDIR
 10
0.0
 20
1.0
 30
0.0
  9
$PUCSORTHOREF
  2

  9
$PUCSORTHOVIEW
 70
     0
  9
$PUCSORGTOP
 10
0.0
 20
0.0
 30
0.0
  9
$PUCSORGBOTTOM
 10
0.0
 20
0.0
 30
0.0
  9
$PUCSORGLEFT
 10
0.0
 20
0.0
 30
0.0
  9
$PUCSORGRIGHT
 10
0.0
 20
0.0
 30
0.0
  9
$PUCSORGFRONT
 10
0.0
 20
0.0
 30
0.0
  9
$PUCSORGBACK
 10
0.0
 20
0.0
 30
0.0
  9
$USERI1
 70
     0
  9
$USERI2
 70
     0
  9
$USERI3
 70
     0
  9
$USERI4
 70
     0
  9
$USERI5
 70
     0
  9
$USERR1
 40
0.0
  9
$USERR2
 40
0.0
  9
$USERR3
 40
0.0
  9
$USERR4
 40
0.0
  9
$USERR5
 40
0.0
  9
$WORLDVIEW
 70
     1
  9
$SHADEDGE
 70
     3
  9
$SHADEDIF
 70
    70
  9
$TILEMODE
 70
     1
  9
$MAXACTVP
 70
    64
  9
$PINSBASE
 10
0.0
 20
0.0
 30
0.0
  9
$PLIMCHECK
 70
     0
  9
$PEXTMIN
 10
1.000000000000000E+20
 20
1.000000000000000E+20
 30
1.000000000000000E+20
  9
$PEXTMAX
 10
-1.000000000000000E+20
 20
-1.000000000000000E+20
 30
-1.000000000000000E+20
  9
$PLIMMIN
 10
0.0
 20
0.0
  9
$PLIMMAX
 10
420.0
 20
297.0
  9
$UNITMODE
 70
     0
  9
$VISRETAIN
 70
     1
  9
$PLINEGEN
 70
     0
  9
$PSLTSCALE
 70
     1
  9
$TREEDEPTH
 70
  3020
  9
$CMLSTYLE
  2
Standard
  9
$CMLJUST
 70
     0
  9
$CMLSCALE
 40
20.0
  9
$PROXYGRAPHICS
 70
     1
  9
$MEASUREMENT
 70
     1
  9
$CELWEIGHT
370
    -1
  9
$ENDCAPS
280
     0
  9
$JOINSTYLE
280
     0
  9
$LWDISPLAY
290
     0
  9
$INSUNITS
 70
     6
  9
$HYPERLINKBASE
  1

  9
$STYLESHEET
  1

  9
$XEDIT
290
     1
  9
$CEPSNTYPE
380
     0
  9
$PSTYLEMODE
290
     1
  9
$FINGERPRINTGUID
  2
{9CE1F814-1130-445E-AB5C-166F3F164200}
  9
$VERSIONGUID
  2
{EF6195A6-3419-A94F-B83D-994A9DDB3295}
  9
$EXTNAMES
290
     1
  9
$PSVPSCALE
 40
0.0
  9
$OLESTARTUP
290
     0
  9
$SORTENTS
280
   127
  9
$INDEXCTL
280
     0
  9
$HIDETEXT
280
     1
  9
$XCLIPFRAME
280
     0
  9
$HALOGAP
280
     0
  9
$OBSCOLOR
 70
   257
  9
$OBSLTYPE
280
     0
  9
$INTERSECTIONDISPLAY
280
     0
  9
$INTERSECTIONCOLOR
 70
   257
  9
$DIMASSOC
280
     2
  9
$PROJECTNAME
  1

  9
$CAMERADISPLAY
290
     0
  9
$LENSLENGTH
 40
50.0
  9
$CAMERAHEIGHT
 40
0.0
  9
$STEPSPERSEC
 40
24.0
  9
$STEPSIZE
 40
100.0
  9
$3DDWFPREC
 40
2.0
  9
$PSOLWIDTH
 40
0.005
  9
$PSOLHEIGHT
 40
0.08
  9
$LOFTANG1
 40
1.570796326795
  9
$LOFTANG2
 40
1.570796326795
  9
$LOFTMAG1
 40
0.0
  9
$LOFTMAG2
 40
0.0
  9
$LOFTPARAM
 70
     7
  9
$LOFTNORMALS
280
     1
  9
$LATITUDE
 40
37.795
  9
$LONGITUDE
 40
-122.394
  9
$NORTHDIRECTION
 40
0.0
  9
$TIMEZONE
 70
 -8000
  9
$LIGHTGLYPHDISPLAY
280
     1
  9
$TILEMODELIGHTSYNCH
280
     1
  9
$CMATERIAL
347
20
  9
$SOLIDHIST
280
     0
  9
$SHOWHIST
280
     1
  9
$DWFFRAME
280
     2
  9
$DGNFRAME
280
     2
  9
$REALWORLDSCALE
290
     1
  9
$INTERFERECOLOR
 62
   256
  9
$INTERFEREOBJVS
345
B6
  9
$INTERFEREVPVS
346
B3
  9
$CSHADOW
280
     0
  9
$SHADOWPLANELOCATION
 40
0.0
  0
ENDSEC
  0
SECTION
  2
CLASSES
  0
CLASS
  1
ACDBDICTIONARYWDFLT
  2
AcDbDictionaryWithDefault
  3
ObjectDBX Classes
 90
        0
 91
        1
280
     0
281
     0
  0
CLASS
  1
SUN
  2
AcDbSun
  3
SCENEOE
 90
     1153
 91
        0
280
     0
281
     0
  0
CLASS
  1
VISUALSTYLE
  2
AcDbVisualStyle
  3
ObjectDBX Classes
 90
     4095
 91
       24
280
     0
281
     0
  0
CLASS
  1
MATERIAL
  2
AcDbMaterial
  3
ObjectDBX Classes
 90
     1153
 91
        3
280
     0
281
     0
  0
CLASS
  1
SCALE
  2
AcDbScale
  3
ObjectDBX Classes
 90
     1153
 91
       17
280
     0
281
     0
  0
CLASS
  1
TABLESTYLE
  2
AcDbTableStyle
  3
ObjectDBX Classes
 90
     4095
 91
        1
280
     0
281
     0
  0
CLASS
  1
MLEADERSTYLE
  2
AcDbMLeaderStyle
  3
ACDB_MLEADERSTYLE_CLASS
 90
     4095
 91
        1
280
     0
281
     0
  0
CLASS
  1
DICTIONARYVAR
  2
AcDbDictionaryVar
  3
ObjectDBX Classes
 90
        0
 91
        8
280
     0
281
     0
  0
CLASS
  1
CELLSTYLEMAP
  2
AcDbCellStyleMap
  3
ObjectDBX Classes
 90
     1152
 91
        2
280
     0
281
     0
  0
CLASS
  1
MENTALRAYRENDERSETTINGS
  2
AcDbMentalRayRenderSettings
  3
SCENEOE
 90
     1024
 91
        0
280
     0
281
     0
  0
CLASS
  1
ACDBDETAILVIEWSTYLE
  2
AcDbDetailViewStyle
  3
ObjectDBX Classes
 90
     1025
 91
        1
280
     0
281
     0
  0
CLASS
  1
ACDBSECTIONVIEWSTYLE
  2
AcDbSectionViewStyle
  3
ObjectDBX Classes
 90
     1025
 91
        1
280
     0
281
     0
  0
CLASS
  1
RASTERVARIABLES
  2
AcDbRasterVariables
  3
ISM
 90
        0
 91
        0
280
     0
281
     0
  0
ENDSEC
  0
SECTION
  2
TABLES
  0
TABLE
  2
VPORT
  5
8
330
0
100
AcDbSymbolTable
 70
     1
  0
VPORT
  5
23
330
8
100
AcDbSymbolTableRecord
100
AcDbViewportTableRecord
  2
*Active
 70
     0
 10
0.0
 20
0.0
 11
1.0
 21
1.0
 12
7108.948860885085
 22
862.8760001147057
 13
0.0
 23
0.0
 14
0.5
 24
0.5
 15
0.5
 25
0.5
 16
0.0
 26
0.0
 36
1.0
 17
0.0
 27
0.0
 37
0.0
 40
2382.813969877119
 41
4.085168869309838
 42
50.0
 43
0.0
 44
0.0
 50
0.0
 51
0.0
 71
     0
 72
  1000
 73
     1
 74
     3
 75
     0
 76
     0
 77
     0
 78
     0
281
     0
 65
     0
110
0.0
120
0.0
130
0.0
111
1.0
121
0.0
131
0.0
112
0.0
122
1.0
132
0.0
 79
     0
146
0.0
348
B2
 60
     3
 61
     5
292
     1
282
     1
141
0.0
142
0.0
 63
   250
421
  3355443
1001
ACAD_NAV_VCDISPLAY
1070
     3
  0
ENDTAB
  0
TABLE
  2
LTYPE
  5
2
330
0
100
AcDbSymbolTable
 70
     1
  0
LTYPE
  5
24
330
2
100
AcDbSymbolTableRecord
100
AcDbLinetypeTableRecord
  2
ByBlock
 70
     0
  3

 72
    65
 73
     0
 40
0.0
  0
LTYPE
  5
25
330
2
100
AcDbSymbolTableRecord
100
AcDbLinetypeTableRecord
  2
ByLayer
 70
     0
  3

 72
    65
 73
     0
 40
0.0
  0
LTYPE
  5
26
330
2
100
AcDbSymbolTableRecord
100
AcDbLinetypeTableRecord
  2
Continuous
 70
     0
  3

 72
    65
 73
     0
 40
0.0
  0
ENDTAB
  0
TABLE
  2
LAYER
  5
1
102
{ACAD_XDICTIONARY
360
17E
102
}
330
0
100
AcDbSymbolTable
 70
    16
  0
LAYER
  5
27
330
1
100
AcDbSymbolTableRecord
100
AcDbLayerTableRecord
  2
0
 70
     0
 62
     7
  6
Continuous
370
    -3
390
13
347
21
348
0
  0
LAYER
  5
28
330
1
100
AcDbSymbolTableRecord
100
AcDbLayerTableRecord
  2
Defpoints
 70
     0
 62
     7
  6
Continuous
290
     0
370
    -3
390
13
347
21
348
0
  0
LAYER
  5
2F
330
1
100
AcDbSymbolTableRecord
100
AcDbLayerTableRecord
  2
V236_LW_CUR34_02_090_BX1000
 70
     0
 62
     7
  6
Continuous
370
    -3
390
13
347
21
348
0
  0
LAYER
  5
30
330
1
100
AcDbSymbolTableRecord
100
AcDbLayerTableRecord
  2
TAGGING
 70
     0
 62
     7
  6
Continuous
370
    -3
390
13
347
21
348
0
  0
LAYER
  5
31
330
1
100
AcDbSymbolTableRecord
100
AcDbLayerTableRecord
  2
DATUM LINE
 70
     0
 62
   141
  6
Continuous
370
    -3
390
13
347
21
348
0
  0
LAYER
  5
A0
330
1
100
AcDbSymbolTableRecord
100
AcDbLayerTableRecord
  2
FRAME
 70
     0
 62
    30
  6
Continuous
370
    -3
390
13
347
21
348
0
  0
LAYER
  5
A7
330
1
100
AcDbSymbolTableRecord
100
AcDbLayerTableRecord
  2
V236_LW_CUR34_02_098_BX1000
 70
     0
 62
     7
  6
Continuous
370
    -3
390
13
347
21
348
0
  0
LAYER
  5
A8
330
1
100
AcDbSymbolTableRecord
100
AcDbLayerTableRecord
  2
V236_LW_CUR34_02_126_BX1000
 70
     0
 62
     7
  6
Continuous
370
    -3
390
13
347
21
348
0
  0
LAYER
  5
A9
330
1
100
AcDbSymbolTableRecord
100
AcDbLayerTableRecord
  2
V236_LW_CUR34_02_128_BX1000
 70
     0
 62
     7
  6
Continuous
370
    -3
390
13
347
21
348
0
  0
LAYER
  5
AA
330
1
100
AcDbSymbolTableRecord
100
AcDbLayerTableRecord
  2
V236_LW_CUR34_02_130_BX1000
 70
     0
 62
     7
  6
Continuous
370
    -3
390
13
347
21
348
0
  0
LAYER
  5
AB
330
1
100
AcDbSymbolTableRecord
100
AcDbLayerTableRecord
  2
V236_LW_CUR34_02_132_BX1000
 70
     0
 62
     7
  6
Continuous
370
    -3
390
13
347
21
348
0
  0
LAYER
  5
AC
330
1
100
AcDbSymbolTableRecord
100
AcDbLayerTableRecord
  2
V236_LW_CUR34_02_136_UD90
 70
     0
 62
     7
  6
Continuous
370
    -3
390
13
347
21
348
0
  0
LAYER
  5
173
102
{ACAD_XDICTIONARY
360
174
102
}
330
1
100
AcDbSymbolTableRecord
100
AcDbLayerTableRecord
  2
TEXT
 70
     0
 62
     7
  6
Continuous
370
    13
390
13
347
21
348
0
  0
LAYER
  5
175
102
{ACAD_XDICTIONARY
360
176
102
}
330
1
100
AcDbSymbolTableRecord
100
AcDbLayerTableRecord
  2
STRATEGYPOINT
 70
     0
 62
     7
  6
Continuous
370
    13
390
13
347
21
348
0
  0
LAYER
  5
177
102
{ACAD_XDICTIONARY
360
178
102
}
330
1
100
AcDbSymbolTableRecord
100
AcDbLayerTableRecord
  2
ROSETTE
 70
     0
 62
     7
  6
Continuous
370
    13
390
13
347
21
348
0
  0
LAYER
  5
179
102
{ACAD_XDICTIONARY
360
17A
102
}
330
1
100
AcDbSymbolTableRecord
100
AcDbLayerTableRecord
  2
OUTER
 70
     0
 62
     7
  6
Continuous
370
    13
390
13
347
21
348
0
  0
ENDTAB
  0
TABLE
  2
STYLE
  5
5
330
0
100
AcDbSymbolTable
 70
     1
  0
STYLE
  5
29
330
5
100
AcDbSymbolTableRecord
100
AcDbTextStyleTableRecord
  2
Standard
 70
     0
 40
0.0
 41
1.0
 50
0.0
 71
     0
 42
2.5
  3
txt
  4

  0
ENDTAB
  0
TABLE
  2
VIEW
  5
7
330
0
100
AcDbSymbolTable
 70
     0
  0
ENDTAB
  0
TABLE
  2
UCS
  5
6
330
0
100
AcDbSymbolTable
 70
     0
  0
ENDTAB
  0
TABLE
  2
APPID
  5
3
330
0
100
AcDbSymbolTable
 70
     7
  0
APPID
  5
2A
330
3
100
AcDbSymbolTableRecord
100
AcDbRegAppTableRecord
  2
ACAD
 70
     0
  0
APPID
  5
A2
330
3
100
AcDbSymbolTableRecord
100
AcDbRegAppTableRecord
  2
HATCHBACKGROUNDCOLOR
 70
     0
  0
APPID
  5
A3
330
3
100
AcDbSymbolTableRecord
100
AcDbRegAppTableRecord
  2
EZDXF
 70
     0
  0
APPID
  5
17B
330
3
100
AcDbSymbolTableRecord
100
AcDbRegAppTableRecord
  2
ACAD_NAV_VCDISPLAY
 70
     0
  0
APPID
  5
17C
330
3
100
AcDbSymbolTableRecord
100
AcDbRegAppTableRecord
  2
AcAecLayerStandard
 70
     0
  0
APPID
  5
17D
330
3
100
AcDbSymbolTableRecord
100
AcDbRegAppTableRecord
  2
AcCmTransparency
 70
     0
  0
APPID
  5
1E2
330
3
100
AcDbSymbolTableRecord
100
AcDbRegAppTableRecord
  2
ACAD_EXEMPT_FROM_CAD_STANDARDS
 70
     0
  0
ENDTAB
  0
TABLE
  2
DIMSTYLE
  5
4
330
0
100
AcDbSymbolTable
 70
     1
100
AcDbDimStyleTable
 71
     0
  0
DIMSTYLE
105
2B
330
4
100
AcDbSymbolTableRecord
100
AcDbDimStyleTableRecord
  2
Standard
 70
     0
 41
2.5
 42
0.625
 43
3.75
 44
1.25
 49
2.5
 73
     0
 74
     0
 77
     1
 78
     8
 79
     3
140
2.5
141
2.5
143
0.03937007874
147
0.625
171
     3
172
     1
179
     2
271
     2
272
     2
274
     3
278
    44
283
     0
284
     8
340
29
  0
ENDTAB
  0
TABLE
  2
BLOCK_RECORD
  5
9
330
0
100
AcDbSymbolTable
 70
    22
  0
BLOCK_RECORD
  5
17
330
9
100
AcDbSymbolTableRecord
100
AcDbBlockTableRecord
  2
*Model_Space
340
1A
 70
     0
280
     1
281
     0
  0
BLOCK_RECORD
  5
1B
330
9
100
AcDbSymbolTableRecord
100
AcDbBlockTableRecord
  2
*Paper_Space
340
1E
 70
     0
280
     1
281
     0
  0
BLOCK_RECORD
  5
E0
330
9
100
AcDbSymbolTableRecord
100
AcDbBlockTableRecord
  2
TE_TEXT_1
340
0
102
{BLKREFS
331
EA
102
}
 70
     0
280
     1
281
     0
  0
BLOCK_RECORD
  5
E4
330
9
100
AcDbSymbolTableRecord
100
AcDbBlockTableRecord
  2
V236_LW_CUR34_02_090_TEXT_2
340
0
102
{BLKREFS
331
EB
102
}
 70
     0
280
     1
281
     0
  0
BLOCK_RECORD
  5
E8
330
9
100
AcDbSymbolTableRecord
100
AcDbBlockTableRecord
  2
29276884_INF_GF_HM_BI45_1000_54_CHORDWISE_V1_V236_LW_CUR34_02_090_R0_I1_DXF
340
0
 70
     0
280
     1
281
     0
  0
BLOCK_RECORD
  5
F4
330
9
100
AcDbSymbolTableRecord
100
AcDbBlockTableRecord
  2
TE_TEXT_3
340
0
102
{BLKREFS
331
FE
102
}
 70
     0
280
     1
281
     0
  0
BLOCK_RECORD
  5
F8
330
9
100
AcDbSymbolTableRecord
100
AcDbBlockTableRecord
  2
V236_LW_CUR34_02_098_TEXT_4
340
0
102
{BLKREFS
331
FF
102
}
 70
     0
280
     1
281
     0
  0
BLOCK_RECORD
  5
FC
330
9
100
AcDbSymbolTableRecord
100
AcDbBlockTableRecord
  2
29276884_INF_GF_HM_BI45_1000_54_CHORDWISE_V1_V236_LW_CUR34_02_098_R0_I1_DXF
340
0
 70
     0
280
     1
281
     0
  0
BLOCK_RECORD
  5
108
330
9
100
AcDbSymbolTableRecord
100
AcDbBlockTableRecord
  2
TE_TEXT_5
340
0
102
{BLKREFS
331
112
102
}
 70
     0
280
     1
281
     0
  0
BLOCK_RECORD
  5
10C
330
9
100
AcDbSymbolTableRecord
100
AcDbBlockTableRecord
  2
V236_LW_CUR34_02_126_TEXT_6
340
0
102
{BLKREFS
331
113
102
}
 70
     0
280
     1
281
     0
  0
BLOCK_RECORD
  5
110
330
9
100
AcDbSymbolTableRecord
100
AcDbBlockTableRecord
  2
29276884_INF_GF_HM_BI45_1000_54_CHORDWISE_V1_V236_LW_CUR34_02_126_R0_I1_DXF
340
0
 70
     0
280
     1
281
     0
  0
BLOCK_RECORD
  5
11C
330
9
100
AcDbSymbolTableRecord
100
AcDbBlockTableRecord
  2
TE_TEXT_7
340
0
102
{BLKREFS
331
126
102
}
 70
     0
280
     1
281
     0
  0
BLOCK_RECORD
  5
120
330
9
100
AcDbSymbolTableRecord
100
AcDbBlockTableRecord
  2
V236_LW_CUR34_02_128_TEXT_8
340
0
102
{BLKREFS
331
127
102
}
 70
     0
280
     1
281
     0
  0
BLOCK_RECORD
  5
124
330
9
100
AcDbSymbolTableRecord
100
AcDbBlockTableRecord
  2
29276884_INF_GF_HM_BI45_1000_54_CHORDWISE_V1_V236_LW_CUR34_02_128_R0_I1_DXF
340
0
 70
     0
280
     1
281
     0
  0
BLOCK_RECORD
  5
130
330
9
100
AcDbSymbolTableRecord
100
AcDbBlockTableRecord
  2
TE_TEXT_9
340
0
102
{BLKREFS
331
13A
102
}
 70
     0
280
     1
281
     0
  0
BLOCK_RECORD
  5
134
330
9
100
AcDbSymbolTableRecord
100
AcDbBlockTableRecord
  2
V236_LW_CUR34_02_130_TEXT_10
340
0
102
{BLKREFS
331
13B
102
}
 70
     0
280
     1
281
     0
  0
BLOCK_RECORD
  5
138
330
9
100
AcDbSymbolTableRecord
100
AcDbBlockTableRecord
  2
29276884_INF_GF_HM_BI45_1000_54_CHORDWISE_V1_V236_LW_CUR34_02_130_R0_I1_DXF
340
0
 70
     0
280
     1
281
     0
  0
BLOCK_RECORD
  5
145
330
9
100
AcDbSymbolTableRecord
100
AcDbBlockTableRecord
  2
TE_TEXT_11
340
0
102
{BLKREFS
331
14F
102
}
 70
     0
280
     1
281
     0
  0
BLOCK_RECORD
  5
149
330
9
100
AcDbSymbolTableRecord
100
AcDbBlockTableRecord
  2
V236_LW_CUR34_02_132_TEXT_12
340
0
102
{BLKREFS
331
150
102
}
 70
     0
280
     1
281
     0
  0
BLOCK_RECORD
  5
14D
330
9
100
AcDbSymbolTableRecord
100
AcDbBlockTableRecord
  2
29276884_INF_GF_HM_BI45_1000_54_CHORDWISE_V1_V236_LW_CUR34_02_132_R0_I1_DXF
340
0
 70
     0
280
     1
281
     0
  0
BLOCK_RECORD
  5
159
330
9
100
AcDbSymbolTableRecord
100
AcDbBlockTableRecord
  2
TE_TEXT_13
340
0
102
{BLKREFS
331
163
102
}
 70
     0
280
     1
281
     0
  0
BLOCK_RECORD
  5
15D
330
9
100
AcDbSymbolTableRecord
100
AcDbBlockTableRecord
  2
V236_LW_CUR34_02_136_TEXT_14
340
0
102
{BLKREFS
331
164
102
}
 70
     0
280
     1
281
     0
  0
BLOCK_RECORD
  5
161
330
9
100
AcDbSymbolTableRecord
100
AcDbBlockTableRecord
  2
29276887_INF_GF_HM_UD90_600_54_CHORDWISE_V1_V236_LW_CUR34_02_136_R0_I1_DXF
340
0
 70
     0
280
     1
281
     0
  0
BLOCK_RECORD
  5
16E
330
9
100
AcDbSymbolTableRecord
100
AcDbBlockTableRecord
  2
Tagging cross
340
0
310
28000000300000003000000001002000000000000024000001000000010000000000000000000000302821FF302821FF302821FF302821FF302821FF302821FF302821FF302821FF302821FF302821FF302821FF302821FF302821FF302821FF302821FF302821FF302821FF302821FF302821FF302821FF302821FF302821
310
FF302821FF302821FF302821FF302821FF302821FF302821FF302821FF302821FF302821FF302821FF302821FF302821FF302821FF302821FF302821FF302821FF302821FF302821FF302821FF302821FF302821FF302821FF302821FF302821FF302821FF302821FF302821FF302821FF302821FF302821FF302821FF3028
310
21FF302821FF302821FF302821FF302821FF302821FF302821FF302821FF302821FF302821FF302821FF302821FF302821FF302821FF302821FF302821FF302821FF302821FF302821FF302821FF302821FF302821FF302821FF302821FF302821FF302821FF302821FF302821FF302821FF302821FF302821FF302821FF30
310
2821FF302821FF302821FF302821FF302821FF302821FF302821FF302821FF302821FF302821FF302821FF302821FF302821FFFFFFFFFF302821FF302821FF302821FF302821FF302821FF302821FF302821FF302821FF302821FF302821FF302821FF302821FF302821FF302821FF302821FF302821FF302821FF302821FF
310
302821FF302821FF302821FF302821FF302821FF302821FF302821FF302821FF302821FF302821FF302821FF302821FF302821FF302821FF302821FF302821FF302821FF302821FF302821FF302821FF302821FF302821FF302821FF302821FFFFFFFFFF302821FF302821FF302821FF302821FF302821FFFFFFFFFF302821
310
FF302821FF302821FF302821FF302821FF302821FF302821FF302821FF302821FF302821FF302821FF302821FF302821FF302821FF302821FF302821FF302821FF302821FF302821FF302821FF302821FF302821FF302821FF302821FF302821FF302821FF302821FF302821FF302821FF302821FF302821FF302821FF3028
310
21FF302821FF302821FF302821FF302821FF302821FF302821FF302821FFFFFFFFFF302821FF302821FF302821FF302821FF302821FF302821FF302821FFFFFFFFFF302821FF302821FF302821FF302821FF302821FF302821FF302821FF302821FF302821FF302821FF302821FF302821FF302821FF302821FF302821FF30
310
2821FF302821FF302821FF302821FF302821FF302821FF302821FF302821FF302821FF302821FF302821FF302821FF302821FF302821FF302821FF302821FF302821FF302821FF302821FF302821FF302821FF302821FF302821FFFFFFFFFF302821FF302821FF302821FF302821FF302821FF302821FF302821FF302821FF
310
302821FFFFFFFFFF302821FF302821FF302821FF302821FF302821FF302821FF302821FF302821FF302821FF302821FF302821FF302821FF302821FF302821FF302821FF302821FF302821FF302821FF302821FF302821FF302821FF302821FF302821FF302821FF302821FF302821FF302821FF302821FF302821FF302821
310
FF302821FF302821FF302821FF302821FF302821FF302821FFFFFFFFFF302821FF302821FF302821FF302821FF302821FF302821FF302821FF302821FF302821FF302821FF302821FFFFFFFFFF302821FF302821FF302821FF302821FF302821FF302821FF302821FF302821FF302821FF302821FF302821FF302821FF3028
310
21FF302821FF302821FF302821FF302821FF302821FF302821FF302821FF302821FF302821FF302821FF302821FF302821FF302821FF302821FF302821FF302821FF302821FF302821FF302821FF302821FF302821FFFFFFFFFF302821FF302821FF302821FF302821FF302821FF302821FF302821FF302821FF302821FF30
310
2821FF302821FF302821FF302821FFFFFFFFFF302821FF302821FF302821FF302821FF302821FF302821FF302821FF302821FF302821FF302821FF302821FF302821FF302821FF302821FF302821FF302821FF302821FF302821FF302821FF302821FF302821FF302821FF302821FF302821FF302821FF302821FF302821FF
310
302821FF302821FF302821FF302821FF302821FFFFFFFFFF302821FF302821FF302821FF302821FF302821FF302821FF302821FF302821FF302821FF302821FF302821FF302821FF302821FF302821FF302821FFFFFFFFFF302821FF302821FF302821FF302821FF302821FF302821FF302821FF302821FF302821FF302821
310
FF302821FF302821FF302821FF302821FF302821FF302821FF302821FF302821FF302821FF302821FF302821FF302821FF302821FF302821FF302821FF302821FF302821FF302821FF302821FF302821FFFFFFFFFF302821FF302821FF302821FF302821FF302821FF302821FF302821FF302821FF302821FF302821FF3028
310
21FF302821FF302821FF302821FF302821FF302821FF302821FFFFFFFFFF302821FF302821FF302821FF302821FF302821FF302821FF302821FF302821FF302821FF302821FF302821FF302821FF302821FF302821FF302821FF302821FF302821FF302821FF302821FF302821FF302821FF302821FF302821FF302821FF30
310
2821FF302821FF302821FF302821FFFFFFFFFF302821FF302821FF302821FF302821FF302821FF302821FF302821FF302821FF302821FF302821FF302821FF302821FF302821FF302821FF302821FF302821FF302821FF302821FF302821FFFFFFFFFF302821FF302821FF302821FF302821FF302821FF302821FF302821FF
310
302821FF302821FF302821FF302821FF302821FF302821FF302821FF302821FF302821FF302821FF302821FF302821FF302821FF302821FF302821FF302821FF302821FF302821FF302821FFFFFFFFFF302821FF302821FF302821FF302821FF302821FF302821FF302821FF302821FF302821FF302821FF302821FF302821
310
FF302821FF302821FF302821FF302821FF302821FF302821FF302821FF302821FF302821FFFFFFFFFF302821FF302821FF302821FF302821FF302821FF302821FF302821FF302821FF302821FF302821FF302821FF302821FF302821FF302821FF302821FF302821FF302821FF302821FF302821FF302821FF302821FF3028
310
21FF302821FF302821FFFFFFFFFF302821FF302821FF302821FF302821FF302821FF302821FF302821FF302821FF302821FF302821FF302821FF302821FF302821FF302821FF302821FF302821FF302821FF302821FF302821FF302821FF302821FF302821FF302821FFFFFFFFFF302821FF302821FF302821FF302821FF30
310
2821FF302821FF302821FF302821FF302821FF302821FF302821FF302821FF302821FF302821FF302821FF302821FF302821FF302821FF302821FF302821FF302821FF302821FFFFFFFFFF302821FF302821FF302821FF302821FF302821FF302821FF302821FF302821FF302821FF302821FF302821FF302821FF302821FF
310
302821FF302821FF302821FF302821FF302821FF302821FF302821FF302821FF302821FF302821FF302821FF302821FFFFFFFFFF302821FF302821FF302821FF302821FF302821FF302821FF302821FF302821FF302821FF302821FF302821FF302821FF302821FF302821FF302821FF302821FF302821FF302821FF302821
310
FF302821FFFFFFFFFF302821FF302821FF302821FF302821FF302821FF302821FF302821FF302821FF302821FF302821FF302821FF302821FF302821FF302821FF302821FF302821FF302821FF302821FF302821FF302821FF302821FF302821FF302821FF302821FF302821FF302821FF302821FFFFFFFFFF302821FF3028
310
21FF302821FF302821FF302821FF302821FF302821FF302821FF302821FF302821FF302821FF302821FF302821FF302821FF302821FF302821FF302821FF302821FFFFFFFFFF302821FF302821FF302821FF302821FF302821FF302821FF302821FF302821FF302821FF302821FF302821FF302821FF302821FF302821FF30
310
2821FF302821FF302821FF302821FF302821FF302821FF302821FF302821FF302821FF302821FF302821FF302821FF302821FF302821FF302821FFFFFFFFFF302821FF302821FF302821FF302821FF302821FF302821FF302821FF302821FF302821FF302821FF302821FF302821FF302821FF302821FF302821FF302821FF
310
FFFFFFFF302821FF302821FF302821FF302821FF302821FF302821FF302821FF302821FF302821FF302821FF302821FF302821FF302821FF302821FF302821FF302821FF302821FF302821FF302821FF302821FF302821FF302821FF302821FF302821FF302821FF302821FF302821FF302821FF302821FF302821FF302821
310
FFFFFFFFFF302821FF302821FF302821FF302821FF302821FF302821FF302821FF302821FF302821FF302821FF302821FF302821FF302821FF302821FFFFFFFFFF302821FF302821FF302821FF302821FF302821FF302821FF302821FF302821FF302821FF302821FF302821FF302821FF302821FF302821FF302821FF3028
310
21FF302821FF302821FF302821FF302821FF302821FF302821FF302821FF302821FF302821FF302821FF302821FF302821FF302821FF302821FF302821FF302821FF302821FFFFFFFFFF302821FF302821FF302821FF302821FF302821FF302821FF302821FF302821FF302821FF302821FF302821FF302821FFFFFFFFFF30
310
2821FF302821FF302821FF302821FF302821FF302821FF302821FF302821FF302821FF302821FF302821FF302821FF302821FF302821FF302821FF302821FF302821FF302821FF302821FF302821FF302821FF302821FF302821FF302821FF302821FF302821FF302821FF302821FF302821FF302821FF302821FF302821FF
310
302821FF302821FF302821FFFFFFFFFF302821FF302821FF302821FF302821FF302821FF302821FF302821FF302821FF302821FF302821FFFFFFFFFF302821FF302821FF302821FF302821FF302821FF302821FF302821FF302821FF302821FF302821FF302821FF302821FF302821FF302821FF302821FF302821FF302821
310
FF302821FF302821FF302821FF302821FF302821FF302821FF302821FF302821FF302821FF302821FF302821FF302821FF302821FF302821FF302821FF302821FF302821FF302821FF302821FF302821FFFFFFFFFF302821FF302821FF302821FF302821FF302821FF302821FF302821FF302821FFFFFFFFFF302821FF3028
310
21FF302821FF302821FF302821FF302821FF302821FF302821FF302821FF302821FF302821FF302821FF302821FF302821FF302821FF302821FF302821FF302821FF302821FF302821FF302821FF302821FF302821FF302821FF302821FF302821FF302821FF302821FF302821FF302821FF302821FF302821FF302821FF30
310
2821FF302821FF302821FF302821FF302821FF302821FFFFFFFFFF302821FF302821FF302821FF302821FF302821FF302821FFFFFFFFFF302821FF302821FF302821FF302821FF302821FF302821FF302821FF302821FF302821FF302821FF302821FF302821FF302821FF302821FF302821FF302821FF302821FF302821FF
310
302821FF302821FF302821FF302821FF302821FF302821FF302821FF302821FF302821FF302821FF302821FF302821FF302821FF302821FF302821FF302821FF302821FF302821FF302821FF302821FF302821FF302821FF302821FFFFFFFFFF302821FF302821FF302821FF302821FFFFFFFFFF302821FF302821FF302821
310
FF302821FF302821FF302821FF302821FF302821FF302821FF302821FF302821FF302821FF302821FF302821FF302821FF302821FF302821FF302821FF302821FF302821FF302821FF302821FF302821FF302821FF302821FF302821FF302821FF302821FF302821FF302821FF302821FF302821FF302821FF302821FF3028
310
21FF302821FF302821FF302821FF302821FF302821FF302821FF302821FF302821FFFFFFFFFF302821FF302821FFFFFFFFFF302821FF302821FF302821FF302821FF302821FF302821FF302821FF302821FF302821FF302821FF302821FF302821FF302821FF302821FF302821FF302821FF302821FF302821FF302821FF30
310
2821FF302821FF302821FF302821FF302821FF302821FF302821FF302821FF302821FF302821FF302821FF302821FF302821FF302821FF302821FF302821FF302821FF302821FF302821FF302821FF302821FF302821FF302821FF302821FF302821FF302821FFFFFFFFFFFFFFFFFF302821FF302821FF302821FF302821FF
310
302821FF302821FF302821FF302821FF302821FF302821FF302821FF302821FF302821FF302821FF302821FF302821FF302821FF302821FF302821FF302821FF302821FF302821FF302821FF302821FF302821FF302821FF302821FF302821FF302821FF302821FF302821FF302821FF302821FF302821FF302821FF302821
310
FF302821FF302821FF302821FF302821FF302821FF302821FF302821FF302821FF302821FF302821FFFFFFFFFFFFFFFFFF302821FF302821FF302821FF302821FF302821FF302821FF302821FF302821FF302821FF302821FF302821FF302821FF302821FF302821FF302821FF302821FF302821FF302821FF302821FF3028
310
21FF302821FF302821FF302821FF302821FF302821FF302821FF302821FF302821FF302821FF302821FF302821FF302821FF302821FF302821FF302821FF302821FF302821FF302821FF302821FF302821FF302821FF302821FF302821FF302821FF302821FFFFFFFFFF302821FF302821FFFFFFFFFF302821FF302821FF30
310
2821FF302821FF302821FF302821FF302821FF302821FF302821FF302821FF302821FF302821FF302821FF302821FF302821FF302821FF302821FF302821FF302821FF302821FF302821FF302821FF302821FF302821FF302821FF302821FF302821FF302821FF302821FF302821FF302821FF302821FF302821FF302821FF
310
302821FF302821FF302821FF302821FF302821FF302821FF302821FF302821FF302821FFFFFFFFFF302821FF302821FF302821FF302821FFFFFFFFFF302821FF302821FF302821FF302821FF302821FF302821FF302821FF302821FF302821FF302821FF302821FF302821FF302821FF302821FF302821FF302821FF302821
310
FF302821FF302821FF302821FF302821FF302821FF302821FF302821FF302821FF302821FF302821FF302821FF302821FF302821FF302821FF302821FF302821FF302821FF302821FF302821FF302821FF302821FF302821FF302821FF302821FFFFFFFFFF302821FF302821FF302821FF302821FF302821FF302821FFFFFF
310
FFFF302821FF302821FF302821FF302821FF302821FF302821FF302821FF302821FF302821FF302821FF302821FF302821FF302821FF302821FF302821FF302821FF302821FF302821FF302821FF302821FF302821FF302821FF302821FF302821FF302821FF302821FF302821FF302821FF302821FF302821FF302821FF30
310
2821FF302821FF302821FF302821FF302821FF302821FF302821FF302821FFFFFFFFFF302821FF302821FF302821FF302821FF302821FF302821FF302821FF302821FFFFFFFFFF302821FF302821FF302821FF302821FF302821FF302821FF302821FF302821FF302821FF302821FF302821FF302821FF302821FF302821FF
310
302821FF302821FF302821FF302821FF302821FF302821FF302821FF302821FF302821FF302821FF302821FF302821FF302821FF302821FF302821FF302821FF302821FF302821FF302821FF302821FF302821FF302821FF302821FFFFFFFFFF302821FF302821FF302821FF302821FF302821FF302821FF302821FF302821
310
FF302821FF302821FFFFFFFFFF302821FF302821FF302821FF302821FF302821FF302821FF302821FF302821FF302821FF302821FF302821FF302821FF302821FF302821FF302821FF302821FF302821FF302821FF302821FF302821FF302821FF302821FF302821FF302821FF302821FF302821FF302821FF302821FF3028
310
21FF302821FF302821FF302821FF302821FF302821FF302821FFFFFFFFFF302821FF302821FF302821FF302821FF302821FF302821FF302821FF302821FF302821FF302821FF302821FF302821FFFFFFFFFF302821FF302821FF302821FF302821FF302821FF302821FF302821FF302821FF302821FF302821FF302821FF30
310
2821FF302821FF302821FF302821FF302821FF302821FF302821FF302821FF302821FF302821FF302821FF302821FF302821FF302821FF302821FF302821FF302821FF302821FF302821FF302821FF302821FF302821FFFFFFFFFF302821FF302821FF302821FF302821FF302821FF302821FF302821FF302821FF302821FF
310
302821FF302821FF302821FF302821FF302821FFFFFFFFFF302821FF302821FF302821FF302821FF302821FF302821FF302821FF302821FF302821FF302821FF302821FF302821FF302821FF302821FF302821FF302821FF302821FF302821FF302821FF302821FF302821FF302821FF302821FF302821FF302821FF302821
310
FF302821FF302821FF302821FF302821FF302821FFFFFFFFFF302821FF302821FF302821FF302821FF302821FF302821FF302821FF302821FF302821FF302821FF302821FF302821FF302821FF302821FF302821FF302821FFFFFFFFFF302821FF302821FF302821FF302821FF302821FF302821FF302821FF302821FF3028
310
21FF302821FF302821FF302821FF302821FF302821FF302821FF302821FF302821FF302821FF302821FF302821FF302821FF302821FF302821FF302821FF302821FF302821FF302821FF302821FF302821FFFFFFFFFF302821FF302821FF302821FF302821FF302821FF302821FF302821FF302821FF302821FF302821FF30
310
2821FF302821FF302821FF302821FF302821FF302821FF302821FF302821FFFFFFFFFF302821FF302821FF302821FF302821FF302821FF302821FF302821FF302821FF302821FF302821FF302821FF302821FF302821FF302821FF302821FF302821FF302821FF302821FF302821FF302821FF302821FF302821FF302821FF
310
302821FF302821FF302821FF302821FFFFFFFFFF302821FF302821FF302821FF302821FF302821FF302821FF302821FF302821FF302821FF302821FF302821FF302821FF302821FF302821FF302821FF302821FF302821FF302821FF302821FF302821FFFFFFFFFF302821FF302821FF302821FF302821FF302821FF302821
310
FF302821FF302821FF302821FF302821FF302821FF302821FF302821FF302821FF302821FF302821FF302821FF302821FF302821FF302821FF302821FF302821FF302821FF302821FF302821FFFFFFFFFF302821FF302821FF302821FF302821FF302821FF302821FF302821FF302821FF302821FF302821FF302821FF3028
310
21FF302821FF302821FF302821FF302821FF302821FF302821FF302821FF302821FF302821FF302821FFFFFFFFFF302821FF302821FF302821FF302821FF302821FF302821FF302821FF302821FF302821FF302821FF302821FF302821FF302821FF302821FF302821FF302821FF302821FF302821FF302821FF302821FF30
310
2821FF302821FF302821FFFFFFFFFF302821FF302821FF302821FF302821FF302821FF302821FF302821FF302821FF302821FF302821FF302821FF302821FF302821FF302821FF302821FF302821FF302821FF302821FF302821FF302821FF302821FF302821FF302821FF302821FFFFFFFFFF302821FF302821FF302821FF
310
302821FF302821FF302821FF302821FF302821FF302821FF302821FF302821FF302821FF302821FF302821FF302821FF302821FF302821FF302821FF302821FF302821FF302821FFFFFFFFFF302821FF302821FF302821FF302821FF302821FF302821FF302821FF302821FF302821FF302821FF302821FF302821FF302821
310
FF302821FF302821FF302821FF302821FF302821FF302821FF302821FF302821FF302821FF302821FF302821FF302821FF302821FFFFFFFFFF302821FF302821FF302821FF302821FF302821FF302821FF302821FF302821FF302821FF302821FF302821FF302821FF302821FF302821FF302821FF302821FF302821FF3028
310
21FF302821FFFFFFFFFF302821FF302821FF302821FF302821FF302821FF302821FF302821FF302821FF302821FF302821FF302821FF302821FF302821FF302821FF302821FF302821FF302821FF302821FF302821FF302821FF302821FF302821FF302821FF302821FF302821FF302821FF302821FF302821FFFFFFFFFF30
310
2821FF302821FF302821FF302821FF302821FF302821FF302821FF302821FF302821FF302821FF302821FF302821FF302821FF302821FF302821FF302821FF302821FFFFFFFFFF302821FF302821FF302821FF302821FF302821FF302821FF302821FF302821FF302821FF302821FF302821FF302821FF302821FF302821FF
310
302821FF302821FF302821FF302821FF302821FF302821FF302821FF302821FF302821FF302821FF302821FF302821FF302821FF302821FF302821FF302821FFFFFFFFFF302821FF302821FF302821FF302821FF302821FF302821FF302821FF302821FF302821FF302821FF302821FF302821FF302821FF302821FF302821
310
FFFFFFFFFF302821FF302821FF302821FF302821FF302821FF302821FF302821FF302821FF302821FF302821FF302821FF302821FF302821FF302821FF302821FF302821FF302821FF302821FF302821FF302821FF302821FF302821FF302821FF302821FF302821FF302821FF302821FF302821FF302821FF302821FF3028
310
21FF302821FFFFFFFFFF302821FF302821FF302821FF302821FF302821FF302821FF302821FF302821FF302821FF302821FF302821FF302821FF302821FFFFFFFFFF302821FF302821FF302821FF302821FF302821FF302821FF302821FF302821FF302821FF302821FF302821FF302821FF302821FF302821FF302821FF30
310
2821FF302821FF302821FF302821FF302821FF302821FF302821FF302821FF302821FF302821FF302821FF302821FF302821FF302821FF302821FF302821FF302821FF302821FF302821FFFFFFFFFF302821FF302821FF302821FF302821FF302821FF302821FF302821FF302821FF302821FF302821FF302821FFFFFFFFFF
310
302821FF302821FF302821FF302821FF302821FF302821FF302821FF302821FF302821FF302821FF302821FF302821FF302821FF302821FF302821FF302821FF302821FF302821FF302821FF302821FF302821FF302821FF302821FF302821FF302821FF302821FF302821FF302821FF302821FF302821FF302821FF302821
310
FF302821FF302821FF302821FF302821FFFFFFFFFF302821FF302821FF302821FF302821FF302821FF302821FF302821FF302821FF302821FFFFFFFFFF302821FF302821FF302821FF302821FF302821FF302821FF302821FF302821FF302821FF302821FF302821FF302821FF302821FF302821FF302821FF302821FF3028
310
21FF302821FF302821FF302821FF302821FF302821FF302821FF302821FF302821FF302821FF302821FF302821FF302821FF302821FF302821FF302821FF302821FF302821FF302821FF302821FF302821FF302821FFFFFFFFFF302821FF302821FF302821FF302821FF302821FF302821FF302821FFFFFFFFFF302821FF30
310
2821FF302821FF302821FF302821FF302821FF302821FF302821FF302821FF302821FF302821FF302821FF302821FF302821FF302821FF302821FF302821FF302821FF302821FF302821FF302821FF302821FF302821FF302821FF302821FF302821FF302821FF302821FF302821FF302821FF302821FF302821FF302821FF
310
302821FF302821FF302821FF302821FF302821FF302821FF302821FFFFFFFFFF302821FF302821FF302821FF302821FF302821FFFFFFFFFF302821FF302821FF302821FF302821FF302821FF302821FF302821FF302821FF302821FF302821FF302821FF302821FF302821FF302821FF302821FF302821FF302821FF302821
310
FF302821FF302821FF302821FF302821FF302821FF302821FF302821FF302821FF302821FF302821FF302821FF302821FF302821FF302821FF302821FF302821FF302821FF302821FF302821FF302821FF302821FF302821FF302821FF302821FFFFFFFFFF302821FF302821FF302821FF302821FF302821FF302821FF3028
310
21FF302821FF302821FF302821FF302821FF302821FF302821FF302821FF302821FF302821FF302821FF302821FF302821FF302821FF302821FF302821FF302821FF302821FF302821FF302821FF302821FF302821FF302821FF302821FF302821FF302821FF302821FF302821FF302821FF302821FF302821FF302821FF30
310
2821FF302821FF302821FF302821FF302821FF302821FF302821FF302821FF302821FF302821FF302821FF302821FF302821FF302821FF302821FF302821FF302821FF302821FF302821FF302821FF302821FF302821FF302821FF302821FF302821FF302821FF302821FF302821FF302821FF302821FF302821FF302821FF
310
302821FF302821FF302821FF302821FF302821FF302821FF302821FF302821FF302821FF302821FF302821FF302821FF302821FF302821FF302821FF302821FF302821FF302821FF302821FF302821FF302821FF302821FF302821FF302821FF302821FF302821FF302821FF302821FF
 70
     0
280
     1
281
     0
  0
ENDTAB
  0
ENDSEC
  0
SECTION
  2
BLOCKS
  0
BLOCK
  5
18
330
17
100
AcDbEntity
  8
0
100
AcDbBlockBegin
  2
*Model_Space
 70
     0
 10
0.0
 20
0.0
 30
0.0
  3
*Model_Space
  1

  0
ENDBLK
  5
19
330
17
100
AcDbEntity
  8
0
100
AcDbBlockEnd
  0
BLOCK
  5
1C
330
1B
100
AcDbEntity
 67
     1
  8
0
100
AcDbBlockBegin
  2
*Paper_Space
 70
     0
 10
0.0
 20
0.0
 30
0.0
  3
*Paper_Space
  1

  0
ENDBLK
  5
1D
330
1B
100
AcDbEntity
 67
     1
  8
0
100
AcDbBlockEnd
  0
BLOCK
  5
E1
330
E0
100
AcDbEntity
  8
0
100
AcDbBlockBegin
  2
TE_TEXT_1
 70
     0
 10
0.0
 20
0.0
 30
0.0
  3
TE_TEXT_1
  1

  0
TEXT
  5
E2
330
E0
100
AcDbEntity
  8
TEXT
 62
    14
370
    13
100
AcDbText
 10
3646.043213000002
 20
-100.089844
 30
0.0
 40
35.0
  1
TE
 50
90.0
 41
1.040922154285714
 72
     5
 11
3646.043213000002
 21
-39.369385
 31
0.0
100
AcDbText
  0
ENDBLK
  5
E3
330
E0
100
AcDbEntity
  8
0
100
AcDbBlockEnd
  0
BLOCK
  5
E5
330
E4
100
AcDbEntity
  8
0
100
AcDbBlockBegin
  2
V236_LW_CUR34_02_090_TEXT_2
 70
     0
 10
0.0
 20
0.0
 30
0.0
  3
V236_LW_CUR34_02_090_TEXT_2
  1

  0
TEXT
  5
E6
330
E4
100
AcDbEntity
  8
TEXT
 62
    14
370
    13
100
AcDbText
 10
3597.043213000001
 20
-100.089844
 30
0.0
 40
35.0
  1
V236_LW_CUR34_02_090
 50
90.0
 41
0.8747244993997597
 72
     5
 11
3597.043213000001
 21
507.1147459999998
 31
0.0
100
AcDbText
  0
ENDBLK
  5
E7
330
E4
100
AcDbEntity
  8
0
100
AcDbBlockEnd
  0
BLOCK
  5
E9
330
E8
100
AcDbEntity
  8
0
100
AcDbBlockBegin
  2
29276884_INF_GF_HM_BI45_1000_54_CHORDWISE_V1_V236_LW_CUR34_02_090_R0_I1_DXF
 70
     0
 10
0.0
 20
0.0
 30
0.0
  3
29276884_INF_GF_HM_BI45_1000_54_CHORDWISE_V1_V236_LW_CUR34_02_090_R0_I1_DXF
  1

  0
INSERT
  5
EA
330
E8
100
AcDbEntity
  8
TEXT
 62
     7
370
     0
100
AcDbBlockReference
  2
TE_TEXT_1
 10
79867.695312
 20
11975.531738
 30
0.0
  0
INSERT
  5
EB
330
E8
100
AcDbEntity
  8
TEXT
 62
     7
370
     0
100
AcDbBlockReference
  2
V236_LW_CUR34_02_090_TEXT_2
 10
79867.695312
 20
11975.531738
 30
0.0
  0
POINT
  5
EC
330
E8
100
AcDbEntity
  8
STRATEGYPOINT
 62
     7
370
     5
100
AcDbPoint
 10
79867.695312
 20
11975.531738
 30
0.0
  0
LINE
  5
ED
330
E8
100
AcDbEntity
  8
ROSETTE
 62
   150
370
    35
100
AcDbLine
 10
79967.695312
 20
11975.531738
 30
0.0
 11
79867.695312
 21
11975.531738
 31
0.0
  0
LINE
  5
EE
330
E8
100
AcDbEntity
  8
ROSETTE
 62
   150
370
    35
100
AcDbLine
 10
79867.695312
 20
11975.531738
 30
0.0
 11
79867.695312
 21
12025.531738
 31
0.0
  0
SPLINE
  5
EF
330
E8
100
AcDbEntity
  8
OUTER
 62
     3
370
    35
100
AcDbSpline
210
0.0
220
0.0
230
1.0
 70
     8
 71
     5
 72
    18
 73
    12
 74
     0
 42
0.000000001
 43
0.0000000001
 40
0.0
 40
0.0
 40
0.0
 40
0.0
 40
0.0
 40
0.0
 40
481.239978976689
 40
1074.737154786568
 40
1736.063601005785
 40
4059.181148056262
 40
5148.475486476029
 40
5364.874940130178
 40
7175.978191454294
 40
7175.978191454294
 40
7175.978191454294
 40
7175.978191454294
 40
7175.978191454294
 40
7175.978191454294
 10
76402.0125292656
 20
11805.5273326283
 30
0.0
 10
76498.2605017617
 20
11805.4603608907
 30
0.0
 10
76713.20789525839
 20
11805.3775678751
 30
0.0
 10
77060.4206412383
 20
11805.4408550284
 30
0.0
 10
77872.2566512373
 20
11805.597037827
 30
0.0
 10
78901.9499310423
 20
11805.5189064426
 30
0.0
 10
79878.67825067857
 20
11805.5245288726
 30
0.0
 10
81098.92577041
 20
11805.5520234061
 30
0.0
 10
82186.90897427148
 20
11805.5012973601
 30
0.0
 10
82810.26825072361
 20
11805.5097191958
 30
0.0
 10
83215.7687981506
 20
11805.53045701899
 30
0.0
 10
83577.98944840983
 20
11805.5324897153
 30
0.0
  0
SPLINE
  5
F0
330
E8
100
AcDbEntity
  8
OUTER
 62
     3
370
    35
100
AcDbSpline
210
0.0
220
0.0
230
1.0
 70
     8
 71
     5
 72
    15
 73
     9
 74
     0
 42
0.000000001
 43
0.0000000001
 40
0.0
 40
0.0
 40
0.0
 40
0.0
 40
0.0
 40
0.0
 40
222.5684220481114
 40
359.200631944104
 40
529.8369167309346
 40
710.0419233513254
 40
710.0419233513254
 40
710.0419233513254
 40
710.0419233513254
 40
710.0419233513254
 40
710.0419233513254
 10
83577.98944840983
 20
11805.5324897153
 30
0.0
 10
83583.58635667219
 20
11849.6929099765
 30
0.0
 10
83592.5579586393
 20
11920.9701059093
 30
0.0
 10
83605.6700918195
 20
12026.1225438595
 30
0.0
 10
83622.77213086629
 20
12167.0999184313
 30
0.0
 10
83637.82991136217
 20
12308.3124690209
 30
0.0
 10
83649.12724619079
 20
12405.1500579493
 30
0.0
 10
83657.44395503829
 20
12474.823531992
 30
0.0
 10
83661.73583138959
 20
12510.608075776
 30
0.0
  0
SPLINE
  5
F1
330
E8
100
AcDbEntity
  8
OUTER
 62
     3
370
    35
100
AcDbSpline
210
0.0
220
0.0
230
1.0
 70
     8
 71
     5
 72
    24
 73
    18
 74
     0
 42
0.000000001
 43
0.0000000001
 40
0.0
 40
0.0
 40
0.0
 40
0.0
 40
0.0
 40
0.0
 40
419.5852541680118
 40
640.7661466416737
 40
1810.064404492136
 40
2352.690576668268
 40
2709.873021687182
 40
4048.396786626233
 40
4133.182148888996
 40
4794.507550054656
 40
5099.734862525139
 40
5489.747298359997
 40
6405.893058874355
 40
7085.971942605954
 40
7323.471021054256
 40
7323.471021054256
 40
7323.471021054256
 40
7323.471021054256
 40
7323.471021054256
 40
7323.471021054256
 10
83661.73583138937
 20
12510.608075776
 30
0.0
 10
83577.8188086563
 20
12510.5394012297
 30
0.0
 10
83449.66560461999
 20
12510.4935983606
 30
0.0
 10
83087.65267975839
 20
12510.586099534
 30
0.0
 10
82617.1146484288
 20
12510.5637977621
 30
0.0
 10
82075.1399829697
 20
12510.495342182
 30
0.0
 10
81349.37788954902
 20
12510.576889613
 30
0.0
 10
80650.8947797216
 20
12510.4867463922
 30
0.0
 10
80054.0061936787
 20
12510.5888273218
 30
0.0
 10
79504.5973075583
 20
12510.4942026185
 30
0.0
 10
78948.62254725469
 20
12510.5996180215
 30
0.0
 10
78477.12353389259
 20
12510.44060643
 30
0.0
 10
77886.565455954
 20
12510.6614735168
 30
0.0
 10
77380.77282592159
 20
12510.4118803727
 30
0.0
 10
76936.02567225419
 20
12510.6650262241
 30
0.0
 10
76569.2807050925
 20
12510.3557745116
 30
0.0
 10
76385.76529085419
 20
12510.5643364727
 30
0.0
 10
76338.2655407486
 20
12510.6432697661
 30
0.0
  0
SPLINE
  5
F2
330
E8
100
AcDbEntity
  8
OUTER
 62
     3
370
    35
100
AcDbSpline
210
0.0
220
0.0
230
1.0
 70
     8
 71
     5
 72
    12
 73
     6
 74
     0
 42
0.000000001
 43
0.0000000001
 40
0.0
 40
0.0
 40
0.0
 40
0.0
 40
0.0
 40
0.0
 40
707.9949000570271
 40
707.9949000570271
 40
707.9949000570271
 40
707.9949000570271
 40
707.9949000570271
 40
707.9949000570271
 10
76338.2655407487
 20
12510.6432697661
 30
0.0
 10
76350.55057012952
 20
12369.5782167113
 30
0.0
 10
76363.34026599128
 20
12228.5589949186
 30
0.0
 10
76374.9165253588
 20
12087.4279036944
 30
0.0
 10
76388.5245686334
 20
11946.4824533521
 30
0.0
 10
76402.0125292656
 20
11805.5273326283
 30
0.0
  0
ENDBLK
  5
F3
330
E8
100
AcDbEntity
  8
0
100
AcDbBlockEnd
  0
BLOCK
  5
F5
330
F4
100
AcDbEntity
  8
0
100
AcDbBlockBegin
  2
TE_TEXT_3
 70
     0
 10
0.0
 20
0.0
 30
0.0
  3
TE_TEXT_3
  1

  0
TEXT
  5
F6
330
F4
100
AcDbEntity
  8
TEXT
 62
    14
370
    13
100
AcDbText
 10
1165.730835
 20
-192.15625
 30
0.0
 40
35.0
  1
TE
 50
90.0
 41
1.040922154285714
 72
     5
 11
1165.730835
 21
-131.435791
 31
0.0
100
AcDbText
  0
ENDBLK
  5
F7
330
F4
100
AcDbEntity
  8
0
100
AcDbBlockEnd
  0
BLOCK
  5
F9
330
F8
100
AcDbEntity
  8
0
100
AcDbBlockBegin
  2
V236_LW_CUR34_02_098_TEXT_4
 70
     0
 10
0.0
 20
0.0
 30
0.0
  3
V236_LW_CUR34_02_098_TEXT_4
  1

  0
TEXT
  5
FA
330
F8
100
AcDbEntity
  8
TEXT
 62
    14
370
    13
100
AcDbText
 10
1116.730835
 20
-192.15625
 30
0.0
 40
35.0
  1
V236_LW_CUR34_02_098
 50
90.0
 41
0.867435128571428
 72
     5
 11
1116.730835
 21
415.0483399999997
 31
0.0
100
AcDbText
  0
ENDBLK
  5
FB
330
F8
100
AcDbEntity
  8
0
100
AcDbBlockEnd
  0
BLOCK
  5
FD
330
FC
100
AcDbEntity
  8
0
100
AcDbBlockBegin
  2
29276884_INF_GF_HM_BI45_1000_54_CHORDWISE_V1_V236_LW_CUR34_02_098_R0_I1_DXF
 70
     0
 10
0.0
 20
0.0
 30
0.0
  3
29276884_INF_GF_HM_BI45_1000_54_CHORDWISE_V1_V236_LW_CUR34_02_098_R0_I1_DXF
  1

  0
INSERT
  5
FE
330
FC
100
AcDbEntity
  8
TEXT
 62
     7
370
     0
100
AcDbBlockReference
  2
TE_TEXT_3
 10
78117.695312
 20
11975.531738
 30
0.0
  0
INSERT
  5
FF
330
FC
100
AcDbEntity
  8
TEXT
 62
     7
370
     0
100
AcDbBlockReference
  2
V236_LW_CUR34_02_098_TEXT_4
 10
78117.695312
 20
11975.531738
 30
0.0
  0
POINT
  5
100
330
FC
100
AcDbEntity
  8
STRATEGYPOINT
 62
     7
370
     5
100
AcDbPoint
 10
78117.695312
 20
11975.531738
 30
0.0
  0
LINE
  5
101
330
FC
100
AcDbEntity
  8
ROSETTE
 62
   150
370
    35
100
AcDbLine
 10
78217.695312
 20
11975.531738
 30
0.0
 11
78117.695312
 21
11975.531738
 31
0.0
  0
LINE
  5
102
330
FC
100
AcDbEntity
  8
ROSETTE
 62
   150
370
    35
100
AcDbLine
 10
78117.695312
 20
11975.531738
 30
0.0
 11
78117.695312
 21
12025.531738
 31
0.0
  0
SPLINE
  5
103
330
FC
100
AcDbEntity
  8
OUTER
 62
     3
370
    35
100
AcDbSpline
210
0.0
220
0.0
230
1.0
 70
     8
 71
     5
 72
    17
 73
    11
 74
     0
 42
0.000000001
 43
0.0000000001
 40
0.0
 40
0.0
 40
0.0
 40
0.0
 40
0.0
 40
0.0
 40
270.7387472213571
 40
723.2708523208216
 40
1363.975994310223
 40
1790.338503055764
 40
1987.277878461397
 40
2983.576687232709
 40
2983.576687232709
 40
2983.576687232709
 40
2983.576687232709
 40
2983.576687232709
 40
2983.576687232709
 10
76414.81583733201
 20
11735.5523656535
 30
0.0
 10
76468.96354203419
 20
11735.4827565277
 30
0.0
 10
76613.617627346
 20
11735.3493959494
 30
0.0
 10
76886.41284425131
 20
11735.3759309915
 30
0.0
 10
77244.48066701349
 20
11735.5577348414
 30
0.0
 10
77641.9361927803
 20
11735.5345197077
 30
0.0
 10
78184.50376772839
 20
11735.5510919488
 30
0.0
 10
78636.564926543
 20
11735.5060398582
 30
0.0
 10
78960.4850602192
 20
11735.5088907795
 30
0.0
 10
79199.1326900469
 20
11735.5019119443
 30
0.0
 10
79398.39244969181
 20
11735.5309041106
 30
0.0
  0
SPLINE
  5
104
330
FC
100
AcDbEntity
  8
OUTER
 62
     3
370
    35
100
AcDbSpline
210
0.0
220
0.0
230
1.0
 70
     8
 71
     5
 72
    12
 73
     6
 74
     0
 42
0.000000001
 43
0.0000000001
 40
0.0
 40
0.0
 40
0.0
 40
0.0
 40
0.0
 40
0.0
 40
705.0050612028536
 40
705.0050612028536
 40
705.0050612028536
 40
705.0050612028536
 40
705.0050612028536
 40
705.0050612028536
 10
79398.3924496919
 20
11735.5309041106
 30
0.0
 10
79397.7852166489
 20
11876.5306087945
 30
0.0
 10
79397.4627697285
 20
12017.5314378217
 30
0.0
 10
79396.74190841231
 20
12158.5306345208
 30
0.0
 10
79395.8115398316
 20
12299.5287624009
 30
0.0
 10
79395.1403996741
 20
12440.5281773776
 30
0.0
  0
SPLINE
  5
105
330
FC
100
AcDbEntity
  8
OUTER
 62
     3
370
    35
100
AcDbSpline
210
0.0
220
0.0
230
1.0
 70
     8
 71
     5
 72
    13
 73
     7
 74
     0
 42
0.000000001
 43
0.0000000001
 40
0.0
 40
0.0
 40
0.0
 40
0.0
 40
0.0
 40
0.0
 40
1867.793258635931
 40
3043.004063742622
 40
3043.004063742622
 40
3043.004063742622
 40
3043.004063742622
 40
3043.004063742622
 40
3043.004063742622
 10
79395.14039967431
 20
12440.5281773776
 30
0.0
 10
79021.58174840898
 20
12440.5096058307
 30
0.0
 10
78412.981025833
 20
12440.5450383804
 30
0.0
 10
77804.3801173166
 20
12440.6605527169
 30
0.0
 10
77195.77948030518
 20
12440.3303593529
 30
0.0
 10
76587.17853195391
 20
12440.7202908036
 30
0.0
 10
76352.1364697995
 20
12440.5047082361
 30
0.0
  0
SPLINE
  5
106
330
FC
100
AcDbEntity
  8
OUTER
 62
     3
370
    35
100
AcDbSpline
210
0.0
220
0.0
230
1.0
 70
     8
 71
     5
 72
    12
 73
     6
 74
     0
 42
0.000000001
 43
0.0000000001
 40
0.0
 40
0.0
 40
0.0
 40
0.0
 40
0.0
 40
0.0
 40
707.7347078005431
 40
707.7347078005431
 40
707.7347078005431
 40
707.7347078005431
 40
707.7347078005431
 40
707.7347078005431
 10
76352.1364697995
 20
12440.5047082362
 30
0.0
 10
76364.5458905933
 20
12299.5027829281
 30
0.0
 10
76376.89914044829
 20
12158.4967701091
 30
0.0
 10
76388.47483625459
 20
12017.4189723626
 30
0.0
 10
76401.93438872008
 20
11876.5119518712
 30
0.0
 10
76414.8158373319
 20
11735.5523656535
 30
0.0
  0
ENDBLK
  5
107
330
FC
100
AcDbEntity
  8
0
100
AcDbBlockEnd
  0
BLOCK
  5
109
330
108
100
AcDbEntity
  8
0
100
AcDbBlockBegin
  2
TE_TEXT_5
 70
     0
 10
0.0
 20
0.0
 30
0.0
  3
TE_TEXT_5
  1

  0
TEXT
  5
10A
330
108
100
AcDbEntity
  8
TEXT
 62
    14
370
    13
100
AcDbText
 10
2549.81665
 20
-261.349609
 30
0.0
 40
35.0
  1
TE
 50
90.0
 41
1.040922154285713
 72
     5
 11
2549.81665
 21
-200.62915
 31
0.0
100
AcDbText
  0
ENDBLK
  5
10B
330
108
100
AcDbEntity
  8
0
100
AcDbBlockEnd
  0
BLOCK
  5
10D
330
10C
100
AcDbEntity
  8
0
100
AcDbBlockBegin
  2
V236_LW_CUR34_02_126_TEXT_6
 70
     0
 10
0.0
 20
0.0
 30
0.0
  3
V236_LW_CUR34_02_126_TEXT_6
  1

  0
TEXT
  5
10E
330
10C
100
AcDbEntity
  8
TEXT
 62
    14
370
    13
100
AcDbText
 10
2500.81665
 20
-261.349609
 30
0.0
 40
35.0
  1
V236_LW_CUR34_02_126
 50
90.0
 41
0.8747244979591838
 72
     5
 11
2500.81665
 21
345.85498
 31
0.0
100
AcDbText
  0
ENDBLK
  5
10F
330
10C
100
AcDbEntity
  8
0
100
AcDbBlockEnd
  0
BLOCK
  5
111
330
110
100
AcDbEntity
  8
0
100
AcDbBlockBegin
  2
29276884_INF_GF_HM_BI45_1000_54_CHORDWISE_V1_V236_LW_CUR34_02_126_R0_I1_DXF
 70
     0
 10
0.0
 20
0.0
 30
0.0
  3
29276884_INF_GF_HM_BI45_1000_54_CHORDWISE_V1_V236_LW_CUR34_02_126_R0_I1_DXF
  1

  0
INSERT
  5
112
330
110
100
AcDbEntity
  8
TEXT
 62
     7
370
     0
100
AcDbBlockReference
  2
TE_TEXT_5
 10
79867.695312
 20
11975.531738
 30
0.0
  0
INSERT
  5
113
330
110
100
AcDbEntity
  8
TEXT
 62
     7
370
     0
100
AcDbBlockReference
  2
V236_LW_CUR34_02_126_TEXT_6
 10
79867.695312
 20
11975.531738
 30
0.0
  0
POINT
  5
114
330
110
100
AcDbEntity
  8
STRATEGYPOINT
 62
     7
370
     5
100
AcDbPoint
 10
79867.695312
 20
11975.531738
 30
0.0
  0
LINE
  5
115
330
110
100
AcDbEntity
  8
ROSETTE
 62
   150
370
    35
100
AcDbLine
 10
79967.695312
 20
11975.531738
 30
0.0
 11
79867.695312
 21
11975.531738
 31
0.0
  0
LINE
  5
116
330
110
100
AcDbEntity
  8
ROSETTE
 62
   150
370
    35
100
AcDbLine
 10
79867.695312
 20
11975.531738
 30
0.0
 11
79867.695312
 21
12025.531738
 31
0.0
  0
SPLINE
  5
117
330
110
100
AcDbEntity
  8
OUTER
 62
     3
370
    35
100
AcDbSpline
210
0.0
220
0.0
230
1.0
 70
     8
 71
     5
 72
    31
 73
    25
 74
     0
 42
0.000000001
 43
0.0000000001
 40
0.0
 40
0.0
 40
0.0
 40
0.0
 40
0.0
 40
0.0
 40
380.0116619480571
 40
380.0116619480571
 40
827.8240593472917
 40
1263.837498422847
 40
1525.247950079853
 40
1897.207374048278
 40
2254.085440758467
 40
2254.085440758467
 40
2409.887884630993
 40
3400.543425047755
 40
3400.543425047755
 40
3788.001161982091
 40
4330.441936921803
 40
4748.896326192074
 40
4748.896326192074
 40
5295.946516694286
 40
5492.81515545831
 40
5694.293157367561
 40
5822.577451677395
 40
6036.45576437194
 40
6036.45576437194
 40
6036.45576437194
 40
6036.45576437194
 40
6036.45576437194
 40
6036.45576437194
 10
76482.6504085225
 20
11665.5122825529
 30
0.0
 10
76558.6527178487
 20
11665.5714921346
 30
0.0
 10
76634.6550389592
 20
11665.5997260679
 30
0.0
 10
76800.2198497138
 20
11665.5977015683
 30
0.0
 10
77052.98737411171
 20
11665.5253900202
 30
0.0
 10
77358.0369658305
 20
11665.517725368
 30
0.0
 10
77661.4761102451
 20
11665.5370653179
 30
0.0
 10
78036.29084215669
 20
11665.5444870567
 30
0.0
 10
78321.54309535259
 20
11665.531367016
 30
0.0
 10
78550.7531718972
 20
11665.5448547393
 30
0.0
 10
78925.8122627999
 20
11665.5375438393
 30
0.0
 10
79226.4794306111
 20
11665.5325191115
 30
0.0
 10
79533.2624517815
 20
11665.511266443
 30
0.0
 10
79948.53375676009
 20
11665.5499473304
 30
0.0
 10
80416.33540711609
 20
11665.5326627295
 30
0.0
 10
80686.00599370039
 20
11665.536220157
 30
0.0
 10
81065.08656248468
 20
11665.5272516204
 30
0.0
 10
81406.04934942199
 20
11665.5268126492
 30
0.0
 10
81678.8195577247
 20
11665.543649886
 30
0.0
 10
81893.55578733399
 20
11665.5196577622
 30
0.0
 10
82151.06776097153
 20
11665.4216616334
 30
0.0
 10
82299.1696504145
 20
11665.3754602525
 30
0.0
 10
82407.8977321071
 20
11665.4185521019
 30
0.0
 10
82476.33017749119
 20
11665.5033526513
 30
0.0
 10
82519.10577214481
 20
11665.5795607224
 30
0.0
  0
SPLINE
  5
118
330
110
100
AcDbEntity
  8
OUTER
 62
     3
370
    35
100
AcDbSpline
210
0.0
220
0.0
230
1.0
 70
     8
 71
     5
 72
    13
 73
     7
 74
     0
 42
0.000000001
 43
0.0000000001
 40
0.0
 40
0.0
 40
0.0
 40
0.0
 40
0.0
 40
0.0
 40
356.6626665855332
 40
705.4277212361172
 40
705.4277212361172
 40
705.4277212361172
 40
705.4277212361172
 40
705.4277212361172
 40
705.4277212361172
 10
82519.1057721447
 20
11665.5795607224
 30
0.0
 10
82516.5729875332
 20
11736.8671144156
 30
0.0
 10
82511.68685342483
 20
11877.8680309411
 30
0.0
 10
82506.93055894608
 20
12018.8735817953
 30
0.0
 10
82501.5453988893
 20
12159.8567526209
 30
0.0
 10
82495.88729063319
 20
12300.8287290882
 30
0.0
 10
82493.0127135661
 20
12370.5224830443
 30
0.0
  0
SPLINE
  5
119
330
110
100
AcDbEntity
  8
OUTER
 62
     3
370
    35
100
AcDbSpline
210
0.0
220
0.0
230
1.0
 70
     8
 71
     5
 72
    22
 73
    16
 74
     0
 42
0.000000001
 43
0.0000000001
 40
0.0
 40
0.0
 40
0.0
 40
0.0
 40
0.0
 40
0.0
 40
254.0762496205468
 40
564.0424259393487
 40
2051.880777467053
 40
2284.355396556831
 40
2654.327633612173
 40
3043.772524436548
 40
4748.586600695293
 40
4950.064603517692
 40
5167.040919116225
 40
5338.29678449265
 40
6075.348685288521
 40
6075.348685288521
 40
6075.348685288521
 40
6075.348685288521
 40
6075.348685288521
 40
6075.348685288521
 10
82493.0127135661
 20
12370.5224830443
 30
0.0
 10
82442.19746982789
 20
12370.5475561048
 30
0.0
 10
82329.38899910179
 20
12370.5924530114
 30
0.0
 10
81919.01289306978
 20
12370.666173194
 30
0.0
 10
81462.14198131701
 20
12370.5401807971
 30
0.0
 10
80931.27698357081
 20
12370.5407723126
 30
0.0
 10
80373.33774039669
 20
12370.5375248114
 30
0.0
 10
79536.4289411186
 20
12370.548186062
 30
0.0
 10
78956.79220644001
 20
12370.5439288922
 30
0.0
 10
78380.255197729
 20
12370.5218052259
 30
0.0
 10
77843.46138067339
 20
12370.5245080855
 30
0.0
 10
77237.1461678989
 20
12370.5766498676
 30
0.0
 10
76971.7937527582
 20
12370.5992145182
 30
0.0
 10
76746.73693985441
 20
12370.6108709232
 30
0.0
 10
76565.0753940775
 20
12370.5810180997
 30
0.0
 10
76417.6650250823
 20
12370.5236476464
 30
0.0
  0
SPLINE
  5
11A
330
110
100
AcDbEntity
  8
OUTER
 62
     3
370
    35
100
AcDbSpline
210
0.0
220
0.0
230
1.0
 70
     8
 71
     5
 72
    13
 73
     7
 74
     0
 42
0.000000001
 43
0.0000000001
 40
0.0
 40
0.0
 40
0.0
 40
0.0
 40
0.0
 40
0.0
 40
365.5807018435619
 40
708.0035144310792
 40
708.0035144310792
 40
708.0035144310792
 40
708.0035144310792
 40
708.0035144310792
 40
708.0035144310792
 10
76417.6650250823
 20
12370.5236476464
 30
0.0
 10
76424.03760587026
 20
12297.6857440761
 30
0.0
 10
76436.50671122309
 20
12156.635069343
 30
0.0
 10
76449.06542706709
 20
12015.5913558426
 30
0.0
 10
76462.6363441307
 20
11874.6421425076
 30
0.0
 10
76476.1811452511
 20
11733.6906070845
 30
0.0
 10
76482.6504085224
 20
11665.5122825529
 30
0.0
  0
ENDBLK
  5
11B
330
110
100
AcDbEntity
  8
0
100
AcDbBlockEnd
  0
BLOCK
  5
11D
330
11C
100
AcDbEntity
  8
0
100
AcDbBlockBegin
  2
TE_TEXT_7
 70
     0
 10
0.0
 20
0.0
 30
0.0
  3
TE_TEXT_7
  1

  0
TEXT
  5
11E
330
11C
100
AcDbEntity
  8
TEXT
 62
    14
370
    13
100
AcDbText
 10
2097.207275
 20
-331.116211
 30
0.0
 40
35.0
  1
TE
 50
90.0
 41
1.040922154285713
 72
     5
 11
2097.207275
 21
-270.395752
 31
0.0
100
AcDbText
  0
ENDBLK
  5
11F
330
11C
100
AcDbEntity
  8
0
100
AcDbBlockEnd
  0
BLOCK
  5
121
330
120
100
AcDbEntity
  8
0
100
AcDbBlockBegin
  2
V236_LW_CUR34_02_128_TEXT_8
 70
     0
 10
0.0
 20
0.0
 30
0.0
  3
V236_LW_CUR34_02_128_TEXT_8
  1

  0
TEXT
  5
122
330
120
100
AcDbEntity
  8
TEXT
 62
    14
370
    13
100
AcDbText
 10
2048.207275000001
 20
-331.116211
 30
0.0
 40
35.0
  1
V236_LW_CUR34_02_128
 50
90.0
 41
0.8747244993997608
 72
     5
 11
2048.207275000001
 21
276.088379
 31
0.0
100
AcDbText
  0
ENDBLK
  5
123
330
120
100
AcDbEntity
  8
0
100
AcDbBlockEnd
  0
BLOCK
  5
125
330
124
100
AcDbEntity
  8
0
100
AcDbBlockBegin
  2
29276884_INF_GF_HM_BI45_1000_54_CHORDWISE_V1_V236_LW_CUR34_02_128_R0_I1_DXF
 70
     0
 10
0.0
 20
0.0
 30
0.0
  3
29276884_INF_GF_HM_BI45_1000_54_CHORDWISE_V1_V236_LW_CUR34_02_128_R0_I1_DXF
  1

  0
INSERT
  5
126
330
124
100
AcDbEntity
  8
TEXT
 62
     7
370
     0
100
AcDbBlockReference
  2
TE_TEXT_7
 10
79867.695312
 20
11975.531738
 30
0.0
  0
INSERT
  5
127
330
124
100
AcDbEntity
  8
TEXT
 62
     7
370
     0
100
AcDbBlockReference
  2
V236_LW_CUR34_02_128_TEXT_8
 10
79867.695312
 20
11975.531738
 30
0.0
  0
POINT
  5
128
330
124
100
AcDbEntity
  8
STRATEGYPOINT
 62
     7
370
     5
100
AcDbPoint
 10
79867.695312
 20
11975.531738
 30
0.0
  0
LINE
  5
129
330
124
100
AcDbEntity
  8
ROSETTE
 62
   150
370
    35
100
AcDbLine
 10
79967.695312
 20
11975.531738
 30
0.0
 11
79867.695312
 21
11975.531738
 31
0.0
  0
LINE
  5
12A
330
124
100
AcDbEntity
  8
ROSETTE
 62
   150
370
    35
100
AcDbLine
 10
79867.695312
 20
11975.531738
 30
0.0
 11
79867.695312
 21
12025.531738
 31
0.0
  0
SPLINE
  5
12B
330
124
100
AcDbEntity
  8
OUTER
 62
     3
370
    35
100
AcDbSpline
210
0.0
220
0.0
230
1.0
 70
     8
 71
     5
 72
    17
 73
    11
 74
     0
 42
0.000000001
 43
0.0000000001
 40
0.0
 40
0.0
 40
0.0
 40
0.0
 40
0.0
 40
0.0
 40
1425.824713888523
 40
1590.388026609024
 40
2474.007432629046
 40
4534.013383999893
 40
4851.401364067097
 40
5548.193905837066
 40
5548.193905837066
 40
5548.193905837066
 40
5548.193905837066
 40
5548.193905837066
 40
5548.193905837066
 10
76478.804205333
 20
11595.5175243267
 30
0.0
 10
76763.96914721858
 20
11595.5400833731
 30
0.0
 10
77082.04671134692
 20
11595.5318152885
 30
0.0
 10
77576.8481680098
 20
11595.5567254513
 30
0.0
 10
78483.65080351928
 20
11595.5249230627
 30
0.0
 10
79453.9310490269
 20
11595.5287262138
 30
0.0
 10
80278.40489177059
 20
11595.5891794382
 30
0.0
 10
81069.9659980011
 20
11595.4555540726
 30
0.0
 10
81684.8033611747
 20
11595.6585265883
 30
0.0
 10
81887.6394453672
 20
11595.6202327886
 30
0.0
 10
82026.99791305677
 20
11595.5137725099
 30
0.0
  0
SPLINE
  5
12C
330
124
100
AcDbEntity
  8
OUTER
 62
     3
370
    35
100
AcDbSpline
210
0.0
220
0.0
230
1.0
 70
     8
 71
     5
 72
    14
 73
     8
 74
     0
 42
0.000000001
 43
0.0000000001
 40
0.0
 40
0.0
 40
0.0
 40
0.0
 40
0.0
 40
0.0
 40
171.8250611703738
 40
365.1651676038337
 40
705.0657696221858
 40
705.0657696221858
 40
705.0657696221858
 40
705.0657696221858
 40
705.0657696221858
 40
705.0657696221858
 10
82026.99791305677
 20
11595.5137725099
 30
0.0
 10
82026.52161244072
 20
11629.8754838115
 30
0.0
 10
82025.6296293296
 20
11702.9028226812
 30
0.0
 10
82024.44578243428
 20
11843.9108330161
 30
0.0
 10
82023.46369599611
 20
11984.9215293915
 30
0.0
 10
82021.33289189317
 20
12125.9204007312
 30
0.0
 10
82019.395289776
 20
12232.551080009
 30
0.0
 10
82017.9914286445
 20
12300.5167032609
 30
0.0
  0
SPLINE
  5
12D
330
124
100
AcDbEntity
  8
OUTER
 62
     3
370
    35
100
AcDbSpline
210
0.0
220
0.0
230
1.0
 70
     8
 71
     5
 72
    22
 73
    16
 74
     0
 42
0.000000001
 43
0.0000000001
 40
0.0
 40
0.0
 40
0.0
 40
0.0
 40
0.0
 40
0.0
 40
365.6902743278399
 40
707.7397127440766
 40
1380.80711298088
 40
1540.555824548647
 40
1778.503263135591
 40
2536.960919138286
 40
2721.474570906489
 40
3444.135653758011
 40
4801.068208496161
 40
5249.459289590159
 40
5604.18160253075
 40
5604.18160253075
 40
5604.18160253075
 40
5604.18160253075
 40
5604.18160253075
 40
5604.18160253075
 10
82017.9914286445
 20
12300.5167032609
 30
0.0
 10
81944.8533823642
 20
12300.5521399329
 30
0.0
 10
81803.30544879533
 20
12300.5842243814
 30
0.0
 10
81527.14401796311
 20
12300.5180683484
 30
0.0
 10
81219.0328651679
 20
12300.5503372072
 30
0.0
 10
80863.3322322756
 20
12300.5506691186
 30
0.0
 10
80429.0781007467
 20
12300.5086662109
 30
0.0
 10
80026.33121650591
 20
12300.5382844388
 30
0.0
 10
79613.6655830926
 20
12300.5344166852
 30
0.0
 10
78961.5630882565
 20
12300.5673282385
 30
0.0
 10
78267.37208350691
 20
12300.5274060599
 30
0.0
 10
77653.9281175612
 20
12300.5528573366
 30
0.0
 10
77077.3867030767
 20
12300.4523901616
 30
0.0
 10
76645.37733444159
 20
12300.7126125472
 30
0.0
 10
76484.75475053969
 20
12300.5840766212
 30
0.0
 10
76413.8103739959
 20
12300.4735834778
 30
0.0
  0
SPLINE
  5
12E
330
124
100
AcDbEntity
  8
OUTER
 62
     3
370
    35
100
AcDbSpline
210
0.0
220
0.0
230
1.0
 70
     8
 71
     5
 72
    19
 73
    13
 74
     0
 42
0.000000001
 43
0.0000000001
 40
0.0
 40
0.0
 40
0.0
 40
0.0
 40
0.0
 40
0.0
 40
176.9225523375391
 40
176.9225523375391
 40
266.5143117996888
 40
371.0714085916083
 40
460.6889925568164
 40
550.353728260063
 40
550.353728260063
 40
707.9501031781535
 40
707.9501031781535
 40
707.9501031781535
 40
707.9501031781535
 40
707.9501031781535
 40
707.9501031781535
 10
76413.81037399599
 20
12300.4735834779
 30
0.0
 10
76416.9678369529
 20
12265.230229371
 30
0.0
 10
76420.0988911373
 20
12229.9845193324
 30
0.0
 10
76424.78244198341
 20
12176.8877944846
 30
0.0
 10
76431.3742915462
 20
12102.9668042199
 30
0.0
 10
76439.73802569009
 20
12011.2093625394
 30
0.0
 10
76446.66962771829
 20
11936.8454159873
 30
0.0
 10
76453.73433747097
 20
11862.494431342
 30
0.0
 10
76462.23249730312
 20
11774.6177230434
 30
0.0
 10
76468.6853444333
 20
11707.5518465127
 30
0.0
 10
76473.2514619658
 20
11658.3108827167
 30
0.0
 10
76476.0719237219
 20
11626.9181506372
 30
0.0
 10
76478.804205333
 20
11595.5175243267
 30
0.0
  0
ENDBLK
  5
12F
330
124
100
AcDbEntity
  8
0
100
AcDbBlockEnd
  0
BLOCK
  5
131
330
130
100
AcDbEntity
  8
0
100
AcDbBlockBegin
  2
TE_TEXT_9
 70
     0
 10
0.0
 20
0.0
 30
0.0
  3
TE_TEXT_9
  1

  0
TEXT
  5
132
330
130
100
AcDbEntity
  8
TEXT
 62
    14
370
    13
100
AcDbText
 10
2016.723022
 20
-405.910156
 30
0.0
 40
35.0
  1
TE
 50
90.0
 41
1.040922154285714
 72
     5
 11
2016.723022
 21
-345.189697
 31
0.0
100
AcDbText
  0
ENDBLK
  5
133
330
130
100
AcDbEntity
  8
0
100
AcDbBlockEnd
  0
BLOCK
  5
135
330
134
100
AcDbEntity
  8
0
100
AcDbBlockBegin
  2
V236_LW_CUR34_02_130_TEXT_10
 70
     0
 10
0.0
 20
0.0
 30
0.0
  3
V236_LW_CUR34_02_130_TEXT_10
  1

  0
TEXT
  5
136
330
134
100
AcDbEntity
  8
TEXT
 62
    14
370
    13
100
AcDbText
 10
1967.723022
 20
-405.910156
 30
0.0
 40
35.0
  1
V236_LW_CUR34_02_130
 50
90.0
 41
0.8821374188861989
 72
     5
 11
1967.723022
 21
201.294434
 31
0.0
100
AcDbText
  0
ENDBLK
  5
137
330
134
100
AcDbEntity
  8
0
100
AcDbBlockEnd
  0
BLOCK
  5
139
330
138
100
AcDbEntity
  8
0
100
AcDbBlockBegin
  2
29276884_INF_GF_HM_BI45_1000_54_CHORDWISE_V1_V236_LW_CUR34_02_130_R0_I1_DXF
 70
     0
 10
0.0
 20
0.0
 30
0.0
  3
29276884_INF_GF_HM_BI45_1000_54_CHORDWISE_V1_V236_LW_CUR34_02_130_R0_I1_DXF
  1

  0
INSERT
  5
13A
330
138
100
AcDbEntity
  8
TEXT
 62
     7
370
     0
100
AcDbBlockReference
  2
TE_TEXT_9
 10
79867.695312
 20
11975.531738
 30
0.0
  0
INSERT
  5
13B
330
138
100
AcDbEntity
  8
TEXT
 62
     7
370
     0
100
AcDbBlockReference
  2
V236_LW_CUR34_02_130_TEXT_10
 10
79867.695312
 20
11975.531738
 30
0.0
  0
POINT
  5
13C
330
138
100
AcDbEntity
  8
STRATEGYPOINT
 62
     7
370
     5
100
AcDbPoint
 10
79867.695312
 20
11975.531738
 30
0.0
  0
SPLINE
  5
13D
330
138
100
AcDbEntity
  8
0
 62
   141
370
    35
100
AcDbSpline
210
0.0
220
0.0
230
1.0
 70
     8
 71
     5
 72
    12
 73
     6
 74
     0
 42
0.000000001
 43
0.0000000001
 40
0.0
 40
0.0
 40
0.0
 40
0.0
 40
0.0
 40
0.0
 40
705.0911107849948
 40
705.0911107849948
 40
705.0911107849948
 40
705.0911107849948
 40
705.0911107849948
 40
705.0911107849948
 10
79770.439639979
 20
12230.6019901351
 30
0.0
 10
79771.4644787485
 20
12089.5874919946
 30
0.0
 10
79772.4893175163
 20
11948.572993854
 30
0.0
 10
79773.608715879
 20
11807.5591975057
 30
0.0
 10
79774.6356594472
 20
11666.5447146777
 30
0.0
 10
79775.66260301951
 20
11525.5302318498
 30
0.0
  0
LINE
  5
13E
330
138
100
AcDbEntity
  8
ROSETTE
 62
   150
370
    35
100
AcDbLine
 10
79967.695312
 20
11975.531738
 30
0.0
 11
79867.695312
 21
11975.531738
 31
0.0
  0
LINE
  5
13F
330
138
100
AcDbEntity
  8
ROSETTE
 62
   150
370
    35
100
AcDbLine
 10
79867.695312
 20
11975.531738
 30
0.0
 11
79867.695312
 21
12025.531738
 31
0.0
  0
SPLINE
  5
140
330
138
100
AcDbEntity
  8
OUTER
 62
     3
370
    35
100
AcDbSpline
210
0.0
220
0.0
230
1.0
 70
     8
 71
     5
 72
    29
 73
    23
 74
     0
 42
0.000000001
 43
0.0000000001
 40
0.0
 40
0.0
 40
0.0
 40
0.0
 40
0.0
 40
0.0
 40
235.9449020008974
 40
325.290301862823
 40
692.8859202872975
 40
692.8859202872975
 40
1367.65310570576
 40
1531.45297907198
 40
2082.416179660474
 40
2082.416179660474
 40
2767.397487140121
 40
3452.378735345153
 40
3791.372215576841
 40
3969.249374054985
 40
4152.250895841016
 40
4464.959734911163
 40
4464.959734911163
 40
5051.920900927374
 40
5388.195349686149
 40
5562.574886109726
 40
5562.574886109726
 40
5562.574886109726
 40
5562.574886109726
 40
5562.574886109726
 40
5562.574886109726
 10
76474.88055249222
 20
11525.4644305511
 30
0.0
 10
76522.06935106379
 20
11525.5954291475
 30
0.0
 10
76587.1272625927
 20
11525.6840086127
 30
0.0
 10
76725.7043946211
 20
11525.6358059383
 30
0.0
 10
76864.2816993764
 20
11525.4954749921
 30
0.0
 10
77137.81232936329
 20
11525.4789540267
 30
0.0
 10
77396.91393899841
 20
11525.5274290693
 30
0.0
 10
77748.3390696666
 20
11525.5835070819
 30
0.0
 10
78026.2451068378
 20
11525.5345297505
 30
0.0
 10
78441.1474008406
 20
11525.5155748013
 30
0.0
 10
78858.0925272905
 20
11525.5626694999
 30
0.0
 10
79310.07631018282
 20
11525.5268837007
 30
0.0
 10
79687.44297414398
 20
11525.533619509
 30
0.0
 10
80101.4099011318
 20
11525.5279445313
 30
0.0
 10
80440.9223456369
 20
11525.551660989
 30
0.0
 10
80643.43853785139
 20
11525.5330980336
 30
0.0
 10
80895.54827330777
 20
11525.5316080361
 30
0.0
 10
81179.3374787876
 20
11525.4820801672
 30
0.0
 10
81461.402248507
 20
11525.5597994492
 30
0.0
 10
81680.92527564619
 20
11525.5547195681
 30
0.0
 10
81900.44839188489
 20
11525.4284141306
 30
0.0
 10
82002.57912730709
 20
11525.5203229885
 30
0.0
 10
82037.4550020249
 20
11525.5679842753
 30
0.0
  0
SPLINE
  5
141
330
138
100
AcDbEntity
  8
OUTER
 62
     3
370
    35
100
AcDbSpline
210
0.0
220
0.0
230
1.0
 70
     8
 71
     5
 72
    19
 73
    13
 74
     0
 42
0.000000001
 43
0.0000000001
 40
0.0
 40
0.0
 40
0.0
 40
0.0
 40
0.0
 40
0.0
 40
77.69446633321337
 40
169.2731142893667
 40
226.6130499981636
 40
256.3952685870298
 40
345.744041162809
 40
345.744041162809
 40
524.4458422417054
 40
705.0159923050594
 40
705.0159923050594
 40
705.0159923050594
 40
705.0159923050594
 40
705.0159923050594
 40
705.0159923050594
 10
82037.45500202478
 20
11525.5679842753
 30
0.0
 10
82037.38046771572
 20
11541.1066987842
 30
0.0
 10
82037.158773031
 20
11574.9604699943
 30
0.0
 10
82036.696189293
 20
11620.2806882929
 30
0.0
 10
82036.0042664109
 20
11671.5552051607
 30
0.0
 10
82035.27081722199
 20
11740.6995947061
 30
0.0
 10
82034.8813078854
 20
11794.3079552144
 30
0.0
 10
82034.35845195119
 20
11865.3405702015
 30
0.0
 10
82033.48284919742
 20
11961.0172992498
 30
0.0
 10
82032.34488414731
 20
12050.7345018316
 30
0.0
 10
82031.28297261018
 20
12122.5813373202
 30
0.0
 10
82030.02618227069
 20
12194.424772815
 30
0.0
 10
82029.3276148136
 20
12230.5320458672
 30
0.0
  0
SPLINE
  5
142
330
138
100
AcDbEntity
  8
OUTER
 62
     3
370
    35
100
AcDbSpline
210
0.0
220
0.0
230
1.0
 70
     8
 71
     5
 72
    16
 73
    10
 74
     0
 42
0.000000001
 43
0.0000000001
 40
0.0
 40
0.0
 40
0.0
 40
0.0
 40
0.0
 40
0.0
 40
1059.706018918529
 40
1152.557925251075
 40
4234.412890963388
 40
4619.14532014863
 40
5619.329698235817
 40
5619.329698235817
 40
5619.329698235817
 40
5619.329698235817
 40
5619.329698235817
 40
5619.329698235817
 10
82029.3276148136
 20
12230.5320458672
 30
0.0
 10
81817.3864441451
 20
12230.65052321629
 30
0.0
 10
81586.87486867888
 20
12230.6467740286
 30
0.0
 10
80739.9923089147
 20
12230.4556675783
 30
0.0
 10
79816.1633683245
 20
12230.5597784964
 30
0.0
 10
78692.29746916602
 20
12230.5698921979
 30
0.0
 10
77780.3728009399
 20
12230.4142172493
 30
0.0
 10
76887.01838650779
 20
12230.6802615178
 30
0.0
 10
76610.03504099928
 20
12230.6616606563
 30
0.0
 10
76409.9982234069
 20
12230.5092981523
 30
0.0
  0
SPLINE
  5
143
330
138
100
AcDbEntity
  8
OUTER
 62
     3
370
    35
100
AcDbSpline
210
0.0
220
0.0
230
1.0
 70
     8
 71
     5
 72
    15
 73
     9
 74
     0
 42
0.000000001
 43
0.0000000001
 40
0.0
 40
0.0
 40
0.0
 40
0.0
 40
0.0
 40
0.0
 40
166.2982714546178
 40
345.7569849758032
 40
555.1839188270784
 40
708.0283933894962
 40
708.0283933894962
 40
708.0283933894962
 40
708.0283933894962
 40
708.0283933894962
 40
708.0283933894962
 10
76409.9982234069
 20
12230.5092981523
 30
0.0
 10
76412.9814353718
 20
12197.3837030644
 30
0.0
 10
76419.1472936811
 20
12128.507714924
 30
0.0
 10
76428.97287590518
 20
12017.9062743761
 30
0.0
 10
76442.11358532159
 20
11876.9116030179
 30
0.0
 10
76456.0982984477
 20
11735.9960395279
 30
0.0
 10
76465.92485282919
 20
11628.0972556052
 30
0.0
 10
76472.2505048844
 20
11555.9199749683
 30
0.0
 10
76474.88055249222
 20
11525.4644305511
 30
0.0
  0
ENDBLK
  5
144
330
138
100
AcDbEntity
  8
0
100
AcDbBlockEnd
  0
BLOCK
  5
146
330
145
100
AcDbEntity
  8
0
100
AcDbBlockBegin
  2
TE_TEXT_11
 70
     0
 10
0.0
 20
0.0
 30
0.0
  3
TE_TEXT_11
  1

  0
TEXT
  5
147
330
145
100
AcDbEntity
  8
TEXT
 62
    14
370
    13
100
AcDbText
 10
1251.040405
 20
-34.939453
 30
0.0
 40
30.0
  1
TE
 50
90.0
 41
1.04092216
 72
     5
 11
1251.040405
 21
17.106655
 31
0.0
100
AcDbText
  0
ENDBLK
  5
148
330
145
100
AcDbEntity
  8
0
100
AcDbBlockEnd
  0
BLOCK
  5
14A
330
149
100
AcDbEntity
  8
0
100
AcDbBlockBegin
  2
V236_LW_CUR34_02_132_TEXT_12
 70
     0
 10
0.0
 20
0.0
 30
0.0
  3
V236_LW_CUR34_02_132_TEXT_12
  1

  0
TEXT
  5
14B
330
149
100
AcDbEntity
  8
TEXT
 62
    14
370
    13
100
AcDbText
 10
1209.040405
 20
-34.939453
 30
0.0
 40
30.0
  1
V236_LW_CUR34_02_132
 50
90.0
 41
0.874724263865546
 72
     5
 11
1209.040405
 21
485.521484
 31
0.0
100
AcDbText
  0
ENDBLK
  5
14C
330
149
100
AcDbEntity
  8
0
100
AcDbBlockEnd
  0
BLOCK
  5
14E
330
14D
100
AcDbEntity
  8
0
100
AcDbBlockBegin
  2
29276884_INF_GF_HM_BI45_1000_54_CHORDWISE_V1_V236_LW_CUR34_02_132_R0_I1_DXF
 70
     0
 10
0.0
 20
0.0
 30
0.0
  3
29276884_INF_GF_HM_BI45_1000_54_CHORDWISE_V1_V236_LW_CUR34_02_132_R0_I1_DXF
  1

  0
INSERT
  5
14F
330
14D
100
AcDbEntity
  8
TEXT
 62
     7
370
     0
100
AcDbBlockReference
  2
TE_TEXT_11
 10
78117.695312
 20
11525.531738
 30
0.0
  0
INSERT
  5
150
330
14D
100
AcDbEntity
  8
TEXT
 62
     7
370
     0
100
AcDbBlockReference
  2
V236_LW_CUR34_02_132_TEXT_12
 10
78117.695312
 20
11525.531738
 30
0.0
  0
POINT
  5
151
330
14D
100
AcDbEntity
  8
STRATEGYPOINT
 62
     7
370
     5
100
AcDbPoint
 10
78117.695312
 20
11525.531738
 30
0.0
  0
LINE
  5
152
330
14D
100
AcDbEntity
  8
ROSETTE
 62
   150
370
    35
100
AcDbLine
 10
78217.695312
 20
11525.531738
 30
0.0
 11
78117.695312
 21
11525.531738
 31
0.0
  0
LINE
  5
153
330
14D
100
AcDbEntity
  8
ROSETTE
 62
   150
370
    35
100
AcDbLine
 10
78117.695312
 20
11525.531738
 30
0.0
 11
78117.695312
 21
11575.531738
 31
0.0
  0
SPLINE
  5
154
330
14D
100
AcDbEntity
  8
OUTER
 62
     3
370
    35
100
AcDbSpline
210
0.0
220
0.0
230
1.0
 70
     8
 71
     5
 72
    12
 73
     6
 74
     0
 42
0.000000001
 43
0.0000000001
 40
0.0
 40
0.0
 40
0.0
 40
0.0
 40
0.0
 40
0.0
 40
2955.212057063715
 40
2955.212057063715
 40
2955.212057063715
 40
2955.212057063715
 40
2955.212057063715
 40
2955.212057063715
 10
76470.8890253945
 20
11455.5270508821
 30
0.0
 10
77061.9314135913
 20
11455.3613879261
 30
0.0
 10
77652.9738816408
 20
11456.0949085686
 30
0.0
 10
78244.0160458875
 20
11454.7592617877
 30
0.0
 10
78835.0587125207
 20
11455.9024273786
 30
0.0
 10
79426.1010073898
 20
11455.5312596932
 30
0.0
  0
SPLINE
  5
155
330
14D
100
AcDbEntity
  8
OUTER
 62
     3
370
    35
100
AcDbSpline
210
0.0
220
0.0
230
1.0
 70
     8
 71
     5
 72
    13
 73
     7
 74
     0
 42
0.000000001
 43
0.0000000001
 40
0.0
 40
0.0
 40
0.0
 40
0.0
 40
0.0
 40
0.0
 40
218.2213212378071
 40
597.1662515279098
 40
597.1662515279098
 40
597.1662515279098
 40
597.1662515279098
 40
597.1662515279098
 40
597.1662515279098
 10
79426.10100738987
 20
11455.5312596932
 30
0.0
 10
79425.9311347436
 20
11499.1751933496
 30
0.0
 10
79425.247403367
 20
11618.6063722259
 30
0.0
 10
79424.00054046649
 20
11738.0344995513
 30
0.0
 10
79424.01422330338
 20
11857.4690389306
 30
0.0
 10
79423.6082310934
 20
11976.9015907895
 30
0.0
 10
79423.1770373263
 20
12052.6893502209
 30
0.0
  0
SPLINE
  5
156
330
14D
100
AcDbEntity
  8
OUTER
 62
     3
370
    35
100
AcDbSpline
210
0.0
220
0.0
230
1.0
 70
     8
 71
     5
 72
    14
 73
     8
 74
     0
 42
0.000000001
 43
0.0000000001
 40
0.0
 40
0.0
 40
0.0
 40
0.0
 40
0.0
 40
0.0
 40
750.2353082187172
 40
1901.513614337474
 40
2995.374455274739
 40
2995.374455274739
 40
2995.374455274739
 40
2995.374455274739
 40
2995.374455274739
 40
2995.374455274739
 10
79423.17703732619
 20
12052.6893502208
 30
0.0
 10
79273.18899053107
 20
12048.4814378732
 30
0.0
 10
78893.0921783324
 20
12035.964976139
 30
0.0
 10
78294.5866140828
 20
12008.5251845177
 30
0.0
 10
77696.879128092
 20
11966.3310937974
 30
0.0
 10
77100.2072715563
 20
11912.099062942
 30
0.0
 10
76653.5921175072
 20
11865.5612026613
 30
0.0
 10
76436.14045100099
 20
11841.5604879396
 30
0.0
  0
SPLINE
  5
157
330
14D
100
AcDbEntity
  8
OUTER
 62
     3
370
    35
100
AcDbSpline
210
0.0
220
0.0
230
1.0
 70
     8
 71
     5
 72
    12
 73
     6
 74
     0
 42
0.000000001
 43
0.0000000001
 40
0.0
 40
0.0
 40
0.0
 40
0.0
 40
0.0
 40
0.0
 40
387.5954351681638
 40
387.5954351681638
 40
387.5954351681638
 40
387.5954351681638
 40
387.5954351681638
 40
387.5954351681638
 10
76436.1404510009
 20
11841.5604879396
 30
0.0
 10
76443.13676529071
 20
11764.3577649249
 30
0.0
 10
76450.4401142034
 20
11687.1831854624
 30
0.0
 10
76457.73314697192
 20
11610.0068990642
 30
0.0
 10
76464.1934595092
 20
11532.7564381127
 30
0.0
 10
76470.8890253945
 20
11455.5270508821
 30
0.0
  0
ENDBLK
  5
158
330
14D
100
AcDbEntity
  8
0
100
AcDbBlockEnd
  0
BLOCK
  5
15A
330
159
100
AcDbEntity
  8
0
100
AcDbBlockBegin
  2
TE_TEXT_13
 70
     0
 10
0.0
 20
0.0
 30
0.0
  3
TE_TEXT_13
  1

  0
TEXT
  5
15B
330
159
100
AcDbEntity
  8
TEXT
 62
    14
370
    13
100
AcDbText
 10
94.27767199999999
 20
-322.251953
 30
0.0
 40
35.0
  1
TE
 50
90.0
 41
1.040922154285713
 72
     5
 11
94.27767199999999
 21
-261.531494
 31
0.0
100
AcDbText
  0
ENDBLK
  5
15C
330
159
100
AcDbEntity
  8
0
100
AcDbBlockEnd
  0
BLOCK
  5
15E
330
15D
100
AcDbEntity
  8
0
100
AcDbBlockBegin
  2
V236_LW_CUR34_02_136_TEXT_14
 70
     0
 10
0.0
 20
0.0
 30
0.0
  3
V236_LW_CUR34_02_136_TEXT_14
  1

  0
TEXT
  5
15F
330
15D
100
AcDbEntity
  8
TEXT
 62
    14
370
    13
100
AcDbText
 10
45.27767199999998
 20
-322.251953
 30
0.0
 40
35.0
  1
V236_LW_CUR34_02_136
 50
90.00000254771796
 41
0.8747244993997609
 72
     5
 11
45.27764499999999
 21
284.952637
 31
0.0
100
AcDbText
  0
ENDBLK
  5
160
330
15D
100
AcDbEntity
  8
0
100
AcDbBlockEnd
  0
BLOCK
  5
162
330
161
100
AcDbEntity
  8
0
100
AcDbBlockBegin
  2
29276887_INF_GF_HM_UD90_600_54_CHORDWISE_V1_V236_LW_CUR34_02_136_R0_I1_DXF
 70
     0
 10
0.0
 20
0.0
 30
0.0
  3
29276887_INF_GF_HM_UD90_600_54_CHORDWISE_V1_V236_LW_CUR34_02_136_R0_I1_DXF
  1

  0
INSERT
  5
163
330
161
100
AcDbEntity
  8
TEXT
 62
     7
370
     0
100
AcDbBlockReference
  2
TE_TEXT_13
 10
82217.69531199999
 20
11975.531738
 30
0.0
  0
INSERT
  5
164
330
161
100
AcDbEntity
  8
TEXT
 62
     7
370
     0
100
AcDbBlockReference
  2
V236_LW_CUR34_02_136_TEXT_14
 10
82217.69531199999
 20
11975.531738
 30
0.0
  0
POINT
  5
165
330
161
100
AcDbEntity
  8
STRATEGYPOINT
 62
     7
370
     5
100
AcDbPoint
 10
82217.69531199999
 20
11975.531738
 30
0.0
  0
SPLINE
  5
166
330
161
100
AcDbEntity
  8
0
 62
     8
370
    35
100
AcDbSpline
210
0.0
220
0.0
230
1.0
 70
     8
 71
     5
 72
    13
 73
     7
 74
     0
 42
0.000000001
 43
0.0000000001
 40
0.0
 40
0.0
 40
0.0
 40
0.0
 40
0.0
 40
0.0
 40
358.5160099871823
 40
705.025400091285
 40
705.025400091285
 40
705.025400091285
 40
705.025400091285
 40
705.025400091285
 40
705.025400091285
 10
82158.8687744817
 20
12300.526374403
 30
0.0
 10
82159.9756101127
 20
12228.8317156649
 30
0.0
 10
82162.152213701
 20
12087.8434360534
 30
0.0
 10
82163.8355924486
 20
11946.8468674049
 30
0.0
 10
82165.07706484581
 20
11805.8459549588
 30
0.0
 10
82165.69986235088
 20
11664.8422503472
 30
0.0
 10
82166.00595796659
 20
11595.541048318
 30
0.0
  0
LINE
  5
167
330
161
100
AcDbEntity
  8
ROSETTE
 62
   150
370
    35
100
AcDbLine
 10
82317.69531199999
 20
11975.531738
 30
0.0
 11
82217.69531199999
 21
11975.531738
 31
0.0
  0
LINE
  5
168
330
161
100
AcDbEntity
  8
ROSETTE
 62
   150
370
    35
100
AcDbLine
 10
82217.69531199999
 20
11975.531738
 30
0.0
 11
82217.69531199999
 21
12025.531738
 31
0.0
  0
SPLINE
  5
169
330
161
100
AcDbEntity
  8
OUTER
 62
     1
370
    35
100
AcDbSpline
210
0.0
220
0.0
230
1.0
 70
     8
 71
     5
 72
    12
 73
     6
 74
     0
 42
0.000000001
 43
0.0000000001
 40
0.0
 40
0.0
 40
0.0
 40
0.0
 40
0.0
 40
0.0
 40
330.0776240394269
 40
330.0776240394269
 40
330.0776240394269
 40
330.0776240394269
 40
330.0776240394269
 40
330.0776240394269
 10
82101.5243098363
 20
11595.532576876
 30
0.0
 10
82167.5398344869
 20
11595.5280151005
 30
0.0
 10
82233.55535472919
 20
11595.5395447059
 30
0.0
 10
82299.5708705665
 20
11595.5671234533
 30
0.0
 10
82365.5863856926
 20
11595.5624151346
 30
0.0
 10
82431.60190011073
 20
11595.5253775109
 30
0.0
  0
SPLINE
  5
16A
330
161
100
AcDbEntity
  8
OUTER
 62
     1
370
    35
100
AcDbSpline
210
0.0
220
0.0
230
1.0
 70
     8
 71
     5
 72
    19
 73
    13
 74
     0
 42
0.000000001
 43
0.0000000001
 40
0.0
 40
0.0
 40
0.0
 40
0.0
 40
0.0
 40
0.0
 40
72.57204011624016
 40
144.9614834332711
 40
348.5722764518895
 40
398.3306015566935
 40
441.95238804203
 40
615.5076056569036
 40
662.5646124425511
 40
705.4355573603771
 40
705.4355573603771
 40
705.4355573603771
 40
705.4355573603771
 40
705.4355573603771
 40
705.4355573603771
 10
82431.60190011073
 20
11595.5253775109
 30
0.0
 10
82431.1690318364
 20
11610.0333293072
 30
0.0
 10
82430.21574566608
 20
11639.0098471732
 30
0.0
 10
82427.65244462221
 20
11708.6776363039
 30
0.0
 10
82425.04990426999
 20
11788.3011951932
 30
0.0
 10
82421.8687502222
 20
11876.6346141789
 30
0.0
 10
82418.156256472
 20
11985.1581069495
 30
0.0
 10
82414.4683068963
 20
12088.6131299118
 30
0.0
 10
82412.1474350902
 20
12159.9476841098
 30
0.0
 10
82409.7130374422
 20
12221.3218130942
 30
0.0
 10
82407.8180592501
 20
12273.9842654124
 30
0.0
 10
82407.28343236041
 20
12291.9617441838
 30
0.0
 10
82407.0519031747
 20
12300.5328066011
 30
0.0
  0
SPLINE
  5
16B
330
161
100
AcDbEntity
  8
OUTER
 62
     1
370
    35
100
AcDbSpline
210
0.0
220
0.0
230
1.0
 70
     8
 71
     5
 72
    12
 73
     6
 74
     0
 42
0.000000001
 43
0.0000000001
 40
0.0
 40
0.0
 40
0.0
 40
0.0
 40
0.0
 40
0.0
 40
329.8999186627207
 40
329.8999186627207
 40
329.8999186627207
 40
329.8999186627207
 40
329.8999186627207
 40
329.8999186627207
 10
82407.0519031747
 20
12300.5328066011
 30
0.0
 10
82341.07193044511
 20
12300.5709106894
 30
0.0
 10
82275.09195408481
 20
12300.5641023485
 30
0.0
 10
82209.11197409931
 20
12300.512468295
 30
0.0
 10
82143.13199627317
 20
12300.5029259197
 30
0.0
 10
82077.15202061232
 20
12300.5355619393
 30
0.0
  0
SPLINE
  5
16C
330
161
100
AcDbEntity
  8
OUTER
 62
     1
370
    35
100
AcDbSpline
210
0.0
220
0.0
230
1.0
 70
     8
 71
     5
 72
    12
 73
     6
 74
     0
 42
0.000000001
 43
0.0000000001
 40
0.0
 40
0.0
 40
0.0
 40
0.0
 40
0.0
 40
0.0
 40
705.4245277836473
 40
705.4245277836473
 40
705.4245277836473
 40
705.4245277836473
 40
705.4245277836473
 40
705.4245277836473
 10
82077.15202061232
 20
12300.5355619393
 30
0.0
 10
82082.27826204211
 20
12159.5438167033
 30
0.0
 10
82086.9695499681
 20
12018.5367901344
 30
0.0
 10
82091.95281455142
 20
11877.5399524567
 30
0.0
 10
82096.89877879057
 20
11736.5416370052
 30
0.0
 10
82101.5243098363
 20
11595.532576876
 30
0.0
  0
ENDBLK
  5
16D
330
161
100
AcDbEntity
  8
0
100
AcDbBlockEnd
  0
BLOCK
  5
16F
330
16E
100
AcDbEntity
  8
0
100
AcDbBlockBegin
  2
Tagging cross
 70
     0
 10
0.0
 20
0.0
 30
0.0
  3
Tagging cross
  1

  0
LINE
  5
170
330
16E
100
AcDbEntity
  8
0
100
AcDbLine
 10
15435.45878216858
 20
10028.25552927269
 30
0.0
 11
15455.45878216858
 21
10008.25552927269
 31
0.0
  0
LINE
  5
171
330
16E
100
AcDbEntity
  8
0
100
AcDbLine
 10
15435.45878216858
 20
10008.25552927269
 30
0.0
 11
15455.45878216858
 21
10028.25552927269
 31
0.0
  0
ENDBLK
  5
172
330
16E
100
AcDbEntity
  8
0
100
AcDbBlockEnd
  0
ENDSEC
  0
SECTION
  2
ENTITIES
  0
LWPOLYLINE
  5
35
330
17
100
AcDbEntity
  8
V236_LW_CUR34_02_090_BX1000
 62
     3
100
AcDbPolyline
 90
       41
 70
     1
 43
0.0
 10
8503.207209043555
 20
734.9481048177223
 10
8508.804118043554
 20
779.1085248177205
 10
8517.775720043545
 20
850.3857208177214
 10
8530.887853043546
 20
955.5381588177208
 10
8547.989892043537
 20
1096.51553281772
 10
8563.047672043555
 20
1237.728083817721
 10
8574.34500704355
 20
1334.56567281772
 10
8582.661716043542
 20
1404.239146817719
 10
8586.953592043547
 20
1440.023690817721
 10
8503.036570043551
 20
1439.95501581772
 10
8374.883366043546
 20
1439.909212817721
 10
8012.870441043546
 20
1440.001714817721
 10
7542.332409043549
 20
1439.979412817722
 10
7000.357744043547
 20
1439.910956817721
 10
6274.59565104355
 20
1439.992504817721
 10
5576.112541043549
 20
1439.902360817719
 10
4979.223955043548
 20
1440.00444181772
 10
4429.815069043558
 20
1439.909817817721
 10
3873.840308043553
 20
1440.015232817721
 10
3402.341295043545
 20
1439.856220817721
 10
2811.783217043543
 20
1440.077088817719
 10
2305.990587043547
 20
1439.82749481772
 10
1861.24343304355
 20
1440.080640817721
 10
1494.498466043544
 20
1439.771389817721
 10
1310.98305204355
 20
1439.97995081772
 10
1263.483302043547
 20
1440.058884817721
 10
1275.768331043553
 20
1298.993831817721
 10
1288.558027043546
 20
1157.97460981772
 10
1300.13428604354
 20
1016.843518817721
 10
1313.742330043547
 20
875.8980678177211
 10
1327.230290043546
 20
734.9429478177207
 10
1423.478263043551
 20
734.8759758177201
 10
1638.425656043546
 20
734.7931828177206
 10
1985.638402043536
 20
734.8564698177197
 10
2797.47441204355
 20
735.0126528177206
 10
3827.167692043542
 20
734.9345208177202
 10
4803.896012043551
 20
734.9401438177209
 10
6024.143531043549
 20
734.967637817721
 10
7112.126735043552
 20
734.9169118177216
 10
7735.486012043549
 20
734.9253338177203
 10
8140.986559043552
 20
734.9460718177197
  0
LWPOLYLINE
  5
39
330
17
100
AcDbEntity
  8
V236_LW_CUR34_02_098_BX1000
 62
     3
100
AcDbPolyline
 90
       26
 70
     1
 43
0.0
 10
4323.610211043546
 20
664.9465188177217
 10
4323.002978043543
 20
805.9462238177202
 10
4322.680531043544
 20
946.9470528177208
 10
4321.959669043557
 20
1087.94624981772
 10
4321.029301043541
 20
1228.944376817721
 10
4320.358161043549
 20
1369.943791817721
 10
3946.799509043544
 20
1369.92522081772
 10
3338.19878704354
 20
1369.960652817721
 10
2729.59787804354
 20
1370.07616781772
 10
2120.997241043544
 20
1369.74597381772
 10
1512.396293043552
 20
1370.13590581772
 10
1277.354231043544
 20
1369.920322817721
 10
1289.763652043548
 20
1228.91839781772
 10
1302.11690104354
 20
1087.91238481772
 10
1313.692597043555
 20
946.8345868177202
 10
1327.152150043548
 20
805.9275668177196
 10
1340.033598043548
 20
664.9679808177206
 10
1394.181303043544
 20
664.8983718177206
 10
1538.835388043546
 20
664.7650108177202
 10
1811.630605043552
 20
664.7915458177212
 10
2169.698428043543
 20
664.9733498177193
 10
2567.153954043548
 20
664.9501348177217
 10
3109.721529043542
 20
664.9667068177205
 10
3561.782688043546
 20
664.921654817721
 10
3885.702821043553
 20
664.9245058177203
 10
4124.350451043545
 20
664.9175268177205
  0
LWPOLYLINE
  5
3D
330
17
100
AcDbEntity
  8
V236_LW_CUR34_02_126_BX1000
 62
     3
100
AcDbPolyline
 90
       51
 70
     1
 43
0.0
 10
7444.323533043557
 20
594.9951758177213
 10
7441.790749043547
 20
666.2827288177212
 10
7436.904614043537
 20
807.2836458177206
 10
7432.148320043546
 20
948.2891968177208
 10
7426.763160043542
 20
1089.272367817721
 10
7421.105052043538
 20
1230.244343817721
 10
7418.230475043542
 20
1299.938097817721
 10
7367.415231043548
 20
1299.96317081772
 10
7254.606760043549
 20
1300.00806781772
 10
6844.230654043538
 20
1300.08178781772
 10
6387.35974204354
 20
1299.955795817721
 10
5856.494745043543
 20
1299.956386817721
 10
5298.555501043549
 20
1299.95313981772
 10
4461.646702043537
 20
1299.963800817721
 10
3882.009967043545
 20
1299.959543817722
 10
3305.472959043547
 20
1299.937419817721
 10
2768.679142043548
 20
1299.940122817721
 10
2162.363929043539
 20
1299.992264817722
 10
1897.011514043537
 20
1300.014829817721
 10
1671.954701043549
 20
1300.02648581772
 10
1490.293155043546
 20
1299.996632817721
 10
1342.882786043541
 20
1299.939262817721
 10
1349.255367043544
 20
1227.101358817721
 10
1361.724472043541
 20
1086.050683817719
 10
1374.28318804354
 20
945.0069708177215
 10
1387.854105043545
 20
804.0577578177217
 10
1401.398906043556
 20
663.1062218177192
 10
1407.868170043555
 20
594.9278978177207
 10
1483.870479043544
 20
594.9871068177218
 10
1559.872800043551
 20
595.0153408177211
 10
1725.43761104354
 20
595.0133168177199
 10
1978.20513504355
 20
594.9410048177213
 10
2283.254727043546
 20
594.9333398177205
 10
2586.69387104355
 20
594.9526798177211
 10
2961.508603043549
 20
594.9601018177218
 10
3246.760856043547
 20
594.9469818177202
 10
3475.970933043543
 20
594.9604698177209
 10
3851.030024043546
 20
594.9531588177197
 10
4151.697192043546
 20
594.9481338177211
 10
4458.480213043542
 20
594.9268808177203
 10
4873.751518043558
 20
594.9655618177202
 10
5341.553168043553
 20
594.9482778177207
 10
5611.223755043553
 20
594.9518348177207
 10
5990.304323043542
 20
594.9428668177206
 10
6331.267110043555
 20
594.942427817721
 10
6604.037319043548
 20
594.9592648177202
 10
6818.773548043552
 20
594.93527281772
 10
7076.285522043545
 20
594.8372768177214
 10
7224.387411043543
 20
594.79107481772
 10
7333.11549304356
 20
594.8341668177199
 10
7401.547938043542
 20
594.9189678177207
  0
LWPOLYLINE
  5
41
330
17
100
AcDbEntity
  8
V236_LW_CUR34_02_128_BX1000
 62
     3
100
AcDbPolyline
 90
       44
 70
     1
 43
0.0
 10
6952.215674043547
 20
524.9293878177213
 10
6951.739373043543
 20
559.2910988177209
 10
6950.847390043549
 20
632.3184378177211
 10
6949.663543043556
 20
773.3264478177208
 10
6948.681457043552
 20
914.337143817722
 10
6946.550653043537
 20
1055.336015817722
 10
6944.613051043546
 20
1161.96669481772
 10
6943.20919004355
 20
1229.93231781772
 10
6870.071143043547
 20
1229.96775481772
 10
6728.523210043554
 20
1229.999838817721
 10
6452.361779043538
 20
1229.933682817722
 10
6144.250626043548
 20
1229.965951817721
 10
5788.549993043547
 20
1229.966283817721
 10
5354.295862043539
 20
1229.924280817719
 10
4951.548978043547
 20
1229.953898817721
 10
4538.883344043555
 20
1229.950031817721
 10
3886.780849043542
 20
1229.982942817722
 10
3192.58984504355
 20
1229.943020817722
 10
2579.145879043543
 20
1229.968471817719
 10
2002.604464043543
 20
1229.868004817721
 10
1570.595095043551
 20
1230.12822781772
 10
1409.972512043547
 20
1229.99969181772
 10
1339.028135043554
 20
1229.88919781772
 10
1342.18559804355
 20
1194.645843817721
 10
1345.316652043548
 20
1159.40013381772
 10
1350.000203043542
 20
1106.303408817721
 10
1356.59205304354
 20
1032.382418817722
 10
1364.955787043538
 20
940.6249778177206
 10
1371.88738904355
 20
866.2610308177209
 10
1378.952098043548
 20
791.9100458177218
 10
1387.450258043551
 20
704.0333378177218
 10
1393.903105043559
 20
636.9674618177214
 10
1398.469223043546
 20
587.7264978177207
 10
1401.28968504355
 20
556.3337658177206
 10
1404.021966043539
 20
524.9331388177195
 10
1689.186908043543
 20
524.9556978177206
 10
2007.264472043549
 20
524.9474298177211
 10
2502.065929043543
 20
524.9723398177211
 10
3408.868565043537
 20
524.9405378177216
 10
4379.148810043552
 20
524.9443408177211
 10
5203.622653043538
 20
525.0047938177211
 10
5995.183759043546
 20
524.8711688177207
 10
6610.021122043545
 20
525.0741418177203
 10
6812.857206043553
 20
525.0358478177203
  0
LWPOLYLINE
  5
42
330
17
100
AcDbEntity
  8
DATUM LINE
 62
   141
100
AcDbPolyline
 90
        6
 70
     0
 43
0.0
 10
4695.657401043543
 20
1160.017604817721
 10
4696.682240043547
 20
1019.003106817721
 10
4697.707079043539
 20
877.9886088177207
 10
4698.826477043549
 20
736.9748128177215
 10
4699.853420043551
 20
595.9603298177206
 10
4700.880364043551
 20
454.9458468177198
  0
LWPOLYLINE
  5
46
330
17
100
AcDbEntity
  8
V236_LW_CUR34_02_130_BX1000
 62
     3
100
AcDbPolyline
 90
       51
 70
     1
 43
0.0
 10
6962.672763043549
 20
454.9835988177219
 10
6962.598229043535
 20
470.5223138177207
 10
6962.376534043548
 20
504.3760848177207
 10
6961.913950043541
 20
549.6963028177197
 10
6961.22202704355
 20
600.9708198177214
 10
6960.488578043544
 20
670.1152098177207
 10
6960.099069043558
 20
723.723569817721
 10
6959.576213043547
 20
794.7561848177209
 10
6958.700610043554
 20
890.4329138177198
 10
6957.562645043552
 20
980.15011681772
 10
6956.500734043555
 20
1051.99695181772
 10
6955.243943043548
 20
1123.840387817721
 10
6954.545376043549
 20
1159.947660817719
 10
6742.60420504355
 20
1160.066137817721
 10
6512.092630043553
 20
1160.062388817719
 10
5665.210070043555
 20
1159.871282817721
 10
4741.381129043539
 20
1159.975392817721
 10
3617.515230043558
 20
1159.98550681772
 10
2705.590562043552
 20
1159.82983181772
 10
1812.23614804355
 20
1160.09587681772
 10
1535.252802043542
 20
1160.077275817721
 10
1335.215984043549
 20
1159.924912817722
 10
1338.199196043555
 20
1126.79931781772
 10
1344.365055043556
 20
1057.92332981772
 10
1354.190637043546
 20
947.3218888177196
 10
1367.331346043546
 20
806.3272178177212
 10
1381.316059043544
 20
665.4116548177207
 10
1391.14261404355
 20
557.5128708177215
 10
1397.468266043535
 20
485.3355898177214
 10
1400.098313043549
 20
454.8800458177209
 10
1447.287112043545
 20
455.0110438177216
 10
1512.345024043549
 20
455.0996238177211
 10
1650.922156043554
 20
455.051420817721
 10
1789.499460043545
 20
454.9110898177205
 10
2063.03009004354
 20
454.8945688177209
 10
2322.131700043552
 20
454.9430438177204
 10
2673.556831043548
 20
454.9991218177201
 10
2951.462868043556
 20
454.9501448177196
 10
3366.365162043541
 20
454.9311898177201
 10
3783.310288043548
 20
454.9782838177198
 10
4235.29407104355
 20
454.9424988177214
 10
4612.66073504355
 20
454.9492348177208
 10
5026.627662043538
 20
454.9435598177206
 10
5366.140107043553
 20
454.9672758177202
 10
5568.656299043549
 20
454.9487128177206
 10
5820.766034043553
 20
454.9472228177201
 10
6104.555240043541
 20
454.8976948177204
 10
6386.620010043554
 20
454.9754138177195
 10
6606.143037043541
 20
454.9703348177208
 10
6825.666153043538
 20
454.8440288177206
 10
6927.796888043551
 20
454.9359378177213
  0
LWPOLYLINE
  5
4A
330
17
100
AcDbEntity
  8
V236_LW_CUR34_02_132_BX1000
 62
     3
100
AcDbPolyline
 90
       23
 70
     1
 43
0.0
 10
4351.318768043551
 20
384.9468748177205
 10
4351.148896043553
 20
428.5908078177217
 10
4350.465164043547
 20
548.021986817721
 10
4349.21830104354
 20
667.4501148177205
 10
4349.231984043552
 20
786.8846538177201
 10
4348.825992043536
 20
906.3172058177206
 10
4348.394798043548
 20
982.1049648177211
 10
4198.406752043549
 20
977.8970528177195
 10
3818.309939043538
 20
965.3805908177217
 10
3219.804375043547
 20
937.9407998177194
 10
2622.096889043547
 20
895.7467088177198
 10
2025.425033043546
 20
841.5146778177202
 10
1578.809879043547
 20
794.97681781772
 10
1361.358212043546
 20
770.9761028177198
 10
1368.354526043549
 20
693.7733798177214
 10
1375.657875043543
 20
616.5987998177206
 10
1382.950908043553
 20
539.4225138177207
 10
1389.411221043556
 20
462.1720528177211
 10
1396.106786043543
 20
384.9426658177217
 10
1987.149175043538
 20
384.7770028177201
 10
2578.191643043552
 20
385.5105238177202
 10
3169.233807043552
 20
384.1748768177204
 10
3760.276474043553
 20
385.3180418177199
  0
LWPOLYLINE
  5
4B
330
17
100
AcDbEntity
  8
V236_LW_CUR34_02_090_BX1000
 62
     8
100
AcDbPolyline
 90
        7
 70
     0
 43
0.0
 10
7084.08653504355
 20
1229.94198881772
 10
7085.193371043555
 20
1158.247330817719
 10
7087.369975043547
 20
1017.25905081772
 10
7089.053353043535
 20
876.262481817721
 10
7090.294826043536
 20
735.2615698177195
 10
7090.917623043542
 20
594.2578648177203
 10
7091.223719043556
 20
524.9566628177217
  0
LWPOLYLINE
  5
4F
330
17
100
AcDbEntity
  8
V236_LW_CUR34_02_136_UD90
 62
     1
100
AcDbPolyline
 90
       27
 70
     1
 43
0.0
 10
7356.819661043542
 20
524.940992817721
 10
7356.386793043554
 20
539.4489438177206
 10
7355.433507043549
 20
568.4254618177201
 10
7352.870206043546
 20
638.0932508177211
 10
7350.267665043546
 20
717.7168098177207
 10
7347.086511043541
 20
806.0502288177213
 10
7343.374017043534
 20
914.5737218177201
 10
7339.686068043548
 20
1018.02874481772
 10
7337.365196043553
 20
1089.363298817721
 10
7334.930798043541
 20
1150.737427817719
 10
7333.035820043544
 20
1203.399879817722
 10
7332.501193043559
 20
1221.377358817721
 10
7332.269664043547
 20
1229.94842181772
 10
7266.289691043538
 20
1229.986525817721
 10
7200.309715043549
 20
1229.979716817721
 10
7134.329735043547
 20
1229.928082817721
 10
7068.349757043559
 20
1229.918540817722
 10
7002.369782043548
 20
1229.951176817722
 10
7007.496023043554
 20
1088.95943181772
 10
7012.187311043541
 20
947.9524048177207
 10
7017.170576043543
 20
806.95556681772
 10
7022.116540043542
 20
665.957251817721
 10
7026.742071043553
 20
524.9481918177207
 10
7092.757595043558
 20
524.9436298177206
 10
7158.773116043538
 20
524.9551598177203
 10
7224.78863204355
 20
524.9827378177213
 10
7290.804147043544
 20
524.9780298177211
  0
LWPOLYLINE
  5
50
330
17
100
AcDbEntity
  8
TAGGING
100
AcDbPolyline
 90
        2
 70
     0
 43
0.0
 10
6243.800137043552
 20
1215.058759817721
 10
6223.800137043554
 20
1195.058759817721
  0
LWPOLYLINE
  5
51
330
17
100
AcDbEntity
  8
TAGGING
100
AcDbPolyline
 90
        2
 70
     0
 43
0.0
 10
6243.800137043552
 20
1195.058759817721
 10
6223.800137043554
 20
1215.058759817721
  0
LWPOLYLINE
  5
52
330
17
100
AcDbEntity
  8
TAGGING
100
AcDbPolyline
 90
        2
 70
     0
 43
0.0
 10
6622.901610043554
 20
636.6144988177202
 10
6602.901610043554
 20
616.6144988177202
  0
LWPOLYLINE
  5
53
330
17
100
AcDbEntity
  8
TAGGING
100
AcDbPolyline
 90
        2
 70
     0
 43
0.0
 10
6622.901610043554
 20
616.6144988177202
 10
6602.901610043554
 20
636.6144988177202
  0
LWPOLYLINE
  5
54
330
17
100
AcDbEntity
  8
TAGGING
100
AcDbPolyline
 90
        2
 70
     0
 43
0.0
 10
7319.488487043549
 20
1170.215280817719
 10
7299.488487043548
 20
1150.21528081772
  0
LWPOLYLINE
  5
55
330
17
100
AcDbEntity
  8
TAGGING
100
AcDbPolyline
 90
        2
 70
     0
 43
0.0
 10
7319.488487043549
 20
1150.21528081772
 10
7299.488487043548
 20
1170.215280817719
  0
LWPOLYLINE
  5
56
330
17
100
AcDbEntity
  8
TAGGING
100
AcDbPolyline
 90
        2
 70
     0
 43
0.0
 10
7054.85021104355
 20
1175.54528881772
 10
7034.850211043552
 20
1155.54528881772
  0
LWPOLYLINE
  5
57
330
17
100
AcDbEntity
  8
TAGGING
100
AcDbPolyline
 90
        2
 70
     0
 43
0.0
 10
7054.85021104355
 20
1155.54528881772
 10
7034.850211043552
 20
1175.54528881772
  0
LWPOLYLINE
  5
58
330
17
100
AcDbEntity
  8
TAGGING
100
AcDbPolyline
 90
        2
 70
     0
 43
0.0
 10
7197.042204043538
 20
775.5049258177205
 10
7177.042204043537
 20
755.5049258177205
  0
LWPOLYLINE
  5
59
330
17
100
AcDbEntity
  8
TAGGING
100
AcDbPolyline
 90
        2
 70
     0
 43
0.0
 10
7197.042204043538
 20
755.5049258177205
 10
7177.042204043537
 20
775.5049258177205
  0
LWPOLYLINE
  5
5A
330
17
100
AcDbEntity
  8
TAGGING
100
AcDbPolyline
 90
        2
 70
     0
 43
0.0
 10
3753.187398043549
 20
1149.158534817721
 10
3733.187398043548
 20
1129.158534817721
  0
LWPOLYLINE
  5
5B
330
17
100
AcDbEntity
  8
TAGGING
100
AcDbPolyline
 90
        2
 70
     0
 43
0.0
 10
3753.187398043549
 20
1129.158534817721
 10
3733.187398043548
 20
1149.158534817721
  0
LWPOLYLINE
  5
5C
330
17
100
AcDbEntity
  8
TAGGING
100
AcDbPolyline
 90
        2
 70
     0
 43
0.0
 10
3836.088939043548
 20
497.9410048177213
 10
3816.088939043549
 20
477.9410048177214
  0
LWPOLYLINE
  5
5D
330
17
100
AcDbEntity
  8
TAGGING
100
AcDbPolyline
 90
        2
 70
     0
 43
0.0
 10
3836.088939043548
 20
477.9410048177214
 10
3816.088939043549
 20
497.9410048177213
  0
LWPOLYLINE
  5
5E
330
17
100
AcDbEntity
  8
TAGGING
100
AcDbPolyline
 90
        2
 70
     0
 43
0.0
 10
1777.567684043548
 20
1139.205279817721
 10
1757.567684043548
 20
1119.205279817721
  0
LWPOLYLINE
  5
5F
330
17
100
AcDbEntity
  8
TAGGING
100
AcDbPolyline
 90
        2
 70
     0
 43
0.0
 10
1777.567684043548
 20
1119.205279817721
 10
1757.567684043548
 20
1139.205279817721
  0
LWPOLYLINE
  5
60
330
17
100
AcDbEntity
  8
TAGGING
100
AcDbPolyline
 90
        2
 70
     0
 43
0.0
 10
1874.876668043551
 20
501.8169698177207
 10
1854.876668043551
 20
481.8169698177207
  0
LWPOLYLINE
  5
61
330
17
100
AcDbEntity
  8
TAGGING
100
AcDbPolyline
 90
        2
 70
     0
 43
0.0
 10
1874.876668043551
 20
481.8169698177207
 10
1854.876668043551
 20
501.8169698177207
  0
LWPOLYLINE
  5
62
330
17
100
AcDbEntity
  8
TAGGING
100
AcDbPolyline
 90
        2
 70
     0
 43
0.0
 10
2831.937907043553
 20
569.2016198177205
 10
2811.937907043553
 20
549.2016198177207
  0
LWPOLYLINE
  5
63
330
17
100
AcDbEntity
  8
TAGGING
100
AcDbPolyline
 90
        2
 70
     0
 43
0.0
 10
2831.937907043553
 20
549.2016198177207
 10
2811.937907043553
 20
569.2016198177205
  0
LWPOLYLINE
  5
64
330
17
100
AcDbEntity
  8
TAGGING
100
AcDbPolyline
 90
        2
 70
     0
 43
0.0
 10
2759.617006043554
 20
1068.095135817721
 10
2739.617006043554
 20
1048.095135817721
  0
LWPOLYLINE
  5
65
330
17
100
AcDbEntity
  8
TAGGING
100
AcDbPolyline
 90
        2
 70
     0
 43
0.0
 10
2759.617006043554
 20
1048.095135817721
 10
2739.617006043554
 20
1068.095135817721
  0
LWPOLYLINE
  5
66
330
17
100
AcDbEntity
  8
TAGGING
100
AcDbPolyline
 90
        2
 70
     0
 43
0.0
 10
2294.147959043549
 20
1203.841570817721
 10
2274.147959043549
 20
1183.841570817722
  0
LWPOLYLINE
  5
67
330
17
100
AcDbEntity
  8
TAGGING
100
AcDbPolyline
 90
        2
 70
     0
 43
0.0
 10
2294.147959043549
 20
1183.841570817722
 10
2274.147959043549
 20
1203.841570817721
  0
LWPOLYLINE
  5
68
330
17
100
AcDbEntity
  8
TAGGING
100
AcDbPolyline
 90
        2
 70
     0
 43
0.0
 10
2343.349000043541
 20
642.5088858177205
 10
2323.349000043541
 20
622.5088858177205
  0
LWPOLYLINE
  5
69
330
17
100
AcDbEntity
  8
TAGGING
100
AcDbPolyline
 90
        2
 70
     0
 43
0.0
 10
2343.349000043541
 20
622.5088858177205
 10
2323.349000043541
 20
642.5088858177205
  0
LWPOLYLINE
  5
6A
330
17
100
AcDbEntity
  8
TAGGING
100
AcDbPolyline
 90
        2
 70
     0
 43
0.0
 10
3329.915765043538
 20
640.4828548177211
 10
3309.915765043538
 20
620.4828548177211
  0
LWPOLYLINE
  5
6B
330
17
100
AcDbEntity
  8
TAGGING
100
AcDbPolyline
 90
        2
 70
     0
 43
0.0
 10
3329.915765043538
 20
620.4828548177211
 10
3309.915765043538
 20
640.4828548177211
  0
LWPOLYLINE
  5
6C
330
17
100
AcDbEntity
  8
TAGGING
100
AcDbPolyline
 90
        2
 70
     0
 43
0.0
 10
3224.525519043556
 20
1205.59725181772
 10
3204.525519043556
 20
1185.59725181772
  0
LWPOLYLINE
  5
6D
330
17
100
AcDbEntity
  8
TAGGING
100
AcDbPolyline
 90
        2
 70
     0
 43
0.0
 10
3224.525519043556
 20
1185.59725181772
 10
3204.525519043556
 20
1205.59725181772
  0
LWPOLYLINE
  5
6E
330
17
100
AcDbEntity
  8
TAGGING
100
AcDbPolyline
 90
        2
 70
     0
 43
0.0
 10
5886.158450043541
 20
1210.884263817721
 10
5866.158450043543
 20
1190.884263817721
  0
LWPOLYLINE
  5
6F
330
17
100
AcDbEntity
  8
TAGGING
100
AcDbPolyline
 90
        2
 70
     0
 43
0.0
 10
5886.158450043541
 20
1190.884263817721
 10
5866.158450043543
 20
1210.884263817721
  0
LWPOLYLINE
  5
70
330
17
100
AcDbEntity
  8
TAGGING
100
AcDbPolyline
 90
        2
 70
     0
 43
0.0
 10
6172.901610043555
 20
636.6144988177202
 10
6152.901610043555
 20
616.6144988177202
  0
LWPOLYLINE
  5
71
330
17
100
AcDbEntity
  8
TAGGING
100
AcDbPolyline
 90
        2
 70
     0
 43
0.0
 10
6172.901610043555
 20
616.6144988177202
 10
6152.901610043555
 20
636.6144988177202
  0
LWPOLYLINE
  5
72
330
17
100
AcDbEntity
  8
TAGGING
100
AcDbPolyline
 90
        2
 70
     0
 43
0.0
 10
5436.158450043542
 20
1210.884263817721
 10
5416.158450043543
 20
1190.884263817721
  0
LWPOLYLINE
  5
73
330
17
100
AcDbEntity
  8
TAGGING
100
AcDbPolyline
 90
        2
 70
     0
 43
0.0
 10
5436.158450043542
 20
1190.884263817721
 10
5416.158450043543
 20
1210.884263817721
  0
LWPOLYLINE
  5
74
330
17
100
AcDbEntity
  8
TAGGING
100
AcDbPolyline
 90
        2
 70
     0
 43
0.0
 10
5722.901610043555
 20
636.6144988177202
 10
5702.901610043555
 20
616.6144988177202
  0
LWPOLYLINE
  5
75
330
17
100
AcDbEntity
  8
TAGGING
100
AcDbPolyline
 90
        2
 70
     0
 43
0.0
 10
5722.901610043555
 20
616.6144988177202
 10
5702.901610043555
 20
636.6144988177202
  0
LWPOLYLINE
  5
76
330
17
100
AcDbEntity
  8
TAGGING
100
AcDbPolyline
 90
        2
 70
     0
 43
0.0
 10
4986.158450043542
 20
1210.884263817721
 10
4966.158450043542
 20
1190.884263817721
  0
LWPOLYLINE
  5
77
330
17
100
AcDbEntity
  8
TAGGING
100
AcDbPolyline
 90
        2
 70
     0
 43
0.0
 10
4986.158450043542
 20
1190.884263817721
 10
4966.158450043542
 20
1210.884263817721
  0
LWPOLYLINE
  5
78
330
17
100
AcDbEntity
  8
TAGGING
100
AcDbPolyline
 90
        2
 70
     0
 43
0.0
 10
5272.901610043556
 20
636.6144988177202
 10
5252.901610043554
 20
616.6144988177202
  0
LWPOLYLINE
  5
79
330
17
100
AcDbEntity
  8
TAGGING
100
AcDbPolyline
 90
        2
 70
     0
 43
0.0
 10
5272.901610043556
 20
616.6144988177202
 10
5252.901610043554
 20
636.6144988177202
  0
LWPOLYLINE
  5
7A
330
17
100
AcDbEntity
  8
TAGGING
100
AcDbPolyline
 90
        2
 70
     0
 43
0.0
 10
4806.173368043557
 20
636.182481817721
 10
4786.173368043558
 20
616.182481817721
  0
LWPOLYLINE
  5
7B
330
17
100
AcDbEntity
  8
TAGGING
100
AcDbPolyline
 90
        2
 70
     0
 43
0.0
 10
4806.173368043557
 20
616.182481817721
 10
4786.173368043558
 20
636.182481817721
  0
LWPOLYLINE
  5
7C
330
17
100
AcDbEntity
  8
TAGGING
100
AcDbPolyline
 90
        2
 70
     0
 43
0.0
 10
3834.543949043553
 20
770.82376981772
 10
3814.543949043553
 20
750.8237698177198
  0
LWPOLYLINE
  5
7D
330
17
100
AcDbEntity
  8
TAGGING
100
AcDbPolyline
 90
        2
 70
     0
 43
0.0
 10
3834.543949043553
 20
750.8237698177198
 10
3814.543949043553
 20
770.82376981772
  0
LWPOLYLINE
  5
7E
330
17
100
AcDbEntity
  8
TAGGING
100
AcDbPolyline
 90
        2
 70
     0
 43
0.0
 10
1855.96866604354
 20
792.3394048177215
 10
1835.968666043539
 20
772.3394048177214
  0
LWPOLYLINE
  5
7F
330
17
100
AcDbEntity
  8
TAGGING
100
AcDbPolyline
 90
        2
 70
     0
 43
0.0
 10
1855.96866604354
 20
772.3394048177214
 10
1835.968666043539
 20
792.3394048177215
  0
LWPOLYLINE
  5
80
330
17
100
AcDbEntity
  8
TAGGING
100
AcDbPolyline
 90
        2
 70
     0
 43
0.0
 10
2759.604246043542
 20
1336.807692817721
 10
2739.604246043542
 20
1316.807692817721
  0
LWPOLYLINE
  5
81
330
17
100
AcDbEntity
  8
TAGGING
100
AcDbPolyline
 90
        2
 70
     0
 43
0.0
 10
2759.604246043542
 20
1316.807692817721
 10
2739.604246043542
 20
1336.807692817721
  0
LWPOLYLINE
  5
82
330
17
100
AcDbEntity
  8
TAGGING
100
AcDbPolyline
 90
        2
 70
     0
 43
0.0
 10
1974.111091043538
 20
1340.35997481772
 10
1954.111091043538
 20
1320.35997481772
  0
LWPOLYLINE
  5
83
330
17
100
AcDbEntity
  8
TAGGING
100
AcDbPolyline
 90
        2
 70
     0
 43
0.0
 10
1974.111091043538
 20
1320.35997481772
 10
1954.111091043538
 20
1340.35997481772
  0
LWPOLYLINE
  5
84
330
17
100
AcDbEntity
  8
TAGGING
100
AcDbPolyline
 90
        2
 70
     0
 43
0.0
 10
3529.103189043541
 20
1335.031551817721
 10
3509.103189043541
 20
1315.031551817721
  0
LWPOLYLINE
  5
85
330
17
100
AcDbEntity
  8
TAGGING
100
AcDbPolyline
 90
        2
 70
     0
 43
0.0
 10
3529.103189043541
 20
1315.031551817721
 10
3509.103189043541
 20
1335.031551817721
  0
LWPOLYLINE
  5
86
330
17
100
AcDbEntity
  8
TAGGING
100
AcDbPolyline
 90
        2
 70
     0
 43
0.0
 10
4536.158450043542
 20
1210.884263817721
 10
4516.15845004354
 20
1190.884263817721
  0
LWPOLYLINE
  5
87
330
17
100
AcDbEntity
  8
TAGGING
100
AcDbPolyline
 90
        2
 70
     0
 43
0.0
 10
4536.158450043542
 20
1190.884263817721
 10
4516.15845004354
 20
1210.884263817721
  0
LWPOLYLINE
  5
88
330
17
100
AcDbEntity
  8
TAGGING
100
AcDbPolyline
 90
        2
 70
     0
 43
0.0
 10
4744.733448043553
 20
911.3518198177207
 10
4724.733448043553
 20
891.3518198177207
  0
LWPOLYLINE
  5
89
330
17
100
AcDbEntity
  8
TAGGING
100
AcDbPolyline
 90
        2
 70
     0
 43
0.0
 10
4744.733448043553
 20
891.3518198177207
 10
4724.733448043553
 20
911.3518198177207
  0
LWPOLYLINE
  5
8A
330
17
100
AcDbEntity
  8
TAGGING
100
AcDbPolyline
 90
        2
 70
     0
 43
0.0
 10
5216.558451043542
 20
909.3279498177198
 10
5196.558451043544
 20
889.3279498177196
  0
LWPOLYLINE
  5
8B
330
17
100
AcDbEntity
  8
TAGGING
100
AcDbPolyline
 90
        2
 70
     0
 43
0.0
 10
5216.558451043542
 20
889.3279498177196
 10
5196.558451043544
 20
909.3279498177198
  0
LWPOLYLINE
  5
8C
330
17
100
AcDbEntity
  8
TAGGING
100
AcDbPolyline
 90
        2
 70
     0
 43
0.0
 10
5732.933459043547
 20
895.1608778177197
 10
5712.933459043546
 20
875.1608778177196
  0
LWPOLYLINE
  5
8D
330
17
100
AcDbEntity
  8
TAGGING
100
AcDbPolyline
 90
        2
 70
     0
 43
0.0
 10
5732.933459043547
 20
875.1608778177196
 10
5712.933459043546
 20
895.1608778177197
  0
LWPOLYLINE
  5
8E
330
17
100
AcDbEntity
  8
TAGGING
100
AcDbPolyline
 90
        2
 70
     0
 43
0.0
 10
6115.658452043543
 20
899.2086138177201
 10
6095.658452043543
 20
879.20861381772
  0
LWPOLYLINE
  5
8F
330
17
100
AcDbEntity
  8
TAGGING
100
AcDbPolyline
 90
        2
 70
     0
 43
0.0
 10
6115.658452043543
 20
879.20861381772
 10
6095.658452043543
 20
899.2086138177201
  0
LWPOLYLINE
  5
90
330
17
100
AcDbEntity
  8
TAGGING
100
AcDbPolyline
 90
        2
 70
     0
 43
0.0
 10
6623.933460043552
 20
1212.90812881772
 10
6603.933460043553
 20
1192.90812881772
  0
LWPOLYLINE
  5
91
330
17
100
AcDbEntity
  8
TAGGING
100
AcDbPolyline
 90
        2
 70
     0
 43
0.0
 10
6623.933460043552
 20
1192.90812881772
 10
6603.933460043553
 20
1212.90812881772
  0
LWPOLYLINE
  5
92
330
17
100
AcDbEntity
  8
TAGGING
100
AcDbPolyline
 90
        2
 70
     0
 43
0.0
 10
6445.733457043549
 20
891.1131428177212
 10
6425.733457043548
 20
871.1131428177214
  0
LWPOLYLINE
  5
93
330
17
100
AcDbEntity
  8
TAGGING
100
AcDbPolyline
 90
        2
 70
     0
 43
0.0
 10
6445.733457043549
 20
871.1131428177214
 10
6425.733457043548
 20
891.1131428177212
  0
LWPOLYLINE
  5
94
330
17
100
AcDbEntity
  8
TAGGING
100
AcDbPolyline
 90
        2
 70
     0
 43
0.0
 10
6820.358450043539
 20
891.1131428177212
 10
6800.358450043539
 20
871.1131428177214
  0
LWPOLYLINE
  5
95
330
17
100
AcDbEntity
  8
TAGGING
100
AcDbPolyline
 90
        2
 70
     0
 43
0.0
 10
6820.358450043539
 20
871.1131428177214
 10
6800.358450043539
 20
891.1131428177212
  0
LWPOLYLINE
  5
96
330
17
100
AcDbEntity
  8
TAGGING
100
AcDbPolyline
 90
        2
 70
     0
 43
0.0
 10
4392.595274043546
 20
637.4106958177216
 10
4372.595274043546
 20
617.4106958177218
  0
LWPOLYLINE
  5
97
330
17
100
AcDbEntity
  8
TAGGING
100
AcDbPolyline
 90
        2
 70
     0
 43
0.0
 10
4392.595274043546
 20
617.4106958177218
 10
4372.595274043546
 20
637.4106958177216
  0
LWPOLYLINE
  5
98
330
17
100
AcDbEntity
  8
TAGGING
100
AcDbPolyline
 90
        2
 70
     0
 43
0.0
 10
4138.407001043538
 20
934.7834638177207
 10
4118.407001043538
 20
914.783463817721
  0
LWPOLYLINE
  5
99
330
17
100
AcDbEntity
  8
TAGGING
100
AcDbPolyline
 90
        2
 70
     0
 43
0.0
 10
4138.407001043538
 20
914.783463817721
 10
4118.407001043538
 20
934.7834638177207
  0
LWPOLYLINE
  5
9A
330
17
100
AcDbEntity
  8
TAGGING
100
AcDbPolyline
 90
        2
 70
     0
 43
0.0
 10
3015.22563704355
 20
873.1119618177199
 10
2995.22563704355
 20
853.1119618177196
  0
LWPOLYLINE
  5
9B
330
17
100
AcDbEntity
  8
TAGGING
100
AcDbPolyline
 90
        2
 70
     0
 43
0.0
 10
3015.22563704355
 20
853.1119618177196
 10
2995.22563704355
 20
873.1119618177199
  0
LWPOLYLINE
  5
9C
330
17
100
AcDbEntity
  8
TAGGING
100
AcDbPolyline
 90
        2
 70
     0
 43
0.0
 10
2369.424116043548
 20
840.3807048177203
 10
2349.424116043548
 20
820.3807048177205
  0
LWPOLYLINE
  5
9D
330
17
100
AcDbEntity
  8
TAGGING
100
AcDbPolyline
 90
        2
 70
     0
 43
0.0
 10
2369.424116043548
 20
820.3807048177205
 10
2349.424116043548
 20
840.3807048177203
  0
LWPOLYLINE
  5
9E
330
17
100
AcDbEntity
  8
TAGGING
100
AcDbPolyline
 90
        2
 70
     0
 43
0.0
 10
3536.169701043546
 20
929.9122078177203
 10
3516.169701043545
 20
909.9122078177206
  0
LWPOLYLINE
  5
9F
330
17
100
AcDbEntity
  8
TAGGING
100
AcDbPolyline
 90
        2
 70
     0
 43
0.0
 10
3536.169701043546
 20
909.9122078177206
 10
3516.169701043545
 20
929.9122078177203
  0
LWPOLYLINE
  5
A1
330
17
100
AcDbEntity
  8
FRAME
100
AcDbPolyline
 90
        5
 70
     0
 43
0.0
 10
0.0
 20
0.0
 10
10000.0
 20
0.0
 10
10000.0
 20
2500.0
 10
0.0
 20
2500.0
 10
0.0
 20
0.0
  0
ENDSEC
  0
SECTION
  2
OBJECTS
  0
DICTIONARY
  5
A
330
0
100
AcDbDictionary
281
     1
  3
ACAD_CIP_PREVIOUS_PRODUCT_INFO
350
DD
  3
ACAD_COLOR
350
B
  3
ACAD_DETAILVIEWSTYLE
350
D9
  3
ACAD_GROUP
350
C
  3
ACAD_LAST_SAVED_VERSION_INFO
350
1E9
  3
ACAD_LAYOUT
350
D
  3
ACAD_MATERIAL
350
E
  3
ACAD_MLEADERSTYLE
350
F
  3
ACAD_MLINESTYLE
350
10
  3
ACAD_PLOTSETTINGS
350
11
  3
ACAD_PLOTSTYLENAME
350
12
  3
ACAD_SCALELIST
350
14
  3
ACAD_SECTIONVIEWSTYLE
350
D7
  3
ACAD_TABLESTYLE
350
15
  3
ACAD_VISUALSTYLE
350
16
  3
ACDB_RECOMPOSE_DATA
350
1F8
  3
AcDbVariableDictionary
350
DE
  3
EZDXF_META
350
2D
  0
DICTIONARY
  5
17E
330
1
100
AcDbDictionary
280
     1
281
     1
  3
ACAD_LAYERSTATES
360
17F
  0
DICTIONARY
  5
174
330
173
100
AcDbDictionary
280
     1
281
     1
  0
DICTIONARY
  5
176
330
175
100
AcDbDictionary
280
     1
281
     1
  0
DICTIONARY
  5
178
330
177
100
AcDbDictionary
280
     1
281
     1
  0
DICTIONARY
  5
17A
330
179
100
AcDbDictionary
280
     1
281
     1
  0
XRECORD
  5
DD
102
{ACAD_REACTORS
330
A
102
}
330
A
100
AcDbXrecord
280
     1
300
ACDLT
300
2024
300

  0
DICTIONARY
  5
B
330
A
100
AcDbDictionary
281
     1
  0
DICTIONARY
  5
D9
102
{ACAD_REACTORS
330
A
102
}
330
A
100
AcDbDictionary
281
     1
  3
Metric50
350
DA
  0
DICTIONARY
  5
C
330
A
100
AcDbDictionary
281
     1
  0
XRECORD
  5
1E9
102
{ACAD_REACTORS
330
A
102
}
330
A
100
AcDbXrecord
280
     1
300
{EF6195A6-3419-A94F-B83D-994A9DDB3295}
301
{B07191EA-241F-8B4E-87F3-17A2DCD4C660}
302
{EF6195A6-3419-A94F-B83D-994A9DDB3295}
303
C:\Users\Juan Pablo Lopez\OneDrive - Rewair A S\Desktop\PFILES\Python_versions\Destiny\Nombrar_capas_34_CUR34_02_Tagging.dxf
  0
DICTIONARY
  5
D
330
A
100
AcDbDictionary
281
     1
  3
Layout1
350
1E
  3
Model
350
1A
  0
DICTIONARY
  5
E
330
A
100
AcDbDictionary
281
     1
  3
ByBlock
350
1F
  3
ByLayer
350
20
  3
Global
350
21
  0
DICTIONARY
  5
F
330
A
100
AcDbDictionary
281
     1
  3
Standard
350
2C
  0
DICTIONARY
  5
10
330
A
100
AcDbDictionary
281
     1
  3
Standard
350
22
  0
DICTIONARY
  5
11
330
A
100
AcDbDictionary
281
     1
  0
ACDBDICTIONARYWDFLT
  5
12
330
A
100
AcDbDictionary
281
     1
  3
Normal
350
13
100
AcDbDictionaryWithDefault
340
13
  0
DICTIONARY
  5
14
330
A
100
AcDbDictionary
281
     1
  3
A0
350
C6
  3
A1
350
C7
  3
A2
350
C8
  3
A3
350
C9
  3
A4
350
CA
  3
A5
350
CB
  3
A6
350
CC
  3
A7
350
CD
  3
A8
350
CE
  3
A9
350
CF
  3
B0
350
D0
  3
B1
350
D1
  3
B2
350
D2
  3
B3
350
D3
  3
B4
350
D4
  3
B5
350
D5
  3
B6
350
D6
  0
DICTIONARY
  5
D7
102
{ACAD_REACTORS
330
A
102
}
330
A
100
AcDbDictionary
281
     1
  3
Metric50
350
D8
  0
DICTIONARY
  5
15
330
A
100
AcDbDictionary
281
     1
  3
Standard
350
C5
  0
DICTIONARY
  5
16
330
A
100
AcDbDictionary
281
     1
  3
2dWireframe
350
B2
  3
Basic
350
B1
  3
Brighten
350
B8
  3
ColorChange
350
BC
  3
Conceptual
350
B5
  3
Dim
350
B7
  3
EdgeColorOff
350
C4
  3
Facepattern
350
BB
  3
Flat
350
AD
  3
FlatWithEdges
350
AE
  3
Gouraud
350
AF
  3
GouraudWithEdges
350
B0
  3
Hidden
350
B4
  3
JitterOff
350
C2
  3
Linepattern
350
BA
  3
OverhangOff
350
C3
  3
Realistic
350
B6
  3
Shaded
350
C1
  3
Shaded with edges
350
C0
  3
Shades of Gray
350
BD
  3
Sketchy
350
BE
  3
Thicken
350
B9
  3
Wireframe
350
B3
  3
X-Ray
350
BF
  0
XRECORD
  5
1F8
102
{ACAD_REACTORS
330
A
102
}
330
A
100
AcDbXrecord
280
     1
 90
        1
330
C5
  0
DICTIONARY
  5
DE
102
{ACAD_REACTORS
330
A
102
}
330
A
100
AcDbDictionary
281
     1
  3
CANNOSCALE
350
1EE
  3
CMLEADERSTYLE
350
1EB
  3
CTABLESTYLE
350
1EA
  3
CVIEWDETAILSTYLE
350
1EC
  3
CVIEWSECTIONSTYLE
350
1ED
  0
DICTIONARY
  5
2D
330
A
100
AcDbDictionary
281
     1
  3
CREATED_BY_EZDXF
350
2E
  3
WRITTEN_BY_EZDXF
350
A4
  0
DICTIONARY
  5
17F
102
{ACAD_REACTORS
330
17E
102
}
330
17E
100
AcDbDictionary
281
     1
  0
ACDBDETAILVIEWSTYLE
  5
DA
102
{ACAD_REACTORS
330
D9
102
}
330
D9
100
AcDbModelDocViewStyle
 70
     0
  3
Metric50
290
     0
300
Metric50
 90
        0
100
AcDbDetailViewStyle
 70
     0
 71
     0
 90
        3
 71
     1
340
29
 62
   256
 40
5.0
340
0
 62
   256
 40
5.0
300

 40
0.0
280
     1
 71
     2
340
26
 90
       25
 62
   256
 71
     3
340
29
 62
   256
 40
5.0
 90
        0
 40
15.0
 90
        1
300
%<\AcVar ViewDetailId>% (%<\AcVar ViewScale \f "%sn">%)
 71
     4
340
26
 90
       25
 62
   256
340
26
 90
       25
 62
   256
280
     0
  0
LAYOUT
  5
1E
330
D
100
AcDbPlotSettings
  1

  2
Adobe PDF
  4
A3
  6

 40
7.5
 41
20.0
 42
7.5
 43
20.0
 44
420.0
 45
297.0
 46
0.0
 47
0.0
 48
0.0
 49
0.0
140
0.0
141
0.0
142
1.0
143
1.0
 70
     0
 72
     1
 73
     0
 74
     5
  7

 75
    16
147
1.0
 76
     0
 77
     2
 78
   300
148
0.0
149
0.0
100
AcDbLayout
  1
Layout1
 70
     1
 71
     1
 10
0.0
 20
0.0
 11
420.0
 21
297.0
 12
0.0
 22
0.0
 32
0.0
 14
1.000000000000000E+20
 24
1.000000000000000E+20
 34
1.000000000000000E+20
 15
-1.000000000000000E+20
 25
-1.000000000000000E+20
 35
-1.000000000000000E+20
146
0.0
 13
0.0
 23
0.0
 33
0.0
 16
1.0
 26
0.0
 36
0.0
 17
0.0
 27
1.0
 37
0.0
 76
     0
330
1B
  0
LAYOUT
  5
1A
330
D
100
AcDbPlotSettings
  1

  2
Adobe PDF
  4
A3
  6

 40
7.5
 41
20.0
 42
7.5
 43
20.0
 44
420.0
 45
297.0
 46
0.0
 47
0.0
 48
0.0
 49
0.0
140
0.0
141
0.0
142
1.0
143
1.0
 70
  1024
 72
     1
 73
     0
 74
     5
  7

 75
    16
147
1.0
 76
     0
 77
     2
 78
   300
148
0.0
149
0.0
100
AcDbLayout
  1
Model
 70
     1
 71
     0
 10
0.0
 20
0.0
 11
420.0
 21
297.0
 12
0.0
 22
0.0
 32
0.0
 14
1.000000000000000E+20
 24
1.000000000000000E+20
 34
1.000000000000000E+20
 15
-1.000000000000000E+20
 25
-1.000000000000000E+20
 35
-1.000000000000000E+20
146
0.0
 13
0.0
 23
0.0
 33
0.0
 16
1.0
 26
0.0
 36
0.0
 17
0.0
 27
1.0
 37
0.0
 76
     1
330
17
331
23
  0
MATERIAL
  5
1F
102
{ACAD_REACTORS
330
E
102
}
330
E
100
AcDbMaterial
  1
ByBlock
 71
     1
 91
-1023410177
 73
     1
 78
     1
172
     1
176
     1
270
     1
273
     1
274
     1
 94
       63
  0
MATERIAL
  5
20
102
{ACAD_REACTORS
330
E
102
}
330
E
100
AcDbMaterial
  1
ByLayer
 71
     1
 91
-1023410177
 73
     1
 78
     1
172
     1
176
     1
270
     1
273
     1
274
     1
 94
       63
  0
MATERIAL
  5
21
102
{ACAD_REACTORS
330
E
102
}
330
E
100
AcDbMaterial
  1
Global
 71
     1
 91
-1023410177
 73
     1
 78
     1
172
     1
176
     1
270
     1
273
     1
274
     1
 94
       63
  0
MLEADERSTYLE
  5
2C
102
{ACAD_REACTORS
330
F
102
}
330
F
100
AcDbMLeaderStyle
179
     2
170
     2
171
     1
172
     0
 90
        2
 40
0.0
 41
0.0
173
     1
 91
-1056964608
 92
       -2
290
     1
 42
2.0
291
     1
 43
8.0
  3
Standard
 44
4.0
300

342
29
174
     1
178
     1
175
     1
176
     0
 93
-1056964608
 45
4.0
292
     0
297
     0
 46
4.0
 94
-1056964608
 47
1.0
 49
1.0
140
1.0
293
     1
141
0.0
294
     1
177
     0
142
1.0
295
     0
296
     0
143
3.75
271
     0
272
     9
273
     9
298
     0
  0
MLINESTYLE
  5
22
102
{ACAD_REACTORS
330
10
102
}
330
10
100
AcDbMlineStyle
  2
STANDARD
 70
     0
  3

 62
   256
 51
90.0
 52
90.0
 71
     2
 49
0.5
 62
   256
  6
BYLAYER
 49
-0.5
 62
   256
  6
BYLAYER
  0
ACDBPLACEHOLDER
  5
13
330
12
  0
SCALE
  5
C6
102
{ACAD_REACTORS
330
14
102
}
330
14
100
AcDbScale
 70
     0
300
1:1
140
1.0
141
1.0
290
     1
  0
SCALE
  5
C7
102
{ACAD_REACTORS
330
14
102
}
330
14
100
AcDbScale
 70
     0
300
1:2
140
1.0
141
2.0
290
     0
  0
SCALE
  5
C8
102
{ACAD_REACTORS
330
14
102
}
330
14
100
AcDbScale
 70
     0
300
1:4
140
1.0
141
4.0
290
     0
  0
SCALE
  5
C9
102
{ACAD_REACTORS
330
14
102
}
330
14
100
AcDbScale
 70
     0
300
1:5
140
1.0
141
5.0
290
     0
  0
SCALE
  5
CA
102
{ACAD_REACTORS
330
14
102
}
330
14
100
AcDbScale
 70
     0
300
1:8
140
1.0
141
8.0
290
     0
  0
SCALE
  5
CB
102
{ACAD_REACTORS
330
14
102
}
330
14
100
AcDbScale
 70
     0
300
1:10
140
1.0
141
10.0
290
     0
  0
SCALE
  5
CC
102
{ACAD_REACTORS
330
14
102
}
330
14
100
AcDbScale
 70
     0
300
1:16
140
1.0
141
16.0
290
     0
  0
SCALE
  5
CD
102
{ACAD_REACTORS
330
14
102
}
330
14
100
AcDbScale
 70
     0
300
1:20
140
1.0
141
20.0
290
     0
  0
SCALE
  5
CE
102
{ACAD_REACTORS
330
14
102
}
330
14
100
AcDbScale
 70
     0
300
1:30
140
1.0
141
30.0
290
     0
  0
SCALE
  5
CF
102
{ACAD_REACTORS
330
14
102
}
330
14
100
AcDbScale
 70
     0
300
1:40
140
1.0
141
40.0
290
     0
  0
SCALE
  5
D0
102
{ACAD_REACTORS
330
14
102
}
330
14
100
AcDbScale
 70
     0
300
1:50
140
1.0
141
50.0
290
     0
  0
SCALE
  5
D1
102
{ACAD_REACTORS
330
14
102
}
330
14
100
AcDbScale
 70
     0
300
1:100
140
1.0
141
100.0
290
     0
  0
SCALE
  5
D2
102
{ACAD_REACTORS
330
14
102
}
330
14
100
AcDbScale
 70
     0
300
2:1
140
2.0
141
1.0
290
     0
  0
SCALE
  5
D3
102
{ACAD_REACTORS
330
14
102
}
330
14
100
AcDbScale
 70
     0
300
4:1
140
4.0
141
1.0
290
     0
  0
SCALE
  5
D4
102
{ACAD_REACTORS
330
14
102
}
330
14
100
AcDbScale
 70
     0
300
8:1
140
8.0
141
1.0
290
     0
  0
SCALE
  5
D5
102
{ACAD_REACTORS
330
14
102
}
330
14
100
AcDbScale
 70
     0
300
10:1
140
10.0
141
1.0
290
     0
  0
SCALE
  5
D6
102
{ACAD_REACTORS
330
14
102
}
330
14
100
AcDbScale
 70
     0
300
100:1
140
100.0
141
1.0
290
     0
  0
ACDBSECTIONVIEWSTYLE
  5
D8
102
{ACAD_REACTORS
330
D7
102
}
330
D7
100
AcDbModelDocViewStyle
 70
     0
  3
Metric50
290
     0
300
Metric50
 90
        0
100
AcDbSectionViewStyle
 70
     0
 71
     0
 90
      102
 71
     1
340
29
 62
   256
 40
5.0
340
0
340
0
 62
   256
 40
5.0
300
I, O, Q, S, X, Z
 40
10.0
 90
        0
 40
2.5
 90
        0
 71
     2
340
26
 90
       25
 62
   256
340
26
 90
       50
 62
   256
 40
5.0
 40
2.5
 40
5.0
 71
     3
340
29
 62
   256
 40
5.0
 90
        0
 40
15.0
 90
        1
300
%<\AcVar ViewSectionStartId>%-%<\AcVar ViewSectionEndId>% (%<\AcVar ViewScale \f "%sn">%)
 71
     4
 62
   256
 62
   257
300
ANSI31
 40
1.0
 90
        0
290
     0
290
     0
 90
        6
 40
0.0
 40
1.570796326794896
 40
0.2617993877991494
 40
1.308996938995747
 40
-0.2617993877991494
 40
1.832595714594045
  0
TABLESTYLE
  5
C5
102
{ACAD_XDICTIONARY
360
1EF
102
}
102
{ACAD_REACTORS
330
15
102
}
330
15
100
AcDbTableStyle
280
     0
  3
Standard
 70
     0
 71
     0
 40
1.5
 41
1.5
280
     0
281
     0
  7
Standard
140
4.5
170
     2
 62
     0
 63
     7
283
     0
 90
      512
 91
        0
  1

274
    -2
284
     1
 64
     0
275
    -2
285
     1
 65
     0
276
    -2
286
     1
 66
     0
277
    -2
287
     1
 67
     0
278
    -2
288
     1
 68
     0
279
    -2
289
     1
 69
     0
  7
Standard
140
6.0
170
     5
 62
     0
 63
     7
283
     0
 90
      512
 91
        0
  1

274
    -2
284
     1
 64
     0
275
    -2
285
     1
 65
     0
276
    -2
286
     1
 66
     0
277
    -2
287
     1
 67
     0
278
    -2
288
     1
 68
     0
279
    -2
289
     1
 69
     0
  7
Standard
140
4.5
170
     5
 62
     0
 63
     7
283
     0
 90
      512
 91
        0
  1

274
    -2
284
     1
 64
     0
275
    -2
285
     1
 65
     0
276
    -2
286
     1
 66
     0
277
    -2
287
     1
 67
     0
278
    -2
288
     1
 68
     0
279
    -2
289
     1
 69
     0
  0
VISUALSTYLE
  5
B2
102
{ACAD_REACTORS
330
16
102
}
330
16
100
AcDbVisualStyle
  2
2dWireframe
 70
     4
177
     3
291
     0
 70
    58
 90
        0
176
     1
 90
        2
176
     1
 90
        0
176
     1
 90
        0
176
     1
 40
0.6
176
     1
 40
30.0
176
     1
 62
     7
420
 16777215
176
     1
 90
        1
176
     1
 90
        4
176
     1
 62
     7
176
     1
 62
   257
176
     1
 90
        1
176
     1
 90
        1
176
     1
 40
1.0
176
     1
 90
        0
176
     1
 62
   257
176
     1
 40
1.0
176
     1
 90
        1
176
     1
 90
        6
176
     1
 90
        2
176
     1
 62
     7
176
     1
 90
        5
176
     1
 90
        0
176
     1
 90
        0
176
     1
290
     0
176
     1
 90
        1
176
     1
 40
0.0
176
     1
 90
        0
176
     1
290
     1
176
     1
290
     1
176
     1
290
     0
176
     1
290
     0
176
     1
290
     0
176
     1
290
     0
176
     1
290
     0
176
     1
290
     0
176
     1
290
     0
176
     1
 90
       50
176
     1
 40
0.0
176
     1
 40
1.0
176
     1
 90
        0
176
     1
 62
    18
176
     1
 90
       50
176
     1
 90
        3
176
     1
 62
     5
420
      255
176
     1
290
     0
176
     1
 90
       50
176
     1
 90
       50
176
     1
 90
       50
176
     1
290
     0
176
     1
 90
       50
176
     1
 62
   256
176
     0
 40
1.0
176
     0
 90
        2
176
     1
  1
strokes_ogs.tif
176
     1
290
     0
176
     1
 40
1.0
176
     1
 40
1.0
176
     1
  0
VISUALSTYLE
  5
B1
102
{ACAD_REACTORS
330
16
102
}
330
16
100
AcDbVisualStyle
  2
Basic
 70
     7
177
     3
291
     1
 70
    58
 90
        1
176
     1
 90
        0
176
     1
 90
        1
176
     1
 90
        0
176
     1
 40
0.6
176
     1
 40
30.0
176
     1
 62
     7
420
 16777215
176
     1
 90
        0
176
     1
 90
        4
176
     1
 62
     7
176
     1
 62
   257
176
     1
 90
        1
176
     1
 90
        1
176
     1
 40
1.0
176
     1
 90
        8
176
     1
 62
     7
176
     1
 40
1.0
176
     1
 90
        1
176
     1
 90
        6
176
     1
 90
        2
176
     1
 62
     7
176
     1
 90
        5
176
     1
 90
        0
176
     1
 90
        0
176
     1
290
     0
176
     1
 90
        1
176
     1
 40
0.0
176
     1
 90
        0
176
     1
290
     0
176
     1
290
     1
176
     1
290
     1
176
     1
290
     0
176
     1
290
     0
176
     1
290
     0
176
     1
290
     0
176
     1
290
     0
176
     1
290
     0
176
     1
 90
       50
176
     1
 40
0.0
176
     1
 40
1.0
176
     1
 90
        0
176
     1
 62
    18
176
     1
 90
       50
176
     1
 90
        3
176
     1
 62
     5
420
      255
176
     1
290
     0
176
     1
 90
       50
176
     1
 90
       50
176
     1
 90
       50
176
     1
290
     0
176
     1
 90
       50
176
     1
 62
   256
176
     0
 40
1.0
176
     0
 90
        2
176
     1
  1
strokes_ogs.tif
176
     1
290
     0
176
     1
 40
1.0
176
     1
 40
1.0
176
     1
  0
VISUALSTYLE
  5
B8
102
{ACAD_REACTORS
330
16
102
}
330
16
100
AcDbVisualStyle
  2
Brighten
 70
    12
177
     3
291
     1
 70
    58
 90
        2
176
     1
 90
        2
176
     1
 90
        0
176
     1
 90
        0
176
     1
 40
0.6
176
     1
 40
30.0
176
     1
 62
     7
420
 16777215
176
     1
 90
        1
176
     1
 90
        4
176
     1
 62
     7
176
     1
 62
   257
176
     1
 90
        1
176
     1
 90
        1
176
     1
 40
1.0
176
     1
 90
        8
176
     1
 62
     7
176
     1
 40
1.0
176
     1
 90
        1
176
     1
 90
        6
176
     1
 90
        2
176
     1
 62
     7
176
     1
 90
        5
176
     1
 90
        0
176
     1
 90
        0
176
     1
290
     0
176
     1
 90
        1
176
     1
 40
50.0
176
     1
 90
        0
176
     1
290
     0
176
     1
290
     1
176
     1
290
     1
176
     1
290
     0
176
     1
290
     0
176
     1
290
     0
176
     1
290
     0
176
     1
290
     0
176
     1
290
     0
176
     1
 90
       50
176
     1
 40
0.0
176
     1
 40
1.0
176
     1
 90
        0
176
     1
 62
    18
176
     1
 90
       50
176
     1
 90
        3
176
     1
 62
     5
420
      255
176
     1
290
     0
176
     1
 90
       50
176
     1
 90
       50
176
     1
 90
       50
176
     1
290
     0
176
     1
 90
       50
176
     1
 62
   256
176
     0
 40
1.0
176
     0
 90
        2
176
     1
  1
strokes_ogs.tif
176
     1
290
     0
176
     1
 40
1.0
176
     1
 40
1.0
176
     1
  0
VISUALSTYLE
  5
BC
102
{ACAD_REACTORS
330
16
102
}
330
16
100
AcDbVisualStyle
  2
ColorChange
 70
    16
177
     3
291
     1
 70
    58
 90
        2
176
     1
 90
        2
176
     1
 90
        3
176
     1
 90
        0
176
     1
 40
0.6
176
     1
 40
30.0
176
     1
 62
     8
420
  8421504
176
     1
 90
        1
176
     1
 90
        4
176
     1
 62
     7
176
     1
 62
   257
176
     1
 90
        1
176
     1
 90
        1
176
     1
 40
1.0
176
     1
 90
        8
176
     1
 62
     8
420
  8421504
176
     1
 40
1.0
176
     1
 90
        1
176
     1
 90
        6
176
     1
 90
        2
176
     1
 62
     7
176
     1
 90
        5
176
     1
 90
        0
176
     1
 90
        0
176
     1
290
     0
176
     1
 90
        1
176
     1
 40
0.0
176
     1
 90
        0
176
     1
290
     0
176
     1
290
     1
176
     1
290
     1
176
     1
290
     0
176
     1
290
     0
176
     1
290
     0
176
     1
290
     0
176
     1
290
     0
176
     1
290
     0
176
     1
 90
       50
176
     1
 40
0.0
176
     1
 40
1.0
176
     1
 90
        0
176
     1
 62
    18
176
     1
 90
       50
176
     1
 90
        3
176
     1
 62
     5
420
      255
176
     1
290
     0
176
     1
 90
       50
176
     1
 90
       50
176
     1
 90
       50
176
     1
290
     0
176
     1
 90
       50
176
     1
 62
   256
176
     0
 40
1.0
176
     0
 90
        2
176
     1
  1
strokes_ogs.tif
176
     1
290
     0
176
     1
 40
1.0
176
     1
 40
1.0
176
     1
  0
VISUALSTYLE
  5
B5
102
{ACAD_REACTORS
330
16
102
}
330
16
100
AcDbVisualStyle
  2
Conceptual
 70
     9
177
     3
291
     0
 70
    58
 90
        3
176
     1
 90
        2
176
     1
 90
        0
176
     1
 90
        0
176
     1
 40
0.6
176
     1
 40
30.0
176
     1
 62
     7
420
 16777215
176
     1
 90
        2
176
     1
 90
        2
176
     1
 62
     7
176
     1
 62
   257
176
     1
 90
        1
176
     1
 90
        1
176
     1
 40
179.0
176
     1
 90
        8
176
     1
 62
     7
176
     1
 40
1.0
176
     1
 90
        1
176
     1
 90
        6
176
     1
 90
        2
176
     1
 62
     7
176
     1
 90
        3
176
     1
 90
        0
176
     1
 90
        0
176
     1
290
     0
176
     1
 90
        1
176
     1
 40
0.0
176
     1
 90
        0
176
     1
290
     0
176
     1
290
     1
176
     1
290
     1
176
     1
290
     0
176
     1
290
     0
176
     1
290
     0
176
     1
290
     0
176
     1
290
     0
176
     1
290
     0
176
     1
 90
       50
176
     1
 40
0.0
176
     1
 40
1.0
176
     1
 90
        0
176
     1
 62
    18
176
     1
 90
       50
176
     1
 90
        3
176
     1
 62
     5
420
      255
176
     1
290
     0
176
     1
 90
       50
176
     1
 90
       50
176
     1
 90
       50
176
     1
290
     0
176
     1
 90
       50
176
     1
 62
   256
176
     0
 40
1.0
176
     0
 90
        2
176
     1
  1
strokes_ogs.tif
176
     1
290
     0
176
     1
 40
1.0
176
     1
 40
1.0
176
     1
  0
VISUALSTYLE
  5
B7
102
{ACAD_REACTORS
330
16
102
}
330
16
100
AcDbVisualStyle
  2
Dim
 70
    11
177
     3
291
     1
 70
    58
 90
        2
176
     1
 90
        2
176
     1
 90
        0
176
     1
 90
        0
176
     1
 40
0.6
176
     1
 40
30.0
176
     1
 62
     7
420
 16777215
176
     1
 90
        1
176
     1
 90
        4
176
     1
 62
     7
176
     1
 62
   257
176
     1
 90
        1
176
     1
 90
        1
176
     1
 40
1.0
176
     1
 90
        8
176
     1
 62
     7
176
     1
 40
1.0
176
     1
 90
        1
176
     1
 90
        6
176
     1
 90
        2
176
     1
 62
     7
176
     1
 90
        5
176
     1
 90
        0
176
     1
 90
        0
176
     1
290
     0
176
     1
 90
        1
176
     1
 40
-50.0
176
     1
 90
        0
176
     1
290
     0
176
     1
290
     1
176
     1
290
     1
176
     1
290
     0
176
     1
290
     0
176
     1
290
     0
176
     1
290
     0
176
     1
290
     0
176
     1
290
     0
176
     1
 90
       50
176
     1
 40
0.0
176
     1
 40
1.0
176
     1
 90
        0
176
     1
 62
    18
176
     1
 90
       50
176
     1
 90
        3
176
     1
 62
     5
420
      255
176
     1
290
     0
176
     1
 90
       50
176
     1
 90
       50
176
     1
 90
       50
176
     1
290
     0
176
     1
 90
       50
176
     1
 62
   256
176
     0
 40
1.0
176
     0
 90
        2
176
     1
  1
strokes_ogs.tif
176
     1
290
     0
176
     1
 40
1.0
176
     1
 40
1.0
176
     1
  0
VISUALSTYLE
  5
C4
102
{ACAD_REACTORS
330
16
102
}
330
16
100
AcDbVisualStyle
  2
EdgeColorOff
 70
    22
177
     3
291
     1
 70
    58
 90
        2
176
     0
 90
        2
176
     0
 90
        0
176
     0
 90
        0
176
     0
 40
0.6
176
     0
 40
30.0
176
     0
 62
     7
420
 16777215
176
     0
 90
        1
176
     0
 90
        4
176
     0
 62
     7
176
     0
 62
   257
176
     0
 90
        1
176
     0
 90
        1
176
     0
 40
1.0
176
     0
 90
        8
176
     2
 62
     7
176
     0
 40
1.0
176
     0
 90
        1
176
     0
 90
        6
176
     0
 90
        2
176
     0
 62
     7
176
     0
 90
        5
176
     0
 90
        0
176
     0
 90
        0
176
     0
290
     0
176
     0
 90
        1
176
     0
 40
0.0
176
     0
 90
        0
176
     0
290
     0
176
     1
290
     1
176
     1
290
     1
176
     1
290
     0
176
     1
290
     0
176
     1
290
     0
176
     1
290
     0
176
     1
290
     0
176
     1
290
     0
176
     1
 90
       50
176
     0
 40
0.0
176
     0
 40
1.0
176
     0
 90
        0
176
     0
 62
    18
176
     0
 90
       50
176
     0
 90
        3
176
     0
 62
     5
420
      255
176
     0
290
     0
176
     1
 90
       50
176
     0
 90
       50
176
     0
 90
       50
176
     0
290
     0
176
     1
 90
       50
176
     0
 62
   256
176
     0
 40
1.0
176
     0
 90
        2
176
     0
  1
strokes_ogs.tif
176
     0
290
     0
176
     1
 40
1.0
176
     0
 40
1.0
176
     0
  0
VISUALSTYLE
  5
BB
102
{ACAD_REACTORS
330
16
102
}
330
16
100
AcDbVisualStyle
  2
Facepattern
 70
    15
177
     3
291
     1
 70
    58
 90
        2
176
     1
 90
        2
176
     1
 90
        0
176
     1
 90
        0
176
     1
 40
0.6
176
     1
 40
30.0
176
     1
 62
     7
420
 16777215
176
     1
 90
        1
176
     1
 90
        4
176
     1
 62
     7
176
     1
 62
   257
176
     1
 90
        1
176
     1
 90
        1
176
     1
 40
1.0
176
     1
 90
        8
176
     1
 62
     7
176
     1
 40
1.0
176
     1
 90
        1
176
     1
 90
        6
176
     1
 90
        2
176
     1
 62
     7
176
     1
 90
        5
176
     1
 90
        0
176
     1
 90
        0
176
     1
290
     0
176
     1
 90
        1
176
     1
 40
0.0
176
     1
 90
        0
176
     1
290
     0
176
     1
290
     1
176
     1
290
     1
176
     1
290
     0
176
     1
290
     0
176
     1
290
     0
176
     1
290
     0
176
     1
290
     0
176
     1
290
     0
176
     1
 90
       50
176
     1
 40
0.0
176
     1
 40
1.0
176
     1
 90
        0
176
     1
 62
    18
176
     1
 90
       50
176
     1
 90
        3
176
     1
 62
     5
420
      255
176
     1
290
     0
176
     1
 90
       50
176
     1
 90
       50
176
     1
 90
       50
176
     1
290
     0
176
     1
 90
       50
176
     1
 62
   256
176
     0
 40
1.0
176
     0
 90
        2
176
     1
  1
strokes_ogs.tif
176
     1
290
     0
176
     1
 40
1.0
176
     1
 40
1.0
176
     1
  0
VISUALSTYLE
  5
AD
102
{ACAD_REACTORS
330
16
102
}
330
16
100
AcDbVisualStyle
  2
Flat
 70
     0
177
     3
291
     1
 70
    58
 90
        2
176
     1
 90
        1
176
     1
 90
        1
176
     1
 90
        2
176
     1
 40
0.6
176
     1
 40
30.0
176
     1
 62
     7
420
 16777215
176
     1
 90
        0
176
     1
 90
        0
176
     1
 62
     7
176
     1
 62
   257
176
     1
 90
        1
176
     1
 90
        1
176
     1
 40
1.0
176
     1
 90
        8
176
     1
 62
     7
176
     1
 40
1.0
176
     1
 90
        1
176
     1
 90
        6
176
     1
 90
        2
176
     1
 62
     7
176
     1
 90
        5
176
     1
 90
        0
176
     1
 90
        0
176
     1
290
     0
176
     1
 90
       13
176
     1
 40
0.0
176
     1
 90
        0
176
     1
290
     0
176
     1
290
     1
176
     1
290
     1
176
     1
290
     0
176
     1
290
     0
176
     1
290
     0
176
     1
290
     0
176
     1
290
     0
176
     1
290
     0
176
     1
 90
       50
176
     1
 40
0.0
176
     1
 40
1.0
176
     1
 90
        0
176
     1
 62
    18
176
     1
 90
       50
176
     1
 90
        3
176
     1
 62
     5
420
      255
176
     1
290
     0
176
     1
 90
       50
176
     1
 90
       50
176
     1
 90
       50
176
     1
290
     0
176
     1
 90
       50
176
     1
 62
   256
176
     0
 40
1.0
176
     0
 90
        2
176
     1
  1
strokes_ogs.tif
176
     1
290
     0
176
     1
 40
1.0
176
     1
 40
1.0
176
     1
  0
VISUALSTYLE
  5
AE
102
{ACAD_REACTORS
330
16
102
}
330
16
100
AcDbVisualStyle
  2
FlatWithEdges
 70
     1
177
     3
291
     1
 70
    58
 90
        2
176
     1
 90
        1
176
     1
 90
        1
176
     1
 90
        2
176
     1
 40
0.6
176
     1
 40
30.0
176
     1
 62
     7
420
 16777215
176
     1
 90
        1
176
     1
 90
        0
176
     1
 62
     7
176
     1
 62
   257
176
     1
 90
        1
176
     1
 90
        1
176
     1
 40
1.0
176
     1
 90
        0
176
     1
 62
   257
176
     1
 40
1.0
176
     1
 90
        1
176
     1
 90
        6
176
     1
 90
        2
176
     1
 62
     7
176
     1
 90
        5
176
     1
 90
        0
176
     1
 90
        0
176
     1
290
     0
176
     1
 90
       13
176
     1
 40
0.0
176
     1
 90
        0
176
     1
290
     0
176
     1
290
     1
176
     1
290
     1
176
     1
290
     0
176
     1
290
     0
176
     1
290
     0
176
     1
290
     0
176
     1
290
     0
176
     1
290
     0
176
     1
 90
       50
176
     1
 40
0.0
176
     1
 40
1.0
176
     1
 90
        0
176
     1
 62
    18
176
     1
 90
       50
176
     1
 90
        3
176
     1
 62
     5
420
      255
176
     1
290
     0
176
     1
 90
       50
176
     1
 90
       50
176
     1
 90
       50
176
     1
290
     0
176
     1
 90
       50
176
     1
 62
   256
176
     0
 40
1.0
176
     0
 90
        2
176
     1
  1
strokes_ogs.tif
176
     1
290
     0
176
     1
 40
1.0
176
     1
 40
1.0
176
     1
  0
VISUALSTYLE
  5
AF
102
{ACAD_REACTORS
330
16
102
}
330
16
100
AcDbVisualStyle
  2
Gouraud
 70
     2
177
     3
291
     1
 70
    58
 90
        2
176
     1
 90
        2
176
     1
 90
        1
176
     1
 90
        2
176
     1
 40
0.6
176
     1
 40
30.0
176
     1
 62
     7
420
 16777215
176
     1
 90
        0
176
     1
 90
        0
176
     1
 62
     7
176
     1
 62
   257
176
     1
 90
        1
176
     1
 90
        1
176
     1
 40
1.0
176
     1
 90
        0
176
     1
 62
     7
176
     1
 40
1.0
176
     1
 90
        1
176
     1
 90
        6
176
     1
 90
        2
176
     1
 62
     7
176
     1
 90
        5
176
     1
 90
        0
176
     1
 90
        0
176
     1
290
     0
176
     1
 90
       13
176
     1
 40
0.0
176
     1
 90
        0
176
     1
290
     0
176
     1
290
     1
176
     1
290
     1
176
     1
290
     0
176
     1
290
     0
176
     1
290
     0
176
     1
290
     0
176
     1
290
     0
176
     1
290
     0
176
     1
 90
       50
176
     1
 40
0.0
176
     1
 40
1.0
176
     1
 90
        0
176
     1
 62
    18
176
     1
 90
       50
176
     1
 90
        3
176
     1
 62
     5
420
      255
176
     1
290
     0
176
     1
 90
       50
176
     1
 90
       50
176
     1
 90
       50
176
     1
290
     0
176
     1
 90
       50
176
     1
 62
   256
176
     0
 40
1.0
176
     0
 90
        2
176
     1
  1
strokes_ogs.tif
176
     1
290
     0
176
     1
 40
1.0
176
     1
 40
1.0
176
     1
  0
VISUALSTYLE
  5
B0
102
{ACAD_REACTORS
330
16
102
}
330
16
100
AcDbVisualStyle
  2
GouraudWithEdges
 70
     3
177
     3
291
     1
 70
    58
 90
        2
176
     1
 90
        2
176
     1
 90
        1
176
     1
 90
        2
176
     1
 40
0.6
176
     1
 40
30.0
176
     1
 62
     7
420
 16777215
176
     1
 90
        1
176
     1
 90
        0
176
     1
 62
     7
176
     1
 62
   257
176
     1
 90
        1
176
     1
 90
        1
176
     1
 40
1.0
176
     1
 90
        0
176
     1
 62
   257
176
     1
 40
1.0
176
     1
 90
        1
176
     1
 90
        6
176
     1
 90
        2
176
     1
 62
     7
176
     1
 90
        5
176
     1
 90
        0
176
     1
 90
        0
176
     1
290
     0
176
     1
 90
       13
176
     1
 40
0.0
176
     1
 90
        0
176
     1
290
     0
176
     1
290
     1
176
     1
290
     1
176
     1
290
     0
176
     1
290
     0
176
     1
290
     0
176
     1
290
     0
176
     1
290
     0
176
     1
290
     0
176
     1
 90
       50
176
     1
 40
0.0
176
     1
 40
1.0
176
     1
 90
        0
176
     1
 62
    18
176
     1
 90
       50
176
     1
 90
        3
176
     1
 62
     5
420
      255
176
     1
290
     0
176
     1
 90
       50
176
     1
 90
       50
176
     1
 90
       50
176
     1
290
     0
176
     1
 90
       50
176
     1
 62
   256
176
     0
 40
1.0
176
     0
 90
        2
176
     1
  1
strokes_ogs.tif
176
     1
290
     0
176
     1
 40
1.0
176
     1
 40
1.0
176
     1
  0
VISUALSTYLE
  5
B4
102
{ACAD_REACTORS
330
16
102
}
330
16
100
AcDbVisualStyle
  2
Hidden
 70
     6
177
     3
291
     0
 70
    58
 90
        1
176
     1
 90
        2
176
     1
 90
        2
176
     1
 90
        0
176
     1
 40
0.6
176
     1
 40
30.0
176
     1
 62
     7
420
 16777215
176
     1
 90
        2
176
     1
 90
        2
176
     1
 62
     7
176
     1
 62
   257
176
     1
 90
        2
176
     1
 90
        1
176
     1
 40
40.0
176
     1
 90
        0
176
     1
 62
   257
176
     1
 40
1.0
176
     1
 90
        1
176
     1
 90
        6
176
     1
 90
        2
176
     1
 62
     7
176
     1
 90
        3
176
     1
 90
        0
176
     1
 90
        0
176
     1
290
     0
176
     1
 90
        1
176
     1
 40
0.0
176
     1
 90
        0
176
     1
290
     0
176
     1
290
     1
176
     1
290
     1
176
     1
290
     0
176
     1
290
     0
176
     1
290
     0
176
     1
290
     0
176
     1
290
     0
176
     1
290
     0
176
     1
 90
       50
176
     1
 40
0.0
176
     1
 40
1.0
176
     1
 90
        0
176
     1
 62
    18
176
     1
 90
       50
176
     1
 90
        3
176
     1
 62
     5
420
      255
176
     1
290
     0
176
     1
 90
       50
176
     1
 90
       50
176
     1
 90
       50
176
     1
290
     0
176
     1
 90
       50
176
     1
 62
   256
176
     0
 40
1.0
176
     0
 90
        2
176
     1
  1
strokes_ogs.tif
176
     1
290
     0
176
     1
 40
1.0
176
     1
 40
1.0
176
     1
  0
VISUALSTYLE
  5
C2
102
{ACAD_REACTORS
330
16
102
}
330
16
100
AcDbVisualStyle
  2
JitterOff
 70
    20
177
     3
291
     1
 70
    58
 90
        2
176
     0
 90
        2
176
     0
 90
        0
176
     0
 90
        0
176
     0
 40
0.6
176
     0
 40
30.0
176
     0
 62
     7
420
 16777215
176
     0
 90
        1
176
     0
 90
        4
176
     0
 62
     7
176
     0
 62
   257
176
     0
 90
        1
176
     0
 90
        1
176
     0
 40
1.0
176
     0
 90
       10
176
     2
 62
     7
176
     0
 40
1.0
176
     0
 90
        1
176
     0
 90
        6
176
     0
 90
        2
176
     0
 62
     7
176
     0
 90
        5
176
     0
 90
        0
176
     0
 90
        0
176
     0
290
     0
176
     0
 90
        1
176
     0
 40
0.0
176
     0
 90
        0
176
     0
290
     0
176
     1
290
     1
176
     1
290
     1
176
     1
290
     0
176
     1
290
     0
176
     1
290
     0
176
     1
290
     0
176
     1
290
     0
176
     1
290
     0
176
     1
 90
       50
176
     0
 40
0.0
176
     0
 40
1.0
176
     0
 90
        0
176
     0
 62
    18
176
     0
 90
       50
176
     0
 90
        3
176
     0
 62
     5
420
      255
176
     0
290
     0
176
     1
 90
       50
176
     0
 90
       50
176
     0
 90
       50
176
     0
290
     0
176
     1
 90
       50
176
     0
 62
   256
176
     0
 40
1.0
176
     0
 90
        2
176
     0
  1
strokes_ogs.tif
176
     0
290
     0
176
     1
 40
1.0
176
     0
 40
1.0
176
     0
  0
VISUALSTYLE
  5
BA
102
{ACAD_REACTORS
330
16
102
}
330
16
100
AcDbVisualStyle
  2
Linepattern
 70
    14
177
     3
291
     1
 70
    58
 90
        2
176
     1
 90
        2
176
     1
 90
        0
176
     1
 90
        0
176
     1
 40
0.6
176
     1
 40
30.0
176
     1
 62
     7
420
 16777215
176
     1
 90
        1
176
     1
 90
        4
176
     1
 62
     7
176
     1
 62
   257
176
     1
 90
        7
176
     1
 90
        7
176
     1
 40
1.0
176
     1
 90
        8
176
     1
 62
     7
176
     1
 40
1.0
176
     1
 90
        1
176
     1
 90
        6
176
     1
 90
        2
176
     1
 62
     7
176
     1
 90
        5
176
     1
 90
        0
176
     1
 90
        0
176
     1
290
     0
176
     1
 90
        1
176
     1
 40
0.0
176
     1
 90
        0
176
     1
290
     0
176
     1
290
     1
176
     1
290
     1
176
     1
290
     0
176
     1
290
     0
176
     1
290
     0
176
     1
290
     0
176
     1
290
     0
176
     1
290
     0
176
     1
 90
       50
176
     1
 40
0.0
176
     1
 40
1.0
176
     1
 90
        0
176
     1
 62
    18
176
     1
 90
       50
176
     1
 90
        3
176
     1
 62
     5
420
      255
176
     1
290
     0
176
     1
 90
       50
176
     1
 90
       50
176
     1
 90
       50
176
     1
290
     0
176
     1
 90
       50
176
     1
 62
   256
176
     0
 40
1.0
176
     0
 90
        2
176
     1
  1
strokes_ogs.tif
176
     1
290
     0
176
     1
 40
1.0
176
     1
 40
1.0
176
     1
  0
VISUALSTYLE
  5
C3
102
{ACAD_REACTORS
330
16
102
}
330
16
100
AcDbVisualStyle
  2
OverhangOff
 70
    21
177
     3
291
     1
 70
    58
 90
        2
176
     0
 90
        2
176
     0
 90
        0
176
     0
 90
        0
176
     0
 40
0.6
176
     0
 40
30.0
176
     0
 62
     7
420
 16777215
176
     0
 90
        1
176
     0
 90
        4
176
     0
 62
     7
176
     0
 62
   257
176
     0
 90
        1
176
     0
 90
        1
176
     0
 40
1.0
176
     0
 90
        9
176
     2
 62
     7
176
     0
 40
1.0
176
     0
 90
        1
176
     0
 90
        6
176
     0
 90
        2
176
     0
 62
     7
176
     0
 90
        5
176
     0
 90
        0
176
     0
 90
        0
176
     0
290
     0
176
     0
 90
        1
176
     0
 40
0.0
176
     0
 90
        0
176
     0
290
     0
176
     1
290
     1
176
     1
290
     1
176
     1
290
     0
176
     1
290
     0
176
     1
290
     0
176
     1
290
     0
176
     1
290
     0
176
     1
290
     0
176
     1
 90
       50
176
     0
 40
0.0
176
     0
 40
1.0
176
     0
 90
        0
176
     0
 62
    18
176
     0
 90
       50
176
     0
 90
        3
176
     0
 62
     5
420
      255
176
     0
290
     0
176
     1
 90
       50
176
     0
 90
       50
176
     0
 90
       50
176
     0
290
     0
176
     1
 90
       50
176
     0
 62
   256
176
     0
 40
1.0
176
     0
 90
        2
176
     0
  1
strokes_ogs.tif
176
     0
290
     0
176
     1
 40
1.0
176
     0
 40
1.0
176
     0
  0
VISUALSTYLE
  5
B6
102
{ACAD_REACTORS
330
16
102
}
330
16
100
AcDbVisualStyle
  2
Realistic
 70
     8
177
     3
291
     0
 70
    58
 90
        2
176
     1
 90
        3
176
     1
 90
        0
176
     1
 90
        2
176
     1
 40
0.6
176
     1
 40
30.0
176
     1
 62
     7
420
 16777215
176
     1
 90
        0
176
     1
 90
        0
176
     1
 62
     7
176
     1
 62
   257
176
     1
 90
        1
176
     1
 90
        1
176
     1
 40
1.0
176
     1
 90
        8
176
     1
 62
   257
176
     1
 40
1.0
176
     1
 90
        1
176
     1
 90
        6
176
     1
 90
        2
176
     1
 62
     7
176
     1
 90
        3
176
     1
 90
        0
176
     1
 90
        0
176
     1
290
     0
176
     1
 90
       13
176
     1
 40
0.0
176
     1
 90
        0
176
     1
290
     0
176
     1
290
     1
176
     1
290
     1
176
     1
290
     0
176
     1
290
     0
176
     1
290
     0
176
     1
290
     0
176
     1
290
     0
176
     1
290
     0
176
     1
 90
       50
176
     1
 40
0.0
176
     1
 40
1.0
176
     1
 90
        0
176
     1
 62
    18
176
     1
 90
       50
176
     1
 90
        3
176
     1
 62
     5
420
      255
176
     1
290
     0
176
     1
 90
       50
176
     1
 90
       50
176
     1
 90
       50
176
     1
290
     0
176
     1
 90
       50
176
     1
 62
   256
176
     0
 40
1.0
176
     0
 90
        2
176
     1
  1
strokes_ogs.tif
176
     1
290
     0
176
     1
 40
1.0
176
     1
 40
1.0
176
     1
  0
VISUALSTYLE
  5
C1
102
{ACAD_REACTORS
330
16
102
}
330
16
100
AcDbVisualStyle
  2
Shaded
 70
    27
177
     3
291
     0
 70
    58
 90
        2
176
     1
 90
        2
176
     1
 90
        1
176
     1
 90
        2
176
     1
 40
0.6
176
     1
 40
30.0
176
     1
 62
     7
420
 16777215
176
     1
 90
        0
176
     1
 90
        4
176
     1
 62
     7
176
     1
 62
   257
176
     1
 90
        1
176
     1
 90
        1
176
     1
 40
1.0
176
     1
 90
        8
176
     1
 62
   257
176
     1
 40
1.0
176
     1
 90
        1
176
     1
 90
        6
176
     1
 90
        2
176
     1
 62
     8
420
  7895160
176
     1
 90
        3
176
     1
 90
        0
176
     1
 90
        0
176
     1
290
     0
176
     1
 90
        5
176
     1
 40
0.0
176
     1
 90
        0
176
     1
290
     0
176
     1
290
     1
176
     1
290
     1
176
     1
290
     0
176
     1
290
     0
176
     1
290
     0
176
     1
290
     0
176
     1
290
     0
176
     1
290
     0
176
     1
 90
       50
176
     1
 40
0.0
176
     1
 40
1.0
176
     1
 90
        0
176
     1
 62
    18
176
     1
 90
       50
176
     1
 90
        3
176
     1
 62
     5
420
      255
176
     1
290
     0
176
     1
 90
       50
176
     1
 90
       50
176
     1
 90
       50
176
     1
290
     0
176
     1
 90
       50
176
     1
 62
   256
176
     0
 40
1.0
176
     0
 90
        2
176
     1
  1
strokes_ogs.tif
176
     1
290
     0
176
     1
 40
1.0
176
     1
 40
1.0
176
     1
  0
VISUALSTYLE
  5
C0
102
{ACAD_REACTORS
330
16
102
}
330
16
100
AcDbVisualStyle
  2
Shaded with edges
 70
    26
177
     3
291
     0
 70
    58
 90
        2
176
     1
 90
        2
176
     1
 90
        1
176
     1
 90
        2
176
     1
 40
0.6
176
     1
 40
30.0
176
     1
 62
     7
420
 16777215
176
     1
 90
        1
176
     1
 90
        2
176
     1
 62
     7
176
     1
 62
   257
176
     1
 90
        2
176
     1
 90
        1
176
     1
 40
1.0
176
     1
 90
        8
176
     1
 62
   257
176
     1
 40
1.0
176
     1
 90
        1
176
     1
 90
        6
176
     1
 90
        2
176
     1
 62
     7
176
     1
 90
        3
176
     1
 90
        0
176
     1
 90
        0
176
     1
290
     0
176
     1
 90
        5
176
     1
 40
0.0
176
     1
 90
        0
176
     1
290
     0
176
     1
290
     1
176
     1
290
     1
176
     1
290
     0
176
     1
290
     0
176
     1
290
     0
176
     1
290
     0
176
     1
290
     0
176
     1
290
     0
176
     1
 90
       50
176
     1
 40
0.0
176
     1
 40
1.0
176
     1
 90
        0
176
     1
 62
    18
176
     1
 90
       50
176
     1
 90
        3
176
     1
 62
     5
420
      255
176
     1
290
     0
176
     1
 90
       50
176
     1
 90
       50
176
     1
 90
       50
176
     1
290
     0
176
     1
 90
       50
176
     1
 62
   256
176
     0
 40
1.0
176
     0
 90
        2
176
     1
  1
strokes_ogs.tif
176
     1
290
     0
176
     1
 40
1.0
176
     1
 40
1.0
176
     1
  0
VISUALSTYLE
  5
BD
102
{ACAD_REACTORS
330
16
102
}
330
16
100
AcDbVisualStyle
  2
Shades of Gray
 70
    23
177
     3
291
     0
 70
    58
 90
        2
176
     1
 90
        2
176
     1
 90
        3
176
     1
 90
        0
176
     1
 40
0.6
176
     1
 40
30.0
176
     1
 62
     7
420
 16777215
176
     1
 90
        2
176
     1
 90
        2
176
     1
 62
     7
176
     1
 62
     7
176
     1
 90
        1
176
     1
 90
        1
176
     1
 40
40.0
176
     1
 90
        8
176
     1
 62
     7
176
     1
 40
1.0
176
     1
 90
        1
176
     1
 90
        6
176
     1
 90
        2
176
     1
 62
     7
176
     1
 90
        3
176
     1
 90
        0
176
     1
 90
        0
176
     1
290
     0
176
     1
 90
        1
176
     1
 40
0.0
176
     1
 90
        0
176
     1
290
     0
176
     1
290
     1
176
     1
290
     1
176
     1
290
     0
176
     1
290
     0
176
     1
290
     0
176
     1
290
     0
176
     1
290
     0
176
     1
290
     0
176
     1
 90
       50
176
     1
 40
0.0
176
     1
 40
1.0
176
     1
 90
        0
176
     1
 62
    18
176
     1
 90
       50
176
     1
 90
        3
176
     1
 62
     5
420
      255
176
     1
290
     0
176
     1
 90
       50
176
     1
 90
       50
176
     1
 90
       50
176
     1
290
     0
176
     1
 90
       50
176
     1
 62
   256
176
     0
 40
1.0
176
     0
 90
        2
176
     1
  1
strokes_ogs.tif
176
     1
290
     0
176
     1
 40
1.0
176
     1
 40
1.0
176
     1
  0
VISUALSTYLE
  5
BE
102
{ACAD_REACTORS
330
16
102
}
330
16
100
AcDbVisualStyle
  2
Sketchy
 70
    24
177
     3
291
     0
 70
    58
 90
        1
176
     1
 90
        2
176
     1
 90
        2
176
     1
 90
        0
176
     1
 40
0.6
176
     1
 40
30.0
176
     1
 62
     7
420
 16777215
176
     1
 90
        2
176
     1
 90
        2
176
     1
 62
     7
176
     1
 62
     7
176
     1
 90
        1
176
     1
 90
        1
176
     1
 40
40.0
176
     1
 90
       11
176
     1
 62
     7
176
     1
 40
1.0
176
     1
 90
        1
176
     1
 90
        6
176
     1
 90
        2
176
     1
 62
     7
176
     1
 90
        6
176
     1
 90
        0
176
     1
 90
        0
176
     1
290
     0
176
     1
 90
        1
176
     1
 40
0.0
176
     1
 90
        0
176
     1
290
     0
176
     1
290
     1
176
     1
290
     1
176
     1
290
     0
176
     1
290
     0
176
     1
290
     0
176
     1
290
     0
176
     1
290
     0
176
     1
290
     0
176
     1
 90
       50
176
     1
 40
0.0
176
     1
 40
1.0
176
     1
 90
        0
176
     1
 62
    18
176
     1
 90
       50
176
     1
 90
        3
176
     1
 62
     5
420
      255
176
     1
290
     0
176
     1
 90
       50
176
     1
 90
       50
176
     1
 90
       50
176
     1
290
     0
176
     1
 90
       50
176
     1
 62
   256
176
     0
 40
1.0
176
     0
 90
        2
176
     1
  1
strokes_ogs.tif
176
     1
290
     0
176
     1
 40
1.0
176
     1
 40
1.0
176
     1
  0
VISUALSTYLE
  5
B9
102
{ACAD_REACTORS
330
16
102
}
330
16
100
AcDbVisualStyle
  2
Thicken
 70
    13
177
     3
291
     1
 70
    58
 90
        2
176
     1
 90
        2
176
     1
 90
        0
176
     1
 90
        0
176
     1
 40
0.6
176
     1
 40
30.0
176
     1
 62
     7
420
 16777215
176
     1
 90
        1
176
     1
 90
        4
176
     1
 62
     7
176
     1
 62
   257
176
     1
 90
        1
176
     1
 90
        1
176
     1
 40
1.0
176
     1
 90
       12
176
     1
 62
     7
176
     1
 40
1.0
176
     1
 90
        1
176
     1
 90
        6
176
     1
 90
        2
176
     1
 62
     7
176
     1
 90
        5
176
     1
 90
        0
176
     1
 90
        0
176
     1
290
     0
176
     1
 90
        1
176
     1
 40
0.0
176
     1
 90
        0
176
     1
290
     0
176
     1
290
     1
176
     1
290
     1
176
     1
290
     0
176
     1
290
     0
176
     1
290
     0
176
     1
290
     0
176
     1
290
     0
176
     1
290
     0
176
     1
 90
       50
176
     1
 40
0.0
176
     1
 40
1.0
176
     1
 90
        0
176
     1
 62
    18
176
     1
 90
       50
176
     1
 90
        3
176
     1
 62
     5
420
      255
176
     1
290
     0
176
     1
 90
       50
176
     1
 90
       50
176
     1
 90
       50
176
     1
290
     0
176
     1
 90
       50
176
     1
 62
   256
176
     0
 40
1.0
176
     0
 90
        2
176
     1
  1
strokes_ogs.tif
176
     1
290
     0
176
     1
 40
1.0
176
     1
 40
1.0
176
     1
  0
VISUALSTYLE
  5
B3
102
{ACAD_REACTORS
330
16
102
}
330
16
100
AcDbVisualStyle
  2
Wireframe
 70
     5
177
     3
291
     0
 70
    58
 90
        0
176
     1
 90
        2
176
     1
 90
        0
176
     1
 90
        0
176
     1
 40
0.6
176
     1
 40
30.0
176
     1
 62
     7
420
 16777215
176
     1
 90
        1
176
     1
 90
        4
176
     1
 62
     7
176
     1
 62
   257
176
     1
 90
        1
176
     1
 90
        1
176
     1
 40
1.0
176
     1
 90
        0
176
     1
 62
   257
176
     1
 40
1.0
176
     1
 90
        1
176
     1
 90
        6
176
     1
 90
        2
176
     1
 62
     7
176
     1
 90
        3
176
     1
 90
        0
176
     1
 90
        0
176
     1
290
     0
176
     1
 90
        1
176
     1
 40
0.0
176
     1
 90
        0
176
     1
290
     0
176
     1
290
     1
176
     1
290
     1
176
     1
290
     0
176
     1
290
     0
176
     1
290
     0
176
     1
290
     0
176
     1
290
     0
176
     1
290
     0
176
     1
 90
       50
176
     1
 40
0.0
176
     1
 40
1.0
176
     1
 90
        0
176
     1
 62
    18
176
     1
 90
       50
176
     1
 90
        3
176
     1
 62
     5
420
      255
176
     1
290
     0
176
     1
 90
       50
176
     1
 90
       50
176
     1
 90
       50
176
     1
290
     0
176
     1
 90
       50
176
     1
 62
   256
176
     0
 40
1.0
176
     0
 90
        2
176
     1
  1
strokes_ogs.tif
176
     1
290
     0
176
     1
 40
1.0
176
     1
 40
1.0
176
     1
  0
VISUALSTYLE
  5
BF
102
{ACAD_REACTORS
330
16
102
}
330
16
100
AcDbVisualStyle
  2
X-Ray
 70
    25
177
     3
291
     0
 70
    58
 90
        2
176
     1
 90
        2
176
     1
 90
        1
176
     1
 90
        1
176
     1
 40
0.5
176
     1
 40
30.0
176
     1
 62
     7
420
 16777215
176
     1
 90
        1
176
     1
 90
        0
176
     1
 62
     7
176
     1
 62
   257
176
     1
 90
        1
176
     1
 90
        1
176
     1
 40
1.0
176
     1
 90
        8
176
     1
 62
     7
176
     1
 40
1.0
176
     1
 90
        1
176
     1
 90
        6
176
     1
 90
        2
176
     1
 62
     7
176
     1
 90
        3
176
     1
 90
        0
176
     1
 90
        0
176
     1
290
     0
176
     1
 90
       13
176
     1
 40
0.0
176
     1
 90
        0
176
     1
290
     0
176
     1
290
     1
176
     1
290
     1
176
     1
290
     0
176
     1
290
     0
176
     1
290
     0
176
     1
290
     0
176
     1
290
     0
176
     1
290
     0
176
     1
 90
       50
176
     1
 40
0.0
176
     1
 40
1.0
176
     1
 90
        0
176
     1
 62
    18
176
     1
 90
       50
176
     1
 90
        3
176
     1
 62
     5
420
      255
176
     1
290
     0
176
     1
 90
       50
176
     1
 90
       50
176
     1
 90
       50
176
     1
290
     0
176
     1
 90
       50
176
     1
 62
   256
176
     0
 40
1.0
176
     0
 90
        2
176
     1
  1
strokes_ogs.tif
176
     1
290
     0
176
     1
 40
1.0
176
     1
 40
1.0
176
     1
  0
DICTIONARYVAR
  5
1EE
102
{ACAD_REACTORS
330
DE
102
}
330
DE
100
DictionaryVariables
280
     0
  1
1:1
  0
DICTIONARYVAR
  5
1EB
102
{ACAD_REACTORS
330
DE
102
}
330
DE
100
DictionaryVariables
280
     0
  1
STANDARD
  0
DICTIONARYVAR
  5
1EA
102
{ACAD_REACTORS
330
DE
102
}
330
DE
100
DictionaryVariables
280
     0
  1
STANDARD
  0
DICTIONARYVAR
  5
1EC
102
{ACAD_REACTORS
330
DE
102
}
330
DE
100
DictionaryVariables
280
     0
  1
Metric50
  0
DICTIONARYVAR
  5
1ED
102
{ACAD_REACTORS
330
DE
102
}
330
DE
100
DictionaryVariables
280
     0
  1
Metric50
  0
DICTIONARYVAR
  5
2E
330
2D
100
DictionaryVariables
280
     0
  1
1.1.3 @ 2024-05-16T12:37:28.057408+00:00
  0
DICTIONARYVAR
  5
A4
330
2D
100
DictionaryVariables
280
     0
  1
1.1.3 @ 2024-05-16T12:37:28.068347+00:00
  0
DICTIONARY
  5
1EF
330
C5
100
AcDbDictionary
280
     1
281
     1
  3
ACAD_ROUNDTRIP_2008_TABLESTYLE_CELLSTYLEMAP
360
1F7
  0
CELLSTYLEMAP
  5
1F7
102
{ACAD_REACTORS
330
1EF
102
}
330
1EF
100
AcDbCellStyleMap
 90
        3
300
CELLSTYLE
  1
TABLEFORMAT_BEGIN
 90
        5
170
     1
 91
        0
 92
    32768
 62
   257
 93
        1
300
CONTENTFORMAT
  1
CONTENTFORMAT_BEGIN
 90
        0
 91
        0
 92
      512
 93
        0
300

 40
0.0
140
1.0
 94
        5
 62
     0
340
29
144
6.0
309
CONTENTFORMAT_END
171
     1
301
MARGIN
  1
CELLMARGIN_BEGIN
 40
1.5
 40
1.5
 40
1.5
 40
1.5
 40
0.18
 40
0.18
309
CELLMARGIN_END
 94
        6
 95
        1
302
GRIDFORMAT
  1
GRIDFORMAT_BEGIN
 90
        0
 91
        1
 62
     0
 92
       -2
340
0
 93
        0
 40
1.125
309
GRIDFORMAT_END
 95
        2
302
GRIDFORMAT
  1
GRIDFORMAT_BEGIN
 90
        0
 91
        1
 62
     0
 92
       -2
340
0
 93
        0
 40
1.125
309
GRIDFORMAT_END
 95
        4
302
GRIDFORMAT
  1
GRIDFORMAT_BEGIN
 90
        0
 91
        1
 62
     0
 92
       -2
340
0
 93
        0
 40
1.125
309
GRIDFORMAT_END
 95
        8
302
GRIDFORMAT
  1
GRIDFORMAT_BEGIN
 90
        0
 91
        1
 62
     0
 92
       -2
340
0
 93
        0
 40
1.125
309
GRIDFORMAT_END
 95
       16
302
GRIDFORMAT
  1
GRIDFORMAT_BEGIN
 90
        0
 91
        1
 62
     0
 92
       -2
340
0
 93
        0
 40
1.125
309
GRIDFORMAT_END
 95
       32
302
GRIDFORMAT
  1
GRIDFORMAT_BEGIN
 90
        0
 91
        1
 62
     0
 92
       -2
340
0
 93
        0
 40
1.125
309
GRIDFORMAT_END
309
TABLEFORMAT_END
  1
CELLSTYLE_BEGIN
 90
        1
 91
        1
300
_TITLE
309
CELLSTYLE_END
300
CELLSTYLE
  1
TABLEFORMAT_BEGIN
 90
        5
170
     1
 91
        0
 92
        0
 62
   257
 93
        1
300
CONTENTFORMAT
  1
CONTENTFORMAT_BEGIN
 90
        0
 91
        0
 92
      512
 93
        0
300

 40
0.0
140
1.0
 94
        5
 62
     0
340
29
144
4.5
309
CONTENTFORMAT_END
171
     1
301
MARGIN
  1
CELLMARGIN_BEGIN
 40
1.5
 40
1.5
 40
1.5
 40
1.5
 40
0.18
 40
0.18
309
CELLMARGIN_END
 94
        6
 95
        1
302
GRIDFORMAT
  1
GRIDFORMAT_BEGIN
 90
        0
 91
        1
 62
     0
 92
       -2
340
0
 93
        0
 40
1.125
309
GRIDFORMAT_END
 95
        2
302
GRIDFORMAT
  1
GRIDFORMAT_BEGIN
 90
        0
 91
        1
 62
     0
 92
       -2
340
0
 93
        0
 40
1.125
309
GRIDFORMAT_END
 95
        4
302
GRIDFORMAT
  1
GRIDFORMAT_BEGIN
 90
        0
 91
        1
 62
     0
 92
       -2
340
0
 93
        0
 40
1.125
309
GRIDFORMAT_END
 95
        8
302
GRIDFORMAT
  1
GRIDFORMAT_BEGIN
 90
        0
 91
        1
 62
     0
 92
       -2
340
0
 93
        0
 40
1.125
309
GRIDFORMAT_END
 95
       16
302
GRIDFORMAT
  1
GRIDFORMAT_BEGIN
 90
        0
 91
        1
 62
     0
 92
       -2
340
0
 93
        0
 40
1.125
309
GRIDFORMAT_END
 95
       32
302
GRIDFORMAT
  1
GRIDFORMAT_BEGIN
 90
        0
 91
        1
 62
     0
 92
       -2
340
0
 93
        0
 40
1.125
309
GRIDFORMAT_END
309
TABLEFORMAT_END
  1
CELLSTYLE_BEGIN
 90
        2
 91
        1
300
_HEADER
309
CELLSTYLE_END
300
CELLSTYLE
  1
TABLEFORMAT_BEGIN
 90
        5
170
     1
 91
        0
 92
        0
 62
   257
 93
        1
300
CONTENTFORMAT
  1
CONTENTFORMAT_BEGIN
 90
        0
 91
        0
 92
      512
 93
        0
300

 40
0.0
140
1.0
 94
        2
 62
     0
340
29
144
4.5
309
CONTENTFORMAT_END
171
     1
301
MARGIN
  1
CELLMARGIN_BEGIN
 40
1.5
 40
1.5
 40
1.5
 40
1.5
 40
0.18
 40
0.18
309
CELLMARGIN_END
 94
        6
 95
        1
302
GRIDFORMAT
  1
GRIDFORMAT_BEGIN
 90
        0
 91
        1
 62
     0
 92
       -2
340
0
 93
        0
 40
1.125
309
GRIDFORMAT_END
 95
        2
302
GRIDFORMAT
  1
GRIDFORMAT_BEGIN
 90
        0
 91
        1
 62
     0
 92
       -2
340
0
 93
        0
 40
1.125
309
GRIDFORMAT_END
 95
        4
302
GRIDFORMAT
  1
GRIDFORMAT_BEGIN
 90
        0
 91
        1
 62
     0
 92
       -2
340
0
 93
        0
 40
1.125
309
GRIDFORMAT_END
 95
        8
302
GRIDFORMAT
  1
GRIDFORMAT_BEGIN
 90
        0
 91
        1
 62
     0
 92
       -2
340
0
 93
        0
 40
1.125
309
GRIDFORMAT_END
 95
       16
302
GRIDFORMAT
  1
GRIDFORMAT_BEGIN
 90
        0
 91
        1
 62
     0
 92
       -2
340
0
 93
        0
 40
1.125
309
GRIDFORMAT_END
 95
       32
302
GRIDFORMAT
  1
GRIDFORMAT_BEGIN
 90
        0
 91
        1
 62
     0
 92
       -2
340
0
 93
        0
 40
1.125
309
GRIDFORMAT_END
309
TABLEFORMAT_END
  1
CELLSTYLE_BEGIN
 90
        3
 91
        2
300
_DATA
309
CELLSTYLE_END
  0
ENDSEC
  0
EOF
