  0
SECTION
  2
HEADER
  9
$ACADVER
  1
AC1024
  9
$ACADMAINTVER
 70
6
  9
$DWGCODEPAGE
  3
ANSI_1252
  9
$LASTSAVEDBY
  1
ezdxf
  9
$INSBASE
 10
0.0
 20
0.0
 30
0.0
  9
$EXTMIN
 10
1e+20
 20
1e+20
 30
1e+20
  9
$EXTMAX
 10
-1e+20
 20
-1e+20
 30
-1e+20
  9
$LIMMIN
 10
0.0
 20
0.0
  9
$LIMMAX
 10
420.0
 20
297.0
  9
$ORTHOMODE
 70
0
  9
$REGENMODE
 70
1
  9
$FILLMODE
 70
1
  9
$QTEXTMODE
 70
0
  9
$MIRRTEXT
 70
1
  9
$LTSCALE
 40
1.0
  9
$ATTMODE
 70
1
  9
$TEXTSIZE
 40
2.5
  9
$TRACEWID
 40
1.0
  9
$TEXTSTYLE
  7
Standard
  9
$CLAYER
  8
0
  9
$CELTYPE
  6
ByLayer
  9
$CECOLOR
 62
256
  9
$CELTSCALE
 40
1.0
  9
$DISPSILH
 70
0
  9
$DIMSCALE
 40
1.0
  9
$DIMASZ
 40
2.5
  9
$DIMEXO
 40
0.625
  9
$DIMDLI
 40
3.75
  9
$DIMRND
 40
0.0
  9
$DIMDLE
 40
0.0
  9
$DIMEXE
 40
1.25
  9
$DIMTP
 40
0.0
  9
$DIMTM
 40
0.0
  9
$DIMTXT
 40
2.5
  9
$DIMCEN
 40
2.5
  9
$DIMTSZ
 40
0.0
  9
$DIMTOL
 70
0
  9
$DIMLIM
 70
0
  9
$DIMTIH
 70
0
  9
$DIMTOH
 70
0
  9
$DIMSE1
 70
0
  9
$DIMSE2
 70
0
  9
$DIMTAD
 70
1
  9
$DIMZIN
 70
8
  9
$DIMBLK
  1

  9
$DIMASO
 70
1
  9
$DIMSHO
 70
1
  9
$DIMPOST
  1

  9
$DIMAPOST
  1

  9
$DIMALT
 70
0
  9
$DIMALTD
 70
3
  9
$DIMALTF
 40
0.03937007874
  9
$DIMLFAC
 40
1.0
  9
$DIMTOFL
 70
1
  9
$DIMTVP
 40
0.0
  9
$DIMTIX
 70
0
  9
$DIMSOXD
 70
0
  9
$DIMSAH
 70
0
  9
$DIMBLK1
  1

  9
$DIMBLK2
  1

  9
$DIMSTYLE
  2
ISO-25
  9
$DIMCLRD
 70
0
  9
$DIMCLRE
 70
0
  9
$DIMCLRT
 70
0
  9
$DIMTFAC
 40
1.0
  9
$DIMGAP
 40
0.625
  9
$DIMJUST
 70
0
  9
$DIMSD1
 70
0
  9
$DIMSD2
 70
0
  9
$DIMTOLJ
 70
0
  9
$DIMTZIN
 70
8
  9
$DIMALTZ
 70
0
  9
$DIMALTTZ
 70
0
  9
$DIMUPT
 70
0
  9
$DIMDEC
 70
2
  9
$DIMTDEC
 70
2
  9
$DIMALTU
 70
2
  9
$DIMALTTD
 70
3
  9
$DIMTXSTY
  7
Standard
  9
$DIMAUNIT
 70
0
  9
$DIMADEC
 70
0
  9
$DIMALTRND
 40
0.0
  9
$DIMAZIN
 70
0
  9
$DIMDSEP
 70
44
  9
$DIMATFIT
 70
3
  9
$DIMFRAC
 70
0
  9
$DIMLDRBLK
  1

  9
$DIMLUNIT
 70
2
  9
$DIMLWD
 70
-2
  9
$DIMLWE
 70
-2
  9
$DIMTMOVE
 70
0
  9
$DIMFXL
 40
1.0
  9
$DIMFXLON
 70
0
  9
$DIMJOGANG
 40
0.785398163397
  9
$DIMTFILL
 70
0
  9
$DIMTFILLCLR
 70
0
  9
$DIMARCSYM
 70
0
  9
$DIMLTYPE
  6

  9
$DIMLTEX1
  6

  9
$DIMLTEX2
  6

  9
$DIMTXTDIRECTION
 70
0
  9
$LUNITS
 70
2
  9
$LUPREC
 70
4
  9
$SKETCHINC
 40
1.0
  9
$FILLETRAD
 40
10.0
  9
$AUNITS
 70
0
  9
$AUPREC
 70
2
  9
$MENU
  1
.
  9
$ELEVATION
 40
0.0
  9
$PELEVATION
 40
0.0
  9
$THICKNESS
 40
0.0
  9
$LIMCHECK
 70
0
  9
$CHAMFERA
 40
0.0
  9
$CHAMFERB
 40
0.0
  9
$CHAMFERC
 40
0.0
  9
$CHAMFERD
 40
0.0
  9
$SKPOLY
 70
0
  9
$TDCREATE
 40
2460440.539386574
  9
$TDUCREATE
 40
2458532.153996898
  9
$TDUPDATE
 40
2460440.539386574
  9
$TDUUPDATE
 40
2458532.1544311
  9
$TDINDWG
 40
0.0
  9
$TDUSRTIMER
 40
0.0
  9
$USRTIMER
 70
1
  9
$ANGBASE
 50
0.0
  9
$ANGDIR
 70
0
  9
$PDMODE
 70
0
  9
$PDSIZE
 40
0.0
  9
$PLINEWID
 40
0.0
  9
$SPLFRAME
 70
0
  9
$SPLINETYPE
 70
6
  9
$SPLINESEGS
 70
8
  9
$HANDSEED
  5
6C
  9
$SURFTAB1
 70
6
  9
$SURFTAB2
 70
6
  9
$SURFTYPE
 70
6
  9
$SURFU
 70
6
  9
$SURFV
 70
6
  9
$UCSBASE
  2

  9
$UCSNAME
  2

  9
$UCSORG
 10
0.0
 20
0.0
 30
0.0
  9
$UCSXDIR
 10
1.0
 20
0.0
 30
0.0
  9
$UCSYDIR
 10
0.0
 20
1.0
 30
0.0
  9
$UCSORTHOREF
  2

  9
$UCSORTHOVIEW
 70
0
  9
$UCSORGTOP
 10
0.0
 20
0.0
 30
0.0
  9
$UCSORGBOTTOM
 10
0.0
 20
0.0
 30
0.0
  9
$UCSORGLEFT
 10
0.0
 20
0.0
 30
0.0
  9
$UCSORGRIGHT
 10
0.0
 20
0.0
 30
0.0
  9
$UCSORGFRONT
 10
0.0
 20
0.0
 30
0.0
  9
$UCSORGBACK
 10
0.0
 20
0.0
 30
0.0
  9
$PUCSBASE
  2

  9
$PUCSNAME
  2

  9
$PUCSORG
 10
0.0
 20
0.0
 30
0.0
  9
$PUCSXDIR
 10
1.0
 20
0.0
 30
0.0
  9
$PUCSYDIR
 10
0.0
 20
1.0
 30
0.0
  9
$PUCSORTHOREF
  2

  9
$PUCSORTHOVIEW
 70
0
  9
$PUCSORGTOP
 10
0.0
 20
0.0
 30
0.0
  9
$PUCSORGBOTTOM
 10
0.0
 20
0.0
 30
0.0
  9
$PUCSORGLEFT
 10
0.0
 20
0.0
 30
0.0
  9
$PUCSORGRIGHT
 10
0.0
 20
0.0
 30
0.0
  9
$PUCSORGFRONT
 10
0.0
 20
0.0
 30
0.0
  9
$PUCSORGBACK
 10
0.0
 20
0.0
 30
0.0
  9
$USERI1
 70
0
  9
$USERI2
 70
0
  9
$USERI3
 70
0
  9
$USERI4
 70
0
  9
$USERI5
 70
0
  9
$USERR1
 40
0.0
  9
$USERR2
 40
0.0
  9
$USERR3
 40
0.0
  9
$USERR4
 40
0.0
  9
$USERR5
 40
0.0
  9
$WORLDVIEW
 70
1
  9
$SHADEDGE
 70
3
  9
$SHADEDIF
 70
70
  9
$TILEMODE
 70
1
  9
$MAXACTVP
 70
64
  9
$PINSBASE
 10
0.0
 20
0.0
 30
0.0
  9
$PLIMCHECK
 70
0
  9
$PEXTMIN
 10
1e+20
 20
1e+20
 30
1e+20
  9
$PEXTMAX
 10
-1e+20
 20
-1e+20
 30
-1e+20
  9
$PLIMMIN
 10
0.0
 20
0.0
  9
$PLIMMAX
 10
420.0
 20
297.0
  9
$UNITMODE
 70
0
  9
$VISRETAIN
 70
1
  9
$PLINEGEN
 70
0
  9
$PSLTSCALE
 70
1
  9
$TREEDEPTH
 70
3020
  9
$CMLSTYLE
  2
Standard
  9
$CMLJUST
 70
0
  9
$CMLSCALE
 40
20.0
  9
$PROXYGRAPHICS
 70
1
  9
$MEASUREMENT
 70
1
  9
$CELWEIGHT
370
-1
  9
$ENDCAPS
280
0
  9
$JOINSTYLE
280
0
  9
$LWDISPLAY
290
0
  9
$INSUNITS
 70
6
  9
$HYPERLINKBASE
  1

  9
$STYLESHEET
  1

  9
$XEDIT
290
1
  9
$CEPSNTYPE
380
0
  9
$PSTYLEMODE
290
1
  9
$FINGERPRINTGUID
  2
{DBDC629E-E4C6-447B-BE2E-22E79F6E8966}
  9
$VERSIONGUID
  2
{95832DDA-EBCD-46BC-A1EF-676923DB0C24}
  9
$EXTNAMES
290
1
  9
$PSVPSCALE
 40
0.0
  9
$OLESTARTUP
290
0
  9
$SORTENTS
280
127
  9
$INDEXCTL
280
0
  9
$HIDETEXT
280
1
  9
$XCLIPFRAME
280
0
  9
$HALOGAP
280
0
  9
$OBSCOLOR
 70
257
  9
$OBSLTYPE
280
0
  9
$INTERSECTIONDISPLAY
280
0
  9
$INTERSECTIONCOLOR
 70
257
  9
$DIMASSOC
280
2
  9
$PROJECTNAME
  1

  9
$CAMERADISPLAY
290
0
  9
$LENSLENGTH
 40
50.0
  9
$CAMERAHEIGHT
 40
0.0
  9
$STEPSPERSEC
 40
24.0
  9
$STEPSIZE
 40
100.0
  9
$3DDWFPREC
 40
2.0
  9
$PSOLWIDTH
 40
0.005
  9
$PSOLHEIGHT
 40
0.08
  9
$LOFTANG1
 40
1.570796326795
  9
$LOFTANG2
 40
1.570796326795
  9
$LOFTMAG1
 40
0.0
  9
$LOFTMAG2
 40
0.0
  9
$LOFTPARAM
 70
7
  9
$LOFTNORMALS
280
1
  9
$LATITUDE
 40
37.795
  9
$LONGITUDE
 40
-122.394
  9
$NORTHDIRECTION
 40
0.0
  9
$TIMEZONE
 70
-8000
  9
$LIGHTGLYPHDISPLAY
280
1
  9
$TILEMODELIGHTSYNCH
280
1
  9
$CMATERIAL
347
20
  9
$SOLIDHIST
280
0
  9
$SHOWHIST
280
1
  9
$DWFFRAME
280
2
  9
$DGNFRAME
280
2
  9
$REALWORLDSCALE
290
1
  9
$INTERFERECOLOR
 62
256
  9
$CSHADOW
280
0
  9
$SHADOWPLANELOCATION
 40
0.0
  0
ENDSEC
  0
SECTION
  2
CLASSES
  0
CLASS
  1
ACDBDICTIONARYWDFLT
  2
AcDbDictionaryWithDefault
  3
ObjectDBX Classes
 90
0
 91
0
280
0
281
0
  0
CLASS
  1
SUN
  2
AcDbSun
  3
SCENEOE
 90
1153
 91
0
280
0
281
0
  0
CLASS
  1
VISUALSTYLE
  2
AcDbVisualStyle
  3
ObjectDBX Classes
 90
4095
 91
0
280
0
281
0
  0
CLASS
  1
MATERIAL
  2
AcDbMaterial
  3
ObjectDBX Classes
 90
1153
 91
0
280
0
281
0
  0
CLASS
  1
SCALE
  2
AcDbScale
  3
ObjectDBX Classes
 90
1153
 91
0
280
0
281
0
  0
CLASS
  1
TABLESTYLE
  2
AcDbTableStyle
  3
ObjectDBX Classes
 90
4095
 91
0
280
0
281
0
  0
CLASS
  1
MLEADERSTYLE
  2
AcDbMLeaderStyle
  3
ACDB_MLEADERSTYLE_CLASS
 90
4095
 91
0
280
0
281
0
  0
CLASS
  1
DICTIONARYVAR
  2
AcDbDictionaryVar
  3
ObjectDBX Classes
 90
0
 91
0
280
0
281
0
  0
CLASS
  1
CELLSTYLEMAP
  2
AcDbCellStyleMap
  3
ObjectDBX Classes
 90
1152
 91
0
280
0
281
0
  0
CLASS
  1
MENTALRAYRENDERSETTINGS
  2
AcDbMentalRayRenderSettings
  3
SCENEOE
 90
1024
 91
0
280
0
281
0
  0
CLASS
  1
ACDBDETAILVIEWSTYLE
  2
AcDbDetailViewStyle
  3
ObjectDBX Classes
 90
1025
 91
0
280
0
281
0
  0
CLASS
  1
ACDBSECTIONVIEWSTYLE
  2
AcDbSectionViewStyle
  3
ObjectDBX Classes
 90
1025
 91
0
280
0
281
0
  0
CLASS
  1
RASTERVARIABLES
  2
AcDbRasterVariables
  3
ISM
 90
0
 91
0
280
0
281
0
  0
CLASS
  1
LAYOUT
  2
AcDbLayout
  3
ObjectDBX Classes
 90
0
 91
0
280
0
281
0
  0
CLASS
  1
ACDBPLACEHOLDER
  2
AcDbPlaceHolder
  3
ObjectDBX Classes
 90
0
 91
0
280
0
281
0
  0
ENDSEC
  0
SECTION
  2
TABLES
  0
TABLE
  2
VPORT
  5
8
330
0
100
AcDbSymbolTable
 70
1
  0
VPORT
  5
23
330
8
100
AcDbSymbolTableRecord
100
AcDbViewportTableRecord
  2
*Active
 70
0
 10
0.0
 20
0.0
 11
1.0
 21
1.0
 12
0.0
 22
0.0
 13
0.0
 23
0.0
 14
0.5
 24
0.5
 15
0.5
 25
0.5
 16
0.0
 26
0.0
 36
1.0
 17
0.0
 27
0.0
 37
0.0
 40
1000.0
 41
1.34
 42
50.0
 43
0.0
 44
0.0
 50
0.0
 51
0.0
 71
0
 72
1000
 73
1
 74
3
 75
0
 76
0
 77
0
 78
0
281
0
 65
0
146
0.0
  0
ENDTAB
  0
TABLE
  2
LTYPE
  5
2
330
0
100
AcDbSymbolTable
 70
3
  0
LTYPE
  5
24
330
2
100
AcDbSymbolTableRecord
100
AcDbLinetypeTableRecord
  2
ByBlock
 70
0
  3

 72
65
 73
0
 40
0.0
  0
LTYPE
  5
25
330
2
100
AcDbSymbolTableRecord
100
AcDbLinetypeTableRecord
  2
ByLayer
 70
0
  3

 72
65
 73
0
 40
0.0
  0
LTYPE
  5
26
330
2
100
AcDbSymbolTableRecord
100
AcDbLinetypeTableRecord
  2
Continuous
 70
0
  3

 72
65
 73
0
 40
0.0
  0
ENDTAB
  0
TABLE
  2
LAYER
  5
1
330
0
100
AcDbSymbolTable
 70
12
  0
LAYER
  5
27
330
1
100
AcDbSymbolTableRecord
100
AcDbLayerTableRecord
  2
0
 70
0
 62
7
  6
Continuous
370
-3
390
13
347
21
  0
LAYER
  5
28
330
1
100
AcDbSymbolTableRecord
100
AcDbLayerTableRecord
  2
Defpoints
 70
0
 62
7
  6
Continuous
290
0
370
-3
390
13
347
21
  0
LAYER
  5
2F
330
1
100
AcDbSymbolTableRecord
100
AcDbLayerTableRecord
  2
V236_WW_CUT38_090_ BX1000
 70
0
 62
3
  6
Continuous
370
-3
390
13
347
21
  0
LAYER
  5
31
330
1
100
AcDbSymbolTableRecord
100
AcDbLayerTableRecord
  2
V236_WW_CUT38_092_ UD90_600
 70
0
 62
1
  6
Continuous
370
-3
390
13
347
21
  0
LAYER
  5
33
330
1
100
AcDbSymbolTableRecord
100
AcDbLayerTableRecord
  2
V236_WW_CUT38_094_ BX1000
 70
0
 62
3
  6
Continuous
370
-3
390
13
347
21
  0
LAYER
  5
35
330
1
100
AcDbSymbolTableRecord
100
AcDbLayerTableRecord
  2
V236_WW_CUT38_098_ BX1000
 70
0
 62
3
  6
Continuous
370
-3
390
13
347
21
  0
LAYER
  5
37
330
1
100
AcDbSymbolTableRecord
100
AcDbLayerTableRecord
  2
V236_WW_CUT38_100_ BX1000
 70
0
 62
3
  6
Continuous
370
-3
390
13
347
21
  0
LAYER
  5
39
330
1
100
AcDbSymbolTableRecord
100
AcDbLayerTableRecord
  2
V236_WW_CUT38_102_ BX1000
 70
0
 62
3
  6
Continuous
370
-3
390
13
347
21
  0
LAYER
  5
3B
330
1
100
AcDbSymbolTableRecord
100
AcDbLayerTableRecord
  2
V236_WW_CUT38_116_ BX1000
 70
0
 62
3
  6
Continuous
370
-3
390
13
347
21
  0
LAYER
  5
3D
330
1
100
AcDbSymbolTableRecord
100
AcDbLayerTableRecord
  2
DATUM LINE
 70
0
 62
141
  6
Continuous
370
-3
390
13
347
21
  0
LAYER
  5
40
330
1
100
AcDbSymbolTableRecord
100
AcDbLayerTableRecord
  2
TAGGING
 70
0
 62
7
  6
Continuous
370
-3
390
13
347
21
  0
LAYER
  5
67
330
1
100
AcDbSymbolTableRecord
100
AcDbLayerTableRecord
  2
FRAME
 70
0
 62
30
  6
Continuous
370
-3
390
13
347
21
  0
ENDTAB
  0
TABLE
  2
STYLE
  5
5
330
0
100
AcDbSymbolTable
 70
1
  0
STYLE
  5
29
330
5
100
AcDbSymbolTableRecord
100
AcDbTextStyleTableRecord
  2
Standard
 70
0
 40
0.0
 41
1.0
 50
0.0
 71
0
 42
2.5
  3
txt
  4

  0
ENDTAB
  0
TABLE
  2
VIEW
  5
7
330
0
100
AcDbSymbolTable
 70
0
  0
ENDTAB
  0
TABLE
  2
UCS
  5
6
330
0
100
AcDbSymbolTable
 70
0
  0
ENDTAB
  0
TABLE
  2
APPID
  5
3
330
0
100
AcDbSymbolTable
 70
3
  0
APPID
  5
2A
330
3
100
AcDbSymbolTableRecord
100
AcDbRegAppTableRecord
  2
ACAD
 70
0
  0
APPID
  5
69
330
3
100
AcDbSymbolTableRecord
100
AcDbRegAppTableRecord
  2
HATCHBACKGROUNDCOLOR
 70
0
  0
APPID
  5
6A
330
3
100
AcDbSymbolTableRecord
100
AcDbRegAppTableRecord
  2
EZDXF
 70
0
  0
ENDTAB
  0
TABLE
  2
DIMSTYLE
  5
4
330
0
100
AcDbSymbolTable
 70
1
100
AcDbDimStyleTable
  0
DIMSTYLE
105
2B
330
4
100
AcDbSymbolTableRecord
100
AcDbDimStyleTableRecord
  2
Standard
 70
0
 40
1.0
 41
2.5
 42
0.625
 43
3.75
 44
1.25
 45
0.0
 46
0.0
 47
0.0
 48
0.0
 49
2.5
140
2.5
141
2.5
142
0.0
143
0.03937007874
144
1.0
145
0.0
146
1.0
147
0.625
148
0.0
 69
0
 70
0
 71
0
 72
0
 73
0
 74
0
 75
0
 76
0
 77
1
 78
8
 79
3
170
0
171
3
172
1
173
0
174
0
175
0
176
0
177
0
178
0
179
2
271
2
272
2
273
2
274
3
275
0
276
0
277
2
278
44
279
0
280
0
281
0
282
0
283
0
284
8
285
0
286
0
288
0
289
3
290
0
371
-2
372
-2
  0
ENDTAB
  0
TABLE
  2
BLOCK_RECORD
  5
9
330
0
100
AcDbSymbolTable
 70
2
  0
BLOCK_RECORD
  5
17
330
9
100
AcDbSymbolTableRecord
100
AcDbBlockTableRecord
  2
*Model_Space
340
1A
 70
0
280
1
281
0
  0
BLOCK_RECORD
  5
1B
330
9
100
AcDbSymbolTableRecord
100
AcDbBlockTableRecord
  2
*Paper_Space
340
1E
 70
0
280
1
281
0
  0
ENDTAB
  0
ENDSEC
  0
SECTION
  2
BLOCKS
  0
BLOCK
  5
18
330
17
100
AcDbEntity
  8
0
100
AcDbBlockBegin
  2
*Model_Space
 70
0
 10
0.0
 20
0.0
 30
0.0
  3
*Model_Space
  1

  0
ENDBLK
  5
19
330
17
100
AcDbEntity
  8
0
100
AcDbBlockEnd
  0
BLOCK
  5
1C
330
1B
100
AcDbEntity
  8
0
100
AcDbBlockBegin
  2
*Paper_Space
 70
0
 10
0.0
 20
0.0
 30
0.0
  3
*Paper_Space
  1

  0
ENDBLK
  5
1D
330
1B
100
AcDbEntity
  8
0
100
AcDbBlockEnd
  0
ENDSEC
  0
SECTION
  2
ENTITIES
  0
LWPOLYLINE
  5
30
330
17
100
AcDbEntity
  8
V236_WW_CUT38_090_ BX1000
100
AcDbPolyline
 90
30
 70
0
 10
533.9000000000015
 20
300.0
 10
1029.2999999999993
 20
300.0
 10
1524.7000000000007
 20
300.1000000000058
 10
2020.2000000000007
 20
300.1000000000058
 10
2515.5999999999985
 20
300.1000000000058
 10
3011.0
 20
300.1000000000058
 10
3011.0
 20
300.1000000000058
 10
3011.7000000000007
 20
360.1999999999971
 10
3013.2000000000007
 20
489.90000000000873
 10
3015.7999999999993
 20
681.0
 10
3019.0999999999985
 20
935.0
 10
3022.2000000000007
 20
1189.0
 10
3024.4000000000015
 20
1382.9000000000087
 10
3026.0
 20
1507.199999999997
 10
3027.0
 20
1570.1000000000058
 10
3027.0
 20
1570.1000000000058
 10
2521.5999999999985
 20
1569.9000000000087
 10
2016.2000000000007
 20
1570.4000000000087
 10
1510.7999999999993
 20
1569.4000000000087
 10
1005.4000000000015
 20
1570.5
 10
500.0
 20
1570.0
 10
500.0
 20
1570.0
 10
501.7000000000007
 20
1507.199999999997
 10
506.0
 20
1348.1000000000058
 10
511.09999999999854
 20
1154.300000000003
 10
517.7999999999993
 20
900.3000000000029
 10
524.5
 20
646.3000000000029
 10
529.7000000000007
 20
455.1000000000058
 10
532.2000000000007
 20
360.1999999999971
 10
533.9000000000015
 20
300.0
  0
LWPOLYLINE
  5
32
330
17
100
AcDbEntity
  8
V236_WW_CUT38_092_ UD90_600
100
AcDbPolyline
 90
27
 70
0
 10
760.5
 20
370.0
 10
797.7000000000007
 20
370.1000000000058
 10
881.7999999999993
 20
370.3000000000029
 10
965.7999999999993
 20
370.1000000000058
 10
1049.9000000000015
 20
370.1000000000058
 10
1134.0
 20
370.1000000000058
 10
1180.7999999999993
 20
370.0
 10
1180.7999999999993
 20
370.0
 10
1179.2000000000007
 20
433.90000000000873
 10
1174.2999999999993
 20
623.6000000000058
 10
1167.5
 20
877.6000000000058
 10
1161.0999999999985
 20
1131.6000000000058
 10
1154.2999999999993
 20
1385.6000000000058
 10
1149.7000000000007
 20
1575.800000000003
 10
1148.0999999999985
 20
1640.1000000000058
 10
1148.0999999999985
 20
1640.1000000000058
 10
1064.0
 20
1640.1000000000058
 10
980.0
 20
1640.1000000000058
 10
895.9000000000015
 20
1640.1000000000058
 10
811.9000000000015
 20
1640.1000000000058
 10
727.7999999999993
 20
1640.1000000000058
 10
727.7999999999993
 20
1640.1000000000058
 10
734.0999999999985
 20
1386.0
 10
740.5999999999985
 20
1132.0
 10
747.2000000000007
 20
878.0
 10
753.7999999999993
 20
624.0
 10
760.5
 20
370.0
  0
LWPOLYLINE
  5
34
330
17
100
AcDbEntity
  8
V236_WW_CUT38_094_ BX1000
100
AcDbPolyline
 90
25
 70
0
 10
718.7999999999993
 20
440.0
 10
818.7999999999993
 20
440.0
 10
918.9000000000015
 20
440.1000000000058
 10
1019.0
 20
440.1999999999971
 10
1119.0
 20
440.1000000000058
 10
1219.0999999999985
 20
440.0
 10
1219.0999999999985
 20
440.0
 10
1217.4000000000015
 20
506.8000000000029
 10
1215.0999999999985
 20
595.9000000000087
 10
1212.7999999999993
 20
684.9000000000087
 10
1210.5999999999985
 20
774.0
 10
1208.2000000000007
 20
863.0
 10
1207.5
 20
885.3000000000029
 10
1207.5
 20
885.3000000000029
 10
1107.5
 20
885.3000000000029
 10
1007.4000000000015
 20
885.1999999999971
 10
907.2999999999993
 20
885.0
 10
807.2999999999993
 20
884.8000000000029
 10
707.2000000000007
 20
884.8000000000029
 10
707.2000000000007
 20
884.8000000000029
 10
709.5
 20
795.8000000000029
 10
711.7999999999993
 20
706.9000000000087
 10
714.0999999999985
 20
617.9000000000087
 10
716.4000000000015
 20
529.0
 10
718.7999999999993
 20
440.0
  0
LWPOLYLINE
  5
36
330
17
100
AcDbEntity
  8
V236_WW_CUT38_098_ BX1000
100
AcDbPolyline
 90
26
 70
0
 10
2537.2000000000007
 20
370.0
 10
2594.0
 20
370.1000000000058
 10
2650.7999999999993
 20
370.1000000000058
 10
2707.5
 20
370.0
 10
2764.2999999999993
 20
370.0
 10
2821.0999999999985
 20
370.0
 10
2821.0999999999985
 20
370.0
 10
2822.2000000000007
 20
463.8000000000029
 10
2824.7999999999993
 20
669.1000000000058
 10
2828.0999999999985
 20
923.1000000000058
 10
2831.0999999999985
 20
1177.1000000000058
 10
2834.4000000000015
 20
1431.1000000000058
 10
2836.2000000000007
 20
1591.300000000003
 10
2836.7999999999993
 20
1640.0
 10
2836.7999999999993
 20
1640.0
 10
2776.7999999999993
 20
1640.1000000000058
 10
2716.7999999999993
 20
1640.1000000000058
 10
2656.9000000000015
 20
1640.1000000000058
 10
2596.9000000000015
 20
1640.1000000000058
 10
2536.9000000000015
 20
1640.0
 10
2536.9000000000015
 20
1640.0
 10
2536.7999999999993
 20
1386.0
 10
2537.0999999999985
 20
1132.0
 10
2537.0999999999985
 20
878.0
 10
2536.9000000000015
 20
624.0
 10
2537.2000000000007
 20
370.0
  0
LWPOLYLINE
  5
38
330
17
100
AcDbEntity
  8
V236_WW_CUT38_100_ BX1000
100
AcDbPolyline
 90
30
 70
0
 10
2512.2000000000007
 20
440.0
 10
2568.2000000000007
 20
440.0
 10
2624.0999999999985
 20
440.0
 10
2680.0999999999985
 20
440.0
 10
2736.0
 20
440.0
 10
2792.0
 20
440.0
 10
2792.0
 20
440.0
 10
2792.9000000000015
 20
519.1000000000058
 10
2795.4000000000015
 20
724.1999999999971
 10
2798.7999999999993
 20
978.1999999999971
 10
2801.7000000000007
 20
1232.199999999997
 10
2805.0999999999985
 20
1486.1000000000058
 10
2807.0999999999985
 20
1661.1000000000058
 10
2807.5999999999985
 20
1710.0
 10
2807.5999999999985
 20
1710.0
 10
2748.5
 20
1710.199999999997
 10
2689.2999999999993
 20
1710.300000000003
 10
2630.2000000000007
 20
1710.0
 10
2571.0999999999985
 20
1710.0
 10
2511.9000000000015
 20
1710.0
 10
2511.9000000000015
 20
1710.0
 10
2511.9000000000015
 20
1678.4000000000087
 10
2511.9000000000015
 20
1614.1000000000058
 10
2511.7999999999993
 20
1422.800000000003
 10
2512.0
 20
1200.699999999997
 10
2512.0999999999985
 20
946.6999999999971
 10
2512.2999999999993
 20
724.3000000000029
 10
2512.2999999999993
 20
534.6999999999971
 10
2512.2000000000007
 20
471.90000000000873
 10
2512.2000000000007
 20
440.0
  0
LWPOLYLINE
  5
3A
330
17
100
AcDbEntity
  8
V236_WW_CUT38_102_ BX1000
100
AcDbPolyline
 90
28
 70
0
 10
2487.2000000000007
 20
510.0
 10
2543.2999999999993
 20
510.1000000000058
 10
2599.5
 20
510.1000000000058
 10
2655.5999999999985
 20
510.0
 10
2711.7000000000007
 20
510.0
 10
2767.9000000000015
 20
510.0
 10
2767.9000000000015
 20
510.0
 10
2771.2000000000007
 20
764.0
 10
2774.2000000000007
 20
1018.1000000000058
 10
2777.4000000000015
 20
1272.1000000000058
 10
2780.2000000000007
 20
1526.1000000000058
 10
2783.5
 20
1780.1000000000058
 10
2783.5
 20
1780.1000000000058
 10
2724.2000000000007
 20
1779.9000000000087
 10
2664.9000000000015
 20
1779.9000000000087
 10
2605.5
 20
1780.0
 10
2546.2000000000007
 20
1780.1000000000058
 10
2486.9000000000015
 20
1780.0
 10
2486.9000000000015
 20
1780.0
 10
2486.7999999999993
 20
1749.1000000000058
 10
2486.7999999999993
 20
1701.800000000003
 10
2487.0999999999985
 20
1574.6000000000058
 10
2487.0
 20
1383.800000000003
 10
2487.0999999999985
 20
1129.800000000003
 10
2487.0999999999985
 20
906.6999999999971
 10
2487.0999999999985
 20
700.0
 10
2487.2000000000007
 20
573.1999999999971
 10
2487.2000000000007
 20
510.0
  0
LWPOLYLINE
  5
3C
330
17
100
AcDbEntity
  8
V236_WW_CUT38_116_ BX1000
100
AcDbPolyline
 90
24
 70
0
 10
745.0
 20
580.0
 10
841.0999999999985
 20
580.0
 10
937.0999999999985
 20
580.0
 10
1033.2000000000007
 20
580.1000000000058
 10
1129.2999999999993
 20
580.1000000000058
 10
1225.2999999999993
 20
580.0
 10
1225.2999999999993
 20
580.0
 10
1218.9000000000015
 20
834.0
 10
1212.0999999999985
 20
1088.0
 10
1205.7000000000007
 20
1342.0
 10
1198.9000000000015
 20
1596.0
 10
1192.9000000000015
 20
1850.1000000000058
 10
1192.9000000000015
 20
1850.1000000000058
 10
1096.7999999999993
 20
1850.1000000000058
 10
1000.7000000000007
 20
1850.1000000000058
 10
904.5999999999985
 20
1850.199999999997
 10
808.5999999999985
 20
1850.199999999997
 10
712.5
 20
1850.1000000000058
 10
712.5
 20
1850.1000000000058
 10
718.5999999999985
 20
1596.0
 10
725.2999999999993
 20
1342.0
 10
731.7999999999993
 20
1088.0
 10
738.2000000000007
 20
834.0
 10
745.0
 20
580.0
  0
LWPOLYLINE
  5
3E
330
17
100
AcDbEntity
  8
DATUM LINE
100
AcDbPolyline
 90
2
 70
0
 10
2162.830356999999
 20
1570.025741000005
 10
2162.8317290000014
 20
300.02581200000714
  0
LWPOLYLINE
  5
3F
330
17
100
AcDbEntity
  8
DATUM LINE
100
AcDbPolyline
 90
2
 70
0
 10
1059.9820199999995
 20
580.0146019999956
 10
1038.691433
 20
1850.0683839999983
  0
LWPOLYLINE
  5
41
330
17
100
AcDbEntity
  8
TAGGING
100
AcDbPolyline
 90
2
 70
0
 10
2732.4096910000007
 20
1543.2378590000008
 10
2752.4096910000007
 20
1523.2378590000008
  0
LWPOLYLINE
  5
42
330
17
100
AcDbEntity
  8
TAGGING
100
AcDbPolyline
 90
2
 70
0
 10
2732.4096910000007
 20
1523.2378590000008
 10
2752.4096910000007
 20
1543.2378590000008
  0
LWPOLYLINE
  5
43
330
17
100
AcDbEntity
  8
TAGGING
100
AcDbPolyline
 90
2
 70
0
 10
2732.4096910000007
 20
1190.7950500000006
 10
2752.4096910000007
 20
1170.7950500000006
  0
LWPOLYLINE
  5
44
330
17
100
AcDbEntity
  8
TAGGING
100
AcDbPolyline
 90
2
 70
0
 10
2732.4096910000007
 20
1170.7950500000006
 10
2752.4096910000007
 20
1190.7950500000006
  0
LWPOLYLINE
  5
45
330
17
100
AcDbEntity
  8
TAGGING
100
AcDbPolyline
 90
2
 70
0
 10
2732.4096910000007
 20
859.5378210000054
 10
2752.4096910000007
 20
839.5378210000054
  0
LWPOLYLINE
  5
46
330
17
100
AcDbEntity
  8
TAGGING
100
AcDbPolyline
 90
2
 70
0
 10
2732.4096910000007
 20
839.5378210000054
 10
2752.4096910000007
 20
859.5378210000054
  0
LWPOLYLINE
  5
47
330
17
100
AcDbEntity
  8
TAGGING
100
AcDbPolyline
 90
2
 70
0
 10
2784.2096779999993
 20
413.9130129999976
 10
2804.2096779999993
 20
393.9130129999976
  0
LWPOLYLINE
  5
48
330
17
100
AcDbEntity
  8
TAGGING
100
AcDbPolyline
 90
2
 70
0
 10
2784.2096779999993
 20
393.9130129999976
 10
2804.2096779999993
 20
413.9130129999976
  0
LWPOLYLINE
  5
49
330
17
100
AcDbEntity
  8
TAGGING
100
AcDbPolyline
 90
2
 70
0
 10
2557.8531939999993
 20
1541.288127000007
 10
2577.8531939999993
 20
1521.288127000007
  0
LWPOLYLINE
  5
4A
330
17
100
AcDbEntity
  8
TAGGING
100
AcDbPolyline
 90
2
 70
0
 10
2557.8531939999993
 20
1521.288127000007
 10
2577.8531939999993
 20
1541.288127000007
  0
LWPOLYLINE
  5
4B
330
17
100
AcDbEntity
  8
TAGGING
100
AcDbPolyline
 90
2
 70
0
 10
2557.8531939999993
 20
1188.845318000007
 10
2577.8531939999993
 20
1168.845318000007
  0
LWPOLYLINE
  5
4C
330
17
100
AcDbEntity
  8
TAGGING
100
AcDbPolyline
 90
2
 70
0
 10
2557.8531939999993
 20
1168.845318000007
 10
2577.8531939999993
 20
1188.845318000007
  0
LWPOLYLINE
  5
4D
330
17
100
AcDbEntity
  8
TAGGING
100
AcDbPolyline
 90
2
 70
0
 10
2557.8531939999993
 20
857.5880900000047
 10
2577.8531939999993
 20
837.5880900000047
  0
LWPOLYLINE
  5
4E
330
17
100
AcDbEntity
  8
TAGGING
100
AcDbPolyline
 90
2
 70
0
 10
2557.8531939999993
 20
837.5880900000047
 10
2577.8531939999993
 20
857.5880900000047
  0
LWPOLYLINE
  5
4F
330
17
100
AcDbEntity
  8
TAGGING
100
AcDbPolyline
 90
2
 70
0
 10
2561.9645090000013
 20
417.66092200001003
 10
2581.9645090000013
 20
397.66092200001003
  0
LWPOLYLINE
  5
50
330
17
100
AcDbEntity
  8
TAGGING
100
AcDbPolyline
 90
2
 70
0
 10
2561.9645090000013
 20
397.66092200001003
 10
2581.9645090000013
 20
417.66092200001003
  0
LWPOLYLINE
  5
51
330
17
100
AcDbEntity
  8
TAGGING
100
AcDbPolyline
 90
2
 70
0
 10
2733.2969230000017
 20
629.0998649999965
 10
2753.2969230000017
 20
609.0998649999965
  0
LWPOLYLINE
  5
52
330
17
100
AcDbEntity
  8
TAGGING
100
AcDbPolyline
 90
2
 70
0
 10
2733.2969230000017
 20
609.0998649999965
 10
2753.2969230000017
 20
629.0998649999965
  0
LWPOLYLINE
  5
53
330
17
100
AcDbEntity
  8
TAGGING
100
AcDbPolyline
 90
2
 70
0
 10
2552.8632309999994
 20
627.1501330000028
 10
2572.8632309999994
 20
607.1501330000028
  0
LWPOLYLINE
  5
54
330
17
100
AcDbEntity
  8
TAGGING
100
AcDbPolyline
 90
2
 70
0
 10
2552.8632309999994
 20
607.1501330000028
 10
2572.8632309999994
 20
627.1501330000028
  0
LWPOLYLINE
  5
55
330
17
100
AcDbEntity
  8
TAGGING
100
AcDbPolyline
 90
2
 70
0
 10
2660.617191000001
 20
484.36802799999714
 10
2680.617191000001
 20
464.36802799999714
  0
LWPOLYLINE
  5
56
330
17
100
AcDbEntity
  8
TAGGING
100
AcDbPolyline
 90
2
 70
0
 10
2660.617191000001
 20
464.36802799999714
 10
2680.617191000001
 20
484.36802799999714
  0
LWPOLYLINE
  5
57
330
17
100
AcDbEntity
  8
TAGGING
100
AcDbPolyline
 90
2
 70
0
 10
796.4948609999992
 20
424.2329929999978
 10
816.4948609999992
 20
404.2329929999978
  0
LWPOLYLINE
  5
58
330
17
100
AcDbEntity
  8
TAGGING
100
AcDbPolyline
 90
2
 70
0
 10
796.4948609999992
 20
404.2329929999978
 10
816.4948609999992
 20
424.2329929999978
  0
LWPOLYLINE
  5
59
330
17
100
AcDbEntity
  8
TAGGING
100
AcDbPolyline
 90
2
 70
0
 10
1138.4731350000002
 20
643.2198559999961
 10
1158.4731350000002
 20
623.2198559999961
  0
LWPOLYLINE
  5
5A
330
17
100
AcDbEntity
  8
TAGGING
100
AcDbPolyline
 90
2
 70
0
 10
1138.4731350000002
 20
623.2198559999961
 10
1158.4731350000002
 20
643.2198559999961
  0
LWPOLYLINE
  5
5B
330
17
100
AcDbEntity
  8
TAGGING
100
AcDbPolyline
 90
2
 70
0
 10
762.5235170000014
 20
1545.7417180000048
 10
782.5235170000014
 20
1525.7417180000048
  0
LWPOLYLINE
  5
5C
330
17
100
AcDbEntity
  8
TAGGING
100
AcDbPolyline
 90
2
 70
0
 10
762.5235170000014
 20
1525.7417180000048
 10
782.5235170000014
 20
1545.7417180000048
  0
LWPOLYLINE
  5
5D
330
17
100
AcDbEntity
  8
TAGGING
100
AcDbPolyline
 90
2
 70
0
 10
1123.7871369999993
 20
1552.5784010000061
 10
1143.7871369999993
 20
1532.5784010000061
  0
LWPOLYLINE
  5
5E
330
17
100
AcDbEntity
  8
TAGGING
100
AcDbPolyline
 90
2
 70
0
 10
1123.7871369999993
 20
1532.5784010000061
 10
1143.7871369999993
 20
1552.5784010000061
  0
LWPOLYLINE
  5
5F
330
17
100
AcDbEntity
  8
TAGGING
100
AcDbPolyline
 90
2
 70
0
 10
1128.7739140000012
 20
1111.5791520000057
 10
1148.7739140000012
 20
1091.5791520000057
  0
LWPOLYLINE
  5
60
330
17
100
AcDbEntity
  8
TAGGING
100
AcDbPolyline
 90
2
 70
0
 10
1128.7739140000012
 20
1091.5791520000057
 10
1148.7739140000012
 20
1111.5791520000057
  0
LWPOLYLINE
  5
61
330
17
100
AcDbEntity
  8
TAGGING
100
AcDbPolyline
 90
2
 70
0
 10
1139.4291699999994
 20
427.2226579999988
 10
1159.4291699999994
 20
407.2226579999988
  0
LWPOLYLINE
  5
62
330
17
100
AcDbEntity
  8
TAGGING
100
AcDbPolyline
 90
2
 70
0
 10
1139.4291699999994
 20
407.2226579999988
 10
1159.4291699999994
 20
427.2226579999988
  0
LWPOLYLINE
  5
63
330
17
100
AcDbEntity
  8
TAGGING
100
AcDbPolyline
 90
2
 70
0
 10
785.4000620000006
 20
841.3381230000086
 10
805.4000620000006
 20
821.3381230000086
  0
LWPOLYLINE
  5
64
330
17
100
AcDbEntity
  8
TAGGING
100
AcDbPolyline
 90
2
 70
0
 10
785.4000620000006
 20
821.3381230000086
 10
805.4000620000006
 20
841.3381230000086
  0
LWPOLYLINE
  5
65
330
17
100
AcDbEntity
  8
TAGGING
100
AcDbPolyline
 90
2
 70
0
 10
2663.434774000001
 20
1695.012459999998
 10
2683.434774000001
 20
1675.012459999998
  0
LWPOLYLINE
  5
66
330
17
100
AcDbEntity
  8
TAGGING
100
AcDbPolyline
 90
2
 70
0
 10
2663.434774000001
 20
1675.012459999998
 10
2683.434774000001
 20
1695.012459999998
  0
LWPOLYLINE
  5
68
330
17
100
AcDbEntity
  8
FRAME
100
AcDbPolyline
 90
5
 70
0
 10
0.0
 20
0.0
 10
10000.0
 20
0.0
 10
10000.0
 20
2500.0
 10
0.0
 20
2500.0
 10
0.0
 20
0.0
  0
ENDSEC
  0
SECTION
  2
OBJECTS
  0
DICTIONARY
  5
A
330
0
100
AcDbDictionary
280
0
281
1
  3
ACAD_COLOR
350
B
  3
ACAD_GROUP
350
C
  3
ACAD_LAYOUT
350
D
  3
ACAD_MATERIAL
350
E
  3
ACAD_MLEADERSTYLE
350
F
  3
ACAD_MLINESTYLE
350
10
  3
ACAD_PLOTSETTINGS
350
11
  3
ACAD_PLOTSTYLENAME
350
12
  3
ACAD_SCALELIST
350
14
  3
ACAD_TABLESTYLE
350
15
  3
ACAD_VISUALSTYLE
350
16
  3
EZDXF_META
350
2D
  0
DICTIONARY
  5
B
330
A
100
AcDbDictionary
280
0
281
1
  0
DICTIONARY
  5
C
330
A
100
AcDbDictionary
280
0
281
1
  0
DICTIONARY
  5
D
330
A
100
AcDbDictionary
280
0
281
1
  3
Model
350
1A
  3
Layout1
350
1E
  0
DICTIONARY
  5
E
330
A
100
AcDbDictionary
280
0
281
1
  3
ByBlock
350
1F
  3
ByLayer
350
20
  3
Global
350
21
  0
DICTIONARY
  5
F
330
A
100
AcDbDictionary
280
0
281
1
  3
Standard
350
2C
  0
DICTIONARY
  5
10
330
A
100
AcDbDictionary
280
0
281
1
  3
Standard
350
22
  0
DICTIONARY
  5
11
330
A
100
AcDbDictionary
280
0
281
1
  0
ACDBDICTIONARYWDFLT
  5
12
330
A
100
AcDbDictionary
280
0
281
1
  3
Normal
350
13
100
AcDbDictionaryWithDefault
340
13
  0
ACDBPLACEHOLDER
  5
13
330
12
  0
DICTIONARY
  5
14
330
A
100
AcDbDictionary
280
0
281
1
  0
DICTIONARY
  5
15
330
A
100
AcDbDictionary
280
0
281
1
  0
DICTIONARY
  5
16
330
A
100
AcDbDictionary
280
0
281
1
  0
LAYOUT
  5
1A
330
D
100
AcDbPlotSettings
  1

  2
Adobe PDF
  4
A3
  6

 40
7.5
 41
20.0
 42
7.5
 43
20.0
 44
420.0
 45
297.0
 46
0.0
 47
0.0
 48
0.0
 49
0.0
140
0.0
141
0.0
142
1.0
143
1.0
 70
1024
 72
1
 73
0
 74
5
  7

 75
16
 76
0
 77
2
 78
300
147
1.0
148
0.0
149
0.0
100
AcDbLayout
  1
Model
 70
1
 71
0
 10
0.0
 20
0.0
 11
420.0
 21
297.0
 12
0.0
 22
0.0
 32
0.0
 14
1e+20
 24
1e+20
 34
1e+20
 15
-1e+20
 25
-1e+20
 35
-1e+20
146
0.0
 13
0.0
 23
0.0
 33
0.0
 16
1.0
 26
0.0
 36
0.0
 17
0.0
 27
1.0
 37
0.0
 76
1
330
17
  0
LAYOUT
  5
1E
330
D
100
AcDbPlotSettings
  1

  2
Adobe PDF
  4
A3
  6

 40
7.5
 41
20.0
 42
7.5
 43
20.0
 44
420.0
 45
297.0
 46
0.0
 47
0.0
 48
0.0
 49
0.0
140
0.0
141
0.0
142
1.0
143
1.0
 70
0
 72
1
 73
0
 74
5
  7

 75
16
 76
0
 77
2
 78
300
147
1.0
148
0.0
149
0.0
100
AcDbLayout
  1
Layout1
 70
1
 71
1
 10
0.0
 20
0.0
 11
420.0
 21
297.0
 12
0.0
 22
0.0
 32
0.0
 14
1e+20
 24
1e+20
 34
1e+20
 15
-1e+20
 25
-1e+20
 35
-1e+20
146
0.0
 13
0.0
 23
0.0
 33
0.0
 16
1.0
 26
0.0
 36
0.0
 17
0.0
 27
1.0
 37
0.0
 76
1
330
1B
  0
MATERIAL
  5
1F
102
{ACAD_REACTORS
330
E
102
}
330
E
100
AcDbMaterial
  1
ByBlock
  2

 70
0
 40
1.0
 71
1
 41
1.0
 91
-1023410177
 42
1.0
 72
1
  3

 73
1
 74
1
 75
1
 44
0.5
 73
0
 45
1.0
 46
1.0
 77
1
  4

 78
1
 79
1
170
1
 48
1.0
171
1
  6

172
1
173
1
174
1
140
1.0
141
1.0
175
1
  7

176
1
177
1
178
1
143
1.0
179
1
  8

270
1
271
1
272
1
145
1.0
146
1.0
273
1
  9

274
1
275
1
276
1
 42
1.0
 72
1
  3

 73
1
 74
1
 75
1
 94
63
  0
MATERIAL
  5
20
102
{ACAD_REACTORS
330
E
102
}
330
E
100
AcDbMaterial
  1
ByLayer
  2

 70
0
 40
1.0
 71
1
 41
1.0
 91
-1023410177
 42
1.0
 72
1
  3

 73
1
 74
1
 75
1
 44
0.5
 73
0
 45
1.0
 46
1.0
 77
1
  4

 78
1
 79
1
170
1
 48
1.0
171
1
  6

172
1
173
1
174
1
140
1.0
141
1.0
175
1
  7

176
1
177
1
178
1
143
1.0
179
1
  8

270
1
271
1
272
1
145
1.0
146
1.0
273
1
  9

274
1
275
1
276
1
 42
1.0
 72
1
  3

 73
1
 74
1
 75
1
 94
63
  0
MATERIAL
  5
21
102
{ACAD_REACTORS
330
E
102
}
330
E
100
AcDbMaterial
  1
Global
  2

 70
0
 40
1.0
 71
1
 41
1.0
 91
-1023410177
 42
1.0
 72
1
  3

 73
1
 74
1
 75
1
 44
0.5
 73
0
 45
1.0
 46
1.0
 77
1
  4

 78
1
 79
1
170
1
 48
1.0
171
1
  6

172
1
173
1
174
1
140
1.0
141
1.0
175
1
  7

176
1
177
1
178
1
143
1.0
179
1
  8

270
1
271
1
272
1
145
1.0
146
1.0
273
1
  9

274
1
275
1
276
1
 42
1.0
 72
1
  3

 73
1
 74
1
 75
1
 94
63
  0
MLINESTYLE
  5
22
102
{ACAD_REACTORS
330
10
102
}
330
10
100
AcDbMlineStyle
  2
Standard
 70
0
  3

 62
256
 51
90.0
 52
90.0
 71
2
 49
0.5
 62
256
  6
BYLAYER
 49
-0.5
 62
256
  6
BYLAYER
  0
MLEADERSTYLE
  5
2C
102
{ACAD_REACTORS
330
F
102
}
330
F
100
AcDbMLeaderStyle
179
2
170
2
171
1
172
0
 90
2
 40
0.0
 41
0.0
173
1
 91
-1056964608
 92
-2
290
1
 42
2.0
291
1
 43
8.0
  3
Standard
 44
4.0
300

342
29
174
1
175
1
176
0
178
1
 93
-1056964608
 45
4.0
292
0
297
0
 46
4.0
 94
-1056964608
 47
1.0
 49
1.0
140
1.0
294
1
141
0.0
177
0
142
1.0
295
0
296
0
143
3.75
271
0
272
9
273
9
  0
DICTIONARY
  5
2D
330
A
100
AcDbDictionary
281
1
  3
CREATED_BY_EZDXF
350
2E
  3
WRITTEN_BY_EZDXF
350
6B
  0
DICTIONARYVAR
  5
2E
330
2D
100
DictionaryVariables
280
0
  1
1.1.3 @ 2024-05-09T10:56:43.045792+00:00
  0
DICTIONARYVAR
  5
6B
330
2D
100
DictionaryVariables
280
0
  1
1.1.3 @ 2024-05-09T10:56:43.060544+00:00
  0
ENDSEC
  0
EOF
