  0
SECTION
  2
HEADER
  9
$ACADVER
  1
AC1032
  9
$ACADMAINTVER
 90
      248
  9
$DWGCODEPAGE
  3
ANSI_1252
  9
$LASTSAVEDBY
  1
Juan Pablo Lopez
  9
$REQUIREDVERSIONS
160
                 0
  9
$INSBASE
 10
0.0
 20
0.0
 30
0.0
  9
$EXTMIN
 10
54836.5758193903
 20
22204.9170455458
 30
0.0
  9
$EXTMAX
 10
57163.3840922832
 20
24035.0652471697
 30
0.0
  9
$LIMMIN
 10
0.0
 20
0.0
  9
$LIMMAX
 10
420.0
 20
297.0
  9
$ORTHOMODE
 70
     0
  9
$REGENMODE
 70
     1
  9
$FILLMODE
 70
     1
  9
$QTEXTMODE
 70
     0
  9
$MIRRTEXT
 70
     1
  9
$LTSCALE
 40
1.0
  9
$ATTMODE
 70
     1
  9
$TEXTSIZE
 40
2.5
  9
$TRACEWID
 40
1.0
  9
$TEXTSTYLE
  7
Standard
  9
$CLAYER
  8
0
  9
$CELTYPE
  6
ByLayer
  9
$CECOLOR
 62
   256
  9
$CELTSCALE
 40
1.0
  9
$DISPSILH
 70
     0
  9
$DIMSCALE
 40
1.0
  9
$DIMASZ
 40
2.5
  9
$DIMEXO
 40
0.625
  9
$DIMDLI
 40
3.75
  9
$DIMRND
 40
0.0
  9
$DIMDLE
 40
0.0
  9
$DIMEXE
 40
1.25
  9
$DIMTP
 40
0.0
  9
$DIMTM
 40
0.0
  9
$DIMTXT
 40
2.5
  9
$DIMCEN
 40
2.5
  9
$DIMTSZ
 40
0.0
  9
$DIMTOL
 70
     0
  9
$DIMLIM
 70
     0
  9
$DIMTIH
 70
     0
  9
$DIMTOH
 70
     0
  9
$DIMSE1
 70
     0
  9
$DIMSE2
 70
     0
  9
$DIMTAD
 70
     1
  9
$DIMZIN
 70
     8
  9
$DIMBLK
  1

  9
$DIMASO
 70
     1
  9
$DIMSHO
 70
     1
  9
$DIMPOST
  1

  9
$DIMAPOST
  1

  9
$DIMALT
 70
     0
  9
$DIMALTD
 70
     3
  9
$DIMALTF
 40
0.03937
  9
$DIMLFAC
 40
1.0
  9
$DIMTOFL
 70
     1
  9
$DIMTVP
 40
0.0
  9
$DIMTIX
 70
     0
  9
$DIMSOXD
 70
     0
  9
$DIMSAH
 70
     0
  9
$DIMBLK1
  1

  9
$DIMBLK2
  1

  9
$DIMSTYLE
  2
STANDARD
  9
$DIMCLRD
 70
     0
  9
$DIMCLRE
 70
     0
  9
$DIMCLRT
 70
     0
  9
$DIMTFAC
 40
1.0
  9
$DIMGAP
 40
0.625
  9
$DIMJUST
 70
     0
  9
$DIMSD1
 70
     0
  9
$DIMSD2
 70
     0
  9
$DIMTOLJ
 70
     0
  9
$DIMTZIN
 70
     8
  9
$DIMALTZ
 70
     0
  9
$DIMALTTZ
 70
     0
  9
$DIMUPT
 70
     0
  9
$DIMDEC
 70
     2
  9
$DIMTDEC
 70
     2
  9
$DIMALTU
 70
     2
  9
$DIMALTTD
 70
     3
  9
$DIMTXSTY
  7
Standard
  9
$DIMAUNIT
 70
     0
  9
$DIMADEC
 70
     0
  9
$DIMALTRND
 40
0.0
  9
$DIMAZIN
 70
     0
  9
$DIMDSEP
 70
    44
  9
$DIMATFIT
 70
     0
  9
$DIMFRAC
 70
     0
  9
$DIMLDRBLK
  1

  9
$DIMLUNIT
 70
     2
  9
$DIMLWD
 70
    -2
  9
$DIMLWE
 70
    -2
  9
$DIMTMOVE
 70
     0
  9
$DIMFXL
 40
1.0
  9
$DIMFXLON
 70
     0
  9
$DIMJOGANG
 40
0.7853981633974483
  9
$DIMTFILL
 70
     0
  9
$DIMTFILLCLR
 70
     0
  9
$DIMARCSYM
 70
     0
  9
$DIMLTYPE
  6

  9
$DIMLTEX1
  6

  9
$DIMLTEX2
  6

  9
$DIMTXTDIRECTION
 70
     0
  9
$LUNITS
 70
     2
  9
$LUPREC
 70
     4
  9
$SKETCHINC
 40
1.0
  9
$FILLETRAD
 40
2.5
  9
$AUNITS
 70
     0
  9
$AUPREC
 70
     0
  9
$MENU
  1
.
  9
$ELEVATION
 40
0.0
  9
$PELEVATION
 40
0.0
  9
$THICKNESS
 40
0.0
  9
$LIMCHECK
 70
     0
  9
$CHAMFERA
 40
2.5
  9
$CHAMFERB
 40
2.5
  9
$CHAMFERC
 40
0.0
  9
$CHAMFERD
 40
0.0
  9
$SKPOLY
 70
     0
  9
$TDCREATE
 40
2460422.339432871
  9
$TDUCREATE
 40
2460422.256099537
  9
$TDUPDATE
 40
2460422.340173611
  9
$TDUUPDATE
 40
2460422.256840278
  9
$TDINDWG
 40
0.0007407407
  9
$TDUSRTIMER
 40
0.0007407407
  9
$USRTIMER
 70
     1
  9
$ANGBASE
 50
0.0
  9
$ANGDIR
 70
     0
  9
$PDMODE
 70
     0
  9
$PDSIZE
 40
0.0
  9
$PLINEWID
 40
0.0
  9
$SPLFRAME
 70
     0
  9
$SPLINETYPE
 70
     6
  9
$SPLINESEGS
 70
     8
  9
$HANDSEED
  5
1A0
  9
$SURFTAB1
 70
     6
  9
$SURFTAB2
 70
     6
  9
$SURFTYPE
 70
     6
  9
$SURFU
 70
     6
  9
$SURFV
 70
     6
  9
$UCSBASE
  2

  9
$UCSNAME
  2

  9
$UCSORG
 10
0.0
 20
0.0
 30
0.0
  9
$UCSXDIR
 10
1.0
 20
0.0
 30
0.0
  9
$UCSYDIR
 10
0.0
 20
1.0
 30
0.0
  9
$UCSORTHOREF
  2

  9
$UCSORTHOVIEW
 70
     1
  9
$UCSORGTOP
 10
0.0
 20
0.0
 30
0.0
  9
$UCSORGBOTTOM
 10
0.0
 20
0.0
 30
0.0
  9
$UCSORGLEFT
 10
0.0
 20
0.0
 30
0.0
  9
$UCSORGRIGHT
 10
0.0
 20
0.0
 30
0.0
  9
$UCSORGFRONT
 10
0.0
 20
0.0
 30
0.0
  9
$UCSORGBACK
 10
0.0
 20
0.0
 30
0.0
  9
$PUCSBASE
  2

  9
$PUCSNAME
  2

  9
$PUCSORG
 10
0.0
 20
0.0
 30
0.0
  9
$PUCSXDIR
 10
1.0
 20
0.0
 30
0.0
  9
$PUCSYDIR
 10
0.0
 20
1.0
 30
0.0
  9
$PUCSORTHOREF
  2

  9
$PUCSORTHOVIEW
 70
     0
  9
$PUCSORGTOP
 10
0.0
 20
0.0
 30
0.0
  9
$PUCSORGBOTTOM
 10
0.0
 20
0.0
 30
0.0
  9
$PUCSORGLEFT
 10
0.0
 20
0.0
 30
0.0
  9
$PUCSORGRIGHT
 10
0.0
 20
0.0
 30
0.0
  9
$PUCSORGFRONT
 10
0.0
 20
0.0
 30
0.0
  9
$PUCSORGBACK
 10
0.0
 20
0.0
 30
0.0
  9
$USERI1
 70
     0
  9
$USERI2
 70
     0
  9
$USERI3
 70
     0
  9
$USERI4
 70
     0
  9
$USERI5
 70
     0
  9
$USERR1
 40
0.0
  9
$USERR2
 40
0.0
  9
$USERR3
 40
0.0
  9
$USERR4
 40
0.0
  9
$USERR5
 40
0.0
  9
$WORLDVIEW
 70
     1
  9
$SHADEDGE
 70
     3
  9
$SHADEDIF
 70
    70
  9
$TILEMODE
 70
     1
  9
$MAXACTVP
 70
    64
  9
$PINSBASE
 10
0.0
 20
0.0
 30
0.0
  9
$PLIMCHECK
 70
     0
  9
$PEXTMIN
 10
0.0
 20
0.0
 30
0.0
  9
$PEXTMAX
 10
0.0
 20
628.569885
 30
2.0
  9
$PLIMMIN
 10
0.0
 20
0.0
  9
$PLIMMAX
 10
420.0
 20
297.0
  9
$UNITMODE
 70
     0
  9
$VISRETAIN
 70
     0
  9
$PLINEGEN
 70
     0
  9
$PSLTSCALE
 70
     1
  9
$TREEDEPTH
 70
  3020
  9
$CMLSTYLE
  2
Standard
  9
$CMLJUST
 70
     0
  9
$CMLSCALE
 40
20.0
  9
$PROXYGRAPHICS
 70
     1
  9
$MEASUREMENT
 70
     1
  9
$CELWEIGHT
370
    -1
  9
$ENDCAPS
280
     0
  9
$JOINSTYLE
280
     0
  9
$LWDISPLAY
290
     0
  9
$INSUNITS
 70
     0
  9
$HYPERLINKBASE
  1

  9
$STYLESHEET
  1

  9
$XEDIT
290
     1
  9
$CEPSNTYPE
380
     0
  9
$PSTYLEMODE
290
     0
  9
$FINGERPRINTGUID
  2
{16E0B451-6287-497B-9EF1-70BF8D9F2002}
  9
$VERSIONGUID
  2
{58EAB13E-6563-FA4F-BA37-9120754D8547}
  9
$EXTNAMES
290
     1
  9
$PSVPSCALE
 40
0.0
  9
$OLESTARTUP
290
     0
  9
$SORTENTS
280
   127
  9
$INDEXCTL
280
     0
  9
$HIDETEXT
280
     0
  9
$XCLIPFRAME
280
     2
  9
$HALOGAP
280
     0
  9
$OBSCOLOR
 70
   257
  9
$OBSLTYPE
280
     0
  9
$INTERSECTIONDISPLAY
280
     0
  9
$INTERSECTIONCOLOR
 70
   257
  9
$DIMASSOC
280
     1
  9
$PROJECTNAME
  1

  9
$CAMERADISPLAY
290
     0
  9
$LENSLENGTH
 40
50.0
  9
$CAMERAHEIGHT
 40
0.0
  9
$STEPSPERSEC
 40
2.0
  9
$STEPSIZE
 40
6.0
  9
$3DDWFPREC
 40
2.0
  9
$PSOLWIDTH
 40
0.25
  9
$PSOLHEIGHT
 40
4.0
  9
$LOFTANG1
 40
1.570796326794896
  9
$LOFTANG2
 40
1.570796326794896
  9
$LOFTMAG1
 40
0.0
  9
$LOFTMAG2
 40
0.0
  9
$LOFTPARAM
 70
     7
  9
$LOFTNORMALS
280
     1
  9
$LATITUDE
 40
37.795
  9
$LONGITUDE
 40
-122.394
  9
$NORTHDIRECTION
 40
0.0
  9
$TIMEZONE
 70
 -8000
  9
$LIGHTGLYPHDISPLAY
280
     1
  9
$TILEMODELIGHTSYNCH
280
     1
  9
$CMATERIAL
347
F4
  9
$SOLIDHIST
280
     0
  9
$SHOWHIST
280
     1
  9
$DWFFRAME
280
     2
  9
$DGNFRAME
280
     0
  9
$REALWORLDSCALE
290
     1
  9
$INTERFERECOLOR
 62
     1
  9
$INTERFEREOBJVS
345
116
  9
$INTERFEREVPVS
346
113
  9
$CSHADOW
280
     0
  9
$SHADOWPLANELOCATION
 40
0.0
  0
ENDSEC
  0
SECTION
  2
CLASSES
  0
CLASS
  1
ACDBDICTIONARYWDFLT
  2
AcDbDictionaryWithDefault
  3
ObjectDBX Classes
 90
        0
 91
        1
280
     0
281
     0
  0
CLASS
  1
VISUALSTYLE
  2
AcDbVisualStyle
  3
ObjectDBX Classes
 90
     4095
 91
       24
280
     0
281
     0
  0
CLASS
  1
MATERIAL
  2
AcDbMaterial
  3
ObjectDBX Classes
 90
     1153
 91
        3
280
     0
281
     0
  0
CLASS
  1
SCALE
  2
AcDbScale
  3
ObjectDBX Classes
 90
     1153
 91
       33
280
     0
281
     0
  0
CLASS
  1
TABLESTYLE
  2
AcDbTableStyle
  3
ObjectDBX Classes
 90
     4095
 91
        1
280
     0
281
     0
  0
CLASS
  1
MLEADERSTYLE
  2
AcDbMLeaderStyle
  3
ACDB_MLEADERSTYLE_CLASS
 90
     4095
 91
        1
280
     0
281
     0
  0
CLASS
  1
SUN
  2
AcDbSun
  3
SCENEOE
 90
     1153
 91
        0
280
     0
281
     0
  0
CLASS
  1
ACDBSECTIONVIEWSTYLE
  2
AcDbSectionViewStyle
  3
ObjectDBX Classes
 90
     1025
 91
        1
280
     0
281
     0
  0
CLASS
  1
ACDBDETAILVIEWSTYLE
  2
AcDbDetailViewStyle
  3
ObjectDBX Classes
 90
     1025
 91
        1
280
     0
281
     0
  0
CLASS
  1
DICTIONARYVAR
  2
AcDbDictionaryVar
  3
ObjectDBX Classes
 90
        0
 91
       10
280
     0
281
     0
  0
CLASS
  1
SORTENTSTABLE
  2
AcDbSortentsTable
  3
ObjectDBX Classes
 90
        0
 91
        1
280
     0
281
     0
  0
CLASS
  1
CELLSTYLEMAP
  2
AcDbCellStyleMap
  3
ObjectDBX Classes
 90
     1152
 91
        1
280
     0
281
     0
  0
ENDSEC
  0
SECTION
  2
TABLES
  0
TABLE
  2
VPORT
  5
8
330
0
100
AcDbSymbolTable
 70
     1
  0
VPORT
  5
29
330
8
100
AcDbSymbolTableRecord
100
AcDbViewportTableRecord
  2
*Active
 70
     0
 10
0.0
 20
0.0
 11
1.0
 21
1.0
 12
56320.42421200083
 22
23104.33164742657
 13
0.0
 23
0.0
 14
0.5
 24
0.5
 15
0.5
 25
0.5
 16
0.0
 26
0.0
 36
1.0
 17
0.0
 27
0.0
 37
0.0
 40
2948.635508180021
 41
2.32888349514563
 42
50.0
 43
0.0
 44
0.0
 50
0.0
 51
0.0
 71
     0
 72
   100
 73
     1
 74
     3
 75
     0
 76
     0
 77
     0
 78
     0
281
     0
 65
     1
110
0.0
120
0.0
130
0.0
111
1.0
121
0.0
131
0.0
112
0.0
122
1.0
132
0.0
 79
     0
146
0.0
348
112
 60
     3
 61
     5
292
     1
282
     1
141
0.0
142
0.0
 63
   250
421
  3355443
1001
ACAD_NAV_VCDISPLAY
1070
     3
  0
ENDTAB
  0
TABLE
  2
LTYPE
  5
5
330
0
100
AcDbSymbolTable
 70
     1
  0
LTYPE
  5
14
330
5
100
AcDbSymbolTableRecord
100
AcDbLinetypeTableRecord
  2
ByBlock
 70
     0
  3

 72
    65
 73
     0
 40
0.0
  0
LTYPE
  5
15
330
5
100
AcDbSymbolTableRecord
100
AcDbLinetypeTableRecord
  2
ByLayer
 70
     0
  3

 72
    65
 73
     0
 40
0.0
  0
LTYPE
  5
16
330
5
100
AcDbSymbolTableRecord
100
AcDbLinetypeTableRecord
  2
Continuous
 70
     0
  3
Solid line
 72
    65
 73
     0
 40
0.0
  0
ENDTAB
  0
TABLE
  2
LAYER
  5
2
330
0
100
AcDbSymbolTable
 70
     6
  0
LAYER
  5
10
102
{ACAD_XDICTIONARY
360
187
102
}
330
2
100
AcDbSymbolTableRecord
100
AcDbLayerTableRecord
  2
0
 70
     0
 62
     7
  6
Continuous
370
    13
390
F
347
104
348
0
  0
LAYER
  5
6F
102
{ACAD_XDICTIONARY
360
189
102
}
330
2
100
AcDbSymbolTableRecord
100
AcDbLayerTableRecord
  2
TEXT
 70
     0
 62
     7
  6
Continuous
370
    13
390
F
347
104
348
0
  0
LAYER
  5
70
102
{ACAD_XDICTIONARY
360
18B
102
}
330
2
100
AcDbSymbolTableRecord
100
AcDbLayerTableRecord
  2
STRATEGYPOINT
 70
     0
 62
     7
  6
Continuous
370
    13
390
F
347
104
348
0
  0
LAYER
  5
71
102
{ACAD_XDICTIONARY
360
18D
102
}
330
2
100
AcDbSymbolTableRecord
100
AcDbLayerTableRecord
  2
ROSETTE
 70
     0
 62
     7
  6
Continuous
370
    13
390
F
347
104
348
0
  0
LAYER
  5
72
102
{ACAD_XDICTIONARY
360
18F
102
}
330
2
100
AcDbSymbolTableRecord
100
AcDbLayerTableRecord
  2
OUTER
 70
     0
 62
     7
  6
Continuous
370
    13
390
F
347
104
348
0
  0
LAYER
  5
D7
102
{ACAD_XDICTIONARY
360
191
102
}
330
2
100
AcDbSymbolTableRecord
100
AcDbLayerTableRecord
  2
MARKERS
 70
     0
 62
     7
  6
Continuous
370
    13
390
F
347
104
348
0
  0
ENDTAB
  0
TABLE
  2
STYLE
  5
3
330
0
100
AcDbSymbolTable
 70
     2
  0
STYLE
  5
11
330
3
100
AcDbSymbolTableRecord
100
AcDbTextStyleTableRecord
  2
Standard
 70
     0
 40
0.0
 41
1.0
 50
0.0
 71
     0
 42
2.5
  3
isocp.shx
  4

  0
STYLE
  5
6E
330
3
100
AcDbSymbolTableRecord
100
AcDbTextStyleTableRecord
  2
GDT
 70
     0
 40
0.0
 41
1.0
 50
0.0
 71
     0
 42
0.2
  3
gdt.shx
  4

  0
ENDTAB
  0
TABLE
  2
VIEW
  5
6
330
0
100
AcDbSymbolTable
 70
     0
  0
ENDTAB
  0
TABLE
  2
UCS
  5
7
330
0
100
AcDbSymbolTable
 70
     0
  0
ENDTAB
  0
TABLE
  2
APPID
  5
9
330
0
100
AcDbSymbolTable
 70
     2
  0
APPID
  5
12
330
9
100
AcDbSymbolTableRecord
100
AcDbRegAppTableRecord
  2
ACAD
 70
     0
  0
APPID
  5
19C
330
9
100
AcDbSymbolTableRecord
100
AcDbRegAppTableRecord
  2
ACAD_NAV_VCDISPLAY
 70
     0
  0
ENDTAB
  0
TABLE
  2
DIMSTYLE
  5
A
330
0
100
AcDbSymbolTable
 70
     1
100
AcDbDimStyleTable
 71
     0
  0
DIMSTYLE
105
27
330
A
100
AcDbSymbolTableRecord
100
AcDbDimStyleTableRecord
  2
STANDARD
 70
     0
 41
2.5
 42
0.625
 43
3.75
 44
1.25
 73
     0
 74
     0
 77
     1
 78
     8
140
2.5
141
2.5
143
0.03937
147
0.625
171
     3
172
     1
271
     2
272
     2
274
     3
278
    44
283
     0
284
     8
289
     0
340
11
  0
ENDTAB
  0
TABLE
  2
BLOCK_RECORD
  5
1
330
0
100
AcDbSymbolTable
 70
    19
  0
BLOCK_RECORD
  5
1F
102
{ACAD_XDICTIONARY
360
133
102
}
330
1
100
AcDbSymbolTableRecord
100
AcDbBlockTableRecord
  2
*Model_Space
340
22
 70
     0
280
     1
281
     0
  0
BLOCK_RECORD
  5
1B
330
1
100
AcDbSymbolTableRecord
100
AcDbBlockTableRecord
  2
*Paper_Space
340
1E
 70
     0
280
     1
281
     0
  0
BLOCK_RECORD
  5
23
330
1
100
AcDbSymbolTableRecord
100
AcDbBlockTableRecord
  2
*Paper_Space0
340
26
 70
     0
280
     1
281
     0
  0
BLOCK_RECORD
  5
4
330
1
100
AcDbSymbolTableRecord
100
AcDbBlockTableRecord
  2
V236_LW_LRO15_700 RT_TEXT_1
340
0
102
{BLKREFS
331
2A
331
135
102
}
 70
     0
280
     1
281
     0
  0
BLOCK_RECORD
  5
32
330
1
100
AcDbSymbolTableRecord
100
AcDbBlockTableRecord
  2
29276884_INF_GF_HM_BI45_1000_54_CHORDWISE_V1_V236_LW_LRO15_700_R0_I52_DXF
340
0
 70
     0
280
     1
281
     0
  0
BLOCK_RECORD
  5
37
330
1
100
AcDbSymbolTableRecord
100
AcDbBlockTableRecord
  2
V236_LW_LRO15_701 RT_TEXT_2
340
0
102
{BLKREFS
331
3B
331
13D
102
}
 70
     0
280
     1
281
     0
  0
BLOCK_RECORD
  5
43
330
1
100
AcDbSymbolTableRecord
100
AcDbBlockTableRecord
  2
29276884_INF_GF_HM_BI45_1000_54_CHORDWISE_V1_V236_LW_LRO15_701_R0_I52_DXF
340
0
 70
     0
280
     1
281
     0
  0
BLOCK_RECORD
  5
6A
330
1
100
AcDbSymbolTableRecord
100
AcDbBlockTableRecord
  2
V236_LW_LRO15_702 RT_TEXT_3
340
0
102
{BLKREFS
331
73
331
145
102
}
 70
     0
280
     1
281
     0
  0
BLOCK_RECORD
  5
7B
330
1
100
AcDbSymbolTableRecord
100
AcDbBlockTableRecord
  2
29276884_INF_GF_HM_BI45_1000_54_CHORDWISE_V1_V236_LW_LRO15_702_R0_I52_DXF
340
0
 70
     0
280
     1
281
     0
  0
BLOCK_RECORD
  5
82
330
1
100
AcDbSymbolTableRecord
100
AcDbBlockTableRecord
  2
V236_LW_LRO15_703 RT_TEXT_4
340
0
102
{BLKREFS
331
86
331
14D
102
}
 70
     0
280
     1
281
     0
  0
BLOCK_RECORD
  5
8E
330
1
100
AcDbSymbolTableRecord
100
AcDbBlockTableRecord
  2
29276884_INF_GF_HM_BI45_1000_54_CHORDWISE_V1_V236_LW_LRO15_703_R0_I52_DXF
340
0
 70
     0
280
     1
281
     0
  0
BLOCK_RECORD
  5
93
330
1
100
AcDbSymbolTableRecord
100
AcDbBlockTableRecord
  2
V236_LW_LRO15_704 RT_TEXT_5
340
0
102
{BLKREFS
331
97
331
155
102
}
 70
     0
280
     1
281
     0
  0
BLOCK_RECORD
  5
9F
330
1
100
AcDbSymbolTableRecord
100
AcDbBlockTableRecord
  2
29276884_INF_GF_HM_BI45_1000_54_CHORDWISE_V1_V236_LW_LRO15_704_R0_I52_DXF
340
0
 70
     0
280
     1
281
     0
  0
BLOCK_RECORD
  5
A4
330
1
100
AcDbSymbolTableRecord
100
AcDbBlockTableRecord
  2
V236_LW_LRO15_705 RT_TEXT_6
340
0
102
{BLKREFS
331
A8
331
15D
102
}
 70
     0
280
     1
281
     0
  0
BLOCK_RECORD
  5
B0
330
1
100
AcDbSymbolTableRecord
100
AcDbBlockTableRecord
  2
29276884_INF_GF_HM_BI45_1000_54_CHORDWISE_V1_V236_LW_LRO15_705_R0_I52_DXF
340
0
 70
     0
280
     1
281
     0
  0
BLOCK_RECORD
  5
B5
330
1
100
AcDbSymbolTableRecord
100
AcDbBlockTableRecord
  2
V236_LW_LRO15_706 RT_TEXT_7
340
0
102
{BLKREFS
331
B9
331
165
102
}
 70
     0
280
     1
281
     0
  0
BLOCK_RECORD
  5
C1
330
1
100
AcDbSymbolTableRecord
100
AcDbBlockTableRecord
  2
29276884_INF_GF_HM_BI45_1000_54_CHORDWISE_V1_V236_LW_LRO15_706_R0_I52_DXF
340
0
 70
     0
280
     1
281
     0
  0
BLOCK_RECORD
  5
C6
330
1
100
AcDbSymbolTableRecord
100
AcDbBlockTableRecord
  2
V236_LW_LRO15_707 RT_TEXT_8
340
0
102
{BLKREFS
331
CA
331
16D
102
}
 70
     0
280
     1
281
     0
  0
BLOCK_RECORD
  5
D2
330
1
100
AcDbSymbolTableRecord
100
AcDbBlockTableRecord
  2
29276884_INF_GF_HM_BI45_1000_54_CHORDWISE_V1_V236_LW_LRO15_707_R0_I52_DXF
340
0
 70
     0
280
     1
281
     0
  0
BLOCK_RECORD
  5
D8
330
1
100
AcDbSymbolTableRecord
100
AcDbBlockTableRecord
  2
V236_LW_LRO15_708 RT_TEXT_9
340
0
102
{BLKREFS
331
DC
331
175
102
}
 70
     0
280
     1
281
     0
  0
BLOCK_RECORD
  5
EB
330
1
100
AcDbSymbolTableRecord
100
AcDbBlockTableRecord
  2
29276884_INF_GF_HM_BI45_1000_54_CHORDWISE_V1_V236_LW_LRO15_708_R1_I5_DXF
340
0
 70
     0
280
     1
281
     0
  0
ENDTAB
  0
ENDSEC
  0
SECTION
  2
BLOCKS
  0
BLOCK
  5
20
330
1F
100
AcDbEntity
  8
0
100
AcDbBlockBegin
  2
*Model_Space
 70
     0
 10
0.0
 20
0.0
 30
0.0
  3
*Model_Space
  1

  0
ENDBLK
  5
21
330
1F
100
AcDbEntity
  8
0
100
AcDbBlockEnd
  0
BLOCK
  5
1C
330
1B
100
AcDbEntity
 67
     1
  8
0
100
AcDbBlockBegin
  2
*Paper_Space
 70
     0
 10
0.0
 20
0.0
 30
0.0
  3
*Paper_Space
  1

  0
ENDBLK
  5
1D
330
1B
100
AcDbEntity
 67
     1
  8
0
100
AcDbBlockEnd
  0
BLOCK
  5
24
330
23
100
AcDbEntity
 67
     1
  8
0
100
AcDbBlockBegin
  2
*Paper_Space0
 70
     0
 10
0.0
 20
0.0
 30
0.0
  3
*Paper_Space0
  1

  0
ENDBLK
  5
25
330
23
100
AcDbEntity
 67
     1
  8
0
100
AcDbBlockEnd
  0
BLOCK
  5
13
330
4
100
AcDbEntity
  8
0
100
AcDbBlockBegin
  2
V236_LW_LRO15_700 RT_TEXT_1
 70
     0
 10
0.0
 20
0.0
 30
0.0
  3
V236_LW_LRO15_700 RT_TEXT_1
  1

  0
TEXT
  5
B
330
4
100
AcDbEntity
  8
TEXT
 62
    14
370
    13
100
AcDbText
 10
-621.757812
 20
580.003601
 30
0.0
 40
35.0
  1
V236_LW_LRO15_700 RT
 41
1.115672189251264
 72
     5
 11
-14.553223
 21
580.003601
 31
0.0
100
AcDbText
  0
ENDBLK
  5
28
330
4
100
AcDbEntity
  8
0
100
AcDbBlockEnd
  0
BLOCK
  5
34
330
32
100
AcDbEntity
  8
0
100
AcDbBlockBegin
  2
29276884_INF_GF_HM_BI45_1000_54_CHORDWISE_V1_V236_LW_LRO15_700_R0_I52_DXF
 70
     0
 10
0.0
 20
0.0
 30
0.0
  3
29276884_INF_GF_HM_BI45_1000_54_CHORDWISE_V1_V236_LW_LRO15_700_R0_I52_DXF
  1

  0
INSERT
  5
2A
330
32
100
AcDbEntity
  8
TEXT
 62
     7
370
     0
100
AcDbBlockReference
  2
V236_LW_LRO15_700 RT_TEXT_1
 10
56260.19921900001
 20
23400.0625
 30
0.0
  0
POINT
  5
2B
330
32
100
AcDbEntity
  8
STRATEGYPOINT
 62
     7
370
     5
100
AcDbPoint
 10
56260.19921900001
 20
23400.0625
 30
0.0
  0
LINE
  5
2C
330
32
100
AcDbEntity
  8
ROSETTE
 62
   150
370
    35
100
AcDbLine
 10
56360.199219
 20
23400.0625
 30
0.0
 11
56260.19921900001
 21
23400.0625
 31
0.0
  0
LINE
  5
2D
330
32
100
AcDbEntity
  8
ROSETTE
 62
   150
370
    35
100
AcDbLine
 10
56260.19921900001
 20
23400.0625
 30
0.0
 11
56260.19921900001
 21
23450.0625
 31
0.0
  0
SPLINE
  5
2E
330
32
100
AcDbEntity
  8
OUTER
 62
     3
370
    35
100
AcDbSpline
210
0.0
220
0.0
230
1.0
 70
     8
 71
     5
 72
    12
 73
     6
 74
     0
 42
0.000000001
 43
0.0000000001
 40
0.0
 40
0.0
 40
0.0
 40
0.0
 40
0.0
 40
0.0
 40
2240.58348582542
 40
2240.58348582542
 40
2240.58348582542
 40
2240.58348582542
 40
2240.58348582542
 40
2240.58348582542
 10
54922.1768083585
 20
22765.0583607492
 30
0.0
 10
55370.293505473
 20
22765.0652146349
 30
0.0
 10
55818.40988637019
 20
22765.0718010886
 30
0.0
 10
56266.5265516873
 20
22764.8634028484
 30
0.0
 10
56714.643526122
 20
22765.4578333932
 30
0.0
 10
57162.76003349759
 20
22765.0454069858
 30
0.0
  0
SPLINE
  5
2F
330
32
100
AcDbEntity
  8
OUTER
 62
     3
370
    35
100
AcDbSpline
210
0.0
220
0.0
230
1.0
 70
     8
 71
     5
 72
    14
 73
     8
 74
     0
 42
0.000000001
 43
0.0000000001
 40
0.0
 40
0.0
 40
0.0
 40
0.0
 40
0.0
 40
0.0
 40
660.5655769450042
 40
967.142165520166
 40
1270.007458253656
 40
1270.007458253656
 40
1270.007458253656
 40
1270.007458253656
 40
1270.007458253656
 40
1270.007458253656
 10
57162.76003349769
 20
22765.0454069858
 30
0.0
 10
57163.0888277015
 20
22897.1581132339
 30
0.0
 10
57163.28566577639
 20
23090.58638396
 30
0.0
 10
57163.1055613375
 20
23344.5881621533
 30
0.0
 10
57163.4429088405
 20
23598.589114629
 30
0.0
 10
57162.99879800599
 20
23852.5913987463
 30
0.0
 10
57163.1786209831
 20
23974.4795049374
 30
0.0
 10
57163.3840922832
 20
24035.0522149911
 30
0.0
  0
SPLINE
  5
30
330
32
100
AcDbEntity
  8
OUTER
 62
     3
370
    35
100
AcDbSpline
210
0.0
220
0.0
230
1.0
 70
     8
 71
     5
 72
    12
 73
     6
 74
     0
 42
0.000000001
 43
0.0000000001
 40
0.0
 40
0.0
 40
0.0
 40
0.0
 40
0.0
 40
0.0
 40
2326.808505165562
 40
2326.808505165562
 40
2326.808505165562
 40
2326.808505165562
 40
2326.808505165562
 40
2326.808505165562
 10
57163.3840922832
 20
24035.0522149911
 30
0.0
 10
56698.0223912666
 20
24035.0483266313
 30
0.0
 10
56232.6607481988
 20
24035.044645555
 30
0.0
 10
55767.2991630222
 20
24035.0411768318
 30
0.0
 10
55301.9375201053
 20
24035.0480423469
 30
0.0
 10
54836.5758193903
 20
24035.0652471697
 30
0.0
  0
SPLINE
  5
31
330
32
100
AcDbEntity
  8
OUTER
 62
     3
370
    35
100
AcDbSpline
210
0.0
220
0.0
230
1.0
 70
     8
 71
     5
 72
    14
 73
     8
 74
     0
 42
0.000000001
 43
0.0000000001
 40
0.0
 40
0.0
 40
0.0
 40
0.0
 40
0.0
 40
0.0
 40
317.954643203411
 40
790.0465120518513
 40
1272.890850291534
 40
1272.890850291534
 40
1272.890850291534
 40
1272.890850291534
 40
1272.890850291534
 40
1272.890850291534
 10
54836.5758193903
 20
24035.0652471697
 30
0.0
 10
54840.9638047065
 20
23971.6258919535
 30
0.0
 10
54851.56312269599
 20
23813.9727544604
 30
0.0
 10
54867.738807175
 20
23559.9067302904
 30
0.0
 10
54885.92279339269
 20
23305.9783114155
 30
0.0
 10
54901.64051505959
 20
23051.8800549301
 30
0.0
 10
54915.0490899117
 20
22861.3638218016
 30
0.0
 10
54922.1768083585
 20
22765.0583607491
 30
0.0
  0
ENDBLK
  5
35
330
32
100
AcDbEntity
  8
0
100
AcDbBlockEnd
  0
BLOCK
  5
39
330
37
100
AcDbEntity
  8
0
100
AcDbBlockBegin
  2
V236_LW_LRO15_701 RT_TEXT_2
 70
     0
 10
0.0
 20
0.0
 30
0.0
  3
V236_LW_LRO15_701 RT_TEXT_2
  1

  0
TEXT
  5
38
330
37
100
AcDbEntity
  8
TEXT
 62
    14
370
    13
100
AcDbText
 10
-613.808594
 20
510.1500549999999
 30
0.0
 40
35.0
  1
V236_LW_LRO15_701 RT
 41
1.130208636575152
 72
     5
 11
-6.604003999999999
 21
510.1500549999999
 31
0.0
100
AcDbText
  0
ENDBLK
  5
3A
330
37
100
AcDbEntity
  8
0
100
AcDbBlockEnd
  0
BLOCK
  5
45
330
43
100
AcDbEntity
  8
0
100
AcDbBlockBegin
  2
29276884_INF_GF_HM_BI45_1000_54_CHORDWISE_V1_V236_LW_LRO15_701_R0_I52_DXF
 70
     0
 10
0.0
 20
0.0
 30
0.0
  3
29276884_INF_GF_HM_BI45_1000_54_CHORDWISE_V1_V236_LW_LRO15_701_R0_I52_DXF
  1

  0
INSERT
  5
3B
330
43
100
AcDbEntity
  8
TEXT
 62
     7
370
     0
100
AcDbBlockReference
  2
V236_LW_LRO15_701 RT_TEXT_2
 10
56260.19921900001
 20
23400.0625
 30
0.0
  0
POINT
  5
3C
330
43
100
AcDbEntity
  8
STRATEGYPOINT
 62
     7
370
     5
100
AcDbPoint
 10
56260.19921900001
 20
23400.0625
 30
0.0
  0
LINE
  5
3D
330
43
100
AcDbEntity
  8
ROSETTE
 62
   150
370
    35
100
AcDbLine
 10
56360.199219
 20
23400.0625
 30
0.0
 11
56260.19921900001
 21
23400.0625
 31
0.0
  0
LINE
  5
3E
330
43
100
AcDbEntity
  8
ROSETTE
 62
   150
370
    35
100
AcDbLine
 10
56260.19921900001
 20
23400.0625
 30
0.0
 11
56260.19921900001
 21
23450.0625
 31
0.0
  0
SPLINE
  5
3F
330
43
100
AcDbEntity
  8
OUTER
 62
     3
370
    35
100
AcDbSpline
210
0.0
220
0.0
230
1.0
 70
     8
 71
     5
 72
    24
 73
    18
 74
     0
 42
0.000000001
 43
0.0000000001
 40
0.0
 40
0.0
 40
0.0
 40
0.0
 40
0.0
 40
0.0
 40
120.3252554744225
 40
246.0326415772825
 40
518.8990191787045
 40
535.8659417240049
 40
686.004676880781
 40
824.9092355806862
 40
1075.694129245685
 40
1151.11790791931
 40
1347.457203195718
 40
1510.031292953034
 40
1741.937429352625
 40
1884.573737952555
 40
2167.843163127569
 40
2167.843163127569
 40
2167.843163127569
 40
2167.843163127569
 40
2167.843163127569
 40
2167.843163127569
 10
54945.6649323902
 20
22695.1048944586
 30
0.0
 10
54969.72992525209
 20
22695.0519533458
 30
0.0
 10
55018.9362597186
 20
22694.9858299219
 30
0.0
 10
55122.71528062769
 20
22695.0211586917
 30
0.0
 10
55229.8876534219
 20
22695.0556848351
 30
0.0
 10
55367.08878194249
 20
22695.0481675499
 30
0.0
 10
55508.0055387046
 20
22695.0492324001
 30
0.0
 10
55673.93778087249
 20
22695.0421623988
 30
0.0
 10
55800.3815499742
 20
22695.0802701073
 30
0.0
 10
55962.6997946867
 20
22695.0151044325
 30
0.0
 10
56127.50510941981
 20
22695.0443324449
 30
0.0
 10
56310.91074226759
 20
22695.0795887808
 30
0.0
 10
56472.68667432429
 20
22695.0257302058
 30
0.0
 10
56676.031680893
 20
22695.075287717
 30
0.0
 10
56840.10883590441
 20
22695.0595357131
 30
0.0
 10
56971.67122562099
 20
22695.0558453918
 30
0.0
 10
57056.852371235
 20
22695.0602177526
 30
0.0
 10
57113.50625619379
 20
22695.0631569468
 30
0.0
  0
SPLINE
  5
40
330
43
100
AcDbEntity
  8
OUTER
 62
     3
370
    35
100
AcDbSpline
210
0.0
220
0.0
230
1.0
 70
     8
 71
     5
 72
    17
 73
    11
 74
     0
 42
0.000000001
 43
0.0000000001
 40
0.0
 40
0.0
 40
0.0
 40
0.0
 40
0.0
 40
0.0
 40
302.7399097167284
 40
302.7399097167284
 40
630.0620695364743
 40
782.3159361955518
 40
880.9889027734367
 40
1269.996823279402
 40
1269.996823279402
 40
1269.996823279402
 40
1269.996823279402
 40
1269.996823279402
 40
1269.996823279402
 10
57113.50625619379
 20
22695.0631569468
 30
0.0
 10
57113.58595913929
 20
22755.6110864313
 30
0.0
 10
57113.70102908889
 20
22816.1589495644
 30
0.0
 10
57113.99423389009
 20
22942.1710133474
 30
0.0
 10
57114.11511556759
 20
23098.634016456
 30
0.0
 10
57114.07807953
 20
23274.8317930097
 30
0.0
 10
57114.10596747
 20
23468.28313923
 30
0.0
 10
57114.1563083518
 20
23661.7344664027
 30
0.0
 10
57114.33826858559
 20
23789.7215173836
 30
0.0
 10
57114.2963155446
 20
23887.2576252825
 30
0.0
 10
57114.0776909351
 20
23965.0589022125
 30
0.0
  0
SPLINE
  5
41
330
43
100
AcDbEntity
  8
OUTER
 62
     3
370
    35
100
AcDbSpline
210
0.0
220
0.0
230
1.0
 70
     8
 71
     5
 72
    12
 73
     6
 74
     0
 42
0.000000001
 43
0.0000000001
 40
0.0
 40
0.0
 40
0.0
 40
0.0
 40
0.0
 40
0.0
 40
2254.321891040339
 40
2254.321891040339
 40
2254.321891040339
 40
2254.321891040339
 40
2254.321891040339
 40
2254.321891040339
 10
57114.0776909351
 20
23965.0589022125
 30
0.0
 10
56663.2133130802
 20
23965.0767406461
 30
0.0
 10
56212.3489446597
 20
23965.1103261577
 30
0.0
 10
55761.484585531
 20
23965.1585045956
 30
0.0
 10
55310.6202239831
 20
23965.1268004801
 30
0.0
 10
54859.75585987259
 20
23965.0140520736
 30
0.0
  0
SPLINE
  5
42
330
43
100
AcDbEntity
  8
OUTER
 62
     3
370
    35
100
AcDbSpline
210
0.0
220
0.0
230
1.0
 70
     8
 71
     5
 72
    16
 73
    10
 74
     0
 42
0.000000001
 43
0.0000000001
 40
0.0
 40
0.0
 40
0.0
 40
0.0
 40
0.0
 40
0.0
 40
314.2273170211474
 40
634.3532870781636
 40
944.3833679276352
 40
1095.358638103335
 40
1272.814951954661
 40
1272.814951954661
 40
1272.814951954661
 40
1272.814951954661
 40
1272.814951954661
 40
1272.814951954661
 10
54859.75585987259
 20
23965.0140520736
 30
0.0
 10
54864.02476235969
 20
23902.3137431267
 30
0.0
 10
54872.3821349213
 20
23775.7186694468
 30
0.0
 10
54884.5094324603
 20
23587.2311402221
 30
0.0
 10
54900.0275944519
 20
23368.7079608276
 30
0.0
 10
54915.99020542719
 20
23114.64406923259
 30
0.0
 10
54929.0550296083
 20
22923.3713941509
 30
0.0
 10
54938.465673971
 20
22796.0259761294
 30
0.0
 10
54943.17502140259
 20
22730.5087088901
 30
0.0
 10
54945.6649323902
 20
22695.1048944586
 30
0.0
  0
ENDBLK
  5
46
330
43
100
AcDbEntity
  8
0
100
AcDbBlockEnd
  0
BLOCK
  5
6C
330
6A
100
AcDbEntity
  8
0
100
AcDbBlockBegin
  2
V236_LW_LRO15_702 RT_TEXT_3
 70
     0
 10
0.0
 20
0.0
 30
0.0
  3
V236_LW_LRO15_702 RT_TEXT_3
  1

  0
TEXT
  5
6B
330
6A
100
AcDbEntity
  8
TEXT
 62
    14
370
    13
100
AcDbText
 10
-600.2187499999999
 20
440.75943
 30
0.0
 40
35.0
  1
V236_LW_LRO15_702 RT
 41
1.115672191088655
 72
     5
 11
6.985839999999999
 21
440.75943
 31
0.0
100
AcDbText
  0
ENDBLK
  5
6D
330
6A
100
AcDbEntity
  8
0
100
AcDbBlockEnd
  0
BLOCK
  5
7D
330
7B
100
AcDbEntity
  8
0
100
AcDbBlockBegin
  2
29276884_INF_GF_HM_BI45_1000_54_CHORDWISE_V1_V236_LW_LRO15_702_R0_I52_DXF
 70
     0
 10
0.0
 20
0.0
 30
0.0
  3
29276884_INF_GF_HM_BI45_1000_54_CHORDWISE_V1_V236_LW_LRO15_702_R0_I52_DXF
  1

  0
INSERT
  5
73
330
7B
100
AcDbEntity
  8
TEXT
 62
     7
370
     0
100
AcDbBlockReference
  2
V236_LW_LRO15_702 RT_TEXT_3
 10
56260.19921900001
 20
23400.0625
 30
0.0
  0
POINT
  5
74
330
7B
100
AcDbEntity
  8
STRATEGYPOINT
 62
     7
370
     5
100
AcDbPoint
 10
56260.19921900001
 20
23400.0625
 30
0.0
  0
LINE
  5
75
330
7B
100
AcDbEntity
  8
ROSETTE
 62
   150
370
    35
100
AcDbLine
 10
56360.199219
 20
23400.0625
 30
0.0
 11
56260.19921900001
 21
23400.0625
 31
0.0
  0
LINE
  5
76
330
7B
100
AcDbEntity
  8
ROSETTE
 62
   150
370
    35
100
AcDbLine
 10
56260.19921900001
 20
23400.0625
 30
0.0
 11
56260.19921900001
 21
23450.0625
 31
0.0
  0
SPLINE
  5
77
330
7B
100
AcDbEntity
  8
OUTER
 62
     3
370
    35
100
AcDbSpline
210
0.0
220
0.0
230
1.0
 70
     8
 71
     5
 72
    12
 73
     6
 74
     0
 42
0.000000001
 43
0.0000000001
 40
0.0
 40
0.0
 40
0.0
 40
0.0
 40
0.0
 40
0.0
 40
2095.086275513621
 40
2095.086275513621
 40
2095.086275513621
 40
2095.086275513621
 40
2095.086275513621
 40
2095.086275513621
 10
54968.8361263933
 20
22625.0545163313
 30
0.0
 10
55387.85334922899
 20
22625.2189615822
 30
0.0
 10
55806.8704627353
 20
22625.0958271901
 30
0.0
 10
56225.8875974179
 20
22625.0266691118
 30
0.0
 10
56644.90484260809
 20
22624.9245946711
 30
0.0
 10
57063.9220747543
 20
22625.0632976969
 30
0.0
  0
SPLINE
  5
78
330
7B
100
AcDbEntity
  8
OUTER
 62
     3
370
    35
100
AcDbSpline
210
0.0
220
0.0
230
1.0
 70
     8
 71
     5
 72
    14
 73
     8
 74
     0
 42
0.000000001
 43
0.0000000001
 40
0.0
 40
0.0
 40
0.0
 40
0.0
 40
0.0
 40
0.0
 40
478.2754499465357
 40
552.4565265751286
 40
1270.000310564064
 40
1270.000310564064
 40
1270.000310564064
 40
1270.000310564064
 40
1270.000310564064
 40
1270.000310564064
 10
57063.9220747542
 20
22625.0632976969
 30
0.0
 10
57064.02918750741
 20
22720.7183277148
 30
0.0
 10
57064.19638583639
 20
22831.2095008205
 30
0.0
 10
57064.6187886482
 20
23085.2091898049
 30
0.0
 10
57064.62111768719
 20
23339.2091643265
 30
0.0
 10
57064.5631354219
 20
23593.2092374208
 30
0.0
 10
57064.5769745486
 20
23751.5542067231
 30
0.0
 10
57064.6787339246
 20
23895.0629274431
 30
0.0
  0
SPLINE
  5
79
330
7B
100
AcDbEntity
  8
OUTER
 62
     3
370
    35
100
AcDbSpline
210
0.0
220
0.0
230
1.0
 70
     8
 71
     5
 72
    12
 73
     6
 74
     0
 42
0.000000001
 43
0.0000000001
 40
0.0
 40
0.0
 40
0.0
 40
0.0
 40
0.0
 40
0.0
 40
2182.170355389155
 40
2182.170355389155
 40
2182.170355389155
 40
2182.170355389155
 40
2182.170355389155
 40
2182.170355389155
 10
57064.67873392449
 20
23895.0629274431
 30
0.0
 10
56628.2446663817
 20
23895.0073809853
 30
0.0
 10
56191.8106018362
 20
23895.0133143563
 30
0.0
 10
55755.3765402815
 20
23895.0806127318
 30
0.0
 10
55318.94247493839
 20
23895.0937451528
 30
0.0
 10
54882.5084058004
 20
23895.0525967951
 30
0.0
  0
SPLINE
  5
7A
330
7B
100
AcDbEntity
  8
OUTER
 62
     3
370
    35
100
AcDbSpline
210
0.0
220
0.0
230
1.0
 70
     8
 71
     5
 72
    15
 73
     9
 74
     0
 42
0.000000001
 43
0.0000000001
 40
0.0
 40
0.0
 40
0.0
 40
0.0
 40
0.0
 40
0.0
 40
471.3101969847297
 40
638.0599707164517
 40
942.1595226681599
 40
1272.932832667746
 40
1272.932832667746
 40
1272.932832667746
 40
1272.932832667746
 40
1272.932832667746
 40
1272.932832667746
 10
54882.5084058004
 20
23895.0525967951
 30
0.0
 10
54888.70703798659
 20
23800.9945879375
 30
0.0
 10
54897.0914973994
 20
23673.6583372064
 30
0.0
 10
54909.7944786548
 20
23485.654851671
 30
0.0
 10
54926.91289678741
 20
23231.6453479557
 30
0.0
 10
54943.1047749168
 20
22977.571365625
 30
0.0
 10
54954.8689286388
 20
22817.6780083333
 30
0.0
 10
54964.1142394149
 20
22691.0404473142
 30
0.0
 10
54968.8361263933
 20
22625.0545163313
 30
0.0
  0
ENDBLK
  5
7E
330
7B
100
AcDbEntity
  8
0
100
AcDbBlockEnd
  0
BLOCK
  5
84
330
82
100
AcDbEntity
  8
0
100
AcDbBlockBegin
  2
V236_LW_LRO15_703 RT_TEXT_4
 70
     0
 10
0.0
 20
0.0
 30
0.0
  3
V236_LW_LRO15_703 RT_TEXT_4
  1

  0
TEXT
  5
83
330
82
100
AcDbEntity
  8
TEXT
 62
    14
370
    13
100
AcDbText
 10
-576.9687499999999
 20
371.351227
 30
0.0
 40
35.0
  1
V236_LW_LRO15_703 RT
 41
1.115672191088655
 72
     5
 11
30.23584
 21
371.351227
 31
0.0
100
AcDbText
  0
ENDBLK
  5
85
330
82
100
AcDbEntity
  8
0
100
AcDbBlockEnd
  0
BLOCK
  5
90
330
8E
100
AcDbEntity
  8
0
100
AcDbBlockBegin
  2
29276884_INF_GF_HM_BI45_1000_54_CHORDWISE_V1_V236_LW_LRO15_703_R0_I52_DXF
 70
     0
 10
0.0
 20
0.0
 30
0.0
  3
29276884_INF_GF_HM_BI45_1000_54_CHORDWISE_V1_V236_LW_LRO15_703_R0_I52_DXF
  1

  0
INSERT
  5
86
330
8E
100
AcDbEntity
  8
TEXT
 62
     7
370
     0
100
AcDbBlockReference
  2
V236_LW_LRO15_703 RT_TEXT_4
 10
56260.19921900001
 20
23400.0625
 30
0.0
  0
POINT
  5
87
330
8E
100
AcDbEntity
  8
STRATEGYPOINT
 62
     7
370
     5
100
AcDbPoint
 10
56260.19921900001
 20
23400.0625
 30
0.0
  0
LINE
  5
88
330
8E
100
AcDbEntity
  8
ROSETTE
 62
   150
370
    35
100
AcDbLine
 10
56360.199219
 20
23400.0625
 30
0.0
 11
56260.19921900001
 21
23400.0625
 31
0.0
  0
LINE
  5
89
330
8E
100
AcDbEntity
  8
ROSETTE
 62
   150
370
    35
100
AcDbLine
 10
56260.19921900001
 20
23400.0625
 30
0.0
 11
56260.19921900001
 21
23450.0625
 31
0.0
  0
SPLINE
  5
8A
330
8E
100
AcDbEntity
  8
OUTER
 62
     3
370
    35
100
AcDbSpline
210
0.0
220
0.0
230
1.0
 70
     8
 71
     5
 72
    12
 73
     6
 74
     0
 42
0.000000001
 43
0.0000000001
 40
0.0
 40
0.0
 40
0.0
 40
0.0
 40
0.0
 40
0.0
 40
1819.448409010362
 40
1819.448409010362
 40
1819.448409010362
 40
1819.448409010362
 40
1819.448409010362
 40
1819.448409010362
 10
54991.92816436409
 20
22555.0688928817
 30
0.0
 10
55355.8178013208
 20
22554.8882321798
 30
0.0
 10
55719.7074169474
 20
22554.9271678229
 30
0.0
 10
56083.5970534495
 20
22554.983568078
 30
0.0
 10
56447.486711814
 20
22555.0074040916
 30
0.0
 10
56811.3763899228
 20
22555.0592439389
 30
0.0
  0
SPLINE
  5
8B
330
8E
100
AcDbEntity
  8
OUTER
 62
     3
370
    35
100
AcDbSpline
210
0.0
220
0.0
230
1.0
 70
     8
 71
     5
 72
    16
 73
    10
 74
     0
 42
0.000000001
 43
0.0000000001
 40
0.0
 40
0.0
 40
0.0
 40
0.0
 40
0.0
 40
0.0
 40
307.9750068274831
 40
639.988098190818
 40
798.8634421344218
 40
948.8245210140268
 40
1269.994095055382
 40
1269.994095055382
 40
1269.994095055382
 40
1269.994095055382
 40
1269.994095055382
 40
1269.994095055382
 10
56811.3763899228
 20
22555.059243939
 30
0.0
 10
56811.1253643486
 20
22616.65373378491
 30
0.0
 10
56810.67501794309
 20
22744.6505128755
 30
0.0
 10
56810.30010810929
 20
22904.4227492879
 30
0.0
 10
56810.0677273624
 20
23094.1874754052
 30
0.0
 10
56809.9268917924
 20
23348.1861899943
 30
0.0
 10
56809.7481517376
 20
23540.5899110127
 30
0.0
 10
56809.6510431
 20
23666.5910508696
 30
0.0
 10
56809.679053957
 20
23760.8171344709
 30
0.0
 10
56809.748860311
 20
23825.0510113481
 30
0.0
  0
SPLINE
  5
8C
330
8E
100
AcDbEntity
  8
OUTER
 62
     3
370
    35
100
AcDbSpline
210
0.0
220
0.0
230
1.0
 70
     8
 71
     5
 72
    12
 73
     6
 74
     0
 42
0.000000001
 43
0.0000000001
 40
0.0
 40
0.0
 40
0.0
 40
0.0
 40
0.0
 40
0.0
 40
1904.563815564336
 40
1904.563815564336
 40
1904.563815564336
 40
1904.563815564336
 40
1904.563815564336
 40
1904.563815564336
 10
56809.7488603111
 20
23825.0510113481
 30
0.0
 10
56428.8360972044
 20
23825.0530898739
 30
0.0
 10
56047.92334221389
 20
23825.02405684
 30
0.0
 10
55667.0106141029
 20
23825.0767195413
 30
0.0
 10
55286.0977317636
 20
23825.4114507688
 30
0.0
 10
54905.1851574345
 20
23825.0322147403
 30
0.0
  0
SPLINE
  5
8D
330
8E
100
AcDbEntity
  8
OUTER
 62
     3
370
    35
100
AcDbSpline
210
0.0
220
0.0
230
1.0
 70
     8
 71
     5
 72
    15
 73
     9
 74
     0
 42
0.000000001
 43
0.0000000001
 40
0.0
 40
0.0
 40
0.0
 40
0.0
 40
0.0
 40
0.0
 40
506.8438803147609
 40
795.8544229438895
 40
946.3234280525147
 40
1272.928091758946
 40
1272.928091758946
 40
1272.928091758946
 40
1272.928091758946
 40
1272.928091758946
 40
1272.928091758946
 10
54905.1851574345
 20
23825.0322147403
 30
0.0
 10
54911.54699267629
 20
23723.8632678603
 30
0.0
 10
54922.2099605961
 20
23565.0498273237
 30
0.0
 10
54935.33769362599
 20
23376.2406064527
 30
0.0
 10
54951.53414583509
 20
23122.1691036396
 30
0.0
 10
54969.0230036001
 20
22868.1850486089
 30
0.0
 10
54980.16824713519
 20
22715.3738735979
 30
0.0
 10
54987.1450824982
 20
22620.2144712586
 30
0.0
 10
54991.92816436401
 20
22555.0688928817
 30
0.0
  0
ENDBLK
  5
91
330
8E
100
AcDbEntity
  8
0
100
AcDbBlockEnd
  0
BLOCK
  5
95
330
93
100
AcDbEntity
  8
0
100
AcDbBlockBegin
  2
V236_LW_LRO15_704 RT_TEXT_5
 70
     0
 10
0.0
 20
0.0
 30
0.0
  3
V236_LW_LRO15_704 RT_TEXT_5
  1

  0
TEXT
  5
94
330
93
100
AcDbEntity
  8
TEXT
 62
    14
370
    13
100
AcDbText
 10
-563.007812
 20
302.833649
 30
0.0
 40
35.0
  1
V236_LW_LRO15_704 RT
 41
1.1085432934733
 72
     5
 11
44.196777
 21
302.833649
 31
0.0
100
AcDbText
  0
ENDBLK
  5
96
330
93
100
AcDbEntity
  8
0
100
AcDbBlockEnd
  0
BLOCK
  5
A1
330
9F
100
AcDbEntity
  8
0
100
AcDbBlockBegin
  2
29276884_INF_GF_HM_BI45_1000_54_CHORDWISE_V1_V236_LW_LRO15_704_R0_I52_DXF
 70
     0
 10
0.0
 20
0.0
 30
0.0
  3
29276884_INF_GF_HM_BI45_1000_54_CHORDWISE_V1_V236_LW_LRO15_704_R0_I52_DXF
  1

  0
INSERT
  5
97
330
9F
100
AcDbEntity
  8
TEXT
 62
     7
370
     0
100
AcDbBlockReference
  2
V236_LW_LRO15_704 RT_TEXT_5
 10
56260.19921900001
 20
23400.0625
 30
0.0
  0
POINT
  5
98
330
9F
100
AcDbEntity
  8
STRATEGYPOINT
 62
     7
370
     5
100
AcDbPoint
 10
56260.19921900001
 20
23400.0625
 30
0.0
  0
LINE
  5
99
330
9F
100
AcDbEntity
  8
ROSETTE
 62
   150
370
    35
100
AcDbLine
 10
56360.199219
 20
23400.0625
 30
0.0
 11
56260.19921900001
 21
23400.0625
 31
0.0
  0
LINE
  5
9A
330
9F
100
AcDbEntity
  8
ROSETTE
 62
   150
370
    35
100
AcDbLine
 10
56260.19921900001
 20
23400.0625
 30
0.0
 11
56260.19921900001
 21
23450.0625
 31
0.0
  0
SPLINE
  5
9B
330
9F
100
AcDbEntity
  8
OUTER
 62
     3
370
    35
100
AcDbSpline
210
0.0
220
0.0
230
1.0
 70
     8
 71
     5
 72
    28
 73
    22
 74
     0
 42
0.000000001
 43
0.0000000001
 40
0.0
 40
0.0
 40
0.0
 40
0.0
 40
0.0
 40
0.0
 40
81.96637874242631
 40
184.5976229688672
 40
184.5976229688672
 40
418.6928575057811
 40
418.6928575057811
 40
629.3318094347766
 40
652.1391772255393
 40
754.7699522597159
 40
960.0316580958001
 40
960.0316580958001
 40
1085.469330470604
 40
1085.469330470604
 40
1324.941184654959
 40
1324.941184654959
 40
1559.042135005105
 40
1559.042135005105
 40
1778.122496885505
 40
1778.122496885505
 40
1778.122496885505
 40
1778.122496885505
 40
1778.122496885505
 40
1778.122496885505
 10
55015.0840153254
 20
22485.0478960929
 30
0.0
 10
55031.4771467279
 20
22485.1166899546
 30
0.0
 10
55068.3964138691
 20
22485.2026294523
 30
0.0
 10
55105.31582468679
 20
22485.1412291698
 30
0.0
 10
55189.0541827624
 20
22484.9958238533
 30
0.0
 10
55272.79276606321
 20
22485.0270323251
 30
0.0
 10
55382.2658402726
 20
22485.0826067583
 30
0.0
 10
55475.77437443369
 20
22485.0488783273
 30
0.0
 10
55589.80836826299
 20
22485.0877588856
 30
0.0
 10
55698.075179078
 20
22484.9897134625
 30
0.0
 10
55806.3428940823
 20
22485.0571842373
 30
0.0
 10
55897.57036188
 20
22485.0483247023
 30
0.0
 10
55984.2363905123
 20
22485.0650106411
 30
0.0
 10
56098.2706261983
 20
22485.0662742797
 30
0.0
 10
56171.2525348744
 20
22485.0743533926
 30
0.0
 10
56291.0546249305
 20
22485.0836371525
 30
0.0
 10
56385.7691852558
 20
22485.0726636294
 30
0.0
 10
56524.29981739519
 20
22485.0732084112
 30
0.0
 10
56614.93607852349
 20
22485.036110764
 30
0.0
 10
56705.5723353922
 20
22485.0683133544
 30
0.0
 10
56749.38840574619
 20
22485.0809793929
 30
0.0
 10
56793.2044771454
 20
22485.0902314576
 30
0.0
  0
SPLINE
  5
9C
330
9F
100
AcDbEntity
  8
OUTER
 62
     3
370
    35
100
AcDbSpline
210
0.0
220
0.0
230
1.0
 70
     8
 71
     5
 72
    15
 73
     9
 74
     0
 42
0.000000001
 43
0.0000000001
 40
0.0
 40
0.0
 40
0.0
 40
0.0
 40
0.0
 40
0.0
 40
458.8417481389462
 40
644.3338052245784
 40
812.3491273590726
 40
1269.985891187985
 40
1269.985891187985
 40
1269.985891187985
 40
1269.985891187985
 40
1269.985891187985
 40
1269.985891187985
 10
56793.20447714549
 20
22485.0902314576
 30
0.0
 10
56792.71357016769
 20
22576.8572680435
 30
0.0
 10
56791.9354253489
 20
22705.7216768232
 30
0.0
 10
56790.97383637651
 20
22868.1889063583
 30
0.0
 10
56789.9908949059
 20
23122.1842542601
 30
0.0
 10
56790.14213406651
 20
23376.1817921508
 30
0.0
 10
56790.108950799
 20
23538.4107046914
 30
0.0
 10
56790.00806581861
 20
23663.5410486233
 30
0.0
 10
56789.83743212731
 20
23755.0682423335
 30
0.0
  0
SPLINE
  5
9D
330
9F
100
AcDbEntity
  8
OUTER
 62
     3
370
    35
100
AcDbSpline
210
0.0
220
0.0
230
1.0
 70
     8
 71
     5
 72
    12
 73
     6
 74
     0
 42
0.000000001
 43
0.0000000001
 40
0.0
 40
0.0
 40
0.0
 40
0.0
 40
0.0
 40
0.0
 40
1862.096097772514
 40
1862.096097772514
 40
1862.096097772514
 40
1862.096097772514
 40
1862.096097772514
 40
1862.096097772514
 10
56789.83743212731
 20
23755.0682423335
 30
0.0
 10
56417.4182133819
 20
23755.0436954028
 30
0.0
 10
56044.99900204491
 20
23755.0494045511
 30
0.0
 10
55672.5797981015
 20
23755.085307077
 30
0.0
 10
55300.1605869467
 20
23755.0885065296
 30
0.0
 10
54927.74136856589
 20
23755.0589402076
 30
0.0
  0
SPLINE
  5
9E
330
9F
100
AcDbEntity
  8
OUTER
 62
     3
370
    35
100
AcDbSpline
210
0.0
220
0.0
230
1.0
 70
     8
 71
     5
 72
    16
 73
    10
 74
     0
 42
0.000000001
 43
0.0000000001
 40
0.0
 40
0.0
 40
0.0
 40
0.0
 40
0.0
 40
0.0
 40
332.9335017598752
 40
652.9190816663137
 40
961.5507791778068
 40
1122.90025460283
 40
1273.017059185448
 40
1273.017059185448
 40
1273.017059185448
 40
1273.017059185448
 40
1273.017059185448
 40
1273.017059185448
 10
54927.74136856589
 20
23755.0589402076
 30
0.0
 10
54932.0028809865
 20
23688.6087470128
 30
0.0
 10
54940.6285450622
 20
23558.3101943498
 30
0.0
 10
54953.96755553191
 20
23366.4623697342
 30
0.0
 10
54968.13882927821
 20
23142.3282625763
 30
0.0
 10
54985.3847478066
 20
22888.3092792963
 30
0.0
 10
54999.13506830599
 20
22700.7955603413
 30
0.0
 10
55008.2382475837
 20
22577.1103683052
 30
0.0
 10
55012.8532704294
 20
22514.9882698036
 30
0.0
 10
55015.0840153254
 20
22485.0478960929
 30
0.0
  0
ENDBLK
  5
A2
330
9F
100
AcDbEntity
  8
0
100
AcDbBlockEnd
  0
BLOCK
  5
A6
330
A4
100
AcDbEntity
  8
0
100
AcDbBlockBegin
  2
V236_LW_LRO15_705 RT_TEXT_6
 70
     0
 10
0.0
 20
0.0
 30
0.0
  3
V236_LW_LRO15_705 RT_TEXT_6
  1

  0
TEXT
  5
A5
330
A4
100
AcDbEntity
  8
TEXT
 62
    14
370
    13
100
AcDbText
 10
-565.761719
 20
229.513351
 30
0.0
 40
35.0
  1
V236_LW_LRO15_705 RT
 41
1.115672191088655
 72
     5
 11
41.442871
 21
229.513351
 31
0.0
100
AcDbText
  0
ENDBLK
  5
A7
330
A4
100
AcDbEntity
  8
0
100
AcDbBlockEnd
  0
BLOCK
  5
B2
330
B0
100
AcDbEntity
  8
0
100
AcDbBlockBegin
  2
29276884_INF_GF_HM_BI45_1000_54_CHORDWISE_V1_V236_LW_LRO15_705_R0_I52_DXF
 70
     0
 10
0.0
 20
0.0
 30
0.0
  3
29276884_INF_GF_HM_BI45_1000_54_CHORDWISE_V1_V236_LW_LRO15_705_R0_I52_DXF
  1

  0
INSERT
  5
A8
330
B0
100
AcDbEntity
  8
TEXT
 62
     7
370
     0
100
AcDbBlockReference
  2
V236_LW_LRO15_705 RT_TEXT_6
 10
56260.19921900001
 20
23400.0625
 30
0.0
  0
POINT
  5
A9
330
B0
100
AcDbEntity
  8
STRATEGYPOINT
 62
     7
370
     5
100
AcDbPoint
 10
56260.19921900001
 20
23400.0625
 30
0.0
  0
LINE
  5
AA
330
B0
100
AcDbEntity
  8
ROSETTE
 62
   150
370
    35
100
AcDbLine
 10
56360.199219
 20
23400.0625
 30
0.0
 11
56260.19921900001
 21
23400.0625
 31
0.0
  0
LINE
  5
AB
330
B0
100
AcDbEntity
  8
ROSETTE
 62
   150
370
    35
100
AcDbLine
 10
56260.19921900001
 20
23400.0625
 30
0.0
 11
56260.19921900001
 21
23450.0625
 31
0.0
  0
SPLINE
  5
AC
330
B0
100
AcDbEntity
  8
OUTER
 62
     3
370
    35
100
AcDbSpline
210
0.0
220
0.0
230
1.0
 70
     8
 71
     5
 72
    12
 73
     6
 74
     0
 42
0.000000001
 43
0.0000000001
 40
0.0
 40
0.0
 40
0.0
 40
0.0
 40
0.0
 40
0.0
 40
1736.79260437362
 40
1736.79260437362
 40
1736.79260437362
 40
1736.79260437362
 40
1736.79260437362
 40
1736.79260437362
 10
55038.39180652049
 20
22415.0695169423
 30
0.0
 10
55385.7502495704
 20
22414.8369940561
 30
0.0
 10
55733.1081485412
 20
22415.0245691335
 30
0.0
 10
56080.466406667
 20
22415.0202510731
 30
0.0
 10
56427.8250173382
 20
22414.8791746531
 30
0.0
 10
56775.18348759289
 20
22415.0667020567
 30
0.0
  0
SPLINE
  5
AD
330
B0
100
AcDbEntity
  8
OUTER
 62
     3
370
    35
100
AcDbSpline
210
0.0
220
0.0
230
1.0
 70
     8
 71
     5
 72
    16
 73
    10
 74
     0
 42
0.000000001
 43
0.0000000001
 40
0.0
 40
0.0
 40
0.0
 40
0.0
 40
0.0
 40
0.0
 40
320.0824640254037
 40
320.0824640254037
 40
635.6463642623376
 40
939.933726330995
 40
1270.013118754628
 40
1270.013118754628
 40
1270.013118754628
 40
1270.013118754628
 40
1270.013118754628
 40
1270.013118754628
 10
56775.18348759289
 20
22415.0667020567
 30
0.0
 10
56774.75433819449
 20
22479.0817563945
 30
0.0
 10
56774.2732105279
 20
22543.096437472
 30
0.0
 10
56773.2168198267
 20
22670.2214150266
 30
0.0
 10
56771.63455642189
 20
22858.2018368136
 30
0.0
 10
56770.1409919882
 20
23112.1998694582
 30
0.0
 10
56770.0678975143
 20
23302.1867353532
 30
0.0
 10
56770.0366721583
 20
23492.1730285411
 30
0.0
 10
56770.0578083809
 20
23619.0464170549
 30
0.0
 10
56770.08098365219
 20
23685.0622914717
 30
0.0
  0
SPLINE
  5
AE
330
B0
100
AcDbEntity
  8
OUTER
 62
     3
370
    35
100
AcDbSpline
210
0.0
220
0.0
230
1.0
 70
     8
 71
     5
 72
    14
 73
     8
 74
     0
 42
0.000000001
 43
0.0000000001
 40
0.0
 40
0.0
 40
0.0
 40
0.0
 40
0.0
 40
0.0
 40
898.8744799454323
 40
1479.091905236429
 40
1819.214675835907
 40
1819.214675835907
 40
1819.214675835907
 40
1819.214675835907
 40
1819.214675835907
 40
1819.214675835907
 10
56770.08098365219
 20
23685.0622914717
 30
0.0
 10
56590.30609908349
 20
23684.9982134021
 30
0.0
 10
56294.4877152859
 20
23685.04287413121
 30
0.0
 10
55930.6447642878
 20
23685.0973930853
 30
0.0
 10
55566.80197212361
 20
23684.9499507577
 30
0.0
 10
55202.9587034679
 20
23685.3076704471
 30
0.0
 10
55018.8908183587
 20
23685.1310393368
 30
0.0
 10
54950.86637235599
 20
23685.0097576567
 30
0.0
  0
SPLINE
  5
AF
330
B0
100
AcDbEntity
  8
OUTER
 62
     3
370
    35
100
AcDbSpline
210
0.0
220
0.0
230
1.0
 70
     8
 71
     5
 72
    15
 73
     9
 74
     0
 42
0.000000001
 43
0.0000000001
 40
0.0
 40
0.0
 40
0.0
 40
0.0
 40
0.0
 40
0.0
 40
285.5805753041583
 40
635.6958637479578
 40
839.0301390426124
 40
1272.960101659642
 40
1272.960101659642
 40
1272.960101659642
 40
1272.960101659642
 40
1272.960101659642
 40
1272.960101659642
 10
54950.86637235599
 20
23685.0097576567
 30
0.0
 10
54954.5140310668
 20
23628.0102384873
 30
0.0
 10
54962.89909185219
 20
23501.1479907943
 30
0.0
 10
54974.43553352409
 20
23333.7383316385
 30
0.0
 10
54990.41569216259
 20
23079.6465848269
 30
0.0
 10
55007.9484441337
 20
22825.658111158
 30
0.0
 10
55022.7715578525
 20
22628.738170655
 30
0.0
 10
55032.1452456539
 20
22501.6304144401
 30
0.0
 10
55038.39180652049
 20
22415.0695169423
 30
0.0
  0
ENDBLK
  5
B3
330
B0
100
AcDbEntity
  8
0
100
AcDbBlockEnd
  0
BLOCK
  5
B7
330
B5
100
AcDbEntity
  8
0
100
AcDbBlockBegin
  2
V236_LW_LRO15_706 RT_TEXT_7
 70
     0
 10
0.0
 20
0.0
 30
0.0
  3
V236_LW_LRO15_706 RT_TEXT_7
  1

  0
TEXT
  5
B6
330
B5
100
AcDbEntity
  8
TEXT
 62
    14
370
    13
100
AcDbText
 10
-554.824219
 20
163.30632
 30
0.0
 40
35.0
  1
V236_LW_LRO15_706 RT
 41
1.115672191088655
 72
     5
 11
52.380371
 21
163.30632
 31
0.0
100
AcDbText
  0
ENDBLK
  5
B8
330
B5
100
AcDbEntity
  8
0
100
AcDbBlockEnd
  0
BLOCK
  5
C3
330
C1
100
AcDbEntity
  8
0
100
AcDbBlockBegin
  2
29276884_INF_GF_HM_BI45_1000_54_CHORDWISE_V1_V236_LW_LRO15_706_R0_I52_DXF
 70
     0
 10
0.0
 20
0.0
 30
0.0
  3
29276884_INF_GF_HM_BI45_1000_54_CHORDWISE_V1_V236_LW_LRO15_706_R0_I52_DXF
  1

  0
INSERT
  5
B9
330
C1
100
AcDbEntity
  8
TEXT
 62
     7
370
     0
100
AcDbBlockReference
  2
V236_LW_LRO15_706 RT_TEXT_7
 10
56260.19921900001
 20
23400.0625
 30
0.0
  0
POINT
  5
BA
330
C1
100
AcDbEntity
  8
STRATEGYPOINT
 62
     7
370
     5
100
AcDbPoint
 10
56260.19921900001
 20
23400.0625
 30
0.0
  0
LINE
  5
BB
330
C1
100
AcDbEntity
  8
ROSETTE
 62
   150
370
    35
100
AcDbLine
 10
56360.199219
 20
23400.0625
 30
0.0
 11
56260.19921900001
 21
23400.0625
 31
0.0
  0
LINE
  5
BC
330
C1
100
AcDbEntity
  8
ROSETTE
 62
   150
370
    35
100
AcDbLine
 10
56260.19921900001
 20
23400.0625
 30
0.0
 11
56260.19921900001
 21
23450.0625
 31
0.0
  0
SPLINE
  5
BD
330
C1
100
AcDbEntity
  8
OUTER
 62
     3
370
    35
100
AcDbSpline
210
0.0
220
0.0
230
1.0
 70
     8
 71
     5
 72
    12
 73
     6
 74
     0
 42
0.000000001
 43
0.0000000001
 40
0.0
 40
0.0
 40
0.0
 40
0.0
 40
0.0
 40
0.0
 40
1694.010875460793
 40
1694.010875460793
 40
1694.010875460793
 40
1694.010875460793
 40
1694.010875460793
 40
1694.010875460793
 10
55061.9165101374
 20
22345.061336111
 30
0.0
 10
55400.71868512209
 20
22345.0527764809
 30
0.0
 10
55739.5208366129
 20
22345.0566722096
 30
0.0
 10
56078.322975496
 20
22345.0674692849
 30
0.0
 10
56417.125127065
 20
22345.072221103
 30
0.0
 10
56755.927302089
 20
22345.0654204489
 30
0.0
  0
SPLINE
  5
BE
330
C1
100
AcDbEntity
  8
OUTER
 62
     3
370
    35
100
AcDbSpline
210
0.0
220
0.0
230
1.0
 70
     8
 71
     5
 72
    15
 73
     9
 74
     0
 42
0.000000001
 43
0.0000000001
 40
0.0
 40
0.0
 40
0.0
 40
0.0
 40
0.0
 40
0.0
 40
622.2038884982226
 40
622.2038884982226
 40
954.8314125963283
 40
1270.016849817497
 40
1270.016849817497
 40
1270.016849817497
 40
1270.016849817497
 40
1270.016849817497
 40
1270.016849817497
 10
56755.927302089
 20
22345.0654204489
 30
0.0
 10
56754.6089979159
 20
22469.499215009
 30
0.0
 10
56753.46881360709
 20
22593.9355493658
 30
0.0
 10
56753.0392632609
 20
22784.9024965717
 30
0.0
 10
56750.0116827228
 20
23038.8933700949
 30
0.0
 10
56750.49110074169
 20
23292.9013939404
 30
0.0
 10
56749.770762688
 20
23422.4623921339
 30
0.0
 10
56750.285437837
 20
23552.025217783
 30
0.0
 10
56750.22851700969
 20
23615.0622795283
 30
0.0
  0
SPLINE
  5
BF
330
C1
100
AcDbEntity
  8
OUTER
 62
     3
370
    35
100
AcDbSpline
210
0.0
220
0.0
230
1.0
 70
     8
 71
     5
 72
    12
 73
     6
 74
     0
 42
0.000000001
 43
0.0000000001
 40
0.0
 40
0.0
 40
0.0
 40
0.0
 40
0.0
 40
0.0
 40
1775.220843199561
 40
1775.220843199561
 40
1775.220843199561
 40
1775.220843199561
 40
1775.220843199561
 40
1775.220843199561
 10
56750.22851700969
 20
23615.0622795283
 30
0.0
 10
56395.184351634
 20
23615.1104184507
 30
0.0
 10
56040.1401883459
 20
23615.1241581737
 30
0.0
 10
55685.09602667981
 20
23615.1063564243
 30
0.0
 10
55330.051862121
 20
23615.0846359285
 30
0.0
 10
54975.0076942119
 20
23615.0618552364
 30
0.0
  0
SPLINE
  5
C0
330
C1
100
AcDbEntity
  8
OUTER
 62
     3
370
    35
100
AcDbSpline
210
0.0
220
0.0
230
1.0
 70
     8
 71
     5
 72
    18
 73
    12
 74
     0
 42
0.000000001
 43
0.0000000001
 40
0.0
 40
0.0
 40
0.0
 40
0.0
 40
0.0
 40
0.0
 40
248.9360725756722
 40
331.1190678882759
 40
483.1908891320023
 40
806.739918124593
 40
951.8274954261686
 40
1110.106297511461
 40
1272.977856503551
 40
1272.977856503551
 40
1272.977856503551
 40
1272.977856503551
 40
1272.977856503551
 40
1272.977856503551
 10
54975.0076942119
 20
23615.0618552364
 30
0.0
 10
54978.29605842889
 20
23565.3833549576
 30
0.0
 10
54982.6959656753
 20
23499.305858575
 30
0.0
 10
54989.126217144
 20
23402.8818801205
 30
0.0
 10
54999.5083999779
 20
23241.868183374
 30
0.0
 10
55011.7032596417
 20
23051.8938303979
 30
0.0
 10
55023.03161706519
 20
22880.03142458701
 30
0.0
 10
55036.7447262884
 20
22692.1589695265
 30
0.0
 10
55048.15363380049
 20
22534.6142074286
 30
0.0
 10
55055.032312216
 20
22441.6205332019
 30
0.0
 10
55059.6296512524
 20
22377.5552750164
 30
0.0
 10
55061.91651013749
 20
22345.061336111
 30
0.0
  0
ENDBLK
  5
C4
330
C1
100
AcDbEntity
  8
0
100
AcDbBlockEnd
  0
BLOCK
  5
C8
330
C6
100
AcDbEntity
  8
0
100
AcDbBlockBegin
  2
V236_LW_LRO15_707 RT_TEXT_8
 70
     0
 10
0.0
 20
0.0
 30
0.0
  3
V236_LW_LRO15_707 RT_TEXT_8
  1

  0
TEXT
  5
C7
330
C6
100
AcDbEntity
  8
TEXT
 62
    14
370
    13
100
AcDbText
 10
-544.3164059999999
 20
8.556314
 30
0.0
 40
35.0
  1
V236_LW_LRO15_707 RT
 41
1.115672191088654
 72
     5
 11
62.888184
 21
8.556314
 31
0.0
100
AcDbText
  0
ENDBLK
  5
C9
330
C6
100
AcDbEntity
  8
0
100
AcDbBlockEnd
  0
BLOCK
  5
D4
330
D2
100
AcDbEntity
  8
0
100
AcDbBlockBegin
  2
29276884_INF_GF_HM_BI45_1000_54_CHORDWISE_V1_V236_LW_LRO15_707_R0_I52_DXF
 70
     0
 10
0.0
 20
0.0
 30
0.0
  3
29276884_INF_GF_HM_BI45_1000_54_CHORDWISE_V1_V236_LW_LRO15_707_R0_I52_DXF
  1

  0
INSERT
  5
CA
330
D2
100
AcDbEntity
  8
TEXT
 62
     7
370
     0
100
AcDbBlockReference
  2
V236_LW_LRO15_707 RT_TEXT_8
 10
56260.19921900001
 20
23400.0625
 30
0.0
  0
POINT
  5
CB
330
D2
100
AcDbEntity
  8
STRATEGYPOINT
 62
     7
370
     5
100
AcDbPoint
 10
56260.19921900001
 20
23400.0625
 30
0.0
  0
LINE
  5
CC
330
D2
100
AcDbEntity
  8
ROSETTE
 62
   150
370
    35
100
AcDbLine
 10
56360.199219
 20
23400.0625
 30
0.0
 11
56260.19921900001
 21
23400.0625
 31
0.0
  0
LINE
  5
CD
330
D2
100
AcDbEntity
  8
ROSETTE
 62
   150
370
    35
100
AcDbLine
 10
56260.19921900001
 20
23400.0625
 30
0.0
 11
56260.19921900001
 21
23450.0625
 31
0.0
  0
SPLINE
  5
CE
330
D2
100
AcDbEntity
  8
OUTER
 62
     3
370
    35
100
AcDbSpline
210
0.0
220
0.0
230
1.0
 70
     8
 71
     5
 72
    21
 73
    15
 74
     0
 42
0.000000001
 43
0.0000000001
 40
0.0
 40
0.0
 40
0.0
 40
0.0
 40
0.0
 40
0.0
 40
143.2637086335759
 40
263.1329110387912
 40
483.2885831273222
 40
578.920703743818
 40
824.0304831354825
 40
824.0304831354825
 40
1216.467184605111
 40
1216.467184605111
 40
1216.467184605111
 40
1648.921284172571
 40
1648.921284172571
 40
1648.921284172571
 40
1648.921284172571
 40
1648.921284172571
 40
1648.921284172571
 10
55086.2356669641
 20
22275.0837774726
 30
0.0
 10
55114.8880607388
 20
22274.9425703305
 30
0.0
 10
55167.5143364174
 20
22274.83451429431
 30
0.0
 10
55264.17243863821
 20
22275.0709233033
 30
0.0
 10
55379.9566375504
 20
22275.0615081189
 30
0.0
 10
55544.7626390962
 20
22275.0750218035
 30
0.0
 10
55680.91573917099
 20
22275.0267883087
 30
0.0
 10
55871.5826340453
 20
22275.0493332446
 30
0.0
 10
56018.2183444132
 20
22275.1081154229
 30
0.0
 10
56145.7276364865
 20
22275.0973323394
 30
0.0
 10
56310.7057979806
 20
22275.0397210391
 30
0.0
 10
56475.6839543318
 20
22275.0558221598
 30
0.0
 10
56562.1747635549
 20
22275.0766091991
 30
0.0
 10
56648.6655794182
 20
22275.0710907696
 30
0.0
 10
56735.1563988219
 20
22275.0616993751
 30
0.0
  0
SPLINE
  5
CF
330
D2
100
AcDbEntity
  8
OUTER
 62
     3
370
    35
100
AcDbSpline
210
0.0
220
0.0
230
1.0
 70
     8
 71
     5
 72
    16
 73
    10
 74
     0
 42
0.000000001
 43
0.0000000001
 40
0.0
 40
0.0
 40
0.0
 40
0.0
 40
0.0
 40
0.0
 40
328.079034105243
 40
476.8406698064615
 40
625.6033281505366
 40
901.8740675963794
 40
1211.774451321209
 40
1211.774451321209
 40
1211.774451321209
 40
1211.774451321209
 40
1211.774451321209
 40
1211.774451321209
 10
56735.1563988219
 20
22275.0616993751
 30
0.0
 10
56734.4929017394
 20
22340.6741515196
 30
0.0
 10
56733.51500293629
 20
22436.0371986357
 30
0.0
 10
56732.30351735691
 20
22561.1536459804
 30
0.0
 10
56732.49396826149
 20
22741.5308026716
 30
0.0
 10
56730.3827190858
 20
22983.8793945286
 30
0.0
 10
56731.1800128682
 20
23160.6218849209
 30
0.0
 10
56730.29808311889
 20
23307.6065570578
 30
0.0
 10
56730.33190114139
 20
23424.841133933
 30
0.0
 10
56730.18427610459
 20
23486.82103487
 30
0.0
  0
SPLINE
  5
D0
330
D2
100
AcDbEntity
  8
OUTER
 62
     3
370
    35
100
AcDbSpline
210
0.0
220
0.0
230
1.0
 70
     8
 71
     5
 72
    15
 73
     9
 74
     0
 42
0.000000001
 43
0.0000000001
 40
0.0
 40
0.0
 40
0.0
 40
0.0
 40
0.0
 40
0.0
 40
438.1754644132834
 40
874.0318494923853
 40
1321.587420370503
 40
1722.780694487227
 40
1722.780694487227
 40
1722.780694487227
 40
1722.780694487227
 40
1722.780694487227
 40
1722.780694487227
 10
56730.18427610469
 20
23486.8210348701
 30
0.0
 10
56642.5573076542
 20
23485.6277600821
 30
0.0
 10
56467.77198828679
 20
23482.9323003784
 30
0.0
 10
56203.5009585686
 20
23477.8709012175
 30
0.0
 10
55859.059211452
 20
23468.8453274839
 30
0.0
 10
55514.6974802924
 20
23456.9476165923
 30
0.0
 10
55258.0095015748
 20
23445.8492967836
 30
0.0
 10
55088.4855068957
 20
23437.1221954072
 30
0.0
 10
55008.3698760982
 20
23432.6806382774
 30
0.0
  0
SPLINE
  5
D1
330
D2
100
AcDbEntity
  8
OUTER
 62
     3
370
    35
100
AcDbSpline
210
0.0
220
0.0
230
1.0
 70
     8
 71
     5
 72
    25
 73
    19
 74
     0
 42
0.000000001
 43
0.0000000001
 40
0.0
 40
0.0
 40
0.0
 40
0.0
 40
0.0
 40
0.0
 40
308.3208559524887
 40
308.3208559524887
 40
308.3208559524887
 40
469.2427675893223
 40
522.4780994158428
 40
522.4780994158428
 40
628.9820270489719
 40
692.8819360009672
 40
771.5969539213687
 40
916.54052982565
 40
916.54052982565
 40
1033.713481815418
 40
1033.713481815418
 40
1160.223977094317
 40
1160.223977094317
 40
1160.223977094317
 40
1160.223977094317
 40
1160.223977094317
 40
1160.223977094317
 10
55008.3698760982
 20
23432.6806382774
 30
0.0
 10
55012.2946370109
 20
23371.1414941463
 30
0.0
 10
55016.2546595822
 20
23309.6046206424
 30
0.0
 10
55020.3153268298
 20
23248.0742149576
 30
0.0
 10
55026.3885754581
 20
23154.4223586379
 30
0.0
 10
55033.07460612321
 20
23050.1408644517
 30
0.0
 10
55035.7721125913
 20
23007.3944554452
 30
0.0
 10
55039.7851579035
 20
22943.38779714991
 30
0.0
 10
55044.781835722
 20
22866.6382224163
 30
0.0
 10
55048.7944057817
 20
22806.3005632427
 30
0.0
 10
55054.2469508817
 20
22727.6780864741
 30
0.0
 10
55059.6127109091
 20
22649.0497430403
 30
0.0
 10
55065.1211456324
 20
22568.2906091742
 30
0.0
 10
55069.7787261688
 20
22500.2837550144
 30
0.0
 10
55075.2777842567
 20
22422.7530769526
 30
0.0
 10
55078.8039874854
 20
22374.1442638167
 30
0.0
 10
55082.27539286799
 20
22325.532063623
 30
0.0
 10
55084.1850396974
 20
22300.302642325
 30
0.0
 10
55086.2356669641
 20
22275.0837774726
 30
0.0
  0
ENDBLK
  5
D5
330
D2
100
AcDbEntity
  8
0
100
AcDbBlockEnd
  0
BLOCK
  5
DA
330
D8
100
AcDbEntity
  8
0
100
AcDbBlockBegin
  2
V236_LW_LRO15_708 RT_TEXT_9
 70
     0
 10
0.0
 20
0.0
 30
0.0
  3
V236_LW_LRO15_708 RT_TEXT_9
  1

  0
TEXT
  5
D9
330
D8
100
AcDbEntity
  8
TEXT
 62
    14
370
    13
100
AcDbText
 10
-396.75
 20
144.954758
 30
0.0
 40
35.0
  1
V236_LW_LRO15_708 RT
 41
1.115672191088655
 72
     5
 11
210.45459
 21
144.954758
 31
0.0
100
AcDbText
  0
ENDBLK
  5
DB
330
D8
100
AcDbEntity
  8
0
100
AcDbBlockEnd
  0
BLOCK
  5
ED
330
EB
100
AcDbEntity
  8
0
100
AcDbBlockBegin
  2
29276884_INF_GF_HM_BI45_1000_54_CHORDWISE_V1_V236_LW_LRO15_708_R1_I5_DXF
 70
     0
 10
0.0
 20
0.0
 30
0.0
  3
29276884_INF_GF_HM_BI45_1000_54_CHORDWISE_V1_V236_LW_LRO15_708_R1_I5_DXF
  1

  0
INSERT
  5
DC
330
EB
100
AcDbEntity
  8
TEXT
 62
     7
370
     0
100
AcDbBlockReference
  2
V236_LW_LRO15_708 RT_TEXT_9
 10
56260.19921900001
 20
22650.0625
 30
0.0
  0
POINT
  5
DD
330
EB
100
AcDbEntity
  8
STRATEGYPOINT
 62
     7
370
     5
100
AcDbPoint
 10
56260.19921900001
 20
22650.0625
 30
0.0
  0
LINE
  5
DE
330
EB
100
AcDbEntity
  8
MARKERS
 62
     5
370
    35
100
AcDbLine
 10
57088.199219
 20
23400.0625
 30
0.0
 11
54904.199219
 21
23400.0625
 31
0.0
  0
LINE
  5
DF
330
EB
100
AcDbEntity
  8
MARKERS
 62
     5
370
    35
100
AcDbLine
 10
57087.19921900001
 20
23100.0625
 30
0.0
 11
54926.19921900001
 21
23100.0625
 31
0.0
  0
LINE
  5
E0
330
EB
100
AcDbEntity
  8
MARKERS
 62
     5
370
    35
100
AcDbLine
 10
57087.19921900001
 20
22800.0625
 30
0.0
 11
54946.199219
 21
22800.0625
 31
0.0
  0
LINE
  5
E1
330
EB
100
AcDbEntity
  8
MARKERS
 62
     5
370
    35
100
AcDbLine
 10
56767.19921900001
 20
22500.0625
 30
0.0
 11
55041.199219
 21
22500.0625
 31
0.0
  0
LINE
  5
E2
330
EB
100
AcDbEntity
  8
MARKERS
 62
     5
370
    35
100
AcDbLine
 10
56700.19921900001
 20
22300.0625
 30
0.0
 11
55120.19921900001
 21
22300.0625
 31
0.0
  0
LINE
  5
E3
330
EB
100
AcDbEntity
  8
MARKERS
 62
     5
370
    35
100
AcDbLine
 10
57088.199219
 20
23700.0625
 30
0.0
 11
54886.19921900001
 21
23700.0625
 31
0.0
  0
LINE
  5
E4
330
EB
100
AcDbEntity
  8
MARKERS
 62
     5
370
    35
100
AcDbLine
 10
57090.19921900001
 20
23900.0625
 30
0.0
 11
54873.19921900001
 21
23900.0625
 31
0.0
  0
LINE
  5
E5
330
EB
100
AcDbEntity
  8
ROSETTE
 62
   150
370
    35
100
AcDbLine
 10
56360.199219
 20
22650.0625
 30
0.0
 11
56260.19921900001
 21
22650.0625
 31
0.0
  0
LINE
  5
E6
330
EB
100
AcDbEntity
  8
ROSETTE
 62
   150
370
    35
100
AcDbLine
 10
56260.19921900001
 20
22650.0625
 30
0.0
 11
56260.19921900001
 21
22700.0625
 31
0.0
  0
SPLINE
  5
E7
330
EB
100
AcDbEntity
  8
OUTER
 62
     3
370
    35
100
AcDbSpline
210
0.0
220
0.0
230
1.0
 70
     8
 71
     5
 72
    15
 73
     9
 74
     0
 42
0.000000001
 43
0.0000000001
 40
0.0
 40
0.0
 40
0.0
 40
0.0
 40
0.0
 40
0.0
 40
189.0205150875875
 40
584.9121191919187
 40
798.0845174028137
 40
1601.254098711985
 40
1601.254098711985
 40
1601.254098711985
 40
1601.254098711985
 40
1601.254098711985
 40
1601.254098711985
 10
55111.9029881608
 20
22205.0767596461
 30
0.0
 10
55149.706979149
 20
22204.9847252347
 30
0.0
 10
55266.68918576929
 20
22204.8106813935
 30
0.0
 10
55426.3063226026
 20
22205.0234351361
 30
0.0
 10
55746.55722352759
 20
22205.1362364214
 30
0.0
 10
56066.8079270852
 20
22205.0061636691
 30
0.0
 10
56349.2546818604
 20
22205.0761428069
 30
0.0
 10
56552.5230472342
 20
22205.0708149671
 30
0.0
 10
56713.1569634157
 20
22205.0657319118
 30
0.0
  0
SPLINE
  5
E8
330
EB
100
AcDbEntity
  8
OUTER
 62
     3
370
    35
100
AcDbSpline
210
0.0
220
0.0
230
1.0
 70
     8
 71
     5
 72
    12
 73
     6
 74
     0
 42
0.000000001
 43
0.0000000001
 40
0.0
 40
0.0
 40
0.0
 40
0.0
 40
0.0
 40
0.0
 40
655.6532943181864
 40
655.6532943181864
 40
655.6532943181864
 40
655.6532943181864
 40
655.6532943181864
 40
655.6532943181864
 10
56713.1569634157
 20
22205.0657319118
 30
0.0
 10
56712.8567459673
 20
22336.1960471081
 30
0.0
 10
56711.7771522515
 20
22467.3242640715
 30
0.0
 10
56711.8559614358
 20
22598.4551472893
 30
0.0
 10
56711.8988682994
 20
22729.5860177378
 30
0.0
 10
56711.5947906908
 20
22860.7163240398
 30
0.0
  0
SPLINE
  5
E9
330
EB
100
AcDbEntity
  8
OUTER
 62
     3
370
    35
100
AcDbSpline
210
0.0
220
0.0
230
1.0
 70
     8
 71
     5
 72
    20
 73
    14
 74
     0
 42
0.000000001
 43
0.0000000001
 40
0.0
 40
0.0
 40
0.0
 40
0.0
 40
0.0
 40
0.0
 40
416.2984859756618
 40
725.6306065837817
 40
817.646157071862
 40
931.2891353471583
 40
1030.334845435635
 40
1228.087389213396
 40
1327.452149404549
 40
1434.140420175286
 40
1639.346335900489
 40
1639.346335900489
 40
1639.346335900489
 40
1639.346335900489
 40
1639.346335900489
 40
1639.346335900489
 10
56711.5947906908
 20
22860.7163240398
 30
0.0
 10
56628.3386159196
 20
22859.9504654079
 30
0.0
 10
56483.23520374139
 20
22857.2571502918
 30
0.0
 10
56319.725678619
 20
22854.6139813245
 30
0.0
 10
56133.52616534389
 20
22849.9732002661
 30
0.0
 10
55927.52462539589
 20
22844.6554513016
 30
0.0
 10
55765.26148936769
 20
22839.1268209735
 30
0.0
 10
55644.9863915901
 20
22834.4840291362
 30
0.0
 10
55521.74404694629
 20
22830.7003191175
 30
0.0
 10
55380.249205004
 20
22824.9564640056
 30
0.0
 10
55258.56541237059
 20
22819.5706396703
 30
0.0
 10
55176.38978176919
 20
22815.9315304384
 30
0.0
 10
55114.1085903607
 20
22812.4660455185
 30
0.0
 10
55073.1523247325
 20
22809.8272920746
 30
0.0
  0
SPLINE
  5
EA
330
EB
100
AcDbEntity
  8
OUTER
 62
     3
370
    35
100
AcDbSpline
210
0.0
220
0.0
230
1.0
 70
     8
 71
     5
 72
    13
 73
     7
 74
     0
 42
0.000000001
 43
0.0000000001
 40
0.0
 40
0.0
 40
0.0
 40
0.0
 40
0.0
 40
0.0
 40
457.5742793422587
 40
605.9954259156236
 40
605.9954259156236
 40
605.9954259156236
 40
605.9954259156236
 40
605.9954259156236
 40
605.9954259156236
 10
55073.1523247325
 20
22809.8272920746
 30
0.0
 10
55078.51469464941
 20
22718.4696769927
 30
0.0
 10
55085.8041794657
 20
22597.489818495
 30
0.0
 10
55093.11776654389
 20
22476.5106317001
 30
0.0
 10
55101.61763590709
 20
22355.6091178911
 30
0.0
 10
55109.889121462
 20
22234.6925968101
 30
0.0
 10
55111.9029881608
 20
22205.0767596461
 30
0.0
  0
ENDBLK
  5
EE
330
EB
100
AcDbEntity
  8
0
100
AcDbBlockEnd
  0
ENDSEC
  0
SECTION
  2
ENTITIES
  0
INSERT
  5
135
330
1F
100
AcDbEntity
  8
TEXT
 62
     7
370
     0
100
AcDbBlockReference
  2
V236_LW_LRO15_700 RT_TEXT_1
 10
56260.19921900001
 20
23400.0625
 30
0.0
  0
POINT
  5
136
330
1F
100
AcDbEntity
  8
STRATEGYPOINT
 62
     7
370
     5
100
AcDbPoint
 10
56260.19921900001
 20
23400.0625
 30
0.0
  0
LINE
  5
137
330
1F
100
AcDbEntity
  8
ROSETTE
 62
   150
370
    35
100
AcDbLine
 10
56360.199219
 20
23400.0625
 30
0.0
 11
56260.19921900001
 21
23400.0625
 31
0.0
  0
LINE
  5
138
330
1F
100
AcDbEntity
  8
ROSETTE
 62
   150
370
    35
100
AcDbLine
 10
56260.19921900001
 20
23400.0625
 30
0.0
 11
56260.19921900001
 21
23450.0625
 31
0.0
  0
SPLINE
  5
13C
330
1F
100
AcDbEntity
  8
OUTER
 62
     3
370
    35
100
AcDbSpline
210
0.0
220
0.0
230
1.0
 70
     8
 71
     5
 72
    31
 73
    25
 74
     0
 42
0.000000001
 43
0.0000000001
 40
0.0
 40
0.0
 40
0.0
 40
0.0
 40
0.0
 40
0.0
 40
660.5655769450042
 40
967.142165520166
 40
1270.007458253656
 40
1270.007458253656
 40
1270.007458253656
 40
1270.007458253656
 40
1270.007458253656
 40
3596.815963419218
 40
3596.815963419218
 40
3596.815963419218
 40
3596.815963419218
 40
3596.815963419218
 40
3914.770606622629
 40
4386.862475471069
 40
4869.706813710752
 40
4869.706813710752
 40
4869.706813710752
 40
4869.706813710752
 40
4869.706813710752
 40
7110.290299536171
 40
7110.290299536171
 40
7110.290299536171
 40
7110.290299536171
 40
7110.290299536171
 40
7110.290299536171
 10
57162.76003349769
 20
22765.0454069858
 30
0.0
 10
57163.0888277015
 20
22897.1581132339
 30
0.0
 10
57163.28566577639
 20
23090.58638396
 30
0.0
 10
57163.1055613375
 20
23344.5881621533
 30
0.0
 10
57163.4429088405
 20
23598.589114629
 30
0.0
 10
57162.99879800599
 20
23852.5913987463
 30
0.0
 10
57163.1786209831
 20
23974.4795049374
 30
0.0
 10
57163.3840922832
 20
24035.0522149911
 30
0.0
 10
56698.0223912666
 20
24035.0483266313
 30
0.0
 10
56232.6607481988
 20
24035.044645555
 30
0.0
 10
55767.2991630222
 20
24035.0411768318
 30
0.0
 10
55301.9375201053
 20
24035.0480423469
 30
0.0
 10
54836.5758193903
 20
24035.0652471697
 30
0.0
 10
54840.9638047065
 20
23971.6258919535
 30
0.0
 10
54851.56312269599
 20
23813.9727544604
 30
0.0
 10
54867.738807175
 20
23559.9067302904
 30
0.0
 10
54885.92279339269
 20
23305.9783114155
 30
0.0
 10
54901.64051505959
 20
23051.8800549301
 30
0.0
 10
54915.0490899117
 20
22861.3638218016
 30
0.0
 10
54922.1768083585
 20
22765.0583607491
 30
0.0
 10
55370.293505473
 20
22765.0652146349
 30
0.0
 10
55818.40988637019
 20
22765.0718010886
 30
0.0
 10
56266.5265516873
 20
22764.8634028484
 30
0.0
 10
56714.643526122
 20
22765.4578333932
 30
0.0
 10
57162.76003349759
 20
22765.0454069858
 30
0.0
  0
INSERT
  5
13D
330
1F
100
AcDbEntity
  8
TEXT
 62
     7
370
     0
100
AcDbBlockReference
  2
V236_LW_LRO15_701 RT_TEXT_2
 10
56260.19921900001
 20
23400.0625
 30
0.0
  0
POINT
  5
13E
330
1F
100
AcDbEntity
  8
STRATEGYPOINT
 62
     7
370
     5
100
AcDbPoint
 10
56260.19921900001
 20
23400.0625
 30
0.0
  0
LINE
  5
13F
330
1F
100
AcDbEntity
  8
ROSETTE
 62
   150
370
    35
100
AcDbLine
 10
56360.199219
 20
23400.0625
 30
0.0
 11
56260.19921900001
 21
23400.0625
 31
0.0
  0
LINE
  5
140
330
1F
100
AcDbEntity
  8
ROSETTE
 62
   150
370
    35
100
AcDbLine
 10
56260.19921900001
 20
23400.0625
 30
0.0
 11
56260.19921900001
 21
23450.0625
 31
0.0
  0
SPLINE
  5
144
330
1F
100
AcDbEntity
  8
OUTER
 62
     3
370
    35
100
AcDbSpline
210
0.0
220
0.0
230
1.0
 70
     9
 71
     5
 72
    48
 73
    42
 74
     0
 42
0.000000001
 43
0.0000000001
 40
0.0
 40
0.0
 40
0.0
 40
0.0
 40
0.0
 40
0.0
 40
302.7399097167284
 40
302.7399097167284
 40
630.0620695364743
 40
782.3159361955518
 40
880.9889027734367
 40
1269.996823279402
 40
1269.996823279402
 40
1269.996823279402
 40
1269.996823279402
 40
1269.996823279402
 40
3524.318714319741
 40
3524.318714319741
 40
3524.318714319741
 40
3524.318714319741
 40
3524.318714319741
 40
3838.546031340889
 40
4158.672001397905
 40
4468.702082247376
 40
4619.677352423075
 40
4797.133666274401
 40
4797.133666274401
 40
4797.133666274401
 40
4797.133666274401
 40
4797.133666274401
 40
4917.458921748824
 40
5043.166307851684
 40
5316.032685453105
 40
5332.999607998407
 40
5483.138343155182
 40
5622.042901855087
 40
5872.827795520087
 40
5948.251574193712
 40
6144.590869470119
 40
6307.164959227435
 40
6539.071095627027
 40
6681.707404226957
 40
6964.976829401971
 40
6964.976829401971
 40
6964.976829401971
 40
6964.976829401971
 40
6964.976829401971
 40
6964.976829401971
 10
57113.50625619379
 20
22695.0631569468
 30
0.0
 10
57113.58595913929
 20
22755.6110864313
 30
0.0
 10
57113.70102908889
 20
22816.1589495644
 30
0.0
 10
57113.99423389009
 20
22942.1710133474
 30
0.0
 10
57114.11511556759
 20
23098.634016456
 30
0.0
 10
57114.07807953
 20
23274.8317930097
 30
0.0
 10
57114.10596747
 20
23468.28313923
 30
0.0
 10
57114.1563083518
 20
23661.7344664027
 30
0.0
 10
57114.33826858559
 20
23789.7215173836
 30
0.0
 10
57114.2963155446
 20
23887.2576252825
 30
0.0
 10
57114.0776909351
 20
23965.0589022125
 30
0.0
 10
56663.2133130802
 20
23965.0767406461
 30
0.0
 10
56212.3489446597
 20
23965.1103261577
 30
0.0
 10
55761.484585531
 20
23965.1585045956
 30
0.0
 10
55310.6202239831
 20
23965.1268004801
 30
0.0
 10
54859.75585987259
 20
23965.0140520736
 30
0.0
 10
54864.02476235969
 20
23902.3137431267
 30
0.0
 10
54872.3821349213
 20
23775.7186694468
 30
0.0
 10
54884.5094324603
 20
23587.2311402221
 30
0.0
 10
54900.0275944519
 20
23368.7079608276
 30
0.0
 10
54915.99020542719
 20
23114.64406923259
 30
0.0
 10
54929.0550296083
 20
22923.3713941509
 30
0.0
 10
54938.465673971
 20
22796.0259761294
 30
0.0
 10
54943.17502140259
 20
22730.5087088901
 30
0.0
 10
54945.6649323902
 20
22695.1048944586
 30
0.0
 10
54969.72992525209
 20
22695.0519533458
 30
0.0
 10
55018.9362597186
 20
22694.9858299219
 30
0.0
 10
55122.71528062769
 20
22695.0211586917
 30
0.0
 10
55229.8876534219
 20
22695.0556848351
 30
0.0
 10
55367.08878194249
 20
22695.0481675499
 30
0.0
 10
55508.0055387046
 20
22695.0492324001
 30
0.0
 10
55673.93778087249
 20
22695.0421623988
 30
0.0
 10
55800.3815499742
 20
22695.0802701073
 30
0.0
 10
55962.6997946867
 20
22695.0151044325
 30
0.0
 10
56127.50510941981
 20
22695.0443324449
 30
0.0
 10
56310.91074226759
 20
22695.0795887808
 30
0.0
 10
56472.68667432429
 20
22695.0257302058
 30
0.0
 10
56676.031680893
 20
22695.075287717
 30
0.0
 10
56840.10883590441
 20
22695.0595357131
 30
0.0
 10
56971.67122562099
 20
22695.0558453918
 30
0.0
 10
57056.852371235
 20
22695.0602177526
 30
0.0
 10
57113.50625619379
 20
22695.0631569468
 30
0.0
  0
INSERT
  5
145
330
1F
100
AcDbEntity
  8
TEXT
 62
     7
370
     0
100
AcDbBlockReference
  2
V236_LW_LRO15_702 RT_TEXT_3
 10
56260.19921900001
 20
23400.0625
 30
0.0
  0
POINT
  5
146
330
1F
100
AcDbEntity
  8
STRATEGYPOINT
 62
     7
370
     5
100
AcDbPoint
 10
56260.19921900001
 20
23400.0625
 30
0.0
  0
LINE
  5
147
330
1F
100
AcDbEntity
  8
ROSETTE
 62
   150
370
    35
100
AcDbLine
 10
56360.199219
 20
23400.0625
 30
0.0
 11
56260.19921900001
 21
23400.0625
 31
0.0
  0
LINE
  5
148
330
1F
100
AcDbEntity
  8
ROSETTE
 62
   150
370
    35
100
AcDbLine
 10
56260.19921900001
 20
23400.0625
 30
0.0
 11
56260.19921900001
 21
23450.0625
 31
0.0
  0
SPLINE
  5
14A
330
1F
100
AcDbEntity
  8
OUTER
 62
     3
370
    35
100
AcDbSpline
210
0.0
220
0.0
230
1.0
 70
     8
 71
     5
 72
    14
 73
     8
 74
     0
 42
0.000000001
 43
0.0000000001
 40
0.0
 40
0.0
 40
0.0
 40
0.0
 40
0.0
 40
0.0
 40
478.2754499465357
 40
552.4565265751286
 40
1270.000310564064
 40
1270.000310564064
 40
1270.000310564064
 40
1270.000310564064
 40
1270.000310564064
 40
1270.000310564064
 10
57063.9220747542
 20
22625.0632976969
 30
0.0
 10
57064.02918750741
 20
22720.7183277148
 30
0.0
 10
57064.19638583639
 20
22831.2095008205
 30
0.0
 10
57064.6187886482
 20
23085.2091898049
 30
0.0
 10
57064.62111768719
 20
23339.2091643265
 30
0.0
 10
57064.5631354219
 20
23593.2092374208
 30
0.0
 10
57064.5769745486
 20
23751.5542067231
 30
0.0
 10
57064.6787339246
 20
23895.0629274431
 30
0.0
  0
SPLINE
  5
14C
330
1F
100
AcDbEntity
  8
OUTER
 62
     3
370
    35
100
AcDbSpline
210
0.0
220
0.0
230
1.0
 70
     8
 71
     5
 72
    25
 73
    19
 74
     0
 42
0.000000001
 43
0.0000000001
 40
0.0
 40
0.0
 40
0.0
 40
0.0
 40
0.0
 40
0.0
 40
2182.170355389155
 40
2182.170355389155
 40
2182.170355389155
 40
2182.170355389155
 40
2182.170355389155
 40
2653.480552373885
 40
2820.230326105607
 40
3124.329878057315
 40
3455.103188056901
 40
3455.103188056901
 40
3455.103188056901
 40
3455.103188056901
 40
3455.103188056901
 40
5550.189463570522
 40
5550.189463570522
 40
5550.189463570522
 40
5550.189463570522
 40
5550.189463570522
 40
5550.189463570522
 10
57064.67873392449
 20
23895.0629274431
 30
0.0
 10
56628.2446663817
 20
23895.0073809853
 30
0.0
 10
56191.8106018362
 20
23895.0133143563
 30
0.0
 10
55755.3765402815
 20
23895.0806127318
 30
0.0
 10
55318.94247493839
 20
23895.0937451528
 30
0.0
 10
54882.5084058004
 20
23895.0525967951
 30
0.0
 10
54888.70703798659
 20
23800.9945879375
 30
0.0
 10
54897.0914973994
 20
23673.6583372064
 30
0.0
 10
54909.7944786548
 20
23485.654851671
 30
0.0
 10
54926.91289678741
 20
23231.6453479557
 30
0.0
 10
54943.1047749168
 20
22977.571365625
 30
0.0
 10
54954.8689286388
 20
22817.6780083333
 30
0.0
 10
54964.1142394149
 20
22691.0404473142
 30
0.0
 10
54968.8361263933
 20
22625.0545163313
 30
0.0
 10
55387.85334922899
 20
22625.2189615822
 30
0.0
 10
55806.8704627353
 20
22625.0958271901
 30
0.0
 10
56225.8875974179
 20
22625.0266691118
 30
0.0
 10
56644.90484260809
 20
22624.9245946711
 30
0.0
 10
57063.9220747543
 20
22625.0632976969
 30
0.0
  0
INSERT
  5
14D
330
1F
100
AcDbEntity
  8
TEXT
 62
     7
370
     0
100
AcDbBlockReference
  2
V236_LW_LRO15_703 RT_TEXT_4
 10
56260.19921900001
 20
23400.0625
 30
0.0
  0
POINT
  5
14E
330
1F
100
AcDbEntity
  8
STRATEGYPOINT
 62
     7
370
     5
100
AcDbPoint
 10
56260.19921900001
 20
23400.0625
 30
0.0
  0
LINE
  5
14F
330
1F
100
AcDbEntity
  8
ROSETTE
 62
   150
370
    35
100
AcDbLine
 10
56360.199219
 20
23400.0625
 30
0.0
 11
56260.19921900001
 21
23400.0625
 31
0.0
  0
LINE
  5
150
330
1F
100
AcDbEntity
  8
ROSETTE
 62
   150
370
    35
100
AcDbLine
 10
56260.19921900001
 20
23400.0625
 30
0.0
 11
56260.19921900001
 21
23450.0625
 31
0.0
  0
SPLINE
  5
154
330
1F
100
AcDbEntity
  8
OUTER
 62
     3
370
    35
100
AcDbSpline
210
0.0
220
0.0
230
1.0
 70
     8
 71
     5
 72
    34
 73
    28
 74
     0
 42
0.000000001
 43
0.0000000001
 40
0.0
 40
0.0
 40
0.0
 40
0.0
 40
0.0
 40
0.0
 40
1904.563815564336
 40
1904.563815564336
 40
1904.563815564336
 40
1904.563815564336
 40
1904.563815564336
 40
2411.407695879097
 40
2700.418238508226
 40
2850.887243616851
 40
3177.491907323283
 40
3177.491907323283
 40
3177.491907323283
 40
3177.491907323283
 40
3177.491907323283
 40
4996.940316333644
 40
4996.940316333644
 40
4996.940316333644
 40
4996.940316333644
 40
4996.940316333644
 40
5304.915323161129
 40
5636.928414524462
 40
5795.803758468066
 40
5945.764837347671
 40
6266.934411389026
 40
6266.934411389026
 40
6266.934411389026
 40
6266.934411389026
 40
6266.934411389026
 40
6266.934411389026
 10
56809.7488603111
 20
23825.0510113481
 30
0.0
 10
56428.8360972044
 20
23825.0530898739
 30
0.0
 10
56047.92334221389
 20
23825.02405684
 30
0.0
 10
55667.0106141029
 20
23825.0767195413
 30
0.0
 10
55286.0977317636
 20
23825.4114507688
 30
0.0
 10
54905.1851574345
 20
23825.0322147403
 30
0.0
 10
54911.54699267629
 20
23723.8632678603
 30
0.0
 10
54922.2099605961
 20
23565.0498273237
 30
0.0
 10
54935.33769362599
 20
23376.2406064527
 30
0.0
 10
54951.53414583509
 20
23122.1691036396
 30
0.0
 10
54969.0230036001
 20
22868.1850486089
 30
0.0
 10
54980.16824713519
 20
22715.3738735979
 30
0.0
 10
54987.1450824982
 20
22620.2144712586
 30
0.0
 10
54991.92816436401
 20
22555.0688928817
 30
0.0
 10
55355.8178013208
 20
22554.8882321798
 30
0.0
 10
55719.7074169474
 20
22554.9271678229
 30
0.0
 10
56083.5970534495
 20
22554.983568078
 30
0.0
 10
56447.486711814
 20
22555.0074040916
 30
0.0
 10
56811.3763899228
 20
22555.0592439389
 30
0.0
 10
56811.1253643486
 20
22616.65373378491
 30
0.0
 10
56810.67501794309
 20
22744.6505128755
 30
0.0
 10
56810.30010810929
 20
22904.4227492879
 30
0.0
 10
56810.0677273624
 20
23094.1874754052
 30
0.0
 10
56809.9268917924
 20
23348.1861899943
 30
0.0
 10
56809.7481517376
 20
23540.5899110127
 30
0.0
 10
56809.6510431
 20
23666.5910508696
 30
0.0
 10
56809.679053957
 20
23760.8171344709
 30
0.0
 10
56809.748860311
 20
23825.0510113481
 30
0.0
  0
INSERT
  5
155
330
1F
100
AcDbEntity
  8
TEXT
 62
     7
370
     0
100
AcDbBlockReference
  2
V236_LW_LRO15_704 RT_TEXT_5
 10
56260.19921900001
 20
23400.0625
 30
0.0
  0
POINT
  5
156
330
1F
100
AcDbEntity
  8
STRATEGYPOINT
 62
     7
370
     5
100
AcDbPoint
 10
56260.19921900001
 20
23400.0625
 30
0.0
  0
LINE
  5
157
330
1F
100
AcDbEntity
  8
ROSETTE
 62
   150
370
    35
100
AcDbLine
 10
56360.199219
 20
23400.0625
 30
0.0
 11
56260.19921900001
 21
23400.0625
 31
0.0
  0
LINE
  5
158
330
1F
100
AcDbEntity
  8
ROSETTE
 62
   150
370
    35
100
AcDbLine
 10
56260.19921900001
 20
23400.0625
 30
0.0
 11
56260.19921900001
 21
23450.0625
 31
0.0
  0
SPLINE
  5
15C
330
1F
100
AcDbEntity
  8
OUTER
 62
     3
370
    35
100
AcDbSpline
210
0.0
220
0.0
230
1.0
 70
     8
 71
     5
 72
    50
 73
    44
 74
     0
 42
0.000000001
 43
0.0000000001
 40
0.0
 40
0.0
 40
0.0
 40
0.0
 40
0.0
 40
0.0
 40
458.8417481389462
 40
644.3338052245784
 40
812.3491273590726
 40
1269.985891187985
 40
1269.985891187985
 40
1269.985891187985
 40
1269.985891187985
 40
1269.985891187985
 40
3132.081988960499
 40
3132.081988960499
 40
3132.081988960499
 40
3132.081988960499
 40
3132.081988960499
 40
3465.015490720374
 40
3785.001070626813
 40
4093.632768138306
 40
4254.982243563328
 40
4405.099048145946
 40
4405.099048145946
 40
4405.099048145946
 40
4405.099048145946
 40
4405.099048145946
 40
4487.065426888372
 40
4589.696671114814
 40
4589.696671114814
 40
4823.791905651727
 40
4823.791905651727
 40
5034.430857580724
 40
5057.238225371486
 40
5159.869000405663
 40
5365.130706241746
 40
5365.130706241746
 40
5490.568378616551
 40
5490.568378616551
 40
5730.040232800906
 40
5730.040232800906
 40
5964.141183151052
 40
5964.141183151052
 40
6183.221545031451
 40
6183.221545031451
 40
6183.221545031451
 40
6183.221545031451
 40
6183.221545031451
 40
6183.221545031451
 10
56793.20447714549
 20
22485.0902314576
 30
0.0
 10
56792.71357016769
 20
22576.8572680435
 30
0.0
 10
56791.9354253489
 20
22705.7216768232
 30
0.0
 10
56790.97383637651
 20
22868.1889063583
 30
0.0
 10
56789.9908949059
 20
23122.1842542601
 30
0.0
 10
56790.14213406651
 20
23376.1817921508
 30
0.0
 10
56790.108950799
 20
23538.4107046914
 30
0.0
 10
56790.00806581861
 20
23663.5410486233
 30
0.0
 10
56789.83743212731
 20
23755.0682423335
 30
0.0
 10
56417.4182133819
 20
23755.0436954028
 30
0.0
 10
56044.99900204491
 20
23755.0494045511
 30
0.0
 10
55672.5797981015
 20
23755.085307077
 30
0.0
 10
55300.1605869467
 20
23755.0885065296
 30
0.0
 10
54927.74136856589
 20
23755.0589402076
 30
0.0
 10
54932.0028809865
 20
23688.6087470128
 30
0.0
 10
54940.6285450622
 20
23558.3101943498
 30
0.0
 10
54953.96755553191
 20
23366.4623697342
 30
0.0
 10
54968.13882927821
 20
23142.3282625763
 30
0.0
 10
54985.3847478066
 20
22888.3092792963
 30
0.0
 10
54999.13506830599
 20
22700.7955603413
 30
0.0
 10
55008.2382475837
 20
22577.1103683052
 30
0.0
 10
55012.8532704294
 20
22514.9882698036
 30
0.0
 10
55015.0840153254
 20
22485.0478960929
 30
0.0
 10
55031.4771467279
 20
22485.1166899546
 30
0.0
 10
55068.3964138691
 20
22485.2026294523
 30
0.0
 10
55105.31582468679
 20
22485.1412291698
 30
0.0
 10
55189.0541827624
 20
22484.9958238533
 30
0.0
 10
55272.79276606321
 20
22485.0270323251
 30
0.0
 10
55382.2658402726
 20
22485.0826067583
 30
0.0
 10
55475.77437443369
 20
22485.0488783273
 30
0.0
 10
55589.80836826299
 20
22485.0877588856
 30
0.0
 10
55698.075179078
 20
22484.9897134625
 30
0.0
 10
55806.3428940823
 20
22485.0571842373
 30
0.0
 10
55897.57036188
 20
22485.0483247023
 30
0.0
 10
55984.2363905123
 20
22485.0650106411
 30
0.0
 10
56098.2706261983
 20
22485.0662742797
 30
0.0
 10
56171.2525348744
 20
22485.0743533926
 30
0.0
 10
56291.0546249305
 20
22485.0836371525
 30
0.0
 10
56385.7691852558
 20
22485.0726636294
 30
0.0
 10
56524.29981739519
 20
22485.0732084112
 30
0.0
 10
56614.93607852349
 20
22485.036110764
 30
0.0
 10
56705.5723353922
 20
22485.0683133544
 30
0.0
 10
56749.38840574619
 20
22485.0809793929
 30
0.0
 10
56793.2044771454
 20
22485.0902314576
 30
0.0
  0
INSERT
  5
15D
330
1F
100
AcDbEntity
  8
TEXT
 62
     7
370
     0
100
AcDbBlockReference
  2
V236_LW_LRO15_705 RT_TEXT_6
 10
56260.19921900001
 20
23400.0625
 30
0.0
  0
POINT
  5
15E
330
1F
100
AcDbEntity
  8
STRATEGYPOINT
 62
     7
370
     5
100
AcDbPoint
 10
56260.19921900001
 20
23400.0625
 30
0.0
  0
LINE
  5
15F
330
1F
100
AcDbEntity
  8
ROSETTE
 62
   150
370
    35
100
AcDbLine
 10
56360.199219
 20
23400.0625
 30
0.0
 11
56260.19921900001
 21
23400.0625
 31
0.0
  0
LINE
  5
160
330
1F
100
AcDbEntity
  8
ROSETTE
 62
   150
370
    35
100
AcDbLine
 10
56260.19921900001
 20
23400.0625
 30
0.0
 11
56260.19921900001
 21
23450.0625
 31
0.0
  0
SPLINE
  5
164
330
1F
100
AcDbEntity
  8
OUTER
 62
     3
370
    35
100
AcDbSpline
210
0.0
220
0.0
230
1.0
 70
     9
 71
     5
 72
    36
 73
    30
 74
     0
 42
0.000000001
 43
0.0000000001
 40
0.0
 40
0.0
 40
0.0
 40
0.0
 40
0.0
 40
0.0
 40
320.0824640254037
 40
320.0824640254037
 40
635.6463642623376
 40
939.933726330995
 40
1270.013118754628
 40
1270.013118754628
 40
1270.013118754628
 40
1270.013118754628
 40
1270.013118754628
 40
2168.88759870006
 40
2749.105023991058
 40
3089.227794590535
 40
3089.227794590535
 40
3089.227794590535
 40
3089.227794590535
 40
3089.227794590535
 40
3374.808369894694
 40
3724.923658338493
 40
3928.257933633148
 40
4362.187896250178
 40
4362.187896250178
 40
4362.187896250178
 40
4362.187896250178
 40
4362.187896250178
 40
6098.980500623798
 40
6098.980500623798
 40
6098.980500623798
 40
6098.980500623798
 40
6098.980500623798
 40
6098.980500623798
 10
56775.18348759289
 20
22415.0667020567
 30
0.0
 10
56774.75433819449
 20
22479.0817563945
 30
0.0
 10
56774.2732105279
 20
22543.096437472
 30
0.0
 10
56773.2168198267
 20
22670.2214150266
 30
0.0
 10
56771.63455642189
 20
22858.2018368136
 30
0.0
 10
56770.1409919882
 20
23112.1998694582
 30
0.0
 10
56770.0678975143
 20
23302.1867353532
 30
0.0
 10
56770.0366721583
 20
23492.1730285411
 30
0.0
 10
56770.0578083809
 20
23619.0464170549
 30
0.0
 10
56770.08098365219
 20
23685.0622914717
 30
0.0
 10
56590.30609908349
 20
23684.9982134021
 30
0.0
 10
56294.4877152859
 20
23685.04287413121
 30
0.0
 10
55930.6447642878
 20
23685.0973930853
 30
0.0
 10
55566.80197212361
 20
23684.9499507577
 30
0.0
 10
55202.9587034679
 20
23685.3076704471
 30
0.0
 10
55018.8908183587
 20
23685.1310393368
 30
0.0
 10
54950.86637235599
 20
23685.0097576567
 30
0.0
 10
54954.5140310668
 20
23628.0102384873
 30
0.0
 10
54962.89909185219
 20
23501.1479907943
 30
0.0
 10
54974.43553352409
 20
23333.7383316385
 30
0.0
 10
54990.41569216259
 20
23079.6465848269
 30
0.0
 10
55007.9484441337
 20
22825.658111158
 30
0.0
 10
55022.7715578525
 20
22628.738170655
 30
0.0
 10
55032.1452456539
 20
22501.6304144401
 30
0.0
 10
55038.39180652049
 20
22415.0695169423
 30
0.0
 10
55385.7502495704
 20
22414.8369940561
 30
0.0
 10
55733.1081485412
 20
22415.0245691335
 30
0.0
 10
56080.466406667
 20
22415.0202510731
 30
0.0
 10
56427.8250173382
 20
22414.8791746531
 30
0.0
 10
56775.18348759289
 20
22415.0667020567
 30
0.0
  0
INSERT
  5
165
330
1F
100
AcDbEntity
  8
TEXT
 62
     7
370
     0
100
AcDbBlockReference
  2
V236_LW_LRO15_706 RT_TEXT_7
 10
56260.19921900001
 20
23400.0625
 30
0.0
  0
POINT
  5
166
330
1F
100
AcDbEntity
  8
STRATEGYPOINT
 62
     7
370
     5
100
AcDbPoint
 10
56260.19921900001
 20
23400.0625
 30
0.0
  0
SPLINE
  5
16C
330
1F
100
AcDbEntity
  8
OUTER
 62
     3
370
    35
100
AcDbSpline
210
0.0
220
0.0
230
1.0
 70
     9
 71
     5
 72
    36
 73
    30
 74
     0
 42
0.000000001
 43
0.0000000001
 40
0.0
 40
0.0
 40
0.0
 40
0.0
 40
0.0
 40
0.0
 40
622.2038884982226
 40
622.2038884982226
 40
954.8314125963283
 40
1270.016849817497
 40
1270.016849817497
 40
1270.016849817497
 40
1270.016849817497
 40
1270.016849817497
 40
3045.237693017058
 40
3045.237693017058
 40
3045.237693017058
 40
3045.237693017058
 40
3045.237693017058
 40
3294.17376559273
 40
3376.356760905333
 40
3528.42858214906
 40
3851.977611141651
 40
3997.065188443226
 40
4155.343990528518
 40
4318.215549520608
 40
4318.215549520608
 40
4318.215549520608
 40
4318.215549520608
 40
4318.215549520608
 40
6012.226424981402
 40
6012.226424981402
 40
6012.226424981402
 40
6012.226424981402
 40
6012.226424981402
 40
6012.226424981402
 10
56755.927302089
 20
22345.0654204489
 30
0.0
 10
56754.6089979159
 20
22469.499215009
 30
0.0
 10
56753.46881360709
 20
22593.9355493658
 30
0.0
 10
56753.0392632609
 20
22784.9024965717
 30
0.0
 10
56750.0116827228
 20
23038.8933700949
 30
0.0
 10
56750.49110074169
 20
23292.9013939404
 30
0.0
 10
56749.770762688
 20
23422.4623921339
 30
0.0
 10
56750.285437837
 20
23552.025217783
 30
0.0
 10
56750.22851700969
 20
23615.0622795283
 30
0.0
 10
56395.184351634
 20
23615.1104184507
 30
0.0
 10
56040.1401883459
 20
23615.1241581737
 30
0.0
 10
55685.09602667981
 20
23615.1063564243
 30
0.0
 10
55330.051862121
 20
23615.0846359285
 30
0.0
 10
54975.0076942119
 20
23615.0618552364
 30
0.0
 10
54978.29605842889
 20
23565.3833549576
 30
0.0
 10
54982.6959656753
 20
23499.305858575
 30
0.0
 10
54989.126217144
 20
23402.8818801205
 30
0.0
 10
54999.5083999779
 20
23241.868183374
 30
0.0
 10
55011.7032596417
 20
23051.8938303979
 30
0.0
 10
55023.03161706519
 20
22880.03142458701
 30
0.0
 10
55036.7447262884
 20
22692.1589695265
 30
0.0
 10
55048.15363380049
 20
22534.6142074286
 30
0.0
 10
55055.032312216
 20
22441.6205332019
 30
0.0
 10
55059.6296512524
 20
22377.5552750164
 30
0.0
 10
55061.91651013749
 20
22345.061336111
 30
0.0
 10
55400.71868512209
 20
22345.0527764809
 30
0.0
 10
55739.5208366129
 20
22345.0566722096
 30
0.0
 10
56078.322975496
 20
22345.0674692849
 30
0.0
 10
56417.125127065
 20
22345.072221103
 30
0.0
 10
56755.927302089
 20
22345.0654204489
 30
0.0
  0
INSERT
  5
16D
330
1F
100
AcDbEntity
  8
TEXT
 62
     7
370
     0
100
AcDbBlockReference
  2
V236_LW_LRO15_707 RT_TEXT_8
 10
56260.19921900001
 20
23400.0625
 30
0.0
  0
POINT
  5
16E
330
1F
100
AcDbEntity
  8
STRATEGYPOINT
 62
     7
370
     5
100
AcDbPoint
 10
56260.19921900001
 20
23400.0625
 30
0.0
  0
SPLINE
  5
174
330
1F
100
AcDbEntity
  8
OUTER
 62
     3
370
    35
100
AcDbSpline
210
0.0
220
0.0
230
1.0
 70
     8
 71
     5
 72
    56
 73
    50
 74
     0
 42
0.000000001
 43
0.0000000001
 40
0.0
 40
0.0
 40
0.0
 40
0.0
 40
0.0
 40
0.0
 40
438.1754644132834
 40
874.0318494923853
 40
1321.587420370503
 40
1722.780694487227
 40
1722.780694487227
 40
1722.780694487227
 40
1722.780694487227
 40
1722.780694487227
 40
2031.101550439716
 40
2031.101550439716
 40
2031.101550439716
 40
2192.023462076549
 40
2245.25879390307
 40
2245.25879390307
 40
2351.762721536199
 40
2415.662630488194
 40
2494.377648408596
 40
2639.321224312877
 40
2639.321224312877
 40
2756.494176302645
 40
2756.494176302645
 40
2883.004671581544
 40
2883.004671581544
 40
2883.004671581544
 40
2883.004671581544
 40
2883.004671581544
 40
3026.26838021512
 40
3146.137582620335
 40
3366.293254708867
 40
3461.925375325363
 40
3707.035154717026
 40
3707.035154717026
 40
4099.471856186655
 40
4099.471856186655
 40
4099.471856186655
 40
4531.925955754115
 40
4531.925955754115
 40
4531.925955754115
 40
4531.925955754115
 40
4531.925955754115
 40
4860.004989859358
 40
5008.766625560578
 40
5157.529283904652
 40
5433.800023350494
 40
5743.700407075325
 40
5743.700407075325
 40
5743.700407075325
 40
5743.700407075325
 40
5743.700407075325
 40
5743.700407075325
 10
56730.18427610469
 20
23486.8210348701
 30
0.0
 10
56642.5573076542
 20
23485.6277600821
 30
0.0
 10
56467.77198828679
 20
23482.9323003784
 30
0.0
 10
56203.5009585686
 20
23477.8709012175
 30
0.0
 10
55859.059211452
 20
23468.8453274839
 30
0.0
 10
55514.6974802924
 20
23456.9476165923
 30
0.0
 10
55258.0095015748
 20
23445.8492967836
 30
0.0
 10
55088.4855068957
 20
23437.1221954072
 30
0.0
 10
55008.3698760982
 20
23432.6806382774
 30
0.0
 10
55012.2946370109
 20
23371.1414941463
 30
0.0
 10
55016.2546595822
 20
23309.6046206424
 30
0.0
 10
55020.3153268298
 20
23248.0742149576
 30
0.0
 10
55026.3885754581
 20
23154.4223586379
 30
0.0
 10
55033.07460612321
 20
23050.1408644517
 30
0.0
 10
55035.7721125913
 20
23007.3944554452
 30
0.0
 10
55039.7851579035
 20
22943.38779714991
 30
0.0
 10
55044.781835722
 20
22866.6382224163
 30
0.0
 10
55048.7944057817
 20
22806.3005632427
 30
0.0
 10
55054.2469508817
 20
22727.6780864741
 30
0.0
 10
55059.6127109091
 20
22649.0497430403
 30
0.0
 10
55065.1211456324
 20
22568.2906091742
 30
0.0
 10
55069.7787261688
 20
22500.2837550144
 30
0.0
 10
55075.2777842567
 20
22422.7530769526
 30
0.0
 10
55078.8039874854
 20
22374.1442638167
 30
0.0
 10
55082.27539286799
 20
22325.532063623
 30
0.0
 10
55084.1850396974
 20
22300.302642325
 30
0.0
 10
55086.2356669641
 20
22275.0837774726
 30
0.0
 10
55114.8880607388
 20
22274.9425703305
 30
0.0
 10
55167.5143364174
 20
22274.83451429431
 30
0.0
 10
55264.17243863821
 20
22275.0709233033
 30
0.0
 10
55379.9566375504
 20
22275.0615081189
 30
0.0
 10
55544.7626390962
 20
22275.0750218035
 30
0.0
 10
55680.91573917099
 20
22275.0267883087
 30
0.0
 10
55871.5826340453
 20
22275.0493332446
 30
0.0
 10
56018.2183444132
 20
22275.1081154229
 30
0.0
 10
56145.7276364865
 20
22275.0973323394
 30
0.0
 10
56310.7057979806
 20
22275.0397210391
 30
0.0
 10
56475.6839543318
 20
22275.0558221598
 30
0.0
 10
56562.1747635549
 20
22275.0766091991
 30
0.0
 10
56648.6655794182
 20
22275.0710907696
 30
0.0
 10
56735.1563988219
 20
22275.0616993751
 30
0.0
 10
56734.4929017394
 20
22340.6741515196
 30
0.0
 10
56733.51500293629
 20
22436.0371986357
 30
0.0
 10
56732.30351735691
 20
22561.1536459804
 30
0.0
 10
56732.49396826149
 20
22741.5308026716
 30
0.0
 10
56730.3827190858
 20
22983.8793945286
 30
0.0
 10
56731.1800128682
 20
23160.6218849209
 30
0.0
 10
56730.29808311889
 20
23307.6065570578
 30
0.0
 10
56730.33190114139
 20
23424.841133933
 30
0.0
 10
56730.18427610459
 20
23486.82103487
 30
0.0
  0
INSERT
  5
175
330
1F
100
AcDbEntity
  8
TEXT
 62
     7
370
     0
100
AcDbBlockReference
  2
V236_LW_LRO15_708 RT_TEXT_9
 10
56260.19921900001
 20
22650.0625
 30
0.0
  0
POINT
  5
176
330
1F
100
AcDbEntity
  8
STRATEGYPOINT
 62
     7
370
     5
100
AcDbPoint
 10
56260.19921900001
 20
22650.0625
 30
0.0
  0
LINE
  5
177
330
1F
100
AcDbEntity
  8
MARKERS
 62
     5
370
    35
100
AcDbLine
 10
57088.199219
 20
23400.0625
 30
0.0
 11
54904.199219
 21
23400.0625
 31
0.0
  0
LINE
  5
178
330
1F
100
AcDbEntity
  8
MARKERS
 62
     5
370
    35
100
AcDbLine
 10
57087.19921900001
 20
23100.0625
 30
0.0
 11
54926.19921900001
 21
23100.0625
 31
0.0
  0
LINE
  5
179
330
1F
100
AcDbEntity
  8
MARKERS
 62
     5
370
    35
100
AcDbLine
 10
57087.19921900001
 20
22800.0625
 30
0.0
 11
54946.199219
 21
22800.0625
 31
0.0
  0
LINE
  5
17A
330
1F
100
AcDbEntity
  8
MARKERS
 62
     5
370
    35
100
AcDbLine
 10
56767.19921900001
 20
22500.0625
 30
0.0
 11
55041.199219
 21
22500.0625
 31
0.0
  0
LINE
  5
17B
330
1F
100
AcDbEntity
  8
MARKERS
 62
     5
370
    35
100
AcDbLine
 10
56700.19921900001
 20
22300.0625
 30
0.0
 11
55120.19921900001
 21
22300.0625
 31
0.0
  0
LINE
  5
17C
330
1F
100
AcDbEntity
  8
MARKERS
 62
     5
370
    35
100
AcDbLine
 10
57088.199219
 20
23700.0625
 30
0.0
 11
54886.19921900001
 21
23700.0625
 31
0.0
  0
LINE
  5
17D
330
1F
100
AcDbEntity
  8
MARKERS
 62
     5
370
    35
100
AcDbLine
 10
57090.19921900001
 20
23900.0625
 30
0.0
 11
54873.19921900001
 21
23900.0625
 31
0.0
  0
SPLINE
  5
183
330
1F
100
AcDbEntity
  8
OUTER
 62
     3
370
    35
100
AcDbSpline
210
0.0
220
0.0
230
1.0
 70
     9
 71
     5
 72
    39
 73
    33
 74
     0
 42
0.000000001
 43
0.0000000001
 40
0.0
 40
0.0
 40
0.0
 40
0.0
 40
0.0
 40
0.0
 40
655.6532943181864
 40
655.6532943181864
 40
655.6532943181864
 40
655.6532943181864
 40
655.6532943181864
 40
1071.951780293848
 40
1381.283900901968
 40
1473.299451390048
 40
1586.942429665344
 40
1685.988139753822
 40
1883.740683531582
 40
1983.105443722735
 40
2089.793714493472
 40
2294.999630218676
 40
2294.999630218676
 40
2294.999630218676
 40
2294.999630218676
 40
2294.999630218676
 40
2752.573909560934
 40
2900.995056134299
 40
2900.995056134299
 40
2900.995056134299
 40
2900.995056134299
 40
2900.995056134299
 40
3090.015571221887
 40
3485.907175326218
 40
3699.079573537113
 40
4502.249154846284
 40
4502.249154846284
 40
4502.249154846284
 40
4502.249154846284
 40
4502.249154846284
 40
4502.249154846284
 10
56713.1569634157
 20
22205.0657319118
 30
0.0
 10
56712.8567459673
 20
22336.1960471081
 30
0.0
 10
56711.7771522515
 20
22467.3242640715
 30
0.0
 10
56711.8559614358
 20
22598.4551472893
 30
0.0
 10
56711.8988682994
 20
22729.5860177378
 30
0.0
 10
56711.5947906908
 20
22860.7163240398
 30
0.0
 10
56628.3386159196
 20
22859.9504654079
 30
0.0
 10
56483.23520374139
 20
22857.2571502918
 30
0.0
 10
56319.725678619
 20
22854.6139813245
 30
0.0
 10
56133.52616534389
 20
22849.9732002661
 30
0.0
 10
55927.52462539589
 20
22844.6554513016
 30
0.0
 10
55765.26148936769
 20
22839.1268209735
 30
0.0
 10
55644.9863915901
 20
22834.4840291362
 30
0.0
 10
55521.74404694629
 20
22830.7003191175
 30
0.0
 10
55380.249205004
 20
22824.9564640056
 30
0.0
 10
55258.56541237059
 20
22819.5706396703
 30
0.0
 10
55176.38978176919
 20
22815.9315304384
 30
0.0
 10
55114.1085903607
 20
22812.4660455185
 30
0.0
 10
55073.1523247325
 20
22809.8272920746
 30
0.0
 10
55078.51469464941
 20
22718.4696769927
 30
0.0
 10
55085.8041794657
 20
22597.489818495
 30
0.0
 10
55093.11776654389
 20
22476.5106317001
 30
0.0
 10
55101.61763590709
 20
22355.6091178911
 30
0.0
 10
55109.889121462
 20
22234.6925968101
 30
0.0
 10
55111.9029881608
 20
22205.0767596461
 30
0.0
 10
55149.706979149
 20
22204.9847252347
 30
0.0
 10
55266.68918576929
 20
22204.8106813935
 30
0.0
 10
55426.3063226026
 20
22205.0234351361
 30
0.0
 10
55746.55722352759
 20
22205.1362364214
 30
0.0
 10
56066.8079270852
 20
22205.0061636691
 30
0.0
 10
56349.2546818604
 20
22205.0761428069
 30
0.0
 10
56552.5230472342
 20
22205.0708149671
 30
0.0
 10
56713.1569634157
 20
22205.0657319118
 30
0.0
  0
LWPOLYLINE
  5
184
330
1F
100
AcDbEntity
  8
ROSETTE
 62
   150
370
    35
100
AcDbPolyline
 90
        3
 70
     0
 43
0.0
 10
56360.199219
 20
22650.0625
 10
56260.19921900001
 20
22650.0625
 10
56260.19921900001
 20
22700.0625
  0
LWPOLYLINE
  5
185
330
1F
100
AcDbEntity
  8
ROSETTE
 62
   150
370
    35
100
AcDbPolyline
 90
        4
 70
     1
 43
0.0
 10
56360.199219
 20
23400.0625
 10
56260.19921900001
 20
23400.0625
 10
56260.19921900001
 20
23450.0625
 10
56260.19921900001
 20
23400.0625
  0
ENDSEC
  0
SECTION
  2
OBJECTS
  0
DICTIONARY
  5
C
330
0
100
AcDbDictionary
281
     1
  3
ACAD_CIP_PREVIOUS_PRODUCT_INFO
350
130
  3
ACAD_COLOR
350
125
  3
ACAD_DETAILVIEWSTYLE
350
12C
  3
ACAD_GROUP
350
D
  3
ACAD_LAST_SAVED_VERSION_INFO
350
186
  3
ACAD_LAYOUT
350
1A
  3
ACAD_MATERIAL
350
F3
  3
ACAD_MLEADERSTYLE
350
128
  3
ACAD_MLINESTYLE
350
17
  3
ACAD_PLOTSETTINGS
350
19
  3
ACAD_PLOTSTYLENAME
350
E
  3
ACAD_SCALELIST
350
47
  3
ACAD_SECTIONVIEWSTYLE
350
12A
  3
ACAD_TABLESTYLE
350
126
  3
ACAD_VISUALSTYLE
350
10C
  3
ACDB_RECOMPOSE_DATA
350
19F
  3
AcDbVariableDictionary
350
131
  0
DICTIONARY
  5
187
330
10
100
AcDbDictionary
280
     1
281
     1
  3
ADSK_XREC_LAYER_RECONCILED
360
188
  0
DICTIONARY
  5
189
330
6F
100
AcDbDictionary
280
     1
281
     1
  3
ADSK_XREC_LAYER_RECONCILED
360
18A
  0
DICTIONARY
  5
18B
330
70
100
AcDbDictionary
280
     1
281
     1
  3
ADSK_XREC_LAYER_RECONCILED
360
18C
  0
DICTIONARY
  5
18D
330
71
100
AcDbDictionary
280
     1
281
     1
  3
ADSK_XREC_LAYER_RECONCILED
360
18E
  0
DICTIONARY
  5
18F
330
72
100
AcDbDictionary
280
     1
281
     1
  3
ADSK_XREC_LAYER_RECONCILED
360
190
  0
DICTIONARY
  5
191
330
D7
100
AcDbDictionary
280
     1
281
     1
  3
ADSK_XREC_LAYER_RECONCILED
360
192
  0
DICTIONARY
  5
133
330
1F
100
AcDbDictionary
280
     1
281
     1
  3
ACAD_SORTENTS
360
134
  0
XRECORD
  5
130
102
{ACAD_REACTORS
330
C
102
}
330
C
100
AcDbXrecord
280
     1
300
ACDLT
300
2024
300

  0
DICTIONARY
  5
125
102
{ACAD_REACTORS
330
C
102
}
330
C
100
AcDbDictionary
281
     1
  0
DICTIONARY
  5
12C
102
{ACAD_REACTORS
330
C
102
}
330
C
100
AcDbDictionary
281
     1
  3
Metric50
350
12D
  0
DICTIONARY
  5
D
102
{ACAD_REACTORS
330
C
102
}
330
C
100
AcDbDictionary
281
     1
  0
XRECORD
  5
186
102
{ACAD_REACTORS
330
C
102
}
330
C
100
AcDbXrecord
280
     1
300
{58EAB13E-6563-FA4F-BA37-9120754D8547}
301
{B07191EA-241F-8B4E-87F3-17A2DCD4C660}
302
{58EAB13E-6563-FA4F-BA37-9120754D8547}
303
C:\Users\Juan Pablo Lopez\PycharmProjects\ProjectJP\V236_LW_LRO15.dxf
  0
DICTIONARY
  5
1A
102
{ACAD_REACTORS
330
C
102
}
330
C
100
AcDbDictionary
281
     1
  3
Layout1
350
1E
  3
Layout2
350
26
  3
Model
350
22
  0
DICTIONARY
  5
F3
102
{ACAD_REACTORS
330
C
102
}
330
C
100
AcDbDictionary
281
     1
  3
ByBlock
350
FC
  3
ByLayer
350
F4
  3
Global
350
104
  0
DICTIONARY
  5
128
102
{ACAD_REACTORS
330
C
102
}
330
C
100
AcDbDictionary
281
     1
  3
Standard
350
129
  0
DICTIONARY
  5
17
102
{ACAD_REACTORS
330
C
102
}
330
C
100
AcDbDictionary
281
     1
  3
Standard
350
18
  0
DICTIONARY
  5
19
102
{ACAD_REACTORS
330
C
102
}
330
C
100
AcDbDictionary
281
     1
  0
ACDBDICTIONARYWDFLT
  5
E
102
{ACAD_REACTORS
330
C
102
}
330
C
100
AcDbDictionary
281
     1
  3
Normal
350
F
100
AcDbDictionaryWithDefault
340
F
  0
DICTIONARY
  5
47
102
{ACAD_REACTORS
330
C
102
}
330
C
100
AcDbDictionary
281
     1
  3
A0
350
48
  3
A1
350
49
  3
A2
350
4A
  3
A3
350
4B
  3
A4
350
4C
  3
A5
350
4D
  3
A6
350
4E
  3
A7
350
4F
  3
A8
350
50
  3
A9
350
51
  3
B0
350
52
  3
B1
350
53
  3
B2
350
54
  3
B3
350
55
  3
B4
350
56
  3
B5
350
57
  3
B6
350
58
  3
B7
350
59
  3
B8
350
5A
  3
B9
350
5B
  3
C0
350
5C
  3
C1
350
5D
  3
C2
350
5E
  3
C3
350
5F
  3
C4
350
60
  3
C5
350
61
  3
C6
350
62
  3
C7
350
63
  3
C8
350
64
  3
C9
350
65
  3
D0
350
66
  3
D1
350
67
  3
D2
350
68
  0
DICTIONARY
  5
12A
102
{ACAD_REACTORS
330
C
102
}
330
C
100
AcDbDictionary
281
     1
  3
Metric50
350
12B
  0
DICTIONARY
  5
126
102
{ACAD_REACTORS
330
C
102
}
330
C
100
AcDbDictionary
281
     1
  3
Standard
350
127
  0
DICTIONARY
  5
10C
102
{ACAD_REACTORS
330
C
102
}
330
C
100
AcDbDictionary
281
     1
  3
2dWireframe
350
112
  3
Basic
350
111
  3
Brighten
350
118
  3
ColorChange
350
11C
  3
Conceptual
350
115
  3
Dim
350
117
  3
EdgeColorOff
350
124
  3
Facepattern
350
11B
  3
Flat
350
10D
  3
FlatWithEdges
350
10E
  3
Gouraud
350
10F
  3
GouraudWithEdges
350
110
  3
Hidden
350
114
  3
JitterOff
350
122
  3
Linepattern
350
11A
  3
OverhangOff
350
123
  3
Realistic
350
116
  3
Shaded
350
121
  3
Shaded with edges
350
120
  3
Shades of Gray
350
11D
  3
Sketchy
350
11E
  3
Thicken
350
119
  3
Wireframe
350
113
  3
X-Ray
350
11F
  0
XRECORD
  5
19F
102
{ACAD_REACTORS
330
C
102
}
330
C
100
AcDbXrecord
280
     1
 90
        1
330
127
  0
DICTIONARY
  5
131
102
{ACAD_REACTORS
330
C
102
}
330
C
100
AcDbDictionary
281
     1
  3
CANNOSCALE
350
198
  3
CMLEADERSTYLE
350
194
  3
CTABLESTYLE
350
193
  3
CVIEWDETAILSTYLE
350
195
  3
CVIEWSECTIONSTYLE
350
196
  3
LAYEREVAL
350
19A
  3
LAYERNOTIFY
350
19B
  3
LIGHTINGUNITS
350
199
  3
MSLTSCALE
350
197
  0
XRECORD
  5
188
102
{ACAD_REACTORS
330
187
102
}
330
187
100
AcDbXrecord
280
     1
290
     1
  0
XRECORD
  5
18A
102
{ACAD_REACTORS
330
189
102
}
330
189
100
AcDbXrecord
280
     1
290
     1
  0
XRECORD
  5
18C
102
{ACAD_REACTORS
330
18B
102
}
330
18B
100
AcDbXrecord
280
     1
290
     1
  0
XRECORD
  5
18E
102
{ACAD_REACTORS
330
18D
102
}
330
18D
100
AcDbXrecord
280
     1
290
     1
  0
XRECORD
  5
190
102
{ACAD_REACTORS
330
18F
102
}
330
18F
100
AcDbXrecord
280
     1
290
     1
  0
XRECORD
  5
192
102
{ACAD_REACTORS
330
191
102
}
330
191
100
AcDbXrecord
280
     1
290
     1
  0
SORTENTSTABLE
  5
134
102
{ACAD_REACTORS
330
133
102
}
330
133
100
AcDbSortentsTable
330
1F
  0
ACDBDETAILVIEWSTYLE
  5
12D
102
{ACAD_REACTORS
330
12C
102
}
330
12C
100
AcDbModelDocViewStyle
 70
     0
  3
Metric50
290
     0
300
Metric50
 90
        0
100
AcDbDetailViewStyle
 70
     0
 71
     0
 90
        3
 71
     1
340
11
 62
   256
 40
5.0
340
0
 62
   256
 40
5.0
300

 40
0.0
280
     1
 71
     2
340
16
 90
       25
 62
   256
 71
     3
340
11
 62
   256
 40
5.0
 90
        0
 40
15.0
 90
        1
300
%<\AcVar ViewDetailId>% (%<\AcVar ViewScale \f "%sn">%)
 71
     4
340
16
 90
       25
 62
   256
340
16
 90
       25
 62
   256
280
     0
  0
LAYOUT
  5
1E
102
{ACAD_REACTORS
330
1A
102
}
330
1A
100
AcDbPlotSettings
  1

  2
none_device
  4

  6

 40
0.0
 41
0.0
 42
0.0
 43
0.0
 44
0.0
 45
0.0
 46
0.0
 47
0.0
 48
0.0
 49
0.0
140
0.0
141
0.0
142
1.0
143
1.0
 70
  4784
 72
     0
 73
     0
 74
     5
  7

 75
    16
147
1.0
 76
     0
 77
     2
 78
   300
148
0.0
149
0.0
100
AcDbLayout
  1
Layout1
 70
     1
 71
     1
 10
0.0
 20
0.0
 11
420.0
 21
297.0
 12
0.0
 22
0.0
 32
0.0
 14
0.0
 24
0.0
 34
0.0
 15
0.0
 25
628.569885
 35
2.0
146
0.0
 13
0.0
 23
0.0
 33
0.0
 16
1.0
 26
0.0
 36
0.0
 17
0.0
 27
1.0
 37
0.0
 76
     0
330
1B
  0
LAYOUT
  5
26
102
{ACAD_REACTORS
330
1A
102
}
330
1A
100
AcDbPlotSettings
  1

  2
none_device
  4

  6

 40
0.0
 41
0.0
 42
0.0
 43
0.0
 44
0.0
 45
0.0
 46
0.0
 47
0.0
 48
0.0
 49
0.0
140
0.0
141
0.0
142
1.0
143
1.0
 70
  4784
 72
     0
 73
     0
 74
     5
  7

 75
    16
147
1.0
 76
     0
 77
     2
 78
   300
148
0.0
149
0.0
100
AcDbLayout
  1
Layout2
 70
     1
 71
     2
 10
0.0
 20
0.0
 11
0.0
 21
0.0
 12
0.0
 22
0.0
 32
0.0
 14
0.0
 24
0.0
 34
0.0
 15
0.0
 25
0.0
 35
0.0
146
0.0
 13
0.0
 23
0.0
 33
0.0
 16
1.0
 26
0.0
 36
0.0
 17
0.0
 27
1.0
 37
0.0
 76
     0
330
23
  0
LAYOUT
  5
22
102
{ACAD_REACTORS
330
1A
102
}
330
1A
100
AcDbPlotSettings
  1

  2
none_device
  4
Letter_(8.50_x_11.00_Inches)
  6

 40
6.349999999999999
 41
6.349999999999999
 42
6.350005
 43
6.350005
 44
215.9
 45
279.4
 46
0.0
 47
0.0
 48
0.0
 49
0.0
140
0.0
141
0.0
142
1.0
143
1.0
 70
  5808
 72
     0
 73
     0
 74
     0
  7

 75
     0
147
1.0
 76
     0
 77
     2
 78
   300
148
0.0
149
0.0
100
AcDbLayout
  1
Model
 70
     1
 71
     0
 10
0.0
 20
0.0
 11
420.0
 21
297.0
 12
0.0
 22
0.0
 32
0.0
 14
0.0
 24
0.0
 34
0.0
 15
0.0
 25
628.569885
 35
2.0
146
0.0
 13
0.0
 23
0.0
 33
0.0
 16
1.0
 26
0.0
 36
0.0
 17
0.0
 27
1.0
 37
0.0
 76
     0
330
1F
331
29
  0
MATERIAL
  5
FC
102
{ACAD_XDICTIONARY
360
FD
102
}
102
{ACAD_REACTORS
330
F3
102
}
330
F3
100
AcDbMaterial
  1
ByBlock
 72
     0
 43
0.0208333333333333
 43
0.0
 43
0.0
 43
0.0
 43
0.0
 43
0.0208333333333333
 43
0.0
 43
0.0
 43
0.0
 43
0.0
 43
1.0
 43
0.0
 43
0.0
 43
0.0
 43
0.0
 43
1.0
 77
     0
 47
0.0208333333333333
 47
0.0
 47
0.0
 47
0.0
 47
0.0
 47
0.0208333333333333
 47
0.0
 47
0.0
 47
0.0
 47
0.0
 47
1.0
 47
0.0
 47
0.0
 47
0.0
 47
0.0
 47
1.0
171
     0
 49
0.0208333333333333
 49
0.0
 49
0.0
 49
0.0
 49
0.0
 49
0.0208333333333333
 49
0.0
 49
0.0
 49
0.0
 49
0.0
 49
1.0
 49
0.0
 49
0.0
 49
0.0
 49
0.0
 49
1.0
175
     0
142
0.0208333333333333
142
0.0
142
0.0
142
0.0
142
0.0
142
0.0208333333333333
142
0.0
142
0.0
142
0.0
142
0.0
142
1.0
142
0.0
142
0.0
142
0.0
142
0.0
142
1.0
179
     0
144
0.0208333333333333
144
0.0
144
0.0
144
0.0
144
0.0
144
0.0208333333333333
144
0.0
144
0.0
144
0.0
144
0.0
144
1.0
144
0.0
144
0.0
144
0.0
144
0.0
144
1.0
147
0.0208333333333333
147
0.0
147
0.0
147
0.0
147
0.0
147
0.0208333333333333
147
0.0
147
0.0
147
0.0
147
0.0
147
1.0
147
0.0
147
0.0
147
0.0
147
0.0
147
1.0
  0
MATERIAL
  5
F4
102
{ACAD_XDICTIONARY
360
F5
102
}
102
{ACAD_REACTORS
330
F3
102
}
330
F3
100
AcDbMaterial
  1
ByLayer
 72
     0
 43
0.0208333333333333
 43
0.0
 43
0.0
 43
0.0
 43
0.0
 43
0.0208333333333333
 43
0.0
 43
0.0
 43
0.0
 43
0.0
 43
1.0
 43
0.0
 43
0.0
 43
0.0
 43
0.0
 43
1.0
 77
     0
 47
0.0208333333333333
 47
0.0
 47
0.0
 47
0.0
 47
0.0
 47
0.0208333333333333
 47
0.0
 47
0.0
 47
0.0
 47
0.0
 47
1.0
 47
0.0
 47
0.0
 47
0.0
 47
0.0
 47
1.0
171
     0
 49
0.0208333333333333
 49
0.0
 49
0.0
 49
0.0
 49
0.0
 49
0.0208333333333333
 49
0.0
 49
0.0
 49
0.0
 49
0.0
 49
1.0
 49
0.0
 49
0.0
 49
0.0
 49
0.0
 49
1.0
175
     0
142
0.0208333333333333
142
0.0
142
0.0
142
0.0
142
0.0
142
0.0208333333333333
142
0.0
142
0.0
142
0.0
142
0.0
142
1.0
142
0.0
142
0.0
142
0.0
142
0.0
142
1.0
179
     0
144
0.0208333333333333
144
0.0
144
0.0
144
0.0
144
0.0
144
0.0208333333333333
144
0.0
144
0.0
144
0.0
144
0.0
144
1.0
144
0.0
144
0.0
144
0.0
144
0.0
144
1.0
147
0.0208333333333333
147
0.0
147
0.0
147
0.0
147
0.0
147
0.0208333333333333
147
0.0
147
0.0
147
0.0
147
0.0
147
1.0
147
0.0
147
0.0
147
0.0
147
0.0
147
1.0
  0
MATERIAL
  5
104
102
{ACAD_XDICTIONARY
360
105
102
}
102
{ACAD_REACTORS
330
F3
102
}
330
F3
100
AcDbMaterial
  1
Global
 72
     0
 43
0.0208333333333333
 43
0.0
 43
0.0
 43
0.0
 43
0.0
 43
0.0208333333333333
 43
0.0
 43
0.0
 43
0.0
 43
0.0
 43
1.0
 43
0.0
 43
0.0
 43
0.0
 43
0.0
 43
1.0
 77
     0
 47
0.0208333333333333
 47
0.0
 47
0.0
 47
0.0
 47
0.0
 47
0.0208333333333333
 47
0.0
 47
0.0
 47
0.0
 47
0.0
 47
1.0
 47
0.0
 47
0.0
 47
0.0
 47
0.0
 47
1.0
171
     0
 49
0.0208333333333333
 49
0.0
 49
0.0
 49
0.0
 49
0.0
 49
0.0208333333333333
 49
0.0
 49
0.0
 49
0.0
 49
0.0
 49
1.0
 49
0.0
 49
0.0
 49
0.0
 49
0.0
 49
1.0
175
     0
142
0.0208333333333333
142
0.0
142
0.0
142
0.0
142
0.0
142
0.0208333333333333
142
0.0
142
0.0
142
0.0
142
0.0
142
1.0
142
0.0
142
0.0
142
0.0
142
0.0
142
1.0
179
     0
144
0.0208333333333333
144
0.0
144
0.0
144
0.0
144
0.0
144
0.0208333333333333
144
0.0
144
0.0
144
0.0
144
0.0
144
1.0
144
0.0
144
0.0
144
0.0
144
0.0
144
1.0
147
0.0208333333333333
147
0.0
147
0.0
147
0.0
147
0.0
147
0.0208333333333333
147
0.0
147
0.0
147
0.0
147
0.0
147
1.0
147
0.0
147
0.0
147
0.0
147
0.0
147
1.0
  0
MLEADERSTYLE
  5
129
102
{ACAD_REACTORS
330
128
102
}
330
128
100
AcDbMLeaderStyle
179
     2
170
     2
171
     1
172
     0
 90
        2
 40
0.0
 41
0.0
173
     1
 91
-1056964608
340
14
 92
       -2
290
     1
 42
2.0
291
     1
 43
0.36
  3
Standard
 44
4.0
300

342
11
174
     1
178
     6
175
     1
176
     0
 93
-1056964608
 45
4.0
292
     0
297
     0
 46
4.0
 94
-1056964608
 47
1.0
 49
1.0
140
1.0
293
     1
141
0.0
294
     1
177
     0
142
1.0
295
     0
296
     0
143
0.125
271
     0
272
     9
273
     9
298
     0
  0
MLINESTYLE
  5
18
102
{ACAD_REACTORS
330
17
102
}
330
17
100
AcDbMlineStyle
  2
STANDARD
 70
     0
  3

 62
   256
 51
90.0
 52
90.0
 71
     2
 49
0.5
 62
   256
  6
BYLAYER
 49
-0.5
 62
   256
  6
BYLAYER
  0
ACDBPLACEHOLDER
  5
F
102
{ACAD_REACTORS
330
E
102
}
330
E
  0
SCALE
  5
48
102
{ACAD_REACTORS
330
47
102
}
330
47
100
AcDbScale
 70
     0
300
1:1
140
1.0
141
1.0
290
     1
  0
SCALE
  5
49
102
{ACAD_REACTORS
330
47
102
}
330
47
100
AcDbScale
 70
     0
300
1:2
140
1.0
141
2.0
290
     0
  0
SCALE
  5
4A
102
{ACAD_REACTORS
330
47
102
}
330
47
100
AcDbScale
 70
     0
300
1:4
140
1.0
141
4.0
290
     0
  0
SCALE
  5
4B
102
{ACAD_REACTORS
330
47
102
}
330
47
100
AcDbScale
 70
     0
300
1:5
140
1.0
141
5.0
290
     0
  0
SCALE
  5
4C
102
{ACAD_REACTORS
330
47
102
}
330
47
100
AcDbScale
 70
     0
300
1:8
140
1.0
141
8.0
290
     0
  0
SCALE
  5
4D
102
{ACAD_REACTORS
330
47
102
}
330
47
100
AcDbScale
 70
     0
300
1:10
140
1.0
141
10.0
290
     0
  0
SCALE
  5
4E
102
{ACAD_REACTORS
330
47
102
}
330
47
100
AcDbScale
 70
     0
300
1:16
140
1.0
141
16.0
290
     0
  0
SCALE
  5
4F
102
{ACAD_REACTORS
330
47
102
}
330
47
100
AcDbScale
 70
     0
300
1:20
140
1.0
141
20.0
290
     0
  0
SCALE
  5
50
102
{ACAD_REACTORS
330
47
102
}
330
47
100
AcDbScale
 70
     0
300
1:30
140
1.0
141
30.0
290
     0
  0
SCALE
  5
51
102
{ACAD_REACTORS
330
47
102
}
330
47
100
AcDbScale
 70
     0
300
1:40
140
1.0
141
40.0
290
     0
  0
SCALE
  5
52
102
{ACAD_REACTORS
330
47
102
}
330
47
100
AcDbScale
 70
     0
300
1:50
140
1.0
141
50.0
290
     0
  0
SCALE
  5
53
102
{ACAD_REACTORS
330
47
102
}
330
47
100
AcDbScale
 70
     0
300
1:100
140
1.0
141
100.0
290
     0
  0
SCALE
  5
54
102
{ACAD_REACTORS
330
47
102
}
330
47
100
AcDbScale
 70
     0
300
2:1
140
2.0
141
1.0
290
     0
  0
SCALE
  5
55
102
{ACAD_REACTORS
330
47
102
}
330
47
100
AcDbScale
 70
     0
300
4:1
140
4.0
141
1.0
290
     0
  0
SCALE
  5
56
102
{ACAD_REACTORS
330
47
102
}
330
47
100
AcDbScale
 70
     0
300
8:1
140
8.0
141
1.0
290
     0
  0
SCALE
  5
57
102
{ACAD_REACTORS
330
47
102
}
330
47
100
AcDbScale
 70
     0
300
10:1
140
10.0
141
1.0
290
     0
  0
SCALE
  5
58
102
{ACAD_REACTORS
330
47
102
}
330
47
100
AcDbScale
 70
     0
300
100:1
140
100.0
141
1.0
290
     0
  0
SCALE
  5
59
102
{ACAD_REACTORS
330
47
102
}
330
47
100
AcDbScale
 70
     0
300
1/128" = 1'-0"
140
0.007812
141
12.0
290
     0
  0
SCALE
  5
5A
102
{ACAD_REACTORS
330
47
102
}
330
47
100
AcDbScale
 70
     0
300
1/64" = 1'-0"
140
0.015625
141
12.0
290
     0
  0
SCALE
  5
5B
102
{ACAD_REACTORS
330
47
102
}
330
47
100
AcDbScale
 70
     0
300
1/32" = 1'-0"
140
0.03125
141
12.0
290
     0
  0
SCALE
  5
5C
102
{ACAD_REACTORS
330
47
102
}
330
47
100
AcDbScale
 70
     0
300
1/16" = 1'-0"
140
0.0625
141
12.0
290
     0
  0
SCALE
  5
5D
102
{ACAD_REACTORS
330
47
102
}
330
47
100
AcDbScale
 70
     0
300
3/32" = 1'-0"
140
0.09375
141
12.0
290
     0
  0
SCALE
  5
5E
102
{ACAD_REACTORS
330
47
102
}
330
47
100
AcDbScale
 70
     0
300
1/8" = 1'-0"
140
0.125
141
12.0
290
     0
  0
SCALE
  5
5F
102
{ACAD_REACTORS
330
47
102
}
330
47
100
AcDbScale
 70
     0
300
3/16" = 1'-0"
140
0.1875
141
12.0
290
     0
  0
SCALE
  5
60
102
{ACAD_REACTORS
330
47
102
}
330
47
100
AcDbScale
 70
     0
300
1/4" = 1'-0"
140
0.25
141
12.0
290
     0
  0
SCALE
  5
61
102
{ACAD_REACTORS
330
47
102
}
330
47
100
AcDbScale
 70
     0
300
3/8" = 1'-0"
140
0.375
141
12.0
290
     0
  0
SCALE
  5
62
102
{ACAD_REACTORS
330
47
102
}
330
47
100
AcDbScale
 70
     0
300
1/2" = 1'-0"
140
0.5
141
12.0
290
     0
  0
SCALE
  5
63
102
{ACAD_REACTORS
330
47
102
}
330
47
100
AcDbScale
 70
     0
300
3/4" = 1'-0"
140
0.75
141
12.0
290
     0
  0
SCALE
  5
64
102
{ACAD_REACTORS
330
47
102
}
330
47
100
AcDbScale
 70
     0
300
1" = 1'-0"
140
1.0
141
12.0
290
     0
  0
SCALE
  5
65
102
{ACAD_REACTORS
330
47
102
}
330
47
100
AcDbScale
 70
     0
300
1-1/2" = 1'-0"
140
1.5
141
12.0
290
     0
  0
SCALE
  5
66
102
{ACAD_REACTORS
330
47
102
}
330
47
100
AcDbScale
 70
     0
300
3" = 1'-0"
140
3.0
141
12.0
290
     0
  0
SCALE
  5
67
102
{ACAD_REACTORS
330
47
102
}
330
47
100
AcDbScale
 70
     0
300
6" = 1'-0"
140
6.0
141
12.0
290
     0
  0
SCALE
  5
68
102
{ACAD_REACTORS
330
47
102
}
330
47
100
AcDbScale
 70
     0
300
1'-0" = 1'-0"
140
12.0
141
12.0
290
     0
  0
ACDBSECTIONVIEWSTYLE
  5
12B
102
{ACAD_REACTORS
330
12A
102
}
330
12A
100
AcDbModelDocViewStyle
 70
     0
  3
Metric50
290
     0
300
Metric50
 90
        0
100
AcDbSectionViewStyle
 70
     0
 71
     0
 90
      102
 71
     1
340
11
 62
   256
 40
5.0
340
0
340
0
 62
   256
 40
5.0
300
I, O, Q, S, X, Z
 40
10.0
 90
        0
 40
2.5
 90
        0
 71
     2
340
16
 90
       25
 62
   256
340
16
 90
       50
 62
   256
 40
5.0
 40
2.5
 40
5.0
 71
     3
340
11
 62
   256
 40
5.0
 90
        0
 40
15.0
 90
        1
300
%<\AcVar ViewSectionStartId>%-%<\AcVar ViewSectionEndId>% (%<\AcVar ViewScale \f "%sn">%)
 71
     4
 62
   256
 62
   257
300
ANSI31
 40
1.0
 90
        0
290
     0
290
     0
 90
        6
 40
0.0
 40
1.570796326794896
 40
0.2617993877991494
 40
1.308996938995747
 40
-0.2617993877991494
 40
1.832595714594046
  0
TABLESTYLE
  5
127
102
{ACAD_XDICTIONARY
360
19D
102
}
102
{ACAD_REACTORS
330
126
102
}
330
126
100
AcDbTableStyle
280
     0
  3
Standard
 70
     0
 71
     0
 40
1.5
 41
1.5
280
     0
281
     0
  7
Standard
140
4.5
170
     2
 62
     0
 63
     7
283
     0
 90
      512
 91
        0
  1

274
    -2
284
     1
 64
     0
275
    -2
285
     1
 65
     0
276
    -2
286
     1
 66
     0
277
    -2
287
     1
 67
     0
278
    -2
288
     1
 68
     0
279
    -2
289
     1
 69
     0
  7
Standard
140
6.0
170
     5
 62
     0
 63
     7
283
     0
 90
      512
 91
        0
  1

274
    -2
284
     1
 64
     0
275
    -2
285
     1
 65
     0
276
    -2
286
     1
 66
     0
277
    -2
287
     1
 67
     0
278
    -2
288
     1
 68
     0
279
    -2
289
     1
 69
     0
  7
Standard
140
4.5
170
     5
 62
     0
 63
     7
283
     0
 90
      512
 91
        0
  1

274
    -2
284
     1
 64
     0
275
    -2
285
     1
 65
     0
276
    -2
286
     1
 66
     0
277
    -2
287
     1
 67
     0
278
    -2
288
     1
 68
     0
279
    -2
289
     1
 69
     0
  0
VISUALSTYLE
  5
112
102
{ACAD_REACTORS
330
10C
102
}
330
10C
100
AcDbVisualStyle
  2
2dWireframe
 70
     4
177
     3
291
     0
 70
    58
 90
        0
176
     1
 90
        2
176
     1
 90
        0
176
     1
 90
        0
176
     1
 40
0.6
176
     1
 40
30.0
176
     1
 62
     7
420
 16777215
176
     1
 90
        1
176
     1
 90
        4
176
     1
 62
     7
176
     1
 62
   257
176
     1
 90
        1
176
     1
 90
        1
176
     1
 40
1.0
176
     1
 90
        0
176
     1
 62
   257
176
     1
 40
1.0
176
     1
 90
        1
176
     1
 90
        6
176
     1
 90
        2
176
     1
 62
     7
176
     1
 90
        5
176
     1
 90
        0
176
     1
 90
        0
176
     1
290
     0
176
     1
 90
        1
176
     1
 40
0.0
176
     1
 90
        0
176
     1
290
     1
176
     1
290
     1
176
     1
290
     0
176
     1
290
     0
176
     1
290
     0
176
     1
290
     0
176
     1
290
     0
176
     1
290
     0
176
     1
290
     0
176
     1
 90
       50
176
     1
 40
0.0
176
     1
 40
1.0
176
     1
 90
        0
176
     1
 62
    18
420
        0
176
     1
 90
       50
176
     1
 90
        3
176
     1
 62
     5
420
      255
176
     1
290
     0
176
     1
 90
       50
176
     1
 90
       50
176
     1
 90
       50
176
     1
290
     0
176
     1
 90
       50
176
     1
 62
   256
176
     0
 40
1.0
176
     0
 90
        2
176
     1
  1
strokes_ogs.tif
176
     1
290
     0
176
     1
 40
1.0
176
     1
 40
1.0
176
     1
  0
VISUALSTYLE
  5
111
102
{ACAD_REACTORS
330
10C
102
}
330
10C
100
AcDbVisualStyle
  2
Basic
 70
     7
177
     3
291
     1
 70
    58
 90
        1
176
     1
 90
        0
176
     1
 90
        1
176
     1
 90
        0
176
     1
 40
0.6
176
     1
 40
30.0
176
     1
 62
     7
420
 16777215
176
     1
 90
        0
176
     1
 90
        4
176
     1
 62
     7
176
     1
 62
   257
176
     1
 90
        1
176
     1
 90
        1
176
     1
 40
1.0
176
     1
 90
        8
176
     1
 62
     7
176
     1
 40
1.0
176
     1
 90
        1
176
     1
 90
        6
176
     1
 90
        2
176
     1
 62
     7
176
     1
 90
        5
176
     1
 90
        0
176
     1
 90
        0
176
     1
290
     0
176
     1
 90
        1
176
     1
 40
0.0
176
     1
 90
        0
176
     1
290
     0
176
     1
290
     1
176
     1
290
     1
176
     1
290
     0
176
     1
290
     0
176
     1
290
     0
176
     1
290
     0
176
     1
290
     0
176
     1
290
     0
176
     1
 90
       50
176
     1
 40
0.0
176
     1
 40
1.0
176
     1
 90
        0
176
     1
 62
    18
420
        0
176
     1
 90
       50
176
     1
 90
        3
176
     1
 62
     5
420
      255
176
     1
290
     0
176
     1
 90
       50
176
     1
 90
       50
176
     1
 90
       50
176
     1
290
     0
176
     1
 90
       50
176
     1
 62
   256
176
     0
 40
1.0
176
     0
 90
        2
176
     1
  1
strokes_ogs.tif
176
     1
290
     0
176
     1
 40
1.0
176
     1
 40
1.0
176
     1
  0
VISUALSTYLE
  5
118
102
{ACAD_REACTORS
330
10C
102
}
330
10C
100
AcDbVisualStyle
  2
Brighten
 70
    12
177
     3
291
     1
 70
    58
 90
        2
176
     1
 90
        2
176
     1
 90
        0
176
     1
 90
        0
176
     1
 40
0.6
176
     1
 40
30.0
176
     1
 62
     7
420
 16777215
176
     1
 90
        1
176
     1
 90
        4
176
     1
 62
     7
176
     1
 62
   257
176
     1
 90
        1
176
     1
 90
        1
176
     1
 40
1.0
176
     1
 90
        8
176
     1
 62
     7
176
     1
 40
1.0
176
     1
 90
        1
176
     1
 90
        6
176
     1
 90
        2
176
     1
 62
     7
176
     1
 90
        5
176
     1
 90
        0
176
     1
 90
        0
176
     1
290
     0
176
     1
 90
        1
176
     1
 40
50.0
176
     1
 90
        0
176
     1
290
     0
176
     1
290
     1
176
     1
290
     1
176
     1
290
     0
176
     1
290
     0
176
     1
290
     0
176
     1
290
     0
176
     1
290
     0
176
     1
290
     0
176
     1
 90
       50
176
     1
 40
0.0
176
     1
 40
1.0
176
     1
 90
        0
176
     1
 62
    18
420
        0
176
     1
 90
       50
176
     1
 90
        3
176
     1
 62
     5
420
      255
176
     1
290
     0
176
     1
 90
       50
176
     1
 90
       50
176
     1
 90
       50
176
     1
290
     0
176
     1
 90
       50
176
     1
 62
   256
176
     0
 40
1.0
176
     0
 90
        2
176
     1
  1
strokes_ogs.tif
176
     1
290
     0
176
     1
 40
1.0
176
     1
 40
1.0
176
     1
  0
VISUALSTYLE
  5
11C
102
{ACAD_REACTORS
330
10C
102
}
330
10C
100
AcDbVisualStyle
  2
ColorChange
 70
    16
177
     3
291
     1
 70
    58
 90
        2
176
     1
 90
        2
176
     1
 90
        3
176
     1
 90
        0
176
     1
 40
0.6
176
     1
 40
30.0
176
     1
 62
     8
420
  8421504
176
     1
 90
        1
176
     1
 90
        4
176
     1
 62
     7
176
     1
 62
   257
176
     1
 90
        1
176
     1
 90
        1
176
     1
 40
1.0
176
     1
 90
        8
176
     1
 62
     8
420
  8421504
176
     1
 40
1.0
176
     1
 90
        1
176
     1
 90
        6
176
     1
 90
        2
176
     1
 62
     7
176
     1
 90
        5
176
     1
 90
        0
176
     1
 90
        0
176
     1
290
     0
176
     1
 90
        1
176
     1
 40
0.0
176
     1
 90
        0
176
     1
290
     0
176
     1
290
     1
176
     1
290
     1
176
     1
290
     0
176
     1
290
     0
176
     1
290
     0
176
     1
290
     0
176
     1
290
     0
176
     1
290
     0
176
     1
 90
       50
176
     1
 40
0.0
176
     1
 40
1.0
176
     1
 90
        0
176
     1
 62
    18
420
        0
176
     1
 90
       50
176
     1
 90
        3
176
     1
 62
     5
420
      255
176
     1
290
     0
176
     1
 90
       50
176
     1
 90
       50
176
     1
 90
       50
176
     1
290
     0
176
     1
 90
       50
176
     1
 62
   256
176
     0
 40
1.0
176
     0
 90
        2
176
     1
  1
strokes_ogs.tif
176
     1
290
     0
176
     1
 40
1.0
176
     1
 40
1.0
176
     1
  0
VISUALSTYLE
  5
115
102
{ACAD_REACTORS
330
10C
102
}
330
10C
100
AcDbVisualStyle
  2
Conceptual
 70
     9
177
     3
291
     0
 70
    58
 90
        3
176
     1
 90
        2
176
     1
 90
        0
176
     1
 90
        0
176
     1
 40
0.6
176
     1
 40
30.0
176
     1
 62
     7
420
 16777215
176
     1
 90
        2
176
     1
 90
        2
176
     1
 62
     7
176
     1
 62
   257
176
     1
 90
        1
176
     1
 90
        1
176
     1
 40
179.0
176
     1
 90
        8
176
     1
 62
     7
176
     1
 40
1.0
176
     1
 90
        1
176
     1
 90
        6
176
     1
 90
        2
176
     1
 62
     7
176
     1
 90
        3
176
     1
 90
        0
176
     1
 90
        0
176
     1
290
     0
176
     1
 90
        1
176
     1
 40
0.0
176
     1
 90
        0
176
     1
290
     0
176
     1
290
     1
176
     1
290
     1
176
     1
290
     0
176
     1
290
     0
176
     1
290
     0
176
     1
290
     0
176
     1
290
     0
176
     1
290
     0
176
     1
 90
       50
176
     1
 40
0.0
176
     1
 40
1.0
176
     1
 90
        0
176
     1
 62
    18
420
        0
176
     1
 90
       50
176
     1
 90
        3
176
     1
 62
     5
420
      255
176
     1
290
     0
176
     1
 90
       50
176
     1
 90
       50
176
     1
 90
       50
176
     1
290
     0
176
     1
 90
       50
176
     1
 62
   256
176
     0
 40
1.0
176
     0
 90
        2
176
     1
  1
strokes_ogs.tif
176
     1
290
     0
176
     1
 40
1.0
176
     1
 40
1.0
176
     1
  0
VISUALSTYLE
  5
117
102
{ACAD_REACTORS
330
10C
102
}
330
10C
100
AcDbVisualStyle
  2
Dim
 70
    11
177
     3
291
     1
 70
    58
 90
        2
176
     1
 90
        2
176
     1
 90
        0
176
     1
 90
        0
176
     1
 40
0.6
176
     1
 40
30.0
176
     1
 62
     7
420
 16777215
176
     1
 90
        1
176
     1
 90
        4
176
     1
 62
     7
176
     1
 62
   257
176
     1
 90
        1
176
     1
 90
        1
176
     1
 40
1.0
176
     1
 90
        8
176
     1
 62
     7
176
     1
 40
1.0
176
     1
 90
        1
176
     1
 90
        6
176
     1
 90
        2
176
     1
 62
     7
176
     1
 90
        5
176
     1
 90
        0
176
     1
 90
        0
176
     1
290
     0
176
     1
 90
        1
176
     1
 40
-50.0
176
     1
 90
        0
176
     1
290
     0
176
     1
290
     1
176
     1
290
     1
176
     1
290
     0
176
     1
290
     0
176
     1
290
     0
176
     1
290
     0
176
     1
290
     0
176
     1
290
     0
176
     1
 90
       50
176
     1
 40
0.0
176
     1
 40
1.0
176
     1
 90
        0
176
     1
 62
    18
420
        0
176
     1
 90
       50
176
     1
 90
        3
176
     1
 62
     5
420
      255
176
     1
290
     0
176
     1
 90
       50
176
     1
 90
       50
176
     1
 90
       50
176
     1
290
     0
176
     1
 90
       50
176
     1
 62
   256
176
     0
 40
1.0
176
     0
 90
        2
176
     1
  1
strokes_ogs.tif
176
     1
290
     0
176
     1
 40
1.0
176
     1
 40
1.0
176
     1
  0
VISUALSTYLE
  5
124
102
{ACAD_REACTORS
330
10C
102
}
330
10C
100
AcDbVisualStyle
  2
EdgeColorOff
 70
    22
177
     3
291
     1
 70
    58
 90
        2
176
     0
 90
        2
176
     0
 90
        0
176
     0
 90
        0
176
     0
 40
0.6
176
     0
 40
30.0
176
     0
 62
     7
420
 16777215
176
     0
 90
        1
176
     0
 90
        4
176
     0
 62
     7
176
     0
 62
   257
176
     0
 90
        1
176
     0
 90
        1
176
     0
 40
1.0
176
     0
 90
        8
176
     2
 62
     7
176
     0
 40
1.0
176
     0
 90
        1
176
     0
 90
        6
176
     0
 90
        2
176
     0
 62
     7
176
     0
 90
        5
176
     0
 90
        0
176
     0
 90
        0
176
     0
290
     0
176
     0
 90
        1
176
     0
 40
0.0
176
     0
 90
        0
176
     0
290
     0
176
     1
290
     1
176
     1
290
     1
176
     1
290
     0
176
     1
290
     0
176
     1
290
     0
176
     1
290
     0
176
     1
290
     0
176
     1
290
     0
176
     1
 90
       50
176
     0
 40
0.0
176
     0
 40
1.0
176
     0
 90
        0
176
     0
 62
    18
420
        0
176
     0
 90
       50
176
     0
 90
        3
176
     0
 62
     5
420
      255
176
     0
290
     0
176
     1
 90
       50
176
     0
 90
       50
176
     0
 90
       50
176
     0
290
     0
176
     1
 90
       50
176
     0
 62
   256
176
     0
 40
1.0
176
     0
 90
        2
176
     0
  1
strokes_ogs.tif
176
     0
290
     0
176
     1
 40
1.0
176
     0
 40
1.0
176
     0
  0
VISUALSTYLE
  5
11B
102
{ACAD_REACTORS
330
10C
102
}
330
10C
100
AcDbVisualStyle
  2
Facepattern
 70
    15
177
     3
291
     1
 70
    58
 90
        2
176
     1
 90
        2
176
     1
 90
        0
176
     1
 90
        0
176
     1
 40
0.6
176
     1
 40
30.0
176
     1
 62
     7
420
 16777215
176
     1
 90
        1
176
     1
 90
        4
176
     1
 62
     7
176
     1
 62
   257
176
     1
 90
        1
176
     1
 90
        1
176
     1
 40
1.0
176
     1
 90
        8
176
     1
 62
     7
176
     1
 40
1.0
176
     1
 90
        1
176
     1
 90
        6
176
     1
 90
        2
176
     1
 62
     7
176
     1
 90
        5
176
     1
 90
        0
176
     1
 90
        0
176
     1
290
     0
176
     1
 90
        1
176
     1
 40
0.0
176
     1
 90
        0
176
     1
290
     0
176
     1
290
     1
176
     1
290
     1
176
     1
290
     0
176
     1
290
     0
176
     1
290
     0
176
     1
290
     0
176
     1
290
     0
176
     1
290
     0
176
     1
 90
       50
176
     1
 40
0.0
176
     1
 40
1.0
176
     1
 90
        0
176
     1
 62
    18
420
        0
176
     1
 90
       50
176
     1
 90
        3
176
     1
 62
     5
420
      255
176
     1
290
     0
176
     1
 90
       50
176
     1
 90
       50
176
     1
 90
       50
176
     1
290
     0
176
     1
 90
       50
176
     1
 62
   256
176
     0
 40
1.0
176
     0
 90
        2
176
     1
  1
strokes_ogs.tif
176
     1
290
     0
176
     1
 40
1.0
176
     1
 40
1.0
176
     1
  0
VISUALSTYLE
  5
10D
102
{ACAD_REACTORS
330
10C
102
}
330
10C
100
AcDbVisualStyle
  2
Flat
 70
     0
177
     3
291
     1
 70
    58
 90
        2
176
     1
 90
        1
176
     1
 90
        1
176
     1
 90
        2
176
     1
 40
0.6
176
     1
 40
30.0
176
     1
 62
     7
420
 16777215
176
     1
 90
        0
176
     1
 90
        0
176
     1
 62
     7
176
     1
 62
   257
176
     1
 90
        1
176
     1
 90
        1
176
     1
 40
1.0
176
     1
 90
        8
176
     1
 62
     7
176
     1
 40
1.0
176
     1
 90
        1
176
     1
 90
        6
176
     1
 90
        2
176
     1
 62
     7
176
     1
 90
        5
176
     1
 90
        0
176
     1
 90
        0
176
     1
290
     0
176
     1
 90
       13
176
     1
 40
0.0
176
     1
 90
        0
176
     1
290
     0
176
     1
290
     1
176
     1
290
     1
176
     1
290
     0
176
     1
290
     0
176
     1
290
     0
176
     1
290
     0
176
     1
290
     0
176
     1
290
     0
176
     1
 90
       50
176
     1
 40
0.0
176
     1
 40
1.0
176
     1
 90
        0
176
     1
 62
    18
420
        0
176
     1
 90
       50
176
     1
 90
        3
176
     1
 62
     5
420
      255
176
     1
290
     0
176
     1
 90
       50
176
     1
 90
       50
176
     1
 90
       50
176
     1
290
     0
176
     1
 90
       50
176
     1
 62
   256
176
     0
 40
1.0
176
     0
 90
        2
176
     1
  1
strokes_ogs.tif
176
     1
290
     0
176
     1
 40
1.0
176
     1
 40
1.0
176
     1
  0
VISUALSTYLE
  5
10E
102
{ACAD_REACTORS
330
10C
102
}
330
10C
100
AcDbVisualStyle
  2
FlatWithEdges
 70
     1
177
     3
291
     1
 70
    58
 90
        2
176
     1
 90
        1
176
     1
 90
        1
176
     1
 90
        2
176
     1
 40
0.6
176
     1
 40
30.0
176
     1
 62
     7
420
 16777215
176
     1
 90
        1
176
     1
 90
        0
176
     1
 62
     7
176
     1
 62
   257
176
     1
 90
        1
176
     1
 90
        1
176
     1
 40
1.0
176
     1
 90
        0
176
     1
 62
   257
176
     1
 40
1.0
176
     1
 90
        1
176
     1
 90
        6
176
     1
 90
        2
176
     1
 62
     7
176
     1
 90
        5
176
     1
 90
        0
176
     1
 90
        0
176
     1
290
     0
176
     1
 90
       13
176
     1
 40
0.0
176
     1
 90
        0
176
     1
290
     0
176
     1
290
     1
176
     1
290
     1
176
     1
290
     0
176
     1
290
     0
176
     1
290
     0
176
     1
290
     0
176
     1
290
     0
176
     1
290
     0
176
     1
 90
       50
176
     1
 40
0.0
176
     1
 40
1.0
176
     1
 90
        0
176
     1
 62
    18
420
        0
176
     1
 90
       50
176
     1
 90
        3
176
     1
 62
     5
420
      255
176
     1
290
     0
176
     1
 90
       50
176
     1
 90
       50
176
     1
 90
       50
176
     1
290
     0
176
     1
 90
       50
176
     1
 62
   256
176
     0
 40
1.0
176
     0
 90
        2
176
     1
  1
strokes_ogs.tif
176
     1
290
     0
176
     1
 40
1.0
176
     1
 40
1.0
176
     1
  0
VISUALSTYLE
  5
10F
102
{ACAD_REACTORS
330
10C
102
}
330
10C
100
AcDbVisualStyle
  2
Gouraud
 70
     2
177
     3
291
     1
 70
    58
 90
        2
176
     1
 90
        2
176
     1
 90
        1
176
     1
 90
        2
176
     1
 40
0.6
176
     1
 40
30.0
176
     1
 62
     7
420
 16777215
176
     1
 90
        0
176
     1
 90
        0
176
     1
 62
     7
176
     1
 62
   257
176
     1
 90
        1
176
     1
 90
        1
176
     1
 40
1.0
176
     1
 90
        0
176
     1
 62
     7
176
     1
 40
1.0
176
     1
 90
        1
176
     1
 90
        6
176
     1
 90
        2
176
     1
 62
     7
176
     1
 90
        5
176
     1
 90
        0
176
     1
 90
        0
176
     1
290
     0
176
     1
 90
       13
176
     1
 40
0.0
176
     1
 90
        0
176
     1
290
     0
176
     1
290
     1
176
     1
290
     1
176
     1
290
     0
176
     1
290
     0
176
     1
290
     0
176
     1
290
     0
176
     1
290
     0
176
     1
290
     0
176
     1
 90
       50
176
     1
 40
0.0
176
     1
 40
1.0
176
     1
 90
        0
176
     1
 62
    18
420
        0
176
     1
 90
       50
176
     1
 90
        3
176
     1
 62
     5
420
      255
176
     1
290
     0
176
     1
 90
       50
176
     1
 90
       50
176
     1
 90
       50
176
     1
290
     0
176
     1
 90
       50
176
     1
 62
   256
176
     0
 40
1.0
176
     0
 90
        2
176
     1
  1
strokes_ogs.tif
176
     1
290
     0
176
     1
 40
1.0
176
     1
 40
1.0
176
     1
  0
VISUALSTYLE
  5
110
102
{ACAD_REACTORS
330
10C
102
}
330
10C
100
AcDbVisualStyle
  2
GouraudWithEdges
 70
     3
177
     3
291
     1
 70
    58
 90
        2
176
     1
 90
        2
176
     1
 90
        1
176
     1
 90
        2
176
     1
 40
0.6
176
     1
 40
30.0
176
     1
 62
     7
420
 16777215
176
     1
 90
        1
176
     1
 90
        0
176
     1
 62
     7
176
     1
 62
   257
176
     1
 90
        1
176
     1
 90
        1
176
     1
 40
1.0
176
     1
 90
        0
176
     1
 62
   257
176
     1
 40
1.0
176
     1
 90
        1
176
     1
 90
        6
176
     1
 90
        2
176
     1
 62
     7
176
     1
 90
        5
176
     1
 90
        0
176
     1
 90
        0
176
     1
290
     0
176
     1
 90
       13
176
     1
 40
0.0
176
     1
 90
        0
176
     1
290
     0
176
     1
290
     1
176
     1
290
     1
176
     1
290
     0
176
     1
290
     0
176
     1
290
     0
176
     1
290
     0
176
     1
290
     0
176
     1
290
     0
176
     1
 90
       50
176
     1
 40
0.0
176
     1
 40
1.0
176
     1
 90
        0
176
     1
 62
    18
420
        0
176
     1
 90
       50
176
     1
 90
        3
176
     1
 62
     5
420
      255
176
     1
290
     0
176
     1
 90
       50
176
     1
 90
       50
176
     1
 90
       50
176
     1
290
     0
176
     1
 90
       50
176
     1
 62
   256
176
     0
 40
1.0
176
     0
 90
        2
176
     1
  1
strokes_ogs.tif
176
     1
290
     0
176
     1
 40
1.0
176
     1
 40
1.0
176
     1
  0
VISUALSTYLE
  5
114
102
{ACAD_REACTORS
330
10C
102
}
330
10C
100
AcDbVisualStyle
  2
Hidden
 70
     6
177
     3
291
     0
 70
    58
 90
        1
176
     1
 90
        2
176
     1
 90
        2
176
     1
 90
        0
176
     1
 40
0.6
176
     1
 40
30.0
176
     1
 62
     7
420
 16777215
176
     1
 90
        2
176
     1
 90
        2
176
     1
 62
     7
176
     1
 62
   257
176
     1
 90
        2
176
     1
 90
        1
176
     1
 40
40.0
176
     1
 90
        0
176
     1
 62
   257
176
     1
 40
1.0
176
     1
 90
        1
176
     1
 90
        6
176
     1
 90
        2
176
     1
 62
     7
176
     1
 90
        3
176
     1
 90
        0
176
     1
 90
        0
176
     1
290
     0
176
     1
 90
        1
176
     1
 40
0.0
176
     1
 90
        0
176
     1
290
     0
176
     1
290
     1
176
     1
290
     1
176
     1
290
     0
176
     1
290
     0
176
     1
290
     0
176
     1
290
     0
176
     1
290
     0
176
     1
290
     0
176
     1
 90
       50
176
     1
 40
0.0
176
     1
 40
1.0
176
     1
 90
        0
176
     1
 62
    18
420
        0
176
     1
 90
       50
176
     1
 90
        3
176
     1
 62
     5
420
      255
176
     1
290
     0
176
     1
 90
       50
176
     1
 90
       50
176
     1
 90
       50
176
     1
290
     0
176
     1
 90
       50
176
     1
 62
   256
176
     0
 40
1.0
176
     0
 90
        2
176
     1
  1
strokes_ogs.tif
176
     1
290
     0
176
     1
 40
1.0
176
     1
 40
1.0
176
     1
  0
VISUALSTYLE
  5
122
102
{ACAD_REACTORS
330
10C
102
}
330
10C
100
AcDbVisualStyle
  2
JitterOff
 70
    20
177
     3
291
     1
 70
    58
 90
        2
176
     0
 90
        2
176
     0
 90
        0
176
     0
 90
        0
176
     0
 40
0.6
176
     0
 40
30.0
176
     0
 62
     7
420
 16777215
176
     0
 90
        1
176
     0
 90
        4
176
     0
 62
     7
176
     0
 62
   257
176
     0
 90
        1
176
     0
 90
        1
176
     0
 40
1.0
176
     0
 90
       10
176
     2
 62
     7
176
     0
 40
1.0
176
     0
 90
        1
176
     0
 90
        6
176
     0
 90
        2
176
     0
 62
     7
176
     0
 90
        5
176
     0
 90
        0
176
     0
 90
        0
176
     0
290
     0
176
     0
 90
        1
176
     0
 40
0.0
176
     0
 90
        0
176
     0
290
     0
176
     1
290
     1
176
     1
290
     1
176
     1
290
     0
176
     1
290
     0
176
     1
290
     0
176
     1
290
     0
176
     1
290
     0
176
     1
290
     0
176
     1
 90
       50
176
     0
 40
0.0
176
     0
 40
1.0
176
     0
 90
        0
176
     0
 62
    18
420
        0
176
     0
 90
       50
176
     0
 90
        3
176
     0
 62
     5
420
      255
176
     0
290
     0
176
     1
 90
       50
176
     0
 90
       50
176
     0
 90
       50
176
     0
290
     0
176
     1
 90
       50
176
     0
 62
   256
176
     0
 40
1.0
176
     0
 90
        2
176
     0
  1
strokes_ogs.tif
176
     0
290
     0
176
     1
 40
1.0
176
     0
 40
1.0
176
     0
  0
VISUALSTYLE
  5
11A
102
{ACAD_REACTORS
330
10C
102
}
330
10C
100
AcDbVisualStyle
  2
Linepattern
 70
    14
177
     3
291
     1
 70
    58
 90
        2
176
     1
 90
        2
176
     1
 90
        0
176
     1
 90
        0
176
     1
 40
0.6
176
     1
 40
30.0
176
     1
 62
     7
420
 16777215
176
     1
 90
        1
176
     1
 90
        4
176
     1
 62
     7
176
     1
 62
   257
176
     1
 90
        7
176
     1
 90
        7
176
     1
 40
1.0
176
     1
 90
        8
176
     1
 62
     7
176
     1
 40
1.0
176
     1
 90
        1
176
     1
 90
        6
176
     1
 90
        2
176
     1
 62
     7
176
     1
 90
        5
176
     1
 90
        0
176
     1
 90
        0
176
     1
290
     0
176
     1
 90
        1
176
     1
 40
0.0
176
     1
 90
        0
176
     1
290
     0
176
     1
290
     1
176
     1
290
     1
176
     1
290
     0
176
     1
290
     0
176
     1
290
     0
176
     1
290
     0
176
     1
290
     0
176
     1
290
     0
176
     1
 90
       50
176
     1
 40
0.0
176
     1
 40
1.0
176
     1
 90
        0
176
     1
 62
    18
420
        0
176
     1
 90
       50
176
     1
 90
        3
176
     1
 62
     5
420
      255
176
     1
290
     0
176
     1
 90
       50
176
     1
 90
       50
176
     1
 90
       50
176
     1
290
     0
176
     1
 90
       50
176
     1
 62
   256
176
     0
 40
1.0
176
     0
 90
        2
176
     1
  1
strokes_ogs.tif
176
     1
290
     0
176
     1
 40
1.0
176
     1
 40
1.0
176
     1
  0
VISUALSTYLE
  5
123
102
{ACAD_REACTORS
330
10C
102
}
330
10C
100
AcDbVisualStyle
  2
OverhangOff
 70
    21
177
     3
291
     1
 70
    58
 90
        2
176
     0
 90
        2
176
     0
 90
        0
176
     0
 90
        0
176
     0
 40
0.6
176
     0
 40
30.0
176
     0
 62
     7
420
 16777215
176
     0
 90
        1
176
     0
 90
        4
176
     0
 62
     7
176
     0
 62
   257
176
     0
 90
        1
176
     0
 90
        1
176
     0
 40
1.0
176
     0
 90
        9
176
     2
 62
     7
176
     0
 40
1.0
176
     0
 90
        1
176
     0
 90
        6
176
     0
 90
        2
176
     0
 62
     7
176
     0
 90
        5
176
     0
 90
        0
176
     0
 90
        0
176
     0
290
     0
176
     0
 90
        1
176
     0
 40
0.0
176
     0
 90
        0
176
     0
290
     0
176
     1
290
     1
176
     1
290
     1
176
     1
290
     0
176
     1
290
     0
176
     1
290
     0
176
     1
290
     0
176
     1
290
     0
176
     1
290
     0
176
     1
 90
       50
176
     0
 40
0.0
176
     0
 40
1.0
176
     0
 90
        0
176
     0
 62
    18
420
        0
176
     0
 90
       50
176
     0
 90
        3
176
     0
 62
     5
420
      255
176
     0
290
     0
176
     1
 90
       50
176
     0
 90
       50
176
     0
 90
       50
176
     0
290
     0
176
     1
 90
       50
176
     0
 62
   256
176
     0
 40
1.0
176
     0
 90
        2
176
     0
  1
strokes_ogs.tif
176
     0
290
     0
176
     1
 40
1.0
176
     0
 40
1.0
176
     0
  0
VISUALSTYLE
  5
116
102
{ACAD_REACTORS
330
10C
102
}
330
10C
100
AcDbVisualStyle
  2
Realistic
 70
     8
177
     3
291
     0
 70
    58
 90
        2
176
     1
 90
        3
176
     1
 90
        0
176
     1
 90
        2
176
     1
 40
0.6
176
     1
 40
30.0
176
     1
 62
     7
420
 16777215
176
     1
 90
        0
176
     1
 90
        0
176
     1
 62
     7
176
     1
 62
   257
176
     1
 90
        1
176
     1
 90
        1
176
     1
 40
1.0
176
     1
 90
        8
176
     1
 62
   257
176
     1
 40
1.0
176
     1
 90
        1
176
     1
 90
        6
176
     1
 90
        2
176
     1
 62
     7
176
     1
 90
        3
176
     1
 90
        0
176
     1
 90
        0
176
     1
290
     0
176
     1
 90
       13
176
     1
 40
0.0
176
     1
 90
        0
176
     1
290
     0
176
     1
290
     1
176
     1
290
     1
176
     1
290
     0
176
     1
290
     0
176
     1
290
     0
176
     1
290
     0
176
     1
290
     0
176
     1
290
     0
176
     1
 90
       50
176
     1
 40
0.0
176
     1
 40
1.0
176
     1
 90
        0
176
     1
 62
    18
420
        0
176
     1
 90
       50
176
     1
 90
        3
176
     1
 62
     5
420
      255
176
     1
290
     0
176
     1
 90
       50
176
     1
 90
       50
176
     1
 90
       50
176
     1
290
     0
176
     1
 90
       50
176
     1
 62
   256
176
     0
 40
1.0
176
     0
 90
        2
176
     1
  1
strokes_ogs.tif
176
     1
290
     0
176
     1
 40
1.0
176
     1
 40
1.0
176
     1
  0
VISUALSTYLE
  5
121
102
{ACAD_REACTORS
330
10C
102
}
330
10C
100
AcDbVisualStyle
  2
Shaded
 70
    27
177
     3
291
     0
 70
    58
 90
        2
176
     1
 90
        2
176
     1
 90
        1
176
     1
 90
        2
176
     1
 40
0.6
176
     1
 40
30.0
176
     1
 62
     7
420
 16777215
176
     1
 90
        0
176
     1
 90
        4
176
     1
 62
     7
176
     1
 62
   257
176
     1
 90
        1
176
     1
 90
        1
176
     1
 40
1.0
176
     1
 90
        8
176
     1
 62
   257
176
     1
 40
1.0
176
     1
 90
        1
176
     1
 90
        6
176
     1
 90
        2
176
     1
 62
     8
420
  7895160
176
     1
 90
        3
176
     1
 90
        0
176
     1
 90
        0
176
     1
290
     0
176
     1
 90
        5
176
     1
 40
0.0
176
     1
 90
        0
176
     1
290
     0
176
     1
290
     1
176
     1
290
     1
176
     1
290
     0
176
     1
290
     0
176
     1
290
     0
176
     1
290
     0
176
     1
290
     0
176
     1
290
     0
176
     1
 90
       50
176
     1
 40
0.0
176
     1
 40
1.0
176
     1
 90
        0
176
     1
 62
    18
420
        0
176
     1
 90
       50
176
     1
 90
        3
176
     1
 62
     5
420
      255
176
     1
290
     0
176
     1
 90
       50
176
     1
 90
       50
176
     1
 90
       50
176
     1
290
     0
176
     1
 90
       50
176
     1
 62
   256
176
     0
 40
1.0
176
     0
 90
        2
176
     1
  1
strokes_ogs.tif
176
     1
290
     0
176
     1
 40
1.0
176
     1
 40
1.0
176
     1
  0
VISUALSTYLE
  5
120
102
{ACAD_REACTORS
330
10C
102
}
330
10C
100
AcDbVisualStyle
  2
Shaded with edges
 70
    26
177
     3
291
     0
 70
    58
 90
        2
176
     1
 90
        2
176
     1
 90
        1
176
     1
 90
        2
176
     1
 40
0.6
176
     1
 40
30.0
176
     1
 62
     7
420
 16777215
176
     1
 90
        1
176
     1
 90
        2
176
     1
 62
     7
176
     1
 62
   257
176
     1
 90
        2
176
     1
 90
        1
176
     1
 40
1.0
176
     1
 90
        8
176
     1
 62
   257
176
     1
 40
1.0
176
     1
 90
        1
176
     1
 90
        6
176
     1
 90
        2
176
     1
 62
     7
176
     1
 90
        3
176
     1
 90
        0
176
     1
 90
        0
176
     1
290
     0
176
     1
 90
        5
176
     1
 40
0.0
176
     1
 90
        0
176
     1
290
     0
176
     1
290
     1
176
     1
290
     1
176
     1
290
     0
176
     1
290
     0
176
     1
290
     0
176
     1
290
     0
176
     1
290
     0
176
     1
290
     0
176
     1
 90
       50
176
     1
 40
0.0
176
     1
 40
1.0
176
     1
 90
        0
176
     1
 62
    18
420
        0
176
     1
 90
       50
176
     1
 90
        3
176
     1
 62
     5
420
      255
176
     1
290
     0
176
     1
 90
       50
176
     1
 90
       50
176
     1
 90
       50
176
     1
290
     0
176
     1
 90
       50
176
     1
 62
   256
176
     0
 40
1.0
176
     0
 90
        2
176
     1
  1
strokes_ogs.tif
176
     1
290
     0
176
     1
 40
1.0
176
     1
 40
1.0
176
     1
  0
VISUALSTYLE
  5
11D
102
{ACAD_REACTORS
330
10C
102
}
330
10C
100
AcDbVisualStyle
  2
Shades of Gray
 70
    23
177
     3
291
     0
 70
    58
 90
        2
176
     1
 90
        2
176
     1
 90
        3
176
     1
 90
        0
176
     1
 40
0.6
176
     1
 40
30.0
176
     1
 62
     7
420
 16777215
176
     1
 90
        2
176
     1
 90
        2
176
     1
 62
     7
176
     1
 62
     7
176
     1
 90
        1
176
     1
 90
        1
176
     1
 40
40.0
176
     1
 90
        8
176
     1
 62
     7
176
     1
 40
1.0
176
     1
 90
        1
176
     1
 90
        6
176
     1
 90
        2
176
     1
 62
     7
176
     1
 90
        3
176
     1
 90
        0
176
     1
 90
        0
176
     1
290
     0
176
     1
 90
        1
176
     1
 40
0.0
176
     1
 90
        0
176
     1
290
     0
176
     1
290
     1
176
     1
290
     1
176
     1
290
     0
176
     1
290
     0
176
     1
290
     0
176
     1
290
     0
176
     1
290
     0
176
     1
290
     0
176
     1
 90
       50
176
     1
 40
0.0
176
     1
 40
1.0
176
     1
 90
        0
176
     1
 62
    18
420
        0
176
     1
 90
       50
176
     1
 90
        3
176
     1
 62
     5
420
      255
176
     1
290
     0
176
     1
 90
       50
176
     1
 90
       50
176
     1
 90
       50
176
     1
290
     0
176
     1
 90
       50
176
     1
 62
   256
176
     0
 40
1.0
176
     0
 90
        2
176
     1
  1
strokes_ogs.tif
176
     1
290
     0
176
     1
 40
1.0
176
     1
 40
1.0
176
     1
  0
VISUALSTYLE
  5
11E
102
{ACAD_REACTORS
330
10C
102
}
330
10C
100
AcDbVisualStyle
  2
Sketchy
 70
    24
177
     3
291
     0
 70
    58
 90
        1
176
     1
 90
        2
176
     1
 90
        2
176
     1
 90
        0
176
     1
 40
0.6
176
     1
 40
30.0
176
     1
 62
     7
420
 16777215
176
     1
 90
        2
176
     1
 90
        2
176
     1
 62
     7
176
     1
 62
     7
176
     1
 90
        1
176
     1
 90
        1
176
     1
 40
40.0
176
     1
 90
       11
176
     1
 62
     7
176
     1
 40
1.0
176
     1
 90
        1
176
     1
 90
        6
176
     1
 90
        2
176
     1
 62
     7
176
     1
 90
        6
176
     1
 90
        0
176
     1
 90
        0
176
     1
290
     0
176
     1
 90
        1
176
     1
 40
0.0
176
     1
 90
        0
176
     1
290
     0
176
     1
290
     1
176
     1
290
     1
176
     1
290
     0
176
     1
290
     0
176
     1
290
     0
176
     1
290
     0
176
     1
290
     0
176
     1
290
     0
176
     1
 90
       50
176
     1
 40
0.0
176
     1
 40
1.0
176
     1
 90
        0
176
     1
 62
    18
420
        0
176
     1
 90
       50
176
     1
 90
        3
176
     1
 62
     5
420
      255
176
     1
290
     0
176
     1
 90
       50
176
     1
 90
       50
176
     1
 90
       50
176
     1
290
     0
176
     1
 90
       50
176
     1
 62
   256
176
     0
 40
1.0
176
     0
 90
        2
176
     1
  1
strokes_ogs.tif
176
     1
290
     0
176
     1
 40
1.0
176
     1
 40
1.0
176
     1
  0
VISUALSTYLE
  5
119
102
{ACAD_REACTORS
330
10C
102
}
330
10C
100
AcDbVisualStyle
  2
Thicken
 70
    13
177
     3
291
     1
 70
    58
 90
        2
176
     1
 90
        2
176
     1
 90
        0
176
     1
 90
        0
176
     1
 40
0.6
176
     1
 40
30.0
176
     1
 62
     7
420
 16777215
176
     1
 90
        1
176
     1
 90
        4
176
     1
 62
     7
176
     1
 62
   257
176
     1
 90
        1
176
     1
 90
        1
176
     1
 40
1.0
176
     1
 90
       12
176
     1
 62
     7
176
     1
 40
1.0
176
     1
 90
        1
176
     1
 90
        6
176
     1
 90
        2
176
     1
 62
     7
176
     1
 90
        5
176
     1
 90
        0
176
     1
 90
        0
176
     1
290
     0
176
     1
 90
        1
176
     1
 40
0.0
176
     1
 90
        0
176
     1
290
     0
176
     1
290
     1
176
     1
290
     1
176
     1
290
     0
176
     1
290
     0
176
     1
290
     0
176
     1
290
     0
176
     1
290
     0
176
     1
290
     0
176
     1
 90
       50
176
     1
 40
0.0
176
     1
 40
1.0
176
     1
 90
        0
176
     1
 62
    18
420
        0
176
     1
 90
       50
176
     1
 90
        3
176
     1
 62
     5
420
      255
176
     1
290
     0
176
     1
 90
       50
176
     1
 90
       50
176
     1
 90
       50
176
     1
290
     0
176
     1
 90
       50
176
     1
 62
   256
176
     0
 40
1.0
176
     0
 90
        2
176
     1
  1
strokes_ogs.tif
176
     1
290
     0
176
     1
 40
1.0
176
     1
 40
1.0
176
     1
  0
VISUALSTYLE
  5
113
102
{ACAD_REACTORS
330
10C
102
}
330
10C
100
AcDbVisualStyle
  2
Wireframe
 70
     5
177
     3
291
     0
 70
    58
 90
        0
176
     1
 90
        2
176
     1
 90
        0
176
     1
 90
        0
176
     1
 40
0.6
176
     1
 40
30.0
176
     1
 62
     7
420
 16777215
176
     1
 90
        1
176
     1
 90
        4
176
     1
 62
     7
176
     1
 62
   257
176
     1
 90
        1
176
     1
 90
        1
176
     1
 40
1.0
176
     1
 90
        0
176
     1
 62
   257
176
     1
 40
1.0
176
     1
 90
        1
176
     1
 90
        6
176
     1
 90
        2
176
     1
 62
     7
176
     1
 90
        3
176
     1
 90
        0
176
     1
 90
        0
176
     1
290
     0
176
     1
 90
        1
176
     1
 40
0.0
176
     1
 90
        0
176
     1
290
     0
176
     1
290
     1
176
     1
290
     1
176
     1
290
     0
176
     1
290
     0
176
     1
290
     0
176
     1
290
     0
176
     1
290
     0
176
     1
290
     0
176
     1
 90
       50
176
     1
 40
0.0
176
     1
 40
1.0
176
     1
 90
        0
176
     1
 62
    18
420
        0
176
     1
 90
       50
176
     1
 90
        3
176
     1
 62
     5
420
      255
176
     1
290
     0
176
     1
 90
       50
176
     1
 90
       50
176
     1
 90
       50
176
     1
290
     0
176
     1
 90
       50
176
     1
 62
   256
176
     0
 40
1.0
176
     0
 90
        2
176
     1
  1
strokes_ogs.tif
176
     1
290
     0
176
     1
 40
1.0
176
     1
 40
1.0
176
     1
  0
VISUALSTYLE
  5
11F
102
{ACAD_REACTORS
330
10C
102
}
330
10C
100
AcDbVisualStyle
  2
X-Ray
 70
    25
177
     3
291
     0
 70
    58
 90
        2
176
     1
 90
        2
176
     1
 90
        1
176
     1
 90
        1
176
     1
 40
0.5
176
     1
 40
30.0
176
     1
 62
     7
420
 16777215
176
     1
 90
        1
176
     1
 90
        0
176
     1
 62
     7
176
     1
 62
   257
176
     1
 90
        1
176
     1
 90
        1
176
     1
 40
1.0
176
     1
 90
        8
176
     1
 62
     7
176
     1
 40
1.0
176
     1
 90
        1
176
     1
 90
        6
176
     1
 90
        2
176
     1
 62
     7
176
     1
 90
        3
176
     1
 90
        0
176
     1
 90
        0
176
     1
290
     0
176
     1
 90
       13
176
     1
 40
0.0
176
     1
 90
        0
176
     1
290
     0
176
     1
290
     1
176
     1
290
     1
176
     1
290
     0
176
     1
290
     0
176
     1
290
     0
176
     1
290
     0
176
     1
290
     0
176
     1
290
     0
176
     1
 90
       50
176
     1
 40
0.0
176
     1
 40
1.0
176
     1
 90
        0
176
     1
 62
    18
420
        0
176
     1
 90
       50
176
     1
 90
        3
176
     1
 62
     5
420
      255
176
     1
290
     0
176
     1
 90
       50
176
     1
 90
       50
176
     1
 90
       50
176
     1
290
     0
176
     1
 90
       50
176
     1
 62
   256
176
     0
 40
1.0
176
     0
 90
        2
176
     1
  1
strokes_ogs.tif
176
     1
290
     0
176
     1
 40
1.0
176
     1
 40
1.0
176
     1
  0
DICTIONARYVAR
  5
198
102
{ACAD_REACTORS
330
131
102
}
330
131
100
DictionaryVariables
280
     0
  1
1:1
  0
DICTIONARYVAR
  5
194
102
{ACAD_REACTORS
330
131
102
}
330
131
100
DictionaryVariables
280
     0
  1
STANDARD
  0
DICTIONARYVAR
  5
193
102
{ACAD_REACTORS
330
131
102
}
330
131
100
DictionaryVariables
280
     0
  1
STANDARD
  0
DICTIONARYVAR
  5
195
102
{ACAD_REACTORS
330
131
102
}
330
131
100
DictionaryVariables
280
     0
  1
Metric50
  0
DICTIONARYVAR
  5
196
102
{ACAD_REACTORS
330
131
102
}
330
131
100
DictionaryVariables
280
     0
  1
Metric50
  0
DICTIONARYVAR
  5
19A
102
{ACAD_REACTORS
330
131
102
}
330
131
100
DictionaryVariables
280
     0
  1
1
  0
DICTIONARYVAR
  5
19B
102
{ACAD_REACTORS
330
131
102
}
330
131
100
DictionaryVariables
280
     0
  1
15
  0
DICTIONARYVAR
  5
199
102
{ACAD_REACTORS
330
131
102
}
330
131
100
DictionaryVariables
280
     0
  1
0
  0
DICTIONARYVAR
  5
197
102
{ACAD_REACTORS
330
131
102
}
330
131
100
DictionaryVariables
280
     0
  1
0
  0
DICTIONARY
  5
FD
330
FC
100
AcDbDictionary
280
     1
281
     1
  3
BUMPTILE
360
FF
  3
DIFFUSETILE
360
FE
  3
OPACITYTILE
360
102
  3
REFLECTIONTILE
360
101
  3
REFRACTIONTILE
360
103
  3
SPECULARTILE
360
100
  0
DICTIONARY
  5
F5
330
F4
100
AcDbDictionary
280
     1
281
     1
  3
BUMPTILE
360
F7
  3
DIFFUSETILE
360
F6
  3
OPACITYTILE
360
FA
  3
REFLECTIONTILE
360
F9
  3
REFRACTIONTILE
360
FB
  3
SPECULARTILE
360
F8
  0
DICTIONARY
  5
105
330
104
100
AcDbDictionary
280
     1
281
     1
  3
BUMPTILE
360
107
  3
DIFFUSETILE
360
106
  3
OPACITYTILE
360
10A
  3
REFLECTIONTILE
360
109
  3
REFRACTIONTILE
360
10B
  3
SPECULARTILE
360
108
  0
DICTIONARY
  5
19D
330
127
100
AcDbDictionary
280
     1
281
     1
  3
ACAD_ROUNDTRIP_2008_TABLESTYLE_CELLSTYLEMAP
360
19E
  0
XRECORD
  5
FF
102
{ACAD_REACTORS
330
FD
102
}
330
FD
100
AcDbXrecord
280
     1
270
     1
271
     1
  0
XRECORD
  5
FE
102
{ACAD_REACTORS
330
FD
102
}
330
FD
100
AcDbXrecord
280
     1
270
     1
271
     1
  0
XRECORD
  5
102
102
{ACAD_REACTORS
330
FD
102
}
330
FD
100
AcDbXrecord
280
     1
270
     1
271
     1
  0
XRECORD
  5
101
102
{ACAD_REACTORS
330
FD
102
}
330
FD
100
AcDbXrecord
280
     1
270
     1
271
     1
  0
XRECORD
  5
103
102
{ACAD_REACTORS
330
FD
102
}
330
FD
100
AcDbXrecord
280
     1
270
     1
271
     1
  0
XRECORD
  5
100
102
{ACAD_REACTORS
330
FD
102
}
330
FD
100
AcDbXrecord
280
     1
270
     1
271
     1
  0
XRECORD
  5
F7
102
{ACAD_REACTORS
330
F5
102
}
330
F5
100
AcDbXrecord
280
     1
270
     1
271
     1
  0
XRECORD
  5
F6
102
{ACAD_REACTORS
330
F5
102
}
330
F5
100
AcDbXrecord
280
     1
270
     1
271
     1
  0
XRECORD
  5
FA
102
{ACAD_REACTORS
330
F5
102
}
330
F5
100
AcDbXrecord
280
     1
270
     1
271
     1
  0
XRECORD
  5
F9
102
{ACAD_REACTORS
330
F5
102
}
330
F5
100
AcDbXrecord
280
     1
270
     1
271
     1
  0
XRECORD
  5
FB
102
{ACAD_REACTORS
330
F5
102
}
330
F5
100
AcDbXrecord
280
     1
270
     1
271
     1
  0
XRECORD
  5
F8
102
{ACAD_REACTORS
330
F5
102
}
330
F5
100
AcDbXrecord
280
     1
270
     1
271
     1
  0
XRECORD
  5
107
102
{ACAD_REACTORS
330
105
102
}
330
105
100
AcDbXrecord
280
     1
270
     1
271
     1
  0
XRECORD
  5
106
102
{ACAD_REACTORS
330
105
102
}
330
105
100
AcDbXrecord
280
     1
270
     1
271
     1
  0
XRECORD
  5
10A
102
{ACAD_REACTORS
330
105
102
}
330
105
100
AcDbXrecord
280
     1
270
     1
271
     1
  0
XRECORD
  5
109
102
{ACAD_REACTORS
330
105
102
}
330
105
100
AcDbXrecord
280
     1
270
     1
271
     1
  0
XRECORD
  5
10B
102
{ACAD_REACTORS
330
105
102
}
330
105
100
AcDbXrecord
280
     1
270
     1
271
     1
  0
XRECORD
  5
108
102
{ACAD_REACTORS
330
105
102
}
330
105
100
AcDbXrecord
280
     1
270
     1
271
     1
  0
CELLSTYLEMAP
  5
19E
102
{ACAD_REACTORS
330
19D
102
}
330
19D
100
AcDbCellStyleMap
 90
        3
300
CELLSTYLE
  1
TABLEFORMAT_BEGIN
 90
        5
170
     1
 91
        0
 92
    32768
 62
   257
 93
        1
300
CONTENTFORMAT
  1
CONTENTFORMAT_BEGIN
 90
        0
 91
        0
 92
      512
 93
        0
300

 40
0.0
140
1.0
 94
        5
 62
     0
340
11
144
6.0
309
CONTENTFORMAT_END
171
     1
301
MARGIN
  1
CELLMARGIN_BEGIN
 40
1.5
 40
1.5
 40
1.5
 40
1.5
 40
4.5
 40
4.5
309
CELLMARGIN_END
 94
        6
 95
        1
302
GRIDFORMAT
  1
GRIDFORMAT_BEGIN
 90
        0
 91
        1
 62
     0
 92
       -2
340
0
 93
        0
 40
1.125
309
GRIDFORMAT_END
 95
        2
302
GRIDFORMAT
  1
GRIDFORMAT_BEGIN
 90
        0
 91
        1
 62
     0
 92
       -2
340
0
 93
        0
 40
1.125
309
GRIDFORMAT_END
 95
        4
302
GRIDFORMAT
  1
GRIDFORMAT_BEGIN
 90
        0
 91
        1
 62
     0
 92
       -2
340
0
 93
        0
 40
1.125
309
GRIDFORMAT_END
 95
        8
302
GRIDFORMAT
  1
GRIDFORMAT_BEGIN
 90
        0
 91
        1
 62
     0
 92
       -2
340
0
 93
        0
 40
1.125
309
GRIDFORMAT_END
 95
       16
302
GRIDFORMAT
  1
GRIDFORMAT_BEGIN
 90
        0
 91
        1
 62
     0
 92
       -2
340
0
 93
        0
 40
1.125
309
GRIDFORMAT_END
 95
       32
302
GRIDFORMAT
  1
GRIDFORMAT_BEGIN
 90
        0
 91
        1
 62
     0
 92
       -2
340
0
 93
        0
 40
1.125
309
GRIDFORMAT_END
309
TABLEFORMAT_END
  1
CELLSTYLE_BEGIN
 90
        1
 91
        1
300
_TITLE
309
CELLSTYLE_END
300
CELLSTYLE
  1
TABLEFORMAT_BEGIN
 90
        5
170
     1
 91
        0
 92
        0
 62
   257
 93
        1
300
CONTENTFORMAT
  1
CONTENTFORMAT_BEGIN
 90
        0
 91
        0
 92
      512
 93
        0
300

 40
0.0
140
1.0
 94
        5
 62
     0
340
11
144
4.5
309
CONTENTFORMAT_END
171
     1
301
MARGIN
  1
CELLMARGIN_BEGIN
 40
1.5
 40
1.5
 40
1.5
 40
1.5
 40
4.5
 40
4.5
309
CELLMARGIN_END
 94
        6
 95
        1
302
GRIDFORMAT
  1
GRIDFORMAT_BEGIN
 90
        0
 91
        1
 62
     0
 92
       -2
340
0
 93
        0
 40
1.125
309
GRIDFORMAT_END
 95
        2
302
GRIDFORMAT
  1
GRIDFORMAT_BEGIN
 90
        0
 91
        1
 62
     0
 92
       -2
340
0
 93
        0
 40
1.125
309
GRIDFORMAT_END
 95
        4
302
GRIDFORMAT
  1
GRIDFORMAT_BEGIN
 90
        0
 91
        1
 62
     0
 92
       -2
340
0
 93
        0
 40
1.125
309
GRIDFORMAT_END
 95
        8
302
GRIDFORMAT
  1
GRIDFORMAT_BEGIN
 90
        0
 91
        1
 62
     0
 92
       -2
340
0
 93
        0
 40
1.125
309
GRIDFORMAT_END
 95
       16
302
GRIDFORMAT
  1
GRIDFORMAT_BEGIN
 90
        0
 91
        1
 62
     0
 92
       -2
340
0
 93
        0
 40
1.125
309
GRIDFORMAT_END
 95
       32
302
GRIDFORMAT
  1
GRIDFORMAT_BEGIN
 90
        0
 91
        1
 62
     0
 92
       -2
340
0
 93
        0
 40
1.125
309
GRIDFORMAT_END
309
TABLEFORMAT_END
  1
CELLSTYLE_BEGIN
 90
        2
 91
        1
300
_HEADER
309
CELLSTYLE_END
300
CELLSTYLE
  1
TABLEFORMAT_BEGIN
 90
        5
170
     1
 91
        0
 92
        0
 62
   257
 93
        1
300
CONTENTFORMAT
  1
CONTENTFORMAT_BEGIN
 90
        0
 91
        0
 92
      512
 93
        0
300

 40
0.0
140
1.0
 94
        2
 62
     0
340
11
144
4.5
309
CONTENTFORMAT_END
171
     1
301
MARGIN
  1
CELLMARGIN_BEGIN
 40
1.5
 40
1.5
 40
1.5
 40
1.5
 40
4.5
 40
4.5
309
CELLMARGIN_END
 94
        6
 95
        1
302
GRIDFORMAT
  1
GRIDFORMAT_BEGIN
 90
        0
 91
        1
 62
     0
 92
       -2
340
0
 93
        0
 40
1.125
309
GRIDFORMAT_END
 95
        2
302
GRIDFORMAT
  1
GRIDFORMAT_BEGIN
 90
        0
 91
        1
 62
     0
 92
       -2
340
0
 93
        0
 40
1.125
309
GRIDFORMAT_END
 95
        4
302
GRIDFORMAT
  1
GRIDFORMAT_BEGIN
 90
        0
 91
        1
 62
     0
 92
       -2
340
0
 93
        0
 40
1.125
309
GRIDFORMAT_END
 95
        8
302
GRIDFORMAT
  1
GRIDFORMAT_BEGIN
 90
        0
 91
        1
 62
     0
 92
       -2
340
0
 93
        0
 40
1.125
309
GRIDFORMAT_END
 95
       16
302
GRIDFORMAT
  1
GRIDFORMAT_BEGIN
 90
        0
 91
        1
 62
     0
 92
       -2
340
0
 93
        0
 40
1.125
309
GRIDFORMAT_END
 95
       32
302
GRIDFORMAT
  1
GRIDFORMAT_BEGIN
 90
        0
 91
        1
 62
     0
 92
       -2
340
0
 93
        0
 40
1.125
309
GRIDFORMAT_END
309
TABLEFORMAT_END
  1
CELLSTYLE_BEGIN
 90
        3
 91
        2
300
_DATA
309
CELLSTYLE_END
  0
ENDSEC
  0
EOF
