  0
SECTION
  2
HEADER
  9
$ACADVER
  1
AC1032
  9
$ACADMAINTVER
 90
      248
  9
$DWGCODEPAGE
  3
ANSI_1252
  9
$LASTSAVEDBY
  1
Juan Pablo Lopez
  9
$REQUIREDVERSIONS
160
                 0
  9
$INSBASE
 10
0.0
 20
0.0
 30
0.0
  9
$EXTMIN
 10
55088.1057278026
 20
30569.38087506195
 30
0.0
  9
$EXTMAX
 10
58083.56727583698
 20
32435.6995499063
 30
0.0
  9
$LIMMIN
 10
0.0
 20
0.0
  9
$LIMMAX
 10
420.0
 20
297.0
  9
$ORTHOMODE
 70
     0
  9
$REGENMODE
 70
     1
  9
$FILLMODE
 70
     1
  9
$QTEXTMODE
 70
     0
  9
$MIRRTEXT
 70
     1
  9
$LTSCALE
 40
1.0
  9
$ATTMODE
 70
     1
  9
$TEXTSIZE
 40
2.5
  9
$TRACEWID
 40
1.0
  9
$TEXTSTYLE
  7
Standard
  9
$CLAYER
  8
0
  9
$CELTYPE
  6
ByLayer
  9
$CECOLOR
 62
   256
  9
$CELTSCALE
 40
1.0
  9
$DISPSILH
 70
     0
  9
$DIMSCALE
 40
1.0
  9
$DIMASZ
 40
2.5
  9
$DIMEXO
 40
0.625
  9
$DIMDLI
 40
3.75
  9
$DIMRND
 40
0.0
  9
$DIMDLE
 40
0.0
  9
$DIMEXE
 40
1.25
  9
$DIMTP
 40
0.0
  9
$DIMTM
 40
0.0
  9
$DIMTXT
 40
2.5
  9
$DIMCEN
 40
2.5
  9
$DIMTSZ
 40
0.0
  9
$DIMTOL
 70
     0
  9
$DIMLIM
 70
     0
  9
$DIMTIH
 70
     0
  9
$DIMTOH
 70
     0
  9
$DIMSE1
 70
     0
  9
$DIMSE2
 70
     0
  9
$DIMTAD
 70
     1
  9
$DIMZIN
 70
     8
  9
$DIMBLK
  1

  9
$DIMASO
 70
     1
  9
$DIMSHO
 70
     1
  9
$DIMPOST
  1

  9
$DIMAPOST
  1

  9
$DIMALT
 70
     0
  9
$DIMALTD
 70
     3
  9
$DIMALTF
 40
0.03937
  9
$DIMLFAC
 40
1.0
  9
$DIMTOFL
 70
     1
  9
$DIMTVP
 40
0.0
  9
$DIMTIX
 70
     0
  9
$DIMSOXD
 70
     0
  9
$DIMSAH
 70
     0
  9
$DIMBLK1
  1

  9
$DIMBLK2
  1

  9
$DIMSTYLE
  2
STANDARD
  9
$DIMCLRD
 70
     0
  9
$DIMCLRE
 70
     0
  9
$DIMCLRT
 70
     0
  9
$DIMTFAC
 40
1.0
  9
$DIMGAP
 40
0.625
  9
$DIMJUST
 70
     0
  9
$DIMSD1
 70
     0
  9
$DIMSD2
 70
     0
  9
$DIMTOLJ
 70
     0
  9
$DIMTZIN
 70
     8
  9
$DIMALTZ
 70
     0
  9
$DIMALTTZ
 70
     0
  9
$DIMUPT
 70
     0
  9
$DIMDEC
 70
     2
  9
$DIMTDEC
 70
     2
  9
$DIMALTU
 70
     2
  9
$DIMALTTD
 70
     3
  9
$DIMTXSTY
  7
Standard
  9
$DIMAUNIT
 70
     0
  9
$DIMADEC
 70
     0
  9
$DIMALTRND
 40
0.0
  9
$DIMAZIN
 70
     0
  9
$DIMDSEP
 70
    44
  9
$DIMATFIT
 70
     0
  9
$DIMFRAC
 70
     0
  9
$DIMLDRBLK
  1

  9
$DIMLUNIT
 70
     2
  9
$DIMLWD
 70
    -2
  9
$DIMLWE
 70
    -2
  9
$DIMTMOVE
 70
     0
  9
$DIMFXL
 40
1.0
  9
$DIMFXLON
 70
     0
  9
$DIMJOGANG
 40
0.7853981633974483
  9
$DIMTFILL
 70
     0
  9
$DIMTFILLCLR
 70
     0
  9
$DIMARCSYM
 70
     0
  9
$DIMLTYPE
  6

  9
$DIMLTEX1
  6

  9
$DIMLTEX2
  6

  9
$DIMTXTDIRECTION
 70
     0
  9
$LUNITS
 70
     2
  9
$LUPREC
 70
     4
  9
$SKETCHINC
 40
1.0
  9
$FILLETRAD
 40
2.5
  9
$AUNITS
 70
     0
  9
$AUPREC
 70
     0
  9
$MENU
  1
.
  9
$ELEVATION
 40
0.0
  9
$PELEVATION
 40
0.0
  9
$THICKNESS
 40
0.0
  9
$LIMCHECK
 70
     0
  9
$CHAMFERA
 40
2.5
  9
$CHAMFERB
 40
2.5
  9
$CHAMFERC
 40
0.0
  9
$CHAMFERD
 40
0.0
  9
$SKPOLY
 70
     0
  9
$TDCREATE
 40
2460422.330162038
  9
$TDUCREATE
 40
2460422.246828704
  9
$TDUPDATE
 40
2460422.374062500
  9
$TDUUPDATE
 40
2460422.290729166
  9
$TDINDWG
 40
0.0439004630
  9
$TDUSRTIMER
 40
0.0439004630
  9
$USRTIMER
 70
     1
  9
$ANGBASE
 50
0.0
  9
$ANGDIR
 70
     0
  9
$PDMODE
 70
     0
  9
$PDSIZE
 40
0.0
  9
$PLINEWID
 40
0.0
  9
$SPLFRAME
 70
     0
  9
$SPLINETYPE
 70
     6
  9
$SPLINESEGS
 70
     8
  9
$HANDSEED
  5
1D8
  9
$SURFTAB1
 70
     6
  9
$SURFTAB2
 70
     6
  9
$SURFTYPE
 70
     6
  9
$SURFU
 70
     6
  9
$SURFV
 70
     6
  9
$UCSBASE
  2

  9
$UCSNAME
  2

  9
$UCSORG
 10
0.0
 20
0.0
 30
0.0
  9
$UCSXDIR
 10
1.0
 20
0.0
 30
0.0
  9
$UCSYDIR
 10
0.0
 20
1.0
 30
0.0
  9
$UCSORTHOREF
  2

  9
$UCSORTHOVIEW
 70
     1
  9
$UCSORGTOP
 10
0.0
 20
0.0
 30
0.0
  9
$UCSORGBOTTOM
 10
0.0
 20
0.0
 30
0.0
  9
$UCSORGLEFT
 10
0.0
 20
0.0
 30
0.0
  9
$UCSORGRIGHT
 10
0.0
 20
0.0
 30
0.0
  9
$UCSORGFRONT
 10
0.0
 20
0.0
 30
0.0
  9
$UCSORGBACK
 10
0.0
 20
0.0
 30
0.0
  9
$PUCSBASE
  2

  9
$PUCSNAME
  2

  9
$PUCSORG
 10
0.0
 20
0.0
 30
0.0
  9
$PUCSXDIR
 10
1.0
 20
0.0
 30
0.0
  9
$PUCSYDIR
 10
0.0
 20
1.0
 30
0.0
  9
$PUCSORTHOREF
  2

  9
$PUCSORTHOVIEW
 70
     0
  9
$PUCSORGTOP
 10
0.0
 20
0.0
 30
0.0
  9
$PUCSORGBOTTOM
 10
0.0
 20
0.0
 30
0.0
  9
$PUCSORGLEFT
 10
0.0
 20
0.0
 30
0.0
  9
$PUCSORGRIGHT
 10
0.0
 20
0.0
 30
0.0
  9
$PUCSORGFRONT
 10
0.0
 20
0.0
 30
0.0
  9
$PUCSORGBACK
 10
0.0
 20
0.0
 30
0.0
  9
$USERI1
 70
     0
  9
$USERI2
 70
     0
  9
$USERI3
 70
     0
  9
$USERI4
 70
     0
  9
$USERI5
 70
     0
  9
$USERR1
 40
0.0
  9
$USERR2
 40
0.0
  9
$USERR3
 40
0.0
  9
$USERR4
 40
0.0
  9
$USERR5
 40
0.0
  9
$WORLDVIEW
 70
     1
  9
$SHADEDGE
 70
     3
  9
$SHADEDIF
 70
    70
  9
$TILEMODE
 70
     1
  9
$MAXACTVP
 70
    64
  9
$PINSBASE
 10
0.0
 20
0.0
 30
0.0
  9
$PLIMCHECK
 70
     0
  9
$PEXTMIN
 10
0.0
 20
0.0
 30
0.0
  9
$PEXTMAX
 10
256.126465
 20
628.169495
 30
2.0
  9
$PLIMMIN
 10
0.0
 20
0.0
  9
$PLIMMAX
 10
420.0
 20
297.0
  9
$UNITMODE
 70
     0
  9
$VISRETAIN
 70
     0
  9
$PLINEGEN
 70
     0
  9
$PSLTSCALE
 70
     1
  9
$TREEDEPTH
 70
  3020
  9
$CMLSTYLE
  2
Standard
  9
$CMLJUST
 70
     0
  9
$CMLSCALE
 40
20.0
  9
$PROXYGRAPHICS
 70
     1
  9
$MEASUREMENT
 70
     1
  9
$CELWEIGHT
370
    -1
  9
$ENDCAPS
280
     0
  9
$JOINSTYLE
280
     0
  9
$LWDISPLAY
290
     0
  9
$INSUNITS
 70
     0
  9
$HYPERLINKBASE
  1

  9
$STYLESHEET
  1

  9
$XEDIT
290
     1
  9
$CEPSNTYPE
380
     0
  9
$PSTYLEMODE
290
     0
  9
$FINGERPRINTGUID
  2
{73489A3F-EC59-4795-95B3-A99FC2CEA519}
  9
$VERSIONGUID
  2
{889169B7-8DAC-744E-8860-FC5A5A14CF0B}
  9
$EXTNAMES
290
     1
  9
$PSVPSCALE
 40
0.0
  9
$OLESTARTUP
290
     0
  9
$SORTENTS
280
   127
  9
$INDEXCTL
280
     0
  9
$HIDETEXT
280
     0
  9
$XCLIPFRAME
280
     2
  9
$HALOGAP
280
     0
  9
$OBSCOLOR
 70
   257
  9
$OBSLTYPE
280
     0
  9
$INTERSECTIONDISPLAY
280
     0
  9
$INTERSECTIONCOLOR
 70
   257
  9
$DIMASSOC
280
     1
  9
$PROJECTNAME
  1

  9
$CAMERADISPLAY
290
     0
  9
$LENSLENGTH
 40
50.0
  9
$CAMERAHEIGHT
 40
0.0
  9
$STEPSPERSEC
 40
2.0
  9
$STEPSIZE
 40
6.0
  9
$3DDWFPREC
 40
2.0
  9
$PSOLWIDTH
 40
0.25
  9
$PSOLHEIGHT
 40
4.0
  9
$LOFTANG1
 40
1.570796326794896
  9
$LOFTANG2
 40
1.570796326794896
  9
$LOFTMAG1
 40
0.0
  9
$LOFTMAG2
 40
0.0
  9
$LOFTPARAM
 70
     7
  9
$LOFTNORMALS
280
     1
  9
$LATITUDE
 40
37.795
  9
$LONGITUDE
 40
-122.394
  9
$NORTHDIRECTION
 40
0.0
  9
$TIMEZONE
 70
 -8000
  9
$LIGHTGLYPHDISPLAY
280
     1
  9
$TILEMODELIGHTSYNCH
280
     1
  9
$CMATERIAL
347
F4
  9
$SOLIDHIST
280
     0
  9
$SHOWHIST
280
     1
  9
$DWFFRAME
280
     2
  9
$DGNFRAME
280
     0
  9
$REALWORLDSCALE
290
     1
  9
$INTERFERECOLOR
 62
     1
  9
$INTERFEREOBJVS
345
116
  9
$INTERFEREVPVS
346
113
  9
$CSHADOW
280
     0
  9
$SHADOWPLANELOCATION
 40
0.0
  0
ENDSEC
  0
SECTION
  2
CLASSES
  0
CLASS
  1
ACDBDICTIONARYWDFLT
  2
AcDbDictionaryWithDefault
  3
ObjectDBX Classes
 90
        0
 91
        1
280
     0
281
     0
  0
CLASS
  1
VISUALSTYLE
  2
AcDbVisualStyle
  3
ObjectDBX Classes
 90
     4095
 91
       24
280
     0
281
     0
  0
CLASS
  1
MATERIAL
  2
AcDbMaterial
  3
ObjectDBX Classes
 90
     1153
 91
        3
280
     0
281
     0
  0
CLASS
  1
SCALE
  2
AcDbScale
  3
ObjectDBX Classes
 90
     1153
 91
       33
280
     0
281
     0
  0
CLASS
  1
TABLESTYLE
  2
AcDbTableStyle
  3
ObjectDBX Classes
 90
     4095
 91
        1
280
     0
281
     0
  0
CLASS
  1
MLEADERSTYLE
  2
AcDbMLeaderStyle
  3
ACDB_MLEADERSTYLE_CLASS
 90
     4095
 91
        1
280
     0
281
     0
  0
CLASS
  1
SUN
  2
AcDbSun
  3
SCENEOE
 90
     1153
 91
        0
280
     0
281
     0
  0
CLASS
  1
ACDBSECTIONVIEWSTYLE
  2
AcDbSectionViewStyle
  3
ObjectDBX Classes
 90
     1025
 91
        1
280
     0
281
     0
  0
CLASS
  1
ACDBDETAILVIEWSTYLE
  2
AcDbDetailViewStyle
  3
ObjectDBX Classes
 90
     1025
 91
        1
280
     0
281
     0
  0
CLASS
  1
DICTIONARYVAR
  2
AcDbDictionaryVar
  3
ObjectDBX Classes
 90
        0
 91
       15
280
     0
281
     0
  0
CLASS
  1
SORTENTSTABLE
  2
AcDbSortentsTable
  3
ObjectDBX Classes
 90
        0
 91
        1
280
     0
281
     0
  0
CLASS
  1
CELLSTYLEMAP
  2
AcDbCellStyleMap
  3
ObjectDBX Classes
 90
     1152
 91
        6
280
     0
281
     0
  0
ENDSEC
  0
SECTION
  2
TABLES
  0
TABLE
  2
VPORT
  5
8
330
0
100
AcDbSymbolTable
 70
     1
  0
VPORT
  5
29
330
8
100
AcDbSymbolTableRecord
100
AcDbViewportTableRecord
  2
*Active
 70
     0
 10
0.0
 20
0.0
 11
1.0
 21
1.0
 12
57095.94997245635
 22
31822.43277332967
 13
0.0
 23
0.0
 14
0.5
 24
0.5
 15
0.5
 25
0.5
 16
0.0
 26
0.0
 36
1.0
 17
0.0
 27
0.0
 37
0.0
 40
2958.848854827309
 41
2.32888349514563
 42
50.0
 43
0.0
 44
0.0
 50
0.0
 51
0.0
 71
     0
 72
   100
 73
     1
 74
     3
 75
     0
 76
     0
 77
     0
 78
     0
281
     0
 65
     1
110
0.0
120
0.0
130
0.0
111
1.0
121
0.0
131
0.0
112
0.0
122
1.0
132
0.0
 79
     0
146
0.0
348
112
 60
     3
 61
     5
292
     1
282
     1
141
0.0
142
0.0
 63
   250
421
  3355443
1001
ACAD_NAV_VCDISPLAY
1070
     3
  0
ENDTAB
  0
TABLE
  2
LTYPE
  5
5
330
0
100
AcDbSymbolTable
 70
     1
  0
LTYPE
  5
14
330
5
100
AcDbSymbolTableRecord
100
AcDbLinetypeTableRecord
  2
ByBlock
 70
     0
  3

 72
    65
 73
     0
 40
0.0
  0
LTYPE
  5
15
330
5
100
AcDbSymbolTableRecord
100
AcDbLinetypeTableRecord
  2
ByLayer
 70
     0
  3

 72
    65
 73
     0
 40
0.0
  0
LTYPE
  5
16
330
5
100
AcDbSymbolTableRecord
100
AcDbLinetypeTableRecord
  2
Continuous
 70
     0
  3
Solid line
 72
    65
 73
     0
 40
0.0
  0
ENDTAB
  0
TABLE
  2
LAYER
  5
2
102
{ACAD_XDICTIONARY
360
1A3
102
}
330
0
100
AcDbSymbolTable
 70
     6
  0
LAYER
  5
10
102
{ACAD_XDICTIONARY
360
186
102
}
330
2
100
AcDbSymbolTableRecord
100
AcDbLayerTableRecord
  2
0
 70
     0
 62
     7
  6
Continuous
370
    13
390
F
347
104
348
0
  0
LAYER
  5
6F
102
{ACAD_XDICTIONARY
360
188
102
}
330
2
100
AcDbSymbolTableRecord
100
AcDbLayerTableRecord
  2
TEXT
 70
     0
 62
     7
  6
Continuous
370
    13
390
F
347
104
348
0
  0
LAYER
  5
70
102
{ACAD_XDICTIONARY
360
18A
102
}
330
2
100
AcDbSymbolTableRecord
100
AcDbLayerTableRecord
  2
STRATEGYPOINT
 70
     0
 62
     7
  6
Continuous
370
    13
390
F
347
104
348
0
  0
LAYER
  5
71
102
{ACAD_XDICTIONARY
360
18C
102
}
330
2
100
AcDbSymbolTableRecord
100
AcDbLayerTableRecord
  2
ROSETTE
 70
     0
 62
     7
  6
Continuous
370
    13
390
F
347
104
348
0
  0
LAYER
  5
72
102
{ACAD_XDICTIONARY
360
18E
102
}
330
2
100
AcDbSymbolTableRecord
100
AcDbLayerTableRecord
  2
OUTER
 70
     0
 62
     7
  6
Continuous
370
    13
390
F
347
104
348
0
  0
LAYER
  5
D7
102
{ACAD_XDICTIONARY
360
190
102
}
330
2
100
AcDbSymbolTableRecord
100
AcDbLayerTableRecord
  2
MARKERS
 70
     0
 62
     7
  6
Continuous
370
    13
390
F
347
104
348
0
  0
ENDTAB
  0
TABLE
  2
STYLE
  5
3
330
0
100
AcDbSymbolTable
 70
     2
  0
STYLE
  5
11
330
3
100
AcDbSymbolTableRecord
100
AcDbTextStyleTableRecord
  2
Standard
 70
     0
 40
0.0
 41
1.0
 50
0.0
 71
     0
 42
2.5
  3
isocp.shx
  4

  0
STYLE
  5
6E
330
3
100
AcDbSymbolTableRecord
100
AcDbTextStyleTableRecord
  2
GDT
 70
     0
 40
0.0
 41
1.0
 50
0.0
 71
     0
 42
0.2
  3
gdt.shx
  4

  0
ENDTAB
  0
TABLE
  2
VIEW
  5
6
330
0
100
AcDbSymbolTable
 70
     5
  0
ENDTAB
  0
TABLE
  2
UCS
  5
7
330
0
100
AcDbSymbolTable
 70
     0
  0
ENDTAB
  0
TABLE
  2
APPID
  5
9
330
0
100
AcDbSymbolTable
 70
     2
  0
APPID
  5
12
330
9
100
AcDbSymbolTableRecord
100
AcDbRegAppTableRecord
  2
ACAD
 70
     0
  0
APPID
  5
19B
330
9
100
AcDbSymbolTableRecord
100
AcDbRegAppTableRecord
  2
ACAD_NAV_VCDISPLAY
 70
     0
  0
ENDTAB
  0
TABLE
  2
DIMSTYLE
  5
A
330
0
100
AcDbSymbolTable
 70
     1
100
AcDbDimStyleTable
 71
     0
  0
DIMSTYLE
105
27
330
A
100
AcDbSymbolTableRecord
100
AcDbDimStyleTableRecord
  2
STANDARD
 70
     0
 41
2.5
 42
0.625
 43
3.75
 44
1.25
 73
     0
 74
     0
 77
     1
 78
     8
140
2.5
141
2.5
143
0.03937
147
0.625
171
     3
172
     1
271
     2
272
     2
274
     3
278
    44
283
     0
284
     8
289
     0
340
11
  0
ENDTAB
  0
TABLE
  2
BLOCK_RECORD
  5
1
330
0
100
AcDbSymbolTable
 70
    19
  0
BLOCK_RECORD
  5
1F
102
{ACAD_XDICTIONARY
360
133
102
}
330
1
100
AcDbSymbolTableRecord
100
AcDbBlockTableRecord
  2
*Model_Space
340
22
 70
     0
280
     1
281
     0
  0
BLOCK_RECORD
  5
1B
330
1
100
AcDbSymbolTableRecord
100
AcDbBlockTableRecord
  2
*Paper_Space
340
1E
 70
     0
280
     1
281
     0
  0
BLOCK_RECORD
  5
23
330
1
100
AcDbSymbolTableRecord
100
AcDbBlockTableRecord
  2
*Paper_Space0
340
26
 70
     0
280
     1
281
     0
  0
BLOCK_RECORD
  5
4
330
1
100
AcDbSymbolTableRecord
100
AcDbBlockTableRecord
  2
V236_LW_LRO08_700 RT_TEXT_1
340
0
102
{BLKREFS
331
2A
102
}
 70
     0
280
     1
281
     0
  0
BLOCK_RECORD
  5
32
330
1
100
AcDbSymbolTableRecord
100
AcDbBlockTableRecord
  2
29276884_INF_GF_HM_BI45_1000_54_CHORDWISE_V1_V236_LW_LRO08_700_R0_I52_DXF
340
0
 70
     0
280
     1
281
     0
  0
BLOCK_RECORD
  5
37
330
1
100
AcDbSymbolTableRecord
100
AcDbBlockTableRecord
  2
V236_LW_LRO08_701 RT_TEXT_2
340
0
102
{BLKREFS
331
3B
102
}
 70
     0
280
     1
281
     0
  0
BLOCK_RECORD
  5
43
330
1
100
AcDbSymbolTableRecord
100
AcDbBlockTableRecord
  2
29276884_INF_GF_HM_BI45_1000_54_CHORDWISE_V1_V236_LW_LRO08_701_R0_I52_DXF
340
0
 70
     0
280
     1
281
     0
  0
BLOCK_RECORD
  5
6A
330
1
100
AcDbSymbolTableRecord
100
AcDbBlockTableRecord
  2
V236_LW_LRO08_702 RT_TEXT_3
340
0
102
{BLKREFS
331
73
102
}
 70
     0
280
     1
281
     0
  0
BLOCK_RECORD
  5
7B
330
1
100
AcDbSymbolTableRecord
100
AcDbBlockTableRecord
  2
29276884_INF_GF_HM_BI45_1000_54_CHORDWISE_V1_V236_LW_LRO08_702_R0_I52_DXF
340
0
 70
     0
280
     1
281
     0
  0
BLOCK_RECORD
  5
82
330
1
100
AcDbSymbolTableRecord
100
AcDbBlockTableRecord
  2
V236_LW_LRO08_703 RT_TEXT_4
340
0
102
{BLKREFS
331
86
102
}
 70
     0
280
     1
281
     0
  0
BLOCK_RECORD
  5
8E
330
1
100
AcDbSymbolTableRecord
100
AcDbBlockTableRecord
  2
29276884_INF_GF_HM_BI45_1000_54_CHORDWISE_V1_V236_LW_LRO08_703_R0_I52_DXF
340
0
 70
     0
280
     1
281
     0
  0
BLOCK_RECORD
  5
93
330
1
100
AcDbSymbolTableRecord
100
AcDbBlockTableRecord
  2
V236_LW_LRO08_704 RT_TEXT_5
340
0
102
{BLKREFS
331
97
102
}
 70
     0
280
     1
281
     0
  0
BLOCK_RECORD
  5
9F
330
1
100
AcDbSymbolTableRecord
100
AcDbBlockTableRecord
  2
29276884_INF_GF_HM_BI45_1000_54_CHORDWISE_V1_V236_LW_LRO08_704_R0_I52_DXF
340
0
 70
     0
280
     1
281
     0
  0
BLOCK_RECORD
  5
A4
330
1
100
AcDbSymbolTableRecord
100
AcDbBlockTableRecord
  2
V236_LW_LRO08_705 RT_TEXT_6
340
0
102
{BLKREFS
331
A8
102
}
 70
     0
280
     1
281
     0
  0
BLOCK_RECORD
  5
B0
330
1
100
AcDbSymbolTableRecord
100
AcDbBlockTableRecord
  2
29276884_INF_GF_HM_BI45_1000_54_CHORDWISE_V1_V236_LW_LRO08_705_R0_I52_DXF
340
0
 70
     0
280
     1
281
     0
  0
BLOCK_RECORD
  5
B5
330
1
100
AcDbSymbolTableRecord
100
AcDbBlockTableRecord
  2
V236_LW_LRO08_706 RT_TEXT_7
340
0
102
{BLKREFS
331
B9
102
}
 70
     0
280
     1
281
     0
  0
BLOCK_RECORD
  5
C1
330
1
100
AcDbSymbolTableRecord
100
AcDbBlockTableRecord
  2
29276884_INF_GF_HM_BI45_1000_54_CHORDWISE_V1_V236_LW_LRO08_706_R0_I52_DXF
340
0
 70
     0
280
     1
281
     0
  0
BLOCK_RECORD
  5
C6
330
1
100
AcDbSymbolTableRecord
100
AcDbBlockTableRecord
  2
V236_LW_LRO08_707 RT_TEXT_8
340
0
102
{BLKREFS
331
CA
102
}
 70
     0
280
     1
281
     0
  0
BLOCK_RECORD
  5
D2
330
1
100
AcDbSymbolTableRecord
100
AcDbBlockTableRecord
  2
29276884_INF_GF_HM_BI45_1000_54_CHORDWISE_V1_V236_LW_LRO08_707_R0_I52_DXF
340
0
 70
     0
280
     1
281
     0
  0
BLOCK_RECORD
  5
D8
330
1
100
AcDbSymbolTableRecord
100
AcDbBlockTableRecord
  2
V236_LW_LRO08_708 RT_TEXT_9
340
0
102
{BLKREFS
331
DC
102
}
 70
     0
280
     1
281
     0
  0
BLOCK_RECORD
  5
EB
330
1
100
AcDbSymbolTableRecord
100
AcDbBlockTableRecord
  2
29276884_INF_GF_HM_BI45_1000_54_CHORDWISE_V1_V236_LW_LRO08_708_R1_I5_DXF
340
0
 70
     0
280
     1
281
     0
  0
ENDTAB
  0
ENDSEC
  0
SECTION
  2
BLOCKS
  0
BLOCK
  5
20
330
1F
100
AcDbEntity
  8
0
100
AcDbBlockBegin
  2
*Model_Space
 70
     0
 10
0.0
 20
0.0
 30
0.0
  3
*Model_Space
  1

  0
ENDBLK
  5
21
330
1F
100
AcDbEntity
  8
0
100
AcDbBlockEnd
  0
BLOCK
  5
1C
330
1B
100
AcDbEntity
 67
     1
  8
0
100
AcDbBlockBegin
  2
*Paper_Space
 70
     0
 10
0.0
 20
0.0
 30
0.0
  3
*Paper_Space
  1

  0
ENDBLK
  5
1D
330
1B
100
AcDbEntity
 67
     1
  8
0
100
AcDbBlockEnd
  0
BLOCK
  5
24
330
23
100
AcDbEntity
 67
     1
  8
0
100
AcDbBlockBegin
  2
*Paper_Space0
 70
     0
 10
0.0
 20
0.0
 30
0.0
  3
*Paper_Space0
  1

  0
ENDBLK
  5
25
330
23
100
AcDbEntity
 67
     1
  8
0
100
AcDbBlockEnd
  0
BLOCK
  5
13
330
4
100
AcDbEntity
  8
0
100
AcDbBlockBegin
  2
V236_LW_LRO08_700 RT_TEXT_1
 70
     0
 10
0.0
 20
0.0
 30
0.0
  3
V236_LW_LRO08_700 RT_TEXT_1
  1

  0
TEXT
  5
B
330
4
100
AcDbEntity
  8
TEXT
 62
    14
370
    13
100
AcDbText
 10
-351.078125
 20
579.6032099999999
 30
0.0
 40
35.0
  1
V236_LW_LRO08_700 RT
 41
1.101504925170069
 72
     5
 11
256.126465
 21
579.6032099999999
 31
0.0
100
AcDbText
  0
ENDBLK
  5
28
330
4
100
AcDbEntity
  8
0
100
AcDbBlockEnd
  0
BLOCK
  5
34
330
32
100
AcDbEntity
  8
0
100
AcDbBlockBegin
  2
29276884_INF_GF_HM_BI45_1000_54_CHORDWISE_V1_V236_LW_LRO08_700_R0_I52_DXF
 70
     0
 10
0.0
 20
0.0
 30
0.0
  3
29276884_INF_GF_HM_BI45_1000_54_CHORDWISE_V1_V236_LW_LRO08_700_R0_I52_DXF
  1

  0
INSERT
  5
2A
330
32
100
AcDbEntity
  8
TEXT
 62
     7
370
     0
100
AcDbBlockReference
  2
V236_LW_LRO08_700 RT_TEXT_1
 10
56007.023438
 20
31799.806641
 30
0.0
  0
POINT
  5
2B
330
32
100
AcDbEntity
  8
STRATEGYPOINT
 62
     7
370
     5
100
AcDbPoint
 10
56007.023438
 20
31799.806641
 30
0.0
  0
LINE
  5
2C
330
32
100
AcDbEntity
  8
ROSETTE
 62
   150
370
    35
100
AcDbLine
 10
56107.02343799999
 20
31799.806641
 30
0.0
 11
56007.023438
 21
31799.806641
 31
0.0
  0
LINE
  5
2D
330
32
100
AcDbEntity
  8
ROSETTE
 62
   150
370
    35
100
AcDbLine
 10
56007.023438
 20
31799.806641
 30
0.0
 11
56007.023438
 21
31849.806641
 31
0.0
  0
SPLINE
  5
2E
330
32
100
AcDbEntity
  8
OUTER
 62
     3
370
    35
100
AcDbSpline
210
0.0
220
0.0
230
1.0
 70
     8
 71
     5
 72
    12
 73
     6
 74
     0
 42
0.000000001
 43
0.0000000001
 40
0.0
 40
0.0
 40
0.0
 40
0.0
 40
0.0
 40
0.0
 40
1760.962760635228
 40
1760.962760635228
 40
1760.962760635228
 40
1760.962760635228
 40
1760.962760635228
 40
1760.962760635228
 10
55150.49224674469
 20
31164.3316770133
 30
0.0
 10
55502.68471625179
 20
31164.5729162707
 30
0.0
 10
55854.8772387726
 20
31164.7076093665
 30
0.0
 10
56207.0698120965
 20
31164.7391739921
 30
0.0
 10
56559.26237577419
 20
31164.7609854505
 30
0.0
 10
56911.4549275591
 20
31164.7765136599
 30
0.0
  0
SPLINE
  5
2F
330
32
100
AcDbEntity
  8
OUTER
 62
     3
370
    35
100
AcDbSpline
210
0.0
220
0.0
230
1.0
 70
     8
 71
     5
 72
    13
 73
     7
 74
     0
 42
0.000000001
 43
0.0000000001
 40
0.0
 40
0.0
 40
0.0
 40
0.0
 40
0.0
 40
0.0
 40
646.3480903313098
 40
1270.076991586838
 40
1270.076991586838
 40
1270.076991586838
 40
1270.076991586838
 40
1270.076991586838
 40
1270.076991586838
 10
56911.4549275591
 20
31164.7765136598
 30
0.0
 10
56911.4402098638
 20
31294.0461308886
 30
0.0
 10
56911.5037641167
 20
31548.0614975613
 30
0.0
 10
56911.70008148049
 20
31802.076822338
 30
0.0
 10
56911.67716987269
 20
32056.0922671321
 30
0.0
 10
56911.78518915879
 20
32310.1076342572
 30
0.0
 10
56911.89438336309
 20
32434.8533667177
 30
0.0
  0
SPLINE
  5
30
330
32
100
AcDbEntity
  8
OUTER
 62
     3
370
    35
100
AcDbSpline
210
0.0
220
0.0
230
1.0
 70
     8
 71
     5
 72
    14
 73
     8
 74
     0
 42
0.000000001
 43
0.0000000001
 40
0.0
 40
0.0
 40
0.0
 40
0.0
 40
0.0
 40
0.0
 40
520.9238788261687
 40
916.1889180487504
 40
1823.788875108664
 40
1823.788875108664
 40
1823.788875108664
 40
1823.788875108664
 40
1823.788875108664
 40
1823.788875108664
 10
56911.89438336309
 20
32434.8533667176
 30
0.0
 10
56807.7096521278
 20
32434.757041014
 30
0.0
 10
56624.4719116148
 20
32434.7305706314
 30
0.0
 10
56259.7141148071
 20
32435.112671397
 30
0.0
 10
55894.95638633019
 20
32435.375520153
 30
0.0
 10
55530.1986806763
 20
32435.5223037677
 30
0.0
 10
55269.6257058798
 20
32435.6299722483
 30
0.0
 10
55088.1057278026
 20
32435.6995499063
 30
0.0
  0
SPLINE
  5
31
330
32
100
AcDbEntity
  8
OUTER
 62
     3
370
    35
100
AcDbSpline
210
0.0
220
0.0
230
1.0
 70
     8
 71
     5
 72
    15
 73
     9
 74
     0
 42
0.000000001
 43
0.0000000001
 40
0.0
 40
0.0
 40
0.0
 40
0.0
 40
0.0
 40
0.0
 40
319.3919866069563
 40
618.1324230406536
 40
942.6280305644064
 40
1272.898208772086
 40
1272.898208772086
 40
1272.898208772086
 40
1272.898208772086
 40
1272.898208772086
 40
1272.898208772086
 10
55088.1057278026
 20
32435.6995499062
 30
0.0
 10
55091.3030372619
 20
32371.9012203312
 30
0.0
 10
55097.487733414
 20
32248.4295384972
 30
0.0
 10
55106.91239209009
 20
32060.1396685955
 30
0.0
 10
55119.5138878769
 20
31805.8721781537
 30
0.0
 10
55132.0083082974
 20
31551.5990821917
 30
0.0
 10
55141.37499541219
 20
31361.1276436145
 30
0.0
 10
55147.4932484729
 20
31230.3175969803
 30
0.0
 10
55150.49224674469
 20
31164.3316770133
 30
0.0
  0
ENDBLK
  5
35
330
32
100
AcDbEntity
  8
0
100
AcDbBlockEnd
  0
BLOCK
  5
39
330
37
100
AcDbEntity
  8
0
100
AcDbBlockBegin
  2
V236_LW_LRO08_701 RT_TEXT_2
 70
     0
 10
0.0
 20
0.0
 30
0.0
  3
V236_LW_LRO08_701 RT_TEXT_2
  1

  0
TEXT
  5
38
330
37
100
AcDbEntity
  8
TEXT
 62
    14
370
    13
100
AcDbText
 10
-344.46875
 20
510.2731019999999
 30
0.0
 40
35.0
  1
V236_LW_LRO08_701 RT
 41
1.115672191088655
 72
     5
 11
262.73584
 21
510.2731019999999
 31
0.0
100
AcDbText
  0
ENDBLK
  5
3A
330
37
100
AcDbEntity
  8
0
100
AcDbBlockEnd
  0
BLOCK
  5
45
330
43
100
AcDbEntity
  8
0
100
AcDbBlockBegin
  2
29276884_INF_GF_HM_BI45_1000_54_CHORDWISE_V1_V236_LW_LRO08_701_R0_I52_DXF
 70
     0
 10
0.0
 20
0.0
 30
0.0
  3
29276884_INF_GF_HM_BI45_1000_54_CHORDWISE_V1_V236_LW_LRO08_701_R0_I52_DXF
  1

  0
INSERT
  5
3B
330
43
100
AcDbEntity
  8
TEXT
 62
     7
370
     0
100
AcDbBlockReference
  2
V236_LW_LRO08_701 RT_TEXT_2
 10
56007.023438
 20
31799.806641
 30
0.0
  0
POINT
  5
3C
330
43
100
AcDbEntity
  8
STRATEGYPOINT
 62
     7
370
     5
100
AcDbPoint
 10
56007.023438
 20
31799.806641
 30
0.0
  0
LINE
  5
3D
330
43
100
AcDbEntity
  8
ROSETTE
 62
   150
370
    35
100
AcDbLine
 10
56107.02343799999
 20
31799.806641
 30
0.0
 11
56007.023438
 21
31799.806641
 31
0.0
  0
LINE
  5
3E
330
43
100
AcDbEntity
  8
ROSETTE
 62
   150
370
    35
100
AcDbLine
 10
56007.023438
 20
31799.806641
 30
0.0
 11
56007.023438
 21
31849.806641
 31
0.0
  0
SPLINE
  5
3F
330
43
100
AcDbEntity
  8
OUTER
 62
     3
370
    35
100
AcDbSpline
210
0.0
220
0.0
230
1.0
 70
     8
 71
     5
 72
    12
 73
     6
 74
     0
 42
0.000000001
 43
0.0000000001
 40
0.0
 40
0.0
 40
0.0
 40
0.0
 40
0.0
 40
0.0
 40
1690.813125170125
 40
1690.813125170125
 40
1690.813125170125
 40
1690.813125170125
 40
1690.813125170125
 40
1690.813125170125
 10
55172.1641011021
 20
31094.3611071632
 30
0.0
 10
55510.3262794021
 20
31094.9107783635
 30
0.0
 10
55848.4896827073
 20
31094.2652472533
 30
0.0
 10
56186.65175870259
 20
31094.817487402
 30
0.0
 10
56524.8145348648
 20
31094.6605558257
 30
0.0
 10
56862.9771423794
 20
31094.76940827931
 30
0.0
  0
SPLINE
  5
40
330
43
100
AcDbEntity
  8
OUTER
 62
     3
370
    35
100
AcDbSpline
210
0.0
220
0.0
230
1.0
 70
     8
 71
     5
 72
    13
 73
     7
 74
     0
 42
0.000000001
 43
0.0000000001
 40
0.0
 40
0.0
 40
0.0
 40
0.0
 40
0.0
 40
0.0
 40
949.099769643508
 40
1270.086433590412
 40
1270.086433590412
 40
1270.086433590412
 40
1270.086433590412
 40
1270.086433590412
 40
1270.086433590412
 10
56862.9771423794
 20
31094.76940827931
 30
0.0
 10
56863.0778547576
 20
31284.5893354912
 30
0.0
 10
56863.1822826204
 20
31538.6065306905
 30
0.0
 10
56863.0927834712
 20
31792.6237588103
 30
0.0
 10
56863.54688170411
 20
32046.6412184748
 30
0.0
 10
56863.38378010769
 20
32300.6583670443
 30
0.0
 10
56863.29815623549
 20
32364.8556427327
 30
0.0
  0
SPLINE
  5
41
330
43
100
AcDbEntity
  8
OUTER
 62
     3
370
    35
100
AcDbSpline
210
0.0
220
0.0
230
1.0
 70
     8
 71
     5
 72
    12
 73
     6
 74
     0
 42
0.000000001
 43
0.0000000001
 40
0.0
 40
0.0
 40
0.0
 40
0.0
 40
0.0
 40
0.0
 40
1753.135007613526
 40
1753.135007613526
 40
1753.135007613526
 40
1753.135007613526
 40
1753.135007613526
 40
1753.135007613526
 10
56863.29815623549
 20
32364.8556427327
 30
0.0
 10
56512.6711650338
 20
32364.9407164984
 30
0.0
 10
56162.0441976365
 20
32365.0906627016
 30
0.0
 10
55811.4172540017
 20
32365.3053704855
 30
0.0
 10
55460.7902911341
 20
32365.4710690374
 30
0.0
 10
55110.1633089919
 20
32365.5876475005
 30
0.0
  0
SPLINE
  5
42
330
43
100
AcDbEntity
  8
OUTER
 62
     3
370
    35
100
AcDbSpline
210
0.0
220
0.0
230
1.0
 70
     8
 71
     5
 72
    13
 73
     7
 74
     0
 42
0.000000001
 43
0.0000000001
 40
0.0
 40
0.0
 40
0.0
 40
0.0
 40
0.0
 40
0.0
 40
944.1145603620228
 40
1272.738734554852
 40
1272.738734554852
 40
1272.738734554852
 40
1272.738734554852
 40
1272.738734554852
 40
1272.738734554852
 10
55110.1633089919
 20
32365.5876475005
 30
0.0
 10
55119.38837870049
 20
32176.9902185354
 30
0.0
 10
55133.1542495447
 20
31922.8116861753
 30
0.0
 10
55143.77334521089
 20
31668.4802420975
 30
0.0
 10
55157.8685052728
 20
31414.3152310188
 30
0.0
 10
55169.06843073679
 20
31160.0129977646
 30
0.0
 10
55172.16410110219
 20
31094.3611071632
 30
0.0
  0
ENDBLK
  5
46
330
43
100
AcDbEntity
  8
0
100
AcDbBlockEnd
  0
BLOCK
  5
6C
330
6A
100
AcDbEntity
  8
0
100
AcDbBlockBegin
  2
V236_LW_LRO08_702 RT_TEXT_3
 70
     0
 10
0.0
 20
0.0
 30
0.0
  3
V236_LW_LRO08_702 RT_TEXT_3
  1

  0
TEXT
  5
6B
330
6A
100
AcDbEntity
  8
TEXT
 62
    14
370
    13
100
AcDbText
 10
-327.539062
 20
439.5856019999999
 30
0.0
 40
35.0
  1
V236_LW_LRO08_702 RT
 41
1.101504923356009
 72
     5
 11
279.665527
 21
439.5856019999999
 31
0.0
100
AcDbText
  0
ENDBLK
  5
6D
330
6A
100
AcDbEntity
  8
0
100
AcDbBlockEnd
  0
BLOCK
  5
7D
330
7B
100
AcDbEntity
  8
0
100
AcDbBlockBegin
  2
29276884_INF_GF_HM_BI45_1000_54_CHORDWISE_V1_V236_LW_LRO08_702_R0_I52_DXF
 70
     0
 10
0.0
 20
0.0
 30
0.0
  3
29276884_INF_GF_HM_BI45_1000_54_CHORDWISE_V1_V236_LW_LRO08_702_R0_I52_DXF
  1

  0
INSERT
  5
73
330
7B
100
AcDbEntity
  8
TEXT
 62
     7
370
     0
100
AcDbBlockReference
  2
V236_LW_LRO08_702 RT_TEXT_3
 10
56007.023438
 20
31799.806641
 30
0.0
  0
POINT
  5
74
330
7B
100
AcDbEntity
  8
STRATEGYPOINT
 62
     7
370
     5
100
AcDbPoint
 10
56007.023438
 20
31799.806641
 30
0.0
  0
LINE
  5
75
330
7B
100
AcDbEntity
  8
ROSETTE
 62
   150
370
    35
100
AcDbLine
 10
56107.02343799999
 20
31799.806641
 30
0.0
 11
56007.023438
 21
31799.806641
 31
0.0
  0
LINE
  5
76
330
7B
100
AcDbEntity
  8
ROSETTE
 62
   150
370
    35
100
AcDbLine
 10
56007.023438
 20
31799.806641
 30
0.0
 11
56007.023438
 21
31849.806641
 31
0.0
  0
SPLINE
  5
77
330
7B
100
AcDbEntity
  8
OUTER
 62
     3
370
    35
100
AcDbSpline
210
0.0
220
0.0
230
1.0
 70
     8
 71
     5
 72
    12
 73
     6
 74
     0
 42
0.000000001
 43
0.0000000001
 40
0.0
 40
0.0
 40
0.0
 40
0.0
 40
0.0
 40
0.0
 40
1620.370594115445
 40
1620.370594115445
 40
1620.370594115445
 40
1620.370594115445
 40
1620.370594115445
 40
1620.370594115445
 10
55193.8076858592
 20
31025.39410299991
 30
0.0
 10
55517.88176595199
 20
31025.5525415756
 30
0.0
 10
55841.9558557082
 20
31025.4673742694
 30
0.0
 10
56166.02995466959
 20
31025.1637688312
 30
0.0
 10
56490.10405733981
 20
31024.9538402301
 30
0.0
 10
56814.178163274
 20
31024.8624400402
 30
0.0
  0
SPLINE
  5
78
330
7B
100
AcDbEntity
  8
OUTER
 62
     3
370
    35
100
AcDbSpline
210
0.0
220
0.0
230
1.0
 70
     8
 71
     5
 72
    14
 73
     8
 74
     0
 42
0.000000001
 43
0.0000000001
 40
0.0
 40
0.0
 40
0.0
 40
0.0
 40
0.0
 40
0.0
 40
318.8246739478378
 40
948.7041380765594
 40
1270.001890279739
 40
1270.001890279739
 40
1270.001890279739
 40
1270.001890279739
 40
1270.001890279739
 40
1270.001890279739
 10
56814.178163274
 20
31024.8624400402
 30
0.0
 10
56814.2012090611
 20
31088.6273706654
 30
0.0
 10
56814.2213998421
 20
31278.3681744568
 30
0.0
 10
56814.0727792086
 20
31532.3686223429
 30
0.0
 10
56814.61951820139
 20
31786.3686316362
 30
0.0
 10
56813.9954409653
 20
32040.369508078
 30
0.0
 10
56814.1541183699
 20
32230.6047705154
 30
0.0
 10
56814.2990635517
 20
32294.864157485
 30
0.0
  0
SPLINE
  5
79
330
7B
100
AcDbEntity
  8
OUTER
 62
     3
370
    35
100
AcDbSpline
210
0.0
220
0.0
230
1.0
 70
     8
 71
     5
 72
    12
 73
     6
 74
     0
 42
0.000000001
 43
0.0000000001
 40
0.0
 40
0.0
 40
0.0
 40
0.0
 40
0.0
 40
0.0
 40
1682.30145539766
 40
1682.30145539766
 40
1682.30145539766
 40
1682.30145539766
 40
1682.30145539766
 40
1682.30145539766
 10
56814.2990635517
 20
32294.864157485
 30
0.0
 10
56477.8387790816
 20
32294.9308466936
 30
0.0
 10
56141.3785662722
 20
32295.2779687787
 30
0.0
 10
55804.9182322254
 20
32294.9394074172
 30
0.0
 10
55468.4580083894
 20
32295.5500480705
 30
0.0
 10
55131.9977298996
 20
32295.4580038148
 30
0.0
  0
SPLINE
  5
7A
330
7B
100
AcDbEntity
  8
OUTER
 62
     3
370
    35
100
AcDbSpline
210
0.0
220
0.0
230
1.0
 70
     8
 71
     5
 72
    17
 73
    11
 74
     0
 42
0.000000001
 43
0.0000000001
 40
0.0
 40
0.0
 40
0.0
 40
0.0
 40
0.0
 40
0.0
 40
300.5496505213255
 40
716.5096783382453
 40
800.7032183646627
 40
952.9279387134035
 40
1105.134696125989
 40
1271.568812065813
 40
1271.568812065813
 40
1271.568812065813
 40
1271.568812065813
 40
1271.568812065813
 40
1271.568812065813
 10
55131.9977298996
 20
32295.4580038148
 30
0.0
 10
55135.06585262559
 20
32235.4264261238
 30
0.0
 10
55142.2929484545
 20
32092.3068583608
 30
0.0
 10
55150.1970587219
 20
31932.3612665489
 30
0.0
 10
55159.63740352741
 20
31742.0096602899
 30
0.0
 10
55170.2250619699
 20
31521.2364649308
 30
0.0
 10
55179.7622442168
 20
31327.2667300342
 30
0.0
 10
55184.92365254599
 20
31216.3751274881
 30
0.0
 10
55189.13202480089
 20
31122.2961832053
 30
0.0
 10
55192.1721781515
 20
31058.6407225648
 30
0.0
 10
55193.8076858592
 20
31025.39410299991
 30
0.0
  0
ENDBLK
  5
7E
330
7B
100
AcDbEntity
  8
0
100
AcDbBlockEnd
  0
BLOCK
  5
84
330
82
100
AcDbEntity
  8
0
100
AcDbBlockBegin
  2
V236_LW_LRO08_703 RT_TEXT_4
 70
     0
 10
0.0
 20
0.0
 30
0.0
  3
V236_LW_LRO08_703 RT_TEXT_4
  1

  0
TEXT
  5
83
330
82
100
AcDbEntity
  8
TEXT
 62
    14
370
    13
100
AcDbText
 10
-315.800781
 20
371.69693
 30
0.0
 40
35.0
  1
V236_LW_LRO08_703 RT
 41
1.101504925170068
 72
     5
 11
291.403809
 21
371.69693
 31
0.0
100
AcDbText
  0
ENDBLK
  5
85
330
82
100
AcDbEntity
  8
0
100
AcDbBlockEnd
  0
BLOCK
  5
90
330
8E
100
AcDbEntity
  8
0
100
AcDbBlockBegin
  2
29276884_INF_GF_HM_BI45_1000_54_CHORDWISE_V1_V236_LW_LRO08_703_R0_I52_DXF
 70
     0
 10
0.0
 20
0.0
 30
0.0
  3
29276884_INF_GF_HM_BI45_1000_54_CHORDWISE_V1_V236_LW_LRO08_703_R0_I52_DXF
  1

  0
INSERT
  5
86
330
8E
100
AcDbEntity
  8
TEXT
 62
     7
370
     0
100
AcDbBlockReference
  2
V236_LW_LRO08_703 RT_TEXT_4
 10
56007.023438
 20
31799.806641
 30
0.0
  0
POINT
  5
87
330
8E
100
AcDbEntity
  8
STRATEGYPOINT
 62
     7
370
     5
100
AcDbPoint
 10
56007.023438
 20
31799.806641
 30
0.0
  0
LINE
  5
88
330
8E
100
AcDbEntity
  8
ROSETTE
 62
   150
370
    35
100
AcDbLine
 10
56107.02343799999
 20
31799.806641
 30
0.0
 11
56007.023438
 21
31799.806641
 31
0.0
  0
LINE
  5
89
330
8E
100
AcDbEntity
  8
ROSETTE
 62
   150
370
    35
100
AcDbLine
 10
56007.023438
 20
31799.806641
 30
0.0
 11
56007.023438
 21
31849.806641
 31
0.0
  0
SPLINE
  5
8A
330
8E
100
AcDbEntity
  8
OUTER
 62
     3
370
    35
100
AcDbSpline
210
0.0
220
0.0
230
1.0
 70
     8
 71
     5
 72
    12
 73
     6
 74
     0
 42
0.000000001
 43
0.0000000001
 40
0.0
 40
0.0
 40
0.0
 40
0.0
 40
0.0
 40
0.0
 40
1349.063850164835
 40
1349.063850164835
 40
1349.063850164835
 40
1349.063850164835
 40
1349.063850164835
 40
1349.063850164835
 10
55215.44271141929
 20
30956.8257954985
 30
0.0
 10
55485.2554024376
 20
30956.6193041245
 30
0.0
 10
55755.0679511188
 20
30956.2661285235
 30
0.0
 10
56024.88038622849
 20
30955.7964901606
 30
0.0
 10
56294.6929492009
 20
30955.4640712179
 30
0.0
 10
56564.5056687913
 20
30955.2990861584
 30
0.0
  0
SPLINE
  5
8B
330
8E
100
AcDbEntity
  8
OUTER
 62
     3
370
    35
100
AcDbSpline
210
0.0
220
0.0
230
1.0
 70
     8
 71
     5
 72
    14
 73
     8
 74
     0
 42
0.000000001
 43
0.0000000001
 40
0.0
 40
0.0
 40
0.0
 40
0.0
 40
0.0
 40
0.0
 40
318.6149316229037
 40
477.3749983250418
 40
1269.618615620841
 40
1269.618615620841
 40
1269.618615620841
 40
1269.618615620841
 40
1269.618615620841
 40
1269.618615620841
 10
56564.5056687912
 20
30955.2990861584
 30
0.0
 10
56564.3756596811
 20
31019.0219398593
 30
0.0
 10
56564.3491568834
 20
31114.4968849631
 30
0.0
 10
56564.66390391639
 20
31368.4208097881
 30
0.0
 10
56564.5566710092
 20
31622.3444601875
 30
0.0
 10
56564.6233005651
 20
31876.2680186248
 30
0.0
 10
56564.1289917177
 20
32066.4689806009
 30
0.0
 10
56564.39286475571
 20
32224.9174843387
 30
0.0
  0
SPLINE
  5
8C
330
8E
100
AcDbEntity
  8
OUTER
 62
     3
370
    35
100
AcDbSpline
210
0.0
220
0.0
230
1.0
 70
     8
 71
     5
 72
    12
 73
     6
 74
     0
 42
0.000000001
 43
0.0000000001
 40
0.0
 40
0.0
 40
0.0
 40
0.0
 40
0.0
 40
0.0
 40
1410.556851218256
 40
1410.556851218256
 40
1410.556851218256
 40
1410.556851218256
 40
1410.556851218256
 40
1410.556851218256
 10
56564.39286475571
 20
32224.9174843387
 30
0.0
 10
56282.28150051059
 20
32224.9756599054
 30
0.0
 10
56000.170143064
 20
32225.0517480128
 30
0.0
 10
55718.05879241209
 20
32225.14574085201
 30
0.0
 10
55435.9474402111
 20
32225.240969324
 30
0.0
 10
55153.8360864571
 20
32225.3374256198
 30
0.0
  0
SPLINE
  5
8D
330
8E
100
AcDbEntity
  8
OUTER
 62
     3
370
    35
100
AcDbSpline
210
0.0
220
0.0
230
1.0
 70
     8
 71
     5
 72
    20
 73
    14
 74
     0
 42
0.000000001
 43
0.0000000001
 40
0.0
 40
0.0
 40
0.0
 40
0.0
 40
0.0
 40
0.0
 40
326.7110680856917
 40
326.7110680856917
 40
485.66176866573
 40
634.676683138347
 40
793.6207608643873
 40
952.5714208814363
 40
1032.035912105862
 40
1111.492776071762
 40
1270.008747193653
 40
1270.008747193653
 40
1270.008747193653
 40
1270.008747193653
 40
1270.008747193653
 40
1270.008747193653
 10
55153.8360864571
 20
32225.3374256198
 30
0.0
 10
55157.0572454772
 20
32160.0746566398
 30
0.0
 10
55160.3343727123
 20
32094.814668223
 30
0.0
 10
55165.24036711019
 20
31997.8062544519
 30
0.0
 10
55171.4422037384
 20
31871.0225097742
 30
0.0
 10
55179.276140666
 20
31712.4917994378
 30
0.0
 10
55185.44499684269
 20
31587.4717222358
 30
0.0
 10
55192.0398956254
 20
31446.5609805374
 30
0.0
 10
55198.44856576139
 20
31321.5582754846
 30
0.0
 10
55204.2853321187
 20
31194.6258839089
 30
0.0
 10
55208.43384054519
 20
31099.4385092228
 30
0.0
 10
55211.5570732266
 20
31036.02821203701
 30
0.0
 10
55213.9093773444
 20
30988.4918879421
 30
0.0
 10
55215.44271141929
 20
30956.8257954985
 30
0.0
  0
ENDBLK
  5
91
330
8E
100
AcDbEntity
  8
0
100
AcDbBlockEnd
  0
BLOCK
  5
95
330
93
100
AcDbEntity
  8
0
100
AcDbBlockBegin
  2
V236_LW_LRO08_704 RT_TEXT_5
 70
     0
 10
0.0
 20
0.0
 30
0.0
  3
V236_LW_LRO08_704 RT_TEXT_5
  1

  0
TEXT
  5
94
330
93
100
AcDbEntity
  8
TEXT
 62
    14
370
    13
100
AcDbText
 10
-306.53125
 20
303.798492
 30
0.0
 40
35.0
  1
V236_LW_LRO08_704 RT
 41
1.09455536728256
 72
     5
 11
300.67334
 21
303.798492
 31
0.0
100
AcDbText
  0
ENDBLK
  5
96
330
93
100
AcDbEntity
  8
0
100
AcDbBlockEnd
  0
BLOCK
  5
A1
330
9F
100
AcDbEntity
  8
0
100
AcDbBlockBegin
  2
29276884_INF_GF_HM_BI45_1000_54_CHORDWISE_V1_V236_LW_LRO08_704_R0_I52_DXF
 70
     0
 10
0.0
 20
0.0
 30
0.0
  3
29276884_INF_GF_HM_BI45_1000_54_CHORDWISE_V1_V236_LW_LRO08_704_R0_I52_DXF
  1

  0
INSERT
  5
97
330
9F
100
AcDbEntity
  8
TEXT
 62
     7
370
     0
100
AcDbBlockReference
  2
V236_LW_LRO08_704 RT_TEXT_5
 10
56007.023438
 20
31799.806641
 30
0.0
  0
POINT
  5
98
330
9F
100
AcDbEntity
  8
STRATEGYPOINT
 62
     7
370
     5
100
AcDbPoint
 10
56007.023438
 20
31799.806641
 30
0.0
  0
LINE
  5
99
330
9F
100
AcDbEntity
  8
ROSETTE
 62
   150
370
    35
100
AcDbLine
 10
56107.02343799999
 20
31799.806641
 30
0.0
 11
56007.023438
 21
31799.806641
 31
0.0
  0
LINE
  5
9A
330
9F
100
AcDbEntity
  8
ROSETTE
 62
   150
370
    35
100
AcDbLine
 10
56007.023438
 20
31799.806641
 30
0.0
 11
56007.023438
 21
31849.806641
 31
0.0
  0
SPLINE
  5
9B
330
9F
100
AcDbEntity
  8
OUTER
 62
     3
370
    35
100
AcDbSpline
210
0.0
220
0.0
230
1.0
 70
     8
 71
     5
 72
    14
 73
     8
 74
     0
 42
0.000000001
 43
0.0000000001
 40
0.0
 40
0.0
 40
0.0
 40
0.0
 40
0.0
 40
0.0
 40
864.9983490091734
 40
943.3249357763012
 40
1269.973611818429
 40
1269.973611818429
 40
1269.973611818429
 40
1269.973611818429
 40
1269.973611818429
 40
1269.973611818429
 10
55175.53779602759
 20
32155.2020032546
 30
0.0
 10
55184.0902331305
 20
31982.4138625416
 30
0.0
 10
55193.79562352769
 20
31793.9974711954
 30
0.0
 10
55204.9533120057
 20
31540.2475169353
 30
0.0
 10
55219.6323901156
 20
31286.66236718
 30
0.0
 10
55229.2584278396
 20
31032.8401519872
 30
0.0
 10
55233.8641831753
 20
30951.9732480496
 30
0.0
 10
55237.152505017
 20
30886.726322897
 30
0.0
  0
SPLINE
  5
9C
330
9F
100
AcDbEntity
  8
OUTER
 62
     3
370
    35
100
AcDbSpline
210
0.0
220
0.0
230
1.0
 70
     8
 71
     5
 72
    12
 73
     6
 74
     0
 42
0.000000001
 43
0.0000000001
 40
0.0
 40
0.0
 40
0.0
 40
0.0
 40
0.0
 40
0.0
 40
1309.308308865561
 40
1309.308308865561
 40
1309.308308865561
 40
1309.308308865561
 40
1309.308308865561
 40
1309.308308865561
 10
55237.1525050169
 20
30886.726322897
 30
0.0
 10
55499.0138379768
 20
30886.3113444201
 30
0.0
 10
55760.8755360525
 20
30886.1357342477
 30
0.0
 10
56022.7370478818
 20
30886.0697414246
 30
0.0
 10
56284.5982944023
 20
30885.2503075546
 30
0.0
 10
56546.4599561461
 20
30885.2542308788
 30
0.0
  0
SPLINE
  5
9D
330
9F
100
AcDbEntity
  8
OUTER
 62
     3
370
    35
100
AcDbSpline
210
0.0
220
0.0
230
1.0
 70
     8
 71
     5
 72
    14
 73
     8
 74
     0
 42
0.000000001
 43
0.0000000001
 40
0.0
 40
0.0
 40
0.0
 40
0.0
 40
0.0
 40
0.0
 40
630.9323770495552
 40
957.1692361843537
 40
1269.644168869987
 40
1269.644168869987
 40
1269.644168869987
 40
1269.644168869987
 40
1269.644168869987
 40
1269.644168869987
 10
56546.4599561461
 20
30885.2542308788
 30
0.0
 10
56546.38176884169
 20
31011.4406820656
 30
0.0
 10
56546.9401594167
 20
31202.8742703659
 30
0.0
 10
56545.58388394209
 20
31456.8031451207
 30
0.0
 10
56547.24426605209
 20
31710.7319481572
 30
0.0
 10
56546.3382222695
 20
31964.660575655
 30
0.0
 10
56546.4436551784
 20
32092.4030174522
 30
0.0
 10
56546.3268204465
 20
32154.8978947777
 30
0.0
  0
SPLINE
  5
9E
330
9F
100
AcDbEntity
  8
OUTER
 62
     3
370
    35
100
AcDbSpline
210
0.0
220
0.0
230
1.0
 70
     8
 71
     5
 72
    12
 73
     6
 74
     0
 42
0.000000001
 43
0.0000000001
 40
0.0
 40
0.0
 40
0.0
 40
0.0
 40
0.0
 40
0.0
 40
1370.789069992412
 40
1370.789069992412
 40
1370.789069992412
 40
1370.789069992412
 40
1370.789069992412
 40
1370.789069992412
 10
56546.3268204465
 20
32154.8978947776
 30
0.0
 10
56272.16902263639
 20
32154.8036821269
 30
0.0
 10
55998.01119827049
 20
32154.8368801442
 30
0.0
 10
55723.8533428407
 20
32154.9010352253
 30
0.0
 10
55449.6955284229
 20
32154.9904746693
 30
0.0
 10
55175.53779602759
 20
32155.2020032546
 30
0.0
  0
ENDBLK
  5
A2
330
9F
100
AcDbEntity
  8
0
100
AcDbBlockEnd
  0
BLOCK
  5
A6
330
A4
100
AcDbEntity
  8
0
100
AcDbBlockBegin
  2
V236_LW_LRO08_705 RT_TEXT_6
 70
     0
 10
0.0
 20
0.0
 30
0.0
  3
V236_LW_LRO08_705 RT_TEXT_6
  1

  0
TEXT
  5
A5
330
A4
100
AcDbEntity
  8
TEXT
 62
    14
370
    13
100
AcDbText
 10
-293.277344
 20
230.864914
 30
0.0
 40
35.0
  1
V236_LW_LRO08_705 RT
 41
1.101504925170068
 72
     5
 11
313.927246
 21
230.864914
 31
0.0
100
AcDbText
  0
ENDBLK
  5
A7
330
A4
100
AcDbEntity
  8
0
100
AcDbBlockEnd
  0
BLOCK
  5
B2
330
B0
100
AcDbEntity
  8
0
100
AcDbBlockBegin
  2
29276884_INF_GF_HM_BI45_1000_54_CHORDWISE_V1_V236_LW_LRO08_705_R0_I52_DXF
 70
     0
 10
0.0
 20
0.0
 30
0.0
  3
29276884_INF_GF_HM_BI45_1000_54_CHORDWISE_V1_V236_LW_LRO08_705_R0_I52_DXF
  1

  0
INSERT
  5
A8
330
B0
100
AcDbEntity
  8
TEXT
 62
     7
370
     0
100
AcDbBlockReference
  2
V236_LW_LRO08_705 RT_TEXT_6
 10
56007.023438
 20
31799.806641
 30
0.0
  0
POINT
  5
A9
330
B0
100
AcDbEntity
  8
STRATEGYPOINT
 62
     7
370
     5
100
AcDbPoint
 10
56007.023438
 20
31799.806641
 30
0.0
  0
LINE
  5
AA
330
B0
100
AcDbEntity
  8
ROSETTE
 62
   150
370
    35
100
AcDbLine
 10
56107.02343799999
 20
31799.806641
 30
0.0
 11
56007.023438
 21
31799.806641
 31
0.0
  0
LINE
  5
AB
330
B0
100
AcDbEntity
  8
ROSETTE
 62
   150
370
    35
100
AcDbLine
 10
56007.023438
 20
31799.806641
 30
0.0
 11
56007.023438
 21
31849.806641
 31
0.0
  0
SPLINE
  5
AC
330
B0
100
AcDbEntity
  8
OUTER
 62
     3
370
    35
100
AcDbSpline
210
0.0
220
0.0
230
1.0
 70
     8
 71
     5
 72
    22
 73
    16
 74
     0
 42
0.000000001
 43
0.0000000001
 40
0.0
 40
0.0
 40
0.0
 40
0.0
 40
0.0
 40
0.0
 40
365.8446777740242
 40
365.8446777740242
 40
497.7873003591133
 40
497.7873003591133
 40
632.8508788924756
 40
864.381160083883
 40
864.381160083883
 40
960.8369847089731
 40
1037.994283664596
 40
1115.242738669896
 40
1272.30253327984
 40
1272.30253327984
 40
1272.30253327984
 40
1272.30253327984
 40
1272.30253327984
 40
1272.30253327984
 10
55197.17368082059
 20
32084.9964380536
 30
0.0
 10
55200.74485300749
 20
32011.9147039511
 30
0.0
 10
55204.3403371679
 20
31938.8341641084
 30
0.0
 10
55209.2623990412
 20
31839.3984622537
 30
0.0
 10
55214.2681577282
 20
31739.9668432806
 30
0.0
 10
55220.5554411739
 20
31613.5529590221
 30
0.0
 10
55225.41113556481
 20
31513.964022528
 30
0.0
 10
55230.152475982
 20
31414.3695051086
 30
0.0
 10
55234.75914157799
 20
31321.87414583221
 30
0.0
 10
55239.9302808051
 20
31213.9563842924
 30
0.0
 10
55244.17497336719
 20
31117.5712925503
 30
0.0
 10
55247.6266733871
 20
31036.059746774
 30
0.0
 10
55251.6855121977
 20
30954.5773216191
 30
0.0
 10
55255.0695531995
 20
30892.375298189
 30
0.0
 10
55257.2945228632
 20
30845.5667548154
 30
0.0
 10
55258.6711415704
 20
30814.1849753208
 30
0.0
  0
SPLINE
  5
AD
330
B0
100
AcDbEntity
  8
OUTER
 62
     3
370
    35
100
AcDbSpline
210
0.0
220
0.0
230
1.0
 70
     8
 71
     5
 72
    12
 73
     6
 74
     0
 42
0.000000001
 43
0.0000000001
 40
0.0
 40
0.0
 40
0.0
 40
0.0
 40
0.0
 40
0.0
 40
1269.218163007133
 40
1269.218163007133
 40
1269.218163007133
 40
1269.218163007133
 40
1269.218163007133
 40
1269.218163007133
 10
55258.6711415704
 20
30814.1849753208
 30
0.0
 10
55512.5132512708
 20
30815.0642679061
 30
0.0
 10
55766.3585999539
 20
30814.769897949
 30
0.0
 10
56020.2012724989
 20
30815.0119372354
 30
0.0
 10
56274.0451057395
 20
30814.9018490925
 30
0.0
 10
56527.8887330907
 20
30814.8502215683
 30
0.0
  0
SPLINE
  5
AE
330
B0
100
AcDbEntity
  8
OUTER
 62
     3
370
    35
100
AcDbSpline
210
0.0
220
0.0
230
1.0
 70
     8
 71
     5
 72
    17
 73
    11
 74
     0
 42
0.000000001
 43
0.0000000001
 40
0.0
 40
0.0
 40
0.0
 40
0.0
 40
0.0
 40
0.0
 40
313.7318612106568
 40
313.7318612106568
 40
599.5216921431692
 40
763.3317501090833
 40
941.7075323089081
 40
1270.019657742286
 40
1270.019657742286
 40
1270.019657742286
 40
1270.019657742286
 40
1270.019657742286
 40
1270.019657742286
 10
56527.88873309059
 20
30814.8502215684
 30
0.0
 10
56527.76526790639
 20
30877.5964723401
 30
0.0
 10
56527.7539277311
 20
30940.3428094421
 30
0.0
 10
56527.9360785769
 20
31060.2471805487
 30
0.0
 10
56527.8722027133
 20
31212.9133356878
 30
0.0
 10
56527.53158582849
 20
31401.2546143122
 30
0.0
 10
56527.7803645126
 20
31592.5120852396
 30
0.0
 10
56528.02839537621
 20
31783.769450451
 30
0.0
 10
56527.898421179
 20
31917.8690925489
 30
0.0
 10
56527.7926052207
 20
32019.2066270099
 30
0.0
 10
56527.6872887088
 20
32084.8689676376
 30
0.0
  0
SPLINE
  5
AF
330
B0
100
AcDbEntity
  8
OUTER
 62
     3
370
    35
100
AcDbSpline
210
0.0
220
0.0
230
1.0
 70
     8
 71
     5
 72
    12
 73
     6
 74
     0
 42
0.000000001
 43
0.0000000001
 40
0.0
 40
0.0
 40
0.0
 40
0.0
 40
0.0
 40
0.0
 40
1330.513661824859
 40
1330.513661824859
 40
1330.513661824859
 40
1330.513661824859
 40
1330.513661824859
 40
1330.513661824859
 10
56527.6872887088
 20
32084.8689676376
 30
0.0
 10
56261.58455797059
 20
32084.8395428307
 30
0.0
 10
55995.4815520519
 20
32085.2849907496
 30
0.0
 10
55729.3797532369
 20
32084.1912518646
 30
0.0
 10
55463.2759241002
 20
32085.5066279631
 30
0.0
 10
55197.17368082059
 20
32084.9964380536
 30
0.0
  0
ENDBLK
  5
B3
330
B0
100
AcDbEntity
  8
0
100
AcDbBlockEnd
  0
BLOCK
  5
B7
330
B5
100
AcDbEntity
  8
0
100
AcDbBlockBegin
  2
V236_LW_LRO08_706 RT_TEXT_7
 70
     0
 10
0.0
 20
0.0
 30
0.0
  3
V236_LW_LRO08_706 RT_TEXT_7
  1

  0
TEXT
  5
B6
330
B5
100
AcDbEntity
  8
TEXT
 62
    14
370
    13
100
AcDbText
 10
-282.433594
 20
160.146164
 30
0.0
 40
35.0
  1
V236_LW_LRO08_706 RT
 41
1.101504925170068
 72
     5
 11
324.770996
 21
160.146164
 31
0.0
100
AcDbText
  0
ENDBLK
  5
B8
330
B5
100
AcDbEntity
  8
0
100
AcDbBlockEnd
  0
BLOCK
  5
C3
330
C1
100
AcDbEntity
  8
0
100
AcDbBlockBegin
  2
29276884_INF_GF_HM_BI45_1000_54_CHORDWISE_V1_V236_LW_LRO08_706_R0_I52_DXF
 70
     0
 10
0.0
 20
0.0
 30
0.0
  3
29276884_INF_GF_HM_BI45_1000_54_CHORDWISE_V1_V236_LW_LRO08_706_R0_I52_DXF
  1

  0
INSERT
  5
B9
330
C1
100
AcDbEntity
  8
TEXT
 62
     7
370
     0
100
AcDbBlockReference
  2
V236_LW_LRO08_706 RT_TEXT_7
 10
56007.023438
 20
31799.806641
 30
0.0
  0
POINT
  5
BA
330
C1
100
AcDbEntity
  8
STRATEGYPOINT
 62
     7
370
     5
100
AcDbPoint
 10
56007.023438
 20
31799.806641
 30
0.0
  0
LINE
  5
BB
330
C1
100
AcDbEntity
  8
ROSETTE
 62
   150
370
    35
100
AcDbLine
 10
56107.02343799999
 20
31799.806641
 30
0.0
 11
56007.023438
 21
31799.806641
 31
0.0
  0
LINE
  5
BC
330
C1
100
AcDbEntity
  8
ROSETTE
 62
   150
370
    35
100
AcDbLine
 10
56007.023438
 20
31799.806641
 30
0.0
 11
56007.023438
 21
31849.806641
 31
0.0
  0
SPLINE
  5
BD
330
C1
100
AcDbEntity
  8
OUTER
 62
     3
370
    35
100
AcDbSpline
210
0.0
220
0.0
230
1.0
 70
     8
 71
     5
 72
    12
 73
     6
 74
     0
 42
0.000000001
 43
0.0000000001
 40
0.0
 40
0.0
 40
0.0
 40
0.0
 40
0.0
 40
0.0
 40
1227.750300319241
 40
1227.750300319241
 40
1227.750300319241
 40
1227.750300319241
 40
1227.750300319241
 40
1227.750300319241
 10
55280.04091571089
 20
30745.3082166056
 30
0.0
 10
55525.5909421686
 20
30745.1797466038
 30
0.0
 10
55771.14102411059
 20
30745.5944411092
 30
0.0
 10
56016.69088444629
 20
30744.7765900969
 30
0.0
 10
56262.2410562649
 20
30745.0324815527
 30
0.0
 10
56507.7910558742
 20
30744.8601758353
 30
0.0
  0
SPLINE
  5
BE
330
C1
100
AcDbEntity
  8
OUTER
 62
     3
370
    35
100
AcDbSpline
210
0.0
220
0.0
230
1.0
 70
     8
 71
     5
 72
    15
 73
     9
 74
     0
 42
0.000000001
 43
0.0000000001
 40
0.0
 40
0.0
 40
0.0
 40
0.0
 40
0.0
 40
0.0
 40
338.114838147149
 40
647.3545562132281
 40
988.5949093883892
 40
1269.962126689183
 40
1269.962126689183
 40
1269.962126689183
 40
1269.962126689183
 40
1269.962126689183
 40
1269.962126689183
 10
56507.79105587409
 20
30744.8601758353
 30
0.0
 10
56507.8680688499
 20
30812.4830996113
 30
0.0
 10
56507.9711607982
 20
30941.9539651411
 30
0.0
 10
56507.9644055037
 20
31139.6729040852
 30
0.0
 10
56507.33702240709
 20
31393.6647780423
 30
0.0
 10
56507.9438928637
 20
31647.6572475997
 30
0.0
 10
56507.754099985
 20
31834.0265505418
 30
0.0
 10
56507.7047095892
 20
31958.5480389858
 30
0.0
 10
56507.7004132454
 20
32014.821482282
 30
0.0
  0
SPLINE
  5
BF
330
C1
100
AcDbEntity
  8
OUTER
 62
     3
370
    35
100
AcDbSpline
210
0.0
220
0.0
230
1.0
 70
     8
 71
     5
 72
    13
 73
     7
 74
     0
 42
0.000000001
 43
0.0000000001
 40
0.0
 40
0.0
 40
0.0
 40
0.0
 40
0.0
 40
0.0
 40
627.5191378985927
 40
1288.953364005501
 40
1288.953364005501
 40
1288.953364005501
 40
1288.953364005501
 40
1288.953364005501
 40
1288.953364005501
 10
56507.7004132454
 20
32014.8214822819
 30
0.0
 10
56382.1965919642
 20
32014.86124341951
 30
0.0
 10
56124.40592426299
 20
32014.8897640764
 30
0.0
 10
55866.61526619769
 20
32014.8024451911
 30
0.0
 10
55608.82447594241
 20
32015.0636953629
 30
0.0
 10
55351.0338299178
 20
32015.0259696455
 30
0.0
 10
55218.7470660478
 20
32014.8792608622
 30
0.0
  0
SPLINE
  5
C0
330
C1
100
AcDbEntity
  8
OUTER
 62
     3
370
    35
100
AcDbSpline
210
0.0
220
0.0
230
1.0
 70
     8
 71
     5
 72
    17
 73
    11
 74
     0
 42
0.000000001
 43
0.0000000001
 40
0.0
 40
0.0
 40
0.0
 40
0.0
 40
0.0
 40
0.0
 40
594.9536729968107
 40
765.7704670896083
 40
927.0836994600912
 40
1022.048916710937
 40
1107.388970590677
 40
1271.054894500985
 40
1271.054894500985
 40
1271.054894500985
 40
1271.054894500985
 40
1271.054894500985
 40
1271.054894500985
 10
55218.74706604769
 20
32014.8792608622
 30
0.0
 10
55224.6435359737
 20
31896.0347129735
 30
0.0
 10
55231.7069953238
 20
31743.0435262031
 30
0.0
 10
55242.64884030009
 20
31557.93851086491
 30
0.0
 10
55250.2681980754
 20
31353.6603810619
 30
0.0
 10
55262.6853251529
 20
31132.5218567334
 30
0.0
 10
55266.46383897119
 20
30997.33088519
 30
0.0
 10
55273.5713262765
 20
30896.5002367831
 30
0.0
 10
55276.2146404965
 20
30827.7540575475
 30
0.0
 10
55278.4790766933
 20
30778.0041191755
 30
0.0
 10
55280.04091571089
 20
30745.3082166056
 30
0.0
  0
ENDBLK
  5
C4
330
C1
100
AcDbEntity
  8
0
100
AcDbBlockEnd
  0
BLOCK
  5
C8
330
C6
100
AcDbEntity
  8
0
100
AcDbBlockBegin
  2
V236_LW_LRO08_707 RT_TEXT_8
 70
     0
 10
0.0
 20
0.0
 30
0.0
  3
V236_LW_LRO08_707 RT_TEXT_8
  1

  0
TEXT
  5
C7
330
C6
100
AcDbEntity
  8
TEXT
 62
    14
370
    13
100
AcDbText
 10
-280.769531
 20
89.53482800000001
 30
0.0
 40
35.0
  1
V236_LW_LRO08_707 RT
 41
1.101504925170068
 72
     5
 11
326.435059
 21
89.53482800000001
 31
0.0
100
AcDbText
  0
ENDBLK
  5
C9
330
C6
100
AcDbEntity
  8
0
100
AcDbBlockEnd
  0
BLOCK
  5
D4
330
D2
100
AcDbEntity
  8
0
100
AcDbBlockBegin
  2
29276884_INF_GF_HM_BI45_1000_54_CHORDWISE_V1_V236_LW_LRO08_707_R0_I52_DXF
 70
     0
 10
0.0
 20
0.0
 30
0.0
  3
29276884_INF_GF_HM_BI45_1000_54_CHORDWISE_V1_V236_LW_LRO08_707_R0_I52_DXF
  1

  0
INSERT
  5
CA
330
D2
100
AcDbEntity
  8
TEXT
 62
     7
370
     0
100
AcDbBlockReference
  2
V236_LW_LRO08_707 RT_TEXT_8
 10
56007.023438
 20
31799.806641
 30
0.0
  0
POINT
  5
CB
330
D2
100
AcDbEntity
  8
STRATEGYPOINT
 62
     7
370
     5
100
AcDbPoint
 10
56007.023438
 20
31799.806641
 30
0.0
  0
LINE
  5
CC
330
D2
100
AcDbEntity
  8
ROSETTE
 62
   150
370
    35
100
AcDbLine
 10
56107.02343799999
 20
31799.806641
 30
0.0
 11
56007.023438
 21
31799.806641
 31
0.0
  0
LINE
  5
CD
330
D2
100
AcDbEntity
  8
ROSETTE
 62
   150
370
    35
100
AcDbLine
 10
56007.023438
 20
31799.806641
 30
0.0
 11
56007.023438
 21
31849.806641
 31
0.0
  0
SPLINE
  5
CE
330
D2
100
AcDbEntity
  8
OUTER
 62
     3
370
    35
100
AcDbSpline
210
0.0
220
0.0
230
1.0
 70
     8
 71
     5
 72
    12
 73
     6
 74
     0
 42
0.000000001
 43
0.0000000001
 40
0.0
 40
0.0
 40
0.0
 40
0.0
 40
0.0
 40
0.0
 40
1184.781345895529
 40
1184.781345895529
 40
1184.781345895529
 40
1184.781345895529
 40
1184.781345895529
 40
1184.781345895529
 10
55301.64103103549
 20
30674.6315649042
 30
0.0
 10
55538.5972907918
 20
30674.6983924567
 30
0.0
 10
55775.5530307669
 20
30675.4992406355
 30
0.0
 10
56012.5097837758
 20
30674.8248851692
 30
0.0
 10
56249.46592339449
 20
30675.0385147656
 30
0.0
 10
56486.4221545327
 20
30674.9042464178
 30
0.0
  0
SPLINE
  5
CF
330
D2
100
AcDbEntity
  8
OUTER
 62
     3
370
    35
100
AcDbSpline
210
0.0
220
0.0
230
1.0
 70
     8
 71
     5
 72
    13
 73
     7
 74
     0
 42
0.000000001
 43
0.0000000001
 40
0.0
 40
0.0
 40
0.0
 40
0.0
 40
0.0
 40
0.0
 40
568.2261543314898
 40
1269.919359587685
 40
1269.919359587685
 40
1269.919359587685
 40
1269.919359587685
 40
1269.919359587685
 40
1269.919359587685
 10
56486.4221545328
 20
30674.9042464178
 30
0.0
 10
56486.5589058594
 20
30788.5493950063
 30
0.0
 10
56486.642336601
 20
31042.5332104959
 30
0.0
 10
56486.3820460778
 20
31296.5170202539
 30
0.0
 10
56486.5810357222
 20
31550.5007390757
 30
0.0
 10
56486.56812578769
 20
31804.4846009059
 30
0.0
 10
56486.4921193073
 20
31944.8232213749
 30
0.0
  0
SPLINE
  5
D0
330
D2
100
AcDbEntity
  8
OUTER
 62
     3
370
    35
100
AcDbSpline
210
0.0
220
0.0
230
1.0
 70
     8
 71
     5
 72
    12
 73
     6
 74
     0
 42
0.000000001
 43
0.0000000001
 40
0.0
 40
0.0
 40
0.0
 40
0.0
 40
0.0
 40
0.0
 40
1245.934023274066
 40
1245.934023274066
 40
1245.934023274066
 40
1245.934023274066
 40
1245.934023274066
 40
1245.934023274066
 10
56486.49211930719
 20
31944.8232213749
 30
0.0
 10
56237.3053221184
 20
31944.8842190839
 30
0.0
 10
55988.11852161239
 20
31944.9043527226
 30
0.0
 10
55738.9317178368
 20
31944.8842469263
 30
0.0
 10
55489.7449138614
 20
31944.8657810828
 30
0.0
 10
55240.5581097329
 20
31944.849584177
 30
0.0
  0
SPLINE
  5
D1
330
D2
100
AcDbEntity
  8
OUTER
 62
     3
370
    35
100
AcDbSpline
210
0.0
220
0.0
230
1.0
 70
     8
 71
     5
 72
    30
 73
    24
 74
     0
 42
0.000000001
 43
0.0000000001
 40
0.0
 40
0.0
 40
0.0
 40
0.0
 40
0.0
 40
0.0
 40
168.7750275880144
 40
168.7750275880144
 40
322.4641852502053
 40
322.4641852502053
 40
490.3705006543563
 40
490.3705006543563
 40
564.9907174553551
 40
639.8999887841917
 40
714.2341124704934
 40
788.8582645745088
 40
863.4709873199334
 40
863.4709873199334
 40
947.3940184479708
 40
1031.51294308824
 40
1031.51294308824
 40
1105.995785943737
 40
1105.995785943737
 40
1105.995785943737
 40
1271.691402844701
 40
1271.691402844701
 40
1271.691402844701
 40
1271.691402844701
 40
1271.691402844701
 40
1271.691402844701
 10
55240.5581097329
 20
31944.849584177
 30
0.0
 10
55242.1967176917
 20
31911.1343745314
 30
0.0
 10
55243.85264879269
 20
31877.420013102
 30
0.0
 10
55247.05278926
 20
31813.0066119374
 30
0.0
 10
55250.29216811789
 20
31748.5951722512
 30
0.0
 10
55255.17658003179
 20
31650.6428074532
 30
0.0
 10
55258.35486925339
 20
31586.40222983
 30
0.0
 10
55262.286041354
 20
31507.2566233993
 30
0.0
 10
55265.3414108458
 20
31443.84308256991
 30
0.0
 10
55269.0322131037
 20
31365.5760853454
 30
0.0
 10
55271.8480420289
 20
31305.9449979679
 30
0.0
 10
55275.50618509549
 20
31231.414516721
 30
0.0
 10
55278.4536806587
 20
31171.7910354619
 30
0.0
 10
55281.2215918693
 20
31110.354646183
 30
0.0
 10
55283.84520666099
 20
31046.9530093863
 30
0.0
 10
55285.92296561139
 20
30998.4671090003
 30
0.0
 10
55288.3260096316
 20
30950.0225159629
 30
0.0
 10
55290.88849371849
 20
30901.5853427856
 30
0.0
 10
55292.51446697839
 20
30869.9067557796
 30
0.0
 10
55294.92246128769
 20
30821.9315988252
 30
0.0
 10
55297.1735122708
 20
30773.9486149074
 30
0.0
 10
55298.7008821663
 20
30740.8445561912
 30
0.0
 10
55300.198694066
 20
30707.7392854913
 30
0.0
 10
55301.6410310354
 20
30674.6315649042
 30
0.0
  0
ENDBLK
  5
D5
330
D2
100
AcDbEntity
  8
0
100
AcDbBlockEnd
  0
BLOCK
  5
DA
330
D8
100
AcDbEntity
  8
0
100
AcDbBlockBegin
  2
V236_LW_LRO08_708 RT_TEXT_9
 70
     0
 10
0.0
 20
0.0
 30
0.0
  3
V236_LW_LRO08_708 RT_TEXT_9
  1

  0
TEXT
  5
D9
330
D8
100
AcDbEntity
  8
TEXT
 62
    14
370
    13
100
AcDbText
 10
-275.875
 20
18.528971
 30
0.0
 40
35.0
  1
V236_LW_LRO08_708 RT
 41
1.101504925170068
 72
     5
 11
331.32959
 21
18.528971
 31
0.0
100
AcDbText
  0
ENDBLK
  5
DB
330
D8
100
AcDbEntity
  8
0
100
AcDbBlockEnd
  0
BLOCK
  5
ED
330
EB
100
AcDbEntity
  8
0
100
AcDbBlockBegin
  2
29276884_INF_GF_HM_BI45_1000_54_CHORDWISE_V1_V236_LW_LRO08_708_R1_I5_DXF
 70
     0
 10
0.0
 20
0.0
 30
0.0
  3
29276884_INF_GF_HM_BI45_1000_54_CHORDWISE_V1_V236_LW_LRO08_708_R1_I5_DXF
  1

  0
INSERT
  5
DC
330
EB
100
AcDbEntity
  8
TEXT
 62
     7
370
     0
100
AcDbBlockReference
  2
V236_LW_LRO08_708 RT_TEXT_9
 10
56007.023438
 20
31799.806641
 30
0.0
  0
POINT
  5
DD
330
EB
100
AcDbEntity
  8
STRATEGYPOINT
 62
     7
370
     5
100
AcDbPoint
 10
56007.023438
 20
31799.806641
 30
0.0
  0
LINE
  5
DE
330
EB
100
AcDbEntity
  8
MARKERS
 62
     5
370
    35
100
AcDbLine
 10
56835.02343799999
 20
31799.806641
 30
0.0
 11
55152.02343799999
 21
31799.806641
 31
0.0
  0
LINE
  5
DF
330
EB
100
AcDbEntity
  8
MARKERS
 62
     5
370
    35
100
AcDbLine
 10
56834.023438
 20
31499.806641
 30
0.0
 11
55165.023438
 21
31499.806641
 31
0.0
  0
LINE
  5
E0
330
EB
100
AcDbEntity
  8
MARKERS
 62
     5
370
    35
100
AcDbLine
 10
56834.023438
 20
31199.806641
 30
0.0
 11
55181.02343799999
 21
31199.806641
 31
0.0
  0
LINE
  5
E1
330
EB
100
AcDbEntity
  8
MARKERS
 62
     5
370
    35
100
AcDbLine
 10
56514.023438
 20
30899.806641
 30
0.0
 11
55268.023438
 21
30899.806641
 31
0.0
  0
LINE
  5
E2
330
EB
100
AcDbEntity
  8
MARKERS
 62
     5
370
    35
100
AcDbLine
 10
56442.02343799999
 20
30699.806641
 30
0.0
 11
55337.02343799999
 21
30699.806641
 31
0.0
  0
LINE
  5
E3
330
EB
100
AcDbEntity
  8
MARKERS
 62
     5
370
    35
100
AcDbLine
 10
56835.02343799999
 20
32099.80664100001
 30
0.0
 11
55138.023438
 21
32099.80664100001
 31
0.0
  0
LINE
  5
E4
330
EB
100
AcDbEntity
  8
MARKERS
 62
     5
370
    35
100
AcDbLine
 10
56837.023438
 20
32299.80664100001
 30
0.0
 11
55123.023438
 21
32299.80664100001
 31
0.0
  0
LINE
  5
E5
330
EB
100
AcDbEntity
  8
ROSETTE
 62
   150
370
    35
100
AcDbLine
 10
56107.02343799999
 20
31799.806641
 30
0.0
 11
56007.023438
 21
31799.806641
 31
0.0
  0
LINE
  5
E6
330
EB
100
AcDbEntity
  8
ROSETTE
 62
   150
370
    35
100
AcDbLine
 10
56007.023438
 20
31799.806641
 30
0.0
 11
56007.023438
 21
31849.806641
 31
0.0
  0
SPLINE
  5
E7
330
EB
100
AcDbEntity
  8
OUTER
 62
     3
370
    35
100
AcDbSpline
210
0.0
220
0.0
230
1.0
 70
     8
 71
     5
 72
    17
 73
    11
 74
     0
 42
0.000000001
 43
0.0000000001
 40
0.0
 40
0.0
 40
0.0
 40
0.0
 40
0.0
 40
0.0
 40
276.4156236065874
 40
415.7988103720388
 40
415.7988103720388
 40
475.6609637882603
 40
548.9201060269119
 40
1142.274774439829
 40
1142.274774439829
 40
1142.274774439829
 40
1142.274774439829
 40
1142.274774439829
 40
1142.274774439829
 10
55323.27029977669
 20
30619.2622191767
 30
0.0
 10
55378.53295626369
 20
30620.7664388989
 30
0.0
 10
55461.6481522042
 20
30623.4792032733
 30
0.0
 10
55544.76671990019
 20
30626.2876133532
 30
0.0
 10
55639.9218108374
 20
30626.3543037917
 30
0.0
 10
55749.6464797342
 20
30630.1018730638
 30
0.0
 10
55922.7836025544
 20
30633.5930215015
 30
0.0
 10
56068.0667731432
 20
30635.5662559035
 30
0.0
 10
56213.33876026159
 20
30638.2269469997
 30
0.0
 10
56346.6602726813
 20
30639.1803073276
 30
0.0
 10
56465.32164966941
 20
30640.6863326808
 30
0.0
  0
SPLINE
  5
E8
330
EB
100
AcDbEntity
  8
OUTER
 62
     3
370
    35
100
AcDbSpline
210
0.0
220
0.0
230
1.0
 70
     8
 71
     5
 72
    15
 73
     9
 74
     0
 42
0.000000001
 43
0.0000000001
 40
0.0
 40
0.0
 40
0.0
 40
0.0
 40
0.0
 40
0.0
 40
308.0355211680541
 40
543.4422928714443
 40
923.7144412307753
 40
1234.144068207197
 40
1234.144068207197
 40
1234.144068207197
 40
1234.144068207197
 40
1234.144068207197
 40
1234.144068207197
 10
56465.32164966941
 20
30640.6863326808
 30
0.0
 10
56465.33166870741
 20
30702.2934361
 30
0.0
 10
56465.36580438589
 20
30810.98187026201
 30
0.0
 10
56465.4980980678
 20
30995.7246252069
 30
0.0
 10
56464.7926190204
 20
31242.5530726496
 30
0.0
 10
56465.72830533481
 20
31489.3818727539
 30
0.0
 10
56465.0297541645
 20
31674.6034886514
 30
0.0
 10
56464.94462136969
 20
31812.7437483777
 30
0.0
 10
56465.0357066207
 20
31874.8296069582
 30
0.0
  0
SPLINE
  5
E9
330
EB
100
AcDbEntity
  8
OUTER
 62
     3
370
    35
100
AcDbSpline
210
0.0
220
0.0
230
1.0
 70
     8
 71
     5
 72
    12
 73
     6
 74
     0
 42
0.000000001
 43
0.0000000001
 40
0.0
 40
0.0
 40
0.0
 40
0.0
 40
0.0
 40
0.0
 40
1201.955723371493
 40
1201.955723371493
 40
1201.955723371493
 40
1201.955723371493
 40
1201.955723371493
 40
1201.955723371493
 10
56465.0357066207
 20
31874.8296069582
 30
0.0
 10
56224.64456299789
 20
31874.8071246928
 30
0.0
 10
55984.25341582919
 20
31874.8371925151
 30
0.0
 10
55743.8622654295
 20
31874.9165024475
 30
0.0
 10
55503.47112364949
 20
31874.9201088864
 30
0.0
 10
55263.07999081289
 20
31874.8446680997
 30
0.0
  0
SPLINE
  5
EA
330
EB
100
AcDbEntity
  8
OUTER
 62
     3
370
    35
100
AcDbSpline
210
0.0
220
0.0
230
1.0
 70
     8
 71
     5
 72
    19
 73
    13
 74
     0
 42
0.000000001
 43
0.0000000001
 40
0.0
 40
0.0
 40
0.0
 40
0.0
 40
0.0
 40
0.0
 40
319.8870017892876
 40
392.4058150631802
 40
700.5994865677162
 40
776.843466346074
 40
936.2507164691702
 40
1008.785633551145
 40
1100.853312616697
 40
1257.028627257928
 40
1257.028627257928
 40
1257.028627257928
 40
1257.028627257928
 40
1257.028627257928
 40
1257.028627257928
 10
55263.07999081289
 20
31874.8446680997
 30
0.0
 10
55266.3033525146
 20
31810.948520361
 30
0.0
 10
55270.1532887549
 20
31732.5616515727
 30
0.0
 10
55276.8773210404
 20
31592.603813099
 30
0.0
 10
55284.963652055
 20
31437.4434311415
 30
0.0
 10
55292.8204237305
 20
31250.35634557201
 30
0.0
 10
55301.20701434119
 20
31112.818469427
 30
0.0
 10
55305.4476577479
 20
30971.1727449321
 30
0.0
 10
55312.6761807282
 20
30860.1075723892
 30
0.0
 10
55316.49639849019
 20
30764.1427586975
 30
0.0
 10
55319.557023004
 20
30700.0606458404
 30
0.0
 10
55321.8173958167
 20
30650.4634727767
 30
0.0
 10
55323.27029977669
 20
30619.2622191767
 30
0.0
  0
ENDBLK
  5
EE
330
EB
100
AcDbEntity
  8
0
100
AcDbBlockEnd
  0
ENDSEC
  0
SECTION
  2
ENTITIES
  0
SPLINE
  5
13A
330
1F
100
AcDbEntity
  8
OUTER
 62
     3
370
    35
100
AcDbSpline
210
0.0
220
0.0
230
1.0
 70
     8
 71
     5
 72
    13
 73
     7
 74
     0
 42
0.000000001
 43
0.0000000001
 40
0.0
 40
0.0
 40
0.0
 40
0.0
 40
0.0
 40
0.0
 40
646.3480903313098
 40
1270.076991586838
 40
1270.076991586838
 40
1270.076991586838
 40
1270.076991586838
 40
1270.076991586838
 40
1270.076991586838
 10
58083.12782003298
 20
31114.64784235949
 30
0.0
 10
58083.11310233769
 20
31243.91745958829
 30
0.0
 10
58083.17665659059
 20
31497.93282626099
 30
0.0
 10
58083.37297395438
 20
31751.94815103768
 30
0.0
 10
58083.35006234658
 20
32005.96359583179
 30
0.0
 10
58083.45808163268
 20
32259.97896295689
 30
0.0
 10
58083.56727583698
 20
32384.72469541739
 30
0.0
  0
SPLINE
  5
13C
330
1F
100
AcDbEntity
  8
OUTER
 62
     3
370
    35
100
AcDbSpline
210
0.0
220
0.0
230
1.0
 70
     8
 71
     5
 72
    27
 73
    21
 74
     0
 42
0.000000001
 43
0.0000000001
 40
0.0
 40
0.0
 40
0.0
 40
0.0
 40
0.0
 40
0.0
 40
520.9238788261687
 40
916.1889180487504
 40
1823.788875108664
 40
1823.788875108664
 40
1823.788875108664
 40
1823.788875108664
 40
1823.788875108664
 40
2143.18086171562
 40
2441.921298149317
 40
2766.41690567307
 40
3096.68708388075
 40
3096.68708388075
 40
3096.68708388075
 40
3096.68708388075
 40
3096.68708388075
 40
4857.649844515978
 40
4857.649844515978
 40
4857.649844515978
 40
4857.649844515978
 40
4857.649844515978
 40
4857.649844515978
 10
58083.56727583698
 20
32384.72469541728
 30
0.0
 10
57979.38254460168
 20
32384.62836971369
 30
0.0
 10
57796.14480408869
 20
32384.60189933109
 30
0.0
 10
57431.38700728098
 20
32384.98400009669
 30
0.0
 10
57066.62927880408
 20
32385.24684885268
 30
0.0
 10
56701.87157315019
 20
32385.39363246739
 30
0.0
 10
56441.29859835369
 20
32385.50130094799
 30
0.0
 10
56259.77862027649
 20
32385.57087860598
 30
0.0
 10
56262.97592973578
 20
32321.77254903089
 30
0.0
 10
56269.16062588788
 20
32198.30086719689
 30
0.0
 10
56278.58528456398
 20
32010.01099729519
 30
0.0
 10
56291.18678035079
 20
31755.74350685339
 30
0.0
 10
56303.68120077129
 20
31501.47041089139
 30
0.0
 10
56313.04788788608
 20
31310.99897231419
 30
0.0
 10
56319.16614094678
 20
31180.18892567998
 30
0.0
 10
56322.16513921858
 20
31114.20300571299
 30
0.0
 10
56674.35760872568
 20
31114.44424497038
 30
0.0
 10
57026.55013124648
 20
31114.57893806619
 30
0.0
 10
57378.74270457038
 20
31114.61050269179
 30
0.0
 10
57730.93526824808
 20
31114.63231415019
 30
0.0
 10
58083.12782003298
 20
31114.64784235959
 30
0.0
  0
SPLINE
  5
144
330
1F
100
AcDbEntity
  8
OUTER
 62
     3
370
    35
100
AcDbSpline
210
0.0
220
0.0
230
1.0
 70
     8
 71
     5
 72
    29
 73
    23
 74
     0
 42
0.000000001
 43
0.0000000001
 40
0.0
 40
0.0
 40
0.0
 40
0.0
 40
0.0
 40
0.0
 40
1690.813125170125
 40
1690.813125170125
 40
1690.813125170125
 40
1690.813125170125
 40
1690.813125170125
 40
2639.912894813634
 40
2960.899558760538
 40
2960.899558760538
 40
2960.899558760538
 40
2960.899558760538
 40
2960.899558760538
 40
4714.034566374063
 40
4714.034566374063
 40
4714.034566374063
 40
4714.034566374063
 40
4714.034566374063
 40
5658.149126736086
 40
5986.773300928916
 40
5986.773300928916
 40
5986.773300928916
 40
5986.773300928916
 40
5986.773300928916
 40
5986.773300928916
 10
56343.83699357599
 20
31044.23243586289
 30
0.0
 10
56681.99917187599
 20
31044.78210706319
 30
0.0
 10
57020.16257518119
 20
31044.13657595299
 30
0.0
 10
57358.32465117648
 20
31044.68881610169
 30
0.0
 10
57696.48742733869
 20
31044.53188452539
 30
0.0
 10
58034.65003485328
 20
31044.64073697899
 30
0.0
 10
58034.75074723148
 20
31234.46066419089
 30
0.0
 10
58034.85517509429
 20
31488.47785939018
 30
0.0
 10
58034.76567594509
 20
31742.49508750999
 30
0.0
 10
58035.21977417799
 20
31996.51254717449
 30
0.0
 10
58035.05667258158
 20
32250.52969574399
 30
0.0
 10
58034.97104870938
 20
32314.72697143239
 30
0.0
 10
57684.34405750768
 20
32314.81204519808
 30
0.0
 10
57333.71709011039
 20
32314.96199140129
 30
0.0
 10
56983.09014647558
 20
32315.17669918519
 30
0.0
 10
56632.46318360799
 20
32315.34239773709
 30
0.0
 10
56281.83620146579
 20
32315.45897620019
 30
0.0
 10
56291.06127117438
 20
32126.86154723509
 30
0.0
 10
56304.82714201858
 20
31872.68301487498
 30
0.0
 10
56315.44623768478
 20
31618.35157079718
 30
0.0
 10
56329.54139774668
 20
31364.18655971849
 30
0.0
 10
56340.74132321068
 20
31109.88432646429
 30
0.0
 10
56343.83699357608
 20
31044.23243586289
 30
0.0
  0
SPLINE
  5
14C
330
1F
100
AcDbEntity
  8
OUTER
 62
     3
370
    35
100
AcDbSpline
210
0.0
220
0.0
230
1.0
 70
     9
 71
     5
 72
    34
 73
    28
 74
     0
 42
0.000000001
 43
0.0000000001
 40
0.0
 40
0.0
 40
0.0
 40
0.0
 40
0.0
 40
0.0
 40
318.8246739478378
 40
948.7041380765594
 40
1270.001890279739
 40
1270.001890279739
 40
1270.001890279739
 40
1270.001890279739
 40
1270.001890279739
 40
2952.303345677399
 40
2952.303345677399
 40
2952.303345677399
 40
2952.303345677399
 40
2952.303345677399
 40
3252.852996198725
 40
3668.813024015645
 40
3753.006564042062
 40
3905.231284390803
 40
4057.438041803388
 40
4223.872157743212
 40
4223.872157743212
 40
4223.872157743212
 40
4223.872157743212
 40
4223.872157743212
 40
5844.242751858658
 40
5844.242751858658
 40
5844.242751858658
 40
5844.242751858658
 40
5844.242751858658
 40
5844.242751858658
 10
57985.85105574789
 20
30974.73376873989
 30
0.0
 10
57985.87410153499
 20
31038.49869936509
 30
0.0
 10
57985.89429231598
 20
31228.23950315649
 30
0.0
 10
57985.74567168249
 20
31482.23995104259
 30
0.0
 10
57986.29241067528
 20
31736.23996033589
 30
0.0
 10
57985.66833343918
 20
31990.24083677769
 30
0.0
 10
57985.82701084378
 20
32180.47609921509
 30
0.0
 10
57985.97195602559
 20
32244.73548618469
 30
0.0
 10
57649.51167155548
 20
32244.80217539329
 30
0.0
 10
57313.05145874609
 20
32245.14929747839
 30
0.0
 10
56976.59112469928
 20
32244.81073611689
 30
0.0
 10
56640.13090086329
 20
32245.42137677019
 30
0.0
 10
56303.67062237349
 20
32245.32933251449
 30
0.0
 10
56306.73874509947
 20
32185.29775482349
 30
0.0
 10
56313.96584092838
 20
32042.17818706049
 30
0.0
 10
56321.86995119579
 20
31882.23259524859
 30
0.0
 10
56331.31029600129
 20
31691.88098898959
 30
0.0
 10
56341.89795444378
 20
31471.10779363049
 30
0.0
 10
56351.43513669068
 20
31277.13805873389
 30
0.0
 10
56356.59654501988
 20
31166.24645618779
 30
0.0
 10
56360.80491727478
 20
31072.16751190498
 30
0.0
 10
56363.84507062539
 20
31008.51205126449
 30
0.0
 10
56365.48057833308
 20
30975.26543169959
 30
0.0
 10
56689.55465842588
 20
30975.42387027529
 30
0.0
 10
57013.62874818209
 20
30975.33870296909
 30
0.0
 10
57337.70284714348
 20
30975.03509753089
 30
0.0
 10
57661.77694981369
 20
30974.82516892978
 30
0.0
 10
57985.85105574789
 20
30974.73376873989
 30
0.0
  0
SPLINE
  5
154
330
1F
100
AcDbEntity
  8
OUTER
 62
     3
370
    35
100
AcDbSpline
210
0.0
220
0.0
230
1.0
 70
     9
 71
     5
 72
    37
 73
    31
 74
     0
 42
0.000000001
 43
0.0000000001
 40
0.0
 40
0.0
 40
0.0
 40
0.0
 40
0.0
 40
0.0
 40
318.6149316229037
 40
477.3749983250418
 40
1269.618615620841
 40
1269.618615620841
 40
1269.618615620841
 40
1269.618615620841
 40
1269.618615620841
 40
2680.175466839097
 40
2680.175466839097
 40
2680.175466839097
 40
2680.175466839097
 40
2680.175466839097
 40
3006.886534924789
 40
3006.886534924789
 40
3165.837235504827
 40
3314.852149977444
 40
3473.796227703484
 40
3632.746887720533
 40
3712.211378944959
 40
3791.668242910859
 40
3950.18421403275
 40
3950.18421403275
 40
3950.18421403275
 40
3950.18421403275
 40
3950.18421403275
 40
5299.248064197585
 40
5299.248064197585
 40
5299.248064197585
 40
5299.248064197585
 40
5299.248064197585
 40
5299.248064197585
 10
57736.17856126509
 20
30905.17041485808
 30
0.0
 10
57736.04855215499
 20
30968.89326855899
 30
0.0
 10
57736.02204935729
 20
31064.36821366279
 30
0.0
 10
57736.33679639027
 20
31318.29213848779
 30
0.0
 10
57736.22956348309
 20
31572.21578888719
 30
0.0
 10
57736.29619303898
 20
31826.13934732449
 30
0.0
 10
57735.80188419158
 20
32016.34030930058
 30
0.0
 10
57736.06575722959
 20
32174.78881303839
 30
0.0
 10
57453.95439298448
 20
32174.84698860509
 30
0.0
 10
57171.84303553788
 20
32174.92307671248
 30
0.0
 10
56889.73168488598
 20
32175.01706955169
 30
0.0
 10
56607.62033268499
 20
32175.11229802369
 30
0.0
 10
56325.50897893098
 20
32175.20875431949
 30
0.0
 10
56328.73013795108
 20
32109.94598533949
 30
0.0
 10
56332.00726518619
 20
32044.68599692269
 30
0.0
 10
56336.91325958408
 20
31947.67758315158
 30
0.0
 10
56343.11509621229
 20
31820.89383847389
 30
0.0
 10
56350.94903313988
 20
31662.36312813749
 30
0.0
 10
56357.11788931658
 20
31537.34305093549
 30
0.0
 10
56363.71278809928
 20
31396.43230923709
 30
0.0
 10
56370.12145823528
 20
31271.42960418429
 30
0.0
 10
56375.95822459259
 20
31144.49721260859
 30
0.0
 10
56380.10673301907
 20
31049.30983792248
 30
0.0
 10
56383.22996570048
 20
30985.89954073669
 30
0.0
 10
56385.58226981829
 20
30938.36321664178
 30
0.0
 10
56387.11560389317
 20
30906.69712419819
 30
0.0
 10
56656.92829491148
 20
30906.49063282419
 30
0.0
 10
56926.74084359269
 20
30906.13745722319
 30
0.0
 10
57196.55327870238
 20
30905.66781886029
 30
0.0
 10
57466.36584167478
 20
30905.33539991759
 30
0.0
 10
57736.17856126518
 20
30905.17041485808
 30
0.0
  0
SPLINE
  5
15C
330
1F
100
AcDbEntity
  8
OUTER
 62
     3
370
    35
100
AcDbSpline
210
0.0
220
0.0
230
1.0
 70
     9
 71
     5
 72
    31
 73
    25
 74
     0
 42
0.000000001
 43
0.0000000001
 40
0.0
 40
0.0
 40
0.0
 40
0.0
 40
0.0
 40
0.0
 40
1370.789069992412
 40
1370.789069992412
 40
1370.789069992412
 40
1370.789069992412
 40
1370.789069992412
 40
2235.787419001586
 40
2314.114005768713
 40
2640.762681810841
 40
2640.762681810841
 40
2640.762681810841
 40
2640.762681810841
 40
2640.762681810841
 40
3950.070990676402
 40
3950.070990676402
 40
3950.070990676402
 40
3950.070990676402
 40
3950.070990676402
 40
4581.003367725958
 40
4907.240226860756
 40
5219.715159546389
 40
5219.715159546389
 40
5219.715159546389
 40
5219.715159546389
 40
5219.715159546389
 40
5219.715159546389
 10
57717.99971292039
 20
32104.76922347729
 30
0.0
 10
57443.84191511028
 20
32104.67501082658
 30
0.0
 10
57169.68409074438
 20
32104.70820884388
 30
0.0
 10
56895.52623531459
 20
32104.77236392498
 30
0.0
 10
56621.36842089678
 20
32104.86180336899
 30
0.0
 10
56347.21068850148
 20
32105.07333195429
 30
0.0
 10
56355.76312560438
 20
31932.28519124129
 30
0.0
 10
56365.46851600158
 20
31743.86879989509
 30
0.0
 10
56376.62620447959
 20
31490.11884563499
 30
0.0
 10
56391.30528258948
 20
31236.53369587969
 30
0.0
 10
56400.93132031348
 20
30982.71148068689
 30
0.0
 10
56405.53707564919
 20
30901.84457674928
 30
0.0
 10
56408.82539749089
 20
30836.59765159669
 30
0.0
 10
56670.68673045068
 20
30836.18267311978
 30
0.0
 10
56932.54842852638
 20
30836.00706294739
 30
0.0
 10
57194.40994035568
 20
30835.94107012429
 30
0.0
 10
57456.27118687619
 20
30835.12163625429
 30
0.0
 10
57718.13284861998
 20
30835.12555957849
 30
0.0
 10
57718.05466131558
 20
30961.31201076529
 30
0.0
 10
57718.61305189058
 20
31152.74559906558
 30
0.0
 10
57717.25677641598
 20
31406.67447382039
 30
0.0
 10
57718.91715852598
 20
31660.60327685689
 30
0.0
 10
57718.01111474339
 20
31914.53190435469
 30
0.0
 10
57718.11654765229
 20
32042.27434615189
 30
0.0
 10
57717.99971292039
 20
32104.76922347738
 30
0.0
  0
SPLINE
  5
164
330
1F
100
AcDbEntity
  8
OUTER
 62
     3
370
    35
100
AcDbSpline
210
0.0
220
0.0
230
1.0
 70
     8
 71
     5
 72
    42
 73
    36
 74
     0
 42
0.000000001
 43
0.0000000001
 40
0.0
 40
0.0
 40
0.0
 40
0.0
 40
0.0
 40
0.0
 40
313.7318612106568
 40
313.7318612106568
 40
599.5216921431692
 40
763.3317501090833
 40
941.7075323089081
 40
1270.019657742286
 40
1270.019657742286
 40
1270.019657742286
 40
1270.019657742286
 40
1270.019657742286
 40
2600.533319567145
 40
2600.533319567145
 40
2600.533319567145
 40
2600.533319567145
 40
2600.533319567145
 40
2966.377997341169
 40
2966.377997341169
 40
3098.320619926258
 40
3098.320619926258
 40
3233.384198459621
 40
3464.914479651028
 40
3464.914479651028
 40
3561.370304276118
 40
3638.527603231741
 40
3715.776058237041
 40
3872.835852846985
 40
3872.835852846985
 40
3872.835852846985
 40
3872.835852846985
 40
3872.835852846985
 40
5142.054015854117
 40
5142.054015854117
 40
5142.054015854117
 40
5142.054015854117
 40
5142.054015854117
 40
5142.054015854117
 10
57699.56162556447
 20
30764.72155026809
 30
0.0
 10
57699.43816038028
 20
30827.46780103978
 30
0.0
 10
57699.42682020499
 20
30890.21413814179
 30
0.0
 10
57699.60897105079
 20
31010.11850924839
 30
0.0
 10
57699.54509518718
 20
31162.78466438748
 30
0.0
 10
57699.20447830238
 20
31351.12594301189
 30
0.0
 10
57699.45325698648
 20
31542.38341393929
 30
0.0
 10
57699.70128785009
 20
31733.64077915069
 30
0.0
 10
57699.57131365289
 20
31867.74042124859
 30
0.0
 10
57699.46549769459
 20
31969.07795570959
 30
0.0
 10
57699.36018118268
 20
32034.74029633729
 30
0.0
 10
57433.25745044447
 20
32034.71087153038
 30
0.0
 10
57167.15444452579
 20
32035.15631944929
 30
0.0
 10
56901.05264571079
 20
32034.06258056428
 30
0.0
 10
56634.94881657408
 20
32035.37795666278
 30
0.0
 10
56368.84657329448
 20
32034.86776675329
 30
0.0
 10
56372.41774548138
 20
31961.78603265078
 30
0.0
 10
56376.01322964179
 20
31888.70549280808
 30
0.0
 10
56380.93529151508
 20
31789.26979095339
 30
0.0
 10
56385.94105020209
 20
31689.83817198029
 30
0.0
 10
56392.22833364779
 20
31563.42428772179
 30
0.0
 10
56397.08402803869
 20
31463.83535122768
 30
0.0
 10
56401.82536845588
 20
31364.24083380829
 30
0.0
 10
56406.43203405188
 20
31271.74547453189
 30
0.0
 10
56411.60317327898
 20
31163.82771299209
 30
0.0
 10
56415.84786584108
 20
31067.44262124998
 30
0.0
 10
56419.29956586099
 20
30985.93107547369
 30
0.0
 10
56423.35840467159
 20
30904.44865031879
 30
0.0
 10
56426.74244567339
 20
30842.24662688868
 30
0.0
 10
56428.96741533708
 20
30795.43808351509
 30
0.0
 10
56430.34403404428
 20
30764.05630402049
 30
0.0
 10
56684.18614374468
 20
30764.93559660578
 30
0.0
 10
56938.03149242778
 20
30764.64122664869
 30
0.0
 10
57191.87416497278
 20
30764.88326593509
 30
0.0
 10
57445.71799821339
 20
30764.77317779219
 30
0.0
 10
57699.56162556458
 20
30764.72155026799
 30
0.0
  0
SPLINE
  5
16A
330
1F
100
AcDbEntity
  8
OUTER
 62
     3
370
    35
100
AcDbSpline
210
0.0
220
0.0
230
1.0
 70
     8
 71
     5
 72
    15
 73
     9
 74
     0
 42
0.000000001
 43
0.0000000001
 40
0.0
 40
0.0
 40
0.0
 40
0.0
 40
0.0
 40
0.0
 40
338.114838147149
 40
647.3545562132281
 40
988.5949093883892
 40
1269.962126689183
 40
1269.962126689183
 40
1269.962126689183
 40
1269.962126689183
 40
1269.962126689183
 40
1269.962126689183
 10
57679.46394834798
 20
30694.73150453498
 30
0.0
 10
57679.54096132378
 20
30762.35442831098
 30
0.0
 10
57679.64405327209
 20
30891.82529384079
 30
0.0
 10
57679.63729797759
 20
31089.54423278489
 30
0.0
 10
57679.00991488098
 20
31343.53610674199
 30
0.0
 10
57679.61678533759
 20
31597.52857629939
 30
0.0
 10
57679.42699245889
 20
31783.89787924149
 30
0.0
 10
57679.37760206308
 20
31908.41936768549
 30
0.0
 10
57679.37330571928
 20
31964.69281098169
 30
0.0
  0
SPLINE
  5
16B
330
1F
100
AcDbEntity
  8
OUTER
 62
     3
370
    35
100
AcDbSpline
210
0.0
220
0.0
230
1.0
 70
     8
 71
     5
 72
    13
 73
     7
 74
     0
 42
0.000000001
 43
0.0000000001
 40
0.0
 40
0.0
 40
0.0
 40
0.0
 40
0.0
 40
0.0
 40
627.5191378985927
 40
1288.953364005501
 40
1288.953364005501
 40
1288.953364005501
 40
1288.953364005501
 40
1288.953364005501
 40
1288.953364005501
 10
57679.37330571928
 20
31964.69281098158
 30
0.0
 10
57553.86948443809
 20
31964.73257211919
 30
0.0
 10
57296.07881673688
 20
31964.76109277609
 30
0.0
 10
57038.28815867158
 20
31964.67377389078
 30
0.0
 10
56780.49736841629
 20
31964.93502406259
 30
0.0
 10
56522.70672239168
 20
31964.89729834519
 30
0.0
 10
56390.41995852168
 20
31964.75058956189
 30
0.0
  0
SPLINE
  5
16C
330
1F
100
AcDbEntity
  8
OUTER
 62
     3
370
    35
100
AcDbSpline
210
0.0
220
0.0
230
1.0
 70
     8
 71
     5
 72
    22
 73
    16
 74
     0
 42
0.000000001
 43
0.0000000001
 40
0.0
 40
0.0
 40
0.0
 40
0.0
 40
0.0
 40
0.0
 40
594.9536729968107
 40
765.7704670896083
 40
927.0836994600912
 40
1022.048916710937
 40
1107.388970590677
 40
1271.054894500985
 40
1271.054894500985
 40
1271.054894500985
 40
1271.054894500985
 40
1271.054894500985
 40
2498.805194820227
 40
2498.805194820227
 40
2498.805194820227
 40
2498.805194820227
 40
2498.805194820227
 40
2498.805194820227
 10
56390.41995852158
 20
31964.75058956189
 30
0.0
 10
56396.31642844759
 20
31845.90604167319
 30
0.0
 10
56403.37988779768
 20
31692.91485490279
 30
0.0
 10
56414.32173277398
 20
31507.80983956459
 30
0.0
 10
56421.94109054928
 20
31303.53170976158
 30
0.0
 10
56434.35821762679
 20
31082.39318543308
 30
0.0
 10
56438.13673144508
 20
30947.20221388969
 30
0.0
 10
56445.24421875039
 20
30846.37156548279
 30
0.0
 10
56447.88753297039
 20
30777.62538624719
 30
0.0
 10
56450.15196916719
 20
30727.87544787519
 30
0.0
 10
56451.71380818478
 20
30695.17954530529
 30
0.0
 10
56697.26383464248
 20
30695.05107530349
 30
0.0
 10
56942.81391658448
 20
30695.46576980889
 30
0.0
 10
57188.36377692018
 20
30694.64791879659
 30
0.0
 10
57433.91394873879
 20
30694.90381025239
 30
0.0
 10
57679.46394834808
 20
30694.73150453498
 30
0.0
  0
SPLINE
  5
172
330
1F
100
AcDbEntity
  8
OUTER
 62
     3
370
    35
100
AcDbSpline
210
0.0
220
0.0
230
1.0
 70
     8
 71
     5
 72
    13
 73
     7
 74
     0
 42
0.000000001
 43
0.0000000001
 40
0.0
 40
0.0
 40
0.0
 40
0.0
 40
0.0
 40
0.0
 40
568.2261543314898
 40
1269.919359587685
 40
1269.919359587685
 40
1269.919359587685
 40
1269.919359587685
 40
1269.919359587685
 40
1269.919359587685
 10
57658.09504700668
 20
30624.77557511749
 30
0.0
 10
57658.23179833329
 20
30738.42072370599
 30
0.0
 10
57658.31522907488
 20
30992.40453919558
 30
0.0
 10
57658.05493855168
 20
31246.38834895359
 30
0.0
 10
57658.25392819608
 20
31500.37206777538
 30
0.0
 10
57658.24101826158
 20
31754.35592960559
 30
0.0
 10
57658.16501178118
 20
31894.69455007459
 30
0.0
  0
SPLINE
  5
174
330
1F
100
AcDbEntity
  8
OUTER
 62
     3
370
    35
100
AcDbSpline
210
0.0
220
0.0
230
1.0
 70
     8
 71
     5
 72
    40
 73
    34
 74
     0
 42
0.000000001
 43
0.0000000001
 40
0.0
 40
0.0
 40
0.0
 40
0.0
 40
0.0
 40
0.0
 40
1245.934023274066
 40
1245.934023274066
 40
1245.934023274066
 40
1245.934023274066
 40
1245.934023274066
 40
1414.70905086208
 40
1414.70905086208
 40
1568.398208524271
 40
1568.398208524271
 40
1736.304523928422
 40
1736.304523928422
 40
1810.924740729421
 40
1885.834012058258
 40
1960.168135744559
 40
2034.792287848575
 40
2109.405010594
 40
2109.405010594
 40
2193.328041722037
 40
2277.446966362306
 40
2277.446966362306
 40
2351.929809217804
 40
2351.929809217804
 40
2351.929809217804
 40
2517.625426118767
 40
2517.625426118767
 40
2517.625426118767
 40
2517.625426118767
 40
2517.625426118767
 40
3702.406772014296
 40
3702.406772014296
 40
3702.406772014296
 40
3702.406772014296
 40
3702.406772014296
 40
3702.406772014296
 10
57658.16501178108
 20
31894.69455007459
 30
0.0
 10
57408.97821459229
 20
31894.75554778359
 30
0.0
 10
57159.79141408628
 20
31894.77568142228
 30
0.0
 10
56910.60461031068
 20
31894.75557562599
 30
0.0
 10
56661.41780633528
 20
31894.73710978248
 30
0.0
 10
56412.23100220678
 20
31894.72091287669
 30
0.0
 10
56413.86961016559
 20
31861.00570323109
 30
0.0
 10
56415.52554126658
 20
31827.29134180169
 30
0.0
 10
56418.72568173388
 20
31762.87794063709
 30
0.0
 10
56421.96506059178
 20
31698.46650095089
 30
0.0
 10
56426.84947250568
 20
31600.51413615288
 30
0.0
 10
56430.02776172727
 20
31536.27355852969
 30
0.0
 10
56433.95893382789
 20
31457.12795209899
 30
0.0
 10
56437.01430331969
 20
31393.71441126959
 30
0.0
 10
56440.70510557758
 20
31315.44741404509
 30
0.0
 10
56443.52093450278
 20
31255.81632666759
 30
0.0
 10
56447.17907756938
 20
31181.28584542069
 30
0.0
 10
56450.12657313258
 20
31121.66236416158
 30
0.0
 10
56452.89448434318
 20
31060.22597488268
 30
0.0
 10
56455.51809913488
 20
30996.82433808599
 30
0.0
 10
56457.59585808528
 20
30948.33843769999
 30
0.0
 10
56459.99890210548
 20
30899.89384466259
 30
0.0
 10
56462.56138619238
 20
30851.45667148529
 30
0.0
 10
56464.18735945228
 20
30819.77808447929
 30
0.0
 10
56466.59535376158
 20
30771.80292752489
 30
0.0
 10
56468.84640474469
 20
30723.81994360709
 30
0.0
 10
56470.37377464018
 20
30690.71588489089
 30
0.0
 10
56471.87158653988
 20
30657.61061419098
 30
0.0
 10
56473.31392350928
 20
30624.50289360389
 30
0.0
 10
56710.27018326568
 20
30624.56972115639
 30
0.0
 10
56947.22592324079
 20
30625.37056933519
 30
0.0
 10
57184.18267624969
 20
30624.69621386889
 30
0.0
 10
57421.13881586838
 20
30624.90984346529
 30
0.0
 10
57658.09504700658
 20
30624.77557511749
 30
0.0
  0
SPLINE
  5
183
330
1F
100
AcDbEntity
  8
OUTER
 62
     3
370
    35
100
AcDbSpline
210
0.0
220
0.0
230
1.0
 70
     9
 71
     5
 72
    42
 73
    36
 74
     0
 42
0.000000001
 43
0.0000000001
 40
0.0
 40
0.0
 40
0.0
 40
0.0
 40
0.0
 40
0.0
 40
308.0355211680541
 40
543.4422928714443
 40
923.7144412307753
 40
1234.144068207197
 40
1234.144068207197
 40
1234.144068207197
 40
1234.144068207197
 40
1234.144068207197
 40
2436.099791578691
 40
2436.099791578691
 40
2436.099791578691
 40
2436.099791578691
 40
2436.099791578691
 40
2755.986793367978
 40
2828.50560664187
 40
3136.699278146407
 40
3212.943257924764
 40
3372.350508047861
 40
3444.885425129836
 40
3536.953104195387
 40
3693.128418836618
 40
3693.128418836618
 40
3693.128418836618
 40
3693.128418836618
 40
3693.128418836618
 40
3969.544042443206
 40
4108.927229208656
 40
4108.927229208656
 40
4168.789382624878
 40
4242.04852486353
 40
4835.403193276446
 40
4835.403193276446
 40
4835.403193276446
 40
4835.403193276446
 40
4835.403193276446
 40
4835.403193276446
 10
57636.99454214329
 20
30590.55766138049
 30
0.0
 10
57637.00456118129
 20
30652.16476479969
 30
0.0
 10
57637.03869685978
 20
30760.85319896169
 30
0.0
 10
57637.17099054169
 20
30945.59595390658
 30
0.0
 10
57636.46551149428
 20
31192.42440134929
 30
0.0
 10
57637.40119780869
 20
31439.25320145359
 30
0.0
 10
57636.70264663839
 20
31624.47481735109
 30
0.0
 10
57636.61751384358
 20
31762.61507707739
 30
0.0
 10
57636.70859909458
 20
31824.70093565789
 30
0.0
 10
57396.31745547178
 20
31824.67845339248
 30
0.0
 10
57155.92630830308
 20
31824.70852121479
 30
0.0
 10
56915.53515790339
 20
31824.78783114719
 30
0.0
 10
56675.14401612338
 20
31824.79143758609
 30
0.0
 10
56434.75288328678
 20
31824.71599679939
 30
0.0
 10
56437.97624498849
 20
31760.81984906069
 30
0.0
 10
56441.82618122878
 20
31682.43298027239
 30
0.0
 10
56448.55021351428
 20
31542.47514179869
 30
0.0
 10
56456.63654452888
 20
31387.31475984119
 30
0.0
 10
56464.49331620438
 20
31200.22767427169
 30
0.0
 10
56472.87990681508
 20
31062.68979812669
 30
0.0
 10
56477.12055022179
 20
30921.04407363179
 30
0.0
 10
56484.34907320209
 20
30809.97890108889
 30
0.0
 10
56488.16929096408
 20
30714.01408739719
 30
0.0
 10
56491.22991547788
 20
30649.93197454008
 30
0.0
 10
56493.49028829059
 20
30600.33480147639
 30
0.0
 10
56494.94319225058
 20
30569.13354787639
 30
0.0
 10
56550.20584873758
 20
30570.63776759858
 30
0.0
 10
56633.32104467809
 20
30573.35053197299
 30
0.0
 10
56716.43961237408
 20
30576.15894205289
 30
0.0
 10
56811.59470331129
 20
30576.22563249139
 30
0.0
 10
56921.31937220808
 20
30579.97320176349
 30
0.0
 10
57094.45649502828
 20
30583.46435020119
 30
0.0
 10
57239.73966561708
 20
30585.43758460319
 30
0.0
 10
57385.01165273548
 20
30588.09827569939
 30
0.0
 10
57518.33316515519
 20
30589.05163602728
 30
0.0
 10
57636.99454214329
 20
30590.55766138049
 30
0.0
  0
ENDSEC
  0
SECTION
  2
OBJECTS
  0
DICTIONARY
  5
C
330
0
100
AcDbDictionary
281
     1
  3
ACAD_CIP_PREVIOUS_PRODUCT_INFO
350
130
  3
ACAD_COLOR
350
125
  3
ACAD_DETAILVIEWSTYLE
350
12C
  3
ACAD_GROUP
350
D
  3
ACAD_LAST_SAVED_VERSION_INFO
350
185
  3
ACAD_LAYOUT
350
1A
  3
ACAD_MATERIAL
350
F3
  3
ACAD_MLEADERSTYLE
350
128
  3
ACAD_MLINESTYLE
350
17
  3
ACAD_PLOTSETTINGS
350
19
  3
ACAD_PLOTSTYLENAME
350
E
  3
ACAD_SCALELIST
350
47
  3
ACAD_SECTIONVIEWSTYLE
350
12A
  3
ACAD_TABLESTYLE
350
126
  3
ACAD_VISUALSTYLE
350
10C
  3
ACDB_RECOMPOSE_DATA
350
1D7
  3
AcDbVariableDictionary
350
131
  0
DICTIONARY
  5
1A3
330
2
100
AcDbDictionary
280
     1
281
     1
  3
ACAD_LAYERSTATES
360
1A4
  0
DICTIONARY
  5
186
330
10
100
AcDbDictionary
280
     1
281
     1
  3
ADSK_XREC_LAYER_RECONCILED
360
187
  0
DICTIONARY
  5
188
330
6F
100
AcDbDictionary
280
     1
281
     1
  3
ADSK_XREC_LAYER_RECONCILED
360
189
  0
DICTIONARY
  5
18A
330
70
100
AcDbDictionary
280
     1
281
     1
  3
ADSK_XREC_LAYER_RECONCILED
360
18B
  0
DICTIONARY
  5
18C
330
71
100
AcDbDictionary
280
     1
281
     1
  3
ADSK_XREC_LAYER_RECONCILED
360
18D
  0
DICTIONARY
  5
18E
330
72
100
AcDbDictionary
280
     1
281
     1
  3
ADSK_XREC_LAYER_RECONCILED
360
18F
  0
DICTIONARY
  5
190
330
D7
100
AcDbDictionary
280
     1
281
     1
  3
ADSK_XREC_LAYER_RECONCILED
360
191
  0
DICTIONARY
  5
133
330
1F
100
AcDbDictionary
280
     1
281
     1
  3
ACAD_SORTENTS
360
134
  0
XRECORD
  5
130
102
{ACAD_REACTORS
330
C
102
}
330
C
100
AcDbXrecord
280
     1
300
ACDLT
300
2024
300

  0
DICTIONARY
  5
125
102
{ACAD_REACTORS
330
C
102
}
330
C
100
AcDbDictionary
281
     1
  0
DICTIONARY
  5
12C
102
{ACAD_REACTORS
330
C
102
}
330
C
100
AcDbDictionary
281
     1
  3
Metric50
350
12D
  0
DICTIONARY
  5
D
102
{ACAD_REACTORS
330
C
102
}
330
C
100
AcDbDictionary
281
     1
  0
XRECORD
  5
185
102
{ACAD_REACTORS
330
C
102
}
330
C
100
AcDbXrecord
280
     1
300
{889169B7-8DAC-744E-8860-FC5A5A14CF0B}
301
{B07191EA-241F-8B4E-87F3-17A2DCD4C660}
302
{889169B7-8DAC-744E-8860-FC5A5A14CF0B}
303
C:\Users\Juan Pablo Lopez\PycharmProjects\ProjectJP\V236_LW_LRO08.dxf
  0
DICTIONARY
  5
1A
102
{ACAD_REACTORS
330
C
102
}
330
C
100
AcDbDictionary
281
     1
  3
Layout1
350
1E
  3
Layout2
350
26
  3
Model
350
22
  0
DICTIONARY
  5
F3
102
{ACAD_REACTORS
330
C
102
}
330
C
100
AcDbDictionary
281
     1
  3
ByBlock
350
FC
  3
ByLayer
350
F4
  3
Global
350
104
  0
DICTIONARY
  5
128
102
{ACAD_REACTORS
330
C
102
}
330
C
100
AcDbDictionary
281
     1
  3
Standard
350
129
  0
DICTIONARY
  5
17
102
{ACAD_REACTORS
330
C
102
}
330
C
100
AcDbDictionary
281
     1
  3
Standard
350
18
  0
DICTIONARY
  5
19
102
{ACAD_REACTORS
330
C
102
}
330
C
100
AcDbDictionary
281
     1
  0
ACDBDICTIONARYWDFLT
  5
E
102
{ACAD_REACTORS
330
C
102
}
330
C
100
AcDbDictionary
281
     1
  3
Normal
350
F
100
AcDbDictionaryWithDefault
340
F
  0
DICTIONARY
  5
47
102
{ACAD_REACTORS
330
C
102
}
330
C
100
AcDbDictionary
281
     1
  3
A0
350
48
  3
A1
350
49
  3
A2
350
4A
  3
A3
350
4B
  3
A4
350
4C
  3
A5
350
4D
  3
A6
350
4E
  3
A7
350
4F
  3
A8
350
50
  3
A9
350
51
  3
B0
350
52
  3
B1
350
53
  3
B2
350
54
  3
B3
350
55
  3
B4
350
56
  3
B5
350
57
  3
B6
350
58
  3
B7
350
59
  3
B8
350
5A
  3
B9
350
5B
  3
C0
350
5C
  3
C1
350
5D
  3
C2
350
5E
  3
C3
350
5F
  3
C4
350
60
  3
C5
350
61
  3
C6
350
62
  3
C7
350
63
  3
C8
350
64
  3
C9
350
65
  3
D0
350
66
  3
D1
350
67
  3
D2
350
68
  0
DICTIONARY
  5
12A
102
{ACAD_REACTORS
330
C
102
}
330
C
100
AcDbDictionary
281
     1
  3
Metric50
350
12B
  0
DICTIONARY
  5
126
102
{ACAD_REACTORS
330
C
102
}
330
C
100
AcDbDictionary
281
     1
  3
Standard
350
127
  0
DICTIONARY
  5
10C
102
{ACAD_REACTORS
330
C
102
}
330
C
100
AcDbDictionary
281
     1
  3
2dWireframe
350
112
  3
Basic
350
111
  3
Brighten
350
118
  3
ColorChange
350
11C
  3
Conceptual
350
115
  3
Dim
350
117
  3
EdgeColorOff
350
124
  3
Facepattern
350
11B
  3
Flat
350
10D
  3
FlatWithEdges
350
10E
  3
Gouraud
350
10F
  3
GouraudWithEdges
350
110
  3
Hidden
350
114
  3
JitterOff
350
122
  3
Linepattern
350
11A
  3
OverhangOff
350
123
  3
Realistic
350
116
  3
Shaded
350
121
  3
Shaded with edges
350
120
  3
Shades of Gray
350
11D
  3
Sketchy
350
11E
  3
Thicken
350
119
  3
Wireframe
350
113
  3
X-Ray
350
11F
  0
XRECORD
  5
1D7
102
{ACAD_REACTORS
330
C
102
}
330
C
100
AcDbXrecord
280
     1
 90
        1
330
127
  0
DICTIONARY
  5
131
102
{ACAD_REACTORS
330
C
102
}
330
C
100
AcDbDictionary
281
     1
  3
CANNOSCALE
350
197
  3
CMLEADERSTYLE
350
193
  3
CTABLESTYLE
350
192
  3
CVIEWDETAILSTYLE
350
194
  3
CVIEWSECTIONSTYLE
350
195
  3
LAYEREVAL
350
199
  3
LAYERNOTIFY
350
19A
  3
LIGHTINGUNITS
350
198
  3
MSLTSCALE
350
196
  0
DICTIONARY
  5
1A4
102
{ACAD_REACTORS
330
1A3
102
}
330
1A3
100
AcDbDictionary
281
     1
  0
XRECORD
  5
187
102
{ACAD_REACTORS
330
186
102
}
330
186
100
AcDbXrecord
280
     1
290
     1
  0
XRECORD
  5
189
102
{ACAD_REACTORS
330
188
102
}
330
188
100
AcDbXrecord
280
     1
290
     1
  0
XRECORD
  5
18B
102
{ACAD_REACTORS
330
18A
102
}
330
18A
100
AcDbXrecord
280
     1
290
     1
  0
XRECORD
  5
18D
102
{ACAD_REACTORS
330
18C
102
}
330
18C
100
AcDbXrecord
280
     1
290
     1
  0
XRECORD
  5
18F
102
{ACAD_REACTORS
330
18E
102
}
330
18E
100
AcDbXrecord
280
     1
290
     1
  0
XRECORD
  5
191
102
{ACAD_REACTORS
330
190
102
}
330
190
100
AcDbXrecord
280
     1
290
     1
  0
SORTENTSTABLE
  5
134
102
{ACAD_REACTORS
330
133
102
}
330
133
100
AcDbSortentsTable
330
1F
  0
ACDBDETAILVIEWSTYLE
  5
12D
102
{ACAD_REACTORS
330
12C
102
}
330
12C
100
AcDbModelDocViewStyle
 70
     0
  3
Metric50
290
     0
300
Metric50
 90
        0
100
AcDbDetailViewStyle
 70
     0
 71
     0
 90
        3
 71
     1
340
11
 62
   256
 40
5.0
340
0
 62
   256
 40
5.0
300

 40
0.0
280
     1
 71
     2
340
16
 90
       25
 62
   256
 71
     3
340
11
 62
   256
 40
5.0
 90
        0
 40
15.0
 90
        1
300
%<\AcVar ViewDetailId>% (%<\AcVar ViewScale \f "%sn">%)
 71
     4
340
16
 90
       25
 62
   256
340
16
 90
       25
 62
   256
280
     0
  0
LAYOUT
  5
1E
102
{ACAD_REACTORS
330
1A
102
}
330
1A
100
AcDbPlotSettings
  1

  2
none_device
  4

  6

 40
0.0
 41
0.0
 42
0.0
 43
0.0
 44
0.0
 45
0.0
 46
0.0
 47
0.0
 48
0.0
 49
0.0
140
0.0
141
0.0
142
1.0
143
1.0
 70
  4784
 72
     0
 73
     0
 74
     5
  7

 75
    16
147
1.0
 76
     0
 77
     2
 78
   300
148
0.0
149
0.0
100
AcDbLayout
  1
Layout1
 70
     1
 71
     1
 10
0.0
 20
0.0
 11
420.0
 21
297.0
 12
0.0
 22
0.0
 32
0.0
 14
0.0
 24
0.0
 34
0.0
 15
256.126465
 25
628.169495
 35
2.0
146
0.0
 13
0.0
 23
0.0
 33
0.0
 16
1.0
 26
0.0
 36
0.0
 17
0.0
 27
1.0
 37
0.0
 76
     0
330
1B
  0
LAYOUT
  5
26
102
{ACAD_REACTORS
330
1A
102
}
330
1A
100
AcDbPlotSettings
  1

  2
none_device
  4

  6

 40
0.0
 41
0.0
 42
0.0
 43
0.0
 44
0.0
 45
0.0
 46
0.0
 47
0.0
 48
0.0
 49
0.0
140
0.0
141
0.0
142
1.0
143
1.0
 70
  4784
 72
     0
 73
     0
 74
     5
  7

 75
    16
147
1.0
 76
     0
 77
     2
 78
   300
148
0.0
149
0.0
100
AcDbLayout
  1
Layout2
 70
     1
 71
     2
 10
0.0
 20
0.0
 11
0.0
 21
0.0
 12
0.0
 22
0.0
 32
0.0
 14
0.0
 24
0.0
 34
0.0
 15
0.0
 25
0.0
 35
0.0
146
0.0
 13
0.0
 23
0.0
 33
0.0
 16
1.0
 26
0.0
 36
0.0
 17
0.0
 27
1.0
 37
0.0
 76
     0
330
23
  0
LAYOUT
  5
22
102
{ACAD_REACTORS
330
1A
102
}
330
1A
100
AcDbPlotSettings
  1

  2
none_device
  4
Letter_(8.50_x_11.00_Inches)
  6

 40
6.349999999999999
 41
6.349999999999999
 42
6.350005
 43
6.350005
 44
215.9
 45
279.4
 46
0.0
 47
0.0
 48
0.0
 49
0.0
140
0.0
141
0.0
142
1.0
143
1.0
 70
  5808
 72
     0
 73
     0
 74
     0
  7

 75
     0
147
1.0
 76
     0
 77
     2
 78
   300
148
0.0
149
0.0
100
AcDbLayout
  1
Model
 70
     1
 71
     0
 10
0.0
 20
0.0
 11
420.0
 21
297.0
 12
0.0
 22
0.0
 32
0.0
 14
0.0
 24
0.0
 34
0.0
 15
256.126465
 25
628.169495
 35
2.0
146
0.0
 13
0.0
 23
0.0
 33
0.0
 16
1.0
 26
0.0
 36
0.0
 17
0.0
 27
1.0
 37
0.0
 76
     0
330
1F
331
29
  0
MATERIAL
  5
FC
102
{ACAD_XDICTIONARY
360
FD
102
}
102
{ACAD_REACTORS
330
F3
102
}
330
F3
100
AcDbMaterial
  1
ByBlock
 72
     0
 43
0.0208333333333333
 43
0.0
 43
0.0
 43
0.0
 43
0.0
 43
0.0208333333333333
 43
0.0
 43
0.0
 43
0.0
 43
0.0
 43
1.0
 43
0.0
 43
0.0
 43
0.0
 43
0.0
 43
1.0
 77
     0
 47
0.0208333333333333
 47
0.0
 47
0.0
 47
0.0
 47
0.0
 47
0.0208333333333333
 47
0.0
 47
0.0
 47
0.0
 47
0.0
 47
1.0
 47
0.0
 47
0.0
 47
0.0
 47
0.0
 47
1.0
171
     0
 49
0.0208333333333333
 49
0.0
 49
0.0
 49
0.0
 49
0.0
 49
0.0208333333333333
 49
0.0
 49
0.0
 49
0.0
 49
0.0
 49
1.0
 49
0.0
 49
0.0
 49
0.0
 49
0.0
 49
1.0
175
     0
142
0.0208333333333333
142
0.0
142
0.0
142
0.0
142
0.0
142
0.0208333333333333
142
0.0
142
0.0
142
0.0
142
0.0
142
1.0
142
0.0
142
0.0
142
0.0
142
0.0
142
1.0
179
     0
144
0.0208333333333333
144
0.0
144
0.0
144
0.0
144
0.0
144
0.0208333333333333
144
0.0
144
0.0
144
0.0
144
0.0
144
1.0
144
0.0
144
0.0
144
0.0
144
0.0
144
1.0
147
0.0208333333333333
147
0.0
147
0.0
147
0.0
147
0.0
147
0.0208333333333333
147
0.0
147
0.0
147
0.0
147
0.0
147
1.0
147
0.0
147
0.0
147
0.0
147
0.0
147
1.0
  0
MATERIAL
  5
F4
102
{ACAD_XDICTIONARY
360
F5
102
}
102
{ACAD_REACTORS
330
F3
102
}
330
F3
100
AcDbMaterial
  1
ByLayer
 72
     0
 43
0.0208333333333333
 43
0.0
 43
0.0
 43
0.0
 43
0.0
 43
0.0208333333333333
 43
0.0
 43
0.0
 43
0.0
 43
0.0
 43
1.0
 43
0.0
 43
0.0
 43
0.0
 43
0.0
 43
1.0
 77
     0
 47
0.0208333333333333
 47
0.0
 47
0.0
 47
0.0
 47
0.0
 47
0.0208333333333333
 47
0.0
 47
0.0
 47
0.0
 47
0.0
 47
1.0
 47
0.0
 47
0.0
 47
0.0
 47
0.0
 47
1.0
171
     0
 49
0.0208333333333333
 49
0.0
 49
0.0
 49
0.0
 49
0.0
 49
0.0208333333333333
 49
0.0
 49
0.0
 49
0.0
 49
0.0
 49
1.0
 49
0.0
 49
0.0
 49
0.0
 49
0.0
 49
1.0
175
     0
142
0.0208333333333333
142
0.0
142
0.0
142
0.0
142
0.0
142
0.0208333333333333
142
0.0
142
0.0
142
0.0
142
0.0
142
1.0
142
0.0
142
0.0
142
0.0
142
0.0
142
1.0
179
     0
144
0.0208333333333333
144
0.0
144
0.0
144
0.0
144
0.0
144
0.0208333333333333
144
0.0
144
0.0
144
0.0
144
0.0
144
1.0
144
0.0
144
0.0
144
0.0
144
0.0
144
1.0
147
0.0208333333333333
147
0.0
147
0.0
147
0.0
147
0.0
147
0.0208333333333333
147
0.0
147
0.0
147
0.0
147
0.0
147
1.0
147
0.0
147
0.0
147
0.0
147
0.0
147
1.0
  0
MATERIAL
  5
104
102
{ACAD_XDICTIONARY
360
105
102
}
102
{ACAD_REACTORS
330
F3
102
}
330
F3
100
AcDbMaterial
  1
Global
 72
     0
 43
0.0208333333333333
 43
0.0
 43
0.0
 43
0.0
 43
0.0
 43
0.0208333333333333
 43
0.0
 43
0.0
 43
0.0
 43
0.0
 43
1.0
 43
0.0
 43
0.0
 43
0.0
 43
0.0
 43
1.0
 77
     0
 47
0.0208333333333333
 47
0.0
 47
0.0
 47
0.0
 47
0.0
 47
0.0208333333333333
 47
0.0
 47
0.0
 47
0.0
 47
0.0
 47
1.0
 47
0.0
 47
0.0
 47
0.0
 47
0.0
 47
1.0
171
     0
 49
0.0208333333333333
 49
0.0
 49
0.0
 49
0.0
 49
0.0
 49
0.0208333333333333
 49
0.0
 49
0.0
 49
0.0
 49
0.0
 49
1.0
 49
0.0
 49
0.0
 49
0.0
 49
0.0
 49
1.0
175
     0
142
0.0208333333333333
142
0.0
142
0.0
142
0.0
142
0.0
142
0.0208333333333333
142
0.0
142
0.0
142
0.0
142
0.0
142
1.0
142
0.0
142
0.0
142
0.0
142
0.0
142
1.0
179
     0
144
0.0208333333333333
144
0.0
144
0.0
144
0.0
144
0.0
144
0.0208333333333333
144
0.0
144
0.0
144
0.0
144
0.0
144
1.0
144
0.0
144
0.0
144
0.0
144
0.0
144
1.0
147
0.0208333333333333
147
0.0
147
0.0
147
0.0
147
0.0
147
0.0208333333333333
147
0.0
147
0.0
147
0.0
147
0.0
147
1.0
147
0.0
147
0.0
147
0.0
147
0.0
147
1.0
  0
MLEADERSTYLE
  5
129
102
{ACAD_REACTORS
330
128
102
}
330
128
100
AcDbMLeaderStyle
179
     2
170
     2
171
     1
172
     0
 90
        2
 40
0.0
 41
0.0
173
     1
 91
-1056964608
340
14
 92
       -2
290
     1
 42
2.0
291
     1
 43
0.36
  3
Standard
 44
4.0
300

342
11
174
     1
178
     6
175
     1
176
     0
 93
-1056964608
 45
4.0
292
     0
297
     0
 46
4.0
 94
-1056964608
 47
1.0
 49
1.0
140
1.0
293
     1
141
0.0
294
     1
177
     0
142
1.0
295
     0
296
     0
143
0.125
271
     0
272
     9
273
     9
298
     0
  0
MLINESTYLE
  5
18
102
{ACAD_REACTORS
330
17
102
}
330
17
100
AcDbMlineStyle
  2
STANDARD
 70
     0
  3

 62
   256
 51
90.0
 52
90.0
 71
     2
 49
0.5
 62
   256
  6
BYLAYER
 49
-0.5
 62
   256
  6
BYLAYER
  0
ACDBPLACEHOLDER
  5
F
102
{ACAD_REACTORS
330
E
102
}
330
E
  0
SCALE
  5
48
102
{ACAD_REACTORS
330
47
102
}
330
47
100
AcDbScale
 70
     0
300
1:1
140
1.0
141
1.0
290
     1
  0
SCALE
  5
49
102
{ACAD_REACTORS
330
47
102
}
330
47
100
AcDbScale
 70
     0
300
1:2
140
1.0
141
2.0
290
     0
  0
SCALE
  5
4A
102
{ACAD_REACTORS
330
47
102
}
330
47
100
AcDbScale
 70
     0
300
1:4
140
1.0
141
4.0
290
     0
  0
SCALE
  5
4B
102
{ACAD_REACTORS
330
47
102
}
330
47
100
AcDbScale
 70
     0
300
1:5
140
1.0
141
5.0
290
     0
  0
SCALE
  5
4C
102
{ACAD_REACTORS
330
47
102
}
330
47
100
AcDbScale
 70
     0
300
1:8
140
1.0
141
8.0
290
     0
  0
SCALE
  5
4D
102
{ACAD_REACTORS
330
47
102
}
330
47
100
AcDbScale
 70
     0
300
1:10
140
1.0
141
10.0
290
     0
  0
SCALE
  5
4E
102
{ACAD_REACTORS
330
47
102
}
330
47
100
AcDbScale
 70
     0
300
1:16
140
1.0
141
16.0
290
     0
  0
SCALE
  5
4F
102
{ACAD_REACTORS
330
47
102
}
330
47
100
AcDbScale
 70
     0
300
1:20
140
1.0
141
20.0
290
     0
  0
SCALE
  5
50
102
{ACAD_REACTORS
330
47
102
}
330
47
100
AcDbScale
 70
     0
300
1:30
140
1.0
141
30.0
290
     0
  0
SCALE
  5
51
102
{ACAD_REACTORS
330
47
102
}
330
47
100
AcDbScale
 70
     0
300
1:40
140
1.0
141
40.0
290
     0
  0
SCALE
  5
52
102
{ACAD_REACTORS
330
47
102
}
330
47
100
AcDbScale
 70
     0
300
1:50
140
1.0
141
50.0
290
     0
  0
SCALE
  5
53
102
{ACAD_REACTORS
330
47
102
}
330
47
100
AcDbScale
 70
     0
300
1:100
140
1.0
141
100.0
290
     0
  0
SCALE
  5
54
102
{ACAD_REACTORS
330
47
102
}
330
47
100
AcDbScale
 70
     0
300
2:1
140
2.0
141
1.0
290
     0
  0
SCALE
  5
55
102
{ACAD_REACTORS
330
47
102
}
330
47
100
AcDbScale
 70
     0
300
4:1
140
4.0
141
1.0
290
     0
  0
SCALE
  5
56
102
{ACAD_REACTORS
330
47
102
}
330
47
100
AcDbScale
 70
     0
300
8:1
140
8.0
141
1.0
290
     0
  0
SCALE
  5
57
102
{ACAD_REACTORS
330
47
102
}
330
47
100
AcDbScale
 70
     0
300
10:1
140
10.0
141
1.0
290
     0
  0
SCALE
  5
58
102
{ACAD_REACTORS
330
47
102
}
330
47
100
AcDbScale
 70
     0
300
100:1
140
100.0
141
1.0
290
     0
  0
SCALE
  5
59
102
{ACAD_REACTORS
330
47
102
}
330
47
100
AcDbScale
 70
     0
300
1/128" = 1'-0"
140
0.007812
141
12.0
290
     0
  0
SCALE
  5
5A
102
{ACAD_REACTORS
330
47
102
}
330
47
100
AcDbScale
 70
     0
300
1/64" = 1'-0"
140
0.015625
141
12.0
290
     0
  0
SCALE
  5
5B
102
{ACAD_REACTORS
330
47
102
}
330
47
100
AcDbScale
 70
     0
300
1/32" = 1'-0"
140
0.03125
141
12.0
290
     0
  0
SCALE
  5
5C
102
{ACAD_REACTORS
330
47
102
}
330
47
100
AcDbScale
 70
     0
300
1/16" = 1'-0"
140
0.0625
141
12.0
290
     0
  0
SCALE
  5
5D
102
{ACAD_REACTORS
330
47
102
}
330
47
100
AcDbScale
 70
     0
300
3/32" = 1'-0"
140
0.09375
141
12.0
290
     0
  0
SCALE
  5
5E
102
{ACAD_REACTORS
330
47
102
}
330
47
100
AcDbScale
 70
     0
300
1/8" = 1'-0"
140
0.125
141
12.0
290
     0
  0
SCALE
  5
5F
102
{ACAD_REACTORS
330
47
102
}
330
47
100
AcDbScale
 70
     0
300
3/16" = 1'-0"
140
0.1875
141
12.0
290
     0
  0
SCALE
  5
60
102
{ACAD_REACTORS
330
47
102
}
330
47
100
AcDbScale
 70
     0
300
1/4" = 1'-0"
140
0.25
141
12.0
290
     0
  0
SCALE
  5
61
102
{ACAD_REACTORS
330
47
102
}
330
47
100
AcDbScale
 70
     0
300
3/8" = 1'-0"
140
0.375
141
12.0
290
     0
  0
SCALE
  5
62
102
{ACAD_REACTORS
330
47
102
}
330
47
100
AcDbScale
 70
     0
300
1/2" = 1'-0"
140
0.5
141
12.0
290
     0
  0
SCALE
  5
63
102
{ACAD_REACTORS
330
47
102
}
330
47
100
AcDbScale
 70
     0
300
3/4" = 1'-0"
140
0.75
141
12.0
290
     0
  0
SCALE
  5
64
102
{ACAD_REACTORS
330
47
102
}
330
47
100
AcDbScale
 70
     0
300
1" = 1'-0"
140
1.0
141
12.0
290
     0
  0
SCALE
  5
65
102
{ACAD_REACTORS
330
47
102
}
330
47
100
AcDbScale
 70
     0
300
1-1/2" = 1'-0"
140
1.5
141
12.0
290
     0
  0
SCALE
  5
66
102
{ACAD_REACTORS
330
47
102
}
330
47
100
AcDbScale
 70
     0
300
3" = 1'-0"
140
3.0
141
12.0
290
     0
  0
SCALE
  5
67
102
{ACAD_REACTORS
330
47
102
}
330
47
100
AcDbScale
 70
     0
300
6" = 1'-0"
140
6.0
141
12.0
290
     0
  0
SCALE
  5
68
102
{ACAD_REACTORS
330
47
102
}
330
47
100
AcDbScale
 70
     0
300
1'-0" = 1'-0"
140
12.0
141
12.0
290
     0
  0
ACDBSECTIONVIEWSTYLE
  5
12B
102
{ACAD_REACTORS
330
12A
102
}
330
12A
100
AcDbModelDocViewStyle
 70
     0
  3
Metric50
290
     0
300
Metric50
 90
        0
100
AcDbSectionViewStyle
 70
     0
 71
     0
 90
      102
 71
     1
340
11
 62
   256
 40
5.0
340
0
340
0
 62
   256
 40
5.0
300
I, O, Q, S, X, Z
 40
10.0
 90
        0
 40
2.5
 90
        0
 71
     2
340
16
 90
       25
 62
   256
340
16
 90
       50
 62
   256
 40
5.0
 40
2.5
 40
5.0
 71
     3
340
11
 62
   256
 40
5.0
 90
        0
 40
15.0
 90
        1
300
%<\AcVar ViewSectionStartId>%-%<\AcVar ViewSectionEndId>% (%<\AcVar ViewScale \f "%sn">%)
 71
     4
 62
   256
 62
   257
300
ANSI31
 40
1.0
 90
        0
290
     0
290
     0
 90
        6
 40
0.0
 40
1.570796326794896
 40
0.2617993877991494
 40
1.308996938995747
 40
-0.2617993877991494
 40
1.832595714594046
  0
TABLESTYLE
  5
127
102
{ACAD_XDICTIONARY
360
1D5
102
}
102
{ACAD_REACTORS
330
126
102
}
330
126
100
AcDbTableStyle
280
     0
  3
Standard
 70
     0
 71
     0
 40
1.5
 41
1.5
280
     0
281
     0
  7
Standard
140
4.5
170
     2
 62
     0
 63
     7
283
     0
 90
      512
 91
        0
  1

274
    -2
284
     1
 64
     0
275
    -2
285
     1
 65
     0
276
    -2
286
     1
 66
     0
277
    -2
287
     1
 67
     0
278
    -2
288
     1
 68
     0
279
    -2
289
     1
 69
     0
  7
Standard
140
6.0
170
     5
 62
     0
 63
     7
283
     0
 90
      512
 91
        0
  1

274
    -2
284
     1
 64
     0
275
    -2
285
     1
 65
     0
276
    -2
286
     1
 66
     0
277
    -2
287
     1
 67
     0
278
    -2
288
     1
 68
     0
279
    -2
289
     1
 69
     0
  7
Standard
140
4.5
170
     5
 62
     0
 63
     7
283
     0
 90
      512
 91
        0
  1

274
    -2
284
     1
 64
     0
275
    -2
285
     1
 65
     0
276
    -2
286
     1
 66
     0
277
    -2
287
     1
 67
     0
278
    -2
288
     1
 68
     0
279
    -2
289
     1
 69
     0
  0
VISUALSTYLE
  5
112
102
{ACAD_REACTORS
330
10C
102
}
330
10C
100
AcDbVisualStyle
  2
2dWireframe
 70
     4
177
     3
291
     0
 70
    58
 90
        0
176
     1
 90
        2
176
     1
 90
        0
176
     1
 90
        0
176
     1
 40
0.6
176
     1
 40
30.0
176
     1
 62
     7
420
 16777215
176
     1
 90
        1
176
     1
 90
        4
176
     1
 62
     7
176
     1
 62
   257
176
     1
 90
        1
176
     1
 90
        1
176
     1
 40
1.0
176
     1
 90
        0
176
     1
 62
   257
176
     1
 40
1.0
176
     1
 90
        1
176
     1
 90
        6
176
     1
 90
        2
176
     1
 62
     7
176
     1
 90
        5
176
     1
 90
        0
176
     1
 90
        0
176
     1
290
     0
176
     1
 90
        1
176
     1
 40
0.0
176
     1
 90
        0
176
     1
290
     1
176
     1
290
     1
176
     1
290
     0
176
     1
290
     0
176
     1
290
     0
176
     1
290
     0
176
     1
290
     0
176
     1
290
     0
176
     1
290
     0
176
     1
 90
       50
176
     1
 40
0.0
176
     1
 40
1.0
176
     1
 90
        0
176
     1
 62
    18
420
        0
176
     1
 90
       50
176
     1
 90
        3
176
     1
 62
     5
420
      255
176
     1
290
     0
176
     1
 90
       50
176
     1
 90
       50
176
     1
 90
       50
176
     1
290
     0
176
     1
 90
       50
176
     1
 62
   256
176
     0
 40
1.0
176
     0
 90
        2
176
     1
  1
strokes_ogs.tif
176
     1
290
     0
176
     1
 40
1.0
176
     1
 40
1.0
176
     1
  0
VISUALSTYLE
  5
111
102
{ACAD_REACTORS
330
10C
102
}
330
10C
100
AcDbVisualStyle
  2
Basic
 70
     7
177
     3
291
     1
 70
    58
 90
        1
176
     1
 90
        0
176
     1
 90
        1
176
     1
 90
        0
176
     1
 40
0.6
176
     1
 40
30.0
176
     1
 62
     7
420
 16777215
176
     1
 90
        0
176
     1
 90
        4
176
     1
 62
     7
176
     1
 62
   257
176
     1
 90
        1
176
     1
 90
        1
176
     1
 40
1.0
176
     1
 90
        8
176
     1
 62
     7
176
     1
 40
1.0
176
     1
 90
        1
176
     1
 90
        6
176
     1
 90
        2
176
     1
 62
     7
176
     1
 90
        5
176
     1
 90
        0
176
     1
 90
        0
176
     1
290
     0
176
     1
 90
        1
176
     1
 40
0.0
176
     1
 90
        0
176
     1
290
     0
176
     1
290
     1
176
     1
290
     1
176
     1
290
     0
176
     1
290
     0
176
     1
290
     0
176
     1
290
     0
176
     1
290
     0
176
     1
290
     0
176
     1
 90
       50
176
     1
 40
0.0
176
     1
 40
1.0
176
     1
 90
        0
176
     1
 62
    18
420
        0
176
     1
 90
       50
176
     1
 90
        3
176
     1
 62
     5
420
      255
176
     1
290
     0
176
     1
 90
       50
176
     1
 90
       50
176
     1
 90
       50
176
     1
290
     0
176
     1
 90
       50
176
     1
 62
   256
176
     0
 40
1.0
176
     0
 90
        2
176
     1
  1
strokes_ogs.tif
176
     1
290
     0
176
     1
 40
1.0
176
     1
 40
1.0
176
     1
  0
VISUALSTYLE
  5
118
102
{ACAD_REACTORS
330
10C
102
}
330
10C
100
AcDbVisualStyle
  2
Brighten
 70
    12
177
     3
291
     1
 70
    58
 90
        2
176
     1
 90
        2
176
     1
 90
        0
176
     1
 90
        0
176
     1
 40
0.6
176
     1
 40
30.0
176
     1
 62
     7
420
 16777215
176
     1
 90
        1
176
     1
 90
        4
176
     1
 62
     7
176
     1
 62
   257
176
     1
 90
        1
176
     1
 90
        1
176
     1
 40
1.0
176
     1
 90
        8
176
     1
 62
     7
176
     1
 40
1.0
176
     1
 90
        1
176
     1
 90
        6
176
     1
 90
        2
176
     1
 62
     7
176
     1
 90
        5
176
     1
 90
        0
176
     1
 90
        0
176
     1
290
     0
176
     1
 90
        1
176
     1
 40
50.0
176
     1
 90
        0
176
     1
290
     0
176
     1
290
     1
176
     1
290
     1
176
     1
290
     0
176
     1
290
     0
176
     1
290
     0
176
     1
290
     0
176
     1
290
     0
176
     1
290
     0
176
     1
 90
       50
176
     1
 40
0.0
176
     1
 40
1.0
176
     1
 90
        0
176
     1
 62
    18
420
        0
176
     1
 90
       50
176
     1
 90
        3
176
     1
 62
     5
420
      255
176
     1
290
     0
176
     1
 90
       50
176
     1
 90
       50
176
     1
 90
       50
176
     1
290
     0
176
     1
 90
       50
176
     1
 62
   256
176
     0
 40
1.0
176
     0
 90
        2
176
     1
  1
strokes_ogs.tif
176
     1
290
     0
176
     1
 40
1.0
176
     1
 40
1.0
176
     1
  0
VISUALSTYLE
  5
11C
102
{ACAD_REACTORS
330
10C
102
}
330
10C
100
AcDbVisualStyle
  2
ColorChange
 70
    16
177
     3
291
     1
 70
    58
 90
        2
176
     1
 90
        2
176
     1
 90
        3
176
     1
 90
        0
176
     1
 40
0.6
176
     1
 40
30.0
176
     1
 62
     8
420
  8421504
176
     1
 90
        1
176
     1
 90
        4
176
     1
 62
     7
176
     1
 62
   257
176
     1
 90
        1
176
     1
 90
        1
176
     1
 40
1.0
176
     1
 90
        8
176
     1
 62
     8
420
  8421504
176
     1
 40
1.0
176
     1
 90
        1
176
     1
 90
        6
176
     1
 90
        2
176
     1
 62
     7
176
     1
 90
        5
176
     1
 90
        0
176
     1
 90
        0
176
     1
290
     0
176
     1
 90
        1
176
     1
 40
0.0
176
     1
 90
        0
176
     1
290
     0
176
     1
290
     1
176
     1
290
     1
176
     1
290
     0
176
     1
290
     0
176
     1
290
     0
176
     1
290
     0
176
     1
290
     0
176
     1
290
     0
176
     1
 90
       50
176
     1
 40
0.0
176
     1
 40
1.0
176
     1
 90
        0
176
     1
 62
    18
420
        0
176
     1
 90
       50
176
     1
 90
        3
176
     1
 62
     5
420
      255
176
     1
290
     0
176
     1
 90
       50
176
     1
 90
       50
176
     1
 90
       50
176
     1
290
     0
176
     1
 90
       50
176
     1
 62
   256
176
     0
 40
1.0
176
     0
 90
        2
176
     1
  1
strokes_ogs.tif
176
     1
290
     0
176
     1
 40
1.0
176
     1
 40
1.0
176
     1
  0
VISUALSTYLE
  5
115
102
{ACAD_REACTORS
330
10C
102
}
330
10C
100
AcDbVisualStyle
  2
Conceptual
 70
     9
177
     3
291
     0
 70
    58
 90
        3
176
     1
 90
        2
176
     1
 90
        0
176
     1
 90
        0
176
     1
 40
0.6
176
     1
 40
30.0
176
     1
 62
     7
420
 16777215
176
     1
 90
        2
176
     1
 90
        2
176
     1
 62
     7
176
     1
 62
   257
176
     1
 90
        1
176
     1
 90
        1
176
     1
 40
179.0
176
     1
 90
        8
176
     1
 62
     7
176
     1
 40
1.0
176
     1
 90
        1
176
     1
 90
        6
176
     1
 90
        2
176
     1
 62
     7
176
     1
 90
        3
176
     1
 90
        0
176
     1
 90
        0
176
     1
290
     0
176
     1
 90
        1
176
     1
 40
0.0
176
     1
 90
        0
176
     1
290
     0
176
     1
290
     1
176
     1
290
     1
176
     1
290
     0
176
     1
290
     0
176
     1
290
     0
176
     1
290
     0
176
     1
290
     0
176
     1
290
     0
176
     1
 90
       50
176
     1
 40
0.0
176
     1
 40
1.0
176
     1
 90
        0
176
     1
 62
    18
420
        0
176
     1
 90
       50
176
     1
 90
        3
176
     1
 62
     5
420
      255
176
     1
290
     0
176
     1
 90
       50
176
     1
 90
       50
176
     1
 90
       50
176
     1
290
     0
176
     1
 90
       50
176
     1
 62
   256
176
     0
 40
1.0
176
     0
 90
        2
176
     1
  1
strokes_ogs.tif
176
     1
290
     0
176
     1
 40
1.0
176
     1
 40
1.0
176
     1
  0
VISUALSTYLE
  5
117
102
{ACAD_REACTORS
330
10C
102
}
330
10C
100
AcDbVisualStyle
  2
Dim
 70
    11
177
     3
291
     1
 70
    58
 90
        2
176
     1
 90
        2
176
     1
 90
        0
176
     1
 90
        0
176
     1
 40
0.6
176
     1
 40
30.0
176
     1
 62
     7
420
 16777215
176
     1
 90
        1
176
     1
 90
        4
176
     1
 62
     7
176
     1
 62
   257
176
     1
 90
        1
176
     1
 90
        1
176
     1
 40
1.0
176
     1
 90
        8
176
     1
 62
     7
176
     1
 40
1.0
176
     1
 90
        1
176
     1
 90
        6
176
     1
 90
        2
176
     1
 62
     7
176
     1
 90
        5
176
     1
 90
        0
176
     1
 90
        0
176
     1
290
     0
176
     1
 90
        1
176
     1
 40
-50.0
176
     1
 90
        0
176
     1
290
     0
176
     1
290
     1
176
     1
290
     1
176
     1
290
     0
176
     1
290
     0
176
     1
290
     0
176
     1
290
     0
176
     1
290
     0
176
     1
290
     0
176
     1
 90
       50
176
     1
 40
0.0
176
     1
 40
1.0
176
     1
 90
        0
176
     1
 62
    18
420
        0
176
     1
 90
       50
176
     1
 90
        3
176
     1
 62
     5
420
      255
176
     1
290
     0
176
     1
 90
       50
176
     1
 90
       50
176
     1
 90
       50
176
     1
290
     0
176
     1
 90
       50
176
     1
 62
   256
176
     0
 40
1.0
176
     0
 90
        2
176
     1
  1
strokes_ogs.tif
176
     1
290
     0
176
     1
 40
1.0
176
     1
 40
1.0
176
     1
  0
VISUALSTYLE
  5
124
102
{ACAD_REACTORS
330
10C
102
}
330
10C
100
AcDbVisualStyle
  2
EdgeColorOff
 70
    22
177
     3
291
     1
 70
    58
 90
        2
176
     0
 90
        2
176
     0
 90
        0
176
     0
 90
        0
176
     0
 40
0.6
176
     0
 40
30.0
176
     0
 62
     7
420
 16777215
176
     0
 90
        1
176
     0
 90
        4
176
     0
 62
     7
176
     0
 62
   257
176
     0
 90
        1
176
     0
 90
        1
176
     0
 40
1.0
176
     0
 90
        8
176
     2
 62
     7
176
     0
 40
1.0
176
     0
 90
        1
176
     0
 90
        6
176
     0
 90
        2
176
     0
 62
     7
176
     0
 90
        5
176
     0
 90
        0
176
     0
 90
        0
176
     0
290
     0
176
     0
 90
        1
176
     0
 40
0.0
176
     0
 90
        0
176
     0
290
     0
176
     1
290
     1
176
     1
290
     1
176
     1
290
     0
176
     1
290
     0
176
     1
290
     0
176
     1
290
     0
176
     1
290
     0
176
     1
290
     0
176
     1
 90
       50
176
     0
 40
0.0
176
     0
 40
1.0
176
     0
 90
        0
176
     0
 62
    18
420
        0
176
     0
 90
       50
176
     0
 90
        3
176
     0
 62
     5
420
      255
176
     0
290
     0
176
     1
 90
       50
176
     0
 90
       50
176
     0
 90
       50
176
     0
290
     0
176
     1
 90
       50
176
     0
 62
   256
176
     0
 40
1.0
176
     0
 90
        2
176
     0
  1
strokes_ogs.tif
176
     0
290
     0
176
     1
 40
1.0
176
     0
 40
1.0
176
     0
  0
VISUALSTYLE
  5
11B
102
{ACAD_REACTORS
330
10C
102
}
330
10C
100
AcDbVisualStyle
  2
Facepattern
 70
    15
177
     3
291
     1
 70
    58
 90
        2
176
     1
 90
        2
176
     1
 90
        0
176
     1
 90
        0
176
     1
 40
0.6
176
     1
 40
30.0
176
     1
 62
     7
420
 16777215
176
     1
 90
        1
176
     1
 90
        4
176
     1
 62
     7
176
     1
 62
   257
176
     1
 90
        1
176
     1
 90
        1
176
     1
 40
1.0
176
     1
 90
        8
176
     1
 62
     7
176
     1
 40
1.0
176
     1
 90
        1
176
     1
 90
        6
176
     1
 90
        2
176
     1
 62
     7
176
     1
 90
        5
176
     1
 90
        0
176
     1
 90
        0
176
     1
290
     0
176
     1
 90
        1
176
     1
 40
0.0
176
     1
 90
        0
176
     1
290
     0
176
     1
290
     1
176
     1
290
     1
176
     1
290
     0
176
     1
290
     0
176
     1
290
     0
176
     1
290
     0
176
     1
290
     0
176
     1
290
     0
176
     1
 90
       50
176
     1
 40
0.0
176
     1
 40
1.0
176
     1
 90
        0
176
     1
 62
    18
420
        0
176
     1
 90
       50
176
     1
 90
        3
176
     1
 62
     5
420
      255
176
     1
290
     0
176
     1
 90
       50
176
     1
 90
       50
176
     1
 90
       50
176
     1
290
     0
176
     1
 90
       50
176
     1
 62
   256
176
     0
 40
1.0
176
     0
 90
        2
176
     1
  1
strokes_ogs.tif
176
     1
290
     0
176
     1
 40
1.0
176
     1
 40
1.0
176
     1
  0
VISUALSTYLE
  5
10D
102
{ACAD_REACTORS
330
10C
102
}
330
10C
100
AcDbVisualStyle
  2
Flat
 70
     0
177
     3
291
     1
 70
    58
 90
        2
176
     1
 90
        1
176
     1
 90
        1
176
     1
 90
        2
176
     1
 40
0.6
176
     1
 40
30.0
176
     1
 62
     7
420
 16777215
176
     1
 90
        0
176
     1
 90
        0
176
     1
 62
     7
176
     1
 62
   257
176
     1
 90
        1
176
     1
 90
        1
176
     1
 40
1.0
176
     1
 90
        8
176
     1
 62
     7
176
     1
 40
1.0
176
     1
 90
        1
176
     1
 90
        6
176
     1
 90
        2
176
     1
 62
     7
176
     1
 90
        5
176
     1
 90
        0
176
     1
 90
        0
176
     1
290
     0
176
     1
 90
       13
176
     1
 40
0.0
176
     1
 90
        0
176
     1
290
     0
176
     1
290
     1
176
     1
290
     1
176
     1
290
     0
176
     1
290
     0
176
     1
290
     0
176
     1
290
     0
176
     1
290
     0
176
     1
290
     0
176
     1
 90
       50
176
     1
 40
0.0
176
     1
 40
1.0
176
     1
 90
        0
176
     1
 62
    18
420
        0
176
     1
 90
       50
176
     1
 90
        3
176
     1
 62
     5
420
      255
176
     1
290
     0
176
     1
 90
       50
176
     1
 90
       50
176
     1
 90
       50
176
     1
290
     0
176
     1
 90
       50
176
     1
 62
   256
176
     0
 40
1.0
176
     0
 90
        2
176
     1
  1
strokes_ogs.tif
176
     1
290
     0
176
     1
 40
1.0
176
     1
 40
1.0
176
     1
  0
VISUALSTYLE
  5
10E
102
{ACAD_REACTORS
330
10C
102
}
330
10C
100
AcDbVisualStyle
  2
FlatWithEdges
 70
     1
177
     3
291
     1
 70
    58
 90
        2
176
     1
 90
        1
176
     1
 90
        1
176
     1
 90
        2
176
     1
 40
0.6
176
     1
 40
30.0
176
     1
 62
     7
420
 16777215
176
     1
 90
        1
176
     1
 90
        0
176
     1
 62
     7
176
     1
 62
   257
176
     1
 90
        1
176
     1
 90
        1
176
     1
 40
1.0
176
     1
 90
        0
176
     1
 62
   257
176
     1
 40
1.0
176
     1
 90
        1
176
     1
 90
        6
176
     1
 90
        2
176
     1
 62
     7
176
     1
 90
        5
176
     1
 90
        0
176
     1
 90
        0
176
     1
290
     0
176
     1
 90
       13
176
     1
 40
0.0
176
     1
 90
        0
176
     1
290
     0
176
     1
290
     1
176
     1
290
     1
176
     1
290
     0
176
     1
290
     0
176
     1
290
     0
176
     1
290
     0
176
     1
290
     0
176
     1
290
     0
176
     1
 90
       50
176
     1
 40
0.0
176
     1
 40
1.0
176
     1
 90
        0
176
     1
 62
    18
420
        0
176
     1
 90
       50
176
     1
 90
        3
176
     1
 62
     5
420
      255
176
     1
290
     0
176
     1
 90
       50
176
     1
 90
       50
176
     1
 90
       50
176
     1
290
     0
176
     1
 90
       50
176
     1
 62
   256
176
     0
 40
1.0
176
     0
 90
        2
176
     1
  1
strokes_ogs.tif
176
     1
290
     0
176
     1
 40
1.0
176
     1
 40
1.0
176
     1
  0
VISUALSTYLE
  5
10F
102
{ACAD_REACTORS
330
10C
102
}
330
10C
100
AcDbVisualStyle
  2
Gouraud
 70
     2
177
     3
291
     1
 70
    58
 90
        2
176
     1
 90
        2
176
     1
 90
        1
176
     1
 90
        2
176
     1
 40
0.6
176
     1
 40
30.0
176
     1
 62
     7
420
 16777215
176
     1
 90
        0
176
     1
 90
        0
176
     1
 62
     7
176
     1
 62
   257
176
     1
 90
        1
176
     1
 90
        1
176
     1
 40
1.0
176
     1
 90
        0
176
     1
 62
     7
176
     1
 40
1.0
176
     1
 90
        1
176
     1
 90
        6
176
     1
 90
        2
176
     1
 62
     7
176
     1
 90
        5
176
     1
 90
        0
176
     1
 90
        0
176
     1
290
     0
176
     1
 90
       13
176
     1
 40
0.0
176
     1
 90
        0
176
     1
290
     0
176
     1
290
     1
176
     1
290
     1
176
     1
290
     0
176
     1
290
     0
176
     1
290
     0
176
     1
290
     0
176
     1
290
     0
176
     1
290
     0
176
     1
 90
       50
176
     1
 40
0.0
176
     1
 40
1.0
176
     1
 90
        0
176
     1
 62
    18
420
        0
176
     1
 90
       50
176
     1
 90
        3
176
     1
 62
     5
420
      255
176
     1
290
     0
176
     1
 90
       50
176
     1
 90
       50
176
     1
 90
       50
176
     1
290
     0
176
     1
 90
       50
176
     1
 62
   256
176
     0
 40
1.0
176
     0
 90
        2
176
     1
  1
strokes_ogs.tif
176
     1
290
     0
176
     1
 40
1.0
176
     1
 40
1.0
176
     1
  0
VISUALSTYLE
  5
110
102
{ACAD_REACTORS
330
10C
102
}
330
10C
100
AcDbVisualStyle
  2
GouraudWithEdges
 70
     3
177
     3
291
     1
 70
    58
 90
        2
176
     1
 90
        2
176
     1
 90
        1
176
     1
 90
        2
176
     1
 40
0.6
176
     1
 40
30.0
176
     1
 62
     7
420
 16777215
176
     1
 90
        1
176
     1
 90
        0
176
     1
 62
     7
176
     1
 62
   257
176
     1
 90
        1
176
     1
 90
        1
176
     1
 40
1.0
176
     1
 90
        0
176
     1
 62
   257
176
     1
 40
1.0
176
     1
 90
        1
176
     1
 90
        6
176
     1
 90
        2
176
     1
 62
     7
176
     1
 90
        5
176
     1
 90
        0
176
     1
 90
        0
176
     1
290
     0
176
     1
 90
       13
176
     1
 40
0.0
176
     1
 90
        0
176
     1
290
     0
176
     1
290
     1
176
     1
290
     1
176
     1
290
     0
176
     1
290
     0
176
     1
290
     0
176
     1
290
     0
176
     1
290
     0
176
     1
290
     0
176
     1
 90
       50
176
     1
 40
0.0
176
     1
 40
1.0
176
     1
 90
        0
176
     1
 62
    18
420
        0
176
     1
 90
       50
176
     1
 90
        3
176
     1
 62
     5
420
      255
176
     1
290
     0
176
     1
 90
       50
176
     1
 90
       50
176
     1
 90
       50
176
     1
290
     0
176
     1
 90
       50
176
     1
 62
   256
176
     0
 40
1.0
176
     0
 90
        2
176
     1
  1
strokes_ogs.tif
176
     1
290
     0
176
     1
 40
1.0
176
     1
 40
1.0
176
     1
  0
VISUALSTYLE
  5
114
102
{ACAD_REACTORS
330
10C
102
}
330
10C
100
AcDbVisualStyle
  2
Hidden
 70
     6
177
     3
291
     0
 70
    58
 90
        1
176
     1
 90
        2
176
     1
 90
        2
176
     1
 90
        0
176
     1
 40
0.6
176
     1
 40
30.0
176
     1
 62
     7
420
 16777215
176
     1
 90
        2
176
     1
 90
        2
176
     1
 62
     7
176
     1
 62
   257
176
     1
 90
        2
176
     1
 90
        1
176
     1
 40
40.0
176
     1
 90
        0
176
     1
 62
   257
176
     1
 40
1.0
176
     1
 90
        1
176
     1
 90
        6
176
     1
 90
        2
176
     1
 62
     7
176
     1
 90
        3
176
     1
 90
        0
176
     1
 90
        0
176
     1
290
     0
176
     1
 90
        1
176
     1
 40
0.0
176
     1
 90
        0
176
     1
290
     0
176
     1
290
     1
176
     1
290
     1
176
     1
290
     0
176
     1
290
     0
176
     1
290
     0
176
     1
290
     0
176
     1
290
     0
176
     1
290
     0
176
     1
 90
       50
176
     1
 40
0.0
176
     1
 40
1.0
176
     1
 90
        0
176
     1
 62
    18
420
        0
176
     1
 90
       50
176
     1
 90
        3
176
     1
 62
     5
420
      255
176
     1
290
     0
176
     1
 90
       50
176
     1
 90
       50
176
     1
 90
       50
176
     1
290
     0
176
     1
 90
       50
176
     1
 62
   256
176
     0
 40
1.0
176
     0
 90
        2
176
     1
  1
strokes_ogs.tif
176
     1
290
     0
176
     1
 40
1.0
176
     1
 40
1.0
176
     1
  0
VISUALSTYLE
  5
122
102
{ACAD_REACTORS
330
10C
102
}
330
10C
100
AcDbVisualStyle
  2
JitterOff
 70
    20
177
     3
291
     1
 70
    58
 90
        2
176
     0
 90
        2
176
     0
 90
        0
176
     0
 90
        0
176
     0
 40
0.6
176
     0
 40
30.0
176
     0
 62
     7
420
 16777215
176
     0
 90
        1
176
     0
 90
        4
176
     0
 62
     7
176
     0
 62
   257
176
     0
 90
        1
176
     0
 90
        1
176
     0
 40
1.0
176
     0
 90
       10
176
     2
 62
     7
176
     0
 40
1.0
176
     0
 90
        1
176
     0
 90
        6
176
     0
 90
        2
176
     0
 62
     7
176
     0
 90
        5
176
     0
 90
        0
176
     0
 90
        0
176
     0
290
     0
176
     0
 90
        1
176
     0
 40
0.0
176
     0
 90
        0
176
     0
290
     0
176
     1
290
     1
176
     1
290
     1
176
     1
290
     0
176
     1
290
     0
176
     1
290
     0
176
     1
290
     0
176
     1
290
     0
176
     1
290
     0
176
     1
 90
       50
176
     0
 40
0.0
176
     0
 40
1.0
176
     0
 90
        0
176
     0
 62
    18
420
        0
176
     0
 90
       50
176
     0
 90
        3
176
     0
 62
     5
420
      255
176
     0
290
     0
176
     1
 90
       50
176
     0
 90
       50
176
     0
 90
       50
176
     0
290
     0
176
     1
 90
       50
176
     0
 62
   256
176
     0
 40
1.0
176
     0
 90
        2
176
     0
  1
strokes_ogs.tif
176
     0
290
     0
176
     1
 40
1.0
176
     0
 40
1.0
176
     0
  0
VISUALSTYLE
  5
11A
102
{ACAD_REACTORS
330
10C
102
}
330
10C
100
AcDbVisualStyle
  2
Linepattern
 70
    14
177
     3
291
     1
 70
    58
 90
        2
176
     1
 90
        2
176
     1
 90
        0
176
     1
 90
        0
176
     1
 40
0.6
176
     1
 40
30.0
176
     1
 62
     7
420
 16777215
176
     1
 90
        1
176
     1
 90
        4
176
     1
 62
     7
176
     1
 62
   257
176
     1
 90
        7
176
     1
 90
        7
176
     1
 40
1.0
176
     1
 90
        8
176
     1
 62
     7
176
     1
 40
1.0
176
     1
 90
        1
176
     1
 90
        6
176
     1
 90
        2
176
     1
 62
     7
176
     1
 90
        5
176
     1
 90
        0
176
     1
 90
        0
176
     1
290
     0
176
     1
 90
        1
176
     1
 40
0.0
176
     1
 90
        0
176
     1
290
     0
176
     1
290
     1
176
     1
290
     1
176
     1
290
     0
176
     1
290
     0
176
     1
290
     0
176
     1
290
     0
176
     1
290
     0
176
     1
290
     0
176
     1
 90
       50
176
     1
 40
0.0
176
     1
 40
1.0
176
     1
 90
        0
176
     1
 62
    18
420
        0
176
     1
 90
       50
176
     1
 90
        3
176
     1
 62
     5
420
      255
176
     1
290
     0
176
     1
 90
       50
176
     1
 90
       50
176
     1
 90
       50
176
     1
290
     0
176
     1
 90
       50
176
     1
 62
   256
176
     0
 40
1.0
176
     0
 90
        2
176
     1
  1
strokes_ogs.tif
176
     1
290
     0
176
     1
 40
1.0
176
     1
 40
1.0
176
     1
  0
VISUALSTYLE
  5
123
102
{ACAD_REACTORS
330
10C
102
}
330
10C
100
AcDbVisualStyle
  2
OverhangOff
 70
    21
177
     3
291
     1
 70
    58
 90
        2
176
     0
 90
        2
176
     0
 90
        0
176
     0
 90
        0
176
     0
 40
0.6
176
     0
 40
30.0
176
     0
 62
     7
420
 16777215
176
     0
 90
        1
176
     0
 90
        4
176
     0
 62
     7
176
     0
 62
   257
176
     0
 90
        1
176
     0
 90
        1
176
     0
 40
1.0
176
     0
 90
        9
176
     2
 62
     7
176
     0
 40
1.0
176
     0
 90
        1
176
     0
 90
        6
176
     0
 90
        2
176
     0
 62
     7
176
     0
 90
        5
176
     0
 90
        0
176
     0
 90
        0
176
     0
290
     0
176
     0
 90
        1
176
     0
 40
0.0
176
     0
 90
        0
176
     0
290
     0
176
     1
290
     1
176
     1
290
     1
176
     1
290
     0
176
     1
290
     0
176
     1
290
     0
176
     1
290
     0
176
     1
290
     0
176
     1
290
     0
176
     1
 90
       50
176
     0
 40
0.0
176
     0
 40
1.0
176
     0
 90
        0
176
     0
 62
    18
420
        0
176
     0
 90
       50
176
     0
 90
        3
176
     0
 62
     5
420
      255
176
     0
290
     0
176
     1
 90
       50
176
     0
 90
       50
176
     0
 90
       50
176
     0
290
     0
176
     1
 90
       50
176
     0
 62
   256
176
     0
 40
1.0
176
     0
 90
        2
176
     0
  1
strokes_ogs.tif
176
     0
290
     0
176
     1
 40
1.0
176
     0
 40
1.0
176
     0
  0
VISUALSTYLE
  5
116
102
{ACAD_REACTORS
330
10C
102
}
330
10C
100
AcDbVisualStyle
  2
Realistic
 70
     8
177
     3
291
     0
 70
    58
 90
        2
176
     1
 90
        3
176
     1
 90
        0
176
     1
 90
        2
176
     1
 40
0.6
176
     1
 40
30.0
176
     1
 62
     7
420
 16777215
176
     1
 90
        0
176
     1
 90
        0
176
     1
 62
     7
176
     1
 62
   257
176
     1
 90
        1
176
     1
 90
        1
176
     1
 40
1.0
176
     1
 90
        8
176
     1
 62
   257
176
     1
 40
1.0
176
     1
 90
        1
176
     1
 90
        6
176
     1
 90
        2
176
     1
 62
     7
176
     1
 90
        3
176
     1
 90
        0
176
     1
 90
        0
176
     1
290
     0
176
     1
 90
       13
176
     1
 40
0.0
176
     1
 90
        0
176
     1
290
     0
176
     1
290
     1
176
     1
290
     1
176
     1
290
     0
176
     1
290
     0
176
     1
290
     0
176
     1
290
     0
176
     1
290
     0
176
     1
290
     0
176
     1
 90
       50
176
     1
 40
0.0
176
     1
 40
1.0
176
     1
 90
        0
176
     1
 62
    18
420
        0
176
     1
 90
       50
176
     1
 90
        3
176
     1
 62
     5
420
      255
176
     1
290
     0
176
     1
 90
       50
176
     1
 90
       50
176
     1
 90
       50
176
     1
290
     0
176
     1
 90
       50
176
     1
 62
   256
176
     0
 40
1.0
176
     0
 90
        2
176
     1
  1
strokes_ogs.tif
176
     1
290
     0
176
     1
 40
1.0
176
     1
 40
1.0
176
     1
  0
VISUALSTYLE
  5
121
102
{ACAD_REACTORS
330
10C
102
}
330
10C
100
AcDbVisualStyle
  2
Shaded
 70
    27
177
     3
291
     0
 70
    58
 90
        2
176
     1
 90
        2
176
     1
 90
        1
176
     1
 90
        2
176
     1
 40
0.6
176
     1
 40
30.0
176
     1
 62
     7
420
 16777215
176
     1
 90
        0
176
     1
 90
        4
176
     1
 62
     7
176
     1
 62
   257
176
     1
 90
        1
176
     1
 90
        1
176
     1
 40
1.0
176
     1
 90
        8
176
     1
 62
   257
176
     1
 40
1.0
176
     1
 90
        1
176
     1
 90
        6
176
     1
 90
        2
176
     1
 62
     8
420
  7895160
176
     1
 90
        3
176
     1
 90
        0
176
     1
 90
        0
176
     1
290
     0
176
     1
 90
        5
176
     1
 40
0.0
176
     1
 90
        0
176
     1
290
     0
176
     1
290
     1
176
     1
290
     1
176
     1
290
     0
176
     1
290
     0
176
     1
290
     0
176
     1
290
     0
176
     1
290
     0
176
     1
290
     0
176
     1
 90
       50
176
     1
 40
0.0
176
     1
 40
1.0
176
     1
 90
        0
176
     1
 62
    18
420
        0
176
     1
 90
       50
176
     1
 90
        3
176
     1
 62
     5
420
      255
176
     1
290
     0
176
     1
 90
       50
176
     1
 90
       50
176
     1
 90
       50
176
     1
290
     0
176
     1
 90
       50
176
     1
 62
   256
176
     0
 40
1.0
176
     0
 90
        2
176
     1
  1
strokes_ogs.tif
176
     1
290
     0
176
     1
 40
1.0
176
     1
 40
1.0
176
     1
  0
VISUALSTYLE
  5
120
102
{ACAD_REACTORS
330
10C
102
}
330
10C
100
AcDbVisualStyle
  2
Shaded with edges
 70
    26
177
     3
291
     0
 70
    58
 90
        2
176
     1
 90
        2
176
     1
 90
        1
176
     1
 90
        2
176
     1
 40
0.6
176
     1
 40
30.0
176
     1
 62
     7
420
 16777215
176
     1
 90
        1
176
     1
 90
        2
176
     1
 62
     7
176
     1
 62
   257
176
     1
 90
        2
176
     1
 90
        1
176
     1
 40
1.0
176
     1
 90
        8
176
     1
 62
   257
176
     1
 40
1.0
176
     1
 90
        1
176
     1
 90
        6
176
     1
 90
        2
176
     1
 62
     7
176
     1
 90
        3
176
     1
 90
        0
176
     1
 90
        0
176
     1
290
     0
176
     1
 90
        5
176
     1
 40
0.0
176
     1
 90
        0
176
     1
290
     0
176
     1
290
     1
176
     1
290
     1
176
     1
290
     0
176
     1
290
     0
176
     1
290
     0
176
     1
290
     0
176
     1
290
     0
176
     1
290
     0
176
     1
 90
       50
176
     1
 40
0.0
176
     1
 40
1.0
176
     1
 90
        0
176
     1
 62
    18
420
        0
176
     1
 90
       50
176
     1
 90
        3
176
     1
 62
     5
420
      255
176
     1
290
     0
176
     1
 90
       50
176
     1
 90
       50
176
     1
 90
       50
176
     1
290
     0
176
     1
 90
       50
176
     1
 62
   256
176
     0
 40
1.0
176
     0
 90
        2
176
     1
  1
strokes_ogs.tif
176
     1
290
     0
176
     1
 40
1.0
176
     1
 40
1.0
176
     1
  0
VISUALSTYLE
  5
11D
102
{ACAD_REACTORS
330
10C
102
}
330
10C
100
AcDbVisualStyle
  2
Shades of Gray
 70
    23
177
     3
291
     0
 70
    58
 90
        2
176
     1
 90
        2
176
     1
 90
        3
176
     1
 90
        0
176
     1
 40
0.6
176
     1
 40
30.0
176
     1
 62
     7
420
 16777215
176
     1
 90
        2
176
     1
 90
        2
176
     1
 62
     7
176
     1
 62
     7
176
     1
 90
        1
176
     1
 90
        1
176
     1
 40
40.0
176
     1
 90
        8
176
     1
 62
     7
176
     1
 40
1.0
176
     1
 90
        1
176
     1
 90
        6
176
     1
 90
        2
176
     1
 62
     7
176
     1
 90
        3
176
     1
 90
        0
176
     1
 90
        0
176
     1
290
     0
176
     1
 90
        1
176
     1
 40
0.0
176
     1
 90
        0
176
     1
290
     0
176
     1
290
     1
176
     1
290
     1
176
     1
290
     0
176
     1
290
     0
176
     1
290
     0
176
     1
290
     0
176
     1
290
     0
176
     1
290
     0
176
     1
 90
       50
176
     1
 40
0.0
176
     1
 40
1.0
176
     1
 90
        0
176
     1
 62
    18
420
        0
176
     1
 90
       50
176
     1
 90
        3
176
     1
 62
     5
420
      255
176
     1
290
     0
176
     1
 90
       50
176
     1
 90
       50
176
     1
 90
       50
176
     1
290
     0
176
     1
 90
       50
176
     1
 62
   256
176
     0
 40
1.0
176
     0
 90
        2
176
     1
  1
strokes_ogs.tif
176
     1
290
     0
176
     1
 40
1.0
176
     1
 40
1.0
176
     1
  0
VISUALSTYLE
  5
11E
102
{ACAD_REACTORS
330
10C
102
}
330
10C
100
AcDbVisualStyle
  2
Sketchy
 70
    24
177
     3
291
     0
 70
    58
 90
        1
176
     1
 90
        2
176
     1
 90
        2
176
     1
 90
        0
176
     1
 40
0.6
176
     1
 40
30.0
176
     1
 62
     7
420
 16777215
176
     1
 90
        2
176
     1
 90
        2
176
     1
 62
     7
176
     1
 62
     7
176
     1
 90
        1
176
     1
 90
        1
176
     1
 40
40.0
176
     1
 90
       11
176
     1
 62
     7
176
     1
 40
1.0
176
     1
 90
        1
176
     1
 90
        6
176
     1
 90
        2
176
     1
 62
     7
176
     1
 90
        6
176
     1
 90
        0
176
     1
 90
        0
176
     1
290
     0
176
     1
 90
        1
176
     1
 40
0.0
176
     1
 90
        0
176
     1
290
     0
176
     1
290
     1
176
     1
290
     1
176
     1
290
     0
176
     1
290
     0
176
     1
290
     0
176
     1
290
     0
176
     1
290
     0
176
     1
290
     0
176
     1
 90
       50
176
     1
 40
0.0
176
     1
 40
1.0
176
     1
 90
        0
176
     1
 62
    18
420
        0
176
     1
 90
       50
176
     1
 90
        3
176
     1
 62
     5
420
      255
176
     1
290
     0
176
     1
 90
       50
176
     1
 90
       50
176
     1
 90
       50
176
     1
290
     0
176
     1
 90
       50
176
     1
 62
   256
176
     0
 40
1.0
176
     0
 90
        2
176
     1
  1
strokes_ogs.tif
176
     1
290
     0
176
     1
 40
1.0
176
     1
 40
1.0
176
     1
  0
VISUALSTYLE
  5
119
102
{ACAD_REACTORS
330
10C
102
}
330
10C
100
AcDbVisualStyle
  2
Thicken
 70
    13
177
     3
291
     1
 70
    58
 90
        2
176
     1
 90
        2
176
     1
 90
        0
176
     1
 90
        0
176
     1
 40
0.6
176
     1
 40
30.0
176
     1
 62
     7
420
 16777215
176
     1
 90
        1
176
     1
 90
        4
176
     1
 62
     7
176
     1
 62
   257
176
     1
 90
        1
176
     1
 90
        1
176
     1
 40
1.0
176
     1
 90
       12
176
     1
 62
     7
176
     1
 40
1.0
176
     1
 90
        1
176
     1
 90
        6
176
     1
 90
        2
176
     1
 62
     7
176
     1
 90
        5
176
     1
 90
        0
176
     1
 90
        0
176
     1
290
     0
176
     1
 90
        1
176
     1
 40
0.0
176
     1
 90
        0
176
     1
290
     0
176
     1
290
     1
176
     1
290
     1
176
     1
290
     0
176
     1
290
     0
176
     1
290
     0
176
     1
290
     0
176
     1
290
     0
176
     1
290
     0
176
     1
 90
       50
176
     1
 40
0.0
176
     1
 40
1.0
176
     1
 90
        0
176
     1
 62
    18
420
        0
176
     1
 90
       50
176
     1
 90
        3
176
     1
 62
     5
420
      255
176
     1
290
     0
176
     1
 90
       50
176
     1
 90
       50
176
     1
 90
       50
176
     1
290
     0
176
     1
 90
       50
176
     1
 62
   256
176
     0
 40
1.0
176
     0
 90
        2
176
     1
  1
strokes_ogs.tif
176
     1
290
     0
176
     1
 40
1.0
176
     1
 40
1.0
176
     1
  0
VISUALSTYLE
  5
113
102
{ACAD_REACTORS
330
10C
102
}
330
10C
100
AcDbVisualStyle
  2
Wireframe
 70
     5
177
     3
291
     0
 70
    58
 90
        0
176
     1
 90
        2
176
     1
 90
        0
176
     1
 90
        0
176
     1
 40
0.6
176
     1
 40
30.0
176
     1
 62
     7
420
 16777215
176
     1
 90
        1
176
     1
 90
        4
176
     1
 62
     7
176
     1
 62
   257
176
     1
 90
        1
176
     1
 90
        1
176
     1
 40
1.0
176
     1
 90
        0
176
     1
 62
   257
176
     1
 40
1.0
176
     1
 90
        1
176
     1
 90
        6
176
     1
 90
        2
176
     1
 62
     7
176
     1
 90
        3
176
     1
 90
        0
176
     1
 90
        0
176
     1
290
     0
176
     1
 90
        1
176
     1
 40
0.0
176
     1
 90
        0
176
     1
290
     0
176
     1
290
     1
176
     1
290
     1
176
     1
290
     0
176
     1
290
     0
176
     1
290
     0
176
     1
290
     0
176
     1
290
     0
176
     1
290
     0
176
     1
 90
       50
176
     1
 40
0.0
176
     1
 40
1.0
176
     1
 90
        0
176
     1
 62
    18
420
        0
176
     1
 90
       50
176
     1
 90
        3
176
     1
 62
     5
420
      255
176
     1
290
     0
176
     1
 90
       50
176
     1
 90
       50
176
     1
 90
       50
176
     1
290
     0
176
     1
 90
       50
176
     1
 62
   256
176
     0
 40
1.0
176
     0
 90
        2
176
     1
  1
strokes_ogs.tif
176
     1
290
     0
176
     1
 40
1.0
176
     1
 40
1.0
176
     1
  0
VISUALSTYLE
  5
11F
102
{ACAD_REACTORS
330
10C
102
}
330
10C
100
AcDbVisualStyle
  2
X-Ray
 70
    25
177
     3
291
     0
 70
    58
 90
        2
176
     1
 90
        2
176
     1
 90
        1
176
     1
 90
        1
176
     1
 40
0.5
176
     1
 40
30.0
176
     1
 62
     7
420
 16777215
176
     1
 90
        1
176
     1
 90
        0
176
     1
 62
     7
176
     1
 62
   257
176
     1
 90
        1
176
     1
 90
        1
176
     1
 40
1.0
176
     1
 90
        8
176
     1
 62
     7
176
     1
 40
1.0
176
     1
 90
        1
176
     1
 90
        6
176
     1
 90
        2
176
     1
 62
     7
176
     1
 90
        3
176
     1
 90
        0
176
     1
 90
        0
176
     1
290
     0
176
     1
 90
       13
176
     1
 40
0.0
176
     1
 90
        0
176
     1
290
     0
176
     1
290
     1
176
     1
290
     1
176
     1
290
     0
176
     1
290
     0
176
     1
290
     0
176
     1
290
     0
176
     1
290
     0
176
     1
290
     0
176
     1
 90
       50
176
     1
 40
0.0
176
     1
 40
1.0
176
     1
 90
        0
176
     1
 62
    18
420
        0
176
     1
 90
       50
176
     1
 90
        3
176
     1
 62
     5
420
      255
176
     1
290
     0
176
     1
 90
       50
176
     1
 90
       50
176
     1
 90
       50
176
     1
290
     0
176
     1
 90
       50
176
     1
 62
   256
176
     0
 40
1.0
176
     0
 90
        2
176
     1
  1
strokes_ogs.tif
176
     1
290
     0
176
     1
 40
1.0
176
     1
 40
1.0
176
     1
  0
DICTIONARYVAR
  5
197
102
{ACAD_REACTORS
330
131
102
}
330
131
100
DictionaryVariables
280
     0
  1
1:1
  0
DICTIONARYVAR
  5
193
102
{ACAD_REACTORS
330
131
102
}
330
131
100
DictionaryVariables
280
     0
  1
STANDARD
  0
DICTIONARYVAR
  5
192
102
{ACAD_REACTORS
330
131
102
}
330
131
100
DictionaryVariables
280
     0
  1
STANDARD
  0
DICTIONARYVAR
  5
194
102
{ACAD_REACTORS
330
131
102
}
330
131
100
DictionaryVariables
280
     0
  1
Metric50
  0
DICTIONARYVAR
  5
195
102
{ACAD_REACTORS
330
131
102
}
330
131
100
DictionaryVariables
280
     0
  1
Metric50
  0
DICTIONARYVAR
  5
199
102
{ACAD_REACTORS
330
131
102
}
330
131
100
DictionaryVariables
280
     0
  1
1
  0
DICTIONARYVAR
  5
19A
102
{ACAD_REACTORS
330
131
102
}
330
131
100
DictionaryVariables
280
     0
  1
15
  0
DICTIONARYVAR
  5
198
102
{ACAD_REACTORS
330
131
102
}
330
131
100
DictionaryVariables
280
     0
  1
0
  0
DICTIONARYVAR
  5
196
102
{ACAD_REACTORS
330
131
102
}
330
131
100
DictionaryVariables
280
     0
  1
0
  0
DICTIONARY
  5
FD
330
FC
100
AcDbDictionary
280
     1
281
     1
  3
BUMPTILE
360
FF
  3
DIFFUSETILE
360
FE
  3
OPACITYTILE
360
102
  3
REFLECTIONTILE
360
101
  3
REFRACTIONTILE
360
103
  3
SPECULARTILE
360
100
  0
DICTIONARY
  5
F5
330
F4
100
AcDbDictionary
280
     1
281
     1
  3
BUMPTILE
360
F7
  3
DIFFUSETILE
360
F6
  3
OPACITYTILE
360
FA
  3
REFLECTIONTILE
360
F9
  3
REFRACTIONTILE
360
FB
  3
SPECULARTILE
360
F8
  0
DICTIONARY
  5
105
330
104
100
AcDbDictionary
280
     1
281
     1
  3
BUMPTILE
360
107
  3
DIFFUSETILE
360
106
  3
OPACITYTILE
360
10A
  3
REFLECTIONTILE
360
109
  3
REFRACTIONTILE
360
10B
  3
SPECULARTILE
360
108
  0
DICTIONARY
  5
1D5
330
127
100
AcDbDictionary
280
     1
281
     1
  3
ACAD_ROUNDTRIP_2008_TABLESTYLE_CELLSTYLEMAP
360
1D6
  0
XRECORD
  5
FF
102
{ACAD_REACTORS
330
FD
102
}
330
FD
100
AcDbXrecord
280
     1
270
     1
271
     1
  0
XRECORD
  5
FE
102
{ACAD_REACTORS
330
FD
102
}
330
FD
100
AcDbXrecord
280
     1
270
     1
271
     1
  0
XRECORD
  5
102
102
{ACAD_REACTORS
330
FD
102
}
330
FD
100
AcDbXrecord
280
     1
270
     1
271
     1
  0
XRECORD
  5
101
102
{ACAD_REACTORS
330
FD
102
}
330
FD
100
AcDbXrecord
280
     1
270
     1
271
     1
  0
XRECORD
  5
103
102
{ACAD_REACTORS
330
FD
102
}
330
FD
100
AcDbXrecord
280
     1
270
     1
271
     1
  0
XRECORD
  5
100
102
{ACAD_REACTORS
330
FD
102
}
330
FD
100
AcDbXrecord
280
     1
270
     1
271
     1
  0
XRECORD
  5
F7
102
{ACAD_REACTORS
330
F5
102
}
330
F5
100
AcDbXrecord
280
     1
270
     1
271
     1
  0
XRECORD
  5
F6
102
{ACAD_REACTORS
330
F5
102
}
330
F5
100
AcDbXrecord
280
     1
270
     1
271
     1
  0
XRECORD
  5
FA
102
{ACAD_REACTORS
330
F5
102
}
330
F5
100
AcDbXrecord
280
     1
270
     1
271
     1
  0
XRECORD
  5
F9
102
{ACAD_REACTORS
330
F5
102
}
330
F5
100
AcDbXrecord
280
     1
270
     1
271
     1
  0
XRECORD
  5
FB
102
{ACAD_REACTORS
330
F5
102
}
330
F5
100
AcDbXrecord
280
     1
270
     1
271
     1
  0
XRECORD
  5
F8
102
{ACAD_REACTORS
330
F5
102
}
330
F5
100
AcDbXrecord
280
     1
270
     1
271
     1
  0
XRECORD
  5
107
102
{ACAD_REACTORS
330
105
102
}
330
105
100
AcDbXrecord
280
     1
270
     1
271
     1
  0
XRECORD
  5
106
102
{ACAD_REACTORS
330
105
102
}
330
105
100
AcDbXrecord
280
     1
270
     1
271
     1
  0
XRECORD
  5
10A
102
{ACAD_REACTORS
330
105
102
}
330
105
100
AcDbXrecord
280
     1
270
     1
271
     1
  0
XRECORD
  5
109
102
{ACAD_REACTORS
330
105
102
}
330
105
100
AcDbXrecord
280
     1
270
     1
271
     1
  0
XRECORD
  5
10B
102
{ACAD_REACTORS
330
105
102
}
330
105
100
AcDbXrecord
280
     1
270
     1
271
     1
  0
XRECORD
  5
108
102
{ACAD_REACTORS
330
105
102
}
330
105
100
AcDbXrecord
280
     1
270
     1
271
     1
  0
CELLSTYLEMAP
  5
1D6
102
{ACAD_REACTORS
330
1D5
102
}
330
1D5
100
AcDbCellStyleMap
 90
        3
300
CELLSTYLE
  1
TABLEFORMAT_BEGIN
 90
        5
170
     1
 91
        0
 92
    32768
 62
   257
 93
        1
300
CONTENTFORMAT
  1
CONTENTFORMAT_BEGIN
 90
        0
 91
        0
 92
      512
 93
        0
300

 40
0.0
140
1.0
 94
        5
 62
     0
340
11
144
6.0
309
CONTENTFORMAT_END
171
     1
301
MARGIN
  1
CELLMARGIN_BEGIN
 40
1.5
 40
1.5
 40
1.5
 40
1.5
 40
4.5
 40
4.5
309
CELLMARGIN_END
 94
        6
 95
        1
302
GRIDFORMAT
  1
GRIDFORMAT_BEGIN
 90
        0
 91
        1
 62
     0
 92
       -2
340
0
 93
        0
 40
1.125
309
GRIDFORMAT_END
 95
        2
302
GRIDFORMAT
  1
GRIDFORMAT_BEGIN
 90
        0
 91
        1
 62
     0
 92
       -2
340
0
 93
        0
 40
1.125
309
GRIDFORMAT_END
 95
        4
302
GRIDFORMAT
  1
GRIDFORMAT_BEGIN
 90
        0
 91
        1
 62
     0
 92
       -2
340
0
 93
        0
 40
1.125
309
GRIDFORMAT_END
 95
        8
302
GRIDFORMAT
  1
GRIDFORMAT_BEGIN
 90
        0
 91
        1
 62
     0
 92
       -2
340
0
 93
        0
 40
1.125
309
GRIDFORMAT_END
 95
       16
302
GRIDFORMAT
  1
GRIDFORMAT_BEGIN
 90
        0
 91
        1
 62
     0
 92
       -2
340
0
 93
        0
 40
1.125
309
GRIDFORMAT_END
 95
       32
302
GRIDFORMAT
  1
GRIDFORMAT_BEGIN
 90
        0
 91
        1
 62
     0
 92
       -2
340
0
 93
        0
 40
1.125
309
GRIDFORMAT_END
309
TABLEFORMAT_END
  1
CELLSTYLE_BEGIN
 90
        1
 91
        1
300
_TITLE
309
CELLSTYLE_END
300
CELLSTYLE
  1
TABLEFORMAT_BEGIN
 90
        5
170
     1
 91
        0
 92
        0
 62
   257
 93
        1
300
CONTENTFORMAT
  1
CONTENTFORMAT_BEGIN
 90
        0
 91
        0
 92
      512
 93
        0
300

 40
0.0
140
1.0
 94
        5
 62
     0
340
11
144
4.5
309
CONTENTFORMAT_END
171
     1
301
MARGIN
  1
CELLMARGIN_BEGIN
 40
1.5
 40
1.5
 40
1.5
 40
1.5
 40
4.5
 40
4.5
309
CELLMARGIN_END
 94
        6
 95
        1
302
GRIDFORMAT
  1
GRIDFORMAT_BEGIN
 90
        0
 91
        1
 62
     0
 92
       -2
340
0
 93
        0
 40
1.125
309
GRIDFORMAT_END
 95
        2
302
GRIDFORMAT
  1
GRIDFORMAT_BEGIN
 90
        0
 91
        1
 62
     0
 92
       -2
340
0
 93
        0
 40
1.125
309
GRIDFORMAT_END
 95
        4
302
GRIDFORMAT
  1
GRIDFORMAT_BEGIN
 90
        0
 91
        1
 62
     0
 92
       -2
340
0
 93
        0
 40
1.125
309
GRIDFORMAT_END
 95
        8
302
GRIDFORMAT
  1
GRIDFORMAT_BEGIN
 90
        0
 91
        1
 62
     0
 92
       -2
340
0
 93
        0
 40
1.125
309
GRIDFORMAT_END
 95
       16
302
GRIDFORMAT
  1
GRIDFORMAT_BEGIN
 90
        0
 91
        1
 62
     0
 92
       -2
340
0
 93
        0
 40
1.125
309
GRIDFORMAT_END
 95
       32
302
GRIDFORMAT
  1
GRIDFORMAT_BEGIN
 90
        0
 91
        1
 62
     0
 92
       -2
340
0
 93
        0
 40
1.125
309
GRIDFORMAT_END
309
TABLEFORMAT_END
  1
CELLSTYLE_BEGIN
 90
        2
 91
        1
300
_HEADER
309
CELLSTYLE_END
300
CELLSTYLE
  1
TABLEFORMAT_BEGIN
 90
        5
170
     1
 91
        0
 92
        0
 62
   257
 93
        1
300
CONTENTFORMAT
  1
CONTENTFORMAT_BEGIN
 90
        0
 91
        0
 92
      512
 93
        0
300

 40
0.0
140
1.0
 94
        2
 62
     0
340
11
144
4.5
309
CONTENTFORMAT_END
171
     1
301
MARGIN
  1
CELLMARGIN_BEGIN
 40
1.5
 40
1.5
 40
1.5
 40
1.5
 40
4.5
 40
4.5
309
CELLMARGIN_END
 94
        6
 95
        1
302
GRIDFORMAT
  1
GRIDFORMAT_BEGIN
 90
        0
 91
        1
 62
     0
 92
       -2
340
0
 93
        0
 40
1.125
309
GRIDFORMAT_END
 95
        2
302
GRIDFORMAT
  1
GRIDFORMAT_BEGIN
 90
        0
 91
        1
 62
     0
 92
       -2
340
0
 93
        0
 40
1.125
309
GRIDFORMAT_END
 95
        4
302
GRIDFORMAT
  1
GRIDFORMAT_BEGIN
 90
        0
 91
        1
 62
     0
 92
       -2
340
0
 93
        0
 40
1.125
309
GRIDFORMAT_END
 95
        8
302
GRIDFORMAT
  1
GRIDFORMAT_BEGIN
 90
        0
 91
        1
 62
     0
 92
       -2
340
0
 93
        0
 40
1.125
309
GRIDFORMAT_END
 95
       16
302
GRIDFORMAT
  1
GRIDFORMAT_BEGIN
 90
        0
 91
        1
 62
     0
 92
       -2
340
0
 93
        0
 40
1.125
309
GRIDFORMAT_END
 95
       32
302
GRIDFORMAT
  1
GRIDFORMAT_BEGIN
 90
        0
 91
        1
 62
     0
 92
       -2
340
0
 93
        0
 40
1.125
309
GRIDFORMAT_END
309
TABLEFORMAT_END
  1
CELLSTYLE_BEGIN
 90
        3
 91
        2
300
_DATA
309
CELLSTYLE_END
  0
ENDSEC
  0
SECTION
  2
ACDSDATA
 70
     2
 71
     8
  0
ACDSSCHEMA
 90
        0
  1
AcDb_Thumbnail_Schema
  2
AcDbDs::ID
280
    10
 91
        8
  2
Thumbnail_Data
280
    15
 91
        0
101
ACDSRECORD
 95
        0
 90
        1
  2
AcDbDs::TreatedAsObjectData
280
     1
291
     1
101
ACDSRECORD
 95
        0
 90
        2
  2
AcDbDs::Legacy
280
     1
291
     1
101
ACDSRECORD
  1
AcDbDs::ID
 90
        3
  2
AcDs:Indexable
280
     1
291
     1
101
ACDSRECORD
  1
AcDbDs::ID
 90
        4
  2
AcDbDs::HandleAttribute
280
     7
282
     1
  0
ACDSSCHEMA
 90
        1
  1
AcDbDs::TreatedAsObjectDataSchema
  2
AcDbDs::TreatedAsObjectData
280
     1
 91
        0
  0
ACDSSCHEMA
 90
        2
  1
AcDbDs::LegacySchema
  2
AcDbDs::Legacy
280
     1
 91
        0
  0
ACDSSCHEMA
 90
        3
  1
AcDbDs::IndexedPropertySchema
  2
AcDs:Indexable
280
     1
 91
        0
  0
ACDSSCHEMA
 90
        4
  1
AcDbDs::HandleAttributeSchema
  2
AcDbDs::HandleAttribute
280
     7
 91
        1
284
     1
  0
ACDSRECORD
 90
        0
  2
AcDbDs::ID
280
    10
320
22
  2
Thumbnail_Data
280
    15
 94
     1179
310
89504E470D0A1A0A0000000D49484452000001000000006E0803000000FF253DCA00000300504C5445212830FFFFFF2128300000000000000000000000000000000000000000000000000000330000660000990000CC0000FF0033000033330033660033990033CC0033FF0066000066330066660066990066CC0066FF0099
310
000099330099660099990099CC0099FF00CC0000CC3300CC6600CC9900CCCC00CCFF00FF0000FF3300FF6600FF9900FFCC00FFFF3300003300333300663300993300CC3300FF3333003333333333663333993333CC3333FF3366003366333366663366993366CC3366FF3399003399333399663399993399CC3399FF33CC00
310
33CC3333CC6633CC9933CCCC33CCFF33FF0033FF3333FF6633FF9933FFCC33FFFF6600006600336600666600996600CC6600FF6633006633336633666633996633CC6633FF6666006666336666666666996666CC6666FF6699006699336699666699996699CC6699FF66CC0066CC3366CC6666CC9966CCCC66CCFF66FF0066
310
FF3366FF6666FF9966FFCC66FFFF9900009900339900669900999900CC9900FF9933009933339933669933999933CC9933FF9966009966339966669966999966CC9966FF9999009999339999669999999999CC9999FF99CC0099CC3399CC6699CC9999CCCC99CCFF99FF0099FF3399FF6699FF9999FFCC99FFFFCC0000CC00
310
33CC0066CC0099CC00CCCC00FFCC3300CC3333CC3366CC3399CC33CCCC33FFCC6600CC6633CC6666CC6699CC66CCCC66FFCC9900CC9933CC9966CC9999CC99CCCC99FFCCCC00CCCC33CCCC66CCCC99CCCCCCCCCCFFCCFF00CCFF33CCFF66CCFF99CCFFCCCCFFFFFF0000FF0033FF0066FF0099FF00CCFF00FFFF3300FF3333
310
FF3366FF3399FF33CCFF33FFFF6600FF6633FF6666FF6699FF66CCFF66FFFF9900FF9933FF9966FF9999FF99CCFF99FFFFCC00FFCC33FFCC66FFCC99FFCCCCFFCCFFFFFF00FFFF33FFFF66FFFF99FFFFCCFFFFFF0000000D0D0D1A1A1A2828283535354343435050505D5D5D6B6B6B787878868686939393A1A1A1AEAEAEBB
310
BBBBC9C9C9D6D6D6E4E4E4F1F1F1FFFFFF0000000000000000000000000000000000000000000000000000000000002E4550F1000000DB4944415478DAEDDA416EC2501443512F27FB5F2173669F1009EC73C6A11217BF4AA84D0000000000000000E09EEB0BFE3BC04FFC88BF5E40C61720C0F8091404B8FDF90BB0780255
310
01EEFCEAB4808A00F30B7002EB27709DBFC802A617501520028C9FC007377059406180F90508208000020820C06E80A3372180008DDF0504980D10010410400001041040000104104080E100B3FF2E9FF33F8FBE2F20D99E4049808F171001B64F202D059E7BBC7302E92BB0BC0001E64F20A70B48C62790C202CF3C2B40E7
310
0DAC2F20028C9F402A0B1C7448EF040200F02B5E342FEDA9CFA772E80000000049454E44AE42608200010840000210800004E40A60148EFEBBBC74FC929810905D03B230F07D02A4EC08B808F861CF408065092838027EEB1FA7E1D2340ADB0908AF80B5FB46CE78B369046468203B0108882F81967B872CD7AFF400B41C6B
310
2DD7AFF4000000000000000000FC373765FD5CA1859D1F450000000049454E44AE426082
  0
ENDSEC
  0
EOF
