  0
SECTION
  2
HEADER
  9
$ACADVER
  1
AC1032
  9
$ACADMAINTVER
 90
      248
  9
$DWGCODEPAGE
  3
ANSI_1252
  9
$LASTSAVEDBY
  1
Juan Pablo Lopez
  9
$REQUIREDVERSIONS
160
                 0
  9
$INSBASE
 10
0.0
 20
0.0
 30
0.0
  9
$EXTMIN
 10
53238.06402393866
 20
24814.5111907704
 30
0.0
  9
$EXTMAX
 10
54761.9875831574
 20
26435.8652611759
 30
0.0
  9
$LIMMIN
 10
0.0
 20
0.0
  9
$LIMMAX
 10
420.0
 20
297.0
  9
$ORTHOMODE
 70
     0
  9
$REGENMODE
 70
     1
  9
$FILLMODE
 70
     1
  9
$QTEXTMODE
 70
     0
  9
$MIRRTEXT
 70
     1
  9
$LTSCALE
 40
1.0
  9
$ATTMODE
 70
     1
  9
$TEXTSIZE
 40
2.5
  9
$TRACEWID
 40
1.0
  9
$TEXTSTYLE
  7
Standard
  9
$CLAYER
  8
0
  9
$CELTYPE
  6
ByLayer
  9
$CECOLOR
 62
   256
  9
$CELTSCALE
 40
1.0
  9
$DISPSILH
 70
     0
  9
$DIMSCALE
 40
1.0
  9
$DIMASZ
 40
2.5
  9
$DIMEXO
 40
0.625
  9
$DIMDLI
 40
3.75
  9
$DIMRND
 40
0.0
  9
$DIMDLE
 40
0.0
  9
$DIMEXE
 40
1.25
  9
$DIMTP
 40
0.0
  9
$DIMTM
 40
0.0
  9
$DIMTXT
 40
2.5
  9
$DIMCEN
 40
2.5
  9
$DIMTSZ
 40
0.0
  9
$DIMTOL
 70
     0
  9
$DIMLIM
 70
     0
  9
$DIMTIH
 70
     0
  9
$DIMTOH
 70
     0
  9
$DIMSE1
 70
     0
  9
$DIMSE2
 70
     0
  9
$DIMTAD
 70
     1
  9
$DIMZIN
 70
     8
  9
$DIMBLK
  1

  9
$DIMASO
 70
     1
  9
$DIMSHO
 70
     1
  9
$DIMPOST
  1

  9
$DIMAPOST
  1

  9
$DIMALT
 70
     0
  9
$DIMALTD
 70
     3
  9
$DIMALTF
 40
0.03937
  9
$DIMLFAC
 40
1.0
  9
$DIMTOFL
 70
     1
  9
$DIMTVP
 40
0.0
  9
$DIMTIX
 70
     0
  9
$DIMSOXD
 70
     0
  9
$DIMSAH
 70
     0
  9
$DIMBLK1
  1

  9
$DIMBLK2
  1

  9
$DIMSTYLE
  2
STANDARD
  9
$DIMCLRD
 70
     0
  9
$DIMCLRE
 70
     0
  9
$DIMCLRT
 70
     0
  9
$DIMTFAC
 40
1.0
  9
$DIMGAP
 40
0.625
  9
$DIMJUST
 70
     0
  9
$DIMSD1
 70
     0
  9
$DIMSD2
 70
     0
  9
$DIMTOLJ
 70
     0
  9
$DIMTZIN
 70
     8
  9
$DIMALTZ
 70
     0
  9
$DIMALTTZ
 70
     0
  9
$DIMUPT
 70
     0
  9
$DIMDEC
 70
     2
  9
$DIMTDEC
 70
     2
  9
$DIMALTU
 70
     2
  9
$DIMALTTD
 70
     3
  9
$DIMTXSTY
  7
Standard
  9
$DIMAUNIT
 70
     0
  9
$DIMADEC
 70
     0
  9
$DIMALTRND
 40
0.0
  9
$DIMAZIN
 70
     0
  9
$DIMDSEP
 70
    44
  9
$DIMATFIT
 70
     0
  9
$DIMFRAC
 70
     0
  9
$DIMLDRBLK
  1

  9
$DIMLUNIT
 70
     2
  9
$DIMLWD
 70
    -2
  9
$DIMLWE
 70
    -2
  9
$DIMTMOVE
 70
     0
  9
$DIMFXL
 40
1.0
  9
$DIMFXLON
 70
     0
  9
$DIMJOGANG
 40
0.7853981633974483
  9
$DIMTFILL
 70
     0
  9
$DIMTFILLCLR
 70
     0
  9
$DIMARCSYM
 70
     0
  9
$DIMLTYPE
  6

  9
$DIMLTEX1
  6

  9
$DIMLTEX2
  6

  9
$DIMTXTDIRECTION
 70
     0
  9
$LUNITS
 70
     2
  9
$LUPREC
 70
     4
  9
$SKETCHINC
 40
1.0
  9
$FILLETRAD
 40
2.5
  9
$AUNITS
 70
     0
  9
$AUPREC
 70
     0
  9
$MENU
  1
.
  9
$ELEVATION
 40
0.0
  9
$PELEVATION
 40
0.0
  9
$THICKNESS
 40
0.0
  9
$LIMCHECK
 70
     0
  9
$CHAMFERA
 40
2.5
  9
$CHAMFERB
 40
2.5
  9
$CHAMFERC
 40
0.0
  9
$CHAMFERD
 40
0.0
  9
$SKPOLY
 70
     0
  9
$TDCREATE
 40
2460422.518773148
  9
$TDUCREATE
 40
2460422.435439815
  9
$TDUPDATE
 40
2460422.519039352
  9
$TDUUPDATE
 40
2460422.435706019
  9
$TDINDWG
 40
0.0002662037
  9
$TDUSRTIMER
 40
0.0002662037
  9
$USRTIMER
 70
     1
  9
$ANGBASE
 50
0.0
  9
$ANGDIR
 70
     0
  9
$PDMODE
 70
     0
  9
$PDSIZE
 40
0.0
  9
$PLINEWID
 40
0.0
  9
$SPLFRAME
 70
     0
  9
$SPLINETYPE
 70
     6
  9
$SPLINESEGS
 70
     8
  9
$HANDSEED
  5
151
  9
$SURFTAB1
 70
     6
  9
$SURFTAB2
 70
     6
  9
$SURFTYPE
 70
     6
  9
$SURFU
 70
     6
  9
$SURFV
 70
     6
  9
$UCSBASE
  2

  9
$UCSNAME
  2

  9
$UCSORG
 10
0.0
 20
0.0
 30
0.0
  9
$UCSXDIR
 10
1.0
 20
0.0
 30
0.0
  9
$UCSYDIR
 10
0.0
 20
1.0
 30
0.0
  9
$UCSORTHOREF
  2

  9
$UCSORTHOVIEW
 70
     1
  9
$UCSORGTOP
 10
0.0
 20
0.0
 30
0.0
  9
$UCSORGBOTTOM
 10
0.0
 20
0.0
 30
0.0
  9
$UCSORGLEFT
 10
0.0
 20
0.0
 30
0.0
  9
$UCSORGRIGHT
 10
0.0
 20
0.0
 30
0.0
  9
$UCSORGFRONT
 10
0.0
 20
0.0
 30
0.0
  9
$UCSORGBACK
 10
0.0
 20
0.0
 30
0.0
  9
$PUCSBASE
  2

  9
$PUCSNAME
  2

  9
$PUCSORG
 10
0.0
 20
0.0
 30
0.0
  9
$PUCSXDIR
 10
1.0
 20
0.0
 30
0.0
  9
$PUCSYDIR
 10
0.0
 20
1.0
 30
0.0
  9
$PUCSORTHOREF
  2

  9
$PUCSORTHOVIEW
 70
     0
  9
$PUCSORGTOP
 10
0.0
 20
0.0
 30
0.0
  9
$PUCSORGBOTTOM
 10
0.0
 20
0.0
 30
0.0
  9
$PUCSORGLEFT
 10
0.0
 20
0.0
 30
0.0
  9
$PUCSORGRIGHT
 10
0.0
 20
0.0
 30
0.0
  9
$PUCSORGFRONT
 10
0.0
 20
0.0
 30
0.0
  9
$PUCSORGBACK
 10
0.0
 20
0.0
 30
0.0
  9
$USERI1
 70
     0
  9
$USERI2
 70
     0
  9
$USERI3
 70
     0
  9
$USERI4
 70
     0
  9
$USERI5
 70
     0
  9
$USERR1
 40
0.0
  9
$USERR2
 40
0.0
  9
$USERR3
 40
0.0
  9
$USERR4
 40
0.0
  9
$USERR5
 40
0.0
  9
$WORLDVIEW
 70
     1
  9
$SHADEDGE
 70
     3
  9
$SHADEDIF
 70
    70
  9
$TILEMODE
 70
     1
  9
$MAXACTVP
 70
    64
  9
$PINSBASE
 10
0.0
 20
0.0
 30
0.0
  9
$PLIMCHECK
 70
     0
  9
$PEXTMIN
 10
0.0
 20
0.0
 30
0.0
  9
$PEXTMAX
 10
318.228027
 20
420.978058
 30
2.0
  9
$PLIMMIN
 10
0.0
 20
0.0
  9
$PLIMMAX
 10
420.0
 20
297.0
  9
$UNITMODE
 70
     0
  9
$VISRETAIN
 70
     0
  9
$PLINEGEN
 70
     0
  9
$PSLTSCALE
 70
     1
  9
$TREEDEPTH
 70
  3020
  9
$CMLSTYLE
  2
Standard
  9
$CMLJUST
 70
     0
  9
$CMLSCALE
 40
20.0
  9
$PROXYGRAPHICS
 70
     1
  9
$MEASUREMENT
 70
     1
  9
$CELWEIGHT
370
    -1
  9
$ENDCAPS
280
     0
  9
$JOINSTYLE
280
     0
  9
$LWDISPLAY
290
     0
  9
$INSUNITS
 70
     0
  9
$HYPERLINKBASE
  1

  9
$STYLESHEET
  1

  9
$XEDIT
290
     1
  9
$CEPSNTYPE
380
     0
  9
$PSTYLEMODE
290
     0
  9
$FINGERPRINTGUID
  2
{4FCEE1AD-40CB-4F17-82AB-43DE10CCFE07}
  9
$VERSIONGUID
  2
{F9A2C700-AED8-7545-AA18-B01D36D1B45D}
  9
$EXTNAMES
290
     1
  9
$PSVPSCALE
 40
0.0
  9
$OLESTARTUP
290
     0
  9
$SORTENTS
280
   127
  9
$INDEXCTL
280
     0
  9
$HIDETEXT
280
     0
  9
$XCLIPFRAME
280
     2
  9
$HALOGAP
280
     0
  9
$OBSCOLOR
 70
   257
  9
$OBSLTYPE
280
     0
  9
$INTERSECTIONDISPLAY
280
     0
  9
$INTERSECTIONCOLOR
 70
   257
  9
$DIMASSOC
280
     1
  9
$PROJECTNAME
  1

  9
$CAMERADISPLAY
290
     0
  9
$LENSLENGTH
 40
50.0
  9
$CAMERAHEIGHT
 40
0.0
  9
$STEPSPERSEC
 40
2.0
  9
$STEPSIZE
 40
6.0
  9
$3DDWFPREC
 40
2.0
  9
$PSOLWIDTH
 40
0.25
  9
$PSOLHEIGHT
 40
4.0
  9
$LOFTANG1
 40
1.570796326794896
  9
$LOFTANG2
 40
1.570796326794896
  9
$LOFTMAG1
 40
0.0
  9
$LOFTMAG2
 40
0.0
  9
$LOFTPARAM
 70
     7
  9
$LOFTNORMALS
280
     1
  9
$LATITUDE
 40
37.795
  9
$LONGITUDE
 40
-122.394
  9
$NORTHDIRECTION
 40
0.0
  9
$TIMEZONE
 70
 -8000
  9
$LIGHTGLYPHDISPLAY
280
     1
  9
$TILEMODELIGHTSYNCH
280
     1
  9
$CMATERIAL
347
C0
  9
$SOLIDHIST
280
     0
  9
$SHOWHIST
280
     1
  9
$DWFFRAME
280
     2
  9
$DGNFRAME
280
     0
  9
$REALWORLDSCALE
290
     1
  9
$INTERFERECOLOR
 62
     1
  9
$INTERFEREOBJVS
345
E2
  9
$INTERFEREVPVS
346
DF
  9
$CSHADOW
280
     0
  9
$SHADOWPLANELOCATION
 40
0.0
  0
ENDSEC
  0
SECTION
  2
CLASSES
  0
CLASS
  1
ACDBDICTIONARYWDFLT
  2
AcDbDictionaryWithDefault
  3
ObjectDBX Classes
 90
        0
 91
        1
280
     0
281
     0
  0
CLASS
  1
VISUALSTYLE
  2
AcDbVisualStyle
  3
ObjectDBX Classes
 90
     4095
 91
       24
280
     0
281
     0
  0
CLASS
  1
MATERIAL
  2
AcDbMaterial
  3
ObjectDBX Classes
 90
     1153
 91
        3
280
     0
281
     0
  0
CLASS
  1
SCALE
  2
AcDbScale
  3
ObjectDBX Classes
 90
     1153
 91
       33
280
     0
281
     0
  0
CLASS
  1
TABLESTYLE
  2
AcDbTableStyle
  3
ObjectDBX Classes
 90
     4095
 91
        1
280
     0
281
     0
  0
CLASS
  1
MLEADERSTYLE
  2
AcDbMLeaderStyle
  3
ACDB_MLEADERSTYLE_CLASS
 90
     4095
 91
        1
280
     0
281
     0
  0
CLASS
  1
SUN
  2
AcDbSun
  3
SCENEOE
 90
     1153
 91
        0
280
     0
281
     0
  0
CLASS
  1
ACDBSECTIONVIEWSTYLE
  2
AcDbSectionViewStyle
  3
ObjectDBX Classes
 90
     1025
 91
        1
280
     0
281
     0
  0
CLASS
  1
ACDBDETAILVIEWSTYLE
  2
AcDbDetailViewStyle
  3
ObjectDBX Classes
 90
     1025
 91
        1
280
     0
281
     0
  0
CLASS
  1
DICTIONARYVAR
  2
AcDbDictionaryVar
  3
ObjectDBX Classes
 90
        0
 91
       10
280
     0
281
     0
  0
CLASS
  1
SORTENTSTABLE
  2
AcDbSortentsTable
  3
ObjectDBX Classes
 90
        0
 91
        1
280
     0
281
     0
  0
CLASS
  1
CELLSTYLEMAP
  2
AcDbCellStyleMap
  3
ObjectDBX Classes
 90
     1152
 91
        1
280
     0
281
     0
  0
ENDSEC
  0
SECTION
  2
TABLES
  0
TABLE
  2
VPORT
  5
8
330
0
100
AcDbSymbolTable
 70
     1
  0
VPORT
  5
29
330
8
100
AcDbSymbolTableRecord
100
AcDbViewportTableRecord
  2
*Active
 70
     0
 10
0.0
 20
0.0
 11
1.0
 21
1.0
 12
53997.87276672503
 22
25541.25141564469
 13
0.0
 23
0.0
 14
0.5
 24
0.5
 15
0.5
 25
0.5
 16
0.0
 26
0.0
 36
1.0
 17
0.0
 27
0.0
 37
0.0
 40
2611.695698922765
 41
1.167325428194993
 42
50.0
 43
0.0
 44
0.0
 50
0.0
 51
0.0
 71
     0
 72
   100
 73
     1
 74
     3
 75
     0
 76
     0
 77
     0
 78
     0
281
     0
 65
     1
110
0.0
120
0.0
130
0.0
111
1.0
121
0.0
131
0.0
112
0.0
122
1.0
132
0.0
 79
     0
146
0.0
348
DE
 60
     3
 61
     5
292
     1
282
     1
141
0.0
142
0.0
 63
   250
421
  3355443
1001
ACAD_NAV_VCDISPLAY
1070
     3
  0
ENDTAB
  0
TABLE
  2
LTYPE
  5
5
330
0
100
AcDbSymbolTable
 70
     1
  0
LTYPE
  5
14
330
5
100
AcDbSymbolTableRecord
100
AcDbLinetypeTableRecord
  2
ByBlock
 70
     0
  3

 72
    65
 73
     0
 40
0.0
  0
LTYPE
  5
15
330
5
100
AcDbSymbolTableRecord
100
AcDbLinetypeTableRecord
  2
ByLayer
 70
     0
  3

 72
    65
 73
     0
 40
0.0
  0
LTYPE
  5
16
330
5
100
AcDbSymbolTableRecord
100
AcDbLinetypeTableRecord
  2
Continuous
 70
     0
  3
Solid line
 72
    65
 73
     0
 40
0.0
  0
ENDTAB
  0
TABLE
  2
LAYER
  5
2
330
0
100
AcDbSymbolTable
 70
     6
  0
LAYER
  5
10
102
{ACAD_XDICTIONARY
360
138
102
}
330
2
100
AcDbSymbolTableRecord
100
AcDbLayerTableRecord
  2
0
 70
     0
 62
     7
  6
Continuous
370
    13
390
F
347
D0
348
0
  0
LAYER
  5
6F
102
{ACAD_XDICTIONARY
360
13A
102
}
330
2
100
AcDbSymbolTableRecord
100
AcDbLayerTableRecord
  2
TEXT
 70
     0
 62
     7
  6
Continuous
370
    13
390
F
347
D0
348
0
  0
LAYER
  5
70
102
{ACAD_XDICTIONARY
360
13C
102
}
330
2
100
AcDbSymbolTableRecord
100
AcDbLayerTableRecord
  2
STRATEGYPOINT
 70
     0
 62
     7
  6
Continuous
370
    13
390
F
347
D0
348
0
  0
LAYER
  5
71
102
{ACAD_XDICTIONARY
360
13E
102
}
330
2
100
AcDbSymbolTableRecord
100
AcDbLayerTableRecord
  2
ROSETTE
 70
     0
 62
     7
  6
Continuous
370
    13
390
F
347
D0
348
0
  0
LAYER
  5
72
102
{ACAD_XDICTIONARY
360
140
102
}
330
2
100
AcDbSymbolTableRecord
100
AcDbLayerTableRecord
  2
OUTER
 70
     0
 62
     7
  6
Continuous
370
    13
390
F
347
D0
348
0
  0
LAYER
  5
A4
102
{ACAD_XDICTIONARY
360
142
102
}
330
2
100
AcDbSymbolTableRecord
100
AcDbLayerTableRecord
  2
MARKERS
 70
     0
 62
     7
  6
Continuous
370
    13
390
F
347
D0
348
0
  0
ENDTAB
  0
TABLE
  2
STYLE
  5
3
330
0
100
AcDbSymbolTable
 70
     2
  0
STYLE
  5
11
330
3
100
AcDbSymbolTableRecord
100
AcDbTextStyleTableRecord
  2
Standard
 70
     0
 40
0.0
 41
1.0
 50
0.0
 71
     0
 42
2.5
  3
isocp.shx
  4

  0
STYLE
  5
6E
330
3
100
AcDbSymbolTableRecord
100
AcDbTextStyleTableRecord
  2
GDT
 70
     0
 40
0.0
 41
1.0
 50
0.0
 71
     0
 42
0.2
  3
gdt.shx
  4

  0
ENDTAB
  0
TABLE
  2
VIEW
  5
6
330
0
100
AcDbSymbolTable
 70
     0
  0
ENDTAB
  0
TABLE
  2
UCS
  5
7
330
0
100
AcDbSymbolTable
 70
     0
  0
ENDTAB
  0
TABLE
  2
APPID
  5
9
330
0
100
AcDbSymbolTable
 70
     2
  0
APPID
  5
12
330
9
100
AcDbSymbolTableRecord
100
AcDbRegAppTableRecord
  2
ACAD
 70
     0
  0
APPID
  5
14D
330
9
100
AcDbSymbolTableRecord
100
AcDbRegAppTableRecord
  2
ACAD_NAV_VCDISPLAY
 70
     0
  0
ENDTAB
  0
TABLE
  2
DIMSTYLE
  5
A
330
0
100
AcDbSymbolTable
 70
     1
100
AcDbDimStyleTable
 71
     0
  0
DIMSTYLE
105
27
330
A
100
AcDbSymbolTableRecord
100
AcDbDimStyleTableRecord
  2
STANDARD
 70
     0
 41
2.5
 42
0.625
 43
3.75
 44
1.25
 73
     0
 74
     0
 77
     1
 78
     8
140
2.5
141
2.5
143
0.03937
147
0.625
171
     3
172
     1
271
     2
272
     2
274
     3
278
    44
283
     0
284
     8
289
     0
340
11
  0
ENDTAB
  0
TABLE
  2
BLOCK_RECORD
  5
1
330
0
100
AcDbSymbolTable
 70
    13
  0
BLOCK_RECORD
  5
1F
102
{ACAD_XDICTIONARY
360
FF
102
}
330
1
100
AcDbSymbolTableRecord
100
AcDbBlockTableRecord
  2
*Model_Space
340
22
 70
     0
280
     1
281
     0
  0
BLOCK_RECORD
  5
1B
330
1
100
AcDbSymbolTableRecord
100
AcDbBlockTableRecord
  2
*Paper_Space
340
1E
 70
     0
280
     1
281
     0
  0
BLOCK_RECORD
  5
23
330
1
100
AcDbSymbolTableRecord
100
AcDbBlockTableRecord
  2
*Paper_Space0
340
26
 70
     0
280
     1
281
     0
  0
BLOCK_RECORD
  5
4
330
1
100
AcDbSymbolTableRecord
100
AcDbBlockTableRecord
  2
V236_LW_MRO13_720 RT_TEXT_1
340
0
102
{BLKREFS
331
101
331
2A
102
}
 70
     0
280
     1
281
     0
  0
BLOCK_RECORD
  5
32
330
1
100
AcDbSymbolTableRecord
100
AcDbBlockTableRecord
  2
29276884_INF_GF_HM_BI45_1000_54_CHORDWISE_V1_V236_LW_MRO13_720_R0_I52_DXF
340
0
 70
     0
280
     1
281
     0
  0
BLOCK_RECORD
  5
37
330
1
100
AcDbSymbolTableRecord
100
AcDbBlockTableRecord
  2
V236_LW_MRO13_721 RT_TEXT_2
340
0
102
{BLKREFS
331
109
331
3B
102
}
 70
     0
280
     1
281
     0
  0
BLOCK_RECORD
  5
43
330
1
100
AcDbSymbolTableRecord
100
AcDbBlockTableRecord
  2
29276884_INF_GF_HM_BI45_1000_54_CHORDWISE_V1_V236_LW_MRO13_721_R0_I52_DXF
340
0
 70
     0
280
     1
281
     0
  0
BLOCK_RECORD
  5
6A
330
1
100
AcDbSymbolTableRecord
100
AcDbBlockTableRecord
  2
V236_LW_MRO13_722 RT_TEXT_3
340
0
102
{BLKREFS
331
111
331
73
102
}
 70
     0
280
     1
281
     0
  0
BLOCK_RECORD
  5
7B
330
1
100
AcDbSymbolTableRecord
100
AcDbBlockTableRecord
  2
29276884_INF_GF_HM_BI45_1000_54_CHORDWISE_V1_V236_LW_MRO13_722_R0_I52_DXF
340
0
 70
     0
280
     1
281
     0
  0
BLOCK_RECORD
  5
82
330
1
100
AcDbSymbolTableRecord
100
AcDbBlockTableRecord
  2
V236_LW_MRO13_723 RT_TEXT_4
340
0
102
{BLKREFS
331
119
331
86
102
}
 70
     0
280
     1
281
     0
  0
BLOCK_RECORD
  5
8E
330
1
100
AcDbSymbolTableRecord
100
AcDbBlockTableRecord
  2
29276884_INF_GF_HM_BI45_1000_54_CHORDWISE_V1_V236_LW_MRO13_723_R0_I52_DXF
340
0
 70
     0
280
     1
281
     0
  0
BLOCK_RECORD
  5
93
330
1
100
AcDbSymbolTableRecord
100
AcDbBlockTableRecord
  2
V236_LW_MRO13_724 RT_TEXT_5
340
0
102
{BLKREFS
331
121
331
97
102
}
 70
     0
280
     1
281
     0
  0
BLOCK_RECORD
  5
9F
330
1
100
AcDbSymbolTableRecord
100
AcDbBlockTableRecord
  2
29276884_INF_GF_HM_BI45_1000_54_CHORDWISE_V1_V236_LW_MRO13_724_R0_I52_DXF
340
0
 70
     0
280
     1
281
     0
  0
BLOCK_RECORD
  5
A5
330
1
100
AcDbSymbolTableRecord
100
AcDbBlockTableRecord
  2
V236_LW_MRO13_725 RT_TEXT_6
340
0
102
{BLKREFS
331
129
331
A9
102
}
 70
     0
280
     1
281
     0
  0
BLOCK_RECORD
  5
B7
330
1
100
AcDbSymbolTableRecord
100
AcDbBlockTableRecord
  2
29276884_INF_GF_HM_BI45_1000_54_CHORDWISE_V1_V236_LW_MRO13_725_R1_I5_DXF
340
0
 70
     0
280
     1
281
     0
  0
ENDTAB
  0
ENDSEC
  0
SECTION
  2
BLOCKS
  0
BLOCK
  5
20
330
1F
100
AcDbEntity
  8
0
100
AcDbBlockBegin
  2
*Model_Space
 70
     0
 10
0.0
 20
0.0
 30
0.0
  3
*Model_Space
  1

  0
ENDBLK
  5
21
330
1F
100
AcDbEntity
  8
0
100
AcDbBlockEnd
  0
BLOCK
  5
1C
330
1B
100
AcDbEntity
 67
     1
  8
0
100
AcDbBlockBegin
  2
*Paper_Space
 70
     0
 10
0.0
 20
0.0
 30
0.0
  3
*Paper_Space
  1

  0
ENDBLK
  5
1D
330
1B
100
AcDbEntity
 67
     1
  8
0
100
AcDbBlockEnd
  0
BLOCK
  5
24
330
23
100
AcDbEntity
 67
     1
  8
0
100
AcDbBlockBegin
  2
*Paper_Space0
 70
     0
 10
0.0
 20
0.0
 30
0.0
  3
*Paper_Space0
  1

  0
ENDBLK
  5
25
330
23
100
AcDbEntity
 67
     1
  8
0
100
AcDbBlockEnd
  0
BLOCK
  5
13
330
4
100
AcDbEntity
  8
0
100
AcDbBlockBegin
  2
V236_LW_MRO13_720 RT_TEXT_1
 70
     0
 10
0.0
 20
0.0
 30
0.0
  3
V236_LW_MRO13_720 RT_TEXT_1
  1

  0
TEXT
  5
B
330
4
100
AcDbEntity
  8
TEXT
 62
    14
370
    13
100
AcDbText
 10
-288.976562
 20
372.411774
 30
0.0
 40
35.0
  1
V236_LW_MRO13_720 RT
 41
1.101504923356009
 72
     5
 11
318.228027
 21
372.411774
 31
0.0
100
AcDbText
  0
ENDBLK
  5
28
330
4
100
AcDbEntity
  8
0
100
AcDbBlockEnd
  0
BLOCK
  5
34
330
32
100
AcDbEntity
  8
0
100
AcDbBlockBegin
  2
29276884_INF_GF_HM_BI45_1000_54_CHORDWISE_V1_V236_LW_MRO13_720_R0_I52_DXF
 70
     0
 10
0.0
 20
0.0
 30
0.0
  3
29276884_INF_GF_HM_BI45_1000_54_CHORDWISE_V1_V236_LW_MRO13_720_R0_I52_DXF
  1

  0
INSERT
  5
2A
330
32
100
AcDbEntity
  8
TEXT
 62
     7
370
     0
100
AcDbBlockReference
  2
V236_LW_MRO13_720 RT_TEXT_1
 10
53882.984375
 20
26009.271484
 30
0.0
  0
POINT
  5
2B
330
32
100
AcDbEntity
  8
STRATEGYPOINT
 62
     7
370
     5
100
AcDbPoint
 10
53882.984375
 20
26009.271484
 30
0.0
  0
LINE
  5
2C
330
32
100
AcDbEntity
  8
ROSETTE
 62
   150
370
    35
100
AcDbLine
 10
53982.984375
 20
26009.271484
 30
0.0
 11
53882.984375
 21
26009.271484
 31
0.0
  0
LINE
  5
2D
330
32
100
AcDbEntity
  8
ROSETTE
 62
   150
370
    35
100
AcDbLine
 10
53882.984375
 20
26009.271484
 30
0.0
 11
53882.984375
 21
26059.271484
 31
0.0
  0
SPLINE
  5
2E
330
32
100
AcDbEntity
  8
OUTER
 62
     3
370
    35
100
AcDbSpline
210
0.0
220
0.0
230
1.0
 70
     8
 71
     5
 72
    15
 73
     9
 74
     0
 42
0.000000001
 43
0.0000000001
 40
0.0
 40
0.0
 40
0.0
 40
0.0
 40
0.0
 40
0.0
 40
792.2363237920198
 40
792.2363237920198
 40
792.2363237920198
 40
1505.862408339356
 40
1505.862408339356
 40
1505.862408339356
 40
1505.862408339356
 40
1505.862408339356
 40
1505.862408339356
 10
53238.0700151857
 20
25164.2804987401
 30
0.0
 10
53396.51727975179
 20
25164.2883061212
 30
0.0
 10
53554.9645479532
 20
25164.3037350655
 30
0.0
 10
53713.41181978929
 20
25164.3267607407
 30
0.0
 10
54014.5843144812
 20
25164.3645732099
 30
0.0
 10
54315.7567925114
 20
25164.3473357185
 30
0.0
 10
54458.4820008162
 20
25164.3181493628
 30
0.0
 10
54601.20719855151
 20
25164.2575236164
 30
0.0
 10
54743.9323856714
 20
25164.1653094635
 30
0.0
  0
SPLINE
  5
2F
330
32
100
AcDbEntity
  8
OUTER
 62
     3
370
    35
100
AcDbSpline
210
0.0
220
0.0
230
1.0
 70
     8
 71
     5
 72
    14
 73
     8
 74
     0
 42
0.000000001
 43
0.0000000001
 40
0.0
 40
0.0
 40
0.0
 40
0.0
 40
0.0
 40
0.0
 40
626.6211869736003
 40
1022.14012149468
 40
1271.829344873091
 40
1271.829344873091
 40
1271.829344873091
 40
1271.829344873091
 40
1271.829344873091
 40
1271.829344873091
 10
54743.9323856714
 20
25164.1653094635
 30
0.0
 10
54745.61378824059
 20
25289.4782671498
 30
0.0
 10
54748.53417239661
 20
25493.8854134714
 30
0.0
 10
54752.49872856339
 20
25748.2206345316
 30
0.0
 10
54756.63319790951
 20
26002.5538210916
 30
0.0
 10
54760.0287103097
 20
26256.8966894352
 30
0.0
 10
54761.47180491549
 20
26385.9300801544
 30
0.0
 10
54761.98758315731
 20
26435.8652611759
 30
0.0
  0
SPLINE
  5
30
330
32
100
AcDbEntity
  8
OUTER
 62
     3
370
    35
100
AcDbSpline
210
0.0
220
0.0
230
1.0
 70
     8
 71
     5
 72
    12
 73
     6
 74
     0
 42
0.000000001
 43
0.0000000001
 40
0.0
 40
0.0
 40
0.0
 40
0.0
 40
0.0
 40
0.0
 40
1523.824061716622
 40
1523.824061716622
 40
1523.824061716622
 40
1523.824061716622
 40
1523.824061716622
 40
1523.824061716622
 10
54761.9875831574
 20
26435.8652611759
 30
0.0
 10
54457.2228682813
 20
26435.6215212117
 30
0.0
 10
54152.4581761545
 20
26435.3566192963
 30
0.0
 10
53847.6935067347
 20
26435.0705940168
 30
0.0
 10
53542.92881725219
 20
26434.8024294122
 30
0.0
 10
53238.1641076648
 20
26434.5521640696
 30
0.0
  0
SPLINE
  5
31
330
32
100
AcDbEntity
  8
OUTER
 62
     3
370
    35
100
AcDbSpline
210
0.0
220
0.0
230
1.0
 70
     8
 71
     5
 72
    13
 73
     7
 74
     0
 42
0.000000001
 43
0.0000000001
 40
0.0
 40
0.0
 40
0.0
 40
0.0
 40
0.0
 40
0.0
 40
623.0180274420693
 40
1270.272035848992
 40
1270.272035848992
 40
1270.272035848992
 40
1270.272035848992
 40
1270.272035848992
 40
1270.272035848992
 10
53238.1641076649
 20
26434.5521640696
 30
0.0
 10
53238.0387958334
 20
26309.9486215936
 30
0.0
 10
53238.3248538365
 20
26055.89425274
 30
0.0
 10
53238.2810959715
 20
25801.8397755633
 30
0.0
 10
53238.1088242711
 20
25547.7855467686
 30
0.0
 10
53238.0348204434
 20
25293.731295637
 30
0.0
 10
53238.07001518559
 20
25164.2804987401
 30
0.0
  0
ENDBLK
  5
35
330
32
100
AcDbEntity
  8
0
100
AcDbBlockEnd
  0
BLOCK
  5
39
330
37
100
AcDbEntity
  8
0
100
AcDbBlockBegin
  2
V236_LW_MRO13_721 RT_TEXT_2
 70
     0
 10
0.0
 20
0.0
 30
0.0
  3
V236_LW_MRO13_721 RT_TEXT_2
  1

  0
TEXT
  5
38
330
37
100
AcDbEntity
  8
TEXT
 62
    14
370
    13
100
AcDbText
 10
-294.636719
 20
300.939117
 30
0.0
 40
35.0
  1
V236_LW_MRO13_721 RT
 41
1.115672191088654
 72
     5
 11
312.567871
 21
300.939117
 31
0.0
100
AcDbText
  0
ENDBLK
  5
3A
330
37
100
AcDbEntity
  8
0
100
AcDbBlockEnd
  0
BLOCK
  5
45
330
43
100
AcDbEntity
  8
0
100
AcDbBlockBegin
  2
29276884_INF_GF_HM_BI45_1000_54_CHORDWISE_V1_V236_LW_MRO13_721_R0_I52_DXF
 70
     0
 10
0.0
 20
0.0
 30
0.0
  3
29276884_INF_GF_HM_BI45_1000_54_CHORDWISE_V1_V236_LW_MRO13_721_R0_I52_DXF
  1

  0
INSERT
  5
3B
330
43
100
AcDbEntity
  8
TEXT
 62
     7
370
     0
100
AcDbBlockReference
  2
V236_LW_MRO13_721 RT_TEXT_2
 10
53882.984375
 20
26009.271484
 30
0.0
  0
POINT
  5
3C
330
43
100
AcDbEntity
  8
STRATEGYPOINT
 62
     7
370
     5
100
AcDbPoint
 10
53882.984375
 20
26009.271484
 30
0.0
  0
LINE
  5
3D
330
43
100
AcDbEntity
  8
ROSETTE
 62
   150
370
    35
100
AcDbLine
 10
53982.984375
 20
26009.271484
 30
0.0
 11
53882.984375
 21
26009.271484
 31
0.0
  0
LINE
  5
3E
330
43
100
AcDbEntity
  8
ROSETTE
 62
   150
370
    35
100
AcDbLine
 10
53882.984375
 20
26009.271484
 30
0.0
 11
53882.984375
 21
26059.271484
 31
0.0
  0
SPLINE
  5
3F
330
43
100
AcDbEntity
  8
OUTER
 62
     3
370
    35
100
AcDbSpline
210
0.0
220
0.0
230
1.0
 70
     8
 71
     5
 72
    12
 73
     6
 74
     0
 42
0.000000001
 43
0.0000000001
 40
0.0
 40
0.0
 40
0.0
 40
0.0
 40
0.0
 40
0.0
 40
1467.17586378785
 40
1467.17586378785
 40
1467.17586378785
 40
1467.17586378785
 40
1467.17586378785
 40
1467.17586378785
 10
53257.70519374059
 20
25094.3874423689
 30
0.0
 10
53551.14036602699
 20
25094.4040779157
 30
0.0
 10
53844.5755291094
 20
25094.4625591644
 30
0.0
 10
54138.0106850287
 20
25094.5545656357
 30
0.0
 10
54431.44584639269
 20
25094.6287058953
 30
0.0
 10
54724.8810152322
 20
25094.6766589323
 30
0.0
  0
SPLINE
  5
40
330
43
100
AcDbEntity
  8
OUTER
 62
     3
370
    35
100
AcDbSpline
210
0.0
220
0.0
230
1.0
 70
     8
 71
     5
 72
    14
 73
     8
 74
     0
 42
0.000000001
 43
0.0000000001
 40
0.0
 40
0.0
 40
0.0
 40
0.0
 40
0.0
 40
0.0
 40
329.1701432907816
 40
637.3324256278131
 40
1271.214833553913
 40
1271.214833553913
 40
1271.214833553913
 40
1271.214833553913
 40
1271.214833553913
 40
1271.214833553913
 10
54724.8810152322
 20
25094.6766589323
 30
0.0
 10
54725.8798659966
 20
25160.5031097444
 30
0.0
 10
54727.7714357496
 20
25287.9555039719
 30
0.0
 10
54731.3259619466
 20
25542.1734677638
 30
0.0
 10
54734.18506861531
 20
25796.4009004868
 30
0.0
 10
54738.5780477799
 20
26050.6072921351
 30
0.0
 10
54741.09196237169
 20
26238.9994106702
 30
0.0
 10
54742.53141366539
 20
26365.7677200504
 30
0.0
  0
SPLINE
  5
41
330
43
100
AcDbEntity
  8
OUTER
 62
     3
370
    35
100
AcDbSpline
210
0.0
220
0.0
230
1.0
 70
     8
 71
     5
 72
    12
 73
     6
 74
     0
 42
0.000000001
 43
0.0000000001
 40
0.0
 40
0.0
 40
0.0
 40
0.0
 40
0.0
 40
0.0
 40
1484.833009001476
 40
1484.833009001476
 40
1484.833009001476
 40
1484.833009001476
 40
1484.833009001476
 40
1484.833009001476
 10
54742.53141366539
 20
26365.7677200504
 30
0.0
 10
54445.5649179451
 20
26365.5167137807
 30
0.0
 10
54148.5984513111
 20
26365.2291784108
 30
0.0
 10
53851.632011105
 20
26364.908782964
 30
0.0
 10
53554.6655054945
 20
26364.6821135915
 30
0.0
 10
53257.69893185139
 20
26364.5527941353
 30
0.0
  0
SPLINE
  5
42
330
43
100
AcDbEntity
  8
OUTER
 62
     3
370
    35
100
AcDbSpline
210
0.0
220
0.0
230
1.0
 70
     8
 71
     5
 72
    12
 73
     6
 74
     0
 42
0.000000001
 43
0.0000000001
 40
0.0
 40
0.0
 40
0.0
 40
0.0
 40
0.0
 40
0.0
 40
1270.165502176962
 40
1270.165502176962
 40
1270.165502176962
 40
1270.165502176962
 40
1270.165502176962
 40
1270.165502176962
 10
53257.69893185139
 20
26364.5527941353
 30
0.0
 10
53257.9471376897
 20
26110.5198149566
 30
0.0
 10
53257.8214786886
 20
25856.4866420679
 30
0.0
 10
53257.81022773599
 20
25602.4535889338
 30
0.0
 10
53257.96848886289
 20
25348.4204063568
 30
0.0
 10
53257.70519374059
 20
25094.3874423689
 30
0.0
  0
ENDBLK
  5
46
330
43
100
AcDbEntity
  8
0
100
AcDbBlockEnd
  0
BLOCK
  5
6C
330
6A
100
AcDbEntity
  8
0
100
AcDbBlockBegin
  2
V236_LW_MRO13_722 RT_TEXT_3
 70
     0
 10
0.0
 20
0.0
 30
0.0
  3
V236_LW_MRO13_722 RT_TEXT_3
  1

  0
TEXT
  5
6B
330
6A
100
AcDbEntity
  8
TEXT
 62
    14
370
    13
100
AcDbText
 10
-299.730469
 20
230.466476
 30
0.0
 40
35.0
  1
V236_LW_MRO13_722 RT
 41
1.101504925170068
 72
     5
 11
307.474121
 21
230.466476
 31
0.0
100
AcDbText
  0
ENDBLK
  5
6D
330
6A
100
AcDbEntity
  8
0
100
AcDbBlockEnd
  0
BLOCK
  5
7D
330
7B
100
AcDbEntity
  8
0
100
AcDbBlockBegin
  2
29276884_INF_GF_HM_BI45_1000_54_CHORDWISE_V1_V236_LW_MRO13_722_R0_I52_DXF
 70
     0
 10
0.0
 20
0.0
 30
0.0
  3
29276884_INF_GF_HM_BI45_1000_54_CHORDWISE_V1_V236_LW_MRO13_722_R0_I52_DXF
  1

  0
INSERT
  5
73
330
7B
100
AcDbEntity
  8
TEXT
 62
     7
370
     0
100
AcDbBlockReference
  2
V236_LW_MRO13_722 RT_TEXT_3
 10
53882.984375
 20
26009.271484
 30
0.0
  0
POINT
  5
74
330
7B
100
AcDbEntity
  8
STRATEGYPOINT
 62
     7
370
     5
100
AcDbPoint
 10
53882.984375
 20
26009.271484
 30
0.0
  0
LINE
  5
75
330
7B
100
AcDbEntity
  8
ROSETTE
 62
   150
370
    35
100
AcDbLine
 10
53982.984375
 20
26009.271484
 30
0.0
 11
53882.984375
 21
26009.271484
 31
0.0
  0
LINE
  5
76
330
7B
100
AcDbEntity
  8
ROSETTE
 62
   150
370
    35
100
AcDbLine
 10
53882.984375
 20
26009.271484
 30
0.0
 11
53882.984375
 21
26059.271484
 31
0.0
  0
SPLINE
  5
77
330
7B
100
AcDbEntity
  8
OUTER
 62
     3
370
    35
100
AcDbSpline
210
0.0
220
0.0
230
1.0
 70
     8
 71
     5
 72
    12
 73
     6
 74
     0
 42
0.000000001
 43
0.0000000001
 40
0.0
 40
0.0
 40
0.0
 40
0.0
 40
0.0
 40
0.0
 40
1428.520984743148
 40
1428.520984743148
 40
1428.520984743148
 40
1428.520984743148
 40
1428.520984743148
 40
1428.520984743148
 10
53277.0962300955
 20
25024.5280478686
 30
0.0
 10
53562.80038714389
 20
25024.6790432594
 30
0.0
 10
53848.5045157661
 20
25024.9028865335
 30
0.0
 10
54134.2086179937
 20
25025.1935193259
 30
0.0
 10
54419.91276639259
 20
25025.3348122917
 30
0.0
 10
54705.61696299309
 20
25025.3207080635
 30
0.0
  0
SPLINE
  5
78
330
7B
100
AcDbEntity
  8
OUTER
 62
     3
370
    35
100
AcDbSpline
210
0.0
220
0.0
230
1.0
 70
     8
 71
     5
 72
    17
 73
    11
 74
     0
 42
0.000000001
 43
0.0000000001
 40
0.0
 40
0.0
 40
0.0
 40
0.0
 40
0.0
 40
0.0
 40
308.728883407945
 40
470.8461550274441
 40
791.5131660301247
 40
933.3725195486852
 40
933.3725195486852
 40
1270.315369289015
 40
1270.315369289015
 40
1270.315369289015
 40
1270.315369289015
 40
1270.315369289015
 40
1270.315369289015
 10
54705.6169629932
 20
25025.3207080635
 30
0.0
 10
54706.39097995059
 20
25087.0616331926
 30
0.0
 10
54707.883301527
 20
25181.2190467093
 30
0.0
 10
54710.9481783149
 20
25339.4938539572
 30
0.0
 10
54712.92831590889
 20
25526.1584367732
 30
0.0
 10
54714.2578302832
 20
25712.8299697362
 30
0.0
 10
54716.5176591041
 20
25905.1331350714
 30
0.0
 10
54719.2461837292
 20
26065.0043083051
 30
0.0
 10
54720.7239007559
 20
26160.7534009844
 30
0.0
 10
54721.6377473828
 20
26228.1357116679
 30
0.0
 10
54722.441990978
 20
26295.519482354
 30
0.0
  0
SPLINE
  5
79
330
7B
100
AcDbEntity
  8
OUTER
 62
     3
370
    35
100
AcDbSpline
210
0.0
220
0.0
230
1.0
 70
     8
 71
     5
 72
    12
 73
     6
 74
     0
 42
0.000000001
 43
0.0000000001
 40
0.0
 40
0.0
 40
0.0
 40
0.0
 40
0.0
 40
0.0
 40
1445.167457725682
 40
1445.167457725682
 40
1445.167457725682
 40
1445.167457725682
 40
1445.167457725682
 40
1445.167457725682
 10
54722.441990978
 20
26295.519482354
 30
0.0
 10
54433.4086819191
 20
26295.1946912594
 30
0.0
 10
54144.37523977849
 20
26295.0232690241
 30
0.0
 10
53855.3416750928
 20
26294.9930082672
 30
0.0
 10
53566.3082259217
 20
26294.8279880001
 30
0.0
 10
53277.2749029769
 20
26294.5157984198
 30
0.0
  0
SPLINE
  5
7A
330
7B
100
AcDbEntity
  8
OUTER
 62
     3
370
    35
100
AcDbSpline
210
0.0
220
0.0
230
1.0
 70
     8
 71
     5
 72
    12
 73
     6
 74
     0
 42
0.000000001
 43
0.0000000001
 40
0.0
 40
0.0
 40
0.0
 40
0.0
 40
0.0
 40
0.0
 40
1269.988039166977
 40
1269.988039166977
 40
1269.988039166977
 40
1269.988039166977
 40
1269.988039166977
 40
1269.988039166977
 10
53277.274902977
 20
26294.5157984199
 30
0.0
 10
53276.8455366287
 20
26040.5185534952
 30
0.0
 10
53276.9937055464
 20
25786.5208071131
 30
0.0
 10
53277.5450457104
 20
25532.5227190512
 30
0.0
 10
53277.637352368
 20
25278.5250792918
 30
0.0
 10
53277.0962300955
 20
25024.5280478686
 30
0.0
  0
ENDBLK
  5
7E
330
7B
100
AcDbEntity
  8
0
100
AcDbBlockEnd
  0
BLOCK
  5
84
330
82
100
AcDbEntity
  8
0
100
AcDbBlockBegin
  2
V236_LW_MRO13_723 RT_TEXT_4
 70
     0
 10
0.0
 20
0.0
 30
0.0
  3
V236_LW_MRO13_723 RT_TEXT_4
  1

  0
TEXT
  5
83
330
82
100
AcDbEntity
  8
TEXT
 62
    14
370
    13
100
AcDbText
 10
-318.21875
 20
160.653976
 30
0.0
 40
35.0
  1
V236_LW_MRO13_723 RT
 41
1.101504925170068
 72
     5
 11
288.98584
 21
160.653976
 31
0.0
100
AcDbText
  0
ENDBLK
  5
85
330
82
100
AcDbEntity
  8
0
100
AcDbBlockEnd
  0
BLOCK
  5
90
330
8E
100
AcDbEntity
  8
0
100
AcDbBlockBegin
  2
29276884_INF_GF_HM_BI45_1000_54_CHORDWISE_V1_V236_LW_MRO13_723_R0_I52_DXF
 70
     0
 10
0.0
 20
0.0
 30
0.0
  3
29276884_INF_GF_HM_BI45_1000_54_CHORDWISE_V1_V236_LW_MRO13_723_R0_I52_DXF
  1

  0
INSERT
  5
86
330
8E
100
AcDbEntity
  8
TEXT
 62
     7
370
     0
100
AcDbBlockReference
  2
V236_LW_MRO13_723 RT_TEXT_4
 10
53882.984375
 20
26009.271484
 30
0.0
  0
POINT
  5
87
330
8E
100
AcDbEntity
  8
STRATEGYPOINT
 62
     7
370
     5
100
AcDbPoint
 10
53882.984375
 20
26009.271484
 30
0.0
  0
LINE
  5
88
330
8E
100
AcDbEntity
  8
ROSETTE
 62
   150
370
    35
100
AcDbLine
 10
53982.984375
 20
26009.271484
 30
0.0
 11
53882.984375
 21
26009.271484
 31
0.0
  0
LINE
  5
89
330
8E
100
AcDbEntity
  8
ROSETTE
 62
   150
370
    35
100
AcDbLine
 10
53882.984375
 20
26009.271484
 30
0.0
 11
53882.984375
 21
26059.271484
 31
0.0
  0
SPLINE
  5
8A
330
8E
100
AcDbEntity
  8
OUTER
 62
     3
370
    35
100
AcDbSpline
210
0.0
220
0.0
230
1.0
 70
     8
 71
     5
 72
    12
 73
     6
 74
     0
 42
0.000000001
 43
0.0000000001
 40
0.0
 40
0.0
 40
0.0
 40
0.0
 40
0.0
 40
0.0
 40
1388.168178802528
 40
1388.168178802528
 40
1388.168178802528
 40
1388.168178802528
 40
1388.168178802528
 40
1388.168178802528
 10
53296.6730345072
 20
24954.5724243838
 30
0.0
 10
53574.3066103898
 20
24954.7547655711
 30
0.0
 10
53851.9401193944
 20
24955.12555874
 30
0.0
 10
54129.5738082803
 20
24954.68338754931
 30
0.0
 10
54407.2073463849
 20
24955.5180269983
 30
0.0
 10
54684.8409483207
 20
24955.3809805406
 30
0.0
  0
SPLINE
  5
8B
330
8E
100
AcDbEntity
  8
OUTER
 62
     3
370
    35
100
AcDbSpline
210
0.0
220
0.0
230
1.0
 70
     8
 71
     5
 72
    17
 73
    11
 74
     0
 42
0.000000001
 43
0.0000000001
 40
0.0
 40
0.0
 40
0.0
 40
0.0
 40
0.0
 40
0.0
 40
284.9586732670693
 40
284.9586732670693
 40
454.7534012932223
 40
714.4122881288182
 40
874.2784531880907
 40
1269.870979471324
 40
1269.870979471324
 40
1269.870979471324
 40
1269.870979471324
 40
1269.870979471324
 40
1269.870979471324
 10
54684.8409483207
 20
24955.3809805406
 30
0.0
 10
54685.67615025089
 20
25012.3665950108
 30
0.0
 10
54686.52173299281
 20
25069.3520421652
 30
0.0
 10
54687.9156718522
 20
25160.2921241012
 30
0.0
 10
54690.4459526036
 20
25303.1527105461
 30
0.0
 10
54692.9781926731
 20
25477.9894961915
 30
0.0
 10
54694.0343487563
 20
25674.971220848
 30
0.0
 10
54694.93197657889
 20
25871.9539910716
 30
0.0
 10
54698.2060579018
 20
26034.9493496294
 30
0.0
 10
54700.07012175269
 20
26146.0252979888
 30
0.0
 10
54701.3089707693
 20
26225.1341036122
 30
0.0
  0
SPLINE
  5
8C
330
8E
100
AcDbEntity
  8
OUTER
 62
     3
370
    35
100
AcDbSpline
210
0.0
220
0.0
230
1.0
 70
     8
 71
     5
 72
    12
 73
     6
 74
     0
 42
0.000000001
 43
0.0000000001
 40
0.0
 40
0.0
 40
0.0
 40
0.0
 40
0.0
 40
0.0
 40
1404.358626323186
 40
1404.358626323186
 40
1404.358626323186
 40
1404.358626323186
 40
1404.358626323186
 40
1404.358626323186
 10
54701.3089707692
 20
26225.1341036122
 30
0.0
 10
54420.43726960539
 20
26225.0177491871
 30
0.0
 10
54139.56558519029
 20
26224.8785309679
 30
0.0
 10
53858.69391749099
 20
26224.7164940478
 30
0.0
 10
53577.8222332805
 20
26224.5767840079
 30
0.0
 10
53296.9505325257
 20
26224.4594459413
 30
0.0
  0
SPLINE
  5
8D
330
8E
100
AcDbEntity
  8
OUTER
 62
     3
370
    35
100
AcDbSpline
210
0.0
220
0.0
230
1.0
 70
     8
 71
     5
 72
    13
 73
     7
 74
     0
 42
0.000000001
 43
0.0000000001
 40
0.0
 40
0.0
 40
0.0
 40
0.0
 40
0.0
 40
0.0
 40
784.4223431338601
 40
1269.88743416827
 40
1269.88743416827
 40
1269.88743416827
 40
1269.88743416827
 40
1269.88743416827
 40
1269.88743416827
 10
53296.9505325257
 20
26224.4594459414
 30
0.0
 10
53296.7993703227
 20
26067.575050139
 30
0.0
 10
53297.23524496389
 20
25813.5973722968
 30
0.0
 10
53296.143277727
 20
25559.6201090633
 30
0.0
 10
53297.46781857361
 20
25305.6426753645
 30
0.0
 10
53296.59725248089
 20
25051.6654130164
 30
0.0
 10
53296.6730345072
 20
24954.5724243838
 30
0.0
  0
ENDBLK
  5
91
330
8E
100
AcDbEntity
  8
0
100
AcDbBlockEnd
  0
BLOCK
  5
95
330
93
100
AcDbEntity
  8
0
100
AcDbBlockBegin
  2
V236_LW_MRO13_724 RT_TEXT_5
 70
     0
 10
0.0
 20
0.0
 30
0.0
  3
V236_LW_MRO13_724 RT_TEXT_5
  1

  0
TEXT
  5
94
330
93
100
AcDbEntity
  8
TEXT
 62
    14
370
    13
100
AcDbText
 10
-330.484375
 20
90.86295300000001
 30
0.0
 40
35.0
  1
V236_LW_MRO13_724 RT
 41
1.09455536728256
 72
     5
 11
276.720215
 21
90.86295300000001
 31
0.0
100
AcDbText
  0
ENDBLK
  5
96
330
93
100
AcDbEntity
  8
0
100
AcDbBlockEnd
  0
BLOCK
  5
A1
330
9F
100
AcDbEntity
  8
0
100
AcDbBlockBegin
  2
29276884_INF_GF_HM_BI45_1000_54_CHORDWISE_V1_V236_LW_MRO13_724_R0_I52_DXF
 70
     0
 10
0.0
 20
0.0
 30
0.0
  3
29276884_INF_GF_HM_BI45_1000_54_CHORDWISE_V1_V236_LW_MRO13_724_R0_I52_DXF
  1

  0
INSERT
  5
97
330
9F
100
AcDbEntity
  8
TEXT
 62
     7
370
     0
100
AcDbBlockReference
  2
V236_LW_MRO13_724 RT_TEXT_5
 10
53882.984375
 20
26009.271484
 30
0.0
  0
POINT
  5
98
330
9F
100
AcDbEntity
  8
STRATEGYPOINT
 62
     7
370
     5
100
AcDbPoint
 10
53882.984375
 20
26009.271484
 30
0.0
  0
LINE
  5
99
330
9F
100
AcDbEntity
  8
ROSETTE
 62
   150
370
    35
100
AcDbLine
 10
53982.984375
 20
26009.271484
 30
0.0
 11
53882.984375
 21
26009.271484
 31
0.0
  0
LINE
  5
9A
330
9F
100
AcDbEntity
  8
ROSETTE
 62
   150
370
    35
100
AcDbLine
 10
53882.984375
 20
26009.271484
 30
0.0
 11
53882.984375
 21
26059.271484
 31
0.0
  0
SPLINE
  5
9B
330
9F
100
AcDbEntity
  8
OUTER
 62
     3
370
    35
100
AcDbSpline
210
0.0
220
0.0
230
1.0
 70
     8
 71
     5
 72
    12
 73
     6
 74
     0
 42
0.000000001
 43
0.0000000001
 40
0.0
 40
0.0
 40
0.0
 40
0.0
 40
0.0
 40
0.0
 40
1345.34000657647
 40
1345.34000657647
 40
1345.34000657647
 40
1345.34000657647
 40
1345.34000657647
 40
1345.34000657647
 10
53316.7724057962
 20
24884.5168694673
 30
0.0
 10
53585.8403695887
 20
24884.658970252
 30
0.0
 10
53854.90835202491
 20
24884.7555262416
 30
0.0
 10
54123.9763460308
 20
24884.8213467772
 30
0.0
 10
54393.04430565999
 20
24884.9526051133
 30
0.0
 10
54662.1122238471
 20
24885.164109844
 30
0.0
  0
SPLINE
  5
9C
330
9F
100
AcDbEntity
  8
OUTER
 62
     3
370
    35
100
AcDbSpline
210
0.0
220
0.0
230
1.0
 70
     8
 71
     5
 72
    17
 73
    11
 74
     0
 42
0.000000001
 43
0.0000000001
 40
0.0
 40
0.0
 40
0.0
 40
0.0
 40
0.0
 40
0.0
 40
317.8797093207522
 40
553.8813370191783
 40
632.5436957476187
 40
868.5330428929589
 40
947.1973328199107
 40
1269.655871189081
 40
1269.655871189081
 40
1269.655871189081
 40
1269.655871189081
 40
1269.655871189081
 40
1269.655871189081
 10
54662.1122238471
 20
24885.164109844
 30
0.0
 10
54663.0037330858
 20
24948.7338006973
 30
0.0
 10
54664.7096969154
 20
25059.4969303089
 30
0.0
 10
54666.84719760539
 20
25185.988047939
 30
0.0
 10
54669.5146295037
 20
25359.6747379985
 30
0.0
 10
54671.0572633741
 20
25549.10811757
 30
0.0
 10
54672.52278309259
 20
25739.4585067837
 30
0.0
 10
54674.10071462159
 20
25882.6045937442
 30
0.0
 10
54676.343986273
 20
26010.007932384
 30
0.0
 10
54677.6854788728
 20
26090.2213946768
 30
0.0
 10
54678.6491053572
 20
26154.7059027596
 30
0.0
  0
SPLINE
  5
9D
330
9F
100
AcDbEntity
  8
OUTER
 62
     3
370
    35
100
AcDbSpline
210
0.0
220
0.0
230
1.0
 70
     8
 71
     5
 72
    12
 73
     6
 74
     0
 42
0.000000001
 43
0.0000000001
 40
0.0
 40
0.0
 40
0.0
 40
0.0
 40
0.0
 40
0.0
 40
1361.777685667653
 40
1361.777685667653
 40
1361.777685667653
 40
1361.777685667653
 40
1361.777685667653
 40
1361.777685667653
 10
54678.6491053572
 20
26154.7059027596
 30
0.0
 10
54406.29359134719
 20
26154.5936723257
 30
0.0
 10
54133.9380755576
 20
26154.5131707324
 30
0.0
 10
53861.5825579854
 20
26154.4643711572
 30
0.0
 10
53589.22703431329
 20
26154.4083293365
 30
0.0
 10
53316.8715045382
 20
26154.3450184478
 30
0.0
  0
SPLINE
  5
9E
330
9F
100
AcDbEntity
  8
OUTER
 62
     3
370
    35
100
AcDbSpline
210
0.0
220
0.0
230
1.0
 70
     8
 71
     5
 72
    14
 73
     8
 74
     0
 42
0.000000001
 43
0.0000000001
 40
0.0
 40
0.0
 40
0.0
 40
0.0
 40
0.0
 40
0.0
 40
646.5312351318672
 40
951.3388820339176
 40
1269.82837486729
 40
1269.82837486729
 40
1269.82837486729
 40
1269.82837486729
 40
1269.82837486729
 40
1269.82837486729
 10
53316.87150453809
 20
26154.3450184478
 30
0.0
 10
53316.85860692059
 20
26025.0387720647
 30
0.0
 10
53316.9708922207
 20
25834.7709909644
 30
0.0
 10
53316.4014225892
 20
25580.8053793997
 30
0.0
 10
53317.1120542121
 20
25326.8397509111
 30
0.0
 10
53316.5889352571
 20
25072.8741693703
 30
0.0
 10
53316.81249622651
 20
24948.2147554178
 30
0.0
 10
53316.7724057962
 20
24884.5168694673
 30
0.0
  0
ENDBLK
  5
A2
330
9F
100
AcDbEntity
  8
0
100
AcDbBlockEnd
  0
BLOCK
  5
A7
330
A5
100
AcDbEntity
  8
0
100
AcDbBlockBegin
  2
V236_LW_MRO13_725 RT_TEXT_6
 70
     0
 10
0.0
 20
0.0
 30
0.0
  3
V236_LW_MRO13_725 RT_TEXT_6
  1

  0
TEXT
  5
A6
330
A5
100
AcDbEntity
  8
TEXT
 62
    14
370
    13
100
AcDbText
 10
-315.90625
 20
17.056314
 30
0.0
 40
35.0
  1
V236_LW_MRO13_725 RT
 41
1.101504925170068
 72
     5
 11
291.29834
 21
17.056314
 31
0.0
100
AcDbText
  0
ENDBLK
  5
A8
330
A5
100
AcDbEntity
  8
0
100
AcDbBlockEnd
  0
BLOCK
  5
B9
330
B7
100
AcDbEntity
  8
0
100
AcDbBlockBegin
  2
29276884_INF_GF_HM_BI45_1000_54_CHORDWISE_V1_V236_LW_MRO13_725_R1_I5_DXF
 70
     0
 10
0.0
 20
0.0
 30
0.0
  3
29276884_INF_GF_HM_BI45_1000_54_CHORDWISE_V1_V236_LW_MRO13_725_R1_I5_DXF
  1

  0
INSERT
  5
A9
330
B7
100
AcDbEntity
  8
TEXT
 62
     7
370
     0
100
AcDbBlockReference
  2
V236_LW_MRO13_725 RT_TEXT_6
 10
53882.984375
 20
26009.271484
 30
0.0
  0
POINT
  5
AA
330
B7
100
AcDbEntity
  8
STRATEGYPOINT
 62
     7
370
     5
100
AcDbPoint
 10
53882.984375
 20
26009.271484
 30
0.0
  0
LINE
  5
AB
330
B7
100
AcDbEntity
  8
MARKERS
 62
     5
370
    35
100
AcDbLine
 10
54727.98437499999
 20
26009.271484
 30
0.0
 11
53266.984375
 21
26009.271484
 31
0.0
  0
LINE
  5
AC
330
B7
100
AcDbEntity
  8
MARKERS
 62
     5
370
    35
100
AcDbLine
 10
54724.984375
 20
25709.271484
 30
0.0
 11
53265.984375
 21
25709.271484
 31
0.0
  0
LINE
  5
AD
330
B7
100
AcDbEntity
  8
MARKERS
 62
     5
370
    35
100
AcDbLine
 10
54719.98437499999
 20
25409.271484
 30
0.0
 11
53267.98437499999
 21
25409.271484
 31
0.0
  0
LINE
  5
AE
330
B7
100
AcDbEntity
  8
MARKERS
 62
     5
370
    35
100
AcDbLine
 10
54694.984375
 20
25109.271484
 30
0.0
 11
53285.984375
 21
25109.271484
 31
0.0
  0
LINE
  5
AF
330
B7
100
AcDbEntity
  8
MARKERS
 62
     5
370
    35
100
AcDbLine
 10
54624.98437499999
 20
24909.271484
 30
0.0
 11
53346.984375
 21
24909.271484
 31
0.0
  0
LINE
  5
B0
330
B7
100
AcDbEntity
  8
MARKERS
 62
     5
370
    35
100
AcDbLine
 10
54730.984375
 20
26309.271484
 30
0.0
 11
53266.984375
 21
26309.271484
 31
0.0
  0
LINE
  5
B1
330
B7
100
AcDbEntity
  8
ROSETTE
 62
   150
370
    35
100
AcDbLine
 10
53982.984375
 20
26009.271484
 30
0.0
 11
53882.984375
 21
26009.271484
 31
0.0
  0
LINE
  5
B2
330
B7
100
AcDbEntity
  8
ROSETTE
 62
   150
370
    35
100
AcDbLine
 10
53882.984375
 20
26009.271484
 30
0.0
 11
53882.984375
 21
26059.271484
 31
0.0
  0
SPLINE
  5
B3
330
B7
100
AcDbEntity
  8
OUTER
 62
     3
370
    35
100
AcDbSpline
210
0.0
220
0.0
230
1.0
 70
     8
 71
     5
 72
    12
 73
     6
 74
     0
 42
0.000000001
 43
0.0000000001
 40
0.0
 40
0.0
 40
0.0
 40
0.0
 40
0.0
 40
0.0
 40
1301.263256928581
 40
1301.263256928581
 40
1301.263256928581
 40
1301.263256928581
 40
1301.263256928581
 40
1301.263256928581
 10
53337.1248778228
 20
24814.5111907704
 30
0.0
 10
53597.37746834079
 20
24814.6891853878
 30
0.0
 10
53857.63012335909
 20
24814.7429087164
 30
0.0
 10
54117.8828219333
 20
24814.709657678
 30
0.0
 10
54378.135444697
 20
24814.8020257962
 30
0.0
 10
54638.3879704768
 20
24815.0577180917
 30
0.0
  0
SPLINE
  5
B4
330
B7
100
AcDbEntity
  8
OUTER
 62
     3
370
    35
100
AcDbSpline
210
0.0
220
0.0
230
1.0
 70
     8
 71
     5
 72
    16
 73
    10
 74
     0
 42
0.000000001
 43
0.0000000001
 40
0.0
 40
0.0
 40
0.0
 40
0.0
 40
0.0
 40
0.0
 40
159.122943152199
 40
546.1269933029265
 40
642.8735410049994
 40
797.6639353355063
 40
1269.306087560373
 40
1269.306087560373
 40
1269.306087560373
 40
1269.306087560373
 40
1269.306087560373
 40
1269.306087560373
 10
54638.3879704768
 20
24815.0577180917
 30
0.0
 10
54639.006479708
 20
24846.8762958071
 30
0.0
 10
54640.98443660139
 20
24956.0837074361
 30
0.0
 10
54642.75896260621
 20
25084.6467006795
 30
0.0
 10
54645.6830542997
 20
25244.1541095643
 30
0.0
 10
54648.6367648849
 20
25497.9980435358
 30
0.0
 10
54650.4545379813
 20
25720.0282664301
 30
0.0
 10
54652.716886535
 20
25864.6474977383
 30
0.0
 10
54654.6662055601
 20
25989.9187705324
 30
0.0
 10
54656.1821940223
 20
26084.235018174
 30
0.0
  0
SPLINE
  5
B5
330
B7
100
AcDbEntity
  8
OUTER
 62
     3
370
    35
100
AcDbSpline
210
0.0
220
0.0
230
1.0
 70
     8
 71
     5
 72
    12
 73
     6
 74
     0
 42
0.000000001
 43
0.0000000001
 40
0.0
 40
0.0
 40
0.0
 40
0.0
 40
0.0
 40
0.0
 40
1319.165663699095
 40
1319.165663699095
 40
1319.165663699095
 40
1319.165663699095
 40
1319.165663699095
 40
1319.165663699095
 10
54656.1821940223
 20
26084.235018174
 30
0.0
 10
54392.3490613698
 20
26084.241804996
 30
0.0
 10
54128.51593548639
 20
26084.23718059
 30
0.0
 10
53864.68281635981
 20
26084.2211728958
 30
0.0
 10
53600.84969087179
 20
26084.2239170682
 30
0.0
 10
53337.01655901
 20
26084.2454410471
 30
0.0
  0
SPLINE
  5
B6
330
B7
100
AcDbEntity
  8
OUTER
 62
     3
370
    35
100
AcDbSpline
210
0.0
220
0.0
230
1.0
 70
     8
 71
     5
 72
    12
 73
     6
 74
     0
 42
0.000000001
 43
0.0000000001
 40
0.0
 40
0.0
 40
0.0
 40
0.0
 40
0.0
 40
0.0
 40
1269.734448822179
 40
1269.734448822179
 40
1269.734448822179
 40
1269.734448822179
 40
1269.734448822179
 40
1269.734448822179
 10
53337.01655901
 20
26084.2454410471
 30
0.0
 10
53337.1197150475
 20
25830.29857223471
 30
0.0
 10
53337.04856921809
 20
25576.3516758005
 30
0.0
 10
53336.83080945999
 20
25322.4047594241
 30
0.0
 10
53336.8470203459
 20
25068.4579285251
 30
0.0
 10
53337.1248778228
 20
24814.5111907704
 30
0.0
  0
ENDBLK
  5
BA
330
B7
100
AcDbEntity
  8
0
100
AcDbBlockEnd
  0
ENDSEC
  0
SECTION
  2
ENTITIES
  0
INSERT
  5
101
330
1F
100
AcDbEntity
  8
TEXT
 62
     7
370
     0
100
AcDbBlockReference
  2
V236_LW_MRO13_720 RT_TEXT_1
 10
53882.984375
 20
26009.271484
 30
0.0
  0
POINT
  5
102
330
1F
100
AcDbEntity
  8
STRATEGYPOINT
 62
     7
370
     5
100
AcDbPoint
 10
53882.984375
 20
26009.271484
 30
0.0
  0
LINE
  5
103
330
1F
100
AcDbEntity
  8
ROSETTE
 62
   150
370
    35
100
AcDbLine
 10
53982.984375
 20
26009.271484
 30
0.0
 11
53882.984375
 21
26009.271484
 31
0.0
  0
LINE
  5
104
330
1F
100
AcDbEntity
  8
ROSETTE
 62
   150
370
    35
100
AcDbLine
 10
53882.984375
 20
26009.271484
 30
0.0
 11
53882.984375
 21
26059.271484
 31
0.0
  0
SPLINE
  5
105
330
1F
100
AcDbEntity
  8
OUTER
 62
     3
370
    35
100
AcDbSpline
210
0.0
220
0.0
230
1.0
 70
     8
 71
     5
 72
    15
 73
     9
 74
     0
 42
0.000000001
 43
0.0000000001
 40
0.0
 40
0.0
 40
0.0
 40
0.0
 40
0.0
 40
0.0
 40
792.2363237920198
 40
792.2363237920198
 40
792.2363237920198
 40
1505.862408339356
 40
1505.862408339356
 40
1505.862408339356
 40
1505.862408339356
 40
1505.862408339356
 40
1505.862408339356
 10
53238.0700151857
 20
25164.2804987401
 30
0.0
 10
53396.51727975179
 20
25164.2883061212
 30
0.0
 10
53554.9645479532
 20
25164.3037350655
 30
0.0
 10
53713.41181978929
 20
25164.3267607407
 30
0.0
 10
54014.5843144812
 20
25164.3645732099
 30
0.0
 10
54315.7567925114
 20
25164.3473357185
 30
0.0
 10
54458.4820008162
 20
25164.3181493628
 30
0.0
 10
54601.20719855151
 20
25164.2575236164
 30
0.0
 10
54743.9323856714
 20
25164.1653094635
 30
0.0
  0
SPLINE
  5
106
330
1F
100
AcDbEntity
  8
OUTER
 62
     3
370
    35
100
AcDbSpline
210
0.0
220
0.0
230
1.0
 70
     8
 71
     5
 72
    14
 73
     8
 74
     0
 42
0.000000001
 43
0.0000000001
 40
0.0
 40
0.0
 40
0.0
 40
0.0
 40
0.0
 40
0.0
 40
626.6211869736003
 40
1022.14012149468
 40
1271.829344873091
 40
1271.829344873091
 40
1271.829344873091
 40
1271.829344873091
 40
1271.829344873091
 40
1271.829344873091
 10
54743.9323856714
 20
25164.1653094635
 30
0.0
 10
54745.61378824059
 20
25289.4782671498
 30
0.0
 10
54748.53417239661
 20
25493.8854134714
 30
0.0
 10
54752.49872856339
 20
25748.2206345316
 30
0.0
 10
54756.63319790951
 20
26002.5538210916
 30
0.0
 10
54760.0287103097
 20
26256.8966894352
 30
0.0
 10
54761.47180491549
 20
26385.9300801544
 30
0.0
 10
54761.98758315731
 20
26435.8652611759
 30
0.0
  0
SPLINE
  5
107
330
1F
100
AcDbEntity
  8
OUTER
 62
     3
370
    35
100
AcDbSpline
210
0.0
220
0.0
230
1.0
 70
     8
 71
     5
 72
    12
 73
     6
 74
     0
 42
0.000000001
 43
0.0000000001
 40
0.0
 40
0.0
 40
0.0
 40
0.0
 40
0.0
 40
0.0
 40
1523.824061716622
 40
1523.824061716622
 40
1523.824061716622
 40
1523.824061716622
 40
1523.824061716622
 40
1523.824061716622
 10
54761.9875831574
 20
26435.8652611759
 30
0.0
 10
54457.2228682813
 20
26435.6215212117
 30
0.0
 10
54152.4581761545
 20
26435.3566192963
 30
0.0
 10
53847.6935067347
 20
26435.0705940168
 30
0.0
 10
53542.92881725219
 20
26434.8024294122
 30
0.0
 10
53238.1641076648
 20
26434.5521640696
 30
0.0
  0
SPLINE
  5
108
330
1F
100
AcDbEntity
  8
OUTER
 62
     3
370
    35
100
AcDbSpline
210
0.0
220
0.0
230
1.0
 70
     8
 71
     5
 72
    13
 73
     7
 74
     0
 42
0.000000001
 43
0.0000000001
 40
0.0
 40
0.0
 40
0.0
 40
0.0
 40
0.0
 40
0.0
 40
623.0180274420693
 40
1270.272035848992
 40
1270.272035848992
 40
1270.272035848992
 40
1270.272035848992
 40
1270.272035848992
 40
1270.272035848992
 10
53238.1641076649
 20
26434.5521640696
 30
0.0
 10
53238.0387958334
 20
26309.9486215936
 30
0.0
 10
53238.3248538365
 20
26055.89425274
 30
0.0
 10
53238.2810959715
 20
25801.8397755633
 30
0.0
 10
53238.1088242711
 20
25547.7855467686
 30
0.0
 10
53238.0348204434
 20
25293.731295637
 30
0.0
 10
53238.07001518559
 20
25164.2804987401
 30
0.0
  0
INSERT
  5
109
330
1F
100
AcDbEntity
  8
TEXT
 62
     7
370
     0
100
AcDbBlockReference
  2
V236_LW_MRO13_721 RT_TEXT_2
 10
53882.984375
 20
26009.271484
 30
0.0
  0
POINT
  5
10A
330
1F
100
AcDbEntity
  8
STRATEGYPOINT
 62
     7
370
     5
100
AcDbPoint
 10
53882.984375
 20
26009.271484
 30
0.0
  0
LINE
  5
10B
330
1F
100
AcDbEntity
  8
ROSETTE
 62
   150
370
    35
100
AcDbLine
 10
53982.984375
 20
26009.271484
 30
0.0
 11
53882.984375
 21
26009.271484
 31
0.0
  0
LINE
  5
10C
330
1F
100
AcDbEntity
  8
ROSETTE
 62
   150
370
    35
100
AcDbLine
 10
53882.984375
 20
26009.271484
 30
0.0
 11
53882.984375
 21
26059.271484
 31
0.0
  0
SPLINE
  5
10D
330
1F
100
AcDbEntity
  8
OUTER
 62
     3
370
    35
100
AcDbSpline
210
0.0
220
0.0
230
1.0
 70
     8
 71
     5
 72
    12
 73
     6
 74
     0
 42
0.000000001
 43
0.0000000001
 40
0.0
 40
0.0
 40
0.0
 40
0.0
 40
0.0
 40
0.0
 40
1467.17586378785
 40
1467.17586378785
 40
1467.17586378785
 40
1467.17586378785
 40
1467.17586378785
 40
1467.17586378785
 10
53257.70519374059
 20
25094.3874423689
 30
0.0
 10
53551.14036602699
 20
25094.4040779157
 30
0.0
 10
53844.5755291094
 20
25094.4625591644
 30
0.0
 10
54138.0106850287
 20
25094.5545656357
 30
0.0
 10
54431.44584639269
 20
25094.6287058953
 30
0.0
 10
54724.8810152322
 20
25094.6766589323
 30
0.0
  0
SPLINE
  5
10E
330
1F
100
AcDbEntity
  8
OUTER
 62
     3
370
    35
100
AcDbSpline
210
0.0
220
0.0
230
1.0
 70
     8
 71
     5
 72
    14
 73
     8
 74
     0
 42
0.000000001
 43
0.0000000001
 40
0.0
 40
0.0
 40
0.0
 40
0.0
 40
0.0
 40
0.0
 40
329.1701432907816
 40
637.3324256278131
 40
1271.214833553913
 40
1271.214833553913
 40
1271.214833553913
 40
1271.214833553913
 40
1271.214833553913
 40
1271.214833553913
 10
54724.8810152322
 20
25094.6766589323
 30
0.0
 10
54725.8798659966
 20
25160.5031097444
 30
0.0
 10
54727.7714357496
 20
25287.9555039719
 30
0.0
 10
54731.3259619466
 20
25542.1734677638
 30
0.0
 10
54734.18506861531
 20
25796.4009004868
 30
0.0
 10
54738.5780477799
 20
26050.6072921351
 30
0.0
 10
54741.09196237169
 20
26238.9994106702
 30
0.0
 10
54742.53141366539
 20
26365.7677200504
 30
0.0
  0
SPLINE
  5
10F
330
1F
100
AcDbEntity
  8
OUTER
 62
     3
370
    35
100
AcDbSpline
210
0.0
220
0.0
230
1.0
 70
     8
 71
     5
 72
    12
 73
     6
 74
     0
 42
0.000000001
 43
0.0000000001
 40
0.0
 40
0.0
 40
0.0
 40
0.0
 40
0.0
 40
0.0
 40
1484.833009001476
 40
1484.833009001476
 40
1484.833009001476
 40
1484.833009001476
 40
1484.833009001476
 40
1484.833009001476
 10
54742.53141366539
 20
26365.7677200504
 30
0.0
 10
54445.5649179451
 20
26365.5167137807
 30
0.0
 10
54148.5984513111
 20
26365.2291784108
 30
0.0
 10
53851.632011105
 20
26364.908782964
 30
0.0
 10
53554.6655054945
 20
26364.6821135915
 30
0.0
 10
53257.69893185139
 20
26364.5527941353
 30
0.0
  0
SPLINE
  5
110
330
1F
100
AcDbEntity
  8
OUTER
 62
     3
370
    35
100
AcDbSpline
210
0.0
220
0.0
230
1.0
 70
     8
 71
     5
 72
    12
 73
     6
 74
     0
 42
0.000000001
 43
0.0000000001
 40
0.0
 40
0.0
 40
0.0
 40
0.0
 40
0.0
 40
0.0
 40
1270.165502176962
 40
1270.165502176962
 40
1270.165502176962
 40
1270.165502176962
 40
1270.165502176962
 40
1270.165502176962
 10
53257.69893185139
 20
26364.5527941353
 30
0.0
 10
53257.9471376897
 20
26110.5198149566
 30
0.0
 10
53257.8214786886
 20
25856.4866420679
 30
0.0
 10
53257.81022773599
 20
25602.4535889338
 30
0.0
 10
53257.96848886289
 20
25348.4204063568
 30
0.0
 10
53257.70519374059
 20
25094.3874423689
 30
0.0
  0
INSERT
  5
111
330
1F
100
AcDbEntity
  8
TEXT
 62
     7
370
     0
100
AcDbBlockReference
  2
V236_LW_MRO13_722 RT_TEXT_3
 10
53882.984375
 20
26009.271484
 30
0.0
  0
POINT
  5
112
330
1F
100
AcDbEntity
  8
STRATEGYPOINT
 62
     7
370
     5
100
AcDbPoint
 10
53882.984375
 20
26009.271484
 30
0.0
  0
LINE
  5
113
330
1F
100
AcDbEntity
  8
ROSETTE
 62
   150
370
    35
100
AcDbLine
 10
53982.984375
 20
26009.271484
 30
0.0
 11
53882.984375
 21
26009.271484
 31
0.0
  0
LINE
  5
114
330
1F
100
AcDbEntity
  8
ROSETTE
 62
   150
370
    35
100
AcDbLine
 10
53882.984375
 20
26009.271484
 30
0.0
 11
53882.984375
 21
26059.271484
 31
0.0
  0
SPLINE
  5
115
330
1F
100
AcDbEntity
  8
OUTER
 62
     3
370
    35
100
AcDbSpline
210
0.0
220
0.0
230
1.0
 70
     8
 71
     5
 72
    12
 73
     6
 74
     0
 42
0.000000001
 43
0.0000000001
 40
0.0
 40
0.0
 40
0.0
 40
0.0
 40
0.0
 40
0.0
 40
1428.520984743148
 40
1428.520984743148
 40
1428.520984743148
 40
1428.520984743148
 40
1428.520984743148
 40
1428.520984743148
 10
53277.0962300955
 20
25024.5280478686
 30
0.0
 10
53562.80038714389
 20
25024.6790432594
 30
0.0
 10
53848.5045157661
 20
25024.9028865335
 30
0.0
 10
54134.2086179937
 20
25025.1935193259
 30
0.0
 10
54419.91276639259
 20
25025.3348122917
 30
0.0
 10
54705.61696299309
 20
25025.3207080635
 30
0.0
  0
SPLINE
  5
116
330
1F
100
AcDbEntity
  8
OUTER
 62
     3
370
    35
100
AcDbSpline
210
0.0
220
0.0
230
1.0
 70
     8
 71
     5
 72
    17
 73
    11
 74
     0
 42
0.000000001
 43
0.0000000001
 40
0.0
 40
0.0
 40
0.0
 40
0.0
 40
0.0
 40
0.0
 40
308.728883407945
 40
470.8461550274441
 40
791.5131660301247
 40
933.3725195486852
 40
933.3725195486852
 40
1270.315369289015
 40
1270.315369289015
 40
1270.315369289015
 40
1270.315369289015
 40
1270.315369289015
 40
1270.315369289015
 10
54705.6169629932
 20
25025.3207080635
 30
0.0
 10
54706.39097995059
 20
25087.0616331926
 30
0.0
 10
54707.883301527
 20
25181.2190467093
 30
0.0
 10
54710.9481783149
 20
25339.4938539572
 30
0.0
 10
54712.92831590889
 20
25526.1584367732
 30
0.0
 10
54714.2578302832
 20
25712.8299697362
 30
0.0
 10
54716.5176591041
 20
25905.1331350714
 30
0.0
 10
54719.2461837292
 20
26065.0043083051
 30
0.0
 10
54720.7239007559
 20
26160.7534009844
 30
0.0
 10
54721.6377473828
 20
26228.1357116679
 30
0.0
 10
54722.441990978
 20
26295.519482354
 30
0.0
  0
SPLINE
  5
117
330
1F
100
AcDbEntity
  8
OUTER
 62
     3
370
    35
100
AcDbSpline
210
0.0
220
0.0
230
1.0
 70
     8
 71
     5
 72
    12
 73
     6
 74
     0
 42
0.000000001
 43
0.0000000001
 40
0.0
 40
0.0
 40
0.0
 40
0.0
 40
0.0
 40
0.0
 40
1445.167457725682
 40
1445.167457725682
 40
1445.167457725682
 40
1445.167457725682
 40
1445.167457725682
 40
1445.167457725682
 10
54722.441990978
 20
26295.519482354
 30
0.0
 10
54433.4086819191
 20
26295.1946912594
 30
0.0
 10
54144.37523977849
 20
26295.0232690241
 30
0.0
 10
53855.3416750928
 20
26294.9930082672
 30
0.0
 10
53566.3082259217
 20
26294.8279880001
 30
0.0
 10
53277.2749029769
 20
26294.5157984198
 30
0.0
  0
SPLINE
  5
118
330
1F
100
AcDbEntity
  8
OUTER
 62
     3
370
    35
100
AcDbSpline
210
0.0
220
0.0
230
1.0
 70
     8
 71
     5
 72
    12
 73
     6
 74
     0
 42
0.000000001
 43
0.0000000001
 40
0.0
 40
0.0
 40
0.0
 40
0.0
 40
0.0
 40
0.0
 40
1269.988039166977
 40
1269.988039166977
 40
1269.988039166977
 40
1269.988039166977
 40
1269.988039166977
 40
1269.988039166977
 10
53277.274902977
 20
26294.5157984199
 30
0.0
 10
53276.8455366287
 20
26040.5185534952
 30
0.0
 10
53276.9937055464
 20
25786.5208071131
 30
0.0
 10
53277.5450457104
 20
25532.5227190512
 30
0.0
 10
53277.637352368
 20
25278.5250792918
 30
0.0
 10
53277.0962300955
 20
25024.5280478686
 30
0.0
  0
INSERT
  5
119
330
1F
100
AcDbEntity
  8
TEXT
 62
     7
370
     0
100
AcDbBlockReference
  2
V236_LW_MRO13_723 RT_TEXT_4
 10
53882.984375
 20
26009.271484
 30
0.0
  0
POINT
  5
11A
330
1F
100
AcDbEntity
  8
STRATEGYPOINT
 62
     7
370
     5
100
AcDbPoint
 10
53882.984375
 20
26009.271484
 30
0.0
  0
LINE
  5
11B
330
1F
100
AcDbEntity
  8
ROSETTE
 62
   150
370
    35
100
AcDbLine
 10
53982.984375
 20
26009.271484
 30
0.0
 11
53882.984375
 21
26009.271484
 31
0.0
  0
LINE
  5
11C
330
1F
100
AcDbEntity
  8
ROSETTE
 62
   150
370
    35
100
AcDbLine
 10
53882.984375
 20
26009.271484
 30
0.0
 11
53882.984375
 21
26059.271484
 31
0.0
  0
SPLINE
  5
11D
330
1F
100
AcDbEntity
  8
OUTER
 62
     3
370
    35
100
AcDbSpline
210
0.0
220
0.0
230
1.0
 70
     8
 71
     5
 72
    12
 73
     6
 74
     0
 42
0.000000001
 43
0.0000000001
 40
0.0
 40
0.0
 40
0.0
 40
0.0
 40
0.0
 40
0.0
 40
1388.168178802528
 40
1388.168178802528
 40
1388.168178802528
 40
1388.168178802528
 40
1388.168178802528
 40
1388.168178802528
 10
53296.6730345072
 20
24954.5724243838
 30
0.0
 10
53574.3066103898
 20
24954.7547655711
 30
0.0
 10
53851.9401193944
 20
24955.12555874
 30
0.0
 10
54129.5738082803
 20
24954.68338754931
 30
0.0
 10
54407.2073463849
 20
24955.5180269983
 30
0.0
 10
54684.8409483207
 20
24955.3809805406
 30
0.0
  0
SPLINE
  5
11E
330
1F
100
AcDbEntity
  8
OUTER
 62
     3
370
    35
100
AcDbSpline
210
0.0
220
0.0
230
1.0
 70
     8
 71
     5
 72
    17
 73
    11
 74
     0
 42
0.000000001
 43
0.0000000001
 40
0.0
 40
0.0
 40
0.0
 40
0.0
 40
0.0
 40
0.0
 40
284.9586732670693
 40
284.9586732670693
 40
454.7534012932223
 40
714.4122881288182
 40
874.2784531880907
 40
1269.870979471324
 40
1269.870979471324
 40
1269.870979471324
 40
1269.870979471324
 40
1269.870979471324
 40
1269.870979471324
 10
54684.8409483207
 20
24955.3809805406
 30
0.0
 10
54685.67615025089
 20
25012.3665950108
 30
0.0
 10
54686.52173299281
 20
25069.3520421652
 30
0.0
 10
54687.9156718522
 20
25160.2921241012
 30
0.0
 10
54690.4459526036
 20
25303.1527105461
 30
0.0
 10
54692.9781926731
 20
25477.9894961915
 30
0.0
 10
54694.0343487563
 20
25674.971220848
 30
0.0
 10
54694.93197657889
 20
25871.9539910716
 30
0.0
 10
54698.2060579018
 20
26034.9493496294
 30
0.0
 10
54700.07012175269
 20
26146.0252979888
 30
0.0
 10
54701.3089707693
 20
26225.1341036122
 30
0.0
  0
SPLINE
  5
11F
330
1F
100
AcDbEntity
  8
OUTER
 62
     3
370
    35
100
AcDbSpline
210
0.0
220
0.0
230
1.0
 70
     8
 71
     5
 72
    12
 73
     6
 74
     0
 42
0.000000001
 43
0.0000000001
 40
0.0
 40
0.0
 40
0.0
 40
0.0
 40
0.0
 40
0.0
 40
1404.358626323186
 40
1404.358626323186
 40
1404.358626323186
 40
1404.358626323186
 40
1404.358626323186
 40
1404.358626323186
 10
54701.3089707692
 20
26225.1341036122
 30
0.0
 10
54420.43726960539
 20
26225.0177491871
 30
0.0
 10
54139.56558519029
 20
26224.8785309679
 30
0.0
 10
53858.69391749099
 20
26224.7164940478
 30
0.0
 10
53577.8222332805
 20
26224.5767840079
 30
0.0
 10
53296.9505325257
 20
26224.4594459413
 30
0.0
  0
SPLINE
  5
120
330
1F
100
AcDbEntity
  8
OUTER
 62
     3
370
    35
100
AcDbSpline
210
0.0
220
0.0
230
1.0
 70
     8
 71
     5
 72
    13
 73
     7
 74
     0
 42
0.000000001
 43
0.0000000001
 40
0.0
 40
0.0
 40
0.0
 40
0.0
 40
0.0
 40
0.0
 40
784.4223431338601
 40
1269.88743416827
 40
1269.88743416827
 40
1269.88743416827
 40
1269.88743416827
 40
1269.88743416827
 40
1269.88743416827
 10
53296.9505325257
 20
26224.4594459414
 30
0.0
 10
53296.7993703227
 20
26067.575050139
 30
0.0
 10
53297.23524496389
 20
25813.5973722968
 30
0.0
 10
53296.143277727
 20
25559.6201090633
 30
0.0
 10
53297.46781857361
 20
25305.6426753645
 30
0.0
 10
53296.59725248089
 20
25051.6654130164
 30
0.0
 10
53296.6730345072
 20
24954.5724243838
 30
0.0
  0
INSERT
  5
121
330
1F
100
AcDbEntity
  8
TEXT
 62
     7
370
     0
100
AcDbBlockReference
  2
V236_LW_MRO13_724 RT_TEXT_5
 10
53882.984375
 20
26009.271484
 30
0.0
  0
POINT
  5
122
330
1F
100
AcDbEntity
  8
STRATEGYPOINT
 62
     7
370
     5
100
AcDbPoint
 10
53882.984375
 20
26009.271484
 30
0.0
  0
LINE
  5
123
330
1F
100
AcDbEntity
  8
ROSETTE
 62
   150
370
    35
100
AcDbLine
 10
53982.984375
 20
26009.271484
 30
0.0
 11
53882.984375
 21
26009.271484
 31
0.0
  0
LINE
  5
124
330
1F
100
AcDbEntity
  8
ROSETTE
 62
   150
370
    35
100
AcDbLine
 10
53882.984375
 20
26009.271484
 30
0.0
 11
53882.984375
 21
26059.271484
 31
0.0
  0
SPLINE
  5
125
330
1F
100
AcDbEntity
  8
OUTER
 62
     3
370
    35
100
AcDbSpline
210
0.0
220
0.0
230
1.0
 70
     8
 71
     5
 72
    12
 73
     6
 74
     0
 42
0.000000001
 43
0.0000000001
 40
0.0
 40
0.0
 40
0.0
 40
0.0
 40
0.0
 40
0.0
 40
1345.34000657647
 40
1345.34000657647
 40
1345.34000657647
 40
1345.34000657647
 40
1345.34000657647
 40
1345.34000657647
 10
53316.7724057962
 20
24884.5168694673
 30
0.0
 10
53585.8403695887
 20
24884.658970252
 30
0.0
 10
53854.90835202491
 20
24884.7555262416
 30
0.0
 10
54123.9763460308
 20
24884.8213467772
 30
0.0
 10
54393.04430565999
 20
24884.9526051133
 30
0.0
 10
54662.1122238471
 20
24885.164109844
 30
0.0
  0
SPLINE
  5
126
330
1F
100
AcDbEntity
  8
OUTER
 62
     3
370
    35
100
AcDbSpline
210
0.0
220
0.0
230
1.0
 70
     8
 71
     5
 72
    17
 73
    11
 74
     0
 42
0.000000001
 43
0.0000000001
 40
0.0
 40
0.0
 40
0.0
 40
0.0
 40
0.0
 40
0.0
 40
317.8797093207522
 40
553.8813370191783
 40
632.5436957476187
 40
868.5330428929589
 40
947.1973328199107
 40
1269.655871189081
 40
1269.655871189081
 40
1269.655871189081
 40
1269.655871189081
 40
1269.655871189081
 40
1269.655871189081
 10
54662.1122238471
 20
24885.164109844
 30
0.0
 10
54663.0037330858
 20
24948.7338006973
 30
0.0
 10
54664.7096969154
 20
25059.4969303089
 30
0.0
 10
54666.84719760539
 20
25185.988047939
 30
0.0
 10
54669.5146295037
 20
25359.6747379985
 30
0.0
 10
54671.0572633741
 20
25549.10811757
 30
0.0
 10
54672.52278309259
 20
25739.4585067837
 30
0.0
 10
54674.10071462159
 20
25882.6045937442
 30
0.0
 10
54676.343986273
 20
26010.007932384
 30
0.0
 10
54677.6854788728
 20
26090.2213946768
 30
0.0
 10
54678.6491053572
 20
26154.7059027596
 30
0.0
  0
SPLINE
  5
127
330
1F
100
AcDbEntity
  8
OUTER
 62
     3
370
    35
100
AcDbSpline
210
0.0
220
0.0
230
1.0
 70
     8
 71
     5
 72
    12
 73
     6
 74
     0
 42
0.000000001
 43
0.0000000001
 40
0.0
 40
0.0
 40
0.0
 40
0.0
 40
0.0
 40
0.0
 40
1361.777685667653
 40
1361.777685667653
 40
1361.777685667653
 40
1361.777685667653
 40
1361.777685667653
 40
1361.777685667653
 10
54678.6491053572
 20
26154.7059027596
 30
0.0
 10
54406.29359134719
 20
26154.5936723257
 30
0.0
 10
54133.9380755576
 20
26154.5131707324
 30
0.0
 10
53861.5825579854
 20
26154.4643711572
 30
0.0
 10
53589.22703431329
 20
26154.4083293365
 30
0.0
 10
53316.8715045382
 20
26154.3450184478
 30
0.0
  0
SPLINE
  5
128
330
1F
100
AcDbEntity
  8
OUTER
 62
     3
370
    35
100
AcDbSpline
210
0.0
220
0.0
230
1.0
 70
     8
 71
     5
 72
    14
 73
     8
 74
     0
 42
0.000000001
 43
0.0000000001
 40
0.0
 40
0.0
 40
0.0
 40
0.0
 40
0.0
 40
0.0
 40
646.5312351318672
 40
951.3388820339176
 40
1269.82837486729
 40
1269.82837486729
 40
1269.82837486729
 40
1269.82837486729
 40
1269.82837486729
 40
1269.82837486729
 10
53316.87150453809
 20
26154.3450184478
 30
0.0
 10
53316.85860692059
 20
26025.0387720647
 30
0.0
 10
53316.9708922207
 20
25834.7709909644
 30
0.0
 10
53316.4014225892
 20
25580.8053793997
 30
0.0
 10
53317.1120542121
 20
25326.8397509111
 30
0.0
 10
53316.5889352571
 20
25072.8741693703
 30
0.0
 10
53316.81249622651
 20
24948.2147554178
 30
0.0
 10
53316.7724057962
 20
24884.5168694673
 30
0.0
  0
INSERT
  5
129
330
1F
100
AcDbEntity
  8
TEXT
 62
     7
370
     0
100
AcDbBlockReference
  2
V236_LW_MRO13_725 RT_TEXT_6
 10
53882.984375
 20
26009.271484
 30
0.0
  0
POINT
  5
12A
330
1F
100
AcDbEntity
  8
STRATEGYPOINT
 62
     7
370
     5
100
AcDbPoint
 10
53882.984375
 20
26009.271484
 30
0.0
  0
LINE
  5
12B
330
1F
100
AcDbEntity
  8
MARKERS
 62
     5
370
    35
100
AcDbLine
 10
54727.98437499999
 20
26009.271484
 30
0.0
 11
53266.984375
 21
26009.271484
 31
0.0
  0
LINE
  5
12C
330
1F
100
AcDbEntity
  8
MARKERS
 62
     5
370
    35
100
AcDbLine
 10
54724.984375
 20
25709.271484
 30
0.0
 11
53265.984375
 21
25709.271484
 31
0.0
  0
LINE
  5
12D
330
1F
100
AcDbEntity
  8
MARKERS
 62
     5
370
    35
100
AcDbLine
 10
54719.98437499999
 20
25409.271484
 30
0.0
 11
53267.98437499999
 21
25409.271484
 31
0.0
  0
LINE
  5
12E
330
1F
100
AcDbEntity
  8
MARKERS
 62
     5
370
    35
100
AcDbLine
 10
54694.984375
 20
25109.271484
 30
0.0
 11
53285.984375
 21
25109.271484
 31
0.0
  0
LINE
  5
12F
330
1F
100
AcDbEntity
  8
MARKERS
 62
     5
370
    35
100
AcDbLine
 10
54624.98437499999
 20
24909.271484
 30
0.0
 11
53346.984375
 21
24909.271484
 31
0.0
  0
LINE
  5
130
330
1F
100
AcDbEntity
  8
MARKERS
 62
     5
370
    35
100
AcDbLine
 10
54730.984375
 20
26309.271484
 30
0.0
 11
53266.984375
 21
26309.271484
 31
0.0
  0
LINE
  5
131
330
1F
100
AcDbEntity
  8
ROSETTE
 62
   150
370
    35
100
AcDbLine
 10
53982.984375
 20
26009.271484
 30
0.0
 11
53882.984375
 21
26009.271484
 31
0.0
  0
LINE
  5
132
330
1F
100
AcDbEntity
  8
ROSETTE
 62
   150
370
    35
100
AcDbLine
 10
53882.984375
 20
26009.271484
 30
0.0
 11
53882.984375
 21
26059.271484
 31
0.0
  0
SPLINE
  5
133
330
1F
100
AcDbEntity
  8
OUTER
 62
     3
370
    35
100
AcDbSpline
210
0.0
220
0.0
230
1.0
 70
     8
 71
     5
 72
    12
 73
     6
 74
     0
 42
0.000000001
 43
0.0000000001
 40
0.0
 40
0.0
 40
0.0
 40
0.0
 40
0.0
 40
0.0
 40
1301.263256928581
 40
1301.263256928581
 40
1301.263256928581
 40
1301.263256928581
 40
1301.263256928581
 40
1301.263256928581
 10
53337.1248778228
 20
24814.5111907704
 30
0.0
 10
53597.37746834079
 20
24814.6891853878
 30
0.0
 10
53857.63012335909
 20
24814.7429087164
 30
0.0
 10
54117.8828219333
 20
24814.709657678
 30
0.0
 10
54378.135444697
 20
24814.8020257962
 30
0.0
 10
54638.3879704768
 20
24815.0577180917
 30
0.0
  0
SPLINE
  5
134
330
1F
100
AcDbEntity
  8
OUTER
 62
     3
370
    35
100
AcDbSpline
210
0.0
220
0.0
230
1.0
 70
     8
 71
     5
 72
    16
 73
    10
 74
     0
 42
0.000000001
 43
0.0000000001
 40
0.0
 40
0.0
 40
0.0
 40
0.0
 40
0.0
 40
0.0
 40
159.122943152199
 40
546.1269933029265
 40
642.8735410049994
 40
797.6639353355063
 40
1269.306087560373
 40
1269.306087560373
 40
1269.306087560373
 40
1269.306087560373
 40
1269.306087560373
 40
1269.306087560373
 10
54638.3879704768
 20
24815.0577180917
 30
0.0
 10
54639.006479708
 20
24846.8762958071
 30
0.0
 10
54640.98443660139
 20
24956.0837074361
 30
0.0
 10
54642.75896260621
 20
25084.6467006795
 30
0.0
 10
54645.6830542997
 20
25244.1541095643
 30
0.0
 10
54648.6367648849
 20
25497.9980435358
 30
0.0
 10
54650.4545379813
 20
25720.0282664301
 30
0.0
 10
54652.716886535
 20
25864.6474977383
 30
0.0
 10
54654.6662055601
 20
25989.9187705324
 30
0.0
 10
54656.1821940223
 20
26084.235018174
 30
0.0
  0
SPLINE
  5
135
330
1F
100
AcDbEntity
  8
OUTER
 62
     3
370
    35
100
AcDbSpline
210
0.0
220
0.0
230
1.0
 70
     8
 71
     5
 72
    12
 73
     6
 74
     0
 42
0.000000001
 43
0.0000000001
 40
0.0
 40
0.0
 40
0.0
 40
0.0
 40
0.0
 40
0.0
 40
1319.165663699095
 40
1319.165663699095
 40
1319.165663699095
 40
1319.165663699095
 40
1319.165663699095
 40
1319.165663699095
 10
54656.1821940223
 20
26084.235018174
 30
0.0
 10
54392.3490613698
 20
26084.241804996
 30
0.0
 10
54128.51593548639
 20
26084.23718059
 30
0.0
 10
53864.68281635981
 20
26084.2211728958
 30
0.0
 10
53600.84969087179
 20
26084.2239170682
 30
0.0
 10
53337.01655901
 20
26084.2454410471
 30
0.0
  0
SPLINE
  5
136
330
1F
100
AcDbEntity
  8
OUTER
 62
     3
370
    35
100
AcDbSpline
210
0.0
220
0.0
230
1.0
 70
     8
 71
     5
 72
    12
 73
     6
 74
     0
 42
0.000000001
 43
0.0000000001
 40
0.0
 40
0.0
 40
0.0
 40
0.0
 40
0.0
 40
0.0
 40
1269.734448822179
 40
1269.734448822179
 40
1269.734448822179
 40
1269.734448822179
 40
1269.734448822179
 40
1269.734448822179
 10
53337.01655901
 20
26084.2454410471
 30
0.0
 10
53337.1197150475
 20
25830.29857223471
 30
0.0
 10
53337.04856921809
 20
25576.3516758005
 30
0.0
 10
53336.83080945999
 20
25322.4047594241
 30
0.0
 10
53336.8470203459
 20
25068.4579285251
 30
0.0
 10
53337.1248778228
 20
24814.5111907704
 30
0.0
  0
ENDSEC
  0
SECTION
  2
OBJECTS
  0
DICTIONARY
  5
C
330
0
100
AcDbDictionary
281
     1
  3
ACAD_CIP_PREVIOUS_PRODUCT_INFO
350
FC
  3
ACAD_COLOR
350
F1
  3
ACAD_DETAILVIEWSTYLE
350
F8
  3
ACAD_GROUP
350
D
  3
ACAD_LAST_SAVED_VERSION_INFO
350
137
  3
ACAD_LAYOUT
350
1A
  3
ACAD_MATERIAL
350
BF
  3
ACAD_MLEADERSTYLE
350
F4
  3
ACAD_MLINESTYLE
350
17
  3
ACAD_PLOTSETTINGS
350
19
  3
ACAD_PLOTSTYLENAME
350
E
  3
ACAD_SCALELIST
350
47
  3
ACAD_SECTIONVIEWSTYLE
350
F6
  3
ACAD_TABLESTYLE
350
F2
  3
ACAD_VISUALSTYLE
350
D8
  3
ACDB_RECOMPOSE_DATA
350
150
  3
AcDbVariableDictionary
350
FD
  0
DICTIONARY
  5
138
330
10
100
AcDbDictionary
280
     1
281
     1
  3
ADSK_XREC_LAYER_RECONCILED
360
139
  0
DICTIONARY
  5
13A
330
6F
100
AcDbDictionary
280
     1
281
     1
  3
ADSK_XREC_LAYER_RECONCILED
360
13B
  0
DICTIONARY
  5
13C
330
70
100
AcDbDictionary
280
     1
281
     1
  3
ADSK_XREC_LAYER_RECONCILED
360
13D
  0
DICTIONARY
  5
13E
330
71
100
AcDbDictionary
280
     1
281
     1
  3
ADSK_XREC_LAYER_RECONCILED
360
13F
  0
DICTIONARY
  5
140
330
72
100
AcDbDictionary
280
     1
281
     1
  3
ADSK_XREC_LAYER_RECONCILED
360
141
  0
DICTIONARY
  5
142
330
A4
100
AcDbDictionary
280
     1
281
     1
  3
ADSK_XREC_LAYER_RECONCILED
360
143
  0
DICTIONARY
  5
FF
330
1F
100
AcDbDictionary
280
     1
281
     1
  3
ACAD_SORTENTS
360
100
  0
XRECORD
  5
FC
102
{ACAD_REACTORS
330
C
102
}
330
C
100
AcDbXrecord
280
     1
300
ACDLT
300
2024
300

  0
DICTIONARY
  5
F1
102
{ACAD_REACTORS
330
C
102
}
330
C
100
AcDbDictionary
281
     1
  0
DICTIONARY
  5
F8
102
{ACAD_REACTORS
330
C
102
}
330
C
100
AcDbDictionary
281
     1
  3
Metric50
350
F9
  0
DICTIONARY
  5
D
102
{ACAD_REACTORS
330
C
102
}
330
C
100
AcDbDictionary
281
     1
  0
XRECORD
  5
137
102
{ACAD_REACTORS
330
C
102
}
330
C
100
AcDbXrecord
280
     1
300
{F9A2C700-AED8-7545-AA18-B01D36D1B45D}
301
{B07191EA-241F-8B4E-87F3-17A2DCD4C660}
302
{F9A2C700-AED8-7545-AA18-B01D36D1B45D}
303
C:\Users\Juan Pablo Lopez\PycharmProjects\ProjectJP\V236_LW_MRO13.dxf
  0
DICTIONARY
  5
1A
102
{ACAD_REACTORS
330
C
102
}
330
C
100
AcDbDictionary
281
     1
  3
Layout1
350
1E
  3
Layout2
350
26
  3
Model
350
22
  0
DICTIONARY
  5
BF
102
{ACAD_REACTORS
330
C
102
}
330
C
100
AcDbDictionary
281
     1
  3
ByBlock
350
C8
  3
ByLayer
350
C0
  3
Global
350
D0
  0
DICTIONARY
  5
F4
102
{ACAD_REACTORS
330
C
102
}
330
C
100
AcDbDictionary
281
     1
  3
Standard
350
F5
  0
DICTIONARY
  5
17
102
{ACAD_REACTORS
330
C
102
}
330
C
100
AcDbDictionary
281
     1
  3
Standard
350
18
  0
DICTIONARY
  5
19
102
{ACAD_REACTORS
330
C
102
}
330
C
100
AcDbDictionary
281
     1
  0
ACDBDICTIONARYWDFLT
  5
E
102
{ACAD_REACTORS
330
C
102
}
330
C
100
AcDbDictionary
281
     1
  3
Normal
350
F
100
AcDbDictionaryWithDefault
340
F
  0
DICTIONARY
  5
47
102
{ACAD_REACTORS
330
C
102
}
330
C
100
AcDbDictionary
281
     1
  3
A0
350
48
  3
A1
350
49
  3
A2
350
4A
  3
A3
350
4B
  3
A4
350
4C
  3
A5
350
4D
  3
A6
350
4E
  3
A7
350
4F
  3
A8
350
50
  3
A9
350
51
  3
B0
350
52
  3
B1
350
53
  3
B2
350
54
  3
B3
350
55
  3
B4
350
56
  3
B5
350
57
  3
B6
350
58
  3
B7
350
59
  3
B8
350
5A
  3
B9
350
5B
  3
C0
350
5C
  3
C1
350
5D
  3
C2
350
5E
  3
C3
350
5F
  3
C4
350
60
  3
C5
350
61
  3
C6
350
62
  3
C7
350
63
  3
C8
350
64
  3
C9
350
65
  3
D0
350
66
  3
D1
350
67
  3
D2
350
68
  0
DICTIONARY
  5
F6
102
{ACAD_REACTORS
330
C
102
}
330
C
100
AcDbDictionary
281
     1
  3
Metric50
350
F7
  0
DICTIONARY
  5
F2
102
{ACAD_REACTORS
330
C
102
}
330
C
100
AcDbDictionary
281
     1
  3
Standard
350
F3
  0
DICTIONARY
  5
D8
102
{ACAD_REACTORS
330
C
102
}
330
C
100
AcDbDictionary
281
     1
  3
2dWireframe
350
DE
  3
Basic
350
DD
  3
Brighten
350
E4
  3
ColorChange
350
E8
  3
Conceptual
350
E1
  3
Dim
350
E3
  3
EdgeColorOff
350
F0
  3
Facepattern
350
E7
  3
Flat
350
D9
  3
FlatWithEdges
350
DA
  3
Gouraud
350
DB
  3
GouraudWithEdges
350
DC
  3
Hidden
350
E0
  3
JitterOff
350
EE
  3
Linepattern
350
E6
  3
OverhangOff
350
EF
  3
Realistic
350
E2
  3
Shaded
350
ED
  3
Shaded with edges
350
EC
  3
Shades of Gray
350
E9
  3
Sketchy
350
EA
  3
Thicken
350
E5
  3
Wireframe
350
DF
  3
X-Ray
350
EB
  0
XRECORD
  5
150
102
{ACAD_REACTORS
330
C
102
}
330
C
100
AcDbXrecord
280
     1
 90
        1
330
F3
  0
DICTIONARY
  5
FD
102
{ACAD_REACTORS
330
C
102
}
330
C
100
AcDbDictionary
281
     1
  3
CANNOSCALE
350
149
  3
CMLEADERSTYLE
350
145
  3
CTABLESTYLE
350
144
  3
CVIEWDETAILSTYLE
350
146
  3
CVIEWSECTIONSTYLE
350
147
  3
LAYEREVAL
350
14B
  3
LAYERNOTIFY
350
14C
  3
LIGHTINGUNITS
350
14A
  3
MSLTSCALE
350
148
  0
XRECORD
  5
139
102
{ACAD_REACTORS
330
138
102
}
330
138
100
AcDbXrecord
280
     1
290
     1
  0
XRECORD
  5
13B
102
{ACAD_REACTORS
330
13A
102
}
330
13A
100
AcDbXrecord
280
     1
290
     1
  0
XRECORD
  5
13D
102
{ACAD_REACTORS
330
13C
102
}
330
13C
100
AcDbXrecord
280
     1
290
     1
  0
XRECORD
  5
13F
102
{ACAD_REACTORS
330
13E
102
}
330
13E
100
AcDbXrecord
280
     1
290
     1
  0
XRECORD
  5
141
102
{ACAD_REACTORS
330
140
102
}
330
140
100
AcDbXrecord
280
     1
290
     1
  0
XRECORD
  5
143
102
{ACAD_REACTORS
330
142
102
}
330
142
100
AcDbXrecord
280
     1
290
     1
  0
SORTENTSTABLE
  5
100
102
{ACAD_REACTORS
330
FF
102
}
330
FF
100
AcDbSortentsTable
330
1F
  0
ACDBDETAILVIEWSTYLE
  5
F9
102
{ACAD_REACTORS
330
F8
102
}
330
F8
100
AcDbModelDocViewStyle
 70
     0
  3
Metric50
290
     0
300
Metric50
 90
        0
100
AcDbDetailViewStyle
 70
     0
 71
     0
 90
        3
 71
     1
340
11
 62
   256
 40
5.0
340
0
 62
   256
 40
5.0
300

 40
0.0
280
     1
 71
     2
340
16
 90
       25
 62
   256
 71
     3
340
11
 62
   256
 40
5.0
 90
        0
 40
15.0
 90
        1
300
%<\AcVar ViewDetailId>% (%<\AcVar ViewScale \f "%sn">%)
 71
     4
340
16
 90
       25
 62
   256
340
16
 90
       25
 62
   256
280
     0
  0
LAYOUT
  5
1E
102
{ACAD_REACTORS
330
1A
102
}
330
1A
100
AcDbPlotSettings
  1

  2
none_device
  4

  6

 40
0.0
 41
0.0
 42
0.0
 43
0.0
 44
0.0
 45
0.0
 46
0.0
 47
0.0
 48
0.0
 49
0.0
140
0.0
141
0.0
142
1.0
143
1.0
 70
  4784
 72
     0
 73
     0
 74
     5
  7

 75
    16
147
1.0
 76
     0
 77
     2
 78
   300
148
0.0
149
0.0
100
AcDbLayout
  1
Layout1
 70
     1
 71
     1
 10
0.0
 20
0.0
 11
420.0
 21
297.0
 12
0.0
 22
0.0
 32
0.0
 14
0.0
 24
0.0
 34
0.0
 15
318.228027
 25
420.978058
 35
2.0
146
0.0
 13
0.0
 23
0.0
 33
0.0
 16
1.0
 26
0.0
 36
0.0
 17
0.0
 27
1.0
 37
0.0
 76
     0
330
1B
  0
LAYOUT
  5
26
102
{ACAD_REACTORS
330
1A
102
}
330
1A
100
AcDbPlotSettings
  1

  2
none_device
  4

  6

 40
0.0
 41
0.0
 42
0.0
 43
0.0
 44
0.0
 45
0.0
 46
0.0
 47
0.0
 48
0.0
 49
0.0
140
0.0
141
0.0
142
1.0
143
1.0
 70
  4784
 72
     0
 73
     0
 74
     5
  7

 75
    16
147
1.0
 76
     0
 77
     2
 78
   300
148
0.0
149
0.0
100
AcDbLayout
  1
Layout2
 70
     1
 71
     2
 10
0.0
 20
0.0
 11
0.0
 21
0.0
 12
0.0
 22
0.0
 32
0.0
 14
0.0
 24
0.0
 34
0.0
 15
0.0
 25
0.0
 35
0.0
146
0.0
 13
0.0
 23
0.0
 33
0.0
 16
1.0
 26
0.0
 36
0.0
 17
0.0
 27
1.0
 37
0.0
 76
     0
330
23
  0
LAYOUT
  5
22
102
{ACAD_REACTORS
330
1A
102
}
330
1A
100
AcDbPlotSettings
  1

  2
none_device
  4
Letter_(8.50_x_11.00_Inches)
  6

 40
6.349999999999999
 41
6.349999999999999
 42
6.350005
 43
6.350005
 44
215.9
 45
279.4
 46
0.0
 47
0.0
 48
0.0
 49
0.0
140
0.0
141
0.0
142
1.0
143
1.0
 70
  5808
 72
     0
 73
     0
 74
     0
  7

 75
     0
147
1.0
 76
     0
 77
     2
 78
   300
148
0.0
149
0.0
100
AcDbLayout
  1
Model
 70
     1
 71
     0
 10
0.0
 20
0.0
 11
420.0
 21
297.0
 12
0.0
 22
0.0
 32
0.0
 14
0.0
 24
0.0
 34
0.0
 15
318.228027
 25
420.978058
 35
2.0
146
0.0
 13
0.0
 23
0.0
 33
0.0
 16
1.0
 26
0.0
 36
0.0
 17
0.0
 27
1.0
 37
0.0
 76
     0
330
1F
331
29
  0
MATERIAL
  5
C8
102
{ACAD_XDICTIONARY
360
C9
102
}
102
{ACAD_REACTORS
330
BF
102
}
330
BF
100
AcDbMaterial
  1
ByBlock
 72
     0
 43
0.0208333333333333
 43
0.0
 43
0.0
 43
0.0
 43
0.0
 43
0.0208333333333333
 43
0.0
 43
0.0
 43
0.0
 43
0.0
 43
1.0
 43
0.0
 43
0.0
 43
0.0
 43
0.0
 43
1.0
 77
     0
 47
0.0208333333333333
 47
0.0
 47
0.0
 47
0.0
 47
0.0
 47
0.0208333333333333
 47
0.0
 47
0.0
 47
0.0
 47
0.0
 47
1.0
 47
0.0
 47
0.0
 47
0.0
 47
0.0
 47
1.0
171
     0
 49
0.0208333333333333
 49
0.0
 49
0.0
 49
0.0
 49
0.0
 49
0.0208333333333333
 49
0.0
 49
0.0
 49
0.0
 49
0.0
 49
1.0
 49
0.0
 49
0.0
 49
0.0
 49
0.0
 49
1.0
175
     0
142
0.0208333333333333
142
0.0
142
0.0
142
0.0
142
0.0
142
0.0208333333333333
142
0.0
142
0.0
142
0.0
142
0.0
142
1.0
142
0.0
142
0.0
142
0.0
142
0.0
142
1.0
179
     0
144
0.0208333333333333
144
0.0
144
0.0
144
0.0
144
0.0
144
0.0208333333333333
144
0.0
144
0.0
144
0.0
144
0.0
144
1.0
144
0.0
144
0.0
144
0.0
144
0.0
144
1.0
147
0.0208333333333333
147
0.0
147
0.0
147
0.0
147
0.0
147
0.0208333333333333
147
0.0
147
0.0
147
0.0
147
0.0
147
1.0
147
0.0
147
0.0
147
0.0
147
0.0
147
1.0
  0
MATERIAL
  5
C0
102
{ACAD_XDICTIONARY
360
C1
102
}
102
{ACAD_REACTORS
330
BF
102
}
330
BF
100
AcDbMaterial
  1
ByLayer
 72
     0
 43
0.0208333333333333
 43
0.0
 43
0.0
 43
0.0
 43
0.0
 43
0.0208333333333333
 43
0.0
 43
0.0
 43
0.0
 43
0.0
 43
1.0
 43
0.0
 43
0.0
 43
0.0
 43
0.0
 43
1.0
 77
     0
 47
0.0208333333333333
 47
0.0
 47
0.0
 47
0.0
 47
0.0
 47
0.0208333333333333
 47
0.0
 47
0.0
 47
0.0
 47
0.0
 47
1.0
 47
0.0
 47
0.0
 47
0.0
 47
0.0
 47
1.0
171
     0
 49
0.0208333333333333
 49
0.0
 49
0.0
 49
0.0
 49
0.0
 49
0.0208333333333333
 49
0.0
 49
0.0
 49
0.0
 49
0.0
 49
1.0
 49
0.0
 49
0.0
 49
0.0
 49
0.0
 49
1.0
175
     0
142
0.0208333333333333
142
0.0
142
0.0
142
0.0
142
0.0
142
0.0208333333333333
142
0.0
142
0.0
142
0.0
142
0.0
142
1.0
142
0.0
142
0.0
142
0.0
142
0.0
142
1.0
179
     0
144
0.0208333333333333
144
0.0
144
0.0
144
0.0
144
0.0
144
0.0208333333333333
144
0.0
144
0.0
144
0.0
144
0.0
144
1.0
144
0.0
144
0.0
144
0.0
144
0.0
144
1.0
147
0.0208333333333333
147
0.0
147
0.0
147
0.0
147
0.0
147
0.0208333333333333
147
0.0
147
0.0
147
0.0
147
0.0
147
1.0
147
0.0
147
0.0
147
0.0
147
0.0
147
1.0
  0
MATERIAL
  5
D0
102
{ACAD_XDICTIONARY
360
D1
102
}
102
{ACAD_REACTORS
330
BF
102
}
330
BF
100
AcDbMaterial
  1
Global
 72
     0
 43
0.0208333333333333
 43
0.0
 43
0.0
 43
0.0
 43
0.0
 43
0.0208333333333333
 43
0.0
 43
0.0
 43
0.0
 43
0.0
 43
1.0
 43
0.0
 43
0.0
 43
0.0
 43
0.0
 43
1.0
 77
     0
 47
0.0208333333333333
 47
0.0
 47
0.0
 47
0.0
 47
0.0
 47
0.0208333333333333
 47
0.0
 47
0.0
 47
0.0
 47
0.0
 47
1.0
 47
0.0
 47
0.0
 47
0.0
 47
0.0
 47
1.0
171
     0
 49
0.0208333333333333
 49
0.0
 49
0.0
 49
0.0
 49
0.0
 49
0.0208333333333333
 49
0.0
 49
0.0
 49
0.0
 49
0.0
 49
1.0
 49
0.0
 49
0.0
 49
0.0
 49
0.0
 49
1.0
175
     0
142
0.0208333333333333
142
0.0
142
0.0
142
0.0
142
0.0
142
0.0208333333333333
142
0.0
142
0.0
142
0.0
142
0.0
142
1.0
142
0.0
142
0.0
142
0.0
142
0.0
142
1.0
179
     0
144
0.0208333333333333
144
0.0
144
0.0
144
0.0
144
0.0
144
0.0208333333333333
144
0.0
144
0.0
144
0.0
144
0.0
144
1.0
144
0.0
144
0.0
144
0.0
144
0.0
144
1.0
147
0.0208333333333333
147
0.0
147
0.0
147
0.0
147
0.0
147
0.0208333333333333
147
0.0
147
0.0
147
0.0
147
0.0
147
1.0
147
0.0
147
0.0
147
0.0
147
0.0
147
1.0
  0
MLEADERSTYLE
  5
F5
102
{ACAD_REACTORS
330
F4
102
}
330
F4
100
AcDbMLeaderStyle
179
     2
170
     2
171
     1
172
     0
 90
        2
 40
0.0
 41
0.0
173
     1
 91
-1056964608
340
14
 92
       -2
290
     1
 42
2.0
291
     1
 43
0.36
  3
Standard
 44
4.0
300

342
11
174
     1
178
     6
175
     1
176
     0
 93
-1056964608
 45
4.0
292
     0
297
     0
 46
4.0
 94
-1056964608
 47
1.0
 49
1.0
140
1.0
293
     1
141
0.0
294
     1
177
     0
142
1.0
295
     0
296
     0
143
0.125
271
     0
272
     9
273
     9
298
     0
  0
MLINESTYLE
  5
18
102
{ACAD_REACTORS
330
17
102
}
330
17
100
AcDbMlineStyle
  2
STANDARD
 70
     0
  3

 62
   256
 51
90.0
 52
90.0
 71
     2
 49
0.5
 62
   256
  6
BYLAYER
 49
-0.5
 62
   256
  6
BYLAYER
  0
ACDBPLACEHOLDER
  5
F
102
{ACAD_REACTORS
330
E
102
}
330
E
  0
SCALE
  5
48
102
{ACAD_REACTORS
330
47
102
}
330
47
100
AcDbScale
 70
     0
300
1:1
140
1.0
141
1.0
290
     1
  0
SCALE
  5
49
102
{ACAD_REACTORS
330
47
102
}
330
47
100
AcDbScale
 70
     0
300
1:2
140
1.0
141
2.0
290
     0
  0
SCALE
  5
4A
102
{ACAD_REACTORS
330
47
102
}
330
47
100
AcDbScale
 70
     0
300
1:4
140
1.0
141
4.0
290
     0
  0
SCALE
  5
4B
102
{ACAD_REACTORS
330
47
102
}
330
47
100
AcDbScale
 70
     0
300
1:5
140
1.0
141
5.0
290
     0
  0
SCALE
  5
4C
102
{ACAD_REACTORS
330
47
102
}
330
47
100
AcDbScale
 70
     0
300
1:8
140
1.0
141
8.0
290
     0
  0
SCALE
  5
4D
102
{ACAD_REACTORS
330
47
102
}
330
47
100
AcDbScale
 70
     0
300
1:10
140
1.0
141
10.0
290
     0
  0
SCALE
  5
4E
102
{ACAD_REACTORS
330
47
102
}
330
47
100
AcDbScale
 70
     0
300
1:16
140
1.0
141
16.0
290
     0
  0
SCALE
  5
4F
102
{ACAD_REACTORS
330
47
102
}
330
47
100
AcDbScale
 70
     0
300
1:20
140
1.0
141
20.0
290
     0
  0
SCALE
  5
50
102
{ACAD_REACTORS
330
47
102
}
330
47
100
AcDbScale
 70
     0
300
1:30
140
1.0
141
30.0
290
     0
  0
SCALE
  5
51
102
{ACAD_REACTORS
330
47
102
}
330
47
100
AcDbScale
 70
     0
300
1:40
140
1.0
141
40.0
290
     0
  0
SCALE
  5
52
102
{ACAD_REACTORS
330
47
102
}
330
47
100
AcDbScale
 70
     0
300
1:50
140
1.0
141
50.0
290
     0
  0
SCALE
  5
53
102
{ACAD_REACTORS
330
47
102
}
330
47
100
AcDbScale
 70
     0
300
1:100
140
1.0
141
100.0
290
     0
  0
SCALE
  5
54
102
{ACAD_REACTORS
330
47
102
}
330
47
100
AcDbScale
 70
     0
300
2:1
140
2.0
141
1.0
290
     0
  0
SCALE
  5
55
102
{ACAD_REACTORS
330
47
102
}
330
47
100
AcDbScale
 70
     0
300
4:1
140
4.0
141
1.0
290
     0
  0
SCALE
  5
56
102
{ACAD_REACTORS
330
47
102
}
330
47
100
AcDbScale
 70
     0
300
8:1
140
8.0
141
1.0
290
     0
  0
SCALE
  5
57
102
{ACAD_REACTORS
330
47
102
}
330
47
100
AcDbScale
 70
     0
300
10:1
140
10.0
141
1.0
290
     0
  0
SCALE
  5
58
102
{ACAD_REACTORS
330
47
102
}
330
47
100
AcDbScale
 70
     0
300
100:1
140
100.0
141
1.0
290
     0
  0
SCALE
  5
59
102
{ACAD_REACTORS
330
47
102
}
330
47
100
AcDbScale
 70
     0
300
1/128" = 1'-0"
140
0.007812
141
12.0
290
     0
  0
SCALE
  5
5A
102
{ACAD_REACTORS
330
47
102
}
330
47
100
AcDbScale
 70
     0
300
1/64" = 1'-0"
140
0.015625
141
12.0
290
     0
  0
SCALE
  5
5B
102
{ACAD_REACTORS
330
47
102
}
330
47
100
AcDbScale
 70
     0
300
1/32" = 1'-0"
140
0.03125
141
12.0
290
     0
  0
SCALE
  5
5C
102
{ACAD_REACTORS
330
47
102
}
330
47
100
AcDbScale
 70
     0
300
1/16" = 1'-0"
140
0.0625
141
12.0
290
     0
  0
SCALE
  5
5D
102
{ACAD_REACTORS
330
47
102
}
330
47
100
AcDbScale
 70
     0
300
3/32" = 1'-0"
140
0.09375
141
12.0
290
     0
  0
SCALE
  5
5E
102
{ACAD_REACTORS
330
47
102
}
330
47
100
AcDbScale
 70
     0
300
1/8" = 1'-0"
140
0.125
141
12.0
290
     0
  0
SCALE
  5
5F
102
{ACAD_REACTORS
330
47
102
}
330
47
100
AcDbScale
 70
     0
300
3/16" = 1'-0"
140
0.1875
141
12.0
290
     0
  0
SCALE
  5
60
102
{ACAD_REACTORS
330
47
102
}
330
47
100
AcDbScale
 70
     0
300
1/4" = 1'-0"
140
0.25
141
12.0
290
     0
  0
SCALE
  5
61
102
{ACAD_REACTORS
330
47
102
}
330
47
100
AcDbScale
 70
     0
300
3/8" = 1'-0"
140
0.375
141
12.0
290
     0
  0
SCALE
  5
62
102
{ACAD_REACTORS
330
47
102
}
330
47
100
AcDbScale
 70
     0
300
1/2" = 1'-0"
140
0.5
141
12.0
290
     0
  0
SCALE
  5
63
102
{ACAD_REACTORS
330
47
102
}
330
47
100
AcDbScale
 70
     0
300
3/4" = 1'-0"
140
0.75
141
12.0
290
     0
  0
SCALE
  5
64
102
{ACAD_REACTORS
330
47
102
}
330
47
100
AcDbScale
 70
     0
300
1" = 1'-0"
140
1.0
141
12.0
290
     0
  0
SCALE
  5
65
102
{ACAD_REACTORS
330
47
102
}
330
47
100
AcDbScale
 70
     0
300
1-1/2" = 1'-0"
140
1.5
141
12.0
290
     0
  0
SCALE
  5
66
102
{ACAD_REACTORS
330
47
102
}
330
47
100
AcDbScale
 70
     0
300
3" = 1'-0"
140
3.0
141
12.0
290
     0
  0
SCALE
  5
67
102
{ACAD_REACTORS
330
47
102
}
330
47
100
AcDbScale
 70
     0
300
6" = 1'-0"
140
6.0
141
12.0
290
     0
  0
SCALE
  5
68
102
{ACAD_REACTORS
330
47
102
}
330
47
100
AcDbScale
 70
     0
300
1'-0" = 1'-0"
140
12.0
141
12.0
290
     0
  0
ACDBSECTIONVIEWSTYLE
  5
F7
102
{ACAD_REACTORS
330
F6
102
}
330
F6
100
AcDbModelDocViewStyle
 70
     0
  3
Metric50
290
     0
300
Metric50
 90
        0
100
AcDbSectionViewStyle
 70
     0
 71
     0
 90
      102
 71
     1
340
11
 62
   256
 40
5.0
340
0
340
0
 62
   256
 40
5.0
300
I, O, Q, S, X, Z
 40
10.0
 90
        0
 40
2.5
 90
        0
 71
     2
340
16
 90
       25
 62
   256
340
16
 90
       50
 62
   256
 40
5.0
 40
2.5
 40
5.0
 71
     3
340
11
 62
   256
 40
5.0
 90
        0
 40
15.0
 90
        1
300
%<\AcVar ViewSectionStartId>%-%<\AcVar ViewSectionEndId>% (%<\AcVar ViewScale \f "%sn">%)
 71
     4
 62
   256
 62
   257
300
ANSI31
 40
1.0
 90
        0
290
     0
290
     0
 90
        6
 40
0.0
 40
1.570796326794896
 40
0.2617993877991494
 40
1.308996938995747
 40
-0.2617993877991494
 40
1.832595714594046
  0
TABLESTYLE
  5
F3
102
{ACAD_XDICTIONARY
360
14E
102
}
102
{ACAD_REACTORS
330
F2
102
}
330
F2
100
AcDbTableStyle
280
     0
  3
Standard
 70
     0
 71
     0
 40
1.5
 41
1.5
280
     0
281
     0
  7
Standard
140
4.5
170
     2
 62
     0
 63
     7
283
     0
 90
      512
 91
        0
  1

274
    -2
284
     1
 64
     0
275
    -2
285
     1
 65
     0
276
    -2
286
     1
 66
     0
277
    -2
287
     1
 67
     0
278
    -2
288
     1
 68
     0
279
    -2
289
     1
 69
     0
  7
Standard
140
6.0
170
     5
 62
     0
 63
     7
283
     0
 90
      512
 91
        0
  1

274
    -2
284
     1
 64
     0
275
    -2
285
     1
 65
     0
276
    -2
286
     1
 66
     0
277
    -2
287
     1
 67
     0
278
    -2
288
     1
 68
     0
279
    -2
289
     1
 69
     0
  7
Standard
140
4.5
170
     5
 62
     0
 63
     7
283
     0
 90
      512
 91
        0
  1

274
    -2
284
     1
 64
     0
275
    -2
285
     1
 65
     0
276
    -2
286
     1
 66
     0
277
    -2
287
     1
 67
     0
278
    -2
288
     1
 68
     0
279
    -2
289
     1
 69
     0
  0
VISUALSTYLE
  5
DE
102
{ACAD_REACTORS
330
D8
102
}
330
D8
100
AcDbVisualStyle
  2
2dWireframe
 70
     4
177
     3
291
     0
 70
    58
 90
        0
176
     1
 90
        2
176
     1
 90
        0
176
     1
 90
        0
176
     1
 40
0.6
176
     1
 40
30.0
176
     1
 62
     7
420
 16777215
176
     1
 90
        1
176
     1
 90
        4
176
     1
 62
     7
176
     1
 62
   257
176
     1
 90
        1
176
     1
 90
        1
176
     1
 40
1.0
176
     1
 90
        0
176
     1
 62
   257
176
     1
 40
1.0
176
     1
 90
        1
176
     1
 90
        6
176
     1
 90
        2
176
     1
 62
     7
176
     1
 90
        5
176
     1
 90
        0
176
     1
 90
        0
176
     1
290
     0
176
     1
 90
        1
176
     1
 40
0.0
176
     1
 90
        0
176
     1
290
     1
176
     1
290
     1
176
     1
290
     0
176
     1
290
     0
176
     1
290
     0
176
     1
290
     0
176
     1
290
     0
176
     1
290
     0
176
     1
290
     0
176
     1
 90
       50
176
     1
 40
0.0
176
     1
 40
1.0
176
     1
 90
        0
176
     1
 62
    18
420
        0
176
     1
 90
       50
176
     1
 90
        3
176
     1
 62
     5
420
      255
176
     1
290
     0
176
     1
 90
       50
176
     1
 90
       50
176
     1
 90
       50
176
     1
290
     0
176
     1
 90
       50
176
     1
 62
   256
176
     0
 40
1.0
176
     0
 90
        2
176
     1
  1
strokes_ogs.tif
176
     1
290
     0
176
     1
 40
1.0
176
     1
 40
1.0
176
     1
  0
VISUALSTYLE
  5
DD
102
{ACAD_REACTORS
330
D8
102
}
330
D8
100
AcDbVisualStyle
  2
Basic
 70
     7
177
     3
291
     1
 70
    58
 90
        1
176
     1
 90
        0
176
     1
 90
        1
176
     1
 90
        0
176
     1
 40
0.6
176
     1
 40
30.0
176
     1
 62
     7
420
 16777215
176
     1
 90
        0
176
     1
 90
        4
176
     1
 62
     7
176
     1
 62
   257
176
     1
 90
        1
176
     1
 90
        1
176
     1
 40
1.0
176
     1
 90
        8
176
     1
 62
     7
176
     1
 40
1.0
176
     1
 90
        1
176
     1
 90
        6
176
     1
 90
        2
176
     1
 62
     7
176
     1
 90
        5
176
     1
 90
        0
176
     1
 90
        0
176
     1
290
     0
176
     1
 90
        1
176
     1
 40
0.0
176
     1
 90
        0
176
     1
290
     0
176
     1
290
     1
176
     1
290
     1
176
     1
290
     0
176
     1
290
     0
176
     1
290
     0
176
     1
290
     0
176
     1
290
     0
176
     1
290
     0
176
     1
 90
       50
176
     1
 40
0.0
176
     1
 40
1.0
176
     1
 90
        0
176
     1
 62
    18
420
        0
176
     1
 90
       50
176
     1
 90
        3
176
     1
 62
     5
420
      255
176
     1
290
     0
176
     1
 90
       50
176
     1
 90
       50
176
     1
 90
       50
176
     1
290
     0
176
     1
 90
       50
176
     1
 62
   256
176
     0
 40
1.0
176
     0
 90
        2
176
     1
  1
strokes_ogs.tif
176
     1
290
     0
176
     1
 40
1.0
176
     1
 40
1.0
176
     1
  0
VISUALSTYLE
  5
E4
102
{ACAD_REACTORS
330
D8
102
}
330
D8
100
AcDbVisualStyle
  2
Brighten
 70
    12
177
     3
291
     1
 70
    58
 90
        2
176
     1
 90
        2
176
     1
 90
        0
176
     1
 90
        0
176
     1
 40
0.6
176
     1
 40
30.0
176
     1
 62
     7
420
 16777215
176
     1
 90
        1
176
     1
 90
        4
176
     1
 62
     7
176
     1
 62
   257
176
     1
 90
        1
176
     1
 90
        1
176
     1
 40
1.0
176
     1
 90
        8
176
     1
 62
     7
176
     1
 40
1.0
176
     1
 90
        1
176
     1
 90
        6
176
     1
 90
        2
176
     1
 62
     7
176
     1
 90
        5
176
     1
 90
        0
176
     1
 90
        0
176
     1
290
     0
176
     1
 90
        1
176
     1
 40
50.0
176
     1
 90
        0
176
     1
290
     0
176
     1
290
     1
176
     1
290
     1
176
     1
290
     0
176
     1
290
     0
176
     1
290
     0
176
     1
290
     0
176
     1
290
     0
176
     1
290
     0
176
     1
 90
       50
176
     1
 40
0.0
176
     1
 40
1.0
176
     1
 90
        0
176
     1
 62
    18
420
        0
176
     1
 90
       50
176
     1
 90
        3
176
     1
 62
     5
420
      255
176
     1
290
     0
176
     1
 90
       50
176
     1
 90
       50
176
     1
 90
       50
176
     1
290
     0
176
     1
 90
       50
176
     1
 62
   256
176
     0
 40
1.0
176
     0
 90
        2
176
     1
  1
strokes_ogs.tif
176
     1
290
     0
176
     1
 40
1.0
176
     1
 40
1.0
176
     1
  0
VISUALSTYLE
  5
E8
102
{ACAD_REACTORS
330
D8
102
}
330
D8
100
AcDbVisualStyle
  2
ColorChange
 70
    16
177
     3
291
     1
 70
    58
 90
        2
176
     1
 90
        2
176
     1
 90
        3
176
     1
 90
        0
176
     1
 40
0.6
176
     1
 40
30.0
176
     1
 62
     8
420
  8421504
176
     1
 90
        1
176
     1
 90
        4
176
     1
 62
     7
176
     1
 62
   257
176
     1
 90
        1
176
     1
 90
        1
176
     1
 40
1.0
176
     1
 90
        8
176
     1
 62
     8
420
  8421504
176
     1
 40
1.0
176
     1
 90
        1
176
     1
 90
        6
176
     1
 90
        2
176
     1
 62
     7
176
     1
 90
        5
176
     1
 90
        0
176
     1
 90
        0
176
     1
290
     0
176
     1
 90
        1
176
     1
 40
0.0
176
     1
 90
        0
176
     1
290
     0
176
     1
290
     1
176
     1
290
     1
176
     1
290
     0
176
     1
290
     0
176
     1
290
     0
176
     1
290
     0
176
     1
290
     0
176
     1
290
     0
176
     1
 90
       50
176
     1
 40
0.0
176
     1
 40
1.0
176
     1
 90
        0
176
     1
 62
    18
420
        0
176
     1
 90
       50
176
     1
 90
        3
176
     1
 62
     5
420
      255
176
     1
290
     0
176
     1
 90
       50
176
     1
 90
       50
176
     1
 90
       50
176
     1
290
     0
176
     1
 90
       50
176
     1
 62
   256
176
     0
 40
1.0
176
     0
 90
        2
176
     1
  1
strokes_ogs.tif
176
     1
290
     0
176
     1
 40
1.0
176
     1
 40
1.0
176
     1
  0
VISUALSTYLE
  5
E1
102
{ACAD_REACTORS
330
D8
102
}
330
D8
100
AcDbVisualStyle
  2
Conceptual
 70
     9
177
     3
291
     0
 70
    58
 90
        3
176
     1
 90
        2
176
     1
 90
        0
176
     1
 90
        0
176
     1
 40
0.6
176
     1
 40
30.0
176
     1
 62
     7
420
 16777215
176
     1
 90
        2
176
     1
 90
        2
176
     1
 62
     7
176
     1
 62
   257
176
     1
 90
        1
176
     1
 90
        1
176
     1
 40
179.0
176
     1
 90
        8
176
     1
 62
     7
176
     1
 40
1.0
176
     1
 90
        1
176
     1
 90
        6
176
     1
 90
        2
176
     1
 62
     7
176
     1
 90
        3
176
     1
 90
        0
176
     1
 90
        0
176
     1
290
     0
176
     1
 90
        1
176
     1
 40
0.0
176
     1
 90
        0
176
     1
290
     0
176
     1
290
     1
176
     1
290
     1
176
     1
290
     0
176
     1
290
     0
176
     1
290
     0
176
     1
290
     0
176
     1
290
     0
176
     1
290
     0
176
     1
 90
       50
176
     1
 40
0.0
176
     1
 40
1.0
176
     1
 90
        0
176
     1
 62
    18
420
        0
176
     1
 90
       50
176
     1
 90
        3
176
     1
 62
     5
420
      255
176
     1
290
     0
176
     1
 90
       50
176
     1
 90
       50
176
     1
 90
       50
176
     1
290
     0
176
     1
 90
       50
176
     1
 62
   256
176
     0
 40
1.0
176
     0
 90
        2
176
     1
  1
strokes_ogs.tif
176
     1
290
     0
176
     1
 40
1.0
176
     1
 40
1.0
176
     1
  0
VISUALSTYLE
  5
E3
102
{ACAD_REACTORS
330
D8
102
}
330
D8
100
AcDbVisualStyle
  2
Dim
 70
    11
177
     3
291
     1
 70
    58
 90
        2
176
     1
 90
        2
176
     1
 90
        0
176
     1
 90
        0
176
     1
 40
0.6
176
     1
 40
30.0
176
     1
 62
     7
420
 16777215
176
     1
 90
        1
176
     1
 90
        4
176
     1
 62
     7
176
     1
 62
   257
176
     1
 90
        1
176
     1
 90
        1
176
     1
 40
1.0
176
     1
 90
        8
176
     1
 62
     7
176
     1
 40
1.0
176
     1
 90
        1
176
     1
 90
        6
176
     1
 90
        2
176
     1
 62
     7
176
     1
 90
        5
176
     1
 90
        0
176
     1
 90
        0
176
     1
290
     0
176
     1
 90
        1
176
     1
 40
-50.0
176
     1
 90
        0
176
     1
290
     0
176
     1
290
     1
176
     1
290
     1
176
     1
290
     0
176
     1
290
     0
176
     1
290
     0
176
     1
290
     0
176
     1
290
     0
176
     1
290
     0
176
     1
 90
       50
176
     1
 40
0.0
176
     1
 40
1.0
176
     1
 90
        0
176
     1
 62
    18
420
        0
176
     1
 90
       50
176
     1
 90
        3
176
     1
 62
     5
420
      255
176
     1
290
     0
176
     1
 90
       50
176
     1
 90
       50
176
     1
 90
       50
176
     1
290
     0
176
     1
 90
       50
176
     1
 62
   256
176
     0
 40
1.0
176
     0
 90
        2
176
     1
  1
strokes_ogs.tif
176
     1
290
     0
176
     1
 40
1.0
176
     1
 40
1.0
176
     1
  0
VISUALSTYLE
  5
F0
102
{ACAD_REACTORS
330
D8
102
}
330
D8
100
AcDbVisualStyle
  2
EdgeColorOff
 70
    22
177
     3
291
     1
 70
    58
 90
        2
176
     0
 90
        2
176
     0
 90
        0
176
     0
 90
        0
176
     0
 40
0.6
176
     0
 40
30.0
176
     0
 62
     7
420
 16777215
176
     0
 90
        1
176
     0
 90
        4
176
     0
 62
     7
176
     0
 62
   257
176
     0
 90
        1
176
     0
 90
        1
176
     0
 40
1.0
176
     0
 90
        8
176
     2
 62
     7
176
     0
 40
1.0
176
     0
 90
        1
176
     0
 90
        6
176
     0
 90
        2
176
     0
 62
     7
176
     0
 90
        5
176
     0
 90
        0
176
     0
 90
        0
176
     0
290
     0
176
     0
 90
        1
176
     0
 40
0.0
176
     0
 90
        0
176
     0
290
     0
176
     1
290
     1
176
     1
290
     1
176
     1
290
     0
176
     1
290
     0
176
     1
290
     0
176
     1
290
     0
176
     1
290
     0
176
     1
290
     0
176
     1
 90
       50
176
     0
 40
0.0
176
     0
 40
1.0
176
     0
 90
        0
176
     0
 62
    18
420
        0
176
     0
 90
       50
176
     0
 90
        3
176
     0
 62
     5
420
      255
176
     0
290
     0
176
     1
 90
       50
176
     0
 90
       50
176
     0
 90
       50
176
     0
290
     0
176
     1
 90
       50
176
     0
 62
   256
176
     0
 40
1.0
176
     0
 90
        2
176
     0
  1
strokes_ogs.tif
176
     0
290
     0
176
     1
 40
1.0
176
     0
 40
1.0
176
     0
  0
VISUALSTYLE
  5
E7
102
{ACAD_REACTORS
330
D8
102
}
330
D8
100
AcDbVisualStyle
  2
Facepattern
 70
    15
177
     3
291
     1
 70
    58
 90
        2
176
     1
 90
        2
176
     1
 90
        0
176
     1
 90
        0
176
     1
 40
0.6
176
     1
 40
30.0
176
     1
 62
     7
420
 16777215
176
     1
 90
        1
176
     1
 90
        4
176
     1
 62
     7
176
     1
 62
   257
176
     1
 90
        1
176
     1
 90
        1
176
     1
 40
1.0
176
     1
 90
        8
176
     1
 62
     7
176
     1
 40
1.0
176
     1
 90
        1
176
     1
 90
        6
176
     1
 90
        2
176
     1
 62
     7
176
     1
 90
        5
176
     1
 90
        0
176
     1
 90
        0
176
     1
290
     0
176
     1
 90
        1
176
     1
 40
0.0
176
     1
 90
        0
176
     1
290
     0
176
     1
290
     1
176
     1
290
     1
176
     1
290
     0
176
     1
290
     0
176
     1
290
     0
176
     1
290
     0
176
     1
290
     0
176
     1
290
     0
176
     1
 90
       50
176
     1
 40
0.0
176
     1
 40
1.0
176
     1
 90
        0
176
     1
 62
    18
420
        0
176
     1
 90
       50
176
     1
 90
        3
176
     1
 62
     5
420
      255
176
     1
290
     0
176
     1
 90
       50
176
     1
 90
       50
176
     1
 90
       50
176
     1
290
     0
176
     1
 90
       50
176
     1
 62
   256
176
     0
 40
1.0
176
     0
 90
        2
176
     1
  1
strokes_ogs.tif
176
     1
290
     0
176
     1
 40
1.0
176
     1
 40
1.0
176
     1
  0
VISUALSTYLE
  5
D9
102
{ACAD_REACTORS
330
D8
102
}
330
D8
100
AcDbVisualStyle
  2
Flat
 70
     0
177
     3
291
     1
 70
    58
 90
        2
176
     1
 90
        1
176
     1
 90
        1
176
     1
 90
        2
176
     1
 40
0.6
176
     1
 40
30.0
176
     1
 62
     7
420
 16777215
176
     1
 90
        0
176
     1
 90
        0
176
     1
 62
     7
176
     1
 62
   257
176
     1
 90
        1
176
     1
 90
        1
176
     1
 40
1.0
176
     1
 90
        8
176
     1
 62
     7
176
     1
 40
1.0
176
     1
 90
        1
176
     1
 90
        6
176
     1
 90
        2
176
     1
 62
     7
176
     1
 90
        5
176
     1
 90
        0
176
     1
 90
        0
176
     1
290
     0
176
     1
 90
       13
176
     1
 40
0.0
176
     1
 90
        0
176
     1
290
     0
176
     1
290
     1
176
     1
290
     1
176
     1
290
     0
176
     1
290
     0
176
     1
290
     0
176
     1
290
     0
176
     1
290
     0
176
     1
290
     0
176
     1
 90
       50
176
     1
 40
0.0
176
     1
 40
1.0
176
     1
 90
        0
176
     1
 62
    18
420
        0
176
     1
 90
       50
176
     1
 90
        3
176
     1
 62
     5
420
      255
176
     1
290
     0
176
     1
 90
       50
176
     1
 90
       50
176
     1
 90
       50
176
     1
290
     0
176
     1
 90
       50
176
     1
 62
   256
176
     0
 40
1.0
176
     0
 90
        2
176
     1
  1
strokes_ogs.tif
176
     1
290
     0
176
     1
 40
1.0
176
     1
 40
1.0
176
     1
  0
VISUALSTYLE
  5
DA
102
{ACAD_REACTORS
330
D8
102
}
330
D8
100
AcDbVisualStyle
  2
FlatWithEdges
 70
     1
177
     3
291
     1
 70
    58
 90
        2
176
     1
 90
        1
176
     1
 90
        1
176
     1
 90
        2
176
     1
 40
0.6
176
     1
 40
30.0
176
     1
 62
     7
420
 16777215
176
     1
 90
        1
176
     1
 90
        0
176
     1
 62
     7
176
     1
 62
   257
176
     1
 90
        1
176
     1
 90
        1
176
     1
 40
1.0
176
     1
 90
        0
176
     1
 62
   257
176
     1
 40
1.0
176
     1
 90
        1
176
     1
 90
        6
176
     1
 90
        2
176
     1
 62
     7
176
     1
 90
        5
176
     1
 90
        0
176
     1
 90
        0
176
     1
290
     0
176
     1
 90
       13
176
     1
 40
0.0
176
     1
 90
        0
176
     1
290
     0
176
     1
290
     1
176
     1
290
     1
176
     1
290
     0
176
     1
290
     0
176
     1
290
     0
176
     1
290
     0
176
     1
290
     0
176
     1
290
     0
176
     1
 90
       50
176
     1
 40
0.0
176
     1
 40
1.0
176
     1
 90
        0
176
     1
 62
    18
420
        0
176
     1
 90
       50
176
     1
 90
        3
176
     1
 62
     5
420
      255
176
     1
290
     0
176
     1
 90
       50
176
     1
 90
       50
176
     1
 90
       50
176
     1
290
     0
176
     1
 90
       50
176
     1
 62
   256
176
     0
 40
1.0
176
     0
 90
        2
176
     1
  1
strokes_ogs.tif
176
     1
290
     0
176
     1
 40
1.0
176
     1
 40
1.0
176
     1
  0
VISUALSTYLE
  5
DB
102
{ACAD_REACTORS
330
D8
102
}
330
D8
100
AcDbVisualStyle
  2
Gouraud
 70
     2
177
     3
291
     1
 70
    58
 90
        2
176
     1
 90
        2
176
     1
 90
        1
176
     1
 90
        2
176
     1
 40
0.6
176
     1
 40
30.0
176
     1
 62
     7
420
 16777215
176
     1
 90
        0
176
     1
 90
        0
176
     1
 62
     7
176
     1
 62
   257
176
     1
 90
        1
176
     1
 90
        1
176
     1
 40
1.0
176
     1
 90
        0
176
     1
 62
     7
176
     1
 40
1.0
176
     1
 90
        1
176
     1
 90
        6
176
     1
 90
        2
176
     1
 62
     7
176
     1
 90
        5
176
     1
 90
        0
176
     1
 90
        0
176
     1
290
     0
176
     1
 90
       13
176
     1
 40
0.0
176
     1
 90
        0
176
     1
290
     0
176
     1
290
     1
176
     1
290
     1
176
     1
290
     0
176
     1
290
     0
176
     1
290
     0
176
     1
290
     0
176
     1
290
     0
176
     1
290
     0
176
     1
 90
       50
176
     1
 40
0.0
176
     1
 40
1.0
176
     1
 90
        0
176
     1
 62
    18
420
        0
176
     1
 90
       50
176
     1
 90
        3
176
     1
 62
     5
420
      255
176
     1
290
     0
176
     1
 90
       50
176
     1
 90
       50
176
     1
 90
       50
176
     1
290
     0
176
     1
 90
       50
176
     1
 62
   256
176
     0
 40
1.0
176
     0
 90
        2
176
     1
  1
strokes_ogs.tif
176
     1
290
     0
176
     1
 40
1.0
176
     1
 40
1.0
176
     1
  0
VISUALSTYLE
  5
DC
102
{ACAD_REACTORS
330
D8
102
}
330
D8
100
AcDbVisualStyle
  2
GouraudWithEdges
 70
     3
177
     3
291
     1
 70
    58
 90
        2
176
     1
 90
        2
176
     1
 90
        1
176
     1
 90
        2
176
     1
 40
0.6
176
     1
 40
30.0
176
     1
 62
     7
420
 16777215
176
     1
 90
        1
176
     1
 90
        0
176
     1
 62
     7
176
     1
 62
   257
176
     1
 90
        1
176
     1
 90
        1
176
     1
 40
1.0
176
     1
 90
        0
176
     1
 62
   257
176
     1
 40
1.0
176
     1
 90
        1
176
     1
 90
        6
176
     1
 90
        2
176
     1
 62
     7
176
     1
 90
        5
176
     1
 90
        0
176
     1
 90
        0
176
     1
290
     0
176
     1
 90
       13
176
     1
 40
0.0
176
     1
 90
        0
176
     1
290
     0
176
     1
290
     1
176
     1
290
     1
176
     1
290
     0
176
     1
290
     0
176
     1
290
     0
176
     1
290
     0
176
     1
290
     0
176
     1
290
     0
176
     1
 90
       50
176
     1
 40
0.0
176
     1
 40
1.0
176
     1
 90
        0
176
     1
 62
    18
420
        0
176
     1
 90
       50
176
     1
 90
        3
176
     1
 62
     5
420
      255
176
     1
290
     0
176
     1
 90
       50
176
     1
 90
       50
176
     1
 90
       50
176
     1
290
     0
176
     1
 90
       50
176
     1
 62
   256
176
     0
 40
1.0
176
     0
 90
        2
176
     1
  1
strokes_ogs.tif
176
     1
290
     0
176
     1
 40
1.0
176
     1
 40
1.0
176
     1
  0
VISUALSTYLE
  5
E0
102
{ACAD_REACTORS
330
D8
102
}
330
D8
100
AcDbVisualStyle
  2
Hidden
 70
     6
177
     3
291
     0
 70
    58
 90
        1
176
     1
 90
        2
176
     1
 90
        2
176
     1
 90
        0
176
     1
 40
0.6
176
     1
 40
30.0
176
     1
 62
     7
420
 16777215
176
     1
 90
        2
176
     1
 90
        2
176
     1
 62
     7
176
     1
 62
   257
176
     1
 90
        2
176
     1
 90
        1
176
     1
 40
40.0
176
     1
 90
        0
176
     1
 62
   257
176
     1
 40
1.0
176
     1
 90
        1
176
     1
 90
        6
176
     1
 90
        2
176
     1
 62
     7
176
     1
 90
        3
176
     1
 90
        0
176
     1
 90
        0
176
     1
290
     0
176
     1
 90
        1
176
     1
 40
0.0
176
     1
 90
        0
176
     1
290
     0
176
     1
290
     1
176
     1
290
     1
176
     1
290
     0
176
     1
290
     0
176
     1
290
     0
176
     1
290
     0
176
     1
290
     0
176
     1
290
     0
176
     1
 90
       50
176
     1
 40
0.0
176
     1
 40
1.0
176
     1
 90
        0
176
     1
 62
    18
420
        0
176
     1
 90
       50
176
     1
 90
        3
176
     1
 62
     5
420
      255
176
     1
290
     0
176
     1
 90
       50
176
     1
 90
       50
176
     1
 90
       50
176
     1
290
     0
176
     1
 90
       50
176
     1
 62
   256
176
     0
 40
1.0
176
     0
 90
        2
176
     1
  1
strokes_ogs.tif
176
     1
290
     0
176
     1
 40
1.0
176
     1
 40
1.0
176
     1
  0
VISUALSTYLE
  5
EE
102
{ACAD_REACTORS
330
D8
102
}
330
D8
100
AcDbVisualStyle
  2
JitterOff
 70
    20
177
     3
291
     1
 70
    58
 90
        2
176
     0
 90
        2
176
     0
 90
        0
176
     0
 90
        0
176
     0
 40
0.6
176
     0
 40
30.0
176
     0
 62
     7
420
 16777215
176
     0
 90
        1
176
     0
 90
        4
176
     0
 62
     7
176
     0
 62
   257
176
     0
 90
        1
176
     0
 90
        1
176
     0
 40
1.0
176
     0
 90
       10
176
     2
 62
     7
176
     0
 40
1.0
176
     0
 90
        1
176
     0
 90
        6
176
     0
 90
        2
176
     0
 62
     7
176
     0
 90
        5
176
     0
 90
        0
176
     0
 90
        0
176
     0
290
     0
176
     0
 90
        1
176
     0
 40
0.0
176
     0
 90
        0
176
     0
290
     0
176
     1
290
     1
176
     1
290
     1
176
     1
290
     0
176
     1
290
     0
176
     1
290
     0
176
     1
290
     0
176
     1
290
     0
176
     1
290
     0
176
     1
 90
       50
176
     0
 40
0.0
176
     0
 40
1.0
176
     0
 90
        0
176
     0
 62
    18
420
        0
176
     0
 90
       50
176
     0
 90
        3
176
     0
 62
     5
420
      255
176
     0
290
     0
176
     1
 90
       50
176
     0
 90
       50
176
     0
 90
       50
176
     0
290
     0
176
     1
 90
       50
176
     0
 62
   256
176
     0
 40
1.0
176
     0
 90
        2
176
     0
  1
strokes_ogs.tif
176
     0
290
     0
176
     1
 40
1.0
176
     0
 40
1.0
176
     0
  0
VISUALSTYLE
  5
E6
102
{ACAD_REACTORS
330
D8
102
}
330
D8
100
AcDbVisualStyle
  2
Linepattern
 70
    14
177
     3
291
     1
 70
    58
 90
        2
176
     1
 90
        2
176
     1
 90
        0
176
     1
 90
        0
176
     1
 40
0.6
176
     1
 40
30.0
176
     1
 62
     7
420
 16777215
176
     1
 90
        1
176
     1
 90
        4
176
     1
 62
     7
176
     1
 62
   257
176
     1
 90
        7
176
     1
 90
        7
176
     1
 40
1.0
176
     1
 90
        8
176
     1
 62
     7
176
     1
 40
1.0
176
     1
 90
        1
176
     1
 90
        6
176
     1
 90
        2
176
     1
 62
     7
176
     1
 90
        5
176
     1
 90
        0
176
     1
 90
        0
176
     1
290
     0
176
     1
 90
        1
176
     1
 40
0.0
176
     1
 90
        0
176
     1
290
     0
176
     1
290
     1
176
     1
290
     1
176
     1
290
     0
176
     1
290
     0
176
     1
290
     0
176
     1
290
     0
176
     1
290
     0
176
     1
290
     0
176
     1
 90
       50
176
     1
 40
0.0
176
     1
 40
1.0
176
     1
 90
        0
176
     1
 62
    18
420
        0
176
     1
 90
       50
176
     1
 90
        3
176
     1
 62
     5
420
      255
176
     1
290
     0
176
     1
 90
       50
176
     1
 90
       50
176
     1
 90
       50
176
     1
290
     0
176
     1
 90
       50
176
     1
 62
   256
176
     0
 40
1.0
176
     0
 90
        2
176
     1
  1
strokes_ogs.tif
176
     1
290
     0
176
     1
 40
1.0
176
     1
 40
1.0
176
     1
  0
VISUALSTYLE
  5
EF
102
{ACAD_REACTORS
330
D8
102
}
330
D8
100
AcDbVisualStyle
  2
OverhangOff
 70
    21
177
     3
291
     1
 70
    58
 90
        2
176
     0
 90
        2
176
     0
 90
        0
176
     0
 90
        0
176
     0
 40
0.6
176
     0
 40
30.0
176
     0
 62
     7
420
 16777215
176
     0
 90
        1
176
     0
 90
        4
176
     0
 62
     7
176
     0
 62
   257
176
     0
 90
        1
176
     0
 90
        1
176
     0
 40
1.0
176
     0
 90
        9
176
     2
 62
     7
176
     0
 40
1.0
176
     0
 90
        1
176
     0
 90
        6
176
     0
 90
        2
176
     0
 62
     7
176
     0
 90
        5
176
     0
 90
        0
176
     0
 90
        0
176
     0
290
     0
176
     0
 90
        1
176
     0
 40
0.0
176
     0
 90
        0
176
     0
290
     0
176
     1
290
     1
176
     1
290
     1
176
     1
290
     0
176
     1
290
     0
176
     1
290
     0
176
     1
290
     0
176
     1
290
     0
176
     1
290
     0
176
     1
 90
       50
176
     0
 40
0.0
176
     0
 40
1.0
176
     0
 90
        0
176
     0
 62
    18
420
        0
176
     0
 90
       50
176
     0
 90
        3
176
     0
 62
     5
420
      255
176
     0
290
     0
176
     1
 90
       50
176
     0
 90
       50
176
     0
 90
       50
176
     0
290
     0
176
     1
 90
       50
176
     0
 62
   256
176
     0
 40
1.0
176
     0
 90
        2
176
     0
  1
strokes_ogs.tif
176
     0
290
     0
176
     1
 40
1.0
176
     0
 40
1.0
176
     0
  0
VISUALSTYLE
  5
E2
102
{ACAD_REACTORS
330
D8
102
}
330
D8
100
AcDbVisualStyle
  2
Realistic
 70
     8
177
     3
291
     0
 70
    58
 90
        2
176
     1
 90
        3
176
     1
 90
        0
176
     1
 90
        2
176
     1
 40
0.6
176
     1
 40
30.0
176
     1
 62
     7
420
 16777215
176
     1
 90
        0
176
     1
 90
        0
176
     1
 62
     7
176
     1
 62
   257
176
     1
 90
        1
176
     1
 90
        1
176
     1
 40
1.0
176
     1
 90
        8
176
     1
 62
   257
176
     1
 40
1.0
176
     1
 90
        1
176
     1
 90
        6
176
     1
 90
        2
176
     1
 62
     7
176
     1
 90
        3
176
     1
 90
        0
176
     1
 90
        0
176
     1
290
     0
176
     1
 90
       13
176
     1
 40
0.0
176
     1
 90
        0
176
     1
290
     0
176
     1
290
     1
176
     1
290
     1
176
     1
290
     0
176
     1
290
     0
176
     1
290
     0
176
     1
290
     0
176
     1
290
     0
176
     1
290
     0
176
     1
 90
       50
176
     1
 40
0.0
176
     1
 40
1.0
176
     1
 90
        0
176
     1
 62
    18
420
        0
176
     1
 90
       50
176
     1
 90
        3
176
     1
 62
     5
420
      255
176
     1
290
     0
176
     1
 90
       50
176
     1
 90
       50
176
     1
 90
       50
176
     1
290
     0
176
     1
 90
       50
176
     1
 62
   256
176
     0
 40
1.0
176
     0
 90
        2
176
     1
  1
strokes_ogs.tif
176
     1
290
     0
176
     1
 40
1.0
176
     1
 40
1.0
176
     1
  0
VISUALSTYLE
  5
ED
102
{ACAD_REACTORS
330
D8
102
}
330
D8
100
AcDbVisualStyle
  2
Shaded
 70
    27
177
     3
291
     0
 70
    58
 90
        2
176
     1
 90
        2
176
     1
 90
        1
176
     1
 90
        2
176
     1
 40
0.6
176
     1
 40
30.0
176
     1
 62
     7
420
 16777215
176
     1
 90
        0
176
     1
 90
        4
176
     1
 62
     7
176
     1
 62
   257
176
     1
 90
        1
176
     1
 90
        1
176
     1
 40
1.0
176
     1
 90
        8
176
     1
 62
   257
176
     1
 40
1.0
176
     1
 90
        1
176
     1
 90
        6
176
     1
 90
        2
176
     1
 62
     8
420
  7895160
176
     1
 90
        3
176
     1
 90
        0
176
     1
 90
        0
176
     1
290
     0
176
     1
 90
        5
176
     1
 40
0.0
176
     1
 90
        0
176
     1
290
     0
176
     1
290
     1
176
     1
290
     1
176
     1
290
     0
176
     1
290
     0
176
     1
290
     0
176
     1
290
     0
176
     1
290
     0
176
     1
290
     0
176
     1
 90
       50
176
     1
 40
0.0
176
     1
 40
1.0
176
     1
 90
        0
176
     1
 62
    18
420
        0
176
     1
 90
       50
176
     1
 90
        3
176
     1
 62
     5
420
      255
176
     1
290
     0
176
     1
 90
       50
176
     1
 90
       50
176
     1
 90
       50
176
     1
290
     0
176
     1
 90
       50
176
     1
 62
   256
176
     0
 40
1.0
176
     0
 90
        2
176
     1
  1
strokes_ogs.tif
176
     1
290
     0
176
     1
 40
1.0
176
     1
 40
1.0
176
     1
  0
VISUALSTYLE
  5
EC
102
{ACAD_REACTORS
330
D8
102
}
330
D8
100
AcDbVisualStyle
  2
Shaded with edges
 70
    26
177
     3
291
     0
 70
    58
 90
        2
176
     1
 90
        2
176
     1
 90
        1
176
     1
 90
        2
176
     1
 40
0.6
176
     1
 40
30.0
176
     1
 62
     7
420
 16777215
176
     1
 90
        1
176
     1
 90
        2
176
     1
 62
     7
176
     1
 62
   257
176
     1
 90
        2
176
     1
 90
        1
176
     1
 40
1.0
176
     1
 90
        8
176
     1
 62
   257
176
     1
 40
1.0
176
     1
 90
        1
176
     1
 90
        6
176
     1
 90
        2
176
     1
 62
     7
176
     1
 90
        3
176
     1
 90
        0
176
     1
 90
        0
176
     1
290
     0
176
     1
 90
        5
176
     1
 40
0.0
176
     1
 90
        0
176
     1
290
     0
176
     1
290
     1
176
     1
290
     1
176
     1
290
     0
176
     1
290
     0
176
     1
290
     0
176
     1
290
     0
176
     1
290
     0
176
     1
290
     0
176
     1
 90
       50
176
     1
 40
0.0
176
     1
 40
1.0
176
     1
 90
        0
176
     1
 62
    18
420
        0
176
     1
 90
       50
176
     1
 90
        3
176
     1
 62
     5
420
      255
176
     1
290
     0
176
     1
 90
       50
176
     1
 90
       50
176
     1
 90
       50
176
     1
290
     0
176
     1
 90
       50
176
     1
 62
   256
176
     0
 40
1.0
176
     0
 90
        2
176
     1
  1
strokes_ogs.tif
176
     1
290
     0
176
     1
 40
1.0
176
     1
 40
1.0
176
     1
  0
VISUALSTYLE
  5
E9
102
{ACAD_REACTORS
330
D8
102
}
330
D8
100
AcDbVisualStyle
  2
Shades of Gray
 70
    23
177
     3
291
     0
 70
    58
 90
        2
176
     1
 90
        2
176
     1
 90
        3
176
     1
 90
        0
176
     1
 40
0.6
176
     1
 40
30.0
176
     1
 62
     7
420
 16777215
176
     1
 90
        2
176
     1
 90
        2
176
     1
 62
     7
176
     1
 62
     7
176
     1
 90
        1
176
     1
 90
        1
176
     1
 40
40.0
176
     1
 90
        8
176
     1
 62
     7
176
     1
 40
1.0
176
     1
 90
        1
176
     1
 90
        6
176
     1
 90
        2
176
     1
 62
     7
176
     1
 90
        3
176
     1
 90
        0
176
     1
 90
        0
176
     1
290
     0
176
     1
 90
        1
176
     1
 40
0.0
176
     1
 90
        0
176
     1
290
     0
176
     1
290
     1
176
     1
290
     1
176
     1
290
     0
176
     1
290
     0
176
     1
290
     0
176
     1
290
     0
176
     1
290
     0
176
     1
290
     0
176
     1
 90
       50
176
     1
 40
0.0
176
     1
 40
1.0
176
     1
 90
        0
176
     1
 62
    18
420
        0
176
     1
 90
       50
176
     1
 90
        3
176
     1
 62
     5
420
      255
176
     1
290
     0
176
     1
 90
       50
176
     1
 90
       50
176
     1
 90
       50
176
     1
290
     0
176
     1
 90
       50
176
     1
 62
   256
176
     0
 40
1.0
176
     0
 90
        2
176
     1
  1
strokes_ogs.tif
176
     1
290
     0
176
     1
 40
1.0
176
     1
 40
1.0
176
     1
  0
VISUALSTYLE
  5
EA
102
{ACAD_REACTORS
330
D8
102
}
330
D8
100
AcDbVisualStyle
  2
Sketchy
 70
    24
177
     3
291
     0
 70
    58
 90
        1
176
     1
 90
        2
176
     1
 90
        2
176
     1
 90
        0
176
     1
 40
0.6
176
     1
 40
30.0
176
     1
 62
     7
420
 16777215
176
     1
 90
        2
176
     1
 90
        2
176
     1
 62
     7
176
     1
 62
     7
176
     1
 90
        1
176
     1
 90
        1
176
     1
 40
40.0
176
     1
 90
       11
176
     1
 62
     7
176
     1
 40
1.0
176
     1
 90
        1
176
     1
 90
        6
176
     1
 90
        2
176
     1
 62
     7
176
     1
 90
        6
176
     1
 90
        0
176
     1
 90
        0
176
     1
290
     0
176
     1
 90
        1
176
     1
 40
0.0
176
     1
 90
        0
176
     1
290
     0
176
     1
290
     1
176
     1
290
     1
176
     1
290
     0
176
     1
290
     0
176
     1
290
     0
176
     1
290
     0
176
     1
290
     0
176
     1
290
     0
176
     1
 90
       50
176
     1
 40
0.0
176
     1
 40
1.0
176
     1
 90
        0
176
     1
 62
    18
420
        0
176
     1
 90
       50
176
     1
 90
        3
176
     1
 62
     5
420
      255
176
     1
290
     0
176
     1
 90
       50
176
     1
 90
       50
176
     1
 90
       50
176
     1
290
     0
176
     1
 90
       50
176
     1
 62
   256
176
     0
 40
1.0
176
     0
 90
        2
176
     1
  1
strokes_ogs.tif
176
     1
290
     0
176
     1
 40
1.0
176
     1
 40
1.0
176
     1
  0
VISUALSTYLE
  5
E5
102
{ACAD_REACTORS
330
D8
102
}
330
D8
100
AcDbVisualStyle
  2
Thicken
 70
    13
177
     3
291
     1
 70
    58
 90
        2
176
     1
 90
        2
176
     1
 90
        0
176
     1
 90
        0
176
     1
 40
0.6
176
     1
 40
30.0
176
     1
 62
     7
420
 16777215
176
     1
 90
        1
176
     1
 90
        4
176
     1
 62
     7
176
     1
 62
   257
176
     1
 90
        1
176
     1
 90
        1
176
     1
 40
1.0
176
     1
 90
       12
176
     1
 62
     7
176
     1
 40
1.0
176
     1
 90
        1
176
     1
 90
        6
176
     1
 90
        2
176
     1
 62
     7
176
     1
 90
        5
176
     1
 90
        0
176
     1
 90
        0
176
     1
290
     0
176
     1
 90
        1
176
     1
 40
0.0
176
     1
 90
        0
176
     1
290
     0
176
     1
290
     1
176
     1
290
     1
176
     1
290
     0
176
     1
290
     0
176
     1
290
     0
176
     1
290
     0
176
     1
290
     0
176
     1
290
     0
176
     1
 90
       50
176
     1
 40
0.0
176
     1
 40
1.0
176
     1
 90
        0
176
     1
 62
    18
420
        0
176
     1
 90
       50
176
     1
 90
        3
176
     1
 62
     5
420
      255
176
     1
290
     0
176
     1
 90
       50
176
     1
 90
       50
176
     1
 90
       50
176
     1
290
     0
176
     1
 90
       50
176
     1
 62
   256
176
     0
 40
1.0
176
     0
 90
        2
176
     1
  1
strokes_ogs.tif
176
     1
290
     0
176
     1
 40
1.0
176
     1
 40
1.0
176
     1
  0
VISUALSTYLE
  5
DF
102
{ACAD_REACTORS
330
D8
102
}
330
D8
100
AcDbVisualStyle
  2
Wireframe
 70
     5
177
     3
291
     0
 70
    58
 90
        0
176
     1
 90
        2
176
     1
 90
        0
176
     1
 90
        0
176
     1
 40
0.6
176
     1
 40
30.0
176
     1
 62
     7
420
 16777215
176
     1
 90
        1
176
     1
 90
        4
176
     1
 62
     7
176
     1
 62
   257
176
     1
 90
        1
176
     1
 90
        1
176
     1
 40
1.0
176
     1
 90
        0
176
     1
 62
   257
176
     1
 40
1.0
176
     1
 90
        1
176
     1
 90
        6
176
     1
 90
        2
176
     1
 62
     7
176
     1
 90
        3
176
     1
 90
        0
176
     1
 90
        0
176
     1
290
     0
176
     1
 90
        1
176
     1
 40
0.0
176
     1
 90
        0
176
     1
290
     0
176
     1
290
     1
176
     1
290
     1
176
     1
290
     0
176
     1
290
     0
176
     1
290
     0
176
     1
290
     0
176
     1
290
     0
176
     1
290
     0
176
     1
 90
       50
176
     1
 40
0.0
176
     1
 40
1.0
176
     1
 90
        0
176
     1
 62
    18
420
        0
176
     1
 90
       50
176
     1
 90
        3
176
     1
 62
     5
420
      255
176
     1
290
     0
176
     1
 90
       50
176
     1
 90
       50
176
     1
 90
       50
176
     1
290
     0
176
     1
 90
       50
176
     1
 62
   256
176
     0
 40
1.0
176
     0
 90
        2
176
     1
  1
strokes_ogs.tif
176
     1
290
     0
176
     1
 40
1.0
176
     1
 40
1.0
176
     1
  0
VISUALSTYLE
  5
EB
102
{ACAD_REACTORS
330
D8
102
}
330
D8
100
AcDbVisualStyle
  2
X-Ray
 70
    25
177
     3
291
     0
 70
    58
 90
        2
176
     1
 90
        2
176
     1
 90
        1
176
     1
 90
        1
176
     1
 40
0.5
176
     1
 40
30.0
176
     1
 62
     7
420
 16777215
176
     1
 90
        1
176
     1
 90
        0
176
     1
 62
     7
176
     1
 62
   257
176
     1
 90
        1
176
     1
 90
        1
176
     1
 40
1.0
176
     1
 90
        8
176
     1
 62
     7
176
     1
 40
1.0
176
     1
 90
        1
176
     1
 90
        6
176
     1
 90
        2
176
     1
 62
     7
176
     1
 90
        3
176
     1
 90
        0
176
     1
 90
        0
176
     1
290
     0
176
     1
 90
       13
176
     1
 40
0.0
176
     1
 90
        0
176
     1
290
     0
176
     1
290
     1
176
     1
290
     1
176
     1
290
     0
176
     1
290
     0
176
     1
290
     0
176
     1
290
     0
176
     1
290
     0
176
     1
290
     0
176
     1
 90
       50
176
     1
 40
0.0
176
     1
 40
1.0
176
     1
 90
        0
176
     1
 62
    18
420
        0
176
     1
 90
       50
176
     1
 90
        3
176
     1
 62
     5
420
      255
176
     1
290
     0
176
     1
 90
       50
176
     1
 90
       50
176
     1
 90
       50
176
     1
290
     0
176
     1
 90
       50
176
     1
 62
   256
176
     0
 40
1.0
176
     0
 90
        2
176
     1
  1
strokes_ogs.tif
176
     1
290
     0
176
     1
 40
1.0
176
     1
 40
1.0
176
     1
  0
DICTIONARYVAR
  5
149
102
{ACAD_REACTORS
330
FD
102
}
330
FD
100
DictionaryVariables
280
     0
  1
1:1
  0
DICTIONARYVAR
  5
145
102
{ACAD_REACTORS
330
FD
102
}
330
FD
100
DictionaryVariables
280
     0
  1
STANDARD
  0
DICTIONARYVAR
  5
144
102
{ACAD_REACTORS
330
FD
102
}
330
FD
100
DictionaryVariables
280
     0
  1
STANDARD
  0
DICTIONARYVAR
  5
146
102
{ACAD_REACTORS
330
FD
102
}
330
FD
100
DictionaryVariables
280
     0
  1
Metric50
  0
DICTIONARYVAR
  5
147
102
{ACAD_REACTORS
330
FD
102
}
330
FD
100
DictionaryVariables
280
     0
  1
Metric50
  0
DICTIONARYVAR
  5
14B
102
{ACAD_REACTORS
330
FD
102
}
330
FD
100
DictionaryVariables
280
     0
  1
1
  0
DICTIONARYVAR
  5
14C
102
{ACAD_REACTORS
330
FD
102
}
330
FD
100
DictionaryVariables
280
     0
  1
15
  0
DICTIONARYVAR
  5
14A
102
{ACAD_REACTORS
330
FD
102
}
330
FD
100
DictionaryVariables
280
     0
  1
0
  0
DICTIONARYVAR
  5
148
102
{ACAD_REACTORS
330
FD
102
}
330
FD
100
DictionaryVariables
280
     0
  1
0
  0
DICTIONARY
  5
C9
330
C8
100
AcDbDictionary
280
     1
281
     1
  3
BUMPTILE
360
CB
  3
DIFFUSETILE
360
CA
  3
OPACITYTILE
360
CE
  3
REFLECTIONTILE
360
CD
  3
REFRACTIONTILE
360
CF
  3
SPECULARTILE
360
CC
  0
DICTIONARY
  5
C1
330
C0
100
AcDbDictionary
280
     1
281
     1
  3
BUMPTILE
360
C3
  3
DIFFUSETILE
360
C2
  3
OPACITYTILE
360
C6
  3
REFLECTIONTILE
360
C5
  3
REFRACTIONTILE
360
C7
  3
SPECULARTILE
360
C4
  0
DICTIONARY
  5
D1
330
D0
100
AcDbDictionary
280
     1
281
     1
  3
BUMPTILE
360
D3
  3
DIFFUSETILE
360
D2
  3
OPACITYTILE
360
D6
  3
REFLECTIONTILE
360
D5
  3
REFRACTIONTILE
360
D7
  3
SPECULARTILE
360
D4
  0
DICTIONARY
  5
14E
330
F3
100
AcDbDictionary
280
     1
281
     1
  3
ACAD_ROUNDTRIP_2008_TABLESTYLE_CELLSTYLEMAP
360
14F
  0
XRECORD
  5
CB
102
{ACAD_REACTORS
330
C9
102
}
330
C9
100
AcDbXrecord
280
     1
270
     1
271
     1
  0
XRECORD
  5
CA
102
{ACAD_REACTORS
330
C9
102
}
330
C9
100
AcDbXrecord
280
     1
270
     1
271
     1
  0
XRECORD
  5
CE
102
{ACAD_REACTORS
330
C9
102
}
330
C9
100
AcDbXrecord
280
     1
270
     1
271
     1
  0
XRECORD
  5
CD
102
{ACAD_REACTORS
330
C9
102
}
330
C9
100
AcDbXrecord
280
     1
270
     1
271
     1
  0
XRECORD
  5
CF
102
{ACAD_REACTORS
330
C9
102
}
330
C9
100
AcDbXrecord
280
     1
270
     1
271
     1
  0
XRECORD
  5
CC
102
{ACAD_REACTORS
330
C9
102
}
330
C9
100
AcDbXrecord
280
     1
270
     1
271
     1
  0
XRECORD
  5
C3
102
{ACAD_REACTORS
330
C1
102
}
330
C1
100
AcDbXrecord
280
     1
270
     1
271
     1
  0
XRECORD
  5
C2
102
{ACAD_REACTORS
330
C1
102
}
330
C1
100
AcDbXrecord
280
     1
270
     1
271
     1
  0
XRECORD
  5
C6
102
{ACAD_REACTORS
330
C1
102
}
330
C1
100
AcDbXrecord
280
     1
270
     1
271
     1
  0
XRECORD
  5
C5
102
{ACAD_REACTORS
330
C1
102
}
330
C1
100
AcDbXrecord
280
     1
270
     1
271
     1
  0
XRECORD
  5
C7
102
{ACAD_REACTORS
330
C1
102
}
330
C1
100
AcDbXrecord
280
     1
270
     1
271
     1
  0
XRECORD
  5
C4
102
{ACAD_REACTORS
330
C1
102
}
330
C1
100
AcDbXrecord
280
     1
270
     1
271
     1
  0
XRECORD
  5
D3
102
{ACAD_REACTORS
330
D1
102
}
330
D1
100
AcDbXrecord
280
     1
270
     1
271
     1
  0
XRECORD
  5
D2
102
{ACAD_REACTORS
330
D1
102
}
330
D1
100
AcDbXrecord
280
     1
270
     1
271
     1
  0
XRECORD
  5
D6
102
{ACAD_REACTORS
330
D1
102
}
330
D1
100
AcDbXrecord
280
     1
270
     1
271
     1
  0
XRECORD
  5
D5
102
{ACAD_REACTORS
330
D1
102
}
330
D1
100
AcDbXrecord
280
     1
270
     1
271
     1
  0
XRECORD
  5
D7
102
{ACAD_REACTORS
330
D1
102
}
330
D1
100
AcDbXrecord
280
     1
270
     1
271
     1
  0
XRECORD
  5
D4
102
{ACAD_REACTORS
330
D1
102
}
330
D1
100
AcDbXrecord
280
     1
270
     1
271
     1
  0
CELLSTYLEMAP
  5
14F
102
{ACAD_REACTORS
330
14E
102
}
330
14E
100
AcDbCellStyleMap
 90
        3
300
CELLSTYLE
  1
TABLEFORMAT_BEGIN
 90
        5
170
     1
 91
        0
 92
    32768
 62
   257
 93
        1
300
CONTENTFORMAT
  1
CONTENTFORMAT_BEGIN
 90
        0
 91
        0
 92
      512
 93
        0
300

 40
0.0
140
1.0
 94
        5
 62
     0
340
11
144
6.0
309
CONTENTFORMAT_END
171
     1
301
MARGIN
  1
CELLMARGIN_BEGIN
 40
1.5
 40
1.5
 40
1.5
 40
1.5
 40
4.5
 40
4.5
309
CELLMARGIN_END
 94
        6
 95
        1
302
GRIDFORMAT
  1
GRIDFORMAT_BEGIN
 90
        0
 91
        1
 62
     0
 92
       -2
340
0
 93
        0
 40
1.125
309
GRIDFORMAT_END
 95
        2
302
GRIDFORMAT
  1
GRIDFORMAT_BEGIN
 90
        0
 91
        1
 62
     0
 92
       -2
340
0
 93
        0
 40
1.125
309
GRIDFORMAT_END
 95
        4
302
GRIDFORMAT
  1
GRIDFORMAT_BEGIN
 90
        0
 91
        1
 62
     0
 92
       -2
340
0
 93
        0
 40
1.125
309
GRIDFORMAT_END
 95
        8
302
GRIDFORMAT
  1
GRIDFORMAT_BEGIN
 90
        0
 91
        1
 62
     0
 92
       -2
340
0
 93
        0
 40
1.125
309
GRIDFORMAT_END
 95
       16
302
GRIDFORMAT
  1
GRIDFORMAT_BEGIN
 90
        0
 91
        1
 62
     0
 92
       -2
340
0
 93
        0
 40
1.125
309
GRIDFORMAT_END
 95
       32
302
GRIDFORMAT
  1
GRIDFORMAT_BEGIN
 90
        0
 91
        1
 62
     0
 92
       -2
340
0
 93
        0
 40
1.125
309
GRIDFORMAT_END
309
TABLEFORMAT_END
  1
CELLSTYLE_BEGIN
 90
        1
 91
        1
300
_TITLE
309
CELLSTYLE_END
300
CELLSTYLE
  1
TABLEFORMAT_BEGIN
 90
        5
170
     1
 91
        0
 92
        0
 62
   257
 93
        1
300
CONTENTFORMAT
  1
CONTENTFORMAT_BEGIN
 90
        0
 91
        0
 92
      512
 93
        0
300

 40
0.0
140
1.0
 94
        5
 62
     0
340
11
144
4.5
309
CONTENTFORMAT_END
171
     1
301
MARGIN
  1
CELLMARGIN_BEGIN
 40
1.5
 40
1.5
 40
1.5
 40
1.5
 40
4.5
 40
4.5
309
CELLMARGIN_END
 94
        6
 95
        1
302
GRIDFORMAT
  1
GRIDFORMAT_BEGIN
 90
        0
 91
        1
 62
     0
 92
       -2
340
0
 93
        0
 40
1.125
309
GRIDFORMAT_END
 95
        2
302
GRIDFORMAT
  1
GRIDFORMAT_BEGIN
 90
        0
 91
        1
 62
     0
 92
       -2
340
0
 93
        0
 40
1.125
309
GRIDFORMAT_END
 95
        4
302
GRIDFORMAT
  1
GRIDFORMAT_BEGIN
 90
        0
 91
        1
 62
     0
 92
       -2
340
0
 93
        0
 40
1.125
309
GRIDFORMAT_END
 95
        8
302
GRIDFORMAT
  1
GRIDFORMAT_BEGIN
 90
        0
 91
        1
 62
     0
 92
       -2
340
0
 93
        0
 40
1.125
309
GRIDFORMAT_END
 95
       16
302
GRIDFORMAT
  1
GRIDFORMAT_BEGIN
 90
        0
 91
        1
 62
     0
 92
       -2
340
0
 93
        0
 40
1.125
309
GRIDFORMAT_END
 95
       32
302
GRIDFORMAT
  1
GRIDFORMAT_BEGIN
 90
        0
 91
        1
 62
     0
 92
       -2
340
0
 93
        0
 40
1.125
309
GRIDFORMAT_END
309
TABLEFORMAT_END
  1
CELLSTYLE_BEGIN
 90
        2
 91
        1
300
_HEADER
309
CELLSTYLE_END
300
CELLSTYLE
  1
TABLEFORMAT_BEGIN
 90
        5
170
     1
 91
        0
 92
        0
 62
   257
 93
        1
300
CONTENTFORMAT
  1
CONTENTFORMAT_BEGIN
 90
        0
 91
        0
 92
      512
 93
        0
300

 40
0.0
140
1.0
 94
        2
 62
     0
340
11
144
4.5
309
CONTENTFORMAT_END
171
     1
301
MARGIN
  1
CELLMARGIN_BEGIN
 40
1.5
 40
1.5
 40
1.5
 40
1.5
 40
4.5
 40
4.5
309
CELLMARGIN_END
 94
        6
 95
        1
302
GRIDFORMAT
  1
GRIDFORMAT_BEGIN
 90
        0
 91
        1
 62
     0
 92
       -2
340
0
 93
        0
 40
1.125
309
GRIDFORMAT_END
 95
        2
302
GRIDFORMAT
  1
GRIDFORMAT_BEGIN
 90
        0
 91
        1
 62
     0
 92
       -2
340
0
 93
        0
 40
1.125
309
GRIDFORMAT_END
 95
        4
302
GRIDFORMAT
  1
GRIDFORMAT_BEGIN
 90
        0
 91
        1
 62
     0
 92
       -2
340
0
 93
        0
 40
1.125
309
GRIDFORMAT_END
 95
        8
302
GRIDFORMAT
  1
GRIDFORMAT_BEGIN
 90
        0
 91
        1
 62
     0
 92
       -2
340
0
 93
        0
 40
1.125
309
GRIDFORMAT_END
 95
       16
302
GRIDFORMAT
  1
GRIDFORMAT_BEGIN
 90
        0
 91
        1
 62
     0
 92
       -2
340
0
 93
        0
 40
1.125
309
GRIDFORMAT_END
 95
       32
302
GRIDFORMAT
  1
GRIDFORMAT_BEGIN
 90
        0
 91
        1
 62
     0
 92
       -2
340
0
 93
        0
 40
1.125
309
GRIDFORMAT_END
309
TABLEFORMAT_END
  1
CELLSTYLE_BEGIN
 90
        3
 91
        2
300
_DATA
309
CELLSTYLE_END
  0
ENDSEC
  0
EOF
