  0
SECTION
  2
HEADER
  9
$ACADVER
  1
AC1015
  9
$ACADMAINTVER
 70
6
  9
$DWGCODEPAGE
  3
ANSI_1252
  9
$INSBASE
 10
0.0
 20
0.0
 30
0.0
  9
$EXTMIN
 10
0.0
 20
0.0
 30
0.0
  9
$EXTMAX
 10
275.964844
 20
901.111206
 30
2.0
  9
$LIMMIN
 10
0.0
 20
0.0
  9
$LIMMAX
 10
420.0
 20
297.0
  9
$ORTHOMODE
 70
0
  9
$REGENMODE
 70
1
  9
$FILLMODE
 70
1
  9
$QTEXTMODE
 70
0
  9
$MIRRTEXT
 70
1
  9
$LTSCALE
 40
1.0
  9
$ATTMODE
 70
1
  9
$TEXTSIZE
 40
2.5
  9
$TRACEWID
 40
1.0
  9
$TEXTSTYLE
  7
Standard
  9
$CLAYER
  8
0
  9
$CELTYPE
  6
ByLayer
  9
$CECOLOR
 62
256
  9
$CELTSCALE
 40
1.0
  9
$DISPSILH
 70
0
  9
$DIMSCALE
 40
1.0
  9
$DIMASZ
 40
2.5
  9
$DIMEXO
 40
0.625
  9
$DIMDLI
 40
3.75
  9
$DIMRND
 40
0.0
  9
$DIMDLE
 40
0.0
  9
$DIMEXE
 40
1.25
  9
$DIMTP
 40
0.0
  9
$DIMTM
 40
0.0
  9
$DIMTXT
 40
2.5
  9
$DIMCEN
 40
2.5
  9
$DIMTSZ
 40
0.0
  9
$DIMTOL
 70
0
  9
$DIMLIM
 70
0
  9
$DIMTIH
 70
0
  9
$DIMTOH
 70
0
  9
$DIMSE1
 70
0
  9
$DIMSE2
 70
0
  9
$DIMTAD
 70
1
  9
$DIMZIN
 70
8
  9
$DIMBLK
  1

  9
$DIMASO
 70
1
  9
$DIMSHO
 70
1
  9
$DIMPOST
  1

  9
$DIMAPOST
  1

  9
$DIMALT
 70
0
  9
$DIMALTD
 70
3
  9
$DIMALTF
 40
0.03937
  9
$DIMLFAC
 40
1.0
  9
$DIMTOFL
 70
1
  9
$DIMTVP
 40
0.0
  9
$DIMTIX
 70
0
  9
$DIMSOXD
 70
0
  9
$DIMSAH
 70
0
  9
$DIMBLK1
  1

  9
$DIMBLK2
  1

  9
$DIMSTYLE
  2
STANDARD
  9
$DIMCLRD
 70
0
  9
$DIMCLRE
 70
0
  9
$DIMCLRT
 70
0
  9
$DIMTFAC
 40
1.0
  9
$DIMGAP
 40
0.625
  9
$DIMJUST
 70
0
  9
$DIMSD1
 70
0
  9
$DIMSD2
 70
0
  9
$DIMTOLJ
 70
0
  9
$DIMTZIN
 70
8
  9
$DIMALTZ
 70
0
  9
$DIMALTTZ
 70
0
  9
$DIMUPT
 70
0
  9
$DIMDEC
 70
2
  9
$DIMTDEC
 70
2
  9
$DIMALTU
 70
2
  9
$DIMALTTD
 70
3
  9
$DIMTXSTY
  7
Standard
  9
$DIMAUNIT
 70
0
  9
$DIMADEC
 70
0
  9
$DIMALTRND
 40
0.0
  9
$DIMAZIN
 70
0
  9
$DIMDSEP
 70
44
  9
$DIMATFIT
 70
0
  9
$DIMFRAC
 70
0
  9
$DIMLDRBLK
  1

  9
$DIMLUNIT
 70
2
  9
$DIMLWD
 70
-2
  9
$DIMLWE
 70
-2
  9
$DIMTMOVE
 70
0
  9
$LUNITS
 70
2
  9
$LUPREC
 70
4
  9
$SKETCHINC
 40
1.0
  9
$FILLETRAD
 40
2.5
  9
$AUNITS
 70
0
  9
$AUPREC
 70
0
  9
$MENU
  1
.
  9
$ELEVATION
 40
0.0
  9
$PELEVATION
 40
0.0
  9
$THICKNESS
 40
0.0
  9
$LIMCHECK
 70
0
  9
$CHAMFERA
 40
2.5
  9
$CHAMFERB
 40
2.5
  9
$CHAMFERC
 40
0.0
  9
$CHAMFERD
 40
0.0
  9
$SKPOLY
 70
0
  9
$TDCREATE
 40
2460430.540162037
  9
$TDUCREATE
 40
0.0
  9
$TDUPDATE
 40
2460430.540162037
  9
$TDUUPDATE
 40
2460355.529106771
  9
$TDINDWG
 40
0.0
  9
$TDUSRTIMER
 40
0.0
  9
$USRTIMER
 70
1
  9
$ANGBASE
 50
0.0
  9
$ANGDIR
 70
0
  9
$PDMODE
 70
0
  9
$PDSIZE
 40
0.0
  9
$PLINEWID
 40
0.0
  9
$SPLFRAME
 70
0
  9
$SPLINETYPE
 70
6
  9
$SPLINESEGS
 70
8
  9
$HANDSEED
  5
128
  9
$SURFTAB1
 70
6
  9
$SURFTAB2
 70
6
  9
$SURFTYPE
 70
6
  9
$SURFU
 70
6
  9
$SURFV
 70
6
  9
$UCSBASE
  2

  9
$UCSNAME
  2

  9
$UCSORG
 10
0.0
 20
0.0
 30
0.0
  9
$UCSXDIR
 10
1.0
 20
0.0
 30
0.0
  9
$UCSYDIR
 10
0.0
 20
1.0
 30
0.0
  9
$UCSORTHOREF
  2

  9
$UCSORTHOVIEW
 70
1
  9
$UCSORGTOP
 10
0.0
 20
0.0
 30
0.0
  9
$UCSORGBOTTOM
 10
0.0
 20
0.0
 30
0.0
  9
$UCSORGLEFT
 10
0.0
 20
0.0
 30
0.0
  9
$UCSORGRIGHT
 10
0.0
 20
0.0
 30
0.0
  9
$UCSORGFRONT
 10
0.0
 20
0.0
 30
0.0
  9
$UCSORGBACK
 10
0.0
 20
0.0
 30
0.0
  9
$PUCSBASE
  2

  9
$PUCSNAME
  2

  9
$PUCSORG
 10
0.0
 20
0.0
 30
0.0
  9
$PUCSXDIR
 10
1.0
 20
0.0
 30
0.0
  9
$PUCSYDIR
 10
0.0
 20
1.0
 30
0.0
  9
$PUCSORTHOREF
  2

  9
$PUCSORTHOVIEW
 70
0
  9
$PUCSORGTOP
 10
0.0
 20
0.0
 30
0.0
  9
$PUCSORGBOTTOM
 10
0.0
 20
0.0
 30
0.0
  9
$PUCSORGLEFT
 10
0.0
 20
0.0
 30
0.0
  9
$PUCSORGRIGHT
 10
0.0
 20
0.0
 30
0.0
  9
$PUCSORGFRONT
 10
0.0
 20
0.0
 30
0.0
  9
$PUCSORGBACK
 10
0.0
 20
0.0
 30
0.0
  9
$USERI1
 70
0
  9
$USERI2
 70
0
  9
$USERI3
 70
0
  9
$USERI4
 70
0
  9
$USERI5
 70
0
  9
$USERR1
 40
0.0
  9
$USERR2
 40
0.0
  9
$USERR3
 40
0.0
  9
$USERR4
 40
0.0
  9
$USERR5
 40
0.0
  9
$WORLDVIEW
 70
1
  9
$SHADEDGE
 70
3
  9
$SHADEDIF
 70
70
  9
$TILEMODE
 70
1
  9
$MAXACTVP
 70
64
  9
$PINSBASE
 10
0.0
 20
0.0
 30
0.0
  9
$PLIMCHECK
 70
0
  9
$PEXTMIN
 10
0.0
 20
0.0
 30
0.0
  9
$PEXTMAX
 10
275.964844
 20
901.111206
 30
2.0
  9
$PLIMMIN
 10
0.0
 20
0.0
  9
$PLIMMAX
 10
420.0
 20
297.0
  9
$UNITMODE
 70
0
  9
$VISRETAIN
 70
0
  9
$PLINEGEN
 70
0
  9
$PSLTSCALE
 70
1
  9
$TREEDEPTH
 70
3020
  9
$CMLSTYLE
  2
Standard
  9
$CMLJUST
 70
0
  9
$CMLSCALE
 40
20.0
  9
$PROXYGRAPHICS
 70
1
  9
$MEASUREMENT
 70
1
  9
$CELWEIGHT
370
-1
  9
$ENDCAPS
280
0
  9
$JOINSTYLE
280
0
  9
$LWDISPLAY
290
0
  9
$INSUNITS
 70
0
  9
$HYPERLINKBASE
  1

  9
$STYLESHEET
  1

  9
$XEDIT
290
1
  9
$CEPSNTYPE
380
0
  9
$PSTYLEMODE
290
0
  9
$FINGERPRINTGUID
  2
{7edc89da-f6fc-490d-bc98-72299ccd4c13}
  9
$VERSIONGUID
  2
{CCF3E677-59F4-47F1-A04D-03B2F3410237}
  9
$EXTNAMES
290
1
  9
$PSVPSCALE
 40
0.0
  9
$OLESTARTUP
290
0
  0
ENDSEC
  0
SECTION
  2
CLASSES
  0
CLASS
  1
ACDBDICTIONARYWDFLT
  2
AcDbDictionaryWithDefault
  3
ObjectDBX Classes
 90
0
280
0
281
0
  0
CLASS
  1
VISUALSTYLE
  2
AcDbVisualStyle
  3
ObjectDBX Classes
 90
4095
280
0
281
0
  0
CLASS
  1
MATERIAL
  2
AcDbMaterial
  3
ObjectDBX Classes
 90
1153
280
0
281
0
  0
CLASS
  1
SCALE
  2
AcDbScale
  3
ObjectDBX Classes
 90
1153
280
0
281
0
  0
CLASS
  1
TABLESTYLE
  2
AcDbTableStyle
  3
ObjectDBX Classes
 90
4095
280
0
281
0
  0
CLASS
  1
MLEADERSTYLE
  2
AcDbMLeaderStyle
  3
ACDB_MLEADERSTYLE_CLASS
 90
4095
280
0
281
0
  0
CLASS
  1
SUN
  2
AcDbSun
  3
SCENEOE
 90
1153
280
0
281
0
  0
CLASS
  1
ACDBPLACEHOLDER
  2
AcDbPlaceHolder
  3
ObjectDBX Classes
 90
0
280
0
281
0
  0
CLASS
  1
LAYOUT
  2
AcDbLayout
  3
ObjectDBX Classes
 90
0
280
0
281
0
  0
CLASS
  1
DICTIONARYVAR
  2
AcDbDictionaryVar
  3
ObjectDBX Classes
 90
0
280
0
281
0
  0
CLASS
  1
CELLSTYLEMAP
  2
AcDbCellStyleMap
  3
ObjectDBX Classes
 90
1152
280
0
281
0
  0
CLASS
  1
MENTALRAYRENDERSETTINGS
  2
AcDbMentalRayRenderSettings
  3
SCENEOE
 90
1024
280
0
281
0
  0
CLASS
  1
ACDBDETAILVIEWSTYLE
  2
AcDbDetailViewStyle
  3
ObjectDBX Classes
 90
1025
280
0
281
0
  0
CLASS
  1
ACDBSECTIONVIEWSTYLE
  2
AcDbSectionViewStyle
  3
ObjectDBX Classes
 90
1025
280
0
281
0
  0
CLASS
  1
RASTERVARIABLES
  2
AcDbRasterVariables
  3
ISM
 90
0
280
0
281
0
  0
ENDSEC
  0
SECTION
  2
TABLES
  0
TABLE
  2
VPORT
  5
8
330
0
100
AcDbSymbolTable
 70
1
  0
VPORT
  5
29
330
8
100
AcDbSymbolTableRecord
100
AcDbViewportTableRecord
  2
*Active
 70
0
 10
0.0
 20
0.0
 11
1.0
 21
1.0
 12
10.429907
 22
4.5
 13
0.0
 23
0.0
 14
0.5
 24
0.5
 15
0.5
 25
0.5
 16
0.0
 26
0.0
 36
1.0
 17
0.0
 27
0.0
 37
0.0
 40
9.0
 41
1.972973
 42
50.0
 43
0.0
 44
0.0
 50
0.0
 51
0.0
 71
0
 72
100
 73
1
 74
3
 75
0
 76
0
 77
0
 78
0
281
0
 65
1
110
0.0
120
0.0
130
0.0
111
1.0
121
0.0
131
0.0
112
0.0
122
1.0
132
0.0
 79
0
146
0.0
  0
ENDTAB
  0
TABLE
  2
LTYPE
  5
5
330
0
100
AcDbSymbolTable
 70
3
  0
LTYPE
  5
14
330
5
100
AcDbSymbolTableRecord
100
AcDbLinetypeTableRecord
  2
ByBlock
 70
0
  3

 72
65
 73
0
 40
0.0
  0
LTYPE
  5
15
330
5
100
AcDbSymbolTableRecord
100
AcDbLinetypeTableRecord
  2
ByLayer
 70
0
  3

 72
65
 73
0
 40
0.0
  0
LTYPE
  5
16
330
5
100
AcDbSymbolTableRecord
100
AcDbLinetypeTableRecord
  2
Continuous
 70
0
  3
Solid line
 72
65
 73
0
 40
0.0
  0
ENDTAB
  0
TABLE
  2
LAYER
  5
2
330
0
100
AcDbSymbolTable
 70
7
  0
LAYER
  5
10
330
2
100
AcDbSymbolTableRecord
100
AcDbLayerTableRecord
  2
0
 70
0
 62
7
  6
Continuous
370
13
390
F
  0
LAYER
  5
6F
330
2
100
AcDbSymbolTableRecord
100
AcDbLayerTableRecord
  2
TEXT
 70
0
 62
7
  6
Continuous
370
13
390
F
  0
LAYER
  5
70
330
2
100
AcDbSymbolTableRecord
100
AcDbLayerTableRecord
  2
STRATEGYPOINT
 70
0
 62
7
  6
Continuous
370
13
390
F
  0
LAYER
  5
71
330
2
100
AcDbSymbolTableRecord
100
AcDbLayerTableRecord
  2
ROSETTE
 70
0
 62
7
  6
Continuous
370
13
390
F
  0
LAYER
  5
72
330
2
100
AcDbSymbolTableRecord
100
AcDbLayerTableRecord
  2
OUTER
 70
0
 62
7
  6
Continuous
370
13
390
F
  0
LAYER
  5
A5
330
2
100
AcDbSymbolTableRecord
100
AcDbLayerTableRecord
  2
MARKERS
 70
0
 62
7
  6
Continuous
370
13
390
F
  0
LAYER
  5
D2
330
2
100
AcDbSymbolTableRecord
100
AcDbLayerTableRecord
  2
Defpoints
 70
0
 62
7
  6
Continuous
290
0
370
-3
390
F
  0
ENDTAB
  0
TABLE
  2
STYLE
  5
3
330
0
100
AcDbSymbolTable
 70
2
  0
STYLE
  5
11
330
3
100
AcDbSymbolTableRecord
100
AcDbTextStyleTableRecord
  2
Standard
 70
0
 40
0.0
 41
1.0
 50
0.0
 71
0
 42
2.5
  3
isocp.shx
  4

  0
STYLE
  5
6E
330
3
100
AcDbSymbolTableRecord
100
AcDbTextStyleTableRecord
  2
GDT
 70
0
 40
0.0
 41
1.0
 50
0.0
 71
0
 42
0.2
  3
gdt.shx
  4

  0
ENDTAB
  0
TABLE
  2
VIEW
  5
6
330
0
100
AcDbSymbolTable
 70
0
  0
ENDTAB
  0
TABLE
  2
UCS
  5
7
330
0
100
AcDbSymbolTable
 70
0
  0
ENDTAB
  0
TABLE
  2
APPID
  5
9
330
0
100
AcDbSymbolTable
 70
3
  0
APPID
  5
12
330
9
100
AcDbSymbolTableRecord
100
AcDbRegAppTableRecord
  2
ACAD
 70
0
  0
APPID
  5
F3
330
9
100
AcDbSymbolTableRecord
100
AcDbRegAppTableRecord
  2
HATCHBACKGROUNDCOLOR
 70
0
  0
APPID
  5
F4
330
9
100
AcDbSymbolTableRecord
100
AcDbRegAppTableRecord
  2
EZDXF
 70
0
  0
ENDTAB
  0
TABLE
  2
DIMSTYLE
  5
A
330
0
100
AcDbSymbolTable
 70
1
100
AcDbDimStyleTable
  0
DIMSTYLE
105
27
330
A
100
AcDbSymbolTableRecord
100
AcDbDimStyleTableRecord
  2
STANDARD
 70
0
  3

  4

 40
1.0
 41
2.5
 42
0.625
 43
3.75
 44
1.25
 45
0.0
 46
0.0
 47
0.0
 48
0.0
140
2.5
141
2.5
142
0.0
143
0.03937
144
1.0
145
0.0
146
1.0
147
0.625
148
0.0
 71
0
 72
0
 73
0
 74
0
 75
0
 76
0
 77
1
 78
8
 79
3
170
0
171
3
172
1
173
0
174
0
175
0
176
0
177
0
178
0
179
2
271
2
272
2
273
2
274
3
275
0
276
0
277
2
278
44
279
0
280
0
281
0
282
0
283
0
284
8
285
0
286
0
288
0
289
0
371
-2
372
-2
  0
ENDTAB
  0
TABLE
  2
BLOCK_RECORD
  5
1
330
0
100
AcDbSymbolTable
 70
15
  0
BLOCK_RECORD
  5
1F
330
1
100
AcDbSymbolTableRecord
100
AcDbBlockTableRecord
  2
*Model_Space
340
22
  0
BLOCK_RECORD
  5
1B
330
1
100
AcDbSymbolTableRecord
100
AcDbBlockTableRecord
  2
*Paper_Space
340
1E
  0
BLOCK_RECORD
  5
23
330
1
100
AcDbSymbolTableRecord
100
AcDbBlockTableRecord
  2
*Paper_Space0
340
26
  0
BLOCK_RECORD
  5
4
330
1
100
AcDbSymbolTableRecord
100
AcDbBlockTableRecord
  2
V236_WW_TRU05_270 RT_TEXT_1
340
0
  0
BLOCK_RECORD
  5
32
330
1
100
AcDbSymbolTableRecord
100
AcDbBlockTableRecord
  2
29276884_INF_GF_HM_BI45_1000_54_CHORDWISE_V1-V236_WW_TRU05_270_R1_I19_DXF
340
0
  0
BLOCK_RECORD
  5
37
330
1
100
AcDbSymbolTableRecord
100
AcDbBlockTableRecord
  2
V236_WW_TRU05_271 RT_TEXT_2
340
0
  0
BLOCK_RECORD
  5
43
330
1
100
AcDbSymbolTableRecord
100
AcDbBlockTableRecord
  2
29276884_INF_GF_HM_BI45_1000_54_CHORDWISE_V1-V236_WW_TRU05_271_R1_I19_DXF
340
0
  0
BLOCK_RECORD
  5
6A
330
1
100
AcDbSymbolTableRecord
100
AcDbBlockTableRecord
  2
V236_WW_TRU05_272 RT_TEXT_3
340
0
  0
BLOCK_RECORD
  5
7C
330
1
100
AcDbSymbolTableRecord
100
AcDbBlockTableRecord
  2
29276884_INF_GF_HM_BI45_1000_54_CHORDWISE_V1-V236_WW_TRU05_272_R1_I19_DXF
340
0
  0
BLOCK_RECORD
  5
83
330
1
100
AcDbSymbolTableRecord
100
AcDbBlockTableRecord
  2
V236_WW_TRU05_273 RT_TEXT_4
340
0
  0
BLOCK_RECORD
  5
8F
330
1
100
AcDbSymbolTableRecord
100
AcDbBlockTableRecord
  2
29276884_INF_GF_HM_BI45_1000_54_CHORDWISE_V1-V236_WW_TRU05_273_R1_I19_DXF
340
0
  0
BLOCK_RECORD
  5
94
330
1
100
AcDbSymbolTableRecord
100
AcDbBlockTableRecord
  2
V236_WW_TRU05_274 RT_TEXT_5
340
0
  0
BLOCK_RECORD
  5
A0
330
1
100
AcDbSymbolTableRecord
100
AcDbBlockTableRecord
  2
29276884_INF_GF_HM_BI45_1000_54_CHORDWISE_V1-V236_WW_TRU05_274_R1_I19_DXF
340
0
  0
BLOCK_RECORD
  5
A6
330
1
100
AcDbSymbolTableRecord
100
AcDbBlockTableRecord
  2
V236_WW_TRU05_275 RT_TEXT_6
340
0
  0
BLOCK_RECORD
  5
B9
330
1
100
AcDbSymbolTableRecord
100
AcDbBlockTableRecord
  2
29276884_INF_GF_HM_BI45_1000_54_CHORDWISE_V1-V236_WW_TRU05_275_R1_I19_DXF
340
0
  0
ENDTAB
  0
ENDSEC
  0
SECTION
  2
BLOCKS
  0
BLOCK
  5
20
330
1F
100
AcDbEntity
  8
0
100
AcDbBlockBegin
  2
*Model_Space
 70
0
 10
0.0
 20
0.0
 30
0.0
  3
*Model_Space
  1

  0
ENDBLK
  5
21
330
1F
100
AcDbEntity
  8
0
100
AcDbBlockEnd
  0
BLOCK
  5
1C
330
1B
100
AcDbEntity
 67
1
  8
0
100
AcDbBlockBegin
  2
*Paper_Space
 70
0
 10
0.0
 20
0.0
 30
0.0
  3
*Paper_Space
  1

  0
ENDBLK
  5
1D
330
1B
100
AcDbEntity
 67
1
  8
0
100
AcDbBlockEnd
  0
BLOCK
  5
24
330
23
100
AcDbEntity
  8
0
100
AcDbBlockBegin
  2
*Paper_Space0
 70
0
 10
0.0
 20
0.0
 30
0.0
  3
*Paper_Space0
  1

  0
ENDBLK
  5
25
330
23
100
AcDbEntity
  8
0
100
AcDbBlockEnd
  0
BLOCK
  5
13
330
4
100
AcDbEntity
  8
0
100
AcDbBlockBegin
  2
V236_WW_TRU05_270 RT_TEXT_1
 70
0
 10
0.0
 20
0.0
 30
0.0
  3
V236_WW_TRU05_270 RT_TEXT_1
  1

  0
TEXT
  5
B
330
4
100
AcDbEntity
  8
TEXT
 62
14
370
13
100
AcDbText
 10
-244.496094
 20
859.482971
 30
0.0
 40
30.0
  1
V236_WW_TRU05_270 RT
 41
0.934161
 72
5
 11
275.964844
 21
859.482971
 31
0.0
100
AcDbText
  0
ENDBLK
  5
28
330
4
100
AcDbEntity
  8
0
100
AcDbBlockEnd
  0
BLOCK
  5
34
330
32
100
AcDbEntity
  8
0
100
AcDbBlockBegin
  2
29276884_INF_GF_HM_BI45_1000_54_CHORDWISE_V1-V236_WW_TRU05_270_R1_I19_DXF
 70
0
 10
0.0
 20
0.0
 30
0.0
  3
29276884_INF_GF_HM_BI45_1000_54_CHORDWISE_V1-V236_WW_TRU05_270_R1_I19_DXF
  1

  0
INSERT
  5
2A
330
32
100
AcDbEntity
  8
TEXT
 62
7
370
0
100
AcDbBlockReference
  2
V236_WW_TRU05_270 RT_TEXT_1
 10
38846.841797
 20
39367.523438
 30
0.0
  0
POINT
  5
2B
330
32
100
AcDbEntity
  8
STRATEGYPOINT
 62
7
370
5
100
AcDbPoint
 10
38846.841797
 20
39367.523438
 30
0.0
  0
LINE
  5
2C
330
32
100
AcDbEntity
  8
ROSETTE
 62
150
370
35
100
AcDbLine
 10
38856.841797
 20
39367.523438
 30
0.0
 11
38846.841797
 21
39367.523438
 31
0.0
  0
LINE
  5
2D
330
32
100
AcDbEntity
  8
ROSETTE
 62
150
370
35
100
AcDbLine
 10
38846.841797
 20
39367.523438
 30
0.0
 11
38846.841797
 21
39372.523438
 31
0.0
  0
SPLINE
  5
2E
330
32
100
AcDbEntity
  8
OUTER
 62
3
370
35
100
AcDbSpline
 70
8
 71
5
 72
14
 73
8
 74
0
 42
0.0
 43
0.0
 40
0.0
 40
0.0
 40
0.0
 40
0.0
 40
0.0
 40
0.0
 40
1304.916092987438
 40
2852.170379836175
 40
3479.061782120876
 40
3479.061782120876
 40
3479.061782120876
 40
3479.061782120876
 40
3479.061782120876
 40
3479.061782120876
 10
38268.187901093
 20
39017.0139015917
 30
0.0
 10
38529.1711185548
 20
39017.0382511302
 30
0.0
 10
39099.6051836998
 20
39017.112155376
 30
0.0
 10
39795.4175220422
 20
39017.2339497774
 30
0.0
 10
40491.2298088787
 20
39017.3773679254
 30
0.0
 10
41187.0421846659
 20
39017.6715482784
 30
0.0
 10
41621.8712892136
 20
39017.5715829322
 30
0.0
 10
41747.2495559769
 20
39017.5129844967
 30
0.0
  0
SPLINE
  5
2F
330
32
100
AcDbEntity
  8
OUTER
 62
3
370
35
100
AcDbSpline
 70
8
 71
5
 72
12
 73
6
 74
0
 42
0.0
 43
0.0
 40
0.0
 40
0.0
 40
0.0
 40
0.0
 40
0.0
 40
0.0
 40
1269.985318292932
 40
1269.985318292932
 40
1269.985318292932
 40
1269.985318292932
 40
1269.985318292932
 40
1269.985318292932
 10
41747.2495559769
 20
39017.5129844967
 30
0.0
 10
41746.7979566731
 20
39271.5096466906
 30
0.0
 10
41746.6116223438
 20
39525.5066721094
 30
0.0
 10
41746.3366874498
 20
39779.5036833691
 30
0.0
 10
41745.9963824185
 20
40033.5006364118
 30
0.0
 10
41746.0856461106
 20
40287.4976843855
 30
0.0
  0
SPLINE
  5
30
330
32
100
AcDbEntity
  8
OUTER
 62
3
370
35
100
AcDbSpline
 70
8
 71
5
 72
12
 73
6
 74
0
 42
0.0
 43
0.0
 40
0.0
 40
0.0
 40
0.0
 40
0.0
 40
0.0
 40
0.0
 40
3493.368694182062
 40
3493.368694182062
 40
3493.368694182062
 40
3493.368694182062
 40
3493.368694182062
 40
3493.368694182062
 10
41746.0856461106
 20
40287.4976843855
 30
0.0
 10
41047.4119128975
 20
40287.5863193557
 30
0.0
 10
40348.735151495
 20
40287.9208474936
 30
0.0
 10
39650.0601027188
 20
40288.3690657626
 30
0.0
 10
38951.3912881751
 20
40288.766025865
 30
0.0
 10
38252.7175853169
 20
40288.9902437687
 30
0.0
  0
SPLINE
  5
31
330
32
100
AcDbEntity
  8
OUTER
 62
3
370
35
100
AcDbSpline
 70
8
 71
5
 72
15
 73
9
 74
0
 42
0.0
 43
0.0
 40
0.0
 40
0.0
 40
0.0
 40
0.0
 40
0.0
 40
0.0
 40
621.5234886720998
 40
621.5234886720998
 40
955.0264529666861
 40
1272.072671115362
 40
1272.072671115362
 40
1272.072671115362
 40
1272.072671115362
 40
1272.072671115362
 40
1272.072671115362
 10
38252.7175853169
 20
40288.9902437687
 30
0.0
 10
38253.912847308
 20
40164.6912927369
 30
0.0
 10
38255.0960983898
 20
40040.3921676011
 30
0.0
 10
38256.973049835
 20
39849.3959672735
 30
0.0
 10
38260.0057691266
 20
39594.9993906794
 30
0.0
 10
38263.4692468987
 20
39340.6083849479
 30
0.0
 10
38265.4669770684
 20
39210.5138030871
 30
0.0
 10
38267.3305012574
 20
39080.4173482111
 30
0.0
 10
38268.187901093
 20
39017.0139015917
 30
0.0
  0
ENDBLK
  5
35
330
32
100
AcDbEntity
  8
0
100
AcDbBlockEnd
  0
BLOCK
  5
39
330
37
100
AcDbEntity
  8
0
100
AcDbBlockBegin
  2
V236_WW_TRU05_271 RT_TEXT_2
 70
0
 10
0.0
 20
0.0
 30
0.0
  3
V236_WW_TRU05_271 RT_TEXT_2
  1

  0
TEXT
  5
38
330
37
100
AcDbEntity
  8
TEXT
 62
14
370
13
100
AcDbText
 10
-247.535156
 20
791.127502
 30
0.0
 40
30.0
  1
V236_WW_TRU05_271 RT
 41
0.934161
 72
5
 11
272.925781
 21
791.127502
 31
0.0
100
AcDbText
  0
ENDBLK
  5
3A
330
37
100
AcDbEntity
  8
0
100
AcDbBlockEnd
  0
BLOCK
  5
45
330
43
100
AcDbEntity
  8
0
100
AcDbBlockBegin
  2
29276884_INF_GF_HM_BI45_1000_54_CHORDWISE_V1-V236_WW_TRU05_271_R1_I19_DXF
 70
0
 10
0.0
 20
0.0
 30
0.0
  3
29276884_INF_GF_HM_BI45_1000_54_CHORDWISE_V1-V236_WW_TRU05_271_R1_I19_DXF
  1

  0
INSERT
  5
3B
330
43
100
AcDbEntity
  8
TEXT
 62
7
370
0
100
AcDbBlockReference
  2
V236_WW_TRU05_271 RT_TEXT_2
 10
38846.841797
 20
39367.523438
 30
0.0
  0
POINT
  5
3C
330
43
100
AcDbEntity
  8
STRATEGYPOINT
 62
7
370
5
100
AcDbPoint
 10
38846.841797
 20
39367.523438
 30
0.0
  0
LINE
  5
3D
330
43
100
AcDbEntity
  8
ROSETTE
 62
150
370
35
100
AcDbLine
 10
38856.841797
 20
39367.523438
 30
0.0
 11
38846.841797
 21
39367.523438
 31
0.0
  0
LINE
  5
3E
330
43
100
AcDbEntity
  8
ROSETTE
 62
150
370
35
100
AcDbLine
 10
38846.841797
 20
39367.523438
 30
0.0
 11
38846.841797
 21
39372.523438
 31
0.0
  0
SPLINE
  5
3F
330
43
100
AcDbEntity
  8
OUTER
 62
3
370
35
100
AcDbSpline
 70
8
 71
5
 72
14
 73
8
 74
0
 42
0.0
 43
0.0
 40
0.0
 40
0.0
 40
0.0
 40
0.0
 40
0.0
 40
0.0
 40
2120.261157639104
 40
2718.721358979913
 40
3408.072751651251
 40
3408.072751651251
 40
3408.072751651251
 40
3408.072751651251
 40
3408.072751651251
 40
3408.072751651251
 10
38289.2974499869
 20
38946.8757387874
 30
0.0
 10
38713.3496749793
 20
38946.9501892263
 30
0.0
 10
39257.0939463571
 20
38947.0399453781
 30
0.0
 10
39938.7084668464
 20
38947.195933936
 30
0.0
 10
40620.3229370901
 20
38947.3178504352
 30
0.0
 10
41301.9375937955
 20
38947.7019003077
 30
0.0
 10
41559.4998696155
 20
38947.6265520721
 30
0.0
 10
41697.3700948795
 20
38947.5053549477
 30
0.0
  0
SPLINE
  5
40
330
43
100
AcDbEntity
  8
OUTER
 62
3
370
35
100
AcDbSpline
 70
8
 71
5
 72
13
 73
7
 74
0
 42
0.0
 43
0.0
 40
0.0
 40
0.0
 40
0.0
 40
0.0
 40
0.0
 40
0.0
 40
951.6087770046029
 40
1270.007781565154
 40
1270.007781565154
 40
1270.007781565154
 40
1270.007781565154
 40
1270.007781565154
 40
1270.007781565154
 10
41697.3700948796
 20
38947.5053549477
 30
0.0
 10
41696.9426979781
 20
39137.8266304554
 30
0.0
 10
41696.7827537683
 20
39391.8282356876
 30
0.0
 10
41696.7018598827
 20
39645.829771724
 30
0.0
 10
41696.0660973124
 20
39899.8311802297
 30
0.0
 10
41696.1049915018
 20
40153.8326466719
 30
0.0
 10
41696.1599743082
 20
40217.5124238473
 30
0.0
  0
SPLINE
  5
41
330
43
100
AcDbEntity
  8
OUTER
 62
3
370
35
100
AcDbSpline
 70
8
 71
5
 72
12
 73
6
 74
0
 42
0.0
 43
0.0
 40
0.0
 40
0.0
 40
0.0
 40
0.0
 40
0.0
 40
0.0
 40
3422.811502709548
 40
3422.811502709548
 40
3422.811502709548
 40
3422.811502709548
 40
3422.811502709548
 40
3422.811502709548
 10
41696.1599743082
 20
40217.5124238472
 30
0.0
 10
41011.5978133325
 20
40217.9495527593
 30
0.0
 10
40327.0354172074
 20
40217.7866798153
 30
0.0
 10
39642.4733127025
 20
40218.3680272724
 30
0.0
 10
38957.9110674996
 20
40218.622235871
 30
0.0
 10
38273.3488187028
 20
40218.8884040761
 30
0.0
  0
SPLINE
  5
42
330
43
100
AcDbEntity
  8
OUTER
 62
3
370
35
100
AcDbSpline
 70
8
 71
5
 72
13
 73
7
 74
0
 42
0.0
 43
0.0
 40
0.0
 40
0.0
 40
0.0
 40
0.0
 40
0.0
 40
0.0
 40
648.2509242447672
 40
1272.114860830413
 40
1272.114860830413
 40
1272.114860830413
 40
1272.114860830413
 40
1272.114860830413
 40
1272.114860830413
 10
38273.3488187028
 20
40218.8884040761
 30
0.0
 10
38274.6499262108
 20
40089.2447480392
 30
0.0
 10
38277.2833584426
 20
39834.8353911009
 30
0.0
 10
38280.1203289833
 20
39580.4280684502
 30
0.0
 10
38283.7283072911
 20
39326.0306082453
 30
0.0
 10
38287.4657019526
 20
39071.6350797363
 30
0.0
 10
38289.2974499869
 20
38946.8757387874
 30
0.0
  0
ENDBLK
  5
46
330
43
100
AcDbEntity
  8
0
100
AcDbBlockEnd
  0
BLOCK
  5
6C
330
6A
100
AcDbEntity
  8
0
100
AcDbBlockBegin
  2
V236_WW_TRU05_272 RT_TEXT_3
 70
0
 10
0.0
 20
0.0
 30
0.0
  3
V236_WW_TRU05_272 RT_TEXT_3
  1

  0
TEXT
  5
6B
330
6A
100
AcDbEntity
  8
TEXT
 62
14
370
13
100
AcDbText
 10
-245.90625
 20
721.451721
 30
0.0
 40
30.0
  1
V236_WW_TRU05_272 RT
 41
0.934161
 72
5
 11
274.554688
 21
721.451721
 31
0.0
100
AcDbText
  0
ENDBLK
  5
6D
330
6A
100
AcDbEntity
  8
0
100
AcDbBlockEnd
  0
BLOCK
  5
7E
330
7C
100
AcDbEntity
  8
0
100
AcDbBlockBegin
  2
29276884_INF_GF_HM_BI45_1000_54_CHORDWISE_V1-V236_WW_TRU05_272_R1_I19_DXF
 70
0
 10
0.0
 20
0.0
 30
0.0
  3
29276884_INF_GF_HM_BI45_1000_54_CHORDWISE_V1-V236_WW_TRU05_272_R1_I19_DXF
  1

  0
INSERT
  5
73
330
7C
100
AcDbEntity
  8
TEXT
 62
7
370
0
100
AcDbBlockReference
  2
V236_WW_TRU05_272 RT_TEXT_3
 10
38846.841797
 20
39367.523438
 30
0.0
  0
POINT
  5
74
330
7C
100
AcDbEntity
  8
STRATEGYPOINT
 62
7
370
5
100
AcDbPoint
 10
38846.841797
 20
39367.523438
 30
0.0
  0
SPLINE
  5
75
330
7C
100
AcDbEntity
  8
0
 62
141
370
35
100
AcDbSpline
 70
8
 71
5
 72
12
 73
6
 74
0
 42
0.0
 43
0.0
 40
0.0
 40
0.0
 40
0.0
 40
0.0
 40
0.0
 40
0.0
 40
1271.505217312198
 40
1271.505217312198
 40
1271.505217312198
 40
1271.505217312198
 40
1271.505217312198
 40
1271.505217312198
 10
39643.9149519475
 20
38877.0882128855
 30
0.0
 10
39638.3844250408
 20
39131.3291104183
 30
0.0
 10
39632.8538981347
 20
39385.5700079507
 30
0.0
 10
39627.1968862427
 20
39639.8081416936
 30
0.0
 10
39621.6244212834
 20
39894.0481234829
 30
0.0
 10
39616.0519563238
 20
40148.2881052726
 30
0.0
  0
LINE
  5
76
330
7C
100
AcDbEntity
  8
ROSETTE
 62
150
370
35
100
AcDbLine
 10
38856.841797
 20
39367.523438
 30
0.0
 11
38846.841797
 21
39367.523438
 31
0.0
  0
LINE
  5
77
330
7C
100
AcDbEntity
  8
ROSETTE
 62
150
370
35
100
AcDbLine
 10
38846.841797
 20
39367.523438
 30
0.0
 11
38846.841797
 21
39372.523438
 31
0.0
  0
SPLINE
  5
78
330
7C
100
AcDbEntity
  8
OUTER
 62
3
370
35
100
AcDbSpline
 70
8
 71
5
 72
13
 73
7
 74
0
 42
0.0
 43
0.0
 40
0.0
 40
0.0
 40
0.0
 40
0.0
 40
0.0
 40
0.0
 40
1881.792466870947
 40
3336.968620466726
 40
3336.968620466726
 40
3336.968620466726
 40
3336.968620466726
 40
3336.968620466726
 40
3336.968620466726
 10
38310.4682577731
 20
38876.7769405512
 30
0.0
 10
38686.8267432727
 20
38876.8539315194
 30
0.0
 10
39354.2204573123
 20
38876.9343093733
 30
0.0
 10
40021.6141088432
 20
38877.2198025037
 30
0.0
 10
40689.0077675067
 20
38877.4809999981
 30
0.0
 10
41356.40158743
 20
38877.2739305122
 30
0.0
 10
41647.4367197025
 20
38877.5133106704
 30
0.0
  0
SPLINE
  5
79
330
7C
100
AcDbEntity
  8
OUTER
 62
3
370
35
100
AcDbSpline
 70
8
 71
5
 72
12
 73
6
 74
0
 42
0.0
 43
0.0
 40
0.0
 40
0.0
 40
0.0
 40
0.0
 40
0.0
 40
0.0
 40
1270.008811858813
 40
1270.008811858813
 40
1270.008811858813
 40
1270.008811858813
 40
1270.008811858813
 40
1270.008811858813
 10
41647.4367197025
 20
38877.5133106704
 30
0.0
 10
41647.3005609098
 20
39131.5150365484
 30
0.0
 10
41646.9217342184
 20
39385.5162791328
 30
0.0
 10
41646.4428511908
 20
39639.5172798952
 30
0.0
 10
41646.1583488546
 20
39893.5185377661
 30
0.0
 10
41646.2109467061
 20
40147.5202946915
 30
0.0
  0
SPLINE
  5
7A
330
7C
100
AcDbEntity
  8
OUTER
 62
3
370
35
100
AcDbSpline
 70
8
 71
5
 72
16
 73
10
 74
0
 42
0.0
 43
0.0
 40
0.0
 40
0.0
 40
0.0
 40
0.0
 40
0.0
 40
0.0
 40
728.0993678911384
 40
1113.729496476491
 40
2196.250589690238
 40
3002.051756894663
 40
3352.085117039539
 40
3352.085117039539
 40
3352.085117039539
 40
3352.085117039539
 40
3352.085117039539
 40
3352.085117039539
 10
41646.2109467061
 20
40147.5202946915
 30
0.0
 10
41500.591075053
 20
40147.4966161078
 30
0.0
 10
41277.8451802468
 20
40147.5118135471
 30
0.0
 10
40838.5950761402
 20
40147.6892683404
 30
0.0
 10
40238.18480427
 20
40147.9547528258
 30
0.0
 10
39567.7679363915
 20
40148.3417922716
 30
0.0
 10
39042.970828611
 20
40148.5716928823
 30
0.0
 10
38595.29955119
 20
40148.4611815971
 30
0.0
 10
38364.1327744461
 20
40148.6758403967
 30
0.0
 10
38294.1261605668
 20
40148.7660719033
 30
0.0
  0
SPLINE
  5
7B
330
7C
100
AcDbEntity
  8
OUTER
 62
3
370
35
100
AcDbSpline
 70
8
 71
5
 72
15
 73
9
 74
0
 42
0.0
 43
0.0
 40
0.0
 40
0.0
 40
0.0
 40
0.0
 40
0.0
 40
0.0
 40
162.6665930567164
 40
410.1160362121441
 40
796.7635894323512
 40
1272.099503958953
 40
1272.099503958953
 40
1272.099503958953
 40
1272.099503958953
 40
1272.099503958953
 40
1272.099503958953
 10
38294.1261605668
 20
40148.7660719033
 30
0.0
 10
38294.3091012176
 20
40116.2332676502
 30
0.0
 10
38294.9265034129
 20
40034.2127204592
 30
0.0
 10
38296.8610947641
 20
39874.8715848412
 30
0.0
 10
38299.6633643121
 20
39620.4682163153
 30
0.0
 10
38303.0479770093
 20
39366.071598367
 30
0.0
 10
38306.1903052485
 20
39144.2065080523
 30
0.0
 10
38308.9037721433
 20
38971.8312495029
 30
0.0
 10
38310.4682577731
 20
38876.7769405512
 30
0.0
  0
ENDBLK
  5
81
330
7C
100
AcDbEntity
  8
0
100
AcDbBlockEnd
  0
BLOCK
  5
85
330
83
100
AcDbEntity
  8
0
100
AcDbBlockBegin
  2
V236_WW_TRU05_273 RT_TEXT_4
 70
0
 10
0.0
 20
0.0
 30
0.0
  3
V236_WW_TRU05_273 RT_TEXT_4
  1

  0
TEXT
  5
84
330
83
100
AcDbEntity
  8
TEXT
 62
14
370
13
100
AcDbText
 10
-243.125
 20
650.440002
 30
0.0
 40
30.0
  1
V236_WW_TRU05_273 RT
 41
0.934161
 72
5
 11
277.335938
 21
650.440002
 31
0.0
100
AcDbText
  0
ENDBLK
  5
86
330
83
100
AcDbEntity
  8
0
100
AcDbBlockEnd
  0
BLOCK
  5
91
330
8F
100
AcDbEntity
  8
0
100
AcDbBlockBegin
  2
29276884_INF_GF_HM_BI45_1000_54_CHORDWISE_V1-V236_WW_TRU05_273_R1_I19_DXF
 70
0
 10
0.0
 20
0.0
 30
0.0
  3
29276884_INF_GF_HM_BI45_1000_54_CHORDWISE_V1-V236_WW_TRU05_273_R1_I19_DXF
  1

  0
INSERT
  5
87
330
8F
100
AcDbEntity
  8
TEXT
 62
7
370
0
100
AcDbBlockReference
  2
V236_WW_TRU05_273 RT_TEXT_4
 10
38846.841797
 20
39367.523438
 30
0.0
  0
POINT
  5
88
330
8F
100
AcDbEntity
  8
STRATEGYPOINT
 62
7
370
5
100
AcDbPoint
 10
38846.841797
 20
39367.523438
 30
0.0
  0
LINE
  5
89
330
8F
100
AcDbEntity
  8
ROSETTE
 62
150
370
35
100
AcDbLine
 10
38856.841797
 20
39367.523438
 30
0.0
 11
38846.841797
 21
39367.523438
 31
0.0
  0
LINE
  5
8A
330
8F
100
AcDbEntity
  8
ROSETTE
 62
150
370
35
100
AcDbLine
 10
38846.841797
 20
39367.523438
 30
0.0
 11
38846.841797
 21
39372.523438
 31
0.0
  0
SPLINE
  5
8B
330
8F
100
AcDbEntity
  8
OUTER
 62
3
370
35
100
AcDbSpline
 70
8
 71
5
 72
12
 73
6
 74
0
 42
0.0
 43
0.0
 40
0.0
 40
0.0
 40
0.0
 40
0.0
 40
0.0
 40
0.0
 40
1113.780249626518
 40
1113.780249626518
 40
1113.780249626518
 40
1113.780249626518
 40
1113.780249626518
 40
1113.780249626518
 10
38331.5970737224
 20
38806.6856157401
 30
0.0
 10
38554.3531199072
 20
38806.7264393685
 30
0.0
 10
38777.1092038661
 20
38806.704305708
 30
0.0
 10
38999.8653066066
 20
38806.6498975716
 30
0.0
 10
39222.6213245768
 20
38806.7302367866
 30
0.0
 10
39445.3772385251
 20
38806.9763656335
 30
0.0
  0
SPLINE
  5
8C
330
8F
100
AcDbEntity
  8
OUTER
 62
3
370
35
100
AcDbSpline
 70
8
 71
5
 72
12
 73
6
 74
0
 42
0.0
 43
0.0
 40
0.0
 40
0.0
 40
0.0
 40
0.0
 40
0.0
 40
0.0
 40
1271.612409023305
 40
1271.612409023305
 40
1271.612409023305
 40
1271.612409023305
 40
1271.612409023305
 40
1271.612409023305
 10
39445.3772385251
 20
38806.9763656335
 30
0.0
 10
39440.0541715727
 20
39061.2431344216
 30
0.0
 10
39434.3837772245
 20
39315.5024759121
 30
0.0
 10
39428.7795163154
 20
39569.763236893
 30
0.0
 10
39423.2454382343
 20
39824.0255466475
 30
0.0
 10
39417.5012220147
 20
40078.2831497443
 30
0.0
  0
SPLINE
  5
8D
330
8F
100
AcDbEntity
  8
OUTER
 62
3
370
35
100
AcDbSpline
 70
8
 71
5
 72
12
 73
6
 74
0
 42
0.0
 43
0.0
 40
0.0
 40
0.0
 40
0.0
 40
0.0
 40
0.0
 40
0.0
 40
1102.789970346052
 40
1102.789970346052
 40
1102.789970346052
 40
1102.789970346052
 40
1102.789970346052
 40
1102.789970346052
 10
39417.5012220147
 20
40078.2831497444
 30
0.0
 10
39196.9432441542
 20
40078.3677068237
 30
0.0
 10
38976.3852746703
 20
40078.4537710844
 30
0.0
 10
38755.8273135503
 20
40078.5413308908
 30
0.0
 10
38535.2693387907
 20
40078.6100945243
 30
0.0
 10
38314.7113503789
 20
40078.6600503492
 30
0.0
  0
SPLINE
  5
8E
330
8F
100
AcDbEntity
  8
OUTER
 62
3
370
35
100
AcDbSpline
 70
8
 71
5
 72
15
 73
9
 74
0
 42
0.0
 43
0.0
 40
0.0
 40
0.0
 40
0.0
 40
0.0
 40
0.0
 40
0.0
 40
639.9269630226057
 40
951.6919864175436
 40
1112.032049220419
 40
1272.088931322879
 40
1272.088931322879
 40
1272.088931322879
 40
1272.088931322879
 40
1272.088931322879
 40
1272.088931322879
 10
38314.7113503789
 20
40078.6600503492
 30
0.0
 10
38316.140538767
 20
39950.6826377306
 30
0.0
 10
38317.9586789805
 20
39760.3527330741
 30
0.0
 10
38320.7917018832
 20
39537.9642195577
 30
0.0
 10
38324.0645648289
 20
39283.5670144349
 30
0.0
 10
38328.1023648292
 20
39029.1812156411
 30
0.0
 10
38330.1772496222
 20
38902.7658565193
 30
0.0
 10
38331.1389429124
 20
38838.6937137234
 30
0.0
 10
38331.5970737224
 20
38806.6856157401
 30
0.0
  0
ENDBLK
  5
92
330
8F
100
AcDbEntity
  8
0
100
AcDbBlockEnd
  0
BLOCK
  5
96
330
94
100
AcDbEntity
  8
0
100
AcDbBlockBegin
  2
V236_WW_TRU05_274 RT_TEXT_5
 70
0
 10
0.0
 20
0.0
 30
0.0
  3
V236_WW_TRU05_274 RT_TEXT_5
  1

  0
TEXT
  5
95
330
94
100
AcDbEntity
  8
TEXT
 62
14
370
13
100
AcDbText
 10
-245.910156
 20
579.748596
 30
0.0
 40
30.0
  1
V236_WW_TRU05_274 RT
 41
0.934161
 72
5
 11
274.550781
 21
579.748596
 31
0.0
100
AcDbText
  0
ENDBLK
  5
97
330
94
100
AcDbEntity
  8
0
100
AcDbBlockEnd
  0
BLOCK
  5
A2
330
A0
100
AcDbEntity
  8
0
100
AcDbBlockBegin
  2
29276884_INF_GF_HM_BI45_1000_54_CHORDWISE_V1-V236_WW_TRU05_274_R1_I19_DXF
 70
0
 10
0.0
 20
0.0
 30
0.0
  3
29276884_INF_GF_HM_BI45_1000_54_CHORDWISE_V1-V236_WW_TRU05_274_R1_I19_DXF
  1

  0
INSERT
  5
98
330
A0
100
AcDbEntity
  8
TEXT
 62
7
370
0
100
AcDbBlockReference
  2
V236_WW_TRU05_274 RT_TEXT_5
 10
38846.841797
 20
39367.523438
 30
0.0
  0
POINT
  5
99
330
A0
100
AcDbEntity
  8
STRATEGYPOINT
 62
7
370
5
100
AcDbPoint
 10
38846.841797
 20
39367.523438
 30
0.0
  0
LINE
  5
9A
330
A0
100
AcDbEntity
  8
ROSETTE
 62
150
370
35
100
AcDbLine
 10
38856.841797
 20
39367.523438
 30
0.0
 11
38846.841797
 21
39367.523438
 31
0.0
  0
LINE
  5
9B
330
A0
100
AcDbEntity
  8
ROSETTE
 62
150
370
35
100
AcDbLine
 10
38846.841797
 20
39367.523438
 30
0.0
 11
38846.841797
 21
39372.523438
 31
0.0
  0
SPLINE
  5
9C
330
A0
100
AcDbEntity
  8
OUTER
 62
3
370
35
100
AcDbSpline
 70
8
 71
5
 72
12
 73
6
 74
0
 42
0.0
 43
0.0
 40
0.0
 40
0.0
 40
0.0
 40
0.0
 40
0.0
 40
0.0
 40
1074.116658808778
 40
1074.116658808778
 40
1074.116658808778
 40
1074.116658808778
 40
1074.116658808778
 40
1074.116658808778
 10
38352.7847731628
 20
38736.5992238063
 30
0.0
 10
38567.6081002323
 20
38736.6441244542
 30
0.0
 10
38782.4314162276
 20
38736.6984844037
 30
0.0
 10
38997.2547211558
 20
38736.7623010071
 30
0.0
 10
39212.0780340464
 20
38736.8284299813
 30
0.0
 10
39426.9013549066
 20
38736.8968686787
 30
0.0
  0
SPLINE
  5
9D
330
A0
100
AcDbEntity
  8
OUTER
 62
3
370
35
100
AcDbSpline
 70
8
 71
5
 72
15
 73
9
 74
0
 42
0.0
 43
0.0
 40
0.0
 40
0.0
 40
0.0
 40
0.0
 40
0.0
 40
0.0
 40
158.3326177940211
 40
781.6370979464042
 40
954.4897147472883
 40
1271.642789718053
 40
1271.642789718053
 40
1271.642789718053
 40
1271.642789718053
 40
1271.642789718053
 40
1271.642789718053
 10
39426.9013549066
 20
38736.8968686787
 30
0.0
 10
39426.2659794696
 20
38768.5570173259
 30
0.0
 10
39423.0400526007
 20
38924.8510857283
 30
0.0
 10
39418.563417653
 20
39115.6969994042
 30
0.0
 10
39413.0406529864
 20
39369.9655105707
 30
0.0
 10
39407.4680307855
 20
39624.2330151245
 30
0.0
 10
39402.5958820173
 20
39846.8417333737
 30
0.0
 10
39400.4395548811
 20
39944.8191469835
 30
0.0
 10
39399.0406285267
 20
40008.2343338364
 30
0.0
  0
SPLINE
  5
9E
330
A0
100
AcDbEntity
  8
OUTER
 62
3
370
35
100
AcDbSpline
 70
8
 71
5
 72
12
 73
6
 74
0
 42
0.0
 43
0.0
 40
0.0
 40
0.0
 40
0.0
 40
0.0
 40
0.0
 40
0.0
 40
1063.608177719548
 40
1063.608177719548
 40
1063.608177719548
 40
1063.608177719548
 40
1063.608177719548
 40
1063.608177719548
 10
39399.0406285267
 20
40008.2343338364
 30
0.0
 10
39186.3190054629
 20
40008.3072004605
 30
0.0
 10
38973.5973887036
 20
40008.3735110281
 30
0.0
 10
38760.8757782447
 20
40008.4332651189
 30
0.0
 10
38548.1541574379
 20
40008.4847390621
 30
0.0
 10
38335.4325262793
 20
40008.5279324374
 30
0.0
  0
SPLINE
  5
9F
330
A0
100
AcDbEntity
  8
OUTER
 62
3
370
35
100
AcDbSpline
 70
8
 71
5
 72
12
 73
6
 74
0
 42
0.0
 43
0.0
 40
0.0
 40
0.0
 40
0.0
 40
0.0
 40
0.0
 40
0.0
 40
1272.049401258889
 40
1272.049401258889
 40
1272.049401258889
 40
1272.049401258889
 40
1272.049401258889
 40
1272.049401258889
 10
38335.4325262793
 20
40008.5279324374
 30
0.0
 10
38337.7433927667
 20
39754.1285474826
 30
0.0
 10
38341.7187648702
 20
39499.7466053694
 30
0.0
 10
38344.0494387739
 20
39245.3456593928
 30
0.0
 10
38348.7376555243
 20
38990.9769115231
 30
0.0
 10
38352.7847731628
 20
38736.5992238063
 30
0.0
  0
ENDBLK
  5
A3
330
A0
100
AcDbEntity
  8
0
100
AcDbBlockEnd
  0
BLOCK
  5
A8
330
A6
100
AcDbEntity
  8
0
100
AcDbBlockBegin
  2
V236_WW_TRU05_275 RT_TEXT_6
 70
0
 10
0.0
 20
0.0
 30
0.0
  3
V236_WW_TRU05_275 RT_TEXT_6
  1

  0
TEXT
  5
A7
330
A6
100
AcDbEntity
  8
TEXT
 62
14
370
13
100
AcDbText
 10
-243.128906
 20
492.436096
 30
0.0
 40
30.0
  1
V236_WW_TRU05_275 RT
 41
0.934161
 72
5
 11
277.332031
 21
492.436096
 31
0.0
100
AcDbText
  0
ENDBLK
  5
A9
330
A6
100
AcDbEntity
  8
0
100
AcDbBlockEnd
  0
BLOCK
  5
BB
330
B9
100
AcDbEntity
  8
0
100
AcDbBlockBegin
  2
29276884_INF_GF_HM_BI45_1000_54_CHORDWISE_V1-V236_WW_TRU05_275_R1_I19_DXF
 70
0
 10
0.0
 20
0.0
 30
0.0
  3
29276884_INF_GF_HM_BI45_1000_54_CHORDWISE_V1-V236_WW_TRU05_275_R1_I19_DXF
  1

  0
INSERT
  5
AA
330
B9
100
AcDbEntity
  8
TEXT
 62
7
370
0
100
AcDbBlockReference
  2
V236_WW_TRU05_275 RT_TEXT_6
 10
38846.841797
 20
39367.523438
 30
0.0
  0
POINT
  5
AB
330
B9
100
AcDbEntity
  8
STRATEGYPOINT
 62
7
370
5
100
AcDbPoint
 10
38846.841797
 20
39367.523438
 30
0.0
  0
LINE
  5
AC
330
B9
100
AcDbEntity
  8
MARKERS
 62
4
370
35
100
AcDbLine
 10
41677.841797
 20
39367.523438
 30
0.0
 11
38293.841797
 21
39367.523438
 31
0.0
  0
LINE
  5
AD
330
B9
100
AcDbEntity
  8
MARKERS
 62
4
370
35
100
AcDbLine
 10
41668.841797
 20
39067.523438
 30
0.0
 11
38300.841797
 21
39067.523438
 31
0.0
  0
LINE
  5
AE
330
B9
100
AcDbEntity
  8
MARKERS
 62
4
370
35
100
AcDbLine
 10
41621.841797
 20
38967.523438
 30
0.0
 11
38321.841797
 21
38967.523438
 31
0.0
  0
LINE
  5
AF
330
B9
100
AcDbEntity
  8
MARKERS
 62
4
370
35
100
AcDbLine
 10
39408.841797
 20
38867.523438
 30
0.0
 11
38360.841797
 21
38867.523438
 31
0.0
  0
LINE
  5
B0
330
B9
100
AcDbEntity
  8
MARKERS
 62
4
370
35
100
AcDbLine
 10
41672.841797
 20
39667.523438
 30
0.0
 11
38288.841797
 21
39667.523438
 31
0.0
  0
LINE
  5
B1
330
B9
100
AcDbEntity
  8
MARKERS
 62
4
370
35
100
AcDbLine
 10
41667.841797
 20
39967.523438
 30
0.0
 11
38290.841797
 21
39967.523438
 31
0.0
  0
LINE
  5
B2
330
B9
100
AcDbEntity
  8
MARKERS
 62
4
370
35
100
AcDbLine
 10
41670.841797
 20
40167.523438
 30
0.0
 11
38285.841797
 21
40167.523438
 31
0.0
  0
LINE
  5
B3
330
B9
100
AcDbEntity
  8
ROSETTE
 62
150
370
35
100
AcDbLine
 10
38856.841797
 20
39367.523438
 30
0.0
 11
38846.841797
 21
39367.523438
 31
0.0
  0
LINE
  5
B4
330
B9
100
AcDbEntity
  8
ROSETTE
 62
150
370
35
100
AcDbLine
 10
38846.841797
 20
39367.523438
 30
0.0
 11
38846.841797
 21
39372.523438
 31
0.0
  0
SPLINE
  5
B5
330
B9
100
AcDbEntity
  8
OUTER
 62
3
370
35
100
AcDbSpline
 70
8
 71
5
 72
12
 73
6
 74
0
 42
0.0
 43
0.0
 40
0.0
 40
0.0
 40
0.0
 40
0.0
 40
0.0
 40
0.0
 40
1031.099772819035
 40
1031.099772819035
 40
1031.099772819035
 40
1031.099772819035
 40
1031.099772819035
 40
1031.099772819035
 10
38365.2914643988
 20
39213.532472531
 30
0.0
 10
38571.511418599
 20
39213.5447206376
 30
0.0
 10
38777.7315449283
 20
39213.9155207648
 30
0.0
 10
38983.951374565
 20
39214.6679701179
 30
0.0
 10
39190.1670342372
 20
39215.9926319277
 30
0.0
 10
39396.3780480091
 20
39217.9129078191
 30
0.0
  0
SPLINE
  5
B6
330
B9
100
AcDbEntity
  8
OUTER
 62
3
370
35
100
AcDbSpline
 70
8
 71
5
 72
12
 73
6
 74
0
 42
0.0
 43
0.0
 40
0.0
 40
0.0
 40
0.0
 40
0.0
 40
0.0
 40
0.0
 40
720.3908268854066
 40
720.3908268854066
 40
720.3908268854066
 40
720.3908268854066
 40
720.3908268854066
 40
720.3908268854066
 10
39396.3780480091
 20
39217.9129078191
 30
0.0
 10
39393.3604176033
 20
39361.9594685046
 30
0.0
 10
39390.0939660766
 20
39506.0006200152
 30
0.0
 10
39386.97413209
 20
39650.045104806
 30
0.0
 10
39383.9997701691
 20
39794.092835901
 30
0.0
 10
39380.5570660955
 20
39938.1298642204
 30
0.0
  0
SPLINE
  5
B7
330
B9
100
AcDbEntity
  8
OUTER
 62
3
370
35
100
AcDbSpline
 70
8
 71
5
 72
14
 73
8
 74
0
 42
0.0
 43
0.0
 40
0.0
 40
0.0
 40
0.0
 40
0.0
 40
0.0
 40
0.0
 40
268.5476938675724
 40
391.4302627592871
 40
1024.381296122101
 40
1024.381296122101
 40
1024.381296122101
 40
1024.381296122101
 40
1024.381296122101
 40
1024.381296122101
 10
39380.5570660955
 20
39938.1298642205
 30
0.0
 10
39326.847802159
 20
39938.3016858242
 30
0.0
 10
39248.5618342798
 20
39938.3719535
 30
0.0
 10
39043.6850307295
 20
39938.1066858313
 30
0.0
 10
38838.809113382
 20
39938.3713012426
 30
0.0
 10
38633.932832085
 20
39938.3016890427
 30
0.0
 10
38482.7660496288
 20
39938.5454068102
 30
0.0
 10
38356.1759287668
 20
39938.3980109994
 30
0.0
  0
SPLINE
  5
B8
330
B9
100
AcDbEntity
  8
OUTER
 62
3
370
35
100
AcDbSpline
 70
8
 71
5
 72
13
 73
7
 74
0
 42
0.0
 43
0.0
 40
0.0
 40
0.0
 40
0.0
 40
0.0
 40
0.0
 40
0.0
 40
545.0448257271424
 40
724.9232901529302
 40
724.9232901529302
 40
724.9232901529302
 40
724.9232901529302
 40
724.9232901529302
 40
724.9232901529302
 10
38356.1759287669
 20
39938.3980109994
 30
0.0
 10
38357.3641014365
 20
39829.395521451
 30
0.0
 10
38359.0006954364
 20
39684.4200699304
 30
0.0
 10
38360.7379040817
 20
39539.4456795171
 30
0.0
 10
38362.9463276416
 20
39394.4775844943
 30
0.0
 10
38364.8414186512
 20
39249.5053503335
 30
0.0
 10
38365.2914643988
 20
39213.532472531
 30
0.0
  0
ENDBLK
  5
BC
330
B9
100
AcDbEntity
  8
0
100
AcDbBlockEnd
  0
ENDSEC
  0
SECTION
  2
ENTITIES
  0
POINT
  5
D6
330
1F
100
AcDbEntity
  8
STRATEGYPOINT
 62
7
370
5
100
AcDbPoint
 10
38846.841797
 20
39367.523438
 30
0.0
  0
LINE
  5
D7
330
1F
100
AcDbEntity
  8
ROSETTE
 62
150
370
35
100
AcDbLine
 10
38856.841797
 20
39367.523438
 30
0.0
 11
38846.841797
 21
39367.523438
 31
0.0
  0
LINE
  5
D8
330
1F
100
AcDbEntity
  8
ROSETTE
 62
150
370
35
100
AcDbLine
 10
38846.841797
 20
39367.523438
 30
0.0
 11
38846.841797
 21
39372.523438
 31
0.0
  0
SPLINE
  5
D9
330
1F
100
AcDbEntity
  8
OUTER
 62
3
370
35
100
AcDbSpline
 70
8
 71
5
 72
14
 73
8
 74
0
 42
0.0
 43
0.0
 40
0.0
 40
0.0
 40
0.0
 40
0.0
 40
0.0
 40
0.0
 40
1304.916092987438
 40
2852.170379836175
 40
3479.061782120876
 40
3479.061782120876
 40
3479.061782120876
 40
3479.061782120876
 40
3479.061782120876
 40
3479.061782120876
 10
38268.187901093
 20
39017.0139015917
 30
0.0
 10
38529.1711185548
 20
39017.0382511302
 30
0.0
 10
39099.6051836998
 20
39017.112155376
 30
0.0
 10
39795.4175220422
 20
39017.2339497774
 30
0.0
 10
40491.2298088787
 20
39017.3773679254
 30
0.0
 10
41187.0421846659
 20
39017.6715482784
 30
0.0
 10
41621.8712892136
 20
39017.5715829322
 30
0.0
 10
41747.2495559769
 20
39017.5129844967
 30
0.0
  0
SPLINE
  5
DA
330
1F
100
AcDbEntity
  8
OUTER
 62
3
370
35
100
AcDbSpline
 70
8
 71
5
 72
12
 73
6
 74
0
 42
0.0
 43
0.0
 40
0.0
 40
0.0
 40
0.0
 40
0.0
 40
0.0
 40
0.0
 40
1269.985318292932
 40
1269.985318292932
 40
1269.985318292932
 40
1269.985318292932
 40
1269.985318292932
 40
1269.985318292932
 10
41747.2495559769
 20
39017.5129844967
 30
0.0
 10
41746.7979566731
 20
39271.5096466906
 30
0.0
 10
41746.6116223438
 20
39525.5066721094
 30
0.0
 10
41746.3366874498
 20
39779.5036833691
 30
0.0
 10
41745.9963824185
 20
40033.5006364118
 30
0.0
 10
41746.0856461106
 20
40287.4976843855
 30
0.0
  0
SPLINE
  5
DB
330
1F
100
AcDbEntity
  8
OUTER
 62
3
370
35
100
AcDbSpline
 70
8
 71
5
 72
12
 73
6
 74
0
 42
0.0
 43
0.0
 40
0.0
 40
0.0
 40
0.0
 40
0.0
 40
0.0
 40
0.0
 40
3493.368694182062
 40
3493.368694182062
 40
3493.368694182062
 40
3493.368694182062
 40
3493.368694182062
 40
3493.368694182062
 10
41746.0856461106
 20
40287.4976843855
 30
0.0
 10
41047.4119128975
 20
40287.5863193557
 30
0.0
 10
40348.735151495
 20
40287.9208474936
 30
0.0
 10
39650.0601027188
 20
40288.3690657626
 30
0.0
 10
38951.3912881751
 20
40288.766025865
 30
0.0
 10
38252.7175853169
 20
40288.9902437687
 30
0.0
  0
SPLINE
  5
DC
330
1F
100
AcDbEntity
  8
OUTER
 62
3
370
35
100
AcDbSpline
 70
8
 71
5
 72
15
 73
9
 74
0
 42
0.0
 43
0.0
 40
0.0
 40
0.0
 40
0.0
 40
0.0
 40
0.0
 40
0.0
 40
621.5234886720998
 40
621.5234886720998
 40
955.0264529666861
 40
1272.072671115362
 40
1272.072671115362
 40
1272.072671115362
 40
1272.072671115362
 40
1272.072671115362
 40
1272.072671115362
 10
38252.7175853169
 20
40288.9902437687
 30
0.0
 10
38253.912847308
 20
40164.6912927369
 30
0.0
 10
38255.0960983898
 20
40040.3921676011
 30
0.0
 10
38256.973049835
 20
39849.3959672735
 30
0.0
 10
38260.0057691266
 20
39594.9993906794
 30
0.0
 10
38263.4692468987
 20
39340.6083849479
 30
0.0
 10
38265.4669770684
 20
39210.5138030871
 30
0.0
 10
38267.3305012574
 20
39080.4173482111
 30
0.0
 10
38268.187901093
 20
39017.0139015917
 30
0.0
  0
POINT
  5
DF
330
1F
100
AcDbEntity
  8
STRATEGYPOINT
 62
7
370
5
100
AcDbPoint
 10
38846.841797
 20
39367.523438
 30
0.0
  0
SPLINE
  5
E0
330
1F
100
AcDbEntity
  8
0
 62
141
370
35
100
AcDbSpline
 70
8
 71
5
 72
12
 73
6
 74
0
 42
0.0
 43
0.0
 40
0.0
 40
0.0
 40
0.0
 40
0.0
 40
0.0
 40
0.0
 40
1271.505217312198
 40
1271.505217312198
 40
1271.505217312198
 40
1271.505217312198
 40
1271.505217312198
 40
1271.505217312198
 10
39643.9149519475
 20
38877.0882128855
 30
0.0
 10
39638.3844250408
 20
39131.3291104183
 30
0.0
 10
39632.8538981347
 20
39385.5700079507
 30
0.0
 10
39627.1968862427
 20
39639.8081416936
 30
0.0
 10
39621.6244212834
 20
39894.0481234829
 30
0.0
 10
39616.0519563238
 20
40148.2881052726
 30
0.0
  0
LINE
  5
E1
330
1F
100
AcDbEntity
  8
ROSETTE
 62
150
370
35
100
AcDbLine
 10
38856.841797
 20
39367.523438
 30
0.0
 11
38846.841797
 21
39367.523438
 31
0.0
  0
LINE
  5
E2
330
1F
100
AcDbEntity
  8
ROSETTE
 62
150
370
35
100
AcDbLine
 10
38846.841797
 20
39367.523438
 30
0.0
 11
38846.841797
 21
39372.523438
 31
0.0
  0
SPLINE
  5
E3
330
1F
100
AcDbEntity
  8
OUTER
 62
3
370
35
100
AcDbSpline
 70
8
 71
5
 72
13
 73
7
 74
0
 42
0.0
 43
0.0
 40
0.0
 40
0.0
 40
0.0
 40
0.0
 40
0.0
 40
0.0
 40
1881.792466870947
 40
3336.968620466726
 40
3336.968620466726
 40
3336.968620466726
 40
3336.968620466726
 40
3336.968620466726
 40
3336.968620466726
 10
38310.4682577731
 20
38876.7769405512
 30
0.0
 10
38686.8267432727
 20
38876.8539315194
 30
0.0
 10
39354.2204573123
 20
38876.9343093733
 30
0.0
 10
40021.6141088432
 20
38877.2198025037
 30
0.0
 10
40689.0077675067
 20
38877.4809999981
 30
0.0
 10
41356.40158743
 20
38877.2739305122
 30
0.0
 10
41647.4367197025
 20
38877.5133106704
 30
0.0
  0
SPLINE
  5
E4
330
1F
100
AcDbEntity
  8
OUTER
 62
3
370
35
100
AcDbSpline
 70
8
 71
5
 72
12
 73
6
 74
0
 42
0.0
 43
0.0
 40
0.0
 40
0.0
 40
0.0
 40
0.0
 40
0.0
 40
0.0
 40
1270.008811858813
 40
1270.008811858813
 40
1270.008811858813
 40
1270.008811858813
 40
1270.008811858813
 40
1270.008811858813
 10
41647.4367197025
 20
38877.5133106704
 30
0.0
 10
41647.3005609098
 20
39131.5150365484
 30
0.0
 10
41646.9217342184
 20
39385.5162791328
 30
0.0
 10
41646.4428511908
 20
39639.5172798952
 30
0.0
 10
41646.1583488546
 20
39893.5185377661
 30
0.0
 10
41646.2109467061
 20
40147.5202946915
 30
0.0
  0
SPLINE
  5
E5
330
1F
100
AcDbEntity
  8
OUTER
 62
3
370
35
100
AcDbSpline
 70
8
 71
5
 72
16
 73
10
 74
0
 42
0.0
 43
0.0
 40
0.0
 40
0.0
 40
0.0
 40
0.0
 40
0.0
 40
0.0
 40
728.0993678911384
 40
1113.729496476491
 40
2196.250589690238
 40
3002.051756894663
 40
3352.085117039539
 40
3352.085117039539
 40
3352.085117039539
 40
3352.085117039539
 40
3352.085117039539
 40
3352.085117039539
 10
41646.2109467061
 20
40147.5202946915
 30
0.0
 10
41500.591075053
 20
40147.4966161078
 30
0.0
 10
41277.8451802468
 20
40147.5118135471
 30
0.0
 10
40838.5950761402
 20
40147.6892683404
 30
0.0
 10
40238.18480427
 20
40147.9547528258
 30
0.0
 10
39567.7679363915
 20
40148.3417922716
 30
0.0
 10
39042.970828611
 20
40148.5716928823
 30
0.0
 10
38595.29955119
 20
40148.4611815971
 30
0.0
 10
38364.1327744461
 20
40148.6758403967
 30
0.0
 10
38294.1261605668
 20
40148.7660719033
 30
0.0
  0
SPLINE
  5
E6
330
1F
100
AcDbEntity
  8
OUTER
 62
3
370
35
100
AcDbSpline
 70
8
 71
5
 72
15
 73
9
 74
0
 42
0.0
 43
0.0
 40
0.0
 40
0.0
 40
0.0
 40
0.0
 40
0.0
 40
0.0
 40
162.6665930567164
 40
410.1160362121441
 40
796.7635894323512
 40
1272.099503958953
 40
1272.099503958953
 40
1272.099503958953
 40
1272.099503958953
 40
1272.099503958953
 40
1272.099503958953
 10
38294.1261605668
 20
40148.7660719033
 30
0.0
 10
38294.3091012176
 20
40116.2332676502
 30
0.0
 10
38294.9265034129
 20
40034.2127204592
 30
0.0
 10
38296.8610947641
 20
39874.8715848412
 30
0.0
 10
38299.6633643121
 20
39620.4682163153
 30
0.0
 10
38303.0479770093
 20
39366.071598367
 30
0.0
 10
38306.1903052485
 20
39144.2065080523
 30
0.0
 10
38308.9037721433
 20
38971.8312495029
 30
0.0
 10
38310.4682577731
 20
38876.7769405512
 30
0.0
  0
POINT
  5
E9
330
1F
100
AcDbEntity
  8
STRATEGYPOINT
 62
7
370
5
100
AcDbPoint
 10
38846.841797
 20
39367.523438
 30
0.0
  0
LINE
  5
EA
330
1F
100
AcDbEntity
  8
ROSETTE
 62
150
370
35
100
AcDbLine
 10
38856.841797
 20
39367.523438
 30
0.0
 11
38846.841797
 21
39367.523438
 31
0.0
  0
LINE
  5
EB
330
1F
100
AcDbEntity
  8
ROSETTE
 62
150
370
35
100
AcDbLine
 10
38846.841797
 20
39367.523438
 30
0.0
 11
38846.841797
 21
39372.523438
 31
0.0
  0
SPLINE
  5
EC
330
1F
100
AcDbEntity
  8
OUTER
 62
3
370
35
100
AcDbSpline
 70
8
 71
5
 72
12
 73
6
 74
0
 42
0.0
 43
0.0
 40
0.0
 40
0.0
 40
0.0
 40
0.0
 40
0.0
 40
0.0
 40
1074.116658808778
 40
1074.116658808778
 40
1074.116658808778
 40
1074.116658808778
 40
1074.116658808778
 40
1074.116658808778
 10
38352.7847731628
 20
38736.5992238063
 30
0.0
 10
38567.6081002323
 20
38736.6441244542
 30
0.0
 10
38782.4314162276
 20
38736.6984844037
 30
0.0
 10
38997.2547211558
 20
38736.7623010071
 30
0.0
 10
39212.0780340464
 20
38736.8284299813
 30
0.0
 10
39426.9013549066
 20
38736.8968686787
 30
0.0
  0
SPLINE
  5
ED
330
1F
100
AcDbEntity
  8
OUTER
 62
3
370
35
100
AcDbSpline
 70
8
 71
5
 72
15
 73
9
 74
0
 42
0.0
 43
0.0
 40
0.0
 40
0.0
 40
0.0
 40
0.0
 40
0.0
 40
0.0
 40
158.3326177940211
 40
781.6370979464042
 40
954.4897147472883
 40
1271.642789718053
 40
1271.642789718053
 40
1271.642789718053
 40
1271.642789718053
 40
1271.642789718053
 40
1271.642789718053
 10
39426.9013549066
 20
38736.8968686787
 30
0.0
 10
39426.2659794696
 20
38768.5570173259
 30
0.0
 10
39423.0400526007
 20
38924.8510857283
 30
0.0
 10
39418.563417653
 20
39115.6969994042
 30
0.0
 10
39413.0406529864
 20
39369.9655105707
 30
0.0
 10
39407.4680307855
 20
39624.2330151245
 30
0.0
 10
39402.5958820173
 20
39846.8417333737
 30
0.0
 10
39400.4395548811
 20
39944.8191469835
 30
0.0
 10
39399.0406285267
 20
40008.2343338364
 30
0.0
  0
SPLINE
  5
EE
330
1F
100
AcDbEntity
  8
OUTER
 62
3
370
35
100
AcDbSpline
 70
8
 71
5
 72
12
 73
6
 74
0
 42
0.0
 43
0.0
 40
0.0
 40
0.0
 40
0.0
 40
0.0
 40
0.0
 40
0.0
 40
1063.608177719548
 40
1063.608177719548
 40
1063.608177719548
 40
1063.608177719548
 40
1063.608177719548
 40
1063.608177719548
 10
39399.0406285267
 20
40008.2343338364
 30
0.0
 10
39186.3190054629
 20
40008.3072004605
 30
0.0
 10
38973.5973887036
 20
40008.3735110281
 30
0.0
 10
38760.8757782447
 20
40008.4332651189
 30
0.0
 10
38548.1541574379
 20
40008.4847390621
 30
0.0
 10
38335.4325262793
 20
40008.5279324374
 30
0.0
  0
SPLINE
  5
EF
330
1F
100
AcDbEntity
  8
OUTER
 62
3
370
35
100
AcDbSpline
 70
8
 71
5
 72
12
 73
6
 74
0
 42
0.0
 43
0.0
 40
0.0
 40
0.0
 40
0.0
 40
0.0
 40
0.0
 40
0.0
 40
1272.049401258889
 40
1272.049401258889
 40
1272.049401258889
 40
1272.049401258889
 40
1272.049401258889
 40
1272.049401258889
 10
38335.4325262793
 20
40008.5279324374
 30
0.0
 10
38337.7433927667
 20
39754.1285474826
 30
0.0
 10
38341.7187648702
 20
39499.7466053694
 30
0.0
 10
38344.0494387739
 20
39245.3456593928
 30
0.0
 10
38348.7376555243
 20
38990.9769115231
 30
0.0
 10
38352.7847731628
 20
38736.5992238063
 30
0.0
  0
TEXT
  5
F0
330
1F
100
AcDbEntity
  8
TEXT
 62
14
370
13
100
AcDbText
 10
38602.345703
 20
40227.006408999994
 30
0.0
 40
30.0
  1
V236_WW_TRU05_270 RT
 41
0.934161
 72
5
 11
39122.806641
 21
40227.006408999994
 31
0.0
100
AcDbText
  0
TEXT
  5
F1
330
1F
100
AcDbEntity
  8
TEXT
 62
14
370
13
100
AcDbText
 10
38600.935547
 20
40088.975158999994
 30
0.0
 40
30.0
  1
V236_WW_TRU05_272 RT
 41
0.934161
 72
5
 11
39121.396485
 21
40088.975158999994
 31
0.0
100
AcDbText
  0
TEXT
  5
F2
330
1F
100
AcDbEntity
  8
TEXT
 62
14
370
13
100
AcDbText
 10
38600.931641
 20
39947.272033999994
 30
0.0
 40
30.0
  1
V236_WW_TRU05_274 RT
 41
0.934161
 72
5
 11
39121.392578
 21
39947.272033999994
 31
0.0
100
AcDbText
  0
POINT
  5
F9
330
1F
100
AcDbEntity
  8
STRATEGYPOINT
 62
7
370
5
100
AcDbPoint
 10
38846.841797
 20
39367.523438
 30
0.0
  0
LINE
  5
FA
330
1F
100
AcDbEntity
  8
ROSETTE
 62
150
370
35
100
AcDbLine
 10
38856.841797
 20
39367.523438
 30
0.0
 11
38846.841797
 21
39367.523438
 31
0.0
  0
LINE
  5
FB
330
1F
100
AcDbEntity
  8
ROSETTE
 62
150
370
35
100
AcDbLine
 10
38846.841797
 20
39367.523438
 30
0.0
 11
38846.841797
 21
39372.523438
 31
0.0
  0
SPLINE
  5
FC
330
1F
100
AcDbEntity
  8
OUTER
 62
3
370
35
100
AcDbSpline
 70
8
 71
5
 72
14
 73
8
 74
0
 42
0.0
 43
0.0
 40
0.0
 40
0.0
 40
0.0
 40
0.0
 40
0.0
 40
0.0
 40
2120.261157639104
 40
2718.721358979913
 40
3408.072751651251
 40
3408.072751651251
 40
3408.072751651251
 40
3408.072751651251
 40
3408.072751651251
 40
3408.072751651251
 10
38289.2974499869
 20
38946.8757387874
 30
0.0
 10
38713.3496749793
 20
38946.9501892263
 30
0.0
 10
39257.0939463571
 20
38947.0399453781
 30
0.0
 10
39938.7084668464
 20
38947.195933936
 30
0.0
 10
40620.3229370901
 20
38947.3178504352
 30
0.0
 10
41301.9375937955
 20
38947.7019003077
 30
0.0
 10
41559.4998696155
 20
38947.6265520721
 30
0.0
 10
41697.3700948795
 20
38947.5053549477
 30
0.0
  0
SPLINE
  5
FD
330
1F
100
AcDbEntity
  8
OUTER
 62
3
370
35
100
AcDbSpline
 70
8
 71
5
 72
13
 73
7
 74
0
 42
0.0
 43
0.0
 40
0.0
 40
0.0
 40
0.0
 40
0.0
 40
0.0
 40
0.0
 40
951.6087770046029
 40
1270.007781565154
 40
1270.007781565154
 40
1270.007781565154
 40
1270.007781565154
 40
1270.007781565154
 40
1270.007781565154
 10
41697.3700948796
 20
38947.5053549477
 30
0.0
 10
41696.9426979781
 20
39137.8266304554
 30
0.0
 10
41696.7827537683
 20
39391.8282356876
 30
0.0
 10
41696.7018598827
 20
39645.829771724
 30
0.0
 10
41696.0660973124
 20
39899.8311802297
 30
0.0
 10
41696.1049915018
 20
40153.8326466719
 30
0.0
 10
41696.1599743082
 20
40217.5124238473
 30
0.0
  0
SPLINE
  5
FE
330
1F
100
AcDbEntity
  8
OUTER
 62
3
370
35
100
AcDbSpline
 70
8
 71
5
 72
12
 73
6
 74
0
 42
0.0
 43
0.0
 40
0.0
 40
0.0
 40
0.0
 40
0.0
 40
0.0
 40
0.0
 40
3422.811502709548
 40
3422.811502709548
 40
3422.811502709548
 40
3422.811502709548
 40
3422.811502709548
 40
3422.811502709548
 10
41696.1599743082
 20
40217.5124238472
 30
0.0
 10
41011.5978133325
 20
40217.9495527593
 30
0.0
 10
40327.0354172074
 20
40217.7866798153
 30
0.0
 10
39642.4733127025
 20
40218.3680272724
 30
0.0
 10
38957.9110674996
 20
40218.622235871
 30
0.0
 10
38273.3488187028
 20
40218.8884040761
 30
0.0
  0
SPLINE
  5
FF
330
1F
100
AcDbEntity
  8
OUTER
 62
3
370
35
100
AcDbSpline
 70
8
 71
5
 72
13
 73
7
 74
0
 42
0.0
 43
0.0
 40
0.0
 40
0.0
 40
0.0
 40
0.0
 40
0.0
 40
0.0
 40
648.2509242447672
 40
1272.114860830413
 40
1272.114860830413
 40
1272.114860830413
 40
1272.114860830413
 40
1272.114860830413
 40
1272.114860830413
 10
38273.3488187028
 20
40218.8884040761
 30
0.0
 10
38274.6499262108
 20
40089.2447480392
 30
0.0
 10
38277.2833584426
 20
39834.8353911009
 30
0.0
 10
38280.1203289833
 20
39580.4280684502
 30
0.0
 10
38283.7283072911
 20
39326.0306082453
 30
0.0
 10
38287.4657019526
 20
39071.6350797363
 30
0.0
 10
38289.2974499869
 20
38946.8757387874
 30
0.0
  0
POINT
  5
102
330
1F
100
AcDbEntity
  8
STRATEGYPOINT
 62
7
370
5
100
AcDbPoint
 10
38846.841797
 20
39367.523438
 30
0.0
  0
LINE
  5
103
330
1F
100
AcDbEntity
  8
MARKERS
 62
4
370
35
100
AcDbLine
 10
41677.841797
 20
39367.523438
 30
0.0
 11
38293.841797
 21
39367.523438
 31
0.0
  0
LINE
  5
104
330
1F
100
AcDbEntity
  8
MARKERS
 62
4
370
35
100
AcDbLine
 10
41668.841797
 20
39067.523438
 30
0.0
 11
38300.841797
 21
39067.523438
 31
0.0
  0
LINE
  5
105
330
1F
100
AcDbEntity
  8
MARKERS
 62
4
370
35
100
AcDbLine
 10
41621.841797
 20
38967.523438
 30
0.0
 11
38321.841797
 21
38967.523438
 31
0.0
  0
LINE
  5
106
330
1F
100
AcDbEntity
  8
MARKERS
 62
4
370
35
100
AcDbLine
 10
39408.841797
 20
38867.523438
 30
0.0
 11
38360.841797
 21
38867.523438
 31
0.0
  0
LINE
  5
107
330
1F
100
AcDbEntity
  8
MARKERS
 62
4
370
35
100
AcDbLine
 10
41672.841797
 20
39667.523438
 30
0.0
 11
38288.841797
 21
39667.523438
 31
0.0
  0
LINE
  5
108
330
1F
100
AcDbEntity
  8
MARKERS
 62
4
370
35
100
AcDbLine
 10
41667.841797
 20
39967.523438
 30
0.0
 11
38290.841797
 21
39967.523438
 31
0.0
  0
LINE
  5
109
330
1F
100
AcDbEntity
  8
MARKERS
 62
4
370
35
100
AcDbLine
 10
41670.841797
 20
40167.523438
 30
0.0
 11
38285.841797
 21
40167.523438
 31
0.0
  0
LINE
  5
10A
330
1F
100
AcDbEntity
  8
ROSETTE
 62
150
370
35
100
AcDbLine
 10
38856.841797
 20
39367.523438
 30
0.0
 11
38846.841797
 21
39367.523438
 31
0.0
  0
LINE
  5
10B
330
1F
100
AcDbEntity
  8
ROSETTE
 62
150
370
35
100
AcDbLine
 10
38846.841797
 20
39367.523438
 30
0.0
 11
38846.841797
 21
39372.523438
 31
0.0
  0
SPLINE
  5
10C
330
1F
100
AcDbEntity
  8
OUTER
 62
3
370
35
100
AcDbSpline
 70
8
 71
5
 72
12
 73
6
 74
0
 42
0.0
 43
0.0
 40
0.0
 40
0.0
 40
0.0
 40
0.0
 40
0.0
 40
0.0
 40
1031.099772819035
 40
1031.099772819035
 40
1031.099772819035
 40
1031.099772819035
 40
1031.099772819035
 40
1031.099772819035
 10
38365.2914643988
 20
39213.532472531
 30
0.0
 10
38571.511418599
 20
39213.5447206376
 30
0.0
 10
38777.7315449283
 20
39213.9155207648
 30
0.0
 10
38983.951374565
 20
39214.6679701179
 30
0.0
 10
39190.1670342372
 20
39215.9926319277
 30
0.0
 10
39396.3780480091
 20
39217.9129078191
 30
0.0
  0
SPLINE
  5
10D
330
1F
100
AcDbEntity
  8
OUTER
 62
3
370
35
100
AcDbSpline
 70
8
 71
5
 72
12
 73
6
 74
0
 42
0.0
 43
0.0
 40
0.0
 40
0.0
 40
0.0
 40
0.0
 40
0.0
 40
0.0
 40
720.3908268854066
 40
720.3908268854066
 40
720.3908268854066
 40
720.3908268854066
 40
720.3908268854066
 40
720.3908268854066
 10
39396.3780480091
 20
39217.9129078191
 30
0.0
 10
39393.3604176033
 20
39361.9594685046
 30
0.0
 10
39390.0939660766
 20
39506.0006200152
 30
0.0
 10
39386.97413209
 20
39650.045104806
 30
0.0
 10
39383.9997701691
 20
39794.092835901
 30
0.0
 10
39380.5570660955
 20
39938.1298642204
 30
0.0
  0
SPLINE
  5
10E
330
1F
100
AcDbEntity
  8
OUTER
 62
3
370
35
100
AcDbSpline
 70
8
 71
5
 72
14
 73
8
 74
0
 42
0.0
 43
0.0
 40
0.0
 40
0.0
 40
0.0
 40
0.0
 40
0.0
 40
0.0
 40
268.5476938675724
 40
391.4302627592871
 40
1024.381296122101
 40
1024.381296122101
 40
1024.381296122101
 40
1024.381296122101
 40
1024.381296122101
 40
1024.381296122101
 10
39380.5570660955
 20
39938.1298642205
 30
0.0
 10
39326.847802159
 20
39938.3016858242
 30
0.0
 10
39248.5618342798
 20
39938.3719535
 30
0.0
 10
39043.6850307295
 20
39938.1066858313
 30
0.0
 10
38838.809113382
 20
39938.3713012426
 30
0.0
 10
38633.932832085
 20
39938.3016890427
 30
0.0
 10
38482.7660496288
 20
39938.5454068102
 30
0.0
 10
38356.1759287668
 20
39938.3980109994
 30
0.0
  0
SPLINE
  5
10F
330
1F
100
AcDbEntity
  8
OUTER
 62
3
370
35
100
AcDbSpline
 70
8
 71
5
 72
13
 73
7
 74
0
 42
0.0
 43
0.0
 40
0.0
 40
0.0
 40
0.0
 40
0.0
 40
0.0
 40
0.0
 40
545.0448257271424
 40
724.9232901529302
 40
724.9232901529302
 40
724.9232901529302
 40
724.9232901529302
 40
724.9232901529302
 40
724.9232901529302
 10
38356.1759287669
 20
39938.3980109994
 30
0.0
 10
38357.3641014365
 20
39829.395521451
 30
0.0
 10
38359.0006954364
 20
39684.4200699304
 30
0.0
 10
38360.7379040817
 20
39539.4456795171
 30
0.0
 10
38362.9463276416
 20
39394.4775844943
 30
0.0
 10
38364.8414186512
 20
39249.5053503335
 30
0.0
 10
38365.2914643988
 20
39213.532472531
 30
0.0
  0
TEXT
  5
110
330
1F
100
AcDbEntity
  8
TEXT
 62
14
370
13
100
AcDbText
 10
38599.306641
 20
40158.65094
 30
0.0
 40
30.0
  1
V236_WW_TRU05_271 RT
 41
0.934161
 72
5
 11
39119.767578
 21
40158.65094
 31
0.0
100
AcDbText
  0
TEXT
  5
111
330
1F
100
AcDbEntity
  8
TEXT
 62
14
370
13
100
AcDbText
 10
38603.712891
 20
39859.959533999994
 30
0.0
 40
30.0
  1
V236_WW_TRU05_275 RT
 41
0.934161
 72
5
 11
39124.173828
 21
39859.959533999994
 31
0.0
100
AcDbText
  0
POINT
  5
114
330
1F
100
AcDbEntity
  8
STRATEGYPOINT
 62
7
370
5
100
AcDbPoint
 10
38846.841797
 20
39367.523438
 30
0.0
  0
LINE
  5
115
330
1F
100
AcDbEntity
  8
ROSETTE
 62
150
370
35
100
AcDbLine
 10
38856.841797
 20
39367.523438
 30
0.0
 11
38846.841797
 21
39367.523438
 31
0.0
  0
LINE
  5
116
330
1F
100
AcDbEntity
  8
ROSETTE
 62
150
370
35
100
AcDbLine
 10
38846.841797
 20
39367.523438
 30
0.0
 11
38846.841797
 21
39372.523438
 31
0.0
  0
SPLINE
  5
117
330
1F
100
AcDbEntity
  8
OUTER
 62
3
370
35
100
AcDbSpline
 70
8
 71
5
 72
12
 73
6
 74
0
 42
0.0
 43
0.0
 40
0.0
 40
0.0
 40
0.0
 40
0.0
 40
0.0
 40
0.0
 40
1113.780249626518
 40
1113.780249626518
 40
1113.780249626518
 40
1113.780249626518
 40
1113.780249626518
 40
1113.780249626518
 10
38331.5970737224
 20
38806.6856157401
 30
0.0
 10
38554.3531199072
 20
38806.7264393685
 30
0.0
 10
38777.1092038661
 20
38806.704305708
 30
0.0
 10
38999.8653066066
 20
38806.6498975716
 30
0.0
 10
39222.6213245768
 20
38806.7302367866
 30
0.0
 10
39445.3772385251
 20
38806.9763656335
 30
0.0
  0
SPLINE
  5
118
330
1F
100
AcDbEntity
  8
OUTER
 62
3
370
35
100
AcDbSpline
 70
8
 71
5
 72
12
 73
6
 74
0
 42
0.0
 43
0.0
 40
0.0
 40
0.0
 40
0.0
 40
0.0
 40
0.0
 40
0.0
 40
1271.612409023305
 40
1271.612409023305
 40
1271.612409023305
 40
1271.612409023305
 40
1271.612409023305
 40
1271.612409023305
 10
39445.3772385251
 20
38806.9763656335
 30
0.0
 10
39440.0541715727
 20
39061.2431344216
 30
0.0
 10
39434.3837772245
 20
39315.5024759121
 30
0.0
 10
39428.7795163154
 20
39569.763236893
 30
0.0
 10
39423.2454382343
 20
39824.0255466475
 30
0.0
 10
39417.5012220147
 20
40078.2831497443
 30
0.0
  0
SPLINE
  5
119
330
1F
100
AcDbEntity
  8
OUTER
 62
3
370
35
100
AcDbSpline
 70
8
 71
5
 72
12
 73
6
 74
0
 42
0.0
 43
0.0
 40
0.0
 40
0.0
 40
0.0
 40
0.0
 40
0.0
 40
0.0
 40
1102.789970346052
 40
1102.789970346052
 40
1102.789970346052
 40
1102.789970346052
 40
1102.789970346052
 40
1102.789970346052
 10
39417.5012220147
 20
40078.2831497444
 30
0.0
 10
39196.9432441542
 20
40078.3677068237
 30
0.0
 10
38976.3852746703
 20
40078.4537710844
 30
0.0
 10
38755.8273135503
 20
40078.5413308908
 30
0.0
 10
38535.2693387907
 20
40078.6100945243
 30
0.0
 10
38314.7113503789
 20
40078.6600503492
 30
0.0
  0
SPLINE
  5
11A
330
1F
100
AcDbEntity
  8
OUTER
 62
3
370
35
100
AcDbSpline
 70
8
 71
5
 72
15
 73
9
 74
0
 42
0.0
 43
0.0
 40
0.0
 40
0.0
 40
0.0
 40
0.0
 40
0.0
 40
0.0
 40
639.9269630226057
 40
951.6919864175436
 40
1112.032049220419
 40
1272.088931322879
 40
1272.088931322879
 40
1272.088931322879
 40
1272.088931322879
 40
1272.088931322879
 40
1272.088931322879
 10
38314.7113503789
 20
40078.6600503492
 30
0.0
 10
38316.140538767
 20
39950.6826377306
 30
0.0
 10
38317.9586789805
 20
39760.3527330741
 30
0.0
 10
38320.7917018832
 20
39537.9642195577
 30
0.0
 10
38324.0645648289
 20
39283.5670144349
 30
0.0
 10
38328.1023648292
 20
39029.1812156411
 30
0.0
 10
38330.1772496222
 20
38902.7658565193
 30
0.0
 10
38331.1389429124
 20
38838.6937137234
 30
0.0
 10
38331.5970737224
 20
38806.6856157401
 30
0.0
  0
TEXT
  5
11B
330
1F
100
AcDbEntity
  8
TEXT
 62
14
370
13
100
AcDbText
 10
38603.716797
 20
40017.96344
 30
0.0
 40
30.0
  1
V236_WW_TRU05_273 RT
 41
0.934161
 72
5
 11
39124.177735
 21
40017.96344
 31
0.0
100
AcDbText
  0
ENDSEC
  0
SECTION
  2
OBJECTS
  0
DICTIONARY
  5
C
330
0
100
AcDbDictionary
281
1
  3
ACAD_GROUP
350
D
  3
ACAD_LAYOUT
350
1A
  3
ACAD_MLINESTYLE
350
17
  3
ACAD_PLOTSETTINGS
350
19
  3
ACAD_PLOTSTYLENAME
350
E
  3
ACAD_SCALELIST
350
47
  3
DWGPROPS
350
7F
  3
ACAD_COLOR
350
CA
  3
ACAD_MATERIAL
350
CB
  3
ACAD_MLEADERSTYLE
350
CC
  3
ACAD_TABLESTYLE
350
CD
  3
ACAD_VISUALSTYLE
350
CE
  3
EZDXF_META
350
F5
  0
DICTIONARY
  5
D
102
{ACAD_REACTORS
330
C
102
}
330
C
100
AcDbDictionary
281
1
  0
DICTIONARY
  5
1A
102
{ACAD_REACTORS
330
C
102
}
330
C
100
AcDbDictionary
281
1
  3
Layout1
350
1E
  3
Layout2
350
26
  3
Model
350
22
  0
DICTIONARY
  5
17
102
{ACAD_REACTORS
330
C
102
}
330
C
100
AcDbDictionary
281
1
  3
Standard
350
18
  0
DICTIONARY
  5
19
102
{ACAD_REACTORS
330
C
102
}
330
C
100
AcDbDictionary
281
1
  0
ACDBDICTIONARYWDFLT
  5
E
102
{ACAD_REACTORS
330
C
102
}
330
C
100
AcDbDictionary
281
1
  3
Normal
350
F
100
AcDbDictionaryWithDefault
340
F
  0
DICTIONARY
  5
47
102
{ACAD_REACTORS
330
C
102
}
330
C
100
AcDbDictionary
281
1
  3
A0
350
48
  3
A1
350
49
  3
A2
350
4A
  3
A3
350
4B
  3
A4
350
4C
  3
A5
350
4D
  3
A6
350
4E
  3
A7
350
4F
  3
A8
350
50
  3
A9
350
51
  3
B0
350
52
  3
B1
350
53
  3
B2
350
54
  3
B3
350
55
  3
B4
350
56
  3
B5
350
57
  3
B6
350
58
  3
B7
350
59
  3
B8
350
5A
  3
B9
350
5B
  3
C0
350
5C
  3
C1
350
5D
  3
C2
350
5E
  3
C3
350
5F
  3
C4
350
60
  3
C5
350
61
  3
C6
350
62
  3
C7
350
63
  3
C8
350
64
  3
C9
350
65
  3
D0
350
66
  3
D1
350
67
  3
D2
350
68
  0
XRECORD
  5
7F
102
{ACAD_REACTORS
330
C
102
}
330
C
100
AcDbXrecord
280
1
  1
DWGPROPS COOKIE
  2

  3

  4

  6

  7

  8
ADTFE
  9

300
=
301
=
302
=
303
=
304
=
305
=
306
=
307
=
308
=
309
=
 40
0.0
 41
0.0
 42
2460355.529107
  1

 90
0
  0
LAYOUT
  5
1E
102
{ACAD_REACTORS
330
1A
102
}
330
1A
100
AcDbPlotSettings
  1

  2
none_device
  4

  6

 40
0.0
 41
0.0
 42
0.0
 43
0.0
 44
0.0
 45
0.0
 46
0.0
 47
0.0
 48
0.0
 49
0.0
140
0.0
141
0.0
142
1.0
143
1.0
 70
4784
 72
0
 73
0
 74
5
  7

 75
16
 76
0
 77
2
 78
300
147
1.0
148
0.0
149
0.0
100
AcDbLayout
  1
Layout1
 70
1
 71
1
 10
0.0
 20
0.0
 11
420.0
 21
297.0
 12
0.0
 22
0.0
 32
0.0
 14
0.0
 24
0.0
 34
0.0
 15
275.964844
 25
901.111206
 35
2.0
146
0.0
 13
0.0
 23
0.0
 33
0.0
 16
1.0
 26
0.0
 36
0.0
 17
0.0
 27
1.0
 37
0.0
 76
0
330
1B
  0
LAYOUT
  5
26
102
{ACAD_REACTORS
330
1A
102
}
330
1A
100
AcDbPlotSettings
  1

  2
none_device
  4

  6

 40
0.0
 41
0.0
 42
0.0
 43
0.0
 44
0.0
 45
0.0
 46
0.0
 47
0.0
 48
0.0
 49
0.0
140
0.0
141
0.0
142
1.0
143
1.0
 70
4784
 72
0
 73
0
 74
5
  7

 75
16
 76
0
 77
2
 78
300
147
1.0
148
0.0
149
0.0
100
AcDbLayout
  1
Layout2
 70
1
 71
2
 10
0.0
 20
0.0
 11
0.0
 21
0.0
 12
0.0
 22
0.0
 32
0.0
 14
0.0
 24
0.0
 34
0.0
 15
0.0
 25
0.0
 35
0.0
146
0.0
 13
0.0
 23
0.0
 33
0.0
 16
1.0
 26
0.0
 36
0.0
 17
0.0
 27
1.0
 37
0.0
 76
0
330
23
  0
LAYOUT
  5
22
102
{ACAD_REACTORS
330
1A
102
}
330
1A
100
AcDbPlotSettings
  1

  2
none_device
  4
Letter_(8.50_x_11.00_Inches)
  6

 40
6.35
 41
6.35
 42
6.350005
 43
6.350005
 44
215.9
 45
279.4
 46
0.0
 47
0.0
 48
0.0
 49
0.0
140
0.0
141
0.0
142
1.0
143
1.0
 70
5808
 72
0
 73
0
 74
0
  7

 75
0
 76
0
 77
2
 78
300
147
1.0
148
0.0
149
0.0
100
AcDbLayout
  1
Model
 70
1
 71
0
 10
0.0
 20
0.0
 11
420.0
 21
297.0
 12
0.0
 22
0.0
 32
0.0
 14
0.0
 24
0.0
 34
0.0
 15
275.964844
 25
901.111206
 35
2.0
146
0.0
 13
0.0
 23
0.0
 33
0.0
 16
1.0
 26
0.0
 36
0.0
 17
0.0
 27
1.0
 37
0.0
 76
0
330
1F
331
29
  0
MLINESTYLE
  5
18
102
{ACAD_REACTORS
330
17
102
}
330
17
100
AcDbMlineStyle
  2
Standard
 70
0
  3

 62
256
 51
90.0
 52
90.0
 71
2
 49
0.5
 62
256
  6
BYLAYER
 49
-0.5
 62
256
  6
BYLAYER
  0
ACDBPLACEHOLDER
  5
F
102
{ACAD_REACTORS
330
E
102
}
330
E
  0
SCALE
  5
48
102
{ACAD_REACTORS
330
47
102
}
330
47
100
AcDbScale
 70
0
300
1:1
140
1.0
141
1.0
290
1
  0
SCALE
  5
49
102
{ACAD_REACTORS
330
47
102
}
330
47
100
AcDbScale
 70
0
300
1:2
140
1.0
141
2.0
290
0
  0
SCALE
  5
4A
102
{ACAD_REACTORS
330
47
102
}
330
47
100
AcDbScale
 70
0
300
1:4
140
1.0
141
4.0
290
0
  0
SCALE
  5
4B
102
{ACAD_REACTORS
330
47
102
}
330
47
100
AcDbScale
 70
0
300
1:5
140
1.0
141
5.0
290
0
  0
SCALE
  5
4C
102
{ACAD_REACTORS
330
47
102
}
330
47
100
AcDbScale
 70
0
300
1:8
140
1.0
141
8.0
290
0
  0
SCALE
  5
4D
102
{ACAD_REACTORS
330
47
102
}
330
47
100
AcDbScale
 70
0
300
1:10
140
1.0
141
10.0
290
0
  0
SCALE
  5
4E
102
{ACAD_REACTORS
330
47
102
}
330
47
100
AcDbScale
 70
0
300
1:16
140
1.0
141
16.0
290
0
  0
SCALE
  5
4F
102
{ACAD_REACTORS
330
47
102
}
330
47
100
AcDbScale
 70
0
300
1:20
140
1.0
141
20.0
290
0
  0
SCALE
  5
50
102
{ACAD_REACTORS
330
47
102
}
330
47
100
AcDbScale
 70
0
300
1:30
140
1.0
141
30.0
290
0
  0
SCALE
  5
51
102
{ACAD_REACTORS
330
47
102
}
330
47
100
AcDbScale
 70
0
300
1:40
140
1.0
141
40.0
290
0
  0
SCALE
  5
52
102
{ACAD_REACTORS
330
47
102
}
330
47
100
AcDbScale
 70
0
300
1:50
140
1.0
141
50.0
290
0
  0
SCALE
  5
53
102
{ACAD_REACTORS
330
47
102
}
330
47
100
AcDbScale
 70
0
300
1:100
140
1.0
141
100.0
290
0
  0
SCALE
  5
54
102
{ACAD_REACTORS
330
47
102
}
330
47
100
AcDbScale
 70
0
300
2:1
140
2.0
141
1.0
290
0
  0
SCALE
  5
55
102
{ACAD_REACTORS
330
47
102
}
330
47
100
AcDbScale
 70
0
300
4:1
140
4.0
141
1.0
290
0
  0
SCALE
  5
56
102
{ACAD_REACTORS
330
47
102
}
330
47
100
AcDbScale
 70
0
300
8:1
140
8.0
141
1.0
290
0
  0
SCALE
  5
57
102
{ACAD_REACTORS
330
47
102
}
330
47
100
AcDbScale
 70
0
300
10:1
140
10.0
141
1.0
290
0
  0
SCALE
  5
58
102
{ACAD_REACTORS
330
47
102
}
330
47
100
AcDbScale
 70
0
300
100:1
140
100.0
141
1.0
290
0
  0
SCALE
  5
59
102
{ACAD_REACTORS
330
47
102
}
330
47
100
AcDbScale
 70
0
300
1/128" = 1'-0"
140
0.007812
141
12.0
290
0
  0
SCALE
  5
5A
102
{ACAD_REACTORS
330
47
102
}
330
47
100
AcDbScale
 70
0
300
1/64" = 1'-0"
140
0.015625
141
12.0
290
0
  0
SCALE
  5
5B
102
{ACAD_REACTORS
330
47
102
}
330
47
100
AcDbScale
 70
0
300
1/32" = 1'-0"
140
0.03125
141
12.0
290
0
  0
SCALE
  5
5C
102
{ACAD_REACTORS
330
47
102
}
330
47
100
AcDbScale
 70
0
300
1/16" = 1'-0"
140
0.0625
141
12.0
290
0
  0
SCALE
  5
5D
102
{ACAD_REACTORS
330
47
102
}
330
47
100
AcDbScale
 70
0
300
3/32" = 1'-0"
140
0.09375
141
12.0
290
0
  0
SCALE
  5
5E
102
{ACAD_REACTORS
330
47
102
}
330
47
100
AcDbScale
 70
0
300
1/8" = 1'-0"
140
0.125
141
12.0
290
0
  0
SCALE
  5
5F
102
{ACAD_REACTORS
330
47
102
}
330
47
100
AcDbScale
 70
0
300
3/16" = 1'-0"
140
0.1875
141
12.0
290
0
  0
SCALE
  5
60
102
{ACAD_REACTORS
330
47
102
}
330
47
100
AcDbScale
 70
0
300
1/4" = 1'-0"
140
0.25
141
12.0
290
0
  0
SCALE
  5
61
102
{ACAD_REACTORS
330
47
102
}
330
47
100
AcDbScale
 70
0
300
3/8" = 1'-0"
140
0.375
141
12.0
290
0
  0
SCALE
  5
62
102
{ACAD_REACTORS
330
47
102
}
330
47
100
AcDbScale
 70
0
300
1/2" = 1'-0"
140
0.5
141
12.0
290
0
  0
SCALE
  5
63
102
{ACAD_REACTORS
330
47
102
}
330
47
100
AcDbScale
 70
0
300
3/4" = 1'-0"
140
0.75
141
12.0
290
0
  0
SCALE
  5
64
102
{ACAD_REACTORS
330
47
102
}
330
47
100
AcDbScale
 70
0
300
1" = 1'-0"
140
1.0
141
12.0
290
0
  0
SCALE
  5
65
102
{ACAD_REACTORS
330
47
102
}
330
47
100
AcDbScale
 70
0
300
1-1/2" = 1'-0"
140
1.5
141
12.0
290
0
  0
SCALE
  5
66
102
{ACAD_REACTORS
330
47
102
}
330
47
100
AcDbScale
 70
0
300
3" = 1'-0"
140
3.0
141
12.0
290
0
  0
SCALE
  5
67
102
{ACAD_REACTORS
330
47
102
}
330
47
100
AcDbScale
 70
0
300
6" = 1'-0"
140
6.0
141
12.0
290
0
  0
SCALE
  5
68
102
{ACAD_REACTORS
330
47
102
}
330
47
100
AcDbScale
 70
0
300
1'-0" = 1'-0"
140
12.0
141
12.0
290
0
  0
DICTIONARY
  5
CA
330
C
100
AcDbDictionary
280
0
281
1
  0
DICTIONARY
  5
CB
330
C
100
AcDbDictionary
280
0
281
1
  3
ByBlock
350
CF
  3
ByLayer
350
D0
  3
Global
350
D1
  0
DICTIONARY
  5
CC
330
C
100
AcDbDictionary
280
0
281
1
  3
Standard
350
D3
  0
DICTIONARY
  5
CD
330
C
100
AcDbDictionary
280
0
281
1
  0
DICTIONARY
  5
CE
330
C
100
AcDbDictionary
280
0
281
1
  0
MATERIAL
  5
CF
102
{ACAD_REACTORS
330
CB
102
}
330
CB
100
AcDbMaterial
  1
ByBlock
  2

 70
0
 40
1.0
 71
1
 41
1.0
 91
-1023410177
 42
1.0
 72
1
  3

 73
1
 74
1
 75
1
 44
0.5
 73
0
 45
1.0
 46
1.0
 77
1
  4

 78
1
 79
1
170
1
 48
1.0
171
1
  6

172
1
173
1
174
1
140
1.0
141
1.0
175
1
  7

176
1
177
1
178
1
143
1.0
179
1
  8

270
1
271
1
272
1
145
1.0
146
1.0
273
1
  9

274
1
275
1
276
1
 42
1.0
 72
1
  3

 73
1
 74
1
 75
1
 94
63
  0
MATERIAL
  5
D0
102
{ACAD_REACTORS
330
CB
102
}
330
CB
100
AcDbMaterial
  1
ByLayer
  2

 70
0
 40
1.0
 71
1
 41
1.0
 91
-1023410177
 42
1.0
 72
1
  3

 73
1
 74
1
 75
1
 44
0.5
 73
0
 45
1.0
 46
1.0
 77
1
  4

 78
1
 79
1
170
1
 48
1.0
171
1
  6

172
1
173
1
174
1
140
1.0
141
1.0
175
1
  7

176
1
177
1
178
1
143
1.0
179
1
  8

270
1
271
1
272
1
145
1.0
146
1.0
273
1
  9

274
1
275
1
276
1
 42
1.0
 72
1
  3

 73
1
 74
1
 75
1
 94
63
  0
MATERIAL
  5
D1
102
{ACAD_REACTORS
330
CB
102
}
330
CB
100
AcDbMaterial
  1
Global
  2

 70
0
 40
1.0
 71
1
 41
1.0
 91
-1023410177
 42
1.0
 72
1
  3

 73
1
 74
1
 75
1
 44
0.5
 73
0
 45
1.0
 46
1.0
 77
1
  4

 78
1
 79
1
170
1
 48
1.0
171
1
  6

172
1
173
1
174
1
140
1.0
141
1.0
175
1
  7

176
1
177
1
178
1
143
1.0
179
1
  8

270
1
271
1
272
1
145
1.0
146
1.0
273
1
  9

274
1
275
1
276
1
 42
1.0
 72
1
  3

 73
1
 74
1
 75
1
 94
63
  0
MLEADERSTYLE
  5
D3
102
{ACAD_REACTORS
330
CC
102
}
330
CC
100
AcDbMLeaderStyle
179
2
170
2
171
1
172
0
 90
2
 40
0.0
 41
0.0
173
1
 91
-1056964608
 92
-2
290
1
 42
2.0
291
1
 43
8.0
  3
Standard
 44
4.0
300

342
11
174
1
175
1
176
0
178
1
 93
-1056964608
 45
4.0
292
0
297
0
 46
4.0
 94
-1056964608
 47
1.0
 49
1.0
140
1.0
294
1
141
0.0
177
0
142
1.0
295
0
296
0
143
3.75
271
0
272
9
273
9
  0
DICTIONARY
  5
F5
330
C
100
AcDbDictionary
281
1
  3
WRITTEN_BY_EZDXF
350
F6
  0
DICTIONARYVAR
  5
F6
330
F5
100
DictionaryVariables
280
0
  1
1.1.3 @ 2024-04-29T10:57:50.808336+00:00
  0
ENDSEC
  0
EOF
