  0
SECTION
  2
HEADER
  9
$ACADVER
  1
AC1015
  9
$ACADMAINTVER
 70
     6
  9
$DWGCODEPAGE
  3
ANSI_1252
  9
$INSBASE
 10
0.0
 20
0.0
 30
0.0
  9
$EXTMIN
 10
0.0
 20
0.0
 30
0.0
  9
$EXTMAX
 10
478.1875
 20
901.001831
 30
2.0
  9
$LIMMIN
 10
0.0
 20
0.0
  9
$LIMMAX
 10
420.0
 20
297.0
  9
$ORTHOMODE
 70
     0
  9
$REGENMODE
 70
     1
  9
$FILLMODE
 70
     1
  9
$QTEXTMODE
 70
     0
  9
$MIRRTEXT
 70
     1
  9
$LTSCALE
 40
1.0
  9
$ATTMODE
 70
     1
  9
$TEXTSIZE
 40
2.5
  9
$TRACEWID
 40
1.0
  9
$TEXTSTYLE
  7
Standard
  9
$CLAYER
  8
0
  9
$CELTYPE
  6
ByLayer
  9
$CECOLOR
 62
   256
  9
$CELTSCALE
 40
1.0
  9
$DISPSILH
 70
     0
  9
$DIMSCALE
 40
1.0
  9
$DIMASZ
 40
2.5
  9
$DIMEXO
 40
0.625
  9
$DIMDLI
 40
3.75
  9
$DIMRND
 40
0.0
  9
$DIMDLE
 40
0.0
  9
$DIMEXE
 40
1.25
  9
$DIMTP
 40
0.0
  9
$DIMTM
 40
0.0
  9
$DIMTXT
 40
2.5
  9
$DIMCEN
 40
2.5
  9
$DIMTSZ
 40
0.0
  9
$DIMTOL
 70
     0
  9
$DIMLIM
 70
     0
  9
$DIMTIH
 70
     0
  9
$DIMTOH
 70
     0
  9
$DIMSE1
 70
     0
  9
$DIMSE2
 70
     0
  9
$DIMTAD
 70
     1
  9
$DIMZIN
 70
     8
  9
$DIMBLK
  1

  9
$DIMASO
 70
     1
  9
$DIMSHO
 70
     1
  9
$DIMPOST
  1

  9
$DIMAPOST
  1

  9
$DIMALT
 70
     0
  9
$DIMALTD
 70
     3
  9
$DIMALTF
 40
0.03937
  9
$DIMLFAC
 40
1.0
  9
$DIMTOFL
 70
     1
  9
$DIMTVP
 40
0.0
  9
$DIMTIX
 70
     0
  9
$DIMSOXD
 70
     0
  9
$DIMSAH
 70
     0
  9
$DIMBLK1
  1

  9
$DIMBLK2
  1

  9
$DIMSTYLE
  2
STANDARD
  9
$DIMCLRD
 70
     0
  9
$DIMCLRE
 70
     0
  9
$DIMCLRT
 70
     0
  9
$DIMTFAC
 40
1.0
  9
$DIMGAP
 40
0.625
  9
$DIMJUST
 70
     0
  9
$DIMSD1
 70
     0
  9
$DIMSD2
 70
     0
  9
$DIMTOLJ
 70
     0
  9
$DIMTZIN
 70
     8
  9
$DIMALTZ
 70
     0
  9
$DIMALTTZ
 70
     0
  9
$DIMUPT
 70
     0
  9
$DIMDEC
 70
     2
  9
$DIMTDEC
 70
     2
  9
$DIMALTU
 70
     2
  9
$DIMALTTD
 70
     3
  9
$DIMTXSTY
  7
Standard
  9
$DIMAUNIT
 70
     0
  9
$DIMADEC
 70
     0
  9
$DIMALTRND
 40
0.0
  9
$DIMAZIN
 70
     0
  9
$DIMDSEP
 70
    44
  9
$DIMATFIT
 70
     0
  9
$DIMFRAC
 70
     0
  9
$DIMLDRBLK
  1

  9
$DIMLUNIT
 70
     2
  9
$DIMLWD
 70
    -2
  9
$DIMLWE
 70
    -2
  9
$DIMTMOVE
 70
     0
  9
$LUNITS
 70
     2
  9
$LUPREC
 70
     4
  9
$SKETCHINC
 40
1.0
  9
$FILLETRAD
 40
2.5
  9
$AUNITS
 70
     0
  9
$AUPREC
 70
     0
  9
$MENU
  1
.
  9
$ELEVATION
 40
0.0
  9
$PELEVATION
 40
0.0
  9
$THICKNESS
 40
0.0
  9
$LIMCHECK
 70
     0
  9
$CHAMFERA
 40
2.5
  9
$CHAMFERB
 40
2.5
  9
$CHAMFERC
 40
0.0
  9
$CHAMFERD
 40
0.0
  9
$SKPOLY
 70
     0
  9
$TDCREATE
 40
2447893.041666667
  9
$TDUCREATE
 40
0.0
  9
$TDUPDATE
 40
2460090.658040729
  9
$TDUUPDATE
 40
2460090.616374062
  9
$TDINDWG
 40
0.0
  9
$TDUSRTIMER
 40
0.0
  9
$USRTIMER
 70
     1
  9
$ANGBASE
 50
0.0
  9
$ANGDIR
 70
     0
  9
$PDMODE
 70
     0
  9
$PDSIZE
 40
0.0
  9
$PLINEWID
 40
0.0
  9
$SPLFRAME
 70
     0
  9
$SPLINETYPE
 70
     6
  9
$SPLINESEGS
 70
     8
  9
$HANDSEED
  5
108
  9
$SURFTAB1
 70
     6
  9
$SURFTAB2
 70
     6
  9
$SURFTYPE
 70
     6
  9
$SURFU
 70
     6
  9
$SURFV
 70
     6
  9
$UCSBASE
  2

  9
$UCSNAME
  2

  9
$UCSORG
 10
0.0
 20
0.0
 30
0.0
  9
$UCSXDIR
 10
1.0
 20
0.0
 30
0.0
  9
$UCSYDIR
 10
0.0
 20
1.0
 30
0.0
  9
$UCSORTHOREF
  2

  9
$UCSORTHOVIEW
 70
     1
  9
$UCSORGTOP
 10
0.0
 20
0.0
 30
0.0
  9
$UCSORGBOTTOM
 10
0.0
 20
0.0
 30
0.0
  9
$UCSORGLEFT
 10
0.0
 20
0.0
 30
0.0
  9
$UCSORGRIGHT
 10
0.0
 20
0.0
 30
0.0
  9
$UCSORGFRONT
 10
0.0
 20
0.0
 30
0.0
  9
$UCSORGBACK
 10
0.0
 20
0.0
 30
0.0
  9
$PUCSBASE
  2

  9
$PUCSNAME
  2

  9
$PUCSORG
 10
0.0
 20
0.0
 30
0.0
  9
$PUCSXDIR
 10
1.0
 20
0.0
 30
0.0
  9
$PUCSYDIR
 10
0.0
 20
1.0
 30
0.0
  9
$PUCSORTHOREF
  2

  9
$PUCSORTHOVIEW
 70
     0
  9
$PUCSORGTOP
 10
0.0
 20
0.0
 30
0.0
  9
$PUCSORGBOTTOM
 10
0.0
 20
0.0
 30
0.0
  9
$PUCSORGLEFT
 10
0.0
 20
0.0
 30
0.0
  9
$PUCSORGRIGHT
 10
0.0
 20
0.0
 30
0.0
  9
$PUCSORGFRONT
 10
0.0
 20
0.0
 30
0.0
  9
$PUCSORGBACK
 10
0.0
 20
0.0
 30
0.0
  9
$USERI1
 70
     0
  9
$USERI2
 70
     0
  9
$USERI3
 70
     0
  9
$USERI4
 70
     0
  9
$USERI5
 70
     0
  9
$USERR1
 40
0.0
  9
$USERR2
 40
0.0
  9
$USERR3
 40
0.0
  9
$USERR4
 40
0.0
  9
$USERR5
 40
0.0
  9
$WORLDVIEW
 70
     1
  9
$SHADEDGE
 70
     3
  9
$SHADEDIF
 70
    70
  9
$TILEMODE
 70
     1
  9
$MAXACTVP
 70
    64
  9
$PINSBASE
 10
0.0
 20
0.0
 30
0.0
  9
$PLIMCHECK
 70
     0
  9
$PEXTMIN
 10
0.0
 20
0.0
 30
0.0
  9
$PEXTMAX
 10
478.1875
 20
901.001831
 30
2.0
  9
$PLIMMIN
 10
0.0
 20
0.0
  9
$PLIMMAX
 10
420.0
 20
297.0
  9
$UNITMODE
 70
     0
  9
$VISRETAIN
 70
     0
  9
$PLINEGEN
 70
     0
  9
$PSLTSCALE
 70
     1
  9
$TREEDEPTH
 70
  3020
  9
$CMLSTYLE
  2
Standard
  9
$CMLJUST
 70
     0
  9
$CMLSCALE
 40
20.0
  9
$PROXYGRAPHICS
 70
     1
  9
$MEASUREMENT
 70
     1
  9
$CELWEIGHT
370
    -1
  9
$ENDCAPS
280
     0
  9
$JOINSTYLE
280
     0
  9
$LWDISPLAY
290
     0
  9
$INSUNITS
 70
     0
  9
$HYPERLINKBASE
  1

  9
$STYLESHEET
  1

  9
$XEDIT
290
     1
  9
$CEPSNTYPE
380
     0
  9
$PSTYLEMODE
290
     0
  9
$FINGERPRINTGUID
  2
{48e93d69-868a-484e-bd11-0d1d9b53018e}
  9
$VERSIONGUID
  2
{FAEB1C32-E019-11D5-929B-00C0DF256EC4}
  9
$EXTNAMES
290
     1
  9
$PSVPSCALE
 40
0.0
  9
$OLESTARTUP
290
     0
  0
ENDSEC
  0
SECTION
  2
CLASSES
  0
CLASS
  1
ACDBDICTIONARYWDFLT
  2
AcDbDictionaryWithDefault
  3
ObjectDBX Classes
 90
        0
280
     0
281
     0
  0
CLASS
  1
VISUALSTYLE
  2
AcDbVisualStyle
  3
ObjectDBX Classes
 90
     4095
280
     0
281
     0
  0
CLASS
  1
MATERIAL
  2
AcDbMaterial
  3
ObjectDBX Classes
 90
     1153
280
     0
281
     0
  0
CLASS
  1
SCALE
  2
AcDbScale
  3
ObjectDBX Classes
 90
     1153
280
     0
281
     0
  0
CLASS
  1
TABLESTYLE
  2
AcDbTableStyle
  3
ObjectDBX Classes
 90
     4095
280
     0
281
     0
  0
CLASS
  1
MLEADERSTYLE
  2
AcDbMLeaderStyle
  3
ACDB_MLEADERSTYLE_CLASS
 90
     4095
280
     0
281
     0
  0
CLASS
  1
SUN
  2
AcDbSun
  3
SCENEOE
 90
     1153
280
     0
281
     0
  0
CLASS
  1
ACDBPLACEHOLDER
  2
AcDbPlaceHolder
  3
ObjectDBX Classes
 90
        0
280
     0
281
     0
  0
CLASS
  1
LAYOUT
  2
AcDbLayout
  3
ObjectDBX Classes
 90
        0
280
     0
281
     0
  0
ENDSEC
  0
SECTION
  2
TABLES
  0
TABLE
  2
VPORT
  5
8
330
0
100
AcDbSymbolTable
 70
     1
  0
VPORT
  5
29
330
8
100
AcDbSymbolTableRecord
100
AcDbViewportTableRecord
  2
*Active
 70
     0
 10
0.0
 20
0.0
 11
1.0
 21
1.0
 12
10.429907
 22
4.5
 13
0.0
 23
0.0
 14
0.5
 24
0.5
 15
0.5
 25
0.5
 16
0.0
 26
0.0
 36
1.0
 17
0.0
 27
0.0
 37
0.0
 40
9.0
 41
1.972973
 42
50.0
 43
0.0
 44
0.0
 50
0.0
 51
0.0
 71
     0
 72
   100
 73
     1
 74
     3
 75
     0
 76
     0
 77
     0
 78
     0
281
     0
 65
     1
110
0.0
120
0.0
130
0.0
111
1.0
121
0.0
131
0.0
112
0.0
122
1.0
132
0.0
 79
     0
146
0.0
  0
ENDTAB
  0
TABLE
  2
LTYPE
  5
5
330
0
100
AcDbSymbolTable
 70
     1
  0
LTYPE
  5
14
330
5
100
AcDbSymbolTableRecord
100
AcDbLinetypeTableRecord
  2
ByBlock
 70
     0
  3

 72
    65
 73
     0
 40
0.0
  0
LTYPE
  5
15
330
5
100
AcDbSymbolTableRecord
100
AcDbLinetypeTableRecord
  2
ByLayer
 70
     0
  3

 72
    65
 73
     0
 40
0.0
  0
LTYPE
  5
16
330
5
100
AcDbSymbolTableRecord
100
AcDbLinetypeTableRecord
  2
Continuous
 70
     0
  3
Solid line
 72
    65
 73
     0
 40
0.0
  0
ENDTAB
  0
TABLE
  2
LAYER
  5
2
330
0
100
AcDbSymbolTable
 70
     5
  0
LAYER
  5
10
330
2
100
AcDbSymbolTableRecord
100
AcDbLayerTableRecord
  2
0
 70
     0
 62
     7
  6
Continuous
370
    13
390
F
  0
LAYER
  5
6F
330
2
100
AcDbSymbolTableRecord
100
AcDbLayerTableRecord
  2
TEXT
 70
     0
 62
     7
  6
Continuous
370
    13
390
F
  0
LAYER
  5
70
330
2
100
AcDbSymbolTableRecord
100
AcDbLayerTableRecord
  2
STRATEGYPOINT
 70
     0
 62
     7
  6
Continuous
370
    13
390
F
  0
LAYER
  5
71
330
2
100
AcDbSymbolTableRecord
100
AcDbLayerTableRecord
  2
ROSETTE
 70
     0
 62
     7
  6
Continuous
370
    13
390
F
  0
LAYER
  5
72
330
2
100
AcDbSymbolTableRecord
100
AcDbLayerTableRecord
  2
OUTER
 70
     0
 62
     7
  6
Continuous
370
    13
390
F
  0
LAYER
  5
C9
330
2
100
AcDbSymbolTableRecord
100
AcDbLayerTableRecord
  2
MARKERS
 70
     0
 62
     7
  6
Continuous
370
    13
390
F
  0
ENDTAB
  0
TABLE
  2
STYLE
  5
3
330
0
100
AcDbSymbolTable
 70
     2
  0
STYLE
  5
11
330
3
100
AcDbSymbolTableRecord
100
AcDbTextStyleTableRecord
  2
Standard
 70
     0
 40
0.0
 41
1.0
 50
0.0
 71
     0
 42
2.5
  3
isocp.shx
  4

  0
STYLE
  5
6E
330
3
100
AcDbSymbolTableRecord
100
AcDbTextStyleTableRecord
  2
GDT
 70
     0
 40
0.0
 41
1.0
 50
0.0
 71
     0
 42
0.2
  3
gdt.shx
  4

  0
ENDTAB
  0
TABLE
  2
VIEW
  5
6
330
0
100
AcDbSymbolTable
 70
     0
  0
ENDTAB
  0
TABLE
  2
UCS
  5
7
330
0
100
AcDbSymbolTable
 70
     0
  0
ENDTAB
  0
TABLE
  2
APPID
  5
9
330
0
100
AcDbSymbolTable
 70
     1
  0
APPID
  5
12
330
9
100
AcDbSymbolTableRecord
100
AcDbRegAppTableRecord
  2
ACAD
 70
     0
  0
ENDTAB
  0
TABLE
  2
DIMSTYLE
  5
A
330
0
100
AcDbSymbolTable
 70
     1
100
AcDbDimStyleTable
  0
DIMSTYLE
105
27
330
A
100
AcDbSymbolTableRecord
100
AcDbDimStyleTableRecord
  2
STANDARD
 70
     0
 41
2.5
 42
0.625
 43
3.75
 44
1.25
 73
     0
 74
     0
 77
     1
 78
     8
140
2.5
141
2.5
143
0.03937
147
0.625
171
     3
172
     1
178
     0
271
     2
272
     2
274
     3
278
    44
283
     0
284
     8
289
     0
340
0
  0
ENDTAB
  0
TABLE
  2
BLOCK_RECORD
  5
1
330
0
100
AcDbSymbolTable
 70
     2
  0
BLOCK_RECORD
  5
1F
330
1
100
AcDbSymbolTableRecord
100
AcDbBlockTableRecord
  2
*Model_Space
340
22
  0
BLOCK_RECORD
  5
1B
330
1
100
AcDbSymbolTableRecord
100
AcDbBlockTableRecord
  2
*Paper_Space
340
1E
  0
BLOCK_RECORD
  5
23
330
1
100
AcDbSymbolTableRecord
100
AcDbBlockTableRecord
  2
*Paper_Space0
340
26
  0
BLOCK_RECORD
  5
4
330
1
100
AcDbSymbolTableRecord
100
AcDbBlockTableRecord
  2
V236_WW_LRU13_260 RT_TEXT_1
340
0
102
{BLKREFS
331
2A
102
}
  0
BLOCK_RECORD
  5
35
330
1
100
AcDbSymbolTableRecord
100
AcDbBlockTableRecord
  2
29276884_INF_GF_HM_BI45_1000_54_CHORDWISE_V1_V236_WW_LRU13_260_R0_I38_DXF
340
0
102
{BLKREFS
331
39
102
}
  0
BLOCK_RECORD
  5
3A
330
1
100
AcDbSymbolTableRecord
100
AcDbBlockTableRecord
  2
V236_WW_LRU13_261 RT_TEXT_2
340
0
102
{BLKREFS
331
3E
102
}
  0
BLOCK_RECORD
  5
46
330
1
100
AcDbSymbolTableRecord
100
AcDbBlockTableRecord
  2
29276884_INF_GF_HM_BI45_1000_54_CHORDWISE_V1_V236_WW_LRU13_261_R0_I38_DXF
340
0
102
{BLKREFS
331
6C
102
}
  0
BLOCK_RECORD
  5
6D
330
1
100
AcDbSymbolTableRecord
100
AcDbBlockTableRecord
  2
V236_WW_LRU13_262 RT_TEXT_3
340
0
102
{BLKREFS
331
76
102
}
  0
BLOCK_RECORD
  5
7E
330
1
100
AcDbSymbolTableRecord
100
AcDbBlockTableRecord
  2
29276884_INF_GF_HM_BI45_1000_54_CHORDWISE_V1_V236_WW_LRU13_262_R0_I38_DXF
340
0
102
{BLKREFS
331
84
102
}
  0
BLOCK_RECORD
  5
85
330
1
100
AcDbSymbolTableRecord
100
AcDbBlockTableRecord
  2
V236_WW_LRU13_263 RT_TEXT_4
340
0
102
{BLKREFS
331
89
102
}
  0
BLOCK_RECORD
  5
91
330
1
100
AcDbSymbolTableRecord
100
AcDbBlockTableRecord
  2
29276884_INF_GF_HM_BI45_1000_54_CHORDWISE_V1_V236_WW_LRU13_263_R0_I38_DXF
340
0
102
{BLKREFS
331
95
102
}
  0
BLOCK_RECORD
  5
96
330
1
100
AcDbSymbolTableRecord
100
AcDbBlockTableRecord
  2
V236_WW_LRU13_264 RT_TEXT_5
340
0
102
{BLKREFS
331
9A
102
}
  0
BLOCK_RECORD
  5
A2
330
1
100
AcDbSymbolTableRecord
100
AcDbBlockTableRecord
  2
29276884_INF_GF_HM_BI45_1000_54_CHORDWISE_V1_V236_WW_LRU13_264_R0_I38_DXF
340
0
102
{BLKREFS
331
A6
102
}
  0
BLOCK_RECORD
  5
A7
330
1
100
AcDbSymbolTableRecord
100
AcDbBlockTableRecord
  2
V236_WW_LRU13_265 RT_TEXT_6
340
0
102
{BLKREFS
331
AB
102
}
  0
BLOCK_RECORD
  5
B3
330
1
100
AcDbSymbolTableRecord
100
AcDbBlockTableRecord
  2
29276884_INF_GF_HM_BI45_1000_54_CHORDWISE_V1_V236_WW_LRU13_265_R0_I38_DXF
340
0
102
{BLKREFS
331
B7
102
}
  0
BLOCK_RECORD
  5
B8
330
1
100
AcDbSymbolTableRecord
100
AcDbBlockTableRecord
  2
V236_WW_LRU13_266 RT_TEXT_7
340
0
102
{BLKREFS
331
BC
102
}
  0
BLOCK_RECORD
  5
C4
330
1
100
AcDbSymbolTableRecord
100
AcDbBlockTableRecord
  2
29276884_INF_GF_HM_BI45_1000_54_CHORDWISE_V1_V236_WW_LRU13_266_R0_I38_DXF
340
0
102
{BLKREFS
331
C8
102
}
  0
BLOCK_RECORD
  5
CA
330
1
100
AcDbSymbolTableRecord
100
AcDbBlockTableRecord
  2
V236_WW_LRU13_267 RT_TEXT_8
340
0
102
{BLKREFS
331
CE
102
}
  0
BLOCK_RECORD
  5
102
330
1
100
AcDbSymbolTableRecord
100
AcDbBlockTableRecord
  2
29276884_INF_GF_HM_BI45_1000_54_CHORDWISE_V1-V236_WW_LRU13_267_R1_I7_DXF
340
0
102
{BLKREFS
331
107
102
}
  0
ENDTAB
  0
ENDSEC
  0
SECTION
  2
BLOCKS
  0
BLOCK
  5
20
330
1F
100
AcDbEntity
  8
0
100
AcDbBlockBegin
  2
*Model_Space
 70
     0
 10
0.0
 20
0.0
 30
0.0
  3
*Model_Space
  1

  0
ENDBLK
  5
21
330
1F
100
AcDbEntity
  8
0
100
AcDbBlockEnd
  0
BLOCK
  5
1C
330
1B
100
AcDbEntity
 67
     1
  8
0
100
AcDbBlockBegin
  2
*Paper_Space
 70
     0
 10
0.0
 20
0.0
 30
0.0
  3
*Paper_Space
  1

  0
ENDBLK
  5
1D
330
1B
100
AcDbEntity
 67
     1
  8
0
100
AcDbBlockEnd
  0
BLOCK
  5
24
330
23
100
AcDbEntity
  8
0
100
AcDbBlockBegin
  2
*Paper_Space0
 70
     0
 10
0.0
 20
0.0
 30
0.0
  3
*Paper_Space0
  1

  0
ENDBLK
  5
25
330
23
100
AcDbEntity
  8
0
100
AcDbBlockEnd
  0
BLOCK
  5
13
330
4
100
AcDbEntity
  8
0
100
AcDbBlockBegin
  2
V236_WW_LRU13_260 RT_TEXT_1
 70
     0
 10
0.0
 20
0.0
 30
0.0
  3
V236_WW_LRU13_260 RT_TEXT_1
  1

  0
TEXT
  5
B
330
4
100
AcDbEntity
  8
TEXT
 62
    14
370
    13
100
AcDbText
 10
-42.273438
 20
859.373596
 30
0.0
 40
30.0
  1
V236_WW_LRU13_260 RT
 41
0.931771
 72
     5
 11
478.1875
 21
859.373596
 31
0.0
100
AcDbText
  0
ENDBLK
  5
28
330
4
100
AcDbEntity
  8
0
100
AcDbBlockEnd
  0
BLOCK
  5
37
330
35
100
AcDbEntity
  8
0
100
AcDbBlockBegin
  2
29276884_INF_GF_HM_BI45_1000_54_CHORDWISE_V1_V236_WW_LRU13_260_R0_I38_DXF
 70
     0
 10
0.0
 20
0.0
 30
0.0
  3
29276884_INF_GF_HM_BI45_1000_54_CHORDWISE_V1_V236_WW_LRU13_260_R0_I38_DXF
  1

  0
INSERT
  5
2A
330
1F
100
AcDbEntity
  8
TEXT
 62
     7
370
     0
100
AcDbBlockReference
  2
V236_WW_LRU13_260 RT_TEXT_1
 10
39796.771484
 20
24969.953125
 30
0.0
  0
POINT
  5
2B
330
1F
100
AcDbEntity
  8
STRATEGYPOINT
 62
     7
370
     5
100
AcDbPoint
 10
39796.771484
 20
24969.953125
 30
0.0
  0
LINE
  5
2C
330
1F
100
AcDbEntity
  8
ROSETTE
 62
   150
370
    35
100
AcDbLine
 10
39806.771484
 20
24969.953125
 30
0.0
 11
39796.771484
 21
24969.953125
 31
0.0
  0
LINE
  5
2D
330
1F
100
AcDbEntity
  8
ROSETTE
 62
   150
370
    35
100
AcDbLine
 10
39796.771484
 20
24969.953125
 30
0.0
 11
39796.771484
 21
24974.953125
 31
0.0
  0
POLYLINE
  5
2E
330
1F
100
AcDbEntity
  8
OUTER
 62
     3
370
    35
100
AcDb2dPolyline
 66
     1
 10
950
 20
0
 30
0.0
  0
VERTEX
  5
2F
330
2E
100
AcDbEntity
  8
0
370
     0
100
AcDbVertex
100
AcDb2dVertex
 10
40987.40456
 20
24622.784253
 30
0.0
 42
0.000227
  0
VERTEX
  5
30
330
2E
100
AcDbEntity
  8
0
370
     0
100
AcDbVertex
100
AcDb2dVertex
 10
38947.094855
 20
24623.966139
 30
0.0
  0
SEQEND
  5
31
330
2E
100
AcDbEntity
  8
OUTER
 62
     3
370
    35
  0
SPLINE
  5
32
330
1F
100
AcDbEntity
  8
OUTER
 62
     3
370
    35
100
AcDbSpline
210
0.0
220
0.0
230
1.0
 70
     8
 71
     5
 72
    13
 73
     7
 74
     0
 42
0.0
 43
0.0
 40
0.0
 40
0.0
 40
0.0
 40
0.0
 40
0.0
 40
0.0
 40
639.9860975563696
 40
1272.232090758032
 40
1272.232090758032
 40
1272.232090758032
 40
1272.232090758032
 40
1272.232090758032
 40
1272.232090758032
 10
40987.4045593084
 20
24622.7835705723
 30
0.0
 10
40994.2688377513
 20
24750.596597624
 30
0.0
 10
41007.8400711463
 20
25004.6808293183
 30
0.0
 10
41021.3134345445
 20
25258.7702901358
 30
0.0
 10
41034.9146361916
 20
25512.8529661202
 30
0.0
 10
41048.3783966752
 20
25766.9429124978
 30
0.0
 10
41055.0183728036
 20
25893.2176548408
 30
0.0
  0
SPLINE
  5
33
330
1F
100
AcDbEntity
  8
OUTER
 62
     3
370
    35
100
AcDbSpline
210
0.0
220
0.0
230
1.0
 70
     8
 71
     5
 72
    12
 73
     6
 74
     0
 42
0.0
 43
0.0
 40
0.0
 40
0.0
 40
0.0
 40
0.0
 40
0.0
 40
0.0
 40
2110.036608362
 40
2110.036608362
 40
2110.036608362
 40
2110.036608362
 40
2110.036608362
 40
2110.036608362
 10
41055.0183728036
 20
25893.2176548407
 30
0.0
 10
40633.0134208207
 20
25891.8034249638
 30
0.0
 10
40211.007215304
 20
25890.8456355479
 30
0.0
 10
39788.9998422547
 20
25890.3281560183
 30
0.0
 10
39366.992456286
 20
25890.0344428073
 30
0.0
 10
38944.9851433916
 20
25889.9483681472
 30
0.0
  0
SPLINE
  5
34
330
1F
100
AcDbEntity
  8
OUTER
 62
     3
370
    35
100
AcDbSpline
210
0.0
220
0.0
230
1.0
 70
     8
 71
     5
 72
    12
 73
     6
 74
     0
 42
0.0
 43
0.0
 40
0.0
 40
0.0
 40
0.0
 40
0.0
 40
0.0
 40
0.0
 40
1265.983504914064
 40
1265.983504914064
 40
1265.983504914064
 40
1265.983504914064
 40
1265.983504914064
 40
1265.983504914064
 10
38944.9851433916
 20
25889.9483681472
 30
0.0
 10
38945.5846632368
 20
25636.7523769378
 30
0.0
 10
38946.0870396831
 20
25383.5562036255
 30
0.0
 10
38946.4923102652
 20
25130.3598483166
 30
0.0
 10
38946.8282360949
 20
24877.1633903052
 30
0.0
 10
38947.0948547881
 20
24623.9668296986
 30
0.0
  0
ENDBLK
  5
38
330
35
100
AcDbEntity
  8
0
100
AcDbBlockEnd
  0
BLOCK
  5
3C
330
3A
100
AcDbEntity
  8
0
100
AcDbBlockBegin
  2
V236_WW_LRU13_261 RT_TEXT_2
 70
     0
 10
0.0
 20
0.0
 30
0.0
  3
V236_WW_LRU13_261 RT_TEXT_2
  1

  0
TEXT
  5
3B
330
3A
100
AcDbEntity
  8
TEXT
 62
    14
370
    13
100
AcDbText
 10
-45.351562
 20
790.238831
 30
0.0
 40
30.0
  1
V236_WW_LRU13_261 RT
 41
0.931771
 72
     5
 11
475.109375
 21
790.238831
 31
0.0
100
AcDbText
  0
ENDBLK
  5
3D
330
3A
100
AcDbEntity
  8
0
100
AcDbBlockEnd
  0
BLOCK
  5
6A
330
46
100
AcDbEntity
  8
0
100
AcDbBlockBegin
  2
29276884_INF_GF_HM_BI45_1000_54_CHORDWISE_V1_V236_WW_LRU13_261_R0_I38_DXF
 70
     0
 10
0.0
 20
0.0
 30
0.0
  3
29276884_INF_GF_HM_BI45_1000_54_CHORDWISE_V1_V236_WW_LRU13_261_R0_I38_DXF
  1

  0
INSERT
  5
3E
330
1F
100
AcDbEntity
  8
TEXT
 62
     7
370
     0
100
AcDbBlockReference
  2
V236_WW_LRU13_261 RT_TEXT_2
 10
39796.771484
 20
24969.953125
 30
0.0
  0
POINT
  5
3F
330
1F
100
AcDbEntity
  8
STRATEGYPOINT
 62
     7
370
     5
100
AcDbPoint
 10
39796.771484
 20
24969.953125
 30
0.0
  0
LINE
  5
40
330
1F
100
AcDbEntity
  8
ROSETTE
 62
   150
370
    35
100
AcDbLine
 10
39806.771484
 20
24969.953125
 30
0.0
 11
39796.771484
 21
24969.953125
 31
0.0
  0
LINE
  5
41
330
1F
100
AcDbEntity
  8
ROSETTE
 62
   150
370
    35
100
AcDbLine
 10
39796.771484
 20
24969.953125
 30
0.0
 11
39796.771484
 21
24974.953125
 31
0.0
  0
SPLINE
  5
42
330
1F
100
AcDbEntity
  8
OUTER
 62
     3
370
    35
100
AcDbSpline
210
0.0
220
0.0
230
1.0
 70
     8
 71
     5
 72
    15
 73
     9
 74
     0
 42
0.0
 43
0.0
 40
0.0
 40
0.0
 40
0.0
 40
0.0
 40
0.0
 40
0.0
 40
584.6772929487505
 40
990.7984681192708
 40
1617.62219431193
 40
1966.552859069744
 40
1966.552859069744
 40
1966.552859069744
 40
1966.552859069744
 40
1966.552859069744
 40
1966.552859069744
 10
38997.0889512974
 20
24553.9370148184
 30
0.0
 10
39114.0243860157
 20
24554.0117337401
 30
0.0
 10
39312.1840844406
 20
24553.9860704543
 30
0.0
 10
39635.7085213843
 20
24553.7657676716
 30
0.0
 10
40029.019098728
 20
24553.6214376484
 30
0.0
 10
40422.3291272929
 20
24553.052633617
 30
0.0
 10
40698.7049051456
 20
24553.1406765346
 30
0.0
 10
40893.8553065034
 20
24552.7466334173
 30
0.0
 10
40963.6411083842
 20
24552.5316725271
 30
0.0
  0
SPLINE
  5
43
330
1F
100
AcDbEntity
  8
OUTER
 62
     3
370
    35
100
AcDbSpline
210
0.0
220
0.0
230
1.0
 70
     8
 71
     5
 72
    15
 73
     9
 74
     0
 42
0.0
 43
0.0
 40
0.0
 40
0.0
 40
0.0
 40
0.0
 40
0.0
 40
0.0
 40
310.3565878907883
 40
645.2802103917136
 40
957.3884646332333
 40
1272.073271552694
 40
1272.073271552694
 40
1272.073271552694
 40
1272.073271552694
 40
1272.073271552694
 40
1272.073271552694
 10
40963.6411083842
 20
24552.5316725271
 30
0.0
 10
40966.9859326605
 20
24614.5128036595
 30
0.0
 10
40973.883127733
 20
24743.3843950526
 30
0.0
 10
40983.9567099339
 20
24934.5969589755
 30
0.0
 10
40997.4166962075
 20
25188.6552830548
 30
0.0
 10
41011.0060192209
 20
25442.7067565951
 30
0.0
 10
41021.4129749394
 20
25634.7685400219
 30
0.0
 10
41027.9850750692
 20
25759.9546914751
 30
0.0
 10
41031.2149629149
 20
25822.8087202461
 30
0.0
  0
SPLINE
  5
44
330
1F
100
AcDbEntity
  8
OUTER
 62
     3
370
    35
100
AcDbSpline
210
0.0
220
0.0
230
1.0
 70
     8
 71
     5
 72
    14
 73
     8
 74
     0
 42
0.0
 43
0.0
 40
0.0
 40
0.0
 40
0.0
 40
0.0
 40
0.0
 40
0.0
 40
935.8274038957214
 40
1489.674378618512
 40
2036.076988291314
 40
2036.076988291314
 40
2036.076988291314
 40
2036.076988291314
 40
2036.076988291314
 40
2036.076988291314
 10
41031.2149629149
 20
25822.8087202461
 30
0.0
 10
40844.049601768
 20
25822.5971031125
 30
0.0
 10
40546.116656136
 20
25821.4979825111
 30
0.0
 10
40138.901334896
 20
25820.9965875666
 30
0.0
 10
39731.6866646573
 20
25820.2045366293
 30
0.0
 10
39324.4711844422
 20
25820.0530836349
 30
0.0
 10
39104.4212397172
 20
25820.0647208222
 30
0.0
 10
38995.1407938864
 20
25819.9357505212
 30
0.0
  0
SPLINE
  5
45
330
1F
100
AcDbEntity
  8
OUTER
 62
     3
370
    35
100
AcDbSpline
210
0.0
220
0.0
230
1.0
 70
     8
 71
     5
 72
    12
 73
     6
 74
     0
 42
0.0
 43
0.0
 40
0.0
 40
0.0
 40
0.0
 40
0.0
 40
0.0
 40
0.0
 40
1266.000481707537
 40
1266.000481707537
 40
1266.000481707537
 40
1266.000481707537
 40
1266.000481707537
 40
1266.000481707537
 10
38995.1407938864
 20
25819.9357505212
 30
0.0
 10
38995.7551192805
 20
25566.7363994328
 30
0.0
 10
38996.3683330398
 20
25313.5367975326
 30
0.0
 10
38996.4112287064
 20
25060.3370539168
 30
0.0
 10
38997.2358816313
 20
24807.1370685284
 30
0.0
 10
38997.0889512974
 20
24553.9370148184
 30
0.0
  0
ENDBLK
  5
6B
330
46
100
AcDbEntity
  8
0
100
AcDbBlockEnd
  0
BLOCK
  5
74
330
6D
100
AcDbEntity
  8
0
100
AcDbBlockBegin
  2
V236_WW_LRU13_262 RT_TEXT_3
 70
     0
 10
0.0
 20
0.0
 30
0.0
  3
V236_WW_LRU13_262 RT_TEXT_3
  1

  0
TEXT
  5
73
330
6D
100
AcDbEntity
  8
TEXT
 62
    14
370
    13
100
AcDbText
 10
-41.570312
 20
720.266174
 30
0.0
 40
30.0
  1
V236_WW_LRU13_262 RT
 41
0.931771
 72
     5
 11
478.890625
 21
720.266174
 31
0.0
100
AcDbText
  0
ENDBLK
  5
75
330
6D
100
AcDbEntity
  8
0
100
AcDbBlockEnd
  0
BLOCK
  5
80
330
7E
100
AcDbEntity
  8
0
100
AcDbBlockBegin
  2
29276884_INF_GF_HM_BI45_1000_54_CHORDWISE_V1_V236_WW_LRU13_262_R0_I38_DXF
 70
     0
 10
0.0
 20
0.0
 30
0.0
  3
29276884_INF_GF_HM_BI45_1000_54_CHORDWISE_V1_V236_WW_LRU13_262_R0_I38_DXF
  1

  0
INSERT
  5
76
330
1F
100
AcDbEntity
  8
TEXT
 62
     7
370
     0
100
AcDbBlockReference
  2
V236_WW_LRU13_262 RT_TEXT_3
 10
39796.771484
 20
24969.953125
 30
0.0
  0
POINT
  5
77
330
1F
100
AcDbEntity
  8
STRATEGYPOINT
 62
     7
370
     5
100
AcDbPoint
 10
39796.771484
 20
24969.953125
 30
0.0
  0
LINE
  5
78
330
1F
100
AcDbEntity
  8
ROSETTE
 62
   150
370
    35
100
AcDbLine
 10
39806.771484
 20
24969.953125
 30
0.0
 11
39796.771484
 21
24969.953125
 31
0.0
  0
LINE
  5
79
330
1F
100
AcDbEntity
  8
ROSETTE
 62
   150
370
    35
100
AcDbLine
 10
39796.771484
 20
24969.953125
 30
0.0
 11
39796.771484
 21
24974.953125
 31
0.0
  0
SPLINE
  5
7A
330
1F
100
AcDbEntity
  8
OUTER
 62
     3
370
    35
100
AcDbSpline
210
0.0
220
0.0
230
1.0
 70
     8
 71
     5
 72
    17
 73
    11
 74
     0
 42
0.0
 43
0.0
 40
0.0
 40
0.0
 40
0.0
 40
0.0
 40
0.0
 40
0.0
 40
240.6271560106118
 40
714.4813916695803
 40
1277.165169759521
 40
1277.165169759521
 40
1722.623139845026
 40
1892.765504975415
 40
1892.765504975415
 40
1892.765504975415
 40
1892.765504975415
 40
1892.765504975415
 40
1892.765504975415
 10
39047.1224452142
 20
24483.9284129778
 30
0.0
 10
39095.2478615418
 20
24483.9662506704
 30
0.0
 10
39238.1441109293
 20
24484.0297750864
 30
0.0
 10
39493.5771682051
 20
24483.8826110717
 30
0.0
 10
39749.0101796151
 20
24483.6779922682
 30
0.0
 10
40093.5345472346
 20
24483.3593821422
 30
0.0
 10
40423.9621359744
 20
24483.0623097007
 30
0.0
 10
40659.6191606708
 20
24482.9245670635
 30
0.0
 10
40782.7392254412
 20
24482.8003661645
 30
0.0
 10
40905.8587295459
 20
24482.4437327583
 30
0.0
 10
40939.8870052616
 20
24482.3278521854
 30
0.0
  0
SPLINE
  5
7B
330
1F
100
AcDbEntity
  8
OUTER
 62
     3
370
    35
100
AcDbSpline
210
0.0
220
0.0
230
1.0
 70
     8
 71
     5
 72
    12
 73
     6
 74
     0
 42
0.0
 43
0.0
 40
0.0
 40
0.0
 40
0.0
 40
0.0
 40
0.0
 40
0.0
 40
1272.17396886664
 40
1272.17396886664
 40
1272.17396886664
 40
1272.17396886664
 40
1272.17396886664
 40
1272.17396886664
 10
40939.8870052616
 20
24482.3278521854
 30
0.0
 10
40953.6350338903
 20
24736.3909466946
 30
0.0
 10
40966.9389818132
 20
24990.4778148872
 30
0.0
 10
40980.4049504113
 20
25244.5560247229
 30
0.0
 10
40993.9863525569
 20
25498.6280775252
 30
0.0
 10
41007.4621908864
 20
25752.7057547497
 30
0.0
  0
SPLINE
  5
7C
330
1F
100
AcDbEntity
  8
OUTER
 62
     3
370
    35
100
AcDbSpline
210
0.0
220
0.0
230
1.0
 70
     8
 71
     5
 72
    15
 73
     9
 74
     0
 42
0.0
 43
0.0
 40
0.0
 40
0.0
 40
0.0
 40
0.0
 40
0.0
 40
0.0
 40
393.2666803914407
 40
1251.276310418926
 40
1480.312401911318
 40
1962.184291439405
 40
1962.184291439405
 40
1962.184291439405
 40
1962.184291439405
 40
1962.184291439405
 40
1962.184291439405
 10
41007.4621908864
 20
25752.7057547497
 30
0.0
 10
40928.8094973309
 20
25752.3878354095
 30
0.0
 10
40678.5556178915
 20
25751.5846670347
 30
0.0
 10
40382.4926707804
 20
25751.3283474564
 30
0.0
 10
39990.0566632053
 20
25750.5331458791
 30
0.0
 10
39597.6198826021
 20
25750.2145586198
 30
0.0
 10
39283.8363038087
 20
25750.1968390054
 30
0.0
 10
39141.6547712759
 20
25750.0833501304
 30
0.0
 10
39045.280507405
 20
25749.9350935192
 30
0.0
  0
SPLINE
  5
7D
330
1F
100
AcDbEntity
  8
OUTER
 62
     3
370
    35
100
AcDbSpline
210
0.0
220
0.0
230
1.0
 70
     8
 71
     5
 72
    15
 73
     9
 74
     0
 42
0.0
 43
0.0
 40
0.0
 40
0.0
 40
0.0
 40
0.0
 40
0.0
 40
0.0
 40
627.5897524312097
 40
779.9833348759671
 40
897.2091599367715
 40
1266.008551195703
 40
1266.008551195703
 40
1266.008551195703
 40
1266.008551195703
 40
1266.008551195703
 40
1266.008551195703
 10
39045.280507405
 20
25749.9350935192
 30
0.0
 10
39045.6369194997
 20
25624.4176490556
 30
0.0
 10
39045.9407743982
 20
25468.4212240801
 30
0.0
 10
39046.1968370148
 20
25288.9796291565
 30
0.0
 10
39046.7033721876
 20
25035.7782407746
 30
0.0
 10
39046.8726732584
 20
24782.5768458261
 30
0.0
 10
39047.1619711587
 20
24654.8930847112
 30
0.0
 10
39047.3156915996
 20
24557.6880380821
 30
0.0
 10
39047.1224452142
 20
24483.9284129778
 30
0.0
  0
ENDBLK
  5
81
330
7E
100
AcDbEntity
  8
0
100
AcDbBlockEnd
  0
BLOCK
  5
87
330
85
100
AcDbEntity
  8
0
100
AcDbBlockBegin
  2
V236_WW_LRU13_263 RT_TEXT_4
 70
     0
 10
0.0
 20
0.0
 30
0.0
  3
V236_WW_LRU13_263 RT_TEXT_4
  1

  0
TEXT
  5
86
330
85
100
AcDbEntity
  8
TEXT
 62
    14
370
    13
100
AcDbText
 10
-41.988281
 20
649.377502
 30
0.0
 40
30.0
  1
V236_WW_LRU13_263 RT
 41
0.931771
 72
     5
 11
478.472656
 21
649.377502
 31
0.0
100
AcDbText
  0
ENDBLK
  5
88
330
85
100
AcDbEntity
  8
0
100
AcDbBlockEnd
  0
BLOCK
  5
93
330
91
100
AcDbEntity
  8
0
100
AcDbBlockBegin
  2
29276884_INF_GF_HM_BI45_1000_54_CHORDWISE_V1_V236_WW_LRU13_263_R0_I38_DXF
 70
     0
 10
0.0
 20
0.0
 30
0.0
  3
29276884_INF_GF_HM_BI45_1000_54_CHORDWISE_V1_V236_WW_LRU13_263_R0_I38_DXF
  1

  0
INSERT
  5
89
330
1F
100
AcDbEntity
  8
TEXT
 62
     7
370
     0
100
AcDbBlockReference
  2
V236_WW_LRU13_263 RT_TEXT_4
 10
39796.771484
 20
24969.953125
 30
0.0
  0
POINT
  5
8A
330
1F
100
AcDbEntity
  8
STRATEGYPOINT
 62
     7
370
     5
100
AcDbPoint
 10
39796.771484
 20
24969.953125
 30
0.0
  0
LINE
  5
8B
330
1F
100
AcDbEntity
  8
ROSETTE
 62
   150
370
    35
100
AcDbLine
 10
39806.771484
 20
24969.953125
 30
0.0
 11
39796.771484
 21
24969.953125
 31
0.0
  0
LINE
  5
8C
330
1F
100
AcDbEntity
  8
ROSETTE
 62
   150
370
    35
100
AcDbLine
 10
39796.771484
 20
24969.953125
 30
0.0
 11
39796.771484
 21
24974.953125
 31
0.0
  0
SPLINE
  5
8D
330
1F
100
AcDbEntity
  8
OUTER
 62
     3
370
    35
100
AcDbSpline
210
0.0
220
0.0
230
1.0
 70
     8
 71
     5
 72
    13
 73
     7
 74
     0
 42
0.0
 43
0.0
 40
0.0
 40
0.0
 40
0.0
 40
0.0
 40
0.0
 40
0.0
 40
1180.946570349755
 40
1619.073982074634
 40
1619.073982074634
 40
1619.073982074634
 40
1619.073982074634
 40
1619.073982074634
 40
1619.073982074634
 10
39296.9004802983
 20
24413.8941935963
 30
0.0
 10
39533.0897599823
 20
24413.7667445653
 30
0.0
 10
39856.9044783393
 20
24413.5628300159
 30
0.0
 10
40180.7191957799
 20
24413.3065543333
 30
0.0
 10
40504.5333537307
 20
24412.6048456569
 30
0.0
 10
40828.3478942595
 20
24412.2219779194
 30
0.0
 10
40915.9733473324
 20
24412.1503542943
 30
0.0
  0
SPLINE
  5
8E
330
1F
100
AcDbEntity
  8
OUTER
 62
     3
370
    35
100
AcDbSpline
210
0.0
220
0.0
230
1.0
 70
     8
 71
     5
 72
    29
 73
    23
 74
     0
 42
0.0
 43
0.0
 40
0.0
 40
0.0
 40
0.0
 40
0.0
 40
0.0
 40
0.0
 40
275.8707612020398
 40
275.8707612020398
 40
275.8707612020398
 40
449.8583388122966
 40
449.8583388122966
 40
449.8583388122966
 40
558.5987761740439
 40
558.5987761740439
 40
645.5903998000972
 40
645.5903998000972
 40
689.0862703816946
 40
1015.301686500585
 40
1015.301686500585
 40
1015.301686500585
 40
1113.165004889594
 40
1113.165004889594
 40
1221.924290845288
 40
1272.068411639902
 40
1272.068411639902
 40
1272.068411639902
 40
1272.068411639902
 40
1272.068411639902
 40
1272.068411639902
 10
40915.9733473325
 20
24412.1503542943
 30
0.0
 10
40918.9026266485
 20
24467.2466917238
 30
0.0
 10
40921.8383990913
 20
24522.3426832805
 30
0.0
 10
40924.7789593534
 20
24577.4384197806
 30
0.0
 10
40929.6180183028
 20
24667.2798744966
 30
0.0
 10
40934.3628197264
 20
24757.126353247
 30
0.0
 10
40936.2122767477
 20
24791.8746804321
 30
0.0
 10
40939.2847781843
 20
24848.3367785401
 30
0.0
 10
40942.2804148017
 20
24904.8029753467
 30
0.0
 10
40944.3644173877
 20
24943.893872271
 30
0.0
 10
40946.4642623198
 20
24982.9839260563
 30
0.0
 10
40949.0002523535
 20
25030.7622557162
 30
0.0
 10
40953.8666467813
 20
25121.9731041886
 30
0.0
 10
40958.6782146189
 20
25213.1869218325
 30
0.0
 10
40962.6127203234
 20
25287.0242586682
 30
0.0
 10
40967.5301291087
 20
25380.4101642612
 30
0.0
 10
40972.0395974228
 20
25465.10542961
 30
0.0
 10
40974.2101447442
 20
25506.3731647873
 30
0.0
 10
40977.1172439909
 20
25557.6436529822
 30
0.0
 10
40979.8075406839
 20
25608.9237326427
 30
0.0
 10
40981.3180950094
 20
25640.668629504
 30
0.0
 10
40983.2740798958
 20
25672.3881152078
 30
0.0
 10
40983.9319993676
 20
25682.3953354002
 30
0.0
  0
SPLINE
  5
8F
330
1F
100
AcDbEntity
  8
OUTER
 62
     3
370
    35
100
AcDbSpline
210
0.0
220
0.0
230
1.0
 70
     8
 71
     5
 72
    14
 73
     8
 74
     0
 42
0.0
 43
0.0
 40
0.0
 40
0.0
 40
0.0
 40
0.0
 40
0.0
 40
0.0
 40
828.827419055192
 40
1046.00012255096
 40
1688.48991121095
 40
1688.48991121095
 40
1688.48991121095
 40
1688.48991121095
 40
1688.48991121095
 40
1688.48991121095
 10
40983.9319993675
 20
25682.3953354002
 30
0.0
 10
40818.16759205
 20
25681.7979329334
 30
0.0
 10
40608.9673342675
 20
25681.5768410118
 30
0.0
 10
40271.2701019216
 20
25680.9925843603
 30
0.0
 10
39933.572337333
 20
25680.4004794279
 30
0.0
 10
39595.874570601
 20
25680.3026212787
 30
0.0
 10
39423.9417915568
 20
25679.7543193023
 30
0.0
 10
39295.444124333
 20
25680.0275582405
 30
0.0
  0
SPLINE
  5
90
330
1F
100
AcDbEntity
  8
OUTER
 62
     3
370
    35
100
AcDbSpline
210
0.0
220
0.0
230
1.0
 70
     8
 71
     5
 72
    20
 73
    14
 74
     0
 42
0.0
 43
0.0
 40
0.0
 40
0.0
 40
0.0
 40
0.0
 40
0.0
 40
0.0
 40
69.41554298557313
 40
112.8502018650522
 40
156.2848556149235
 40
221.5740790918013
 40
699.2177186592075
 40
796.9453888612537
 40
948.9661956740769
 40
1100.987048557868
 40
1266.135449713149
 40
1266.135449713149
 40
1266.135449713149
 40
1266.135449713149
 40
1266.135449713149
 40
1266.135449713149
 10
39295.4441243331
 20
25680.0275582405
 30
0.0
 10
39295.423773235
 20
25666.1444645597
 30
0.0
 10
39295.4070058867
 20
25643.5744589046
 30
0.0
 10
39295.4219589781
 20
25612.3175609627
 30
0.0
 10
39295.4948558021
 20
25568.0028802375
 30
0.0
 10
39295.8688232003
 20
25428.1598558129
 30
0.0
 10
39296.2648006816
 20
25282.654367718
 30
0.0
 10
39296.4042670509
 20
25115.4315559673
 30
0.0
 10
39296.6999216359
 20
24926.4914067588
 30
0.0
 10
39296.8326945081
 20
24717.5792018324
 30
0.0
 10
39296.8050392265
 20
24604.1956172141
 30
0.0
 10
39296.7329314885
 20
24510.3575088853
 30
0.0
 10
39296.8156509129
 20
24446.9237648944
 30
0.0
 10
39296.9004802983
 20
24413.8941935963
 30
0.0
  0
ENDBLK
  5
94
330
91
100
AcDbEntity
  8
0
100
AcDbBlockEnd
  0
BLOCK
  5
98
330
96
100
AcDbEntity
  8
0
100
AcDbBlockBegin
  2
V236_WW_LRU13_264 RT_TEXT_5
 70
     0
 10
0.0
 20
0.0
 30
0.0
  3
V236_WW_LRU13_264 RT_TEXT_5
  1

  0
TEXT
  5
97
330
96
100
AcDbEntity
  8
TEXT
 62
    14
370
    13
100
AcDbText
 10
-41.992188
 20
579.625549
 30
0.0
 40
30.0
  1
V236_WW_LRU13_264 RT
 41
0.931771
 72
     5
 11
478.46875
 21
579.625549
 31
0.0
100
AcDbText
  0
ENDBLK
  5
99
330
96
100
AcDbEntity
  8
0
100
AcDbBlockEnd
  0
BLOCK
  5
A4
330
A2
100
AcDbEntity
  8
0
100
AcDbBlockBegin
  2
29276884_INF_GF_HM_BI45_1000_54_CHORDWISE_V1_V236_WW_LRU13_264_R0_I38_DXF
 70
     0
 10
0.0
 20
0.0
 30
0.0
  3
29276884_INF_GF_HM_BI45_1000_54_CHORDWISE_V1_V236_WW_LRU13_264_R0_I38_DXF
  1

  0
INSERT
  5
9A
330
1F
100
AcDbEntity
  8
TEXT
 62
     7
370
     0
100
AcDbBlockReference
  2
V236_WW_LRU13_264 RT_TEXT_5
 10
39796.771484
 20
24969.953125
 30
0.0
  0
POINT
  5
9B
330
1F
100
AcDbEntity
  8
STRATEGYPOINT
 62
     7
370
     5
100
AcDbPoint
 10
39796.771484
 20
24969.953125
 30
0.0
  0
LINE
  5
9C
330
1F
100
AcDbEntity
  8
ROSETTE
 62
   150
370
    35
100
AcDbLine
 10
39806.771484
 20
24969.953125
 30
0.0
 11
39796.771484
 21
24969.953125
 31
0.0
  0
LINE
  5
9D
330
1F
100
AcDbEntity
  8
ROSETTE
 62
   150
370
    35
100
AcDbLine
 10
39796.771484
 20
24969.953125
 30
0.0
 11
39796.771484
 21
24974.953125
 31
0.0
  0
SPLINE
  5
9E
330
1F
100
AcDbEntity
  8
OUTER
 62
     3
370
    35
100
AcDbSpline
210
0.0
220
0.0
230
1.0
 70
     8
 71
     5
 72
    12
 73
     6
 74
     0
 42
0.0
 43
0.0
 40
0.0
 40
0.0
 40
0.0
 40
0.0
 40
0.0
 40
0.0
 40
1575.304528367949
 40
1575.304528367949
 40
1575.304528367949
 40
1575.304528367949
 40
1575.304528367949
 40
1575.304528367949
 10
39317.0677867373
 20
24343.8724065853
 30
0.0
 10
39632.1286396745
 20
24343.6901143834
 30
0.0
 10
39947.1894843768
 20
24343.4460747057
 30
0.0
 10
40262.2503187488
 20
24343.1394738035
 30
0.0
 10
40577.3108145032
 20
24342.6427089907
 30
0.0
 10
40892.3709695396
 20
24341.9549646194
 30
0.0
  0
SPLINE
  5
9F
330
1F
100
AcDbEntity
  8
OUTER
 62
     3
370
    35
100
AcDbSpline
210
0.0
220
0.0
230
1.0
 70
     8
 71
     5
 72
    13
 73
     7
 74
     0
 42
0.0
 43
0.0
 40
0.0
 40
0.0
 40
0.0
 40
0.0
 40
0.0
 40
0.0
 40
811.2719712673576
 40
1271.890477445876
 40
1271.890477445876
 40
1271.890477445876
 40
1271.890477445876
 40
1271.890477445876
 40
1271.890477445876
 10
40892.3709695396
 20
24341.9549646194
 30
0.0
 10
40901.0192959942
 20
24503.9787125829
 30
0.0
 10
40914.5588029494
 20
24757.9962338218
 30
0.0
 10
40928.0932860168
 20
25012.0140339643
 30
0.0
 10
40941.7170867123
 20
25266.0271055231
 30
0.0
 10
40955.1064642993
 20
25520.052552684
 30
0.0
 10
40959.921644581
 20
25612.0503263975
 30
0.0
  0
SPLINE
  5
A0
330
1F
100
AcDbEntity
  8
OUTER
 62
     3
370
    35
100
AcDbSpline
210
0.0
220
0.0
230
1.0
 70
     8
 71
     5
 72
    12
 73
     6
 74
     0
 42
0.0
 43
0.0
 40
0.0
 40
0.0
 40
0.0
 40
0.0
 40
0.0
 40
0.0
 40
1644.394452316198
 40
1644.394452316198
 40
1644.394452316198
 40
1644.394452316198
 40
1644.394452316198
 40
1644.394452316198
 10
40959.9216445811
 20
25612.0503263975
 30
0.0
 10
40631.0433878771
 20
25611.4046798089
 30
0.0
 10
40302.1649902752
 20
25610.9305092839
 30
0.0
 10
39973.2863658723
 20
25610.5822701265
 30
0.0
 10
39644.4076435531
 20
25610.2965874592
 30
0.0
 10
39315.528862769
 20
25610.0279944923
 30
0.0
  0
SPLINE
  5
A1
330
1F
100
AcDbEntity
  8
OUTER
 62
     3
370
    35
100
AcDbSpline
210
0.0
220
0.0
230
1.0
 70
     8
 71
     5
 72
    12
 73
     6
 74
     0
 42
0.0
 43
0.0
 40
0.0
 40
0.0
 40
0.0
 40
0.0
 40
0.0
 40
0.0
 40
1266.156742574772
 40
1266.156742574772
 40
1266.156742574772
 40
1266.156742574772
 40
1266.156742574772
 40
1266.156742574772
 10
39315.528862769
 20
25610.0279944923
 30
0.0
 10
39316.019090336
 20
25356.7971204909
 30
0.0
 10
39316.5250108491
 20
25103.5661055889
 30
0.0
 10
39317.0003022985
 20
24850.3349580638
 30
0.0
 10
39317.196669981
 20
24597.1037223025
 30
0.0
 10
39317.0677867373
 20
24343.8724065853
 30
0.0
  0
ENDBLK
  5
A5
330
A2
100
AcDbEntity
  8
0
100
AcDbBlockEnd
  0
BLOCK
  5
A9
330
A7
100
AcDbEntity
  8
0
100
AcDbBlockBegin
  2
V236_WW_LRU13_265 RT_TEXT_6
 70
     0
 10
0.0
 20
0.0
 30
0.0
  3
V236_WW_LRU13_265 RT_TEXT_6
  1

  0
TEXT
  5
A8
330
A7
100
AcDbEntity
  8
TEXT
 62
    14
370
    13
100
AcDbText
 10
-40.210938
 20
509.988831
 30
0.0
 40
30.0
  1
V236_WW_LRU13_265 RT
 41
0.931771
 72
     5
 11
480.25
 21
509.988831
 31
0.0
100
AcDbText
  0
ENDBLK
  5
AA
330
A7
100
AcDbEntity
  8
0
100
AcDbBlockEnd
  0
BLOCK
  5
B5
330
B3
100
AcDbEntity
  8
0
100
AcDbBlockBegin
  2
29276884_INF_GF_HM_BI45_1000_54_CHORDWISE_V1_V236_WW_LRU13_265_R0_I38_DXF
 70
     0
 10
0.0
 20
0.0
 30
0.0
  3
29276884_INF_GF_HM_BI45_1000_54_CHORDWISE_V1_V236_WW_LRU13_265_R0_I38_DXF
  1

  0
INSERT
  5
AB
330
1F
100
AcDbEntity
  8
TEXT
 62
     7
370
     0
100
AcDbBlockReference
  2
V236_WW_LRU13_265 RT_TEXT_6
 10
39796.771484
 20
24969.953125
 30
0.0
  0
POINT
  5
AC
330
1F
100
AcDbEntity
  8
STRATEGYPOINT
 62
     7
370
     5
100
AcDbPoint
 10
39796.771484
 20
24969.953125
 30
0.0
  0
LINE
  5
AD
330
1F
100
AcDbEntity
  8
ROSETTE
 62
   150
370
    35
100
AcDbLine
 10
39806.771484
 20
24969.953125
 30
0.0
 11
39796.771484
 21
24969.953125
 31
0.0
  0
LINE
  5
AE
330
1F
100
AcDbEntity
  8
ROSETTE
 62
   150
370
    35
100
AcDbLine
 10
39796.771484
 20
24969.953125
 30
0.0
 11
39796.771484
 21
24974.953125
 31
0.0
  0
SPLINE
  5
AF
330
1F
100
AcDbEntity
  8
OUTER
 62
     3
370
    35
100
AcDbSpline
210
0.0
220
0.0
230
1.0
 70
     8
 71
     5
 72
    12
 73
     6
 74
     0
 42
0.0
 43
0.0
 40
0.0
 40
0.0
 40
0.0
 40
0.0
 40
0.0
 40
0.0
 40
1531.545748430274
 40
1531.545748430274
 40
1531.545748430274
 40
1531.545748430274
 40
1531.545748430274
 40
1531.545748430274
 10
39337.0964179172
 20
24273.8456337715
 30
0.0
 10
39643.4055091677
 20
24273.6564282269
 30
0.0
 10
39949.7144517002
 20
24273.3253981385
 30
0.0
 10
40256.0232455487
 20
24272.8525846651
 30
0.0
 10
40562.3319809472
 20
24272.347091071
 30
0.0
 10
40868.6406579297
 20
24271.8089585153
 30
0.0
  0
SPLINE
  5
B0
330
1F
100
AcDbEntity
  8
OUTER
 62
     3
370
    35
100
AcDbSpline
210
0.0
220
0.0
230
1.0
 70
     8
 71
     5
 72
    12
 73
     6
 74
     0
 42
0.0
 43
0.0
 40
0.0
 40
0.0
 40
0.0
 40
0.0
 40
0.0
 40
0.0
 40
1271.75385883094
 40
1271.75385883094
 40
1271.75385883094
 40
1271.75385883094
 40
1271.75385883094
 40
1271.75385883094
 10
40868.6406579297
 20
24271.8089585153
 30
0.0
 10
40882.2165904831
 20
24525.7971652367
 30
0.0
 10
40895.6555042971
 20
24779.7926947162
 30
0.0
 10
40908.9595710475
 20
25033.7954395129
 30
0.0
 10
40922.4355610609
 20
25287.7889752851
 30
0.0
 10
40936.1822992859
 20
25541.7679946671
 30
0.0
  0
SPLINE
  5
B1
330
1F
100
AcDbEntity
  8
OUTER
 62
     3
370
    35
100
AcDbSpline
210
0.0
220
0.0
230
1.0
 70
     8
 71
     5
 72
    12
 73
     6
 74
     0
 42
0.0
 43
0.0
 40
0.0
 40
0.0
 40
0.0
 40
0.0
 40
0.0
 40
0.0
 40
1600.528913142691
 40
1600.528913142691
 40
1600.528913142691
 40
1600.528913142691
 40
1600.528913142691
 40
1600.528913142691
 10
40936.1822992859
 20
25541.7679946671
 30
0.0
 10
40616.0768493132
 20
25541.3065080763
 30
0.0
 10
40295.9714320508
 20
25540.8561801446
 30
0.0
 10
39975.8659876682
 20
25540.4542504672
 30
0.0
 10
39655.7604209649
 20
25540.1604540603
 30
0.0
 10
39335.6546728293
 20
25540.0118514205
 30
0.0
  0
SPLINE
  5
B2
330
1F
100
AcDbEntity
  8
OUTER
 62
     3
370
    35
100
AcDbSpline
210
0.0
220
0.0
230
1.0
 70
     8
 71
     5
 72
    13
 73
     7
 74
     0
 42
0.0
 43
0.0
 40
0.0
 40
0.0
 40
0.0
 40
0.0
 40
0.0
 40
0.0
 40
786.9992343715885
 40
1266.167300815262
 40
1266.167300815262
 40
1266.167300815262
 40
1266.167300815262
 40
1266.167300815262
 40
1266.167300815262
 10
39335.6546728293
 20
25540.0118514205
 30
0.0
 10
39336.0219663127
 20
25382.6124330876
 30
0.0
 10
39336.480531033
 20
25129.3793714295
 30
0.0
 10
39336.7325586562
 20
24876.1460372149
 30
0.0
 10
39337.2123264843
 20
24622.9125765213
 30
0.0
 10
39337.1983628594
 20
24369.6791928372
 30
0.0
 10
39337.0964179172
 20
24273.8456337715
 30
0.0
  0
ENDBLK
  5
B6
330
B3
100
AcDbEntity
  8
0
100
AcDbBlockEnd
  0
BLOCK
  5
BA
330
B8
100
AcDbEntity
  8
0
100
AcDbBlockBegin
  2
V236_WW_LRU13_266 RT_TEXT_7
 70
     0
 10
0.0
 20
0.0
 30
0.0
  3
V236_WW_LRU13_266 RT_TEXT_7
  1

  0
TEXT
  5
B9
330
B8
100
AcDbEntity
  8
TEXT
 62
    14
370
    13
100
AcDbText
 10
-39.210938
 20
439.504456
 30
0.0
 40
30.0
  1
V236_WW_LRU13_266 RT
 41
0.931771
 72
     5
 11
481.25
 21
439.504456
 31
0.0
100
AcDbText
  0
ENDBLK
  5
BB
330
B8
100
AcDbEntity
  8
0
100
AcDbBlockEnd
  0
BLOCK
  5
C6
330
C4
100
AcDbEntity
  8
0
100
AcDbBlockBegin
  2
29276884_INF_GF_HM_BI45_1000_54_CHORDWISE_V1_V236_WW_LRU13_266_R0_I38_DXF
 70
     0
 10
0.0
 20
0.0
 30
0.0
  3
29276884_INF_GF_HM_BI45_1000_54_CHORDWISE_V1_V236_WW_LRU13_266_R0_I38_DXF
  1

  0
INSERT
  5
BC
330
1F
100
AcDbEntity
  8
TEXT
 62
     7
370
     0
100
AcDbBlockReference
  2
V236_WW_LRU13_266 RT_TEXT_7
 10
39796.771484
 20
24969.953125
 30
0.0
  0
POINT
  5
BD
330
1F
100
AcDbEntity
  8
STRATEGYPOINT
 62
     7
370
     5
100
AcDbPoint
 10
39796.771484
 20
24969.953125
 30
0.0
  0
LINE
  5
BE
330
1F
100
AcDbEntity
  8
ROSETTE
 62
   150
370
    35
100
AcDbLine
 10
39806.771484
 20
24969.953125
 30
0.0
 11
39796.771484
 21
24969.953125
 31
0.0
  0
LINE
  5
BF
330
1F
100
AcDbEntity
  8
ROSETTE
 62
   150
370
    35
100
AcDbLine
 10
39796.771484
 20
24969.953125
 30
0.0
 11
39796.771484
 21
24974.953125
 31
0.0
  0
SPLINE
  5
C0
330
1F
100
AcDbEntity
  8
OUTER
 62
     3
370
    35
100
AcDbSpline
210
0.0
220
0.0
230
1.0
 70
     8
 71
     5
 72
    12
 73
     6
 74
     0
 42
0.0
 43
0.0
 40
0.0
 40
0.0
 40
0.0
 40
0.0
 40
0.0
 40
0.0
 40
1487.787687030323
 40
1487.787687030323
 40
1487.787687030323
 40
1487.787687030323
 40
1487.787687030323
 40
1487.787687030323
 10
39357.1054722451
 20
24203.8413652446
 30
0.0
 10
39654.6629334249
 20
24203.6283782269
 30
0.0
 10
39952.220251868
 20
24203.2819187423
 30
0.0
 10
40249.7774275759
 20
24202.8020053315
 30
0.0
 10
40547.3344660771
 20
24202.2544039013
 30
0.0
 10
40844.8913673731
 20
24201.6391329922
 30
0.0
  0
SPLINE
  5
C1
330
1F
100
AcDbEntity
  8
OUTER
 62
     3
370
    35
100
AcDbSpline
210
0.0
220
0.0
230
1.0
 70
     8
 71
     5
 72
    14
 73
     8
 74
     0
 42
0.0
 43
0.0
 40
0.0
 40
0.0
 40
0.0
 40
0.0
 40
0.0
 40
0.0
 40
331.2314411359392
 40
957.1835879756968
 40
1271.616486757137
 40
1271.616486757137
 40
1271.616486757137
 40
1271.616486757137
 40
1271.616486757137
 40
1271.616486757137
 10
40844.8913673731
 20
24201.6391329922
 30
0.0
 10
40848.6199210637
 20
24267.7804105071
 30
0.0
 10
40858.5018389905
 20
24458.9624992827
 30
0.0
 10
40872.0426339958
 20
24712.9247127597
 30
0.0
 10
40885.5384441076
 20
24966.8896395732
 30
0.0
 10
40899.0828767756
 20
25220.8520063487
 30
0.0
 10
40908.9939152788
 20
25408.6677587525
 30
0.0
 10
40912.3981193293
 20
25471.4621319736
 30
0.0
  0
SPLINE
  5
C2
330
1F
100
AcDbEntity
  8
OUTER
 62
     3
370
    35
100
AcDbSpline
210
0.0
220
0.0
230
1.0
 70
     8
 71
     5
 72
    12
 73
     6
 74
     0
 42
0.0
 43
0.0
 40
0.0
 40
0.0
 40
0.0
 40
0.0
 40
0.0
 40
0.0
 40
1556.591092497999
 40
1556.591092497999
 40
1556.591092497999
 40
1556.591092497999
 40
1556.591092497999
 40
1556.591092497999
 10
40912.3981193293
 20
25471.4621319736
 30
0.0
 10
40601.0799108448
 20
25471.3831665173
 30
0.0
 10
40289.7621873804
 20
25470.677330366
 30
0.0
 10
39978.4442084015
 20
25470.2459468974
 30
0.0
 10
39667.1259659948
 20
25470.1545928947
 30
0.0
 10
39355.8077696441
 20
25470.0371593997
 30
0.0
  0
SPLINE
  5
C3
330
1F
100
AcDbEntity
  8
OUTER
 62
     3
370
    35
100
AcDbSpline
210
0.0
220
0.0
230
1.0
 70
     8
 71
     5
 72
    12
 73
     6
 74
     0
 42
0.0
 43
0.0
 40
0.0
 40
0.0
 40
0.0
 40
0.0
 40
0.0
 40
0.0
 40
1266.19668231068
 40
1266.19668231068
 40
1266.19668231068
 40
1266.19668231068
 40
1266.19668231068
 40
1266.19668231068
 10
39355.807769644
 20
25470.0371593997
 30
0.0
 10
39356.2309420776
 20
25216.7981765064
 30
0.0
 10
39356.6604126982
 20
24963.5590923431
 30
0.0
 10
39357.0922656789
 20
24710.3199075005
 30
0.0
 10
39357.2419434616
 20
24457.0806649345
 30
0.0
 10
39357.1054722451
 20
24203.8413652447
 30
0.0
  0
ENDBLK
  5
C7
330
C4
100
AcDbEntity
  8
0
100
AcDbBlockEnd
  0
BLOCK
  5
CC
330
CA
100
AcDbEntity
  8
0
100
AcDbBlockBegin
  2
V236_WW_LRU13_267 RT_TEXT_8
 70
     0
 10
0.0
 20
0.0
 30
0.0
  3
V236_WW_LRU13_267 RT_TEXT_8
  1

  0
TEXT
  5
CB
330
CA
100
AcDbEntity
  8
TEXT
 62
    14
370
    13
100
AcDbText
 10
-31.757812
 20
361.883362
 30
0.0
 40
30.0
  1
V236_WW_LRU13_267 RT
 41
0.931771
 72
     5
 11
488.703125
 21
361.883362
 31
0.0
100
AcDbText
  0
ENDBLK
  5
CD
330
CA
100
AcDbEntity
  8
0
100
AcDbBlockEnd
  0
BLOCK
  5
104
330
102
100
AcDbEntity
  8
0
100
AcDbBlockBegin
  2
29276884_INF_GF_HM_BI45_1000_54_CHORDWISE_V1-V236_WW_LRU13_267_R1_I7_DXF
 70
     0
 10
0.0
 20
0.0
 30
0.0
  3
29276884_INF_GF_HM_BI45_1000_54_CHORDWISE_V1-V236_WW_LRU13_267_R1_I7_DXF
  1

  0
INSERT
  5
CE
330
1F
100
AcDbEntity
  8
TEXT
 62
     7
370
     0
100
AcDbBlockReference
  2
V236_WW_LRU13_267 RT_TEXT_8
 10
39796.771484
 20
24969.953125
 30
0.0
  0
POINT
  5
CF
330
1F
100
AcDbEntity
  8
STRATEGYPOINT
 62
     7
370
     5
100
AcDbPoint
 10
39796.771484
 20
24969.953125
 30
0.0
  0
LINE
  5
D0
330
1F
100
AcDbEntity
  8
MARKERS
 62
     5
370
    35
100
AcDbLine
 10
40974.771484
 20
24969.953125
 30
0.0
 11
39020.771484
 21
24969.953125
 31
0.0
  0
LINE
  5
D1
330
1F
100
AcDbEntity
  8
MARKERS
 62
     5
370
    35
100
AcDbLine
 10
40957.771484
 20
24669.953125
 30
0.0
 11
39018.771484
 21
24669.953125
 31
0.0
  0
LINE
  5
D2
330
1F
100
AcDbEntity
  8
MARKERS
 62
     5
370
    35
100
AcDbLine
 10
40862.771484
 20
24369.953125
 30
0.0
 11
39348.771484
 21
24369.953125
 31
0.0
  0
LINE
  5
D3
330
1F
100
AcDbEntity
  8
MARKERS
 62
     5
370
    35
100
AcDbLine
 10
40815.771484
 20
24269.953125
 30
0.0
 11
39385.771484
 21
24269.953125
 31
0.0
  0
LINE
  5
D4
330
1F
100
AcDbEntity
  8
MARKERS
 62
     5
370
    35
100
AcDbLine
 10
40987.771484
 20
25269.953125
 30
0.0
 11
39020.771484
 21
25269.953125
 31
0.0
  0
LINE
  5
D5
330
1F
100
AcDbEntity
  8
MARKERS
 62
     5
370
    35
100
AcDbLine
 10
41003.771484
 20
25569.953125
 30
0.0
 11
39015.771484
 21
25569.953125
 31
0.0
  0
LINE
  5
D6
330
1F
100
AcDbEntity
  8
MARKERS
 62
     5
370
    35
100
AcDbLine
 10
41012.771484
 20
25769.953125
 30
0.0
 11
39010.771484
 21
25769.953125
 31
0.0
  0
LINE
  5
D7
330
1F
100
AcDbEntity
  8
ROSETTE
 62
   150
370
    35
100
AcDbLine
 10
39806.771484
 20
24969.953125
 30
0.0
 11
39796.771484
 21
24969.953125
 31
0.0
  0
LINE
  5
D8
330
1F
100
AcDbEntity
  8
ROSETTE
 62
   150
370
    35
100
AcDbLine
 10
39796.771484
 20
24969.953125
 30
0.0
 11
39796.771484
 21
24974.953125
 31
0.0
  0
POLYLINE
  5
D9
330
1F
100
AcDbEntity
  8
OUTER
 62
     3
370
    35
100
AcDb2dPolyline
 66
     1
 10
961.771483999997
 20
-307.352029999998
 30
0.0
  0
VERTEX
  5
DA
330
D9
100
AcDbEntity
  8
0
370
     0
100
AcDbVertex
100
AcDb2dVertex
 10
39377.102356
 20
24133.794983
 30
0.0
  0
VERTEX
  5
DB
330
D9
100
AcDbEntity
  8
0
370
     0
100
AcDbVertex
100
AcDb2dVertex
 10
39665.91336
 20
24133.549804
 30
0.0
  0
VERTEX
  5
DC
330
D9
100
AcDbEntity
  8
0
370
     0
100
AcDbVertex
100
AcDb2dVertex
 10
39810.318835
 20
24133.394775
 30
0.0
  0
VERTEX
  5
DD
330
D9
100
AcDbEntity
  8
0
370
     0
100
AcDbVertex
100
AcDb2dVertex
 10
39954.724273
 20
24133.210083
 30
0.0
  0
VERTEX
  5
DE
330
D9
100
AcDbEntity
  8
0
370
     0
100
AcDbVertex
100
AcDb2dVertex
 10
40099.129669
 20
24132.985656
 30
0.0
  0
VERTEX
  5
DF
330
D9
100
AcDbEntity
  8
0
370
     0
100
AcDbVertex
100
AcDb2dVertex
 10
40243.534973
 20
24132.714904
 30
0.0
  0
VERTEX
  5
E0
330
D9
100
AcDbEntity
  8
0
370
     0
100
AcDbVertex
100
AcDb2dVertex
 10
40436.075256
 20
24132.288818
 30
0.0
  0
VERTEX
  5
E1
330
D9
100
AcDbEntity
  8
0
370
     0
100
AcDbVertex
100
AcDb2dVertex
 10
40628.615539
 20
24131.838196
 30
0.0
  0
VERTEX
  5
E2
330
D9
100
AcDbEntity
  8
0
370
     0
100
AcDbVertex
100
AcDb2dVertex
 10
40756.975708
 20
24131.580932
 30
0.0
  0
VERTEX
  5
E3
330
D9
100
AcDbEntity
  8
0
370
     0
100
AcDbVertex
100
AcDb2dVertex
 10
40821.155883
 20
24131.485473
 30
0.0
  0
SEQEND
  5
E4
330
D9
100
AcDbEntity
  8
OUTER
 62
     3
370
    35
  0
POLYLINE
  5
E5
330
1F
100
AcDbEntity
  8
OUTER
 62
     3
370
    35
100
AcDb2dPolyline
 66
     1
 10
961.771483999997
 20
-307.352029999998
 30
0.0
  0
VERTEX
  5
E6
330
E5
100
AcDbEntity
  8
0
370
     0
100
AcDbVertex
100
AcDb2dVertex
 10
40821.155883
 20
24131.485473
 30
0.0
  0
VERTEX
  5
E7
330
E5
100
AcDbEntity
  8
0
370
     0
100
AcDbVertex
100
AcDb2dVertex
 10
40824.950073
 20
24202.02539
 30
0.0
  0
VERTEX
  5
E8
330
E5
100
AcDbEntity
  8
0
370
     0
100
AcDbVertex
100
AcDb2dVertex
 10
40832.475463
 20
24343.108703
 30
0.0
  0
VERTEX
  5
E9
330
E5
100
AcDbEntity
  8
0
370
     0
100
AcDbVertex
100
AcDb2dVertex
 10
40839.95581
 20
24484.194397
 30
0.0
  0
VERTEX
  5
EA
330
E5
100
AcDbEntity
  8
0
370
     0
100
AcDbVertex
100
AcDb2dVertex
 10
40858.631958
 20
24836.909927
 30
0.0
  0
VERTEX
  5
EB
330
E5
100
AcDbEntity
  8
0
370
     0
100
AcDbVertex
100
AcDb2dVertex
 10
40877.370483
 20
25189.622131
 30
0.0
  0
VERTEX
  5
EC
330
E5
100
AcDbEntity
  8
0
370
     0
100
AcDbVertex
100
AcDb2dVertex
 10
40888.646728
 20
25401.247711
 30
0.0
  0
SEQEND
  5
ED
330
E5
100
AcDbEntity
  8
OUTER
 62
     3
370
    35
  0
POLYLINE
  5
EE
330
1F
100
AcDbEntity
  8
OUTER
 62
     3
370
    35
100
AcDb2dPolyline
 66
     1
 10
961.771483999997
 20
-307.352029999998
 30
0.0
  0
VERTEX
  5
EF
330
EE
100
AcDbEntity
  8
0
370
     0
100
AcDbVertex
100
AcDb2dVertex
 10
40888.646728
 20
25401.247711
 30
0.0
  0
VERTEX
  5
F0
330
EE
100
AcDbEntity
  8
0
370
     0
100
AcDbVertex
100
AcDb2dVertex
 10
40792.019592
 20
25401.205414
 30
0.0
  0
VERTEX
  5
F1
330
EE
100
AcDbEntity
  8
0
370
     0
100
AcDbVertex
100
AcDb2dVertex
 10
40598.765442
 20
25401.052429
 30
0.0
  0
VERTEX
  5
F2
330
EE
100
AcDbEntity
  8
0
370
     0
100
AcDbVertex
100
AcDb2dVertex
 10
40462.893432
 20
25400.911712
 30
0.0
  0
VERTEX
  5
F3
330
EE
100
AcDbEntity
  8
0
370
     0
100
AcDbVertex
100
AcDb2dVertex
 10
40123.213501
 20
25400.540222
 30
0.0
  0
VERTEX
  5
F4
330
EE
100
AcDbEntity
  8
0
370
     0
100
AcDbVertex
100
AcDb2dVertex
 10
39783.533463
 20
25400.23471
 30
0.0
  0
VERTEX
  5
F5
330
EE
100
AcDbEntity
  8
0
370
     0
100
AcDbVertex
100
AcDb2dVertex
 10
39375.917328
 20
25400.01004
 30
0.0
  0
SEQEND
  5
F6
330
EE
100
AcDbEntity
  8
OUTER
 62
     3
370
    35
  0
POLYLINE
  5
F7
330
1F
100
AcDbEntity
  8
OUTER
 62
     3
370
    35
100
AcDb2dPolyline
 66
     1
 10
961.771483999997
 20
-307.352029999998
 30
0.0
  0
VERTEX
  5
F8
330
F7
100
AcDbEntity
  8
0
370
     0
100
AcDbVertex
100
AcDb2dVertex
 10
39375.917328
 20
25400.01004
 30
0.0
  0
VERTEX
  5
F9
330
F7
100
AcDbEntity
  8
0
370
     0
100
AcDbVertex
100
AcDb2dVertex
 10
39376.097595
 20
25329.664978
 30
0.0
  0
VERTEX
  5
FA
330
F7
100
AcDbEntity
  8
0
370
     0
100
AcDbVertex
100
AcDb2dVertex
 10
39376.358795
 20
25188.974579
 30
0.0
  0
VERTEX
  5
FB
330
F7
100
AcDbEntity
  8
0
370
     0
100
AcDbVertex
100
AcDb2dVertex
 10
39376.538421
 20
25048.284042
 30
0.0
  0
VERTEX
  5
FC
330
F7
100
AcDbEntity
  8
0
370
     0
100
AcDbVertex
100
AcDb2dVertex
 10
39376.812805
 20
24766.902832
 30
0.0
  0
VERTEX
  5
FD
330
F7
100
AcDbEntity
  8
0
370
     0
100
AcDbVertex
100
AcDb2dVertex
 10
39377.060302
 20
24485.521576
 30
0.0
  0
VERTEX
  5
FE
330
F7
100
AcDbEntity
  8
0
370
     0
100
AcDbVertex
100
AcDb2dVertex
 10
39377.142089
 20
24344.830932
 30
0.0
  0
VERTEX
  5
FF
330
F7
100
AcDbEntity
  8
0
370
     0
100
AcDbVertex
100
AcDb2dVertex
 10
39377.155395
 20
24239.312988
 30
0.0
  0
VERTEX
  5
100
330
F7
100
AcDbEntity
  8
0
370
     0
100
AcDbVertex
100
AcDb2dVertex
 10
39377.102356
 20
24133.794983
 30
0.0
  0
SEQEND
  5
101
330
F7
100
AcDbEntity
  8
OUTER
 62
     3
370
    35
  0
ENDBLK
  5
106
330
102
100
AcDbEntity
  8
0
100
AcDbBlockEnd
  0
ENDSEC
  0
SECTION
  2
ENTITIES
  0
INSERT
  5
39
330
35
100
AcDbEntity
  8
0
100
AcDbBlockReference
  2
29276884_INF_GF_HM_BI45_1000_54_CHORDWISE_V1_V236_WW_LRU13_260_R0_I38_DXF
 10
0.0
 20
0.0
 30
0.0
  0
INSERT
  5
6C
330
46
100
AcDbEntity
  8
0
100
AcDbBlockReference
  2
29276884_INF_GF_HM_BI45_1000_54_CHORDWISE_V1_V236_WW_LRU13_261_R0_I38_DXF
 10
0.0
 20
0.0
 30
0.0
  0
INSERT
  5
84
330
7E
100
AcDbEntity
  8
0
100
AcDbBlockReference
  2
29276884_INF_GF_HM_BI45_1000_54_CHORDWISE_V1_V236_WW_LRU13_262_R0_I38_DXF
 10
0.0
 20
0.0
 30
0.0
  0
INSERT
  5
95
330
91
100
AcDbEntity
  8
0
100
AcDbBlockReference
  2
29276884_INF_GF_HM_BI45_1000_54_CHORDWISE_V1_V236_WW_LRU13_263_R0_I38_DXF
 10
0.0
 20
0.0
 30
0.0
  0
INSERT
  5
A6
330
A2
100
AcDbEntity
  8
0
100
AcDbBlockReference
  2
29276884_INF_GF_HM_BI45_1000_54_CHORDWISE_V1_V236_WW_LRU13_264_R0_I38_DXF
 10
0.0
 20
0.0
 30
0.0
  0
INSERT
  5
B7
330
B3
100
AcDbEntity
  8
0
100
AcDbBlockReference
  2
29276884_INF_GF_HM_BI45_1000_54_CHORDWISE_V1_V236_WW_LRU13_265_R0_I38_DXF
 10
0.0
 20
0.0
 30
0.0
  0
INSERT
  5
C8
330
C4
100
AcDbEntity
  8
0
100
AcDbBlockReference
  2
29276884_INF_GF_HM_BI45_1000_54_CHORDWISE_V1_V236_WW_LRU13_266_R0_I38_DXF
 10
0.0
 20
0.0
 30
0.0
  0
INSERT
  5
107
330
102
100
AcDbEntity
  8
0
100
AcDbBlockReference
  2
29276884_INF_GF_HM_BI45_1000_54_CHORDWISE_V1-V236_WW_LRU13_267_R1_I7_DXF
 10
0.0
 20
0.0
 30
0.0
  0
ENDSEC
  0
SECTION
  2
OBJECTS
  0
DICTIONARY
  5
C
330
0
100
AcDbDictionary
281
     1
  3
ACAD_GROUP
350
D
  3
ACAD_LAYOUT
350
1A
  3
ACAD_MLINESTYLE
350
17
  3
ACAD_PLOTSETTINGS
350
19
  3
ACAD_PLOTSTYLENAME
350
E
  3
ACAD_SCALELIST
350
47
  3
DWGPROPS
350
82
  0
DICTIONARY
  5
D
102
{ACAD_REACTORS
330
C
102
}
330
C
100
AcDbDictionary
281
     1
  0
DICTIONARY
  5
1A
102
{ACAD_REACTORS
330
C
102
}
330
C
100
AcDbDictionary
281
     1
  3
Layout1
350
1E
  3
Layout2
350
26
  3
Model
350
22
  0
DICTIONARY
  5
17
102
{ACAD_REACTORS
330
C
102
}
330
C
100
AcDbDictionary
281
     1
  3
Standard
350
18
  0
DICTIONARY
  5
19
102
{ACAD_REACTORS
330
C
102
}
330
C
100
AcDbDictionary
281
     1
  0
ACDBDICTIONARYWDFLT
  5
E
102
{ACAD_REACTORS
330
C
102
}
330
C
100
AcDbDictionary
281
     1
  3
Normal
350
F
100
AcDbDictionaryWithDefault
340
F
  0
DICTIONARY
  5
47
102
{ACAD_REACTORS
330
C
102
}
330
C
100
AcDbDictionary
281
     1
  3
A0
350
48
  3
A1
350
49
  3
A2
350
4A
  3
A3
350
4B
  3
A4
350
4C
  3
A5
350
4D
  3
A6
350
4E
  3
A7
350
4F
  3
A8
350
50
  3
A9
350
51
  3
B0
350
52
  3
B1
350
53
  3
B2
350
54
  3
B3
350
55
  3
B4
350
56
  3
B5
350
57
  3
B6
350
58
  3
B7
350
59
  3
B8
350
5A
  3
B9
350
5B
  3
C0
350
5C
  3
C1
350
5D
  3
C2
350
5E
  3
C3
350
5F
  3
C4
350
60
  3
C5
350
61
  3
C6
350
62
  3
C7
350
63
  3
C8
350
64
  3
C9
350
65
  3
D0
350
66
  3
D1
350
67
  3
D2
350
68
  0
XRECORD
  5
82
102
{ACAD_REACTORS
330
C
102
}
330
C
100
AcDbXrecord
280
     1
  1
DWGPROPS COOKIE
  2

  3

  4

  6

  7

  8
JAWGT
  9

300
=
301
=
302
=
303
=
304
=
305
=
306
=
307
=
308
=
309
=
 40
0.0
 41
0.0
 42
2460090.616374
  1

 90
        0
  0
LAYOUT
  5
1E
102
{ACAD_REACTORS
330
1A
102
}
330
1A
100
AcDbPlotSettings
  1

  2
none_device
  4

  6

 40
0.0
 41
0.0
 42
0.0
 43
0.0
 44
0.0
 45
0.0
 46
0.0
 47
0.0
 48
0.0
 49
0.0
140
0.0
141
0.0
142
1.0
143
1.0
 70
  4784
 72
     0
 73
     0
 74
     5
  7

 75
    16
147
1.0
148
0.0
149
0.0
100
AcDbLayout
  1
Layout1
 70
     1
 71
     1
 10
0.0
 20
0.0
 11
420.0
 21
297.0
 12
0.0
 22
0.0
 32
0.0
 14
0.0
 24
0.0
 34
0.0
 15
478.1875
 25
901.001831
 35
2.0
146
0.0
 13
0.0
 23
0.0
 33
0.0
 16
1.0
 26
0.0
 36
0.0
 17
0.0
 27
1.0
 37
0.0
 76
     0
330
1B
  0
LAYOUT
  5
26
102
{ACAD_REACTORS
330
1A
102
}
330
1A
100
AcDbPlotSettings
  1

  2
none_device
  4

  6

 40
0.0
 41
0.0
 42
0.0
 43
0.0
 44
0.0
 45
0.0
 46
0.0
 47
0.0
 48
0.0
 49
0.0
140
0.0
141
0.0
142
1.0
143
1.0
 70
  4784
 72
     0
 73
     0
 74
     5
  7

 75
    16
147
1.0
148
0.0
149
0.0
100
AcDbLayout
  1
Layout2
 70
     1
 71
     2
 10
0.0
 20
0.0
 11
0.0
 21
0.0
 12
0.0
 22
0.0
 32
0.0
 14
0.0
 24
0.0
 34
0.0
 15
0.0
 25
0.0
 35
0.0
146
0.0
 13
0.0
 23
0.0
 33
0.0
 16
1.0
 26
0.0
 36
0.0
 17
0.0
 27
1.0
 37
0.0
 76
     0
330
23
  0
LAYOUT
  5
22
102
{ACAD_REACTORS
330
1A
102
}
330
1A
100
AcDbPlotSettings
  1

  2
none_device
  4
Letter_(8.50_x_11.00_Inches)
  6

 40
6.35
 41
6.35
 42
6.350005
 43
6.350005
 44
215.9
 45
279.4
 46
0.0
 47
0.0
 48
0.0
 49
0.0
140
0.0
141
0.0
142
1.0
143
1.0
 70
  5808
 72
     0
 73
     0
 74
     0
  7

 75
     0
147
1.0
148
0.0
149
0.0
100
AcDbLayout
  1
Model
 70
     1
 71
     0
 10
0.0
 20
0.0
 11
420.0
 21
297.0
 12
0.0
 22
0.0
 32
0.0
 14
0.0
 24
0.0
 34
0.0
 15
478.1875
 25
901.001831
 35
2.0
146
0.0
 13
0.0
 23
0.0
 33
0.0
 16
1.0
 26
0.0
 36
0.0
 17
0.0
 27
1.0
 37
0.0
 76
     0
330
1F
331
29
  0
MLINESTYLE
  5
18
102
{ACAD_REACTORS
330
17
102
}
330
17
100
AcDbMlineStyle
  2
Standard
 70
     0
  3

 62
   256
 51
90.0
 52
90.0
 71
     2
 49
0.5
 62
   256
  6
BYLAYER
 49
-0.5
 62
   256
  6
BYLAYER
  0
ACDBPLACEHOLDER
  5
F
102
{ACAD_REACTORS
330
E
102
}
330
E
  0
SCALE
  5
48
102
{ACAD_REACTORS
330
47
102
}
330
47
100
AcDbScale
 70
     0
300
1:1
140
1.0
141
1.0
290
     1
  0
SCALE
  5
49
102
{ACAD_REACTORS
330
47
102
}
330
47
100
AcDbScale
 70
     0
300
1:2
140
1.0
141
2.0
290
     0
  0
SCALE
  5
4A
102
{ACAD_REACTORS
330
47
102
}
330
47
100
AcDbScale
 70
     0
300
1:4
140
1.0
141
4.0
290
     0
  0
SCALE
  5
4B
102
{ACAD_REACTORS
330
47
102
}
330
47
100
AcDbScale
 70
     0
300
1:5
140
1.0
141
5.0
290
     0
  0
SCALE
  5
4C
102
{ACAD_REACTORS
330
47
102
}
330
47
100
AcDbScale
 70
     0
300
1:8
140
1.0
141
8.0
290
     0
  0
SCALE
  5
4D
102
{ACAD_REACTORS
330
47
102
}
330
47
100
AcDbScale
 70
     0
300
1:10
140
1.0
141
10.0
290
     0
  0
SCALE
  5
4E
102
{ACAD_REACTORS
330
47
102
}
330
47
100
AcDbScale
 70
     0
300
1:16
140
1.0
141
16.0
290
     0
  0
SCALE
  5
4F
102
{ACAD_REACTORS
330
47
102
}
330
47
100
AcDbScale
 70
     0
300
1:20
140
1.0
141
20.0
290
     0
  0
SCALE
  5
50
102
{ACAD_REACTORS
330
47
102
}
330
47
100
AcDbScale
 70
     0
300
1:30
140
1.0
141
30.0
290
     0
  0
SCALE
  5
51
102
{ACAD_REACTORS
330
47
102
}
330
47
100
AcDbScale
 70
     0
300
1:40
140
1.0
141
40.0
290
     0
  0
SCALE
  5
52
102
{ACAD_REACTORS
330
47
102
}
330
47
100
AcDbScale
 70
     0
300
1:50
140
1.0
141
50.0
290
     0
  0
SCALE
  5
53
102
{ACAD_REACTORS
330
47
102
}
330
47
100
AcDbScale
 70
     0
300
1:100
140
1.0
141
100.0
290
     0
  0
SCALE
  5
54
102
{ACAD_REACTORS
330
47
102
}
330
47
100
AcDbScale
 70
     0
300
2:1
140
2.0
141
1.0
290
     0
  0
SCALE
  5
55
102
{ACAD_REACTORS
330
47
102
}
330
47
100
AcDbScale
 70
     0
300
4:1
140
4.0
141
1.0
290
     0
  0
SCALE
  5
56
102
{ACAD_REACTORS
330
47
102
}
330
47
100
AcDbScale
 70
     0
300
8:1
140
8.0
141
1.0
290
     0
  0
SCALE
  5
57
102
{ACAD_REACTORS
330
47
102
}
330
47
100
AcDbScale
 70
     0
300
10:1
140
10.0
141
1.0
290
     0
  0
SCALE
  5
58
102
{ACAD_REACTORS
330
47
102
}
330
47
100
AcDbScale
 70
     0
300
100:1
140
100.0
141
1.0
290
     0
  0
SCALE
  5
59
102
{ACAD_REACTORS
330
47
102
}
330
47
100
AcDbScale
 70
     0
300
1/128" = 1'-0"
140
0.007812
141
12.0
290
     0
  0
SCALE
  5
5A
102
{ACAD_REACTORS
330
47
102
}
330
47
100
AcDbScale
 70
     0
300
1/64" = 1'-0"
140
0.015625
141
12.0
290
     0
  0
SCALE
  5
5B
102
{ACAD_REACTORS
330
47
102
}
330
47
100
AcDbScale
 70
     0
300
1/32" = 1'-0"
140
0.03125
141
12.0
290
     0
  0
SCALE
  5
5C
102
{ACAD_REACTORS
330
47
102
}
330
47
100
AcDbScale
 70
     0
300
1/16" = 1'-0"
140
0.0625
141
12.0
290
     0
  0
SCALE
  5
5D
102
{ACAD_REACTORS
330
47
102
}
330
47
100
AcDbScale
 70
     0
300
3/32" = 1'-0"
140
0.09375
141
12.0
290
     0
  0
SCALE
  5
5E
102
{ACAD_REACTORS
330
47
102
}
330
47
100
AcDbScale
 70
     0
300
1/8" = 1'-0"
140
0.125
141
12.0
290
     0
  0
SCALE
  5
5F
102
{ACAD_REACTORS
330
47
102
}
330
47
100
AcDbScale
 70
     0
300
3/16" = 1'-0"
140
0.1875
141
12.0
290
     0
  0
SCALE
  5
60
102
{ACAD_REACTORS
330
47
102
}
330
47
100
AcDbScale
 70
     0
300
1/4" = 1'-0"
140
0.25
141
12.0
290
     0
  0
SCALE
  5
61
102
{ACAD_REACTORS
330
47
102
}
330
47
100
AcDbScale
 70
     0
300
3/8" = 1'-0"
140
0.375
141
12.0
290
     0
  0
SCALE
  5
62
102
{ACAD_REACTORS
330
47
102
}
330
47
100
AcDbScale
 70
     0
300
1/2" = 1'-0"
140
0.5
141
12.0
290
     0
  0
SCALE
  5
63
102
{ACAD_REACTORS
330
47
102
}
330
47
100
AcDbScale
 70
     0
300
3/4" = 1'-0"
140
0.75
141
12.0
290
     0
  0
SCALE
  5
64
102
{ACAD_REACTORS
330
47
102
}
330
47
100
AcDbScale
 70
     0
300
1" = 1'-0"
140
1.0
141
12.0
290
     0
  0
SCALE
  5
65
102
{ACAD_REACTORS
330
47
102
}
330
47
100
AcDbScale
 70
     0
300
1-1/2" = 1'-0"
140
1.5
141
12.0
290
     0
  0
SCALE
  5
66
102
{ACAD_REACTORS
330
47
102
}
330
47
100
AcDbScale
 70
     0
300
3" = 1'-0"
140
3.0
141
12.0
290
     0
  0
SCALE
  5
67
102
{ACAD_REACTORS
330
47
102
}
330
47
100
AcDbScale
 70
     0
300
6" = 1'-0"
140
6.0
141
12.0
290
     0
  0
SCALE
  5
68
102
{ACAD_REACTORS
330
47
102
}
330
47
100
AcDbScale
 70
     0
300
1'-0" = 1'-0"
140
12.0
141
12.0
290
     0
  0
ENDSEC
  0
EOF


