  0
SECTION
  2
HEADER
  9
$ACADVER
  1
AC1015
  9
$ACADMAINTVER
 70
     6
  9
$DWGCODEPAGE
  3
ANSI_1252
  9
$INSBASE
 10
0.0
 20
0.0
 30
0.0
  9
$EXTMIN
 10
0.0
 20
0.0
 30
0.0
  9
$EXTMAX
 10
104.181152
 20
631.796448
 30
2.0
  9
$LIMMIN
 10
0.0
 20
0.0
  9
$LIMMAX
 10
420.0
 20
297.0
  9
$ORTHOMODE
 70
     0
  9
$REGENMODE
 70
     1
  9
$FILLMODE
 70
     1
  9
$QTEXTMODE
 70
     0
  9
$MIRRTEXT
 70
     1
  9
$LTSCALE
 40
1.0
  9
$ATTMODE
 70
     1
  9
$TEXTSIZE
 40
2.5
  9
$TRACEWID
 40
1.0
  9
$TEXTSTYLE
  7
Standard
  9
$CLAYER
  8
0
  9
$CELTYPE
  6
ByLayer
  9
$CECOLOR
 62
   256
  9
$CELTSCALE
 40
1.0
  9
$DISPSILH
 70
     0
  9
$DIMSCALE
 40
1.0
  9
$DIMASZ
 40
2.5
  9
$DIMEXO
 40
0.625
  9
$DIMDLI
 40
3.75
  9
$DIMRND
 40
0.0
  9
$DIMDLE
 40
0.0
  9
$DIMEXE
 40
1.25
  9
$DIMTP
 40
0.0
  9
$DIMTM
 40
0.0
  9
$DIMTXT
 40
2.5
  9
$DIMCEN
 40
2.5
  9
$DIMTSZ
 40
0.0
  9
$DIMTOL
 70
     0
  9
$DIMLIM
 70
     0
  9
$DIMTIH
 70
     0
  9
$DIMTOH
 70
     0
  9
$DIMSE1
 70
     0
  9
$DIMSE2
 70
     0
  9
$DIMTAD
 70
     1
  9
$DIMZIN
 70
     8
  9
$DIMBLK
  1

  9
$DIMASO
 70
     1
  9
$DIMSHO
 70
     1
  9
$DIMPOST
  1

  9
$DIMAPOST
  1

  9
$DIMALT
 70
     0
  9
$DIMALTD
 70
     3
  9
$DIMALTF
 40
0.03937
  9
$DIMLFAC
 40
1.0
  9
$DIMTOFL
 70
     1
  9
$DIMTVP
 40
0.0
  9
$DIMTIX
 70
     0
  9
$DIMSOXD
 70
     0
  9
$DIMSAH
 70
     0
  9
$DIMBLK1
  1

  9
$DIMBLK2
  1

  9
$DIMSTYLE
  2
STANDARD
  9
$DIMCLRD
 70
     0
  9
$DIMCLRE
 70
     0
  9
$DIMCLRT
 70
     0
  9
$DIMTFAC
 40
1.0
  9
$DIMGAP
 40
0.625
  9
$DIMJUST
 70
     0
  9
$DIMSD1
 70
     0
  9
$DIMSD2
 70
     0
  9
$DIMTOLJ
 70
     0
  9
$DIMTZIN
 70
     8
  9
$DIMALTZ
 70
     0
  9
$DIMALTTZ
 70
     0
  9
$DIMUPT
 70
     0
  9
$DIMDEC
 70
     2
  9
$DIMTDEC
 70
     2
  9
$DIMALTU
 70
     2
  9
$DIMALTTD
 70
     3
  9
$DIMTXSTY
  7
Standard
  9
$DIMAUNIT
 70
     0
  9
$DIMADEC
 70
     0
  9
$DIMALTRND
 40
0.0
  9
$DIMAZIN
 70
     0
  9
$DIMDSEP
 70
    44
  9
$DIMATFIT
 70
     0
  9
$DIMFRAC
 70
     0
  9
$DIMLDRBLK
  1

  9
$DIMLUNIT
 70
     2
  9
$DIMLWD
 70
    -2
  9
$DIMLWE
 70
    -2
  9
$DIMTMOVE
 70
     0
  9
$LUNITS
 70
     2
  9
$LUPREC
 70
     4
  9
$SKETCHINC
 40
1.0
  9
$FILLETRAD
 40
2.5
  9
$AUNITS
 70
     0
  9
$AUPREC
 70
     0
  9
$MENU
  1
.
  9
$ELEVATION
 40
0.0
  9
$PELEVATION
 40
0.0
  9
$THICKNESS
 40
0.0
  9
$LIMCHECK
 70
     0
  9
$CHAMFERA
 40
2.5
  9
$CHAMFERB
 40
2.5
  9
$CHAMFERC
 40
0.0
  9
$CHAMFERD
 40
0.0
  9
$SKPOLY
 70
     0
  9
$TDCREATE
 40
2447893.041666667
  9
$TDUCREATE
 40
0.0
  9
$TDUPDATE
 40
2460090.530435521
  9
$TDUUPDATE
 40
2460090.488768854
  9
$TDINDWG
 40
0.0
  9
$TDUSRTIMER
 40
0.0
  9
$USRTIMER
 70
     1
  9
$ANGBASE
 50
0.0
  9
$ANGDIR
 70
     0
  9
$PDMODE
 70
     0
  9
$PDSIZE
 40
0.0
  9
$PLINEWID
 40
0.0
  9
$SPLFRAME
 70
     0
  9
$SPLINETYPE
 70
     6
  9
$SPLINESEGS
 70
     8
  9
$HANDSEED
  5
F0
  9
$SURFTAB1
 70
     6
  9
$SURFTAB2
 70
     6
  9
$SURFTYPE
 70
     6
  9
$SURFU
 70
     6
  9
$SURFV
 70
     6
  9
$UCSBASE
  2

  9
$UCSNAME
  2

  9
$UCSORG
 10
0.0
 20
0.0
 30
0.0
  9
$UCSXDIR
 10
1.0
 20
0.0
 30
0.0
  9
$UCSYDIR
 10
0.0
 20
1.0
 30
0.0
  9
$UCSORTHOREF
  2

  9
$UCSORTHOVIEW
 70
     1
  9
$UCSORGTOP
 10
0.0
 20
0.0
 30
0.0
  9
$UCSORGBOTTOM
 10
0.0
 20
0.0
 30
0.0
  9
$UCSORGLEFT
 10
0.0
 20
0.0
 30
0.0
  9
$UCSORGRIGHT
 10
0.0
 20
0.0
 30
0.0
  9
$UCSORGFRONT
 10
0.0
 20
0.0
 30
0.0
  9
$UCSORGBACK
 10
0.0
 20
0.0
 30
0.0
  9
$PUCSBASE
  2

  9
$PUCSNAME
  2

  9
$PUCSORG
 10
0.0
 20
0.0
 30
0.0
  9
$PUCSXDIR
 10
1.0
 20
0.0
 30
0.0
  9
$PUCSYDIR
 10
0.0
 20
1.0
 30
0.0
  9
$PUCSORTHOREF
  2

  9
$PUCSORTHOVIEW
 70
     0
  9
$PUCSORGTOP
 10
0.0
 20
0.0
 30
0.0
  9
$PUCSORGBOTTOM
 10
0.0
 20
0.0
 30
0.0
  9
$PUCSORGLEFT
 10
0.0
 20
0.0
 30
0.0
  9
$PUCSORGRIGHT
 10
0.0
 20
0.0
 30
0.0
  9
$PUCSORGFRONT
 10
0.0
 20
0.0
 30
0.0
  9
$PUCSORGBACK
 10
0.0
 20
0.0
 30
0.0
  9
$USERI1
 70
     0
  9
$USERI2
 70
     0
  9
$USERI3
 70
     0
  9
$USERI4
 70
     0
  9
$USERI5
 70
     0
  9
$USERR1
 40
0.0
  9
$USERR2
 40
0.0
  9
$USERR3
 40
0.0
  9
$USERR4
 40
0.0
  9
$USERR5
 40
0.0
  9
$WORLDVIEW
 70
     1
  9
$SHADEDGE
 70
     3
  9
$SHADEDIF
 70
    70
  9
$TILEMODE
 70
     1
  9
$MAXACTVP
 70
    64
  9
$PINSBASE
 10
0.0
 20
0.0
 30
0.0
  9
$PLIMCHECK
 70
     0
  9
$PEXTMIN
 10
0.0
 20
0.0
 30
0.0
  9
$PEXTMAX
 10
104.181152
 20
631.796448
 30
2.0
  9
$PLIMMIN
 10
0.0
 20
0.0
  9
$PLIMMAX
 10
420.0
 20
297.0
  9
$UNITMODE
 70
     0
  9
$VISRETAIN
 70
     0
  9
$PLINEGEN
 70
     0
  9
$PSLTSCALE
 70
     1
  9
$TREEDEPTH
 70
  3020
  9
$CMLSTYLE
  2
Standard
  9
$CMLJUST
 70
     0
  9
$CMLSCALE
 40
20.0
  9
$PROXYGRAPHICS
 70
     1
  9
$MEASUREMENT
 70
     1
  9
$CELWEIGHT
370
    -1
  9
$ENDCAPS
280
     0
  9
$JOINSTYLE
280
     0
  9
$LWDISPLAY
290
     0
  9
$INSUNITS
 70
     0
  9
$HYPERLINKBASE
  1

  9
$STYLESHEET
  1

  9
$XEDIT
290
     1
  9
$CEPSNTYPE
380
     0
  9
$PSTYLEMODE
290
     0
  9
$FINGERPRINTGUID
  2
{ff8fceb7-296c-455a-9942-31e99a47d80b}
  9
$VERSIONGUID
  2
{FAEB1C32-E019-11D5-929B-00C0DF256EC4}
  9
$EXTNAMES
290
     1
  9
$PSVPSCALE
 40
0.0
  9
$OLESTARTUP
290
     0
  0
ENDSEC
  0
SECTION
  2
CLASSES
  0
CLASS
  1
ACDBDICTIONARYWDFLT
  2
AcDbDictionaryWithDefault
  3
ObjectDBX Classes
 90
        0
280
     0
281
     0
  0
CLASS
  1
VISUALSTYLE
  2
AcDbVisualStyle
  3
ObjectDBX Classes
 90
     4095
280
     0
281
     0
  0
CLASS
  1
MATERIAL
  2
AcDbMaterial
  3
ObjectDBX Classes
 90
     1153
280
     0
281
     0
  0
CLASS
  1
SCALE
  2
AcDbScale
  3
ObjectDBX Classes
 90
     1153
280
     0
281
     0
  0
CLASS
  1
TABLESTYLE
  2
AcDbTableStyle
  3
ObjectDBX Classes
 90
     4095
280
     0
281
     0
  0
CLASS
  1
MLEADERSTYLE
  2
AcDbMLeaderStyle
  3
ACDB_MLEADERSTYLE_CLASS
 90
     4095
280
     0
281
     0
  0
CLASS
  1
SUN
  2
AcDbSun
  3
SCENEOE
 90
     1153
280
     0
281
     0
  0
CLASS
  1
ACDBPLACEHOLDER
  2
AcDbPlaceHolder
  3
ObjectDBX Classes
 90
        0
280
     0
281
     0
  0
CLASS
  1
LAYOUT
  2
AcDbLayout
  3
ObjectDBX Classes
 90
        0
280
     0
281
     0
  0
ENDSEC
  0
SECTION
  2
TABLES
  0
TABLE
  2
VPORT
  5
8
330
0
100
AcDbSymbolTable
 70
     1
  0
VPORT
  5
29
330
8
100
AcDbSymbolTableRecord
100
AcDbViewportTableRecord
  2
*Active
 70
     0
 10
0.0
 20
0.0
 11
1.0
 21
1.0
 12
10.429907
 22
4.5
 13
0.0
 23
0.0
 14
0.5
 24
0.5
 15
0.5
 25
0.5
 16
0.0
 26
0.0
 36
1.0
 17
0.0
 27
0.0
 37
0.0
 40
9.0
 41
1.972973
 42
50.0
 43
0.0
 44
0.0
 50
0.0
 51
0.0
 71
     0
 72
   100
 73
     1
 74
     3
 75
     0
 76
     0
 77
     0
 78
     0
281
     0
 65
     1
110
0.0
120
0.0
130
0.0
111
1.0
121
0.0
131
0.0
112
0.0
122
1.0
132
0.0
 79
     0
146
0.0
  0
ENDTAB
  0
TABLE
  2
LTYPE
  5
5
330
0
100
AcDbSymbolTable
 70
     1
  0
LTYPE
  5
14
330
5
100
AcDbSymbolTableRecord
100
AcDbLinetypeTableRecord
  2
ByBlock
 70
     0
  3

 72
    65
 73
     0
 40
0.0
  0
LTYPE
  5
15
330
5
100
AcDbSymbolTableRecord
100
AcDbLinetypeTableRecord
  2
ByLayer
 70
     0
  3

 72
    65
 73
     0
 40
0.0
  0
LTYPE
  5
16
330
5
100
AcDbSymbolTableRecord
100
AcDbLinetypeTableRecord
  2
Continuous
 70
     0
  3
Solid line
 72
    65
 73
     0
 40
0.0
  0
ENDTAB
  0
TABLE
  2
LAYER
  5
2
330
0
100
AcDbSymbolTable
 70
     5
  0
LAYER
  5
10
330
2
100
AcDbSymbolTableRecord
100
AcDbLayerTableRecord
  2
0
 70
     0
 62
     7
  6
Continuous
370
    13
390
F
  0
LAYER
  5
6F
330
2
100
AcDbSymbolTableRecord
100
AcDbLayerTableRecord
  2
TEXT
 70
     0
 62
     7
  6
Continuous
370
    13
390
F
  0
LAYER
  5
70
330
2
100
AcDbSymbolTableRecord
100
AcDbLayerTableRecord
  2
STRATEGYPOINT
 70
     0
 62
     7
  6
Continuous
370
    13
390
F
  0
LAYER
  5
71
330
2
100
AcDbSymbolTableRecord
100
AcDbLayerTableRecord
  2
ROSETTE
 70
     0
 62
     7
  6
Continuous
370
    13
390
F
  0
LAYER
  5
72
330
2
100
AcDbSymbolTableRecord
100
AcDbLayerTableRecord
  2
OUTER
 70
     0
 62
     7
  6
Continuous
370
    13
390
F
  0
LAYER
  5
D7
330
2
100
AcDbSymbolTableRecord
100
AcDbLayerTableRecord
  2
MARKERS
 70
     0
 62
     7
  6
Continuous
370
    13
390
F
  0
ENDTAB
  0
TABLE
  2
STYLE
  5
3
330
0
100
AcDbSymbolTable
 70
     2
  0
STYLE
  5
11
330
3
100
AcDbSymbolTableRecord
100
AcDbTextStyleTableRecord
  2
Standard
 70
     0
 40
0.0
 41
1.0
 50
0.0
 71
     0
 42
2.5
  3
isocp.shx
  4

  0
STYLE
  5
6E
330
3
100
AcDbSymbolTableRecord
100
AcDbTextStyleTableRecord
  2
GDT
 70
     0
 40
0.0
 41
1.0
 50
0.0
 71
     0
 42
0.2
  3
gdt.shx
  4

  0
ENDTAB
  0
TABLE
  2
VIEW
  5
6
330
0
100
AcDbSymbolTable
 70
     0
  0
ENDTAB
  0
TABLE
  2
UCS
  5
7
330
0
100
AcDbSymbolTable
 70
     0
  0
ENDTAB
  0
TABLE
  2
APPID
  5
9
330
0
100
AcDbSymbolTable
 70
     1
  0
APPID
  5
12
330
9
100
AcDbSymbolTableRecord
100
AcDbRegAppTableRecord
  2
ACAD
 70
     0
  0
ENDTAB
  0
TABLE
  2
DIMSTYLE
  5
A
330
0
100
AcDbSymbolTable
 70
     1
100
AcDbDimStyleTable
  0
DIMSTYLE
105
27
330
A
100
AcDbSymbolTableRecord
100
AcDbDimStyleTableRecord
  2
STANDARD
 70
     0
 41
2.5
 42
0.625
 43
3.75
 44
1.25
 73
     0
 74
     0
 77
     1
 78
     8
140
2.5
141
2.5
143
0.03937
147
0.625
171
     3
172
     1
178
     0
271
     2
272
     2
274
     3
278
    44
283
     0
284
     8
289
     0
340
0
  0
ENDTAB
  0
TABLE
  2
BLOCK_RECORD
  5
1
330
0
100
AcDbSymbolTable
 70
     2
  0
BLOCK_RECORD
  5
1F
330
1
100
AcDbSymbolTableRecord
100
AcDbBlockTableRecord
  2
*Model_Space
340
22
  0
BLOCK_RECORD
  5
1B
330
1
100
AcDbSymbolTableRecord
100
AcDbBlockTableRecord
  2
*Paper_Space
340
1E
  0
BLOCK_RECORD
  5
23
330
1
100
AcDbSymbolTableRecord
100
AcDbBlockTableRecord
  2
*Paper_Space0
340
26
  0
BLOCK_RECORD
  5
4
330
1
100
AcDbSymbolTableRecord
100
AcDbBlockTableRecord
  2
V236_LW_LRU12_260 RT_TEXT_1
340
0
102
{BLKREFS
331
2A
102
}
  0
BLOCK_RECORD
  5
32
330
1
100
AcDbSymbolTableRecord
100
AcDbBlockTableRecord
  2
29276884_INF_GF_HM_BI45_1000_54_CHORDWISE_V1_V236_LW_LRU12_260_R0_I30_DXF
340
0
102
{BLKREFS
331
36
102
}
  0
BLOCK_RECORD
  5
37
330
1
100
AcDbSymbolTableRecord
100
AcDbBlockTableRecord
  2
V236_LW_LRU12_261 RT_TEXT_2
340
0
102
{BLKREFS
331
3B
102
}
  0
BLOCK_RECORD
  5
43
330
1
100
AcDbSymbolTableRecord
100
AcDbBlockTableRecord
  2
29276884_INF_GF_HM_BI45_1000_54_CHORDWISE_V1_V236_LW_LRU12_261_R0_I30_DXF
340
0
102
{BLKREFS
331
69
102
}
  0
BLOCK_RECORD
  5
6A
330
1
100
AcDbSymbolTableRecord
100
AcDbBlockTableRecord
  2
V236_LW_LRU12_262 RT_TEXT_3
340
0
102
{BLKREFS
331
73
102
}
  0
BLOCK_RECORD
  5
7B
330
1
100
AcDbSymbolTableRecord
100
AcDbBlockTableRecord
  2
29276884_INF_GF_HM_BI45_1000_54_CHORDWISE_V1_V236_LW_LRU12_262_R0_I30_DXF
340
0
102
{BLKREFS
331
81
102
}
  0
BLOCK_RECORD
  5
82
330
1
100
AcDbSymbolTableRecord
100
AcDbBlockTableRecord
  2
V236_LW_LRU12_263 RT_TEXT_4
340
0
102
{BLKREFS
331
86
102
}
  0
BLOCK_RECORD
  5
8E
330
1
100
AcDbSymbolTableRecord
100
AcDbBlockTableRecord
  2
29276884_INF_GF_HM_BI45_1000_54_CHORDWISE_V1_V236_LW_LRU12_263_R0_I30_DXF
340
0
102
{BLKREFS
331
92
102
}
  0
BLOCK_RECORD
  5
93
330
1
100
AcDbSymbolTableRecord
100
AcDbBlockTableRecord
  2
V236_LW_LRU12_264 RT_TEXT_5
340
0
102
{BLKREFS
331
97
102
}
  0
BLOCK_RECORD
  5
9F
330
1
100
AcDbSymbolTableRecord
100
AcDbBlockTableRecord
  2
29276884_INF_GF_HM_BI45_1000_54_CHORDWISE_V1_V236_LW_LRU12_264_R0_I30_DXF
340
0
102
{BLKREFS
331
A3
102
}
  0
BLOCK_RECORD
  5
A4
330
1
100
AcDbSymbolTableRecord
100
AcDbBlockTableRecord
  2
V236_LW_LRU12_265 RT_TEXT_6
340
0
102
{BLKREFS
331
A8
102
}
  0
BLOCK_RECORD
  5
B0
330
1
100
AcDbSymbolTableRecord
100
AcDbBlockTableRecord
  2
29276884_INF_GF_HM_BI45_1000_54_CHORDWISE_V1_V236_LW_LRU12_265_R0_I30_DXF
340
0
102
{BLKREFS
331
B4
102
}
  0
BLOCK_RECORD
  5
B5
330
1
100
AcDbSymbolTableRecord
100
AcDbBlockTableRecord
  2
V236_LW_LRU12_266 RT_TEXT_7
340
0
102
{BLKREFS
331
B9
102
}
  0
BLOCK_RECORD
  5
C1
330
1
100
AcDbSymbolTableRecord
100
AcDbBlockTableRecord
  2
29276884_INF_GF_HM_BI45_1000_54_CHORDWISE_V1_V236_LW_LRU12_266_R0_I30_DXF
340
0
102
{BLKREFS
331
C5
102
}
  0
BLOCK_RECORD
  5
C6
330
1
100
AcDbSymbolTableRecord
100
AcDbBlockTableRecord
  2
V236_LW_LRU12_267 RT_TEXT_8
340
0
102
{BLKREFS
331
CA
102
}
  0
BLOCK_RECORD
  5
D2
330
1
100
AcDbSymbolTableRecord
100
AcDbBlockTableRecord
  2
29276884_INF_GF_HM_BI45_1000_54_CHORDWISE_V1_V236_LW_LRU12_267_R0_I30_DXF
340
0
102
{BLKREFS
331
D6
102
}
  0
BLOCK_RECORD
  5
D8
330
1
100
AcDbSymbolTableRecord
100
AcDbBlockTableRecord
  2
V236_LW_LRU12_268 RT_TEXT_9
340
0
102
{BLKREFS
331
DC
102
}
  0
BLOCK_RECORD
  5
EB
330
1
100
AcDbSymbolTableRecord
100
AcDbBlockTableRecord
  2
29276884_INF_GF_HM_BI45_1000_54_CHORDWISE_V1_V236_LW_LRU12_268_R1_I4_DXF
340
0
102
{BLKREFS
331
EF
102
}
  0
ENDTAB
  0
ENDSEC
  0
SECTION
  2
BLOCKS
  0
BLOCK
  5
20
330
1F
100
AcDbEntity
  8
0
100
AcDbBlockBegin
  2
*Model_Space
 70
     0
 10
0.0
 20
0.0
 30
0.0
  3
*Model_Space
  1

  0
ENDBLK
  5
21
330
1F
100
AcDbEntity
  8
0
100
AcDbBlockEnd
  0
BLOCK
  5
1C
330
1B
100
AcDbEntity
 67
     1
  8
0
100
AcDbBlockBegin
  2
*Paper_Space
 70
     0
 10
0.0
 20
0.0
 30
0.0
  3
*Paper_Space
  1

  0
ENDBLK
  5
1D
330
1B
100
AcDbEntity
 67
     1
  8
0
100
AcDbBlockEnd
  0
BLOCK
  5
24
330
23
100
AcDbEntity
  8
0
100
AcDbBlockBegin
  2
*Paper_Space0
 70
     0
 10
0.0
 20
0.0
 30
0.0
  3
*Paper_Space0
  1

  0
ENDBLK
  5
25
330
23
100
AcDbEntity
  8
0
100
AcDbBlockEnd
  0
BLOCK
  5
13
330
4
100
AcDbEntity
  8
0
100
AcDbBlockBegin
  2
V236_LW_LRU12_260 RT_TEXT_1
 70
     0
 10
0.0
 20
0.0
 30
0.0
  3
V236_LW_LRU12_260 RT_TEXT_1
  1

  0
TEXT
  5
B
330
4
100
AcDbEntity
  8
TEXT
 62
    14
370
    13
100
AcDbText
 10
-503.023438
 20
583.230164
 30
0.0
 40
35.0
  1
V236_LW_LRU12_260 RT
 41
0.948757
 72
     5
 11
104.181152
 21
583.230164
 31
0.0
100
AcDbText
  0
ENDBLK
  5
28
330
4
100
AcDbEntity
  8
0
100
AcDbBlockEnd
  0
BLOCK
  5
34
330
32
100
AcDbEntity
  8
0
100
AcDbBlockBegin
  2
29276884_INF_GF_HM_BI45_1000_54_CHORDWISE_V1_V236_LW_LRU12_260_R0_I30_DXF
 70
     0
 10
0.0
 20
0.0
 30
0.0
  3
29276884_INF_GF_HM_BI45_1000_54_CHORDWISE_V1_V236_LW_LRU12_260_R0_I30_DXF
  1

  0
INSERT
  5
2A
330
1F
100
AcDbEntity
  8
TEXT
 62
     7
370
     0
100
AcDbBlockReference
  2
V236_LW_LRU12_260 RT_TEXT_1
 10
96174.238281
 20
27051.442383
 30
0.0
  0
POINT
  5
2B
330
1F
100
AcDbEntity
  8
STRATEGYPOINT
 62
     7
370
     5
100
AcDbPoint
 10
96174.238281
 20
27051.442383
 30
0.0
  0
LINE
  5
2C
330
1F
100
AcDbEntity
  8
ROSETTE
 62
   150
370
    35
100
AcDbLine
 10
96274.238281
 20
27051.442383
 30
0.0
 11
96174.238281
 21
27051.442383
 31
0.0
  0
LINE
  5
2D
330
1F
100
AcDbEntity
  8
ROSETTE
 62
   150
370
    35
100
AcDbLine
 10
96174.238281
 20
27051.442383
 30
0.0
 11
96174.238281
 21
27101.442383
 31
0.0
  0
SPLINE
  5
2E
330
1F
100
AcDbEntity
  8
OUTER
 62
     3
370
    35
100
AcDbSpline
210
0.0
220
0.0
230
1.0
 70
     8
 71
     5
 72
    12
 73
     6
 74
     0
 42
0.0
 43
0.0
 40
0.0
 40
0.0
 40
0.0
 40
0.0
 40
0.0
 40
0.0
 40
2073.26090059967
 40
2073.26090059967
 40
2073.26090059967
 40
2073.26090059967
 40
2073.26090059967
 40
2073.26090059967
 10
95000.9981241206
 20
26416.1970154014
 30
0.0
 10
95415.6502983757
 20
26416.2667578947
 30
0.0
 10
95830.3024879455
 20
26416.2556731109
 30
0.0
 10
96244.9546827436
 20
26416.2096526331
 30
0.0
 10
96659.6068549493
 20
26416.2552367964
 30
0.0
 10
97074.2589943293
 20
26416.4390462527
 30
0.0
  0
SPLINE
  5
2F
330
1F
100
AcDbEntity
  8
OUTER
 62
     3
370
    35
100
AcDbSpline
210
0.0
220
0.0
230
1.0
 70
     8
 71
     5
 72
    15
 73
     9
 74
     0
 42
0.0
 43
0.0
 40
0.0
 40
0.0
 40
0.0
 40
0.0
 40
0.0
 40
0.0
 40
293.0353398301399
 40
598.1613692697691
 40
991.1426352487034
 40
1270.00753867029
 40
1270.00753867029
 40
1270.00753867029
 40
1270.00753867029
 40
1270.00753867029
 40
1270.00753867029
 10
97074.2589943291
 20
26416.4390462526
 30
0.0
 10
97074.31237128
 20
26475.046089912
 30
0.0
 10
97074.3631793166
 20
26594.6783390471
 30
0.0
 10
97074.2895189221
 20
26792.9068991184
 30
0.0
 10
97074.2639515477
 20
27046.9083877984
 30
0.0
 10
97074.2643914811
 20
27300.909893139
 30
0.0
 10
97074.0973787701
 20
27496.3044877563
 30
0.0
 10
97074.2138060206
 20
27630.6736218744
 30
0.0
 10
97074.3092955212
 20
27686.4465208144
 30
0.0
  0
SPLINE
  5
30
330
1F
100
AcDbEntity
  8
OUTER
 62
     3
370
    35
100
AcDbSpline
210
0.0
220
0.0
230
1.0
 70
     8
 71
     5
 72
    12
 73
     6
 74
     0
 42
0.0
 43
0.0
 40
0.0
 40
0.0
 40
0.0
 40
0.0
 40
0.0
 40
0.0
 40
2148.673740717857
 40
2148.673740717857
 40
2148.673740717857
 40
2148.673740717857
 40
2148.673740717857
 40
2148.673740717857
 10
97074.3092955213
 20
27686.4465208144
 30
0.0
 10
96644.5745581428
 20
27686.3503427722
 30
0.0
 10
96214.8398317536
 20
27686.4112645308
 30
0.0
 10
95785.1051125313
 20
27686.5930299068
 30
0.0
 10
95355.3703808591
 20
27686.7092008522
 30
0.0
 10
94925.6356329772
 20
27686.7241971955
 30
0.0
  0
SPLINE
  5
31
330
1F
100
AcDbEntity
  8
OUTER
 62
     3
370
    35
100
AcDbSpline
210
0.0
220
0.0
230
1.0
 70
     8
 71
     5
 72
    16
 73
    10
 74
     0
 42
0.0
 43
0.0
 40
0.0
 40
0.0
 40
0.0
 40
0.0
 40
0.0
 40
0.0
 40
156.6191454465333
 40
402.6740727857375
 40
968.5739329090666
 40
1042.389007299425
 40
1272.760874236391
 40
1272.760874236391
 40
1272.760874236391
 40
1272.760874236391
 40
1272.760874236391
 40
1272.760874236391
 10
94925.6356329773
 20
27686.7241971955
 30
0.0
 10
94927.4674569044
 20
27655.4539766988
 30
0.0
 10
94932.2234514693
 20
27575.059742027
 30
0.0
 10
94943.9439282676
 20
27381.6998175085
 30
0.0
 10
94956.5262498273
 20
27173.6018931424
 30
0.0
 10
94971.3927314971
 20
26919.4843605673
 30
0.0
 10
94984.7493415745
 20
26696.6556035366
 30
0.0
 10
94994.9673779144
 20
26522.9384471376
 30
0.0
 10
94998.4374733674
 20
26462.200177801
 30
0.0
 10
95000.9981241206
 20
26416.1970154015
 30
0.0
  0
ENDBLK
  5
35
330
32
100
AcDbEntity
  8
0
100
AcDbBlockEnd
  0
BLOCK
  5
39
330
37
100
AcDbEntity
  8
0
100
AcDbBlockBegin
  2
V236_LW_LRU12_261 RT_TEXT_2
 70
     0
 10
0.0
 20
0.0
 30
0.0
  3
V236_LW_LRU12_261 RT_TEXT_2
  1

  0
TEXT
  5
38
330
37
100
AcDbEntity
  8
TEXT
 62
    14
370
    13
100
AcDbText
 10
-493.148438
 20
511.814117
 30
0.0
 40
35.0
  1
V236_LW_LRU12_261 RT
 41
0.948757
 72
     5
 11
114.056152
 21
511.814117
 31
0.0
100
AcDbText
  0
ENDBLK
  5
3A
330
37
100
AcDbEntity
  8
0
100
AcDbBlockEnd
  0
BLOCK
  5
45
330
43
100
AcDbEntity
  8
0
100
AcDbBlockBegin
  2
29276884_INF_GF_HM_BI45_1000_54_CHORDWISE_V1_V236_LW_LRU12_261_R0_I30_DXF
 70
     0
 10
0.0
 20
0.0
 30
0.0
  3
29276884_INF_GF_HM_BI45_1000_54_CHORDWISE_V1_V236_LW_LRU12_261_R0_I30_DXF
  1

  0
INSERT
  5
3B
330
1F
100
AcDbEntity
  8
TEXT
 62
     7
370
     0
100
AcDbBlockReference
  2
V236_LW_LRU12_261 RT_TEXT_2
 10
96174.238281
 20
27051.442383
 30
0.0
  0
POINT
  5
3C
330
1F
100
AcDbEntity
  8
STRATEGYPOINT
 62
     7
370
     5
100
AcDbPoint
 10
96174.238281
 20
27051.442383
 30
0.0
  0
LINE
  5
3D
330
1F
100
AcDbEntity
  8
ROSETTE
 62
   150
370
    35
100
AcDbLine
 10
96274.238281
 20
27051.442383
 30
0.0
 11
96174.238281
 21
27051.442383
 31
0.0
  0
LINE
  5
3E
330
1F
100
AcDbEntity
  8
ROSETTE
 62
   150
370
    35
100
AcDbLine
 10
96174.238281
 20
27051.442383
 30
0.0
 11
96174.238281
 21
27101.442383
 31
0.0
  0
SPLINE
  5
3F
330
1F
100
AcDbEntity
  8
OUTER
 62
     3
370
    35
100
AcDbSpline
210
0.0
220
0.0
230
1.0
 70
     8
 71
     5
 72
    12
 73
     6
 74
     0
 42
0.0
 43
0.0
 40
0.0
 40
0.0
 40
0.0
 40
0.0
 40
0.0
 40
0.0
 40
1999.136251065858
 40
1999.136251065858
 40
1999.136251065858
 40
1999.136251065858
 40
1999.136251065858
 40
1999.136251065858
 10
95025.1689869533
 20
26346.1977178714
 30
0.0
 10
95424.9961376156
 20
26345.9155699987
 30
0.0
 10
95824.823479015
 20
26346.4541886048
 30
0.0
 10
96224.6506688043
 20
26346.4142901679
 30
0.0
 10
96624.4779569379
 20
26346.2654706485
 30
0.0
 10
97024.3051707607
 20
26346.4360583814
 30
0.0
  0
SPLINE
  5
40
330
1F
100
AcDbEntity
  8
OUTER
 62
     3
370
    35
100
AcDbSpline
210
0.0
220
0.0
230
1.0
 70
     8
 71
     5
 72
    12
 73
     6
 74
     0
 42
0.0
 43
0.0
 40
0.0
 40
0.0
 40
0.0
 40
0.0
 40
0.0
 40
0.0
 40
1270.01249909689
 40
1270.01249909689
 40
1270.01249909689
 40
1270.01249909689
 40
1270.01249909689
 40
1270.01249909689
 10
97024.3051707607
 20
26346.4360583814
 30
0.0
 10
97024.381836119
 20
26600.4385466313
 30
0.0
 10
97024.1883295527
 20
26854.4410333114
 30
0.0
 10
97024.1479344108
 20
27108.4434800208
 30
0.0
 10
97024.4943771337
 20
27362.4461244639
 30
0.0
 10
97024.2621427743
 20
27616.4485181176
 30
0.0
  0
SPLINE
  5
41
330
1F
100
AcDbEntity
  8
OUTER
 62
     3
370
    35
100
AcDbSpline
210
0.0
220
0.0
230
1.0
 70
     8
 71
     5
 72
    14
 73
     8
 74
     0
 42
0.0
 43
0.0
 40
0.0
 40
0.0
 40
0.0
 40
0.0
 40
0.0
 40
0.0
 40
1091.28342124655
 40
1585.865498866083
 40
2074.39451896036
 40
2074.39451896036
 40
2074.39451896036
 40
2074.39451896036
 40
2074.39451896036
 40
2074.39451896036
 10
97024.2621427742
 20
27616.4485181176
 30
0.0
 10
96806.0054622458
 20
27616.4082186059
 30
0.0
 10
96488.8323705078
 20
27616.438129961
 30
0.0
 10
96073.9534925596
 20
27616.5047516666
 30
0.0
 10
95659.0745487816
 20
27616.667200022
 30
0.0
 10
95244.1955972505
 20
27616.8586775091
 30
0.0
 10
95047.5734450018
 20
27616.7503347907
 30
0.0
 10
94949.8677011527
 20
27616.6419008195
 30
0.0
  0
SPLINE
  5
42
330
1F
100
AcDbEntity
  8
OUTER
 62
     3
370
    35
100
AcDbSpline
210
0.0
220
0.0
230
1.0
 70
     8
 71
     5
 72
    13
 73
     7
 74
     0
 42
0.0
 43
0.0
 40
0.0
 40
0.0
 40
0.0
 40
0.0
 40
0.0
 40
0.0
 40
638.7146538545471
 40
1272.674095449493
 40
1272.674095449493
 40
1272.674095449493
 40
1272.674095449493
 40
1272.674095449493
 40
1272.674095449493
 10
94949.8677011527
 20
27616.6419008194
 30
0.0
 10
94957.443407385
 20
27489.1238039194
 30
0.0
 10
94972.6238636487
 20
27235.0420772807
 30
0.0
 10
94987.8821682445
 20
26980.9649927561
 30
0.0
 10
95002.9018208238
 20
26726.8737113382
 30
0.0
 10
95017.7883481841
 20
26472.7746080008
 30
0.0
 10
95025.1689869532
 20
26346.1977178713
 30
0.0
  0
ENDBLK
  5
46
330
43
100
AcDbEntity
  8
0
100
AcDbBlockEnd
  0
BLOCK
  5
6C
330
6A
100
AcDbEntity
  8
0
100
AcDbBlockBegin
  2
V236_LW_LRU12_262 RT_TEXT_3
 70
     0
 10
0.0
 20
0.0
 30
0.0
  3
V236_LW_LRU12_262 RT_TEXT_3
  1

  0
TEXT
  5
6B
330
6A
100
AcDbEntity
  8
TEXT
 62
    14
370
    13
100
AcDbText
 10
-482.1875
 20
443.351227
 30
0.0
 40
35.0
  1
V236_LW_LRU12_262 RT
 41
0.948757
 72
     5
 11
125.01709
 21
443.351227
 31
0.0
100
AcDbText
  0
ENDBLK
  5
6D
330
6A
100
AcDbEntity
  8
0
100
AcDbBlockEnd
  0
BLOCK
  5
7D
330
7B
100
AcDbEntity
  8
0
100
AcDbBlockBegin
  2
29276884_INF_GF_HM_BI45_1000_54_CHORDWISE_V1_V236_LW_LRU12_262_R0_I30_DXF
 70
     0
 10
0.0
 20
0.0
 30
0.0
  3
29276884_INF_GF_HM_BI45_1000_54_CHORDWISE_V1_V236_LW_LRU12_262_R0_I30_DXF
  1

  0
INSERT
  5
73
330
1F
100
AcDbEntity
  8
TEXT
 62
     7
370
     0
100
AcDbBlockReference
  2
V236_LW_LRU12_262 RT_TEXT_3
 10
96174.238281
 20
27051.442383
 30
0.0
  0
POINT
  5
74
330
1F
100
AcDbEntity
  8
STRATEGYPOINT
 62
     7
370
     5
100
AcDbPoint
 10
96174.238281
 20
27051.442383
 30
0.0
  0
LINE
  5
75
330
1F
100
AcDbEntity
  8
ROSETTE
 62
   150
370
    35
100
AcDbLine
 10
96274.238281
 20
27051.442383
 30
0.0
 11
96174.238281
 21
27051.442383
 31
0.0
  0
LINE
  5
76
330
1F
100
AcDbEntity
  8
ROSETTE
 62
   150
370
    35
100
AcDbLine
 10
96174.238281
 20
27051.442383
 30
0.0
 11
96174.238281
 21
27101.442383
 31
0.0
  0
SPLINE
  5
77
330
1F
100
AcDbEntity
  8
OUTER
 62
     3
370
    35
100
AcDbSpline
210
0.0
220
0.0
230
1.0
 70
     8
 71
     5
 72
    13
 73
     7
 74
     0
 42
0.0
 43
0.0
 40
0.0
 40
0.0
 40
0.0
 40
0.0
 40
0.0
 40
0.0
 40
947.4001650669031
 40
1925.061862812626
 40
1925.061862812626
 40
1925.061862812626
 40
1925.061862812626
 40
1925.061862812626
 40
1925.061862812626
 10
95049.2184067524
 20
26276.1776220897
 30
0.0
 10
95238.6984109002
 20
26276.0730312265
 30
0.0
 10
95623.7107548694
 20
26276.0299176045
 30
0.0
 10
96008.7231399367
 20
26276.2130196958
 30
0.0
 10
96393.7355143115
 20
26276.3518619256
 30
0.0
 10
96778.7478875567
 20
26276.4284933899
 30
0.0
 10
96974.2802266781
 20
26276.4414209739
 30
0.0
  0
SPLINE
  5
78
330
1F
100
AcDbEntity
  8
OUTER
 62
     3
370
    35
100
AcDbSpline
210
0.0
220
0.0
230
1.0
 70
     8
 71
     5
 72
    12
 73
     6
 74
     0
 42
0.0
 43
0.0
 40
0.0
 40
0.0
 40
0.0
 40
0.0
 40
0.0
 40
0.0
 40
1270.017097707761
 40
1270.017097707761
 40
1270.017097707761
 40
1270.017097707761
 40
1270.017097707761
 40
1270.017097707761
 10
96974.280226678
 20
26276.4414209739
 30
0.0
 10
96974.5049109898
 20
26530.4447411413
 30
0.0
 10
96974.200926591
 20
26784.4482111203
 30
0.0
 10
96974.2373418524
 20
27038.4516571566
 30
0.0
 10
96974.6588120523
 20
27292.4553746127
 30
0.0
 10
96974.2453142124
 20
27546.4584575828
 30
0.0
  0
SPLINE
  5
79
330
1F
100
AcDbEntity
  8
OUTER
 62
     3
370
    35
100
AcDbSpline
210
0.0
220
0.0
230
1.0
 70
     8
 71
     5
 72
    12
 73
     6
 74
     0
 42
0.0
 43
0.0
 40
0.0
 40
0.0
 40
0.0
 40
0.0
 40
0.0
 40
0.0
 40
2000.160046292139
 40
2000.160046292139
 40
2000.160046292139
 40
2000.160046292139
 40
2000.160046292139
 40
2000.160046292139
 10
96974.2453142124
 20
27546.4584575828
 30
0.0
 10
96574.2133054356
 20
27546.4780620266
 30
0.0
 10
96174.1812949669
 20
27546.5939403209
 30
0.0
 10
95774.1492852057
 20
27546.7241362614
 30
0.0
 10
95374.1172818126
 20
27546.7686723479
 30
0.0
 10
94974.0852914927
 20
27546.6455807894
 30
0.0
  0
SPLINE
  5
7A
330
1F
100
AcDbEntity
  8
OUTER
 62
     3
370
    35
100
AcDbSpline
210
0.0
220
0.0
230
1.0
 70
     8
 71
     5
 72
    12
 73
     6
 74
     0
 42
0.0
 43
0.0
 40
0.0
 40
0.0
 40
0.0
 40
0.0
 40
0.0
 40
0.0
 40
1272.687919559577
 40
1272.687919559577
 40
1272.687919559577
 40
1272.687919559577
 40
1272.687919559577
 40
1272.687919559577
 10
94974.0852914928
 20
27546.6455807895
 30
0.0
 10
94989.3463192425
 20
27292.5659030196
 30
0.0
 10
95004.5301426692
 20
27038.4816048932
 30
0.0
 10
95019.434593788
 20
26784.3807733011
 30
0.0
 10
95034.2401381595
 20
26530.2741255949
 30
0.0
 10
95049.2184067523
 20
26276.1776220896
 30
0.0
  0
ENDBLK
  5
7E
330
7B
100
AcDbEntity
  8
0
100
AcDbBlockEnd
  0
BLOCK
  5
84
330
82
100
AcDbEntity
  8
0
100
AcDbBlockBegin
  2
V236_LW_LRU12_263 RT_TEXT_4
 70
     0
 10
0.0
 20
0.0
 30
0.0
  3
V236_LW_LRU12_263 RT_TEXT_4
  1

  0
TEXT
  5
83
330
82
100
AcDbEntity
  8
TEXT
 62
    14
370
    13
100
AcDbText
 10
-481.992188
 20
374.048492
 30
0.0
 40
35.0
  1
V236_LW_LRU12_263 RT
 41
0.948757
 72
     5
 11
125.212402
 21
374.048492
 31
0.0
100
AcDbText
  0
ENDBLK
  5
85
330
82
100
AcDbEntity
  8
0
100
AcDbBlockEnd
  0
BLOCK
  5
90
330
8E
100
AcDbEntity
  8
0
100
AcDbBlockBegin
  2
29276884_INF_GF_HM_BI45_1000_54_CHORDWISE_V1_V236_LW_LRU12_263_R0_I30_DXF
 70
     0
 10
0.0
 20
0.0
 30
0.0
  3
29276884_INF_GF_HM_BI45_1000_54_CHORDWISE_V1_V236_LW_LRU12_263_R0_I30_DXF
  1

  0
INSERT
  5
86
330
1F
100
AcDbEntity
  8
TEXT
 62
     7
370
     0
100
AcDbBlockReference
  2
V236_LW_LRU12_263 RT_TEXT_4
 10
96174.238281
 20
27051.442383
 30
0.0
  0
POINT
  5
87
330
1F
100
AcDbEntity
  8
STRATEGYPOINT
 62
     7
370
     5
100
AcDbPoint
 10
96174.238281
 20
27051.442383
 30
0.0
  0
LINE
  5
88
330
1F
100
AcDbEntity
  8
ROSETTE
 62
   150
370
    35
100
AcDbLine
 10
96274.238281
 20
27051.442383
 30
0.0
 11
96174.238281
 21
27051.442383
 31
0.0
  0
LINE
  5
89
330
1F
100
AcDbEntity
  8
ROSETTE
 62
   150
370
    35
100
AcDbLine
 10
96174.238281
 20
27051.442383
 30
0.0
 11
96174.238281
 21
27101.442383
 31
0.0
  0
SPLINE
  5
8A
330
1F
100
AcDbEntity
  8
OUTER
 62
     3
370
    35
100
AcDbSpline
210
0.0
220
0.0
230
1.0
 70
     8
 71
     5
 72
    18
 73
    12
 74
     0
 42
0.0
 43
0.0
 40
0.0
 40
0.0
 40
0.0
 40
0.0
 40
0.0
 40
0.0
 40
161.8170144904063
 40
403.8773680823812
 40
634.9303178299663
 40
634.9303178299663
 40
964.996870075879
 40
964.996870075879
 40
1272.647986523638
 40
1272.647986523638
 40
1272.647986523638
 40
1272.647986523638
 40
1272.647986523638
 40
1272.647986523638
 10
94998.2967722813
 20
27476.5631876664
 30
0.0
 10
95000.3233295774
 20
27444.2632973777
 30
0.0
 10
95005.2908905133
 20
27363.6407989479
 30
0.0
 10
95012.7590776298
 20
27236.8743096333
 30
0.0
 10
95020.2684874608
 20
27110.1103887167
 30
0.0
 10
95031.7108102227
 20
26917.450549141
 30
0.0
 10
95041.1661088053
 20
26757.093107665
 30
0.0
 10
95051.3507630421
 20
26583.6377246341
 30
0.0
 10
95058.7785586727
 20
26456.3106576715
 30
0.0
 10
95066.1667840882
 20
26328.9812893828
 30
0.0
 10
95069.747292941
 20
26267.5553326046
 30
0.0
 10
95073.346003528
 20
26206.1304381385
 30
0.0
  0
SPLINE
  5
8B
330
1F
100
AcDbEntity
  8
OUTER
 62
     3
370
    35
100
AcDbSpline
210
0.0
220
0.0
230
1.0
 70
     8
 71
     5
 72
    12
 73
     6
 74
     0
 42
0.0
 43
0.0
 40
0.0
 40
0.0
 40
0.0
 40
0.0
 40
0.0
 40
0.0
 40
1651.083546392041
 40
1651.083546392041
 40
1651.083546392041
 40
1651.083546392041
 40
1651.083546392041
 40
1651.083546392041
 10
95073.3460035281
 20
26206.1304381386
 30
0.0
 10
95403.5627089283
 20
26206.181052538
 30
0.0
 10
95733.7794095493
 20
26206.3027464983
 30
0.0
 10
96063.9961115043
 20
26206.4575604474
 30
0.0
 10
96394.212813388
 20
26206.5063536107
 30
0.0
 10
96724.429508943
 20
26206.4111495024
 30
0.0
  0
SPLINE
  5
8C
330
1F
100
AcDbEntity
  8
OUTER
 62
     3
370
    35
100
AcDbSpline
210
0.0
220
0.0
230
1.0
 70
     8
 71
     5
 72
    12
 73
     6
 74
     0
 42
0.0
 43
0.0
 40
0.0
 40
0.0
 40
0.0
 40
0.0
 40
0.0
 40
0.0
 40
1270.049445747104
 40
1270.049445747104
 40
1270.049445747104
 40
1270.049445747104
 40
1270.049445747104
 40
1270.049445747104
 10
96724.429508943
 20
26206.4111495024
 30
0.0
 10
96724.1093290541
 20
26460.4208368584
 30
0.0
 10
96724.5651491775
 20
26714.4310871894
 30
0.0
 10
96724.4692735213
 20
26968.4406181426
 30
0.0
 10
96724.1034765727
 20
27222.4508165873
 30
0.0
 10
96724.3807909074
 20
27476.4605543582
 30
0.0
  0
SPLINE
  5
8D
330
1F
100
AcDbEntity
  8
OUTER
 62
     3
370
    35
100
AcDbSpline
210
0.0
220
0.0
230
1.0
 70
     8
 71
     5
 72
    13
 73
     7
 74
     0
 42
0.0
 43
0.0
 40
0.0
 40
0.0
 40
0.0
 40
0.0
 40
0.0
 40
0.0
 40
868.6578755931486
 40
1726.084073773615
 40
1726.084073773615
 40
1726.084073773615
 40
1726.084073773615
 40
1726.084073773615
 40
1726.084073773615
 10
96724.3807909074
 20
27476.4605543582
 30
0.0
 10
96550.6492163731
 20
27476.4463068096
 30
0.0
 10
96205.4324581456
 20
27476.3885388342
 30
0.0
 10
95860.2154286921
 20
27476.7955649386
 30
0.0
 10
95514.9990467826
 20
27476.2480479453
 30
0.0
 10
95169.7818016273
 20
27476.8317450783
 30
0.0
 10
94998.2967722813
 20
27476.5631876664
 30
0.0
  0
ENDBLK
  5
91
330
8E
100
AcDbEntity
  8
0
100
AcDbBlockEnd
  0
BLOCK
  5
95
330
93
100
AcDbEntity
  8
0
100
AcDbBlockBegin
  2
V236_LW_LRU12_264 RT_TEXT_5
 70
     0
 10
0.0
 20
0.0
 30
0.0
  3
V236_LW_LRU12_264 RT_TEXT_5
  1

  0
TEXT
  5
94
330
93
100
AcDbEntity
  8
TEXT
 62
    14
370
    13
100
AcDbText
 10
-469.054688
 20
304.569977
 30
0.0
 40
35.0
  1
V236_LW_LRU12_264 RT
 41
0.948757
 72
     5
 11
138.149902
 21
304.569977
 31
0.0
100
AcDbText
  0
ENDBLK
  5
96
330
93
100
AcDbEntity
  8
0
100
AcDbBlockEnd
  0
BLOCK
  5
A1
330
9F
100
AcDbEntity
  8
0
100
AcDbBlockBegin
  2
29276884_INF_GF_HM_BI45_1000_54_CHORDWISE_V1_V236_LW_LRU12_264_R0_I30_DXF
 70
     0
 10
0.0
 20
0.0
 30
0.0
  3
29276884_INF_GF_HM_BI45_1000_54_CHORDWISE_V1_V236_LW_LRU12_264_R0_I30_DXF
  1

  0
INSERT
  5
97
330
1F
100
AcDbEntity
  8
TEXT
 62
     7
370
     0
100
AcDbBlockReference
  2
V236_LW_LRU12_264 RT_TEXT_5
 10
96174.238281
 20
27051.442383
 30
0.0
  0
POINT
  5
98
330
1F
100
AcDbEntity
  8
STRATEGYPOINT
 62
     7
370
     5
100
AcDbPoint
 10
96174.238281
 20
27051.442383
 30
0.0
  0
LINE
  5
99
330
1F
100
AcDbEntity
  8
ROSETTE
 62
   150
370
    35
100
AcDbLine
 10
96274.238281
 20
27051.442383
 30
0.0
 11
96174.238281
 21
27051.442383
 31
0.0
  0
LINE
  5
9A
330
1F
100
AcDbEntity
  8
ROSETTE
 62
   150
370
    35
100
AcDbLine
 10
96174.238281
 20
27051.442383
 30
0.0
 11
96174.238281
 21
27101.442383
 31
0.0
  0
SPLINE
  5
9B
330
1F
100
AcDbEntity
  8
OUTER
 62
     3
370
    35
100
AcDbSpline
210
0.0
220
0.0
230
1.0
 70
     8
 71
     5
 72
    12
 73
     6
 74
     0
 42
0.0
 43
0.0
 40
0.0
 40
0.0
 40
0.0
 40
0.0
 40
0.0
 40
0.0
 40
1606.994839969848
 40
1606.994839969848
 40
1606.994839969848
 40
1606.994839969848
 40
1606.994839969848
 40
1606.994839969848
 10
95097.3721846734
 20
26136.1309008899
 30
0.0
 10
95418.770907508
 20
26136.5278769017
 30
0.0
 10
95740.1703704513
 20
26135.7979634416
 30
0.0
 10
96061.5689577775
 20
26136.4786934677
 30
0.0
 10
96382.9679978192
 20
26136.3570909046
 30
0.0
 10
96704.3669635237
 20
26136.3954548484
 30
0.0
  0
SPLINE
  5
9C
330
1F
100
AcDbEntity
  8
OUTER
 62
     3
370
    35
100
AcDbSpline
210
0.0
220
0.0
230
1.0
 70
     8
 71
     5
 72
    13
 73
     7
 74
     0
 42
0.0
 43
0.0
 40
0.0
 40
0.0
 40
0.0
 40
0.0
 40
0.0
 40
0.0
 40
644.0929971045055
 40
1270.051891105077
 40
1270.051891105077
 40
1270.051891105077
 40
1270.051891105077
 40
1270.051891105077
 40
1270.051891105077
 10
96704.3669635237
 20
26136.3954548484
 30
0.0
 10
96704.4779869417
 20
26265.2140064263
 30
0.0
 10
96704.5321384529
 20
26519.2243582873
 30
0.0
 10
96704.3497794039
 20
26773.2348015899
 30
0.0
 10
96704.534218792
 20
27027.2452513028
 30
0.0
 10
96704.4586887991
 20
27281.2555948482
 30
0.0
 10
96704.3430449283
 20
27406.4473202362
 30
0.0
  0
SPLINE
  5
9D
330
1F
100
AcDbEntity
  8
OUTER
 62
     3
370
    35
100
AcDbSpline
210
0.0
220
0.0
230
1.0
 70
     8
 71
     5
 72
    12
 73
     6
 74
     0
 42
0.0
 43
0.0
 40
0.0
 40
0.0
 40
0.0
 40
0.0
 40
0.0
 40
0.0
 40
1681.774283607532
 40
1681.774283607532
 40
1681.774283607532
 40
1681.774283607532
 40
1681.774283607532
 40
1681.774283607532
 10
96704.3430449281
 20
27406.4473202362
 30
0.0
 10
96367.9881886981
 20
27406.4654982973
 30
0.0
 10
96031.6333440138
 20
27406.4945449533
 30
0.0
 10
95695.2785108524
 20
27406.5344384918
 30
0.0
 10
95358.9236661659
 20
27406.5634447668
 30
0.0
 10
95022.5688099315
 20
27406.5815420659
 30
0.0
  0
SPLINE
  5
9E
330
1F
100
AcDbEntity
  8
OUTER
 62
     3
370
    35
100
AcDbSpline
210
0.0
220
0.0
230
1.0
 70
     8
 71
     5
 72
    15
 73
     9
 74
     0
 42
0.0
 43
0.0
 40
0.0
 40
0.0
 40
0.0
 40
0.0
 40
0.0
 40
0.0
 40
323.2026603307045
 40
475.20247629997
 40
638.0558071112666
 40
1272.651347774217
 40
1272.651347774217
 40
1272.651347774217
 40
1272.651347774217
 40
1272.651347774217
 40
1272.651347774217
 10
95022.5688099313
 20
27406.5815420659
 30
0.0
 10
95026.6076173523
 20
27342.0673078196
 30
0.0
 10
95032.3293754854
 20
27247.1992661847
 30
0.0
 10
95039.7386231029
 20
27119.8029660105
 30
0.0
 10
95054.7717947053
 20
26865.7170026713
 30
0.0
 10
95069.773986393
 20
26611.6293455357
 30
0.0
 10
95080.8468581672
 20
26422.0626263577
 30
0.0
 10
95089.9027090603
 20
26262.8300206312
 30
0.0
 10
95097.3721846734
 20
26136.1309008898
 30
0.0
  0
ENDBLK
  5
A2
330
9F
100
AcDbEntity
  8
0
100
AcDbBlockEnd
  0
BLOCK
  5
A6
330
A4
100
AcDbEntity
  8
0
100
AcDbBlockBegin
  2
V236_LW_LRU12_265 RT_TEXT_6
 70
     0
 10
0.0
 20
0.0
 30
0.0
  3
V236_LW_LRU12_265 RT_TEXT_6
  1

  0
TEXT
  5
A5
330
A4
100
AcDbEntity
  8
TEXT
 62
    14
370
    13
100
AcDbText
 10
-464.304688
 20
233.569992
 30
0.0
 40
35.0
  1
V236_LW_LRU12_265 RT
 41
0.948757
 72
     5
 11
142.899902
 21
233.569992
 31
0.0
100
AcDbText
  0
ENDBLK
  5
A7
330
A4
100
AcDbEntity
  8
0
100
AcDbBlockEnd
  0
BLOCK
  5
B2
330
B0
100
AcDbEntity
  8
0
100
AcDbBlockBegin
  2
29276884_INF_GF_HM_BI45_1000_54_CHORDWISE_V1_V236_LW_LRU12_265_R0_I30_DXF
 70
     0
 10
0.0
 20
0.0
 30
0.0
  3
29276884_INF_GF_HM_BI45_1000_54_CHORDWISE_V1_V236_LW_LRU12_265_R0_I30_DXF
  1

  0
INSERT
  5
A8
330
1F
100
AcDbEntity
  8
TEXT
 62
     7
370
     0
100
AcDbBlockReference
  2
V236_LW_LRU12_265 RT_TEXT_6
 10
96174.238281
 20
27051.442383
 30
0.0
  0
POINT
  5
A9
330
1F
100
AcDbEntity
  8
STRATEGYPOINT
 62
     7
370
     5
100
AcDbPoint
 10
96174.238281
 20
27051.442383
 30
0.0
  0
LINE
  5
AA
330
1F
100
AcDbEntity
  8
ROSETTE
 62
   150
370
    35
100
AcDbLine
 10
96274.238281
 20
27051.442383
 30
0.0
 11
96174.238281
 21
27051.442383
 31
0.0
  0
LINE
  5
AB
330
1F
100
AcDbEntity
  8
ROSETTE
 62
   150
370
    35
100
AcDbLine
 10
96174.238281
 20
27051.442383
 30
0.0
 11
96174.238281
 21
27101.442383
 31
0.0
  0
SPLINE
  5
AC
330
1F
100
AcDbEntity
  8
OUTER
 62
     3
370
    35
100
AcDbSpline
210
0.0
220
0.0
230
1.0
 70
     8
 71
     5
 72
    14
 73
     8
 74
     0
 42
0.0
 43
0.0
 40
0.0
 40
0.0
 40
0.0
 40
0.0
 40
0.0
 40
0.0
 40
785.4489779520006
 40
1182.370141328107
 40
1562.990774852275
 40
1562.990774852275
 40
1562.990774852275
 40
1562.990774852275
 40
1562.990774852275
 40
1562.990774852275
 10
95121.4822940822
 20
26066.1158157701
 30
0.0
 10
95278.5720743457
 20
26066.1852114862
 30
0.0
 10
95515.0460947175
 20
26066.209914459
 30
0.0
 10
95827.644215837
 20
26066.2627667759
 30
0.0
 10
96140.2423588046
 20
26066.330582895
 30
0.0
 10
96452.8406988861
 20
26066.1694036158
 30
0.0
 10
96608.3489669954
 20
26066.2933804788
 30
0.0
 10
96684.4729911395
 20
26066.418339191
 30
0.0
  0
SPLINE
  5
AD
330
1F
100
AcDbEntity
  8
OUTER
 62
     3
370
    35
100
AcDbSpline
210
0.0
220
0.0
230
1.0
 70
     8
 71
     5
 72
    12
 73
     6
 74
     0
 42
0.0
 43
0.0
 40
0.0
 40
0.0
 40
0.0
 40
0.0
 40
0.0
 40
0.0
 40
1270.054460126074
 40
1270.054460126074
 40
1270.054460126074
 40
1270.054460126074
 40
1270.054460126074
 40
1270.054460126074
 10
96684.4729911395
 20
26066.418339191
 30
0.0
 10
96684.4067472339
 20
26320.4292225783
 30
0.0
 10
96684.3737267421
 20
26574.4401111989
 30
0.0
 10
96684.3739114283
 20
26828.4510050492
 30
0.0
 10
96684.3731921418
 20
27082.461897986
 30
0.0
 10
96684.371550647
 20
27336.4727900059
 30
0.0
  0
SPLINE
  5
AE
330
1F
100
AcDbEntity
  8
OUTER
 62
     3
370
    35
100
AcDbSpline
210
0.0
220
0.0
230
1.0
 70
     8
 71
     5
 72
    12
 73
     6
 74
     0
 42
0.0
 43
0.0
 40
0.0
 40
0.0
 40
0.0
 40
0.0
 40
0.0
 40
0.0
 40
1637.583588171123
 40
1637.583588171123
 40
1637.583588171123
 40
1637.583588171123
 40
1637.583588171123
 40
1637.583588171123
 10
96684.3715506471
 20
27336.4727900059
 30
0.0
 10
96356.8549684809
 20
27336.1749055117
 30
0.0
 10
96029.3380203421
 20
27336.8181500349
 30
0.0
 10
95701.8214656852
 20
27336.4087559736
 30
0.0
 10
95374.3047182582
 20
27336.5314273321
 30
0.0
 10
95046.7880012129
 20
27336.5510697286
 30
0.0
  0
SPLINE
  5
AF
330
1F
100
AcDbEntity
  8
OUTER
 62
     3
370
    35
100
AcDbSpline
210
0.0
220
0.0
230
1.0
 70
     8
 71
     5
 72
    18
 73
    12
 74
     0
 42
0.0
 43
0.0
 40
0.0
 40
0.0
 40
0.0
 40
0.0
 40
0.0
 40
0.0
 40
157.0839827044254
 40
307.0389378169076
 40
639.0780777853495
 40
724.7637231780066
 40
800.1589436669362
 40
1121.050883113051
 40
1272.629623887452
 40
1272.629623887452
 40
1272.629623887452
 40
1272.629623887452
 40
1272.629623887452
 40
1272.629623887452
 10
95046.788001213
 20
27336.5510697287
 30
0.0
 10
95048.721935617
 20
27305.1938536117
 30
0.0
 10
95052.4646070897
 20
27243.9002523839
 30
0.0
 10
95060.1015898158
 20
27116.3130224702
 30
0.0
 10
95068.5860431338
 20
26971.6085930843
 30
0.0
 10
95078.0016362173
 20
26811.8540150629
 30
0.0
 10
95089.3111906106
 20
26619.3926716642
 30
0.0
 10
95100.6279957423
 20
26426.6063730898
 30
0.0
 10
95108.0789604541
 20
26300.1151693426
 30
0.0
 10
95114.4856022568
 20
26190.729368767
 30
0.0
 10
95119.7988000418
 20
26096.3847839389
 30
0.0
 10
95121.4822940822
 20
26066.1158157701
 30
0.0
  0
ENDBLK
  5
B3
330
B0
100
AcDbEntity
  8
0
100
AcDbBlockEnd
  0
BLOCK
  5
B7
330
B5
100
AcDbEntity
  8
0
100
AcDbBlockBegin
  2
V236_LW_LRU12_266 RT_TEXT_7
 70
     0
 10
0.0
 20
0.0
 30
0.0
  3
V236_LW_LRU12_266 RT_TEXT_7
  1

  0
TEXT
  5
B6
330
B5
100
AcDbEntity
  8
TEXT
 62
    14
370
    13
100
AcDbText
 10
-451.335938
 20
161.925461
 30
0.0
 40
35.0
  1
V236_LW_LRU12_266 RT
 41
0.948757
 72
     5
 11
155.868652
 21
161.925461
 31
0.0
100
AcDbText
  0
ENDBLK
  5
B8
330
B5
100
AcDbEntity
  8
0
100
AcDbBlockEnd
  0
BLOCK
  5
C3
330
C1
100
AcDbEntity
  8
0
100
AcDbBlockBegin
  2
29276884_INF_GF_HM_BI45_1000_54_CHORDWISE_V1_V236_LW_LRU12_266_R0_I30_DXF
 70
     0
 10
0.0
 20
0.0
 30
0.0
  3
29276884_INF_GF_HM_BI45_1000_54_CHORDWISE_V1_V236_LW_LRU12_266_R0_I30_DXF
  1

  0
INSERT
  5
B9
330
1F
100
AcDbEntity
  8
TEXT
 62
     7
370
     0
100
AcDbBlockReference
  2
V236_LW_LRU12_266 RT_TEXT_7
 10
96174.238281
 20
27051.442383
 30
0.0
  0
POINT
  5
BA
330
1F
100
AcDbEntity
  8
STRATEGYPOINT
 62
     7
370
     5
100
AcDbPoint
 10
96174.238281
 20
27051.442383
 30
0.0
  0
LINE
  5
BB
330
1F
100
AcDbEntity
  8
ROSETTE
 62
   150
370
    35
100
AcDbLine
 10
96274.238281
 20
27051.442383
 30
0.0
 11
96174.238281
 21
27051.442383
 31
0.0
  0
LINE
  5
BC
330
1F
100
AcDbEntity
  8
ROSETTE
 62
   150
370
    35
100
AcDbLine
 10
96174.238281
 20
27051.442383
 30
0.0
 11
96174.238281
 21
27101.442383
 31
0.0
  0
SPLINE
  5
BD
330
1F
100
AcDbEntity
  8
OUTER
 62
     3
370
    35
100
AcDbSpline
210
0.0
220
0.0
230
1.0
 70
     8
 71
     5
 72
    12
 73
     6
 74
     0
 42
0.0
 43
0.0
 40
0.0
 40
0.0
 40
0.0
 40
0.0
 40
0.0
 40
0.0
 40
1518.932385402999
 40
1518.932385402999
 40
1518.932385402999
 40
1518.932385402999
 40
1518.932385402999
 40
1518.932385402999
 10
95145.5603259033
 20
25996.1088955058
 30
0.0
 10
95449.3467986025
 20
25996.1604916335
 30
0.0
 10
95753.1332607663
 20
25996.2159819615
 30
0.0
 10
96056.9197123993
 20
25996.2753666119
 30
0.0
 10
96360.7061729269
 20
25996.3391550874
 30
0.0
 10
96664.4926423539
 20
25996.4073475101
 30
0.0
  0
SPLINE
  5
BE
330
1F
100
AcDbEntity
  8
OUTER
 62
     3
370
    35
100
AcDbSpline
210
0.0
220
0.0
230
1.0
 70
     8
 71
     5
 72
    12
 73
     6
 74
     0
 42
0.0
 43
0.0
 40
0.0
 40
0.0
 40
0.0
 40
0.0
 40
0.0
 40
0.0
 40
1270.056418938597
 40
1270.056418938597
 40
1270.056418938597
 40
1270.056418938597
 40
1270.056418938597
 40
1270.056418938597
 10
96664.4926423539
 20
25996.4073475101
 30
0.0
 10
96664.7599420754
 20
26250.4184906569
 30
0.0
 10
96664.3797669142
 20
26504.4298814841
 30
0.0
 10
96664.3331704473
 20
26758.4411564316
 30
0.0
 10
96664.3767014541
 20
27012.4524253923
 30
0.0
 10
96664.3619193927
 20
27266.4637087498
 30
0.0
  0
SPLINE
  5
BF
330
1F
100
AcDbEntity
  8
OUTER
 62
     3
370
    35
100
AcDbSpline
210
0.0
220
0.0
230
1.0
 70
     8
 71
     5
 72
    12
 73
     6
 74
     0
 42
0.0
 43
0.0
 40
0.0
 40
0.0
 40
0.0
 40
0.0
 40
0.0
 40
0.0
 40
1593.341552349914
 40
1593.341552349914
 40
1593.341552349914
 40
1593.341552349914
 40
1593.341552349914
 40
1593.341552349914
 10
96664.3619193927
 20
27266.4637087498
 30
0.0
 10
96345.693609129
 20
27266.4751596872
 30
0.0
 10
96027.0251329337
 20
27266.2362227477
 30
0.0
 10
95708.3574824552
 20
27267.1124007897
 30
0.0
 10
95389.688354937
 20
27266.0774800044
 30
0.0
 10
95071.0204078695
 20
27266.5587405254
 30
0.0
  0
SPLINE
  5
C0
330
1F
100
AcDbEntity
  8
OUTER
 62
     3
370
    35
100
AcDbSpline
210
0.0
220
0.0
230
1.0
 70
     8
 71
     5
 72
    13
 73
     7
 74
     0
 42
0.0
 43
0.0
 40
0.0
 40
0.0
 40
0.0
 40
0.0
 40
0.0
 40
0.0
 40
310.5577073126004
 40
1272.634978045082
 40
1272.634978045082
 40
1272.634978045082
 40
1272.634978045082
 40
1272.634978045082
 40
1272.634978045082
 10
95071.0204078695
 20
27266.5587405254
 30
0.0
 10
95074.7938549432
 20
27204.5619286718
 30
0.0
 10
95090.1276747687
 20
26950.4973116248
 30
0.0
 10
95104.9444934133
 20
26696.4016367262
 30
0.0
 10
95119.7490052717
 20
26442.3054386185
 30
0.0
 10
95134.4728688135
 20
26188.2046406166
 30
0.0
 10
95145.5603259034
 20
25996.1088955058
 30
0.0
  0
ENDBLK
  5
C4
330
C1
100
AcDbEntity
  8
0
100
AcDbBlockEnd
  0
BLOCK
  5
C8
330
C6
100
AcDbEntity
  8
0
100
AcDbBlockBegin
  2
V236_LW_LRU12_267 RT_TEXT_8
 70
     0
 10
0.0
 20
0.0
 30
0.0
  3
V236_LW_LRU12_267 RT_TEXT_8
  1

  0
TEXT
  5
C7
330
C6
100
AcDbEntity
  8
TEXT
 62
    14
370
    13
100
AcDbText
 10
-446.523438
 20
92.476234
 30
0.0
 40
35.0
  1
V236_LW_LRU12_267 RT
 41
0.948757
 72
     5
 11
160.681152
 21
92.476234
 31
0.0
100
AcDbText
  0
ENDBLK
  5
C9
330
C6
100
AcDbEntity
  8
0
100
AcDbBlockEnd
  0
BLOCK
  5
D4
330
D2
100
AcDbEntity
  8
0
100
AcDbBlockBegin
  2
29276884_INF_GF_HM_BI45_1000_54_CHORDWISE_V1_V236_LW_LRU12_267_R0_I30_DXF
 70
     0
 10
0.0
 20
0.0
 30
0.0
  3
29276884_INF_GF_HM_BI45_1000_54_CHORDWISE_V1_V236_LW_LRU12_267_R0_I30_DXF
  1

  0
INSERT
  5
CA
330
1F
100
AcDbEntity
  8
TEXT
 62
     7
370
     0
100
AcDbBlockReference
  2
V236_LW_LRU12_267 RT_TEXT_8
 10
96174.238281
 20
27051.442383
 30
0.0
  0
POINT
  5
CB
330
1F
100
AcDbEntity
  8
STRATEGYPOINT
 62
     7
370
     5
100
AcDbPoint
 10
96174.238281
 20
27051.442383
 30
0.0
  0
LINE
  5
CC
330
1F
100
AcDbEntity
  8
ROSETTE
 62
   150
370
    35
100
AcDbLine
 10
96274.238281
 20
27051.442383
 30
0.0
 11
96174.238281
 21
27051.442383
 31
0.0
  0
LINE
  5
CD
330
1F
100
AcDbEntity
  8
ROSETTE
 62
   150
370
    35
100
AcDbLine
 10
96174.238281
 20
27051.442383
 30
0.0
 11
96174.238281
 21
27101.442383
 31
0.0
  0
SPLINE
  5
CE
330
1F
100
AcDbEntity
  8
OUTER
 62
     3
370
    35
100
AcDbSpline
210
0.0
220
0.0
230
1.0
 70
     8
 71
     5
 72
    12
 73
     6
 74
     0
 42
0.0
 43
0.0
 40
0.0
 40
0.0
 40
0.0
 40
0.0
 40
0.0
 40
0.0
 40
1474.920574186702
 40
1474.920574186702
 40
1474.920574186702
 40
1474.920574186702
 40
1474.920574186702
 40
1474.920574186702
 10
95169.5566219688
 20
25926.0798570081
 30
0.0
 10
95464.5407290669
 20
25926.1474300552
 30
0.0
 10
95759.5248350947
 20
25926.2120384327
 30
0.0
 10
96054.5089400532
 20
25926.2736813316
 30
0.0
 10
96349.4930478347
 20
25926.3294871566
 30
0.0
 10
96644.4771584402
 20
25926.3794550986
 30
0.0
  0
SPLINE
  5
CF
330
1F
100
AcDbEntity
  8
OUTER
 62
     3
370
    35
100
AcDbSpline
210
0.0
220
0.0
230
1.0
 70
     8
 71
     5
 72
    12
 73
     6
 74
     0
 42
0.0
 43
0.0
 40
0.0
 40
0.0
 40
0.0
 40
0.0
 40
0.0
 40
0.0
 40
1270.058745398682
 40
1270.058745398682
 40
1270.058745398682
 40
1270.058745398682
 40
1270.058745398682
 40
1270.058745398682
 10
96644.4771584402
 20
25926.3794550986
 30
0.0
 10
96644.4370098855
 20
26180.3912010057
 30
0.0
 10
96644.348538997
 20
26434.4029669972
 30
0.0
 10
96644.5690954734
 20
26688.4145949318
 30
0.0
 10
96644.1223672282
 20
26942.4265700948
 30
0.0
 10
96644.3792580373
 20
27196.4381892734
 30
0.0
  0
SPLINE
  5
D0
330
1F
100
AcDbEntity
  8
OUTER
 62
     3
370
    35
100
AcDbSpline
210
0.0
220
0.0
230
1.0
 70
     8
 71
     5
 72
    16
 73
    10
 74
     0
 42
0.0
 43
0.0
 40
0.0
 40
0.0
 40
0.0
 40
0.0
 40
0.0
 40
0.0
 40
559.7528739990652
 40
559.7528739990652
 40
559.7528739990652
 40
1503.569436085133
 40
1549.160714115593
 40
1549.160714115593
 40
1549.160714115593
 40
1549.160714115593
 40
1549.160714115593
 40
1549.160714115593
 10
96644.3792580373
 20
27196.4381892734
 30
0.0
 10
96532.4286832715
 20
27196.4409436324
 30
0.0
 10
96420.4781111885
 20
27196.4470968703
 30
0.0
 10
96308.5275421345
 20
27196.4568565677
 30
0.0
 10
96007.8136754813
 20
27196.4868569525
 30
0.0
 10
95697.9815462834
 20
27196.5080083862
 30
0.0
 10
95500.0998568427
 20
27196.3924305494
 30
0.0
 10
95302.2180351237
 20
27196.1575134375
 30
0.0
 10
95104.3368343353
 20
27196.5268102174
 30
0.0
 10
95095.2185968368
 20
27196.5449821411
 30
0.0
  0
SPLINE
  5
D1
330
1F
100
AcDbEntity
  8
OUTER
 62
     3
370
    35
100
AcDbSpline
210
0.0
220
0.0
230
1.0
 70
     8
 71
     5
 72
    13
 73
     7
 74
     0
 42
0.0
 43
0.0
 40
0.0
 40
0.0
 40
0.0
 40
0.0
 40
0.0
 40
0.0
 40
478.5189231113646
 40
1272.638588890445
 40
1272.638588890445
 40
1272.638588890445
 40
1272.638588890445
 40
1272.638588890445
 40
1272.638588890445
 10
95095.2185968368
 20
27196.5449821411
 30
0.0
 10
95101.1204640616
 20
27101.023349229
 30
0.0
 10
95116.1535014685
 20
26846.9398936707
 30
0.0
 10
95130.7916696452
 20
26592.8326571395
 30
0.0
 10
95145.7167954671
 20
26338.7436970077
 30
0.0
 10
95160.7343441196
 20
26084.6585729716
 30
0.0
 10
95169.5566219688
 20
25926.0798570081
 30
0.0
  0
ENDBLK
  5
D5
330
D2
100
AcDbEntity
  8
0
100
AcDbBlockEnd
  0
BLOCK
  5
DA
330
D8
100
AcDbEntity
  8
0
100
AcDbBlockBegin
  2
V236_LW_LRU12_268 RT_TEXT_9
 70
     0
 10
0.0
 20
0.0
 30
0.0
  3
V236_LW_LRU12_268 RT_TEXT_9
  1

  0
TEXT
  5
D9
330
D8
100
AcDbEntity
  8
TEXT
 62
    14
370
    13
100
AcDbText
 10
-430.671875
 20
5.027018
 30
0.0
 40
35.0
  1
V236_LW_LRU12_268 RT
 41
0.948757
 72
     5
 11
176.532715
 21
5.027018
 31
0.0
100
AcDbText
  0
ENDBLK
  5
DB
330
D8
100
AcDbEntity
  8
0
100
AcDbBlockEnd
  0
BLOCK
  5
ED
330
EB
100
AcDbEntity
  8
0
100
AcDbBlockBegin
  2
29276884_INF_GF_HM_BI45_1000_54_CHORDWISE_V1_V236_LW_LRU12_268_R1_I4_DXF
 70
     0
 10
0.0
 20
0.0
 30
0.0
  3
29276884_INF_GF_HM_BI45_1000_54_CHORDWISE_V1_V236_LW_LRU12_268_R1_I4_DXF
  1

  0
INSERT
  5
DC
330
1F
100
AcDbEntity
  8
TEXT
 62
     7
370
     0
100
AcDbBlockReference
  2
V236_LW_LRU12_268 RT_TEXT_9
 10
96174.238281
 20
27051.442383
 30
0.0
  0
POINT
  5
DD
330
1F
100
AcDbEntity
  8
STRATEGYPOINT
 62
     7
370
     5
100
AcDbPoint
 10
96174.238281
 20
27051.442383
 30
0.0
  0
LINE
  5
DE
330
1F
100
AcDbEntity
  8
MARKERS
 62
     5
370
    35
100
AcDbLine
 10
97002.238281
 20
27051.442383
 30
0.0
 11
94993.238281
 21
27051.442383
 31
0.0
  0
LINE
  5
DF
330
1F
100
AcDbEntity
  8
MARKERS
 62
     5
370
    35
100
AcDbLine
 10
97001.238281
 20
26751.442383
 30
0.0
 11
95010.238281
 21
26751.442383
 31
0.0
  0
LINE
  5
E0
330
1F
100
AcDbEntity
  8
MARKERS
 62
     5
370
    35
100
AcDbLine
 10
97001.238281
 20
26451.442383
 30
0.0
 11
95029.238281
 21
26451.442383
 31
0.0
  0
LINE
  5
E1
330
1F
100
AcDbEntity
  8
MARKERS
 62
     5
370
    35
100
AcDbLine
 10
96674.238281
 20
26151.442383
 30
0.0
 11
95127.238281
 21
26151.442383
 31
0.0
  0
LINE
  5
E2
330
1F
100
AcDbEntity
  8
MARKERS
 62
     5
370
    35
100
AcDbLine
 10
96609.238281
 20
25951.442383
 30
0.0
 11
95204.238281
 21
25951.442383
 31
0.0
  0
LINE
  5
E3
330
1F
100
AcDbEntity
  8
MARKERS
 62
     5
370
    35
100
AcDbLine
 10
97002.238281
 20
27351.442383
 30
0.0
 11
94975.238281
 21
27351.442383
 31
0.0
  0
LINE
  5
E4
330
1F
100
AcDbEntity
  8
MARKERS
 62
     5
370
    35
100
AcDbLine
 10
97004.238281
 20
27551.442383
 30
0.0
 11
94964.238281
 21
27551.442383
 31
0.0
  0
LINE
  5
E5
330
1F
100
AcDbEntity
  8
ROSETTE
 62
   150
370
    35
100
AcDbLine
 10
96274.238281
 20
27051.442383
 30
0.0
 11
96174.238281
 21
27051.442383
 31
0.0
  0
LINE
  5
E6
330
1F
100
AcDbEntity
  8
ROSETTE
 62
   150
370
    35
100
AcDbLine
 10
96174.238281
 20
27051.442383
 30
0.0
 11
96174.238281
 21
27101.442383
 31
0.0
  0
SPLINE
  5
E7
330
1F
100
AcDbEntity
  8
OUTER
 62
     3
370
    35
100
AcDbSpline
210
0.0
220
0.0
230
1.0
 70
     8
 71
     5
 72
    12
 73
     6
 74
     0
 42
0.0
 43
0.0
 40
0.0
 40
0.0
 40
0.0
 40
0.0
 40
0.0
 40
0.0
 40
1430.873756550202
 40
1430.873756550202
 40
1430.873756550202
 40
1430.873756550202
 40
1430.873756550202
 40
1430.873756550202
 10
95193.6330164522
 20
25856.0634025179
 30
0.0
 10
95479.8077600653
 20
25856.1297766728
 30
0.0
 10
95765.9825054504
 20
25856.2567236491
 30
0.0
 10
96052.1572524916
 20
25856.4415827599
 30
0.0
 10
96338.3319929162
 20
25856.4851376968
 30
0.0
 10
96624.5067266043
 20
25856.3847087509
 30
0.0
  0
SPLINE
  5
E8
330
1F
100
AcDbEntity
  8
OUTER
 62
     3
370
    35
100
AcDbSpline
210
0.0
220
0.0
230
1.0
 70
     8
 71
     5
 72
    12
 73
     6
 74
     0
 42
0.0
 43
0.0
 40
0.0
 40
0.0
 40
0.0
 40
0.0
 40
0.0
 40
0.0
 40
1270.061835890578
 40
1270.061835890578
 40
1270.061835890578
 40
1270.061835890578
 40
1270.061835890578
 40
1270.061835890578
 10
96624.5067266043
 20
25856.3847087508
 30
0.0
 10
96624.3889148365
 20
26110.3970486084
 30
0.0
 10
96624.3351532865
 20
26364.4094069008
 30
0.0
 10
96624.3433596452
 20
26618.4217827562
 30
0.0
 10
96624.3608429134
 20
26872.4341541091
 30
0.0
 10
96624.3855207576
 20
27126.4465200883
 30
0.0
  0
SPLINE
  5
E9
330
1F
100
AcDbEntity
  8
OUTER
 62
     3
370
    35
100
AcDbSpline
210
0.0
220
0.0
230
1.0
 70
     8
 71
     5
 72
    12
 73
     6
 74
     0
 42
0.0
 43
0.0
 40
0.0
 40
0.0
 40
0.0
 40
0.0
 40
0.0
 40
0.0
 40
1504.933968409442
 40
1504.933968409442
 40
1504.933968409442
 40
1504.933968409442
 40
1504.933968409442
 40
1504.933968409442
 10
96624.3855207576
 20
27126.4465200883
 30
0.0
 10
96323.3987696443
 20
27126.606595702
 30
0.0
 10
96022.4119826297
 20
27126.6306362207
 30
0.0
 10
95721.4251603312
 20
27126.5210249848
 30
0.0
 10
95420.4383520494
 20
27126.4670475605
 30
0.0
 10
95119.4515583944
 20
27126.4710540106
 30
0.0
  0
SPLINE
  5
EA
330
1F
100
AcDbEntity
  8
OUTER
 62
     3
370
    35
100
AcDbSpline
210
0.0
220
0.0
230
1.0
 70
     8
 71
     5
 72
    13
 73
     7
 74
     0
 42
0.0
 43
0.0
 40
0.0
 40
0.0
 40
0.0
 40
0.0
 40
0.0
 40
0.0
 40
949.9757798476984
 40
1272.57189776488
 40
1272.57189776488
 40
1272.57189776488
 40
1272.57189776488
 40
1272.57189776488
 40
1272.57189776488
 10
95119.4515583944
 20
27126.4710540106
 30
0.0
 10
95130.555347612
 20
26936.8006420934
 30
0.0
 10
95145.6801517578
 20
26682.7360201787
 30
0.0
 10
95160.6845425258
 20
26428.6642428757
 30
0.0
 10
95175.0580087149
 20
26174.5557555045
 30
0.0
 10
95189.8520933736
 20
25920.47174695
 30
0.0
 10
95193.6330164522
 20
25856.0634025179
 30
0.0
  0
ENDBLK
  5
EE
330
EB
100
AcDbEntity
  8
0
100
AcDbBlockEnd
  0
ENDSEC
  0
SECTION
  2
ENTITIES
  0
INSERT
  5
36
330
32
100
AcDbEntity
  8
0
100
AcDbBlockReference
  2
29276884_INF_GF_HM_BI45_1000_54_CHORDWISE_V1_V236_LW_LRU12_260_R0_I30_DXF
 10
0.0
 20
0.0
 30
0.0
  0
INSERT
  5
69
330
43
100
AcDbEntity
  8
0
100
AcDbBlockReference
  2
29276884_INF_GF_HM_BI45_1000_54_CHORDWISE_V1_V236_LW_LRU12_261_R0_I30_DXF
 10
0.0
 20
0.0
 30
0.0
  0
INSERT
  5
81
330
7B
100
AcDbEntity
  8
0
100
AcDbBlockReference
  2
29276884_INF_GF_HM_BI45_1000_54_CHORDWISE_V1_V236_LW_LRU12_262_R0_I30_DXF
 10
0.0
 20
0.0
 30
0.0
  0
INSERT
  5
92
330
8E
100
AcDbEntity
  8
0
100
AcDbBlockReference
  2
29276884_INF_GF_HM_BI45_1000_54_CHORDWISE_V1_V236_LW_LRU12_263_R0_I30_DXF
 10
0.0
 20
0.0
 30
0.0
  0
INSERT
  5
A3
330
9F
100
AcDbEntity
  8
0
100
AcDbBlockReference
  2
29276884_INF_GF_HM_BI45_1000_54_CHORDWISE_V1_V236_LW_LRU12_264_R0_I30_DXF
 10
0.0
 20
0.0
 30
0.0
  0
INSERT
  5
B4
330
B0
100
AcDbEntity
  8
0
100
AcDbBlockReference
  2
29276884_INF_GF_HM_BI45_1000_54_CHORDWISE_V1_V236_LW_LRU12_265_R0_I30_DXF
 10
0.0
 20
0.0
 30
0.0
  0
INSERT
  5
C5
330
C1
100
AcDbEntity
  8
0
100
AcDbBlockReference
  2
29276884_INF_GF_HM_BI45_1000_54_CHORDWISE_V1_V236_LW_LRU12_266_R0_I30_DXF
 10
0.0
 20
0.0
 30
0.0
  0
INSERT
  5
D6
330
D2
100
AcDbEntity
  8
0
100
AcDbBlockReference
  2
29276884_INF_GF_HM_BI45_1000_54_CHORDWISE_V1_V236_LW_LRU12_267_R0_I30_DXF
 10
0.0
 20
0.0
 30
0.0
  0
INSERT
  5
EF
330
EB
100
AcDbEntity
  8
0
100
AcDbBlockReference
  2
29276884_INF_GF_HM_BI45_1000_54_CHORDWISE_V1_V236_LW_LRU12_268_R1_I4_DXF
 10
0.0
 20
0.0
 30
0.0
  0
ENDSEC
  0
SECTION
  2
OBJECTS
  0
DICTIONARY
  5
C
330
0
100
AcDbDictionary
281
     1
  3
ACAD_GROUP
350
D
  3
ACAD_LAYOUT
350
1A
  3
ACAD_MLINESTYLE
350
17
  3
ACAD_PLOTSETTINGS
350
19
  3
ACAD_PLOTSTYLENAME
350
E
  3
ACAD_SCALELIST
350
47
  3
DWGPROPS
350
7F
  0
DICTIONARY
  5
D
102
{ACAD_REACTORS
330
C
102
}
330
C
100
AcDbDictionary
281
     1
  0
DICTIONARY
  5
1A
102
{ACAD_REACTORS
330
C
102
}
330
C
100
AcDbDictionary
281
     1
  3
Layout1
350
1E
  3
Layout2
350
26
  3
Model
350
22
  0
DICTIONARY
  5
17
102
{ACAD_REACTORS
330
C
102
}
330
C
100
AcDbDictionary
281
     1
  3
Standard
350
18
  0
DICTIONARY
  5
19
102
{ACAD_REACTORS
330
C
102
}
330
C
100
AcDbDictionary
281
     1
  0
ACDBDICTIONARYWDFLT
  5
E
102
{ACAD_REACTORS
330
C
102
}
330
C
100
AcDbDictionary
281
     1
  3
Normal
350
F
100
AcDbDictionaryWithDefault
340
F
  0
DICTIONARY
  5
47
102
{ACAD_REACTORS
330
C
102
}
330
C
100
AcDbDictionary
281
     1
  3
A0
350
48
  3
A1
350
49
  3
A2
350
4A
  3
A3
350
4B
  3
A4
350
4C
  3
A5
350
4D
  3
A6
350
4E
  3
A7
350
4F
  3
A8
350
50
  3
A9
350
51
  3
B0
350
52
  3
B1
350
53
  3
B2
350
54
  3
B3
350
55
  3
B4
350
56
  3
B5
350
57
  3
B6
350
58
  3
B7
350
59
  3
B8
350
5A
  3
B9
350
5B
  3
C0
350
5C
  3
C1
350
5D
  3
C2
350
5E
  3
C3
350
5F
  3
C4
350
60
  3
C5
350
61
  3
C6
350
62
  3
C7
350
63
  3
C8
350
64
  3
C9
350
65
  3
D0
350
66
  3
D1
350
67
  3
D2
350
68
  0
XRECORD
  5
7F
102
{ACAD_REACTORS
330
C
102
}
330
C
100
AcDbXrecord
280
     1
  1
DWGPROPS COOKIE
  2

  3

  4

  6

  7

  8
JAWGT
  9

300
=
301
=
302
=
303
=
304
=
305
=
306
=
307
=
308
=
309
=
 40
0.0
 41
0.0
 42
2460090.488769
  1

 90
        0
  0
LAYOUT
  5
1E
102
{ACAD_REACTORS
330
1A
102
}
330
1A
100
AcDbPlotSettings
  1

  2
none_device
  4

  6

 40
0.0
 41
0.0
 42
0.0
 43
0.0
 44
0.0
 45
0.0
 46
0.0
 47
0.0
 48
0.0
 49
0.0
140
0.0
141
0.0
142
1.0
143
1.0
 70
  4784
 72
     0
 73
     0
 74
     5
  7

 75
    16
147
1.0
148
0.0
149
0.0
100
AcDbLayout
  1
Layout1
 70
     1
 71
     1
 10
0.0
 20
0.0
 11
420.0
 21
297.0
 12
0.0
 22
0.0
 32
0.0
 14
0.0
 24
0.0
 34
0.0
 15
104.181152
 25
631.796448
 35
2.0
146
0.0
 13
0.0
 23
0.0
 33
0.0
 16
1.0
 26
0.0
 36
0.0
 17
0.0
 27
1.0
 37
0.0
 76
     0
330
1B
  0
LAYOUT
  5
26
102
{ACAD_REACTORS
330
1A
102
}
330
1A
100
AcDbPlotSettings
  1

  2
none_device
  4

  6

 40
0.0
 41
0.0
 42
0.0
 43
0.0
 44
0.0
 45
0.0
 46
0.0
 47
0.0
 48
0.0
 49
0.0
140
0.0
141
0.0
142
1.0
143
1.0
 70
  4784
 72
     0
 73
     0
 74
     5
  7

 75
    16
147
1.0
148
0.0
149
0.0
100
AcDbLayout
  1
Layout2
 70
     1
 71
     2
 10
0.0
 20
0.0
 11
0.0
 21
0.0
 12
0.0
 22
0.0
 32
0.0
 14
0.0
 24
0.0
 34
0.0
 15
0.0
 25
0.0
 35
0.0
146
0.0
 13
0.0
 23
0.0
 33
0.0
 16
1.0
 26
0.0
 36
0.0
 17
0.0
 27
1.0
 37
0.0
 76
     0
330
23
  0
LAYOUT
  5
22
102
{ACAD_REACTORS
330
1A
102
}
330
1A
100
AcDbPlotSettings
  1

  2
none_device
  4
Letter_(8.50_x_11.00_Inches)
  6

 40
6.35
 41
6.35
 42
6.350005
 43
6.350005
 44
215.9
 45
279.4
 46
0.0
 47
0.0
 48
0.0
 49
0.0
140
0.0
141
0.0
142
1.0
143
1.0
 70
  5808
 72
     0
 73
     0
 74
     0
  7

 75
     0
147
1.0
148
0.0
149
0.0
100
AcDbLayout
  1
Model
 70
     1
 71
     0
 10
0.0
 20
0.0
 11
420.0
 21
297.0
 12
0.0
 22
0.0
 32
0.0
 14
0.0
 24
0.0
 34
0.0
 15
104.181152
 25
631.796448
 35
2.0
146
0.0
 13
0.0
 23
0.0
 33
0.0
 16
1.0
 26
0.0
 36
0.0
 17
0.0
 27
1.0
 37
0.0
 76
     0
330
1F
331
29
  0
MLINESTYLE
  5
18
102
{ACAD_REACTORS
330
17
102
}
330
17
100
AcDbMlineStyle
  2
Standard
 70
     0
  3

 62
   256
 51
90.0
 52
90.0
 71
     2
 49
0.5
 62
   256
  6
BYLAYER
 49
-0.5
 62
   256
  6
BYLAYER
  0
ACDBPLACEHOLDER
  5
F
102
{ACAD_REACTORS
330
E
102
}
330
E
  0
SCALE
  5
48
102
{ACAD_REACTORS
330
47
102
}
330
47
100
AcDbScale
 70
     0
300
1:1
140
1.0
141
1.0
290
     1
  0
SCALE
  5
49
102
{ACAD_REACTORS
330
47
102
}
330
47
100
AcDbScale
 70
     0
300
1:2
140
1.0
141
2.0
290
     0
  0
SCALE
  5
4A
102
{ACAD_REACTORS
330
47
102
}
330
47
100
AcDbScale
 70
     0
300
1:4
140
1.0
141
4.0
290
     0
  0
SCALE
  5
4B
102
{ACAD_REACTORS
330
47
102
}
330
47
100
AcDbScale
 70
     0
300
1:5
140
1.0
141
5.0
290
     0
  0
SCALE
  5
4C
102
{ACAD_REACTORS
330
47
102
}
330
47
100
AcDbScale
 70
     0
300
1:8
140
1.0
141
8.0
290
     0
  0
SCALE
  5
4D
102
{ACAD_REACTORS
330
47
102
}
330
47
100
AcDbScale
 70
     0
300
1:10
140
1.0
141
10.0
290
     0
  0
SCALE
  5
4E
102
{ACAD_REACTORS
330
47
102
}
330
47
100
AcDbScale
 70
     0
300
1:16
140
1.0
141
16.0
290
     0
  0
SCALE
  5
4F
102
{ACAD_REACTORS
330
47
102
}
330
47
100
AcDbScale
 70
     0
300
1:20
140
1.0
141
20.0
290
     0
  0
SCALE
  5
50
102
{ACAD_REACTORS
330
47
102
}
330
47
100
AcDbScale
 70
     0
300
1:30
140
1.0
141
30.0
290
     0
  0
SCALE
  5
51
102
{ACAD_REACTORS
330
47
102
}
330
47
100
AcDbScale
 70
     0
300
1:40
140
1.0
141
40.0
290
     0
  0
SCALE
  5
52
102
{ACAD_REACTORS
330
47
102
}
330
47
100
AcDbScale
 70
     0
300
1:50
140
1.0
141
50.0
290
     0
  0
SCALE
  5
53
102
{ACAD_REACTORS
330
47
102
}
330
47
100
AcDbScale
 70
     0
300
1:100
140
1.0
141
100.0
290
     0
  0
SCALE
  5
54
102
{ACAD_REACTORS
330
47
102
}
330
47
100
AcDbScale
 70
     0
300
2:1
140
2.0
141
1.0
290
     0
  0
SCALE
  5
55
102
{ACAD_REACTORS
330
47
102
}
330
47
100
AcDbScale
 70
     0
300
4:1
140
4.0
141
1.0
290
     0
  0
SCALE
  5
56
102
{ACAD_REACTORS
330
47
102
}
330
47
100
AcDbScale
 70
     0
300
8:1
140
8.0
141
1.0
290
     0
  0
SCALE
  5
57
102
{ACAD_REACTORS
330
47
102
}
330
47
100
AcDbScale
 70
     0
300
10:1
140
10.0
141
1.0
290
     0
  0
SCALE
  5
58
102
{ACAD_REACTORS
330
47
102
}
330
47
100
AcDbScale
 70
     0
300
100:1
140
100.0
141
1.0
290
     0
  0
SCALE
  5
59
102
{ACAD_REACTORS
330
47
102
}
330
47
100
AcDbScale
 70
     0
300
1/128" = 1'-0"
140
0.007812
141
12.0
290
     0
  0
SCALE
  5
5A
102
{ACAD_REACTORS
330
47
102
}
330
47
100
AcDbScale
 70
     0
300
1/64" = 1'-0"
140
0.015625
141
12.0
290
     0
  0
SCALE
  5
5B
102
{ACAD_REACTORS
330
47
102
}
330
47
100
AcDbScale
 70
     0
300
1/32" = 1'-0"
140
0.03125
141
12.0
290
     0
  0
SCALE
  5
5C
102
{ACAD_REACTORS
330
47
102
}
330
47
100
AcDbScale
 70
     0
300
1/16" = 1'-0"
140
0.0625
141
12.0
290
     0
  0
SCALE
  5
5D
102
{ACAD_REACTORS
330
47
102
}
330
47
100
AcDbScale
 70
     0
300
3/32" = 1'-0"
140
0.09375
141
12.0
290
     0
  0
SCALE
  5
5E
102
{ACAD_REACTORS
330
47
102
}
330
47
100
AcDbScale
 70
     0
300
1/8" = 1'-0"
140
0.125
141
12.0
290
     0
  0
SCALE
  5
5F
102
{ACAD_REACTORS
330
47
102
}
330
47
100
AcDbScale
 70
     0
300
3/16" = 1'-0"
140
0.1875
141
12.0
290
     0
  0
SCALE
  5
60
102
{ACAD_REACTORS
330
47
102
}
330
47
100
AcDbScale
 70
     0
300
1/4" = 1'-0"
140
0.25
141
12.0
290
     0
  0
SCALE
  5
61
102
{ACAD_REACTORS
330
47
102
}
330
47
100
AcDbScale
 70
     0
300
3/8" = 1'-0"
140
0.375
141
12.0
290
     0
  0
SCALE
  5
62
102
{ACAD_REACTORS
330
47
102
}
330
47
100
AcDbScale
 70
     0
300
1/2" = 1'-0"
140
0.5
141
12.0
290
     0
  0
SCALE
  5
63
102
{ACAD_REACTORS
330
47
102
}
330
47
100
AcDbScale
 70
     0
300
3/4" = 1'-0"
140
0.75
141
12.0
290
     0
  0
SCALE
  5
64
102
{ACAD_REACTORS
330
47
102
}
330
47
100
AcDbScale
 70
     0
300
1" = 1'-0"
140
1.0
141
12.0
290
     0
  0
SCALE
  5
65
102
{ACAD_REACTORS
330
47
102
}
330
47
100
AcDbScale
 70
     0
300
1-1/2" = 1'-0"
140
1.5
141
12.0
290
     0
  0
SCALE
  5
66
102
{ACAD_REACTORS
330
47
102
}
330
47
100
AcDbScale
 70
     0
300
3" = 1'-0"
140
3.0
141
12.0
290
     0
  0
SCALE
  5
67
102
{ACAD_REACTORS
330
47
102
}
330
47
100
AcDbScale
 70
     0
300
6" = 1'-0"
140
6.0
141
12.0
290
     0
  0
SCALE
  5
68
102
{ACAD_REACTORS
330
47
102
}
330
47
100
AcDbScale
 70
     0
300
1'-0" = 1'-0"
140
12.0
141
12.0
290
     0
  0
ENDSEC
  0
EOF


