  0
SECTION
  2
HEADER
  9
$ACADVER
  1
AC1015
  9
$ACADMAINTVER
 70
6
  9
$DWGCODEPAGE
  3
ANSI_1252
  9
$INSBASE
 10
0.0
 20
0.0
 30
0.0
  9
$EXTMIN
 10
0.0
 20
0.0
 30
0.0
  9
$EXTMAX
 10
129.478027
 20
633.481995
 30
2.0
  9
$LIMMIN
 10
0.0
 20
0.0
  9
$LIMMAX
 10
420.0
 20
297.0
  9
$ORTHOMODE
 70
0
  9
$REGENMODE
 70
1
  9
$FILLMODE
 70
1
  9
$QTEXTMODE
 70
0
  9
$MIRRTEXT
 70
1
  9
$LTSCALE
 40
1.0
  9
$ATTMODE
 70
1
  9
$TEXTSIZE
 40
2.5
  9
$TRACEWID
 40
1.0
  9
$TEXTSTYLE
  7
Standard
  9
$CLAYER
  8
0
  9
$CELTYPE
  6
ByLayer
  9
$CECOLOR
 62
256
  9
$CELTSCALE
 40
1.0
  9
$DISPSILH
 70
0
  9
$DIMSCALE
 40
1.0
  9
$DIMASZ
 40
2.5
  9
$DIMEXO
 40
0.625
  9
$DIMDLI
 40
3.75
  9
$DIMRND
 40
0.0
  9
$DIMDLE
 40
0.0
  9
$DIMEXE
 40
1.25
  9
$DIMTP
 40
0.0
  9
$DIMTM
 40
0.0
  9
$DIMTXT
 40
2.5
  9
$DIMCEN
 40
2.5
  9
$DIMTSZ
 40
0.0
  9
$DIMTOL
 70
0
  9
$DIMLIM
 70
0
  9
$DIMTIH
 70
0
  9
$DIMTOH
 70
0
  9
$DIMSE1
 70
0
  9
$DIMSE2
 70
0
  9
$DIMTAD
 70
1
  9
$DIMZIN
 70
8
  9
$DIMBLK
  1

  9
$DIMASO
 70
1
  9
$DIMSHO
 70
1
  9
$DIMPOST
  1

  9
$DIMAPOST
  1

  9
$DIMALT
 70
0
  9
$DIMALTD
 70
3
  9
$DIMALTF
 40
0.03937
  9
$DIMLFAC
 40
1.0
  9
$DIMTOFL
 70
1
  9
$DIMTVP
 40
0.0
  9
$DIMTIX
 70
0
  9
$DIMSOXD
 70
0
  9
$DIMSAH
 70
0
  9
$DIMBLK1
  1

  9
$DIMBLK2
  1

  9
$DIMSTYLE
  2
STANDARD
  9
$DIMCLRD
 70
0
  9
$DIMCLRE
 70
0
  9
$DIMCLRT
 70
0
  9
$DIMTFAC
 40
1.0
  9
$DIMGAP
 40
0.625
  9
$DIMJUST
 70
0
  9
$DIMSD1
 70
0
  9
$DIMSD2
 70
0
  9
$DIMTOLJ
 70
0
  9
$DIMTZIN
 70
8
  9
$DIMALTZ
 70
0
  9
$DIMALTTZ
 70
0
  9
$DIMUPT
 70
0
  9
$DIMDEC
 70
2
  9
$DIMTDEC
 70
2
  9
$DIMALTU
 70
2
  9
$DIMALTTD
 70
3
  9
$DIMTXSTY
  7
Standard
  9
$DIMAUNIT
 70
0
  9
$DIMADEC
 70
0
  9
$DIMALTRND
 40
0.0
  9
$DIMAZIN
 70
0
  9
$DIMDSEP
 70
44
  9
$DIMATFIT
 70
0
  9
$DIMFRAC
 70
0
  9
$DIMLDRBLK
  1

  9
$DIMLUNIT
 70
2
  9
$DIMLWD
 70
-2
  9
$DIMLWE
 70
-2
  9
$DIMTMOVE
 70
0
  9
$LUNITS
 70
2
  9
$LUPREC
 70
4
  9
$SKETCHINC
 40
1.0
  9
$FILLETRAD
 40
2.5
  9
$AUNITS
 70
0
  9
$AUPREC
 70
0
  9
$MENU
  1
.
  9
$ELEVATION
 40
0.0
  9
$PELEVATION
 40
0.0
  9
$THICKNESS
 40
0.0
  9
$LIMCHECK
 70
0
  9
$CHAMFERA
 40
2.5
  9
$CHAMFERB
 40
2.5
  9
$CHAMFERC
 40
0.0
  9
$CHAMFERD
 40
0.0
  9
$SKPOLY
 70
0
  9
$TDCREATE
 40
2460425.6089814813
  9
$TDUCREATE
 40
0.0
  9
$TDUPDATE
 40
2460425.6089814813
  9
$TDUUPDATE
 40
2460090.491398194
  9
$TDINDWG
 40
0.0
  9
$TDUSRTIMER
 40
0.0
  9
$USRTIMER
 70
1
  9
$ANGBASE
 50
0.0
  9
$ANGDIR
 70
0
  9
$PDMODE
 70
0
  9
$PDSIZE
 40
0.0
  9
$PLINEWID
 40
0.0
  9
$SPLFRAME
 70
0
  9
$SPLINETYPE
 70
6
  9
$SPLINESEGS
 70
8
  9
$HANDSEED
  5
167
  9
$SURFTAB1
 70
6
  9
$SURFTAB2
 70
6
  9
$SURFTYPE
 70
6
  9
$SURFU
 70
6
  9
$SURFV
 70
6
  9
$UCSBASE
  2

  9
$UCSNAME
  2

  9
$UCSORG
 10
0.0
 20
0.0
 30
0.0
  9
$UCSXDIR
 10
1.0
 20
0.0
 30
0.0
  9
$UCSYDIR
 10
0.0
 20
1.0
 30
0.0
  9
$UCSORTHOREF
  2

  9
$UCSORTHOVIEW
 70
1
  9
$UCSORGTOP
 10
0.0
 20
0.0
 30
0.0
  9
$UCSORGBOTTOM
 10
0.0
 20
0.0
 30
0.0
  9
$UCSORGLEFT
 10
0.0
 20
0.0
 30
0.0
  9
$UCSORGRIGHT
 10
0.0
 20
0.0
 30
0.0
  9
$UCSORGFRONT
 10
0.0
 20
0.0
 30
0.0
  9
$UCSORGBACK
 10
0.0
 20
0.0
 30
0.0
  9
$PUCSBASE
  2

  9
$PUCSNAME
  2

  9
$PUCSORG
 10
0.0
 20
0.0
 30
0.0
  9
$PUCSXDIR
 10
1.0
 20
0.0
 30
0.0
  9
$PUCSYDIR
 10
0.0
 20
1.0
 30
0.0
  9
$PUCSORTHOREF
  2

  9
$PUCSORTHOVIEW
 70
0
  9
$PUCSORGTOP
 10
0.0
 20
0.0
 30
0.0
  9
$PUCSORGBOTTOM
 10
0.0
 20
0.0
 30
0.0
  9
$PUCSORGLEFT
 10
0.0
 20
0.0
 30
0.0
  9
$PUCSORGRIGHT
 10
0.0
 20
0.0
 30
0.0
  9
$PUCSORGFRONT
 10
0.0
 20
0.0
 30
0.0
  9
$PUCSORGBACK
 10
0.0
 20
0.0
 30
0.0
  9
$USERI1
 70
0
  9
$USERI2
 70
0
  9
$USERI3
 70
0
  9
$USERI4
 70
0
  9
$USERI5
 70
0
  9
$USERR1
 40
0.0
  9
$USERR2
 40
0.0
  9
$USERR3
 40
0.0
  9
$USERR4
 40
0.0
  9
$USERR5
 40
0.0
  9
$WORLDVIEW
 70
1
  9
$SHADEDGE
 70
3
  9
$SHADEDIF
 70
70
  9
$TILEMODE
 70
1
  9
$MAXACTVP
 70
64
  9
$PINSBASE
 10
0.0
 20
0.0
 30
0.0
  9
$PLIMCHECK
 70
0
  9
$PEXTMIN
 10
0.0
 20
0.0
 30
0.0
  9
$PEXTMAX
 10
129.478027
 20
633.481995
 30
2.0
  9
$PLIMMIN
 10
0.0
 20
0.0
  9
$PLIMMAX
 10
420.0
 20
297.0
  9
$UNITMODE
 70
0
  9
$VISRETAIN
 70
0
  9
$PLINEGEN
 70
0
  9
$PSLTSCALE
 70
1
  9
$TREEDEPTH
 70
3020
  9
$CMLSTYLE
  2
Standard
  9
$CMLJUST
 70
0
  9
$CMLSCALE
 40
20.0
  9
$PROXYGRAPHICS
 70
1
  9
$MEASUREMENT
 70
1
  9
$CELWEIGHT
370
-1
  9
$ENDCAPS
280
0
  9
$JOINSTYLE
280
0
  9
$LWDISPLAY
290
0
  9
$INSUNITS
 70
0
  9
$HYPERLINKBASE
  1

  9
$STYLESHEET
  1

  9
$XEDIT
290
1
  9
$CEPSNTYPE
380
0
  9
$PSTYLEMODE
290
0
  9
$FINGERPRINTGUID
  2
{4ce3fd0f-a355-4576-a02f-c246355cb02d}
  9
$VERSIONGUID
  2
{0B768A38-5377-4568-961F-7DCB73E56DA5}
  9
$EXTNAMES
290
1
  9
$PSVPSCALE
 40
0.0
  9
$OLESTARTUP
290
0
  0
ENDSEC
  0
SECTION
  2
CLASSES
  0
CLASS
  1
ACDBDICTIONARYWDFLT
  2
AcDbDictionaryWithDefault
  3
ObjectDBX Classes
 90
0
280
0
281
0
  0
CLASS
  1
VISUALSTYLE
  2
AcDbVisualStyle
  3
ObjectDBX Classes
 90
4095
280
0
281
0
  0
CLASS
  1
MATERIAL
  2
AcDbMaterial
  3
ObjectDBX Classes
 90
1153
280
0
281
0
  0
CLASS
  1
SCALE
  2
AcDbScale
  3
ObjectDBX Classes
 90
1153
280
0
281
0
  0
CLASS
  1
TABLESTYLE
  2
AcDbTableStyle
  3
ObjectDBX Classes
 90
4095
280
0
281
0
  0
CLASS
  1
MLEADERSTYLE
  2
AcDbMLeaderStyle
  3
ACDB_MLEADERSTYLE_CLASS
 90
4095
280
0
281
0
  0
CLASS
  1
SUN
  2
AcDbSun
  3
SCENEOE
 90
1153
280
0
281
0
  0
CLASS
  1
ACDBPLACEHOLDER
  2
AcDbPlaceHolder
  3
ObjectDBX Classes
 90
0
280
0
281
0
  0
CLASS
  1
LAYOUT
  2
AcDbLayout
  3
ObjectDBX Classes
 90
0
280
0
281
0
  0
CLASS
  1
DICTIONARYVAR
  2
AcDbDictionaryVar
  3
ObjectDBX Classes
 90
0
280
0
281
0
  0
CLASS
  1
CELLSTYLEMAP
  2
AcDbCellStyleMap
  3
ObjectDBX Classes
 90
1152
280
0
281
0
  0
CLASS
  1
MENTALRAYRENDERSETTINGS
  2
AcDbMentalRayRenderSettings
  3
SCENEOE
 90
1024
280
0
281
0
  0
CLASS
  1
ACDBDETAILVIEWSTYLE
  2
AcDbDetailViewStyle
  3
ObjectDBX Classes
 90
1025
280
0
281
0
  0
CLASS
  1
ACDBSECTIONVIEWSTYLE
  2
AcDbSectionViewStyle
  3
ObjectDBX Classes
 90
1025
280
0
281
0
  0
CLASS
  1
RASTERVARIABLES
  2
AcDbRasterVariables
  3
ISM
 90
0
280
0
281
0
  0
ENDSEC
  0
SECTION
  2
TABLES
  0
TABLE
  2
VPORT
  5
8
330
0
100
AcDbSymbolTable
 70
1
  0
VPORT
  5
29
330
8
100
AcDbSymbolTableRecord
100
AcDbViewportTableRecord
  2
*Active
 70
0
 10
0.0
 20
0.0
 11
1.0
 21
1.0
 12
10.429907
 22
4.5
 13
0.0
 23
0.0
 14
0.5
 24
0.5
 15
0.5
 25
0.5
 16
0.0
 26
0.0
 36
1.0
 17
0.0
 27
0.0
 37
0.0
 40
9.0
 41
1.972973
 42
50.0
 43
0.0
 44
0.0
 50
0.0
 51
0.0
 71
0
 72
100
 73
1
 74
3
 75
0
 76
0
 77
0
 78
0
281
0
 65
1
110
0.0
120
0.0
130
0.0
111
1.0
121
0.0
131
0.0
112
0.0
122
1.0
132
0.0
 79
0
146
0.0
  0
ENDTAB
  0
TABLE
  2
LTYPE
  5
5
330
0
100
AcDbSymbolTable
 70
3
  0
LTYPE
  5
14
330
5
100
AcDbSymbolTableRecord
100
AcDbLinetypeTableRecord
  2
ByBlock
 70
0
  3

 72
65
 73
0
 40
0.0
  0
LTYPE
  5
15
330
5
100
AcDbSymbolTableRecord
100
AcDbLinetypeTableRecord
  2
ByLayer
 70
0
  3

 72
65
 73
0
 40
0.0
  0
LTYPE
  5
16
330
5
100
AcDbSymbolTableRecord
100
AcDbLinetypeTableRecord
  2
Continuous
 70
0
  3
Solid line
 72
65
 73
0
 40
0.0
  0
ENDTAB
  0
TABLE
  2
LAYER
  5
2
330
0
100
AcDbSymbolTable
 70
7
  0
LAYER
  5
10
330
2
100
AcDbSymbolTableRecord
100
AcDbLayerTableRecord
  2
0
 70
0
 62
7
  6
Continuous
370
13
390
F
  0
LAYER
  5
6F
330
2
100
AcDbSymbolTableRecord
100
AcDbLayerTableRecord
  2
TEXT
 70
0
 62
7
  6
Continuous
370
13
390
F
  0
LAYER
  5
70
330
2
100
AcDbSymbolTableRecord
100
AcDbLayerTableRecord
  2
STRATEGYPOINT
 70
0
 62
7
  6
Continuous
370
13
390
F
  0
LAYER
  5
71
330
2
100
AcDbSymbolTableRecord
100
AcDbLayerTableRecord
  2
ROSETTE
 70
0
 62
7
  6
Continuous
370
13
390
F
  0
LAYER
  5
72
330
2
100
AcDbSymbolTableRecord
100
AcDbLayerTableRecord
  2
OUTER
 70
0
 62
7
  6
Continuous
370
13
390
F
  0
LAYER
  5
D7
330
2
100
AcDbSymbolTableRecord
100
AcDbLayerTableRecord
  2
MARKERS
 70
0
 62
7
  6
Continuous
370
13
390
F
  0
LAYER
  5
10A
330
2
100
AcDbSymbolTableRecord
100
AcDbLayerTableRecord
  2
Defpoints
 70
0
 62
7
  6
Continuous
290
0
370
-3
390
F
  0
ENDTAB
  0
TABLE
  2
STYLE
  5
3
330
0
100
AcDbSymbolTable
 70
2
  0
STYLE
  5
11
330
3
100
AcDbSymbolTableRecord
100
AcDbTextStyleTableRecord
  2
Standard
 70
0
 40
0.0
 41
1.0
 50
0.0
 71
0
 42
2.5
  3
isocp.shx
  4

  0
STYLE
  5
6E
330
3
100
AcDbSymbolTableRecord
100
AcDbTextStyleTableRecord
  2
GDT
 70
0
 40
0.0
 41
1.0
 50
0.0
 71
0
 42
0.2
  3
gdt.shx
  4

  0
ENDTAB
  0
TABLE
  2
VIEW
  5
6
330
0
100
AcDbSymbolTable
 70
0
  0
ENDTAB
  0
TABLE
  2
UCS
  5
7
330
0
100
AcDbSymbolTable
 70
0
  0
ENDTAB
  0
TABLE
  2
APPID
  5
9
330
0
100
AcDbSymbolTable
 70
3
  0
APPID
  5
12
330
9
100
AcDbSymbolTableRecord
100
AcDbRegAppTableRecord
  2
ACAD
 70
0
  0
APPID
  5
144
330
9
100
AcDbSymbolTableRecord
100
AcDbRegAppTableRecord
  2
HATCHBACKGROUNDCOLOR
 70
0
  0
APPID
  5
145
330
9
100
AcDbSymbolTableRecord
100
AcDbRegAppTableRecord
  2
EZDXF
 70
0
  0
ENDTAB
  0
TABLE
  2
DIMSTYLE
  5
A
330
0
100
AcDbSymbolTable
 70
1
100
AcDbDimStyleTable
  0
DIMSTYLE
105
27
330
A
100
AcDbSymbolTableRecord
100
AcDbDimStyleTableRecord
  2
STANDARD
 70
0
  3

  4

 40
1.0
 41
2.5
 42
0.625
 43
3.75
 44
1.25
 45
0.0
 46
0.0
 47
0.0
 48
0.0
140
2.5
141
2.5
142
0.0
143
0.03937
144
1.0
145
0.0
146
1.0
147
0.625
148
0.0
 71
0
 72
0
 73
0
 74
0
 75
0
 76
0
 77
1
 78
8
 79
3
170
0
171
3
172
1
173
0
174
0
175
0
176
0
177
0
178
0
179
2
271
2
272
2
273
2
274
3
275
0
276
0
277
2
278
44
279
0
280
0
281
0
282
0
283
0
284
8
285
0
286
0
288
0
289
0
371
-2
372
-2
  0
ENDTAB
  0
TABLE
  2
BLOCK_RECORD
  5
1
330
0
100
AcDbSymbolTable
 70
21
  0
BLOCK_RECORD
  5
1F
330
1
100
AcDbSymbolTableRecord
100
AcDbBlockTableRecord
  2
*Model_Space
340
22
  0
BLOCK_RECORD
  5
1B
330
1
100
AcDbSymbolTableRecord
100
AcDbBlockTableRecord
  2
*Paper_Space
340
1E
  0
BLOCK_RECORD
  5
23
330
1
100
AcDbSymbolTableRecord
100
AcDbBlockTableRecord
  2
*Paper_Space0
340
26
  0
BLOCK_RECORD
  5
4
330
1
100
AcDbSymbolTableRecord
100
AcDbBlockTableRecord
  2
V236_LW_LRU13_260 RT_TEXT_1
340
0
  0
BLOCK_RECORD
  5
32
330
1
100
AcDbSymbolTableRecord
100
AcDbBlockTableRecord
  2
29276884_INF_GF_HM_BI45_1000_54_CHORDWISE_V1_V236_LW_LRU13_260_R0_I30_DXF
340
0
  0
BLOCK_RECORD
  5
37
330
1
100
AcDbSymbolTableRecord
100
AcDbBlockTableRecord
  2
V236_LW_LRU13_261 RT_TEXT_2
340
0
  0
BLOCK_RECORD
  5
43
330
1
100
AcDbSymbolTableRecord
100
AcDbBlockTableRecord
  2
29276884_INF_GF_HM_BI45_1000_54_CHORDWISE_V1_V236_LW_LRU13_261_R0_I30_DXF
340
0
  0
BLOCK_RECORD
  5
6A
330
1
100
AcDbSymbolTableRecord
100
AcDbBlockTableRecord
  2
V236_LW_LRU13_262 RT_TEXT_3
340
0
  0
BLOCK_RECORD
  5
7B
330
1
100
AcDbSymbolTableRecord
100
AcDbBlockTableRecord
  2
29276884_INF_GF_HM_BI45_1000_54_CHORDWISE_V1_V236_LW_LRU13_262_R0_I30_DXF
340
0
  0
BLOCK_RECORD
  5
82
330
1
100
AcDbSymbolTableRecord
100
AcDbBlockTableRecord
  2
V236_LW_LRU13_263 RT_TEXT_4
340
0
  0
BLOCK_RECORD
  5
8E
330
1
100
AcDbSymbolTableRecord
100
AcDbBlockTableRecord
  2
29276884_INF_GF_HM_BI45_1000_54_CHORDWISE_V1_V236_LW_LRU13_263_R0_I30_DXF
340
0
  0
BLOCK_RECORD
  5
93
330
1
100
AcDbSymbolTableRecord
100
AcDbBlockTableRecord
  2
V236_LW_LRU13_264 RT_TEXT_5
340
0
  0
BLOCK_RECORD
  5
9F
330
1
100
AcDbSymbolTableRecord
100
AcDbBlockTableRecord
  2
29276884_INF_GF_HM_BI45_1000_54_CHORDWISE_V1_V236_LW_LRU13_264_R0_I30_DXF
340
0
  0
BLOCK_RECORD
  5
A4
330
1
100
AcDbSymbolTableRecord
100
AcDbBlockTableRecord
  2
V236_LW_LRU13_265 RT_TEXT_6
340
0
  0
BLOCK_RECORD
  5
B0
330
1
100
AcDbSymbolTableRecord
100
AcDbBlockTableRecord
  2
29276884_INF_GF_HM_BI45_1000_54_CHORDWISE_V1_V236_LW_LRU13_265_R0_I30_DXF
340
0
  0
BLOCK_RECORD
  5
B5
330
1
100
AcDbSymbolTableRecord
100
AcDbBlockTableRecord
  2
V236_LW_LRU13_266 RT_TEXT_7
340
0
  0
BLOCK_RECORD
  5
C1
330
1
100
AcDbSymbolTableRecord
100
AcDbBlockTableRecord
  2
29276884_INF_GF_HM_BI45_1000_54_CHORDWISE_V1_V236_LW_LRU13_266_R0_I30_DXF
340
0
  0
BLOCK_RECORD
  5
C6
330
1
100
AcDbSymbolTableRecord
100
AcDbBlockTableRecord
  2
V236_LW_LRU13_267 RT_TEXT_8
340
0
  0
BLOCK_RECORD
  5
D2
330
1
100
AcDbSymbolTableRecord
100
AcDbBlockTableRecord
  2
29276884_INF_GF_HM_BI45_1000_54_CHORDWISE_V1_V236_LW_LRU13_267_R0_I30_DXF
340
0
  0
BLOCK_RECORD
  5
D8
330
1
100
AcDbSymbolTableRecord
100
AcDbBlockTableRecord
  2
V236_LW_LRU13_268 RT_TEXT_9
340
0
  0
BLOCK_RECORD
  5
EB
330
1
100
AcDbSymbolTableRecord
100
AcDbBlockTableRecord
  2
29276884_INF_GF_HM_BI45_1000_54_CHORDWISE_V1_V236_LW_LRU13_268_R1_I4_DXF
340
0
  0
ENDTAB
  0
ENDSEC
  0
SECTION
  2
BLOCKS
  0
BLOCK
  5
20
330
1F
100
AcDbEntity
  8
0
100
AcDbBlockBegin
  2
*Model_Space
 70
0
 10
0.0
 20
0.0
 30
0.0
  3
*Model_Space
  1

  0
ENDBLK
  5
21
330
1F
100
AcDbEntity
  8
0
100
AcDbBlockEnd
  0
BLOCK
  5
1C
330
1B
100
AcDbEntity
 67
1
  8
0
100
AcDbBlockBegin
  2
*Paper_Space
 70
0
 10
0.0
 20
0.0
 30
0.0
  3
*Paper_Space
  1

  0
ENDBLK
  5
1D
330
1B
100
AcDbEntity
 67
1
  8
0
100
AcDbBlockEnd
  0
BLOCK
  5
24
330
23
100
AcDbEntity
  8
0
100
AcDbBlockBegin
  2
*Paper_Space0
 70
0
 10
0.0
 20
0.0
 30
0.0
  3
*Paper_Space0
  1

  0
ENDBLK
  5
25
330
23
100
AcDbEntity
  8
0
100
AcDbBlockEnd
  0
BLOCK
  5
13
330
4
100
AcDbEntity
  8
0
100
AcDbBlockBegin
  2
V236_LW_LRU13_260 RT_TEXT_1
 70
0
 10
0.0
 20
0.0
 30
0.0
  3
V236_LW_LRU13_260 RT_TEXT_1
  1

  0
TEXT
  5
B
330
4
100
AcDbEntity
  8
TEXT
 62
14
370
13
100
AcDbText
 10
-477.726562
 20
584.91571
 30
0.0
 40
35.0
  1
V236_LW_LRU13_260 RT
 41
0.948757
 72
5
 11
129.478027
 21
584.91571
 31
0.0
100
AcDbText
  0
ENDBLK
  5
28
330
4
100
AcDbEntity
  8
0
100
AcDbBlockEnd
  0
BLOCK
  5
34
330
32
100
AcDbEntity
  8
0
100
AcDbBlockBegin
  2
29276884_INF_GF_HM_BI45_1000_54_CHORDWISE_V1_V236_LW_LRU13_260_R0_I30_DXF
 70
0
 10
0.0
 20
0.0
 30
0.0
  3
29276884_INF_GF_HM_BI45_1000_54_CHORDWISE_V1_V236_LW_LRU13_260_R0_I30_DXF
  1

  0
INSERT
  5
2A
330
32
100
AcDbEntity
  8
TEXT
 62
7
370
0
100
AcDbBlockReference
  2
V236_LW_LRU13_260 RT_TEXT_1
 10
96211.316406
 20
25851.364258
 30
0.0
  0
POINT
  5
2B
330
32
100
AcDbEntity
  8
STRATEGYPOINT
 62
7
370
5
100
AcDbPoint
 10
96211.316406
 20
25851.364258
 30
0.0
  0
LINE
  5
2C
330
32
100
AcDbEntity
  8
ROSETTE
 62
150
370
35
100
AcDbLine
 10
96311.316406
 20
25851.364258
 30
0.0
 11
96211.316406
 21
25851.364258
 31
0.0
  0
LINE
  5
2D
330
32
100
AcDbEntity
  8
ROSETTE
 62
150
370
35
100
AcDbLine
 10
96211.316406
 20
25851.364258
 30
0.0
 11
96211.316406
 21
25901.364258
 31
0.0
  0
SPLINE
  5
2E
330
32
100
AcDbEntity
  8
OUTER
 62
3
370
35
100
AcDbSpline
 70
8
 71
5
 72
12
 73
6
 74
0
 42
0.0
 43
0.0
 40
0.0
 40
0.0
 40
0.0
 40
0.0
 40
0.0
 40
0.0
 40
2144.487624699441
 40
2144.487624699441
 40
2144.487624699441
 40
2144.487624699441
 40
2144.487624699441
 40
2144.487624699441
 10
94966.9040733971
 20
25216.0216157481
 30
0.0
 10
95395.8015781397
 20
25216.1532433822
 30
0.0
 10
95824.6990903745
 20
25216.2430500928
 30
0.0
 10
96253.5966094915
 20
25216.2946717901
 30
0.0
 10
96682.4941312494
 20
25216.3342664175
 30
0.0
 10
97111.3916550538
 20
25216.3654695887
 30
0.0
  0
SPLINE
  5
2F
330
32
100
AcDbEntity
  8
OUTER
 62
3
370
35
100
AcDbSpline
 70
8
 71
5
 72
12
 73
6
 74
0
 42
0.0
 43
0.0
 40
0.0
 40
0.0
 40
0.0
 40
0.0
 40
0.0
 40
0.0
 40
1270.012969494738
 40
1270.012969494738
 40
1270.012969494738
 40
1270.012969494738
 40
1270.012969494738
 40
1270.012969494738
 10
97111.3916550538
 20
25216.3654695888
 30
0.0
 10
97111.4777722319
 20
25470.3680488895
 30
0.0
 10
97111.3140937304
 20
25724.3706154763
 30
0.0
 10
97111.3032972852
 20
25978.3731952465
 30
0.0
 10
97111.4400794844
 20
26232.37577001
 30
0.0
 10
97111.3991542461
 20
26486.378360612
 30
0.0
  0
SPLINE
  5
30
330
32
100
AcDbEntity
  8
OUTER
 62
3
370
35
100
AcDbSpline
 70
8
 71
5
 72
12
 73
6
 74
0
 42
0.0
 43
0.0
 40
0.0
 40
0.0
 40
0.0
 40
0.0
 40
0.0
 40
0.0
 40
2222.830620676729
 40
2222.830620676729
 40
2222.830620676729
 40
2222.830620676729
 40
2222.830620676729
 40
2222.830620676729
 10
97111.3991542461
 20
26486.378360612
 30
0.0
 10
96666.8330301947
 20
26486.3697844298
 30
0.0
 10
96222.2668166424
 20
26486.7231534082
 30
0.0
 10
95777.701089432
 20
26486.0198952377
 30
0.0
 10
95333.134496588
 20
26487.1655963242
 30
0.0
 10
94888.5686069191
 20
26486.7090101783
 30
0.0
  0
SPLINE
  5
31
330
32
100
AcDbEntity
  8
OUTER
 62
3
370
35
100
AcDbSpline
 70
8
 71
5
 72
12
 73
6
 74
0
 42
0.0
 43
0.0
 40
0.0
 40
0.0
 40
0.0
 40
0.0
 40
0.0
 40
0.0
 40
1273.099965513876
 40
1273.099965513876
 40
1273.099965513876
 40
1273.099965513876
 40
1273.099965513876
 40
1273.099965513876
 10
94888.5686069191
 20
26486.7090101783
 30
0.0
 10
94904.2536872491
 20
26232.572591807
 30
0.0
 10
94920.1295488535
 20
25978.4477971325
 30
0.0
 10
94936.1123193567
 20
25724.3295235069
 30
0.0
 10
94951.7317933779
 20
25470.1891644372
 30
0.0
 10
94966.9040733971
 20
25216.0216157481
 30
0.0
  0
ENDBLK
  5
35
330
32
100
AcDbEntity
  8
0
100
AcDbBlockEnd
  0
BLOCK
  5
39
330
37
100
AcDbEntity
  8
0
100
AcDbBlockBegin
  2
V236_LW_LRU13_261 RT_TEXT_2
 70
0
 10
0.0
 20
0.0
 30
0.0
  3
V236_LW_LRU13_261 RT_TEXT_2
  1

  0
TEXT
  5
38
330
37
100
AcDbEntity
  8
TEXT
 62
14
370
13
100
AcDbText
 10
-458.820312
 20
512.878601
 30
0.0
 40
35.0
  1
V236_LW_LRU13_261 RT
 41
0.948757
 72
5
 11
148.384277
 21
512.878601
 31
0.0
100
AcDbText
  0
ENDBLK
  5
3A
330
37
100
AcDbEntity
  8
0
100
AcDbBlockEnd
  0
BLOCK
  5
45
330
43
100
AcDbEntity
  8
0
100
AcDbBlockBegin
  2
29276884_INF_GF_HM_BI45_1000_54_CHORDWISE_V1_V236_LW_LRU13_261_R0_I30_DXF
 70
0
 10
0.0
 20
0.0
 30
0.0
  3
29276884_INF_GF_HM_BI45_1000_54_CHORDWISE_V1_V236_LW_LRU13_261_R0_I30_DXF
  1

  0
INSERT
  5
3B
330
43
100
AcDbEntity
  8
TEXT
 62
7
370
0
100
AcDbBlockReference
  2
V236_LW_LRU13_261 RT_TEXT_2
 10
96211.316406
 20
25851.364258
 30
0.0
  0
POINT
  5
3C
330
43
100
AcDbEntity
  8
STRATEGYPOINT
 62
7
370
5
100
AcDbPoint
 10
96211.316406
 20
25851.364258
 30
0.0
  0
LINE
  5
3D
330
43
100
AcDbEntity
  8
ROSETTE
 62
150
370
35
100
AcDbLine
 10
96311.316406
 20
25851.364258
 30
0.0
 11
96211.316406
 21
25851.364258
 31
0.0
  0
LINE
  5
3E
330
43
100
AcDbEntity
  8
ROSETTE
 62
150
370
35
100
AcDbLine
 10
96211.316406
 20
25851.364258
 30
0.0
 11
96211.316406
 21
25901.364258
 31
0.0
  0
SPLINE
  5
3F
330
43
100
AcDbEntity
  8
OUTER
 62
3
370
35
100
AcDbSpline
 70
8
 71
5
 72
12
 73
6
 74
0
 42
0.0
 43
0.0
 40
0.0
 40
0.0
 40
0.0
 40
0.0
 40
0.0
 40
0.0
 40
2070.231976844913
 40
2070.231976844913
 40
2070.231976844913
 40
2070.231976844913
 40
2070.231976844913
 40
2070.231976844913
 10
94991.2009490726
 20
25145.9845144567
 30
0.0
 10
95405.2472501379
 20
25146.2639659812
 30
0.0
 10
95819.2936307985
 20
25146.334008966
 30
0.0
 10
96233.3400887841
 20
25146.2010305246
 30
0.0
 10
96647.3865036318
 20
25146.2046174067
 30
0.0
 10
97061.4328730696
 20
25146.3511571243
 30
0.0
  0
SPLINE
  5
40
330
43
100
AcDbEntity
  8
OUTER
 62
3
370
35
100
AcDbSpline
 70
8
 71
5
 72
12
 73
6
 74
0
 42
0.0
 43
0.0
 40
0.0
 40
0.0
 40
0.0
 40
0.0
 40
0.0
 40
0.0
 40
1270.021333292621
 40
1270.021333292621
 40
1270.021333292621
 40
1270.021333292621
 40
1270.021333292621
 40
1270.021333292621
 10
97061.4328730696
 20
25146.3511571243
 30
0.0
 10
97061.3361867213
 20
25400.3554053812
 30
0.0
 10
97061.2730916546
 20
25654.3596879882
 30
0.0
 10
97061.1643955539
 20
25908.3640322668
 30
0.0
 10
97061.164174
 20
26162.3683119465
 30
0.0
 10
97061.3896304935
 20
26416.3724785464
 30
0.0
  0
SPLINE
  5
41
330
43
100
AcDbEntity
  8
OUTER
 62
3
370
35
100
AcDbSpline
 70
8
 71
5
 72
12
 73
6
 74
0
 42
0.0
 43
0.0
 40
0.0
 40
0.0
 40
0.0
 40
0.0
 40
0.0
 40
0.0
 40
2148.41777594017
 40
2148.41777594017
 40
2148.41777594017
 40
2148.41777594017
 40
2148.41777594017
 40
2148.41777594017
 10
97061.3896304936
 20
26416.3724785464
 30
0.0
 10
96631.7060873649
 20
26416.4742774144
 30
0.0
 10
96202.0225430677
 20
26416.5589760317
 30
0.0
 10
95772.3389975857
 20
26416.6265846704
 30
0.0
 10
95342.6554480488
 20
26416.6788015218
 30
0.0
 10
94912.9718944394
 20
26416.7156368142
 30
0.0
  0
SPLINE
  5
42
330
43
100
AcDbEntity
  8
OUTER
 62
3
370
35
100
AcDbSpline
 70
8
 71
5
 72
12
 73
6
 74
0
 42
0.0
 43
0.0
 40
0.0
 40
0.0
 40
0.0
 40
0.0
 40
0.0
 40
0.0
 40
1273.137049083042
 40
1273.137049083042
 40
1273.137049083042
 40
1273.137049083042
 40
1273.137049083042
 40
1273.137049083042
 10
94912.9718944394
 20
26416.7156368142
 30
0.0
 10
94928.8656155845
 20
26162.5847503442
 30
0.0
 10
94944.6156821699
 20
25908.444985628
 30
0.0
 10
94960.3011090684
 20
25654.3009994
 30
0.0
 10
94976.0014106358
 20
25400.1578644787
 30
0.0
 10
94991.2009490726
 20
25145.9845144567
 30
0.0
  0
ENDBLK
  5
46
330
43
100
AcDbEntity
  8
0
100
AcDbBlockEnd
  0
BLOCK
  5
6C
330
6A
100
AcDbEntity
  8
0
100
AcDbBlockBegin
  2
V236_LW_LRU13_262 RT_TEXT_3
 70
0
 10
0.0
 20
0.0
 30
0.0
  3
V236_LW_LRU13_262 RT_TEXT_3
  1

  0
TEXT
  5
6B
330
6A
100
AcDbEntity
  8
TEXT
 62
14
370
13
100
AcDbText
 10
-448.414062
 20
442.187164
 30
0.0
 40
35.0
  1
V236_LW_LRU13_262 RT
 41
0.948757
 72
5
 11
158.790527
 21
442.187164
 31
0.0
100
AcDbText
  0
ENDBLK
  5
6D
330
6A
100
AcDbEntity
  8
0
100
AcDbBlockEnd
  0
BLOCK
  5
7D
330
7B
100
AcDbEntity
  8
0
100
AcDbBlockBegin
  2
29276884_INF_GF_HM_BI45_1000_54_CHORDWISE_V1_V236_LW_LRU13_262_R0_I30_DXF
 70
0
 10
0.0
 20
0.0
 30
0.0
  3
29276884_INF_GF_HM_BI45_1000_54_CHORDWISE_V1_V236_LW_LRU13_262_R0_I30_DXF
  1

  0
INSERT
  5
73
330
7B
100
AcDbEntity
  8
TEXT
 62
7
370
0
100
AcDbBlockReference
  2
V236_LW_LRU13_262 RT_TEXT_3
 10
96211.316406
 20
25851.364258
 30
0.0
  0
POINT
  5
74
330
7B
100
AcDbEntity
  8
STRATEGYPOINT
 62
7
370
5
100
AcDbPoint
 10
96211.316406
 20
25851.364258
 30
0.0
  0
LINE
  5
75
330
7B
100
AcDbEntity
  8
ROSETTE
 62
150
370
35
100
AcDbLine
 10
96311.316406
 20
25851.364258
 30
0.0
 11
96211.316406
 21
25851.364258
 31
0.0
  0
LINE
  5
76
330
7B
100
AcDbEntity
  8
ROSETTE
 62
150
370
35
100
AcDbLine
 10
96211.316406
 20
25851.364258
 30
0.0
 11
96211.316406
 21
25901.364258
 31
0.0
  0
SPLINE
  5
77
330
7B
100
AcDbEntity
  8
OUTER
 62
3
370
35
100
AcDbSpline
 70
8
 71
5
 72
12
 73
6
 74
0
 42
0.0
 43
0.0
 40
0.0
 40
0.0
 40
0.0
 40
0.0
 40
0.0
 40
0.0
 40
1995.984318229528
 40
1995.984318229528
 40
1995.984318229528
 40
1995.984318229528
 40
1995.984318229528
 40
1995.984318229528
 10
95015.4744419238
 20
25075.9805594594
 30
0.0
 10
95414.6712838448
 20
25075.8488512728
 30
0.0
 10
95813.8681519687
 20
25076.1774130032
 30
0.0
 10
96213.0650036803
 20
25076.2588533816
 30
0.0
 10
96612.2618505655
 20
25076.27267713
 30
0.0
 10
97011.4587054142
 20
25076.3564838628
 30
0.0
  0
SPLINE
  5
78
330
7B
100
AcDbEntity
  8
OUTER
 62
3
370
35
100
AcDbSpline
 70
8
 71
5
 72
14
 73
8
 74
0
 42
0.0
 43
0.0
 40
0.0
 40
0.0
 40
0.0
 40
0.0
 40
0.0
 40
0.0
 40
642.3668872208513
 40
955.8818037549148
 40
1270.027915688391
 40
1270.027915688391
 40
1270.027915688391
 40
1270.027915688391
 40
1270.027915688391
 40
1270.027915688391
 10
97011.4587054143
 20
25076.3564838629
 30
0.0
 10
97011.3943426409
 20
25204.8298451849
 30
0.0
 10
97011.3359721076
 20
25396.0061977174
 30
0.0
 10
97011.3087441462
 20
25650.011794748
 30
0.0
 10
97011.1914201823
 20
25904.0174446259
 30
0.0
 10
97011.2184298382
 20
26158.0230124947
 30
0.0
 10
97011.3194523811
 20
26283.5551587248
 30
0.0
 10
97011.3929333053
 20
26346.3843381422
 30
0.0
  0
SPLINE
  5
79
330
7B
100
AcDbEntity
  8
OUTER
 62
3
370
35
100
AcDbSpline
 70
8
 71
5
 72
13
 73
7
 74
0
 42
0.0
 43
0.0
 40
0.0
 40
0.0
 40
0.0
 40
0.0
 40
0.0
 40
0.0
 40
1053.393780312436
 40
2074.014999046002
 40
2074.014999046002
 40
2074.014999046002
 40
2074.014999046002
 40
2074.014999046002
 40
2074.014999046002
 10
97011.3929333052
 20
26346.3843381422
 30
0.0
 10
96800.7141780948
 20
26346.4032839403
 30
0.0
 10
96385.9112770569
 20
26346.6044054031
 30
0.0
 10
95971.1079004019
 20
26346.1473316344
 30
0.0
 10
95556.3056093086
 20
26347.0419142896
 30
0.0
 10
95141.5019647126
 20
26346.3689793574
 30
0.0
 10
94937.3780186443
 20
26346.7175860607
 30
0.0
  0
SPLINE
  5
7A
330
7B
100
AcDbEntity
  8
OUTER
 62
3
370
35
100
AcDbSpline
 70
8
 71
5
 72
14
 73
8
 74
0
 42
0.0
 43
0.0
 40
0.0
 40
0.0
 40
0.0
 40
0.0
 40
0.0
 40
0.0
 40
339.2498157279961
 40
947.4686022920914
 40
1273.134792073459
 40
1273.134792073459
 40
1273.134792073459
 40
1273.134792073459
 40
1273.134792073459
 40
1273.134792073459
 10
94937.3780186443
 20
26346.7175860607
 30
0.0
 10
94941.5414678421
 20
26278.9954833937
 30
0.0
 10
94953.2209908101
 20
26089.8620521141
 30
0.0
 10
94969.0936908993
 20
25835.73026317
 30
0.0
 10
94984.6841268836
 20
25581.5810649517
 30
0.0
 10
95000.001533082
 20
25327.415124964
 30
0.0
 10
95011.4531614549
 20
25140.9895433775
 30
0.0
 10
95015.4744419238
 20
25075.9805594594
 30
0.0
  0
ENDBLK
  5
7E
330
7B
100
AcDbEntity
  8
0
100
AcDbBlockEnd
  0
BLOCK
  5
84
330
82
100
AcDbEntity
  8
0
100
AcDbBlockBegin
  2
V236_LW_LRU13_263 RT_TEXT_4
 70
0
 10
0.0
 20
0.0
 30
0.0
  3
V236_LW_LRU13_263 RT_TEXT_4
  1

  0
TEXT
  5
83
330
82
100
AcDbEntity
  8
TEXT
 62
14
370
13
100
AcDbText
 10
-440.789062
 20
372.468414
 30
0.0
 40
35.0
  1
V236_LW_LRU13_263 RT
 41
0.948757
 72
5
 11
166.415527
 21
372.468414
 31
0.0
100
AcDbText
  0
ENDBLK
  5
85
330
82
100
AcDbEntity
  8
0
100
AcDbBlockEnd
  0
BLOCK
  5
90
330
8E
100
AcDbEntity
  8
0
100
AcDbBlockBegin
  2
29276884_INF_GF_HM_BI45_1000_54_CHORDWISE_V1_V236_LW_LRU13_263_R0_I30_DXF
 70
0
 10
0.0
 20
0.0
 30
0.0
  3
29276884_INF_GF_HM_BI45_1000_54_CHORDWISE_V1_V236_LW_LRU13_263_R0_I30_DXF
  1

  0
INSERT
  5
86
330
8E
100
AcDbEntity
  8
TEXT
 62
7
370
0
100
AcDbBlockReference
  2
V236_LW_LRU13_263 RT_TEXT_4
 10
96211.316406
 20
25851.364258
 30
0.0
  0
POINT
  5
87
330
8E
100
AcDbEntity
  8
STRATEGYPOINT
 62
7
370
5
100
AcDbPoint
 10
96211.316406
 20
25851.364258
 30
0.0
  0
LINE
  5
88
330
8E
100
AcDbEntity
  8
ROSETTE
 62
150
370
35
100
AcDbLine
 10
96311.316406
 20
25851.364258
 30
0.0
 11
96211.316406
 21
25851.364258
 31
0.0
  0
LINE
  5
89
330
8E
100
AcDbEntity
  8
ROSETTE
 62
150
370
35
100
AcDbLine
 10
96211.316406
 20
25851.364258
 30
0.0
 11
96211.316406
 21
25901.364258
 31
0.0
  0
SPLINE
  5
8A
330
8E
100
AcDbEntity
  8
OUTER
 62
3
370
35
100
AcDbSpline
 70
8
 71
5
 72
12
 73
6
 74
0
 42
0.0
 43
0.0
 40
0.0
 40
0.0
 40
0.0
 40
0.0
 40
0.0
 40
0.0
 40
1721.797593346653
 40
1721.797593346653
 40
1721.797593346653
 40
1721.797593346653
 40
1721.797593346653
 40
1721.797593346653
 10
95039.7300760856
 20
25005.9578676334
 30
0.0
 10
95384.0895069064
 20
25005.711891818
 30
0.0
 10
95728.4490641168
 20
25005.9493052798
 30
0.0
 10
96072.8086108267
 20
25006.2803933177
 30
0.0
 10
96417.1681115156
 20
25006.4378384466
 30
0.0
 10
96761.5276059051
 20
25006.3085244061
 30
0.0
  0
SPLINE
  5
8B
330
8E
100
AcDbEntity
  8
OUTER
 62
3
370
35
100
AcDbSpline
 70
8
 71
5
 72
12
 73
6
 74
0
 42
0.0
 43
0.0
 40
0.0
 40
0.0
 40
0.0
 40
0.0
 40
0.0
 40
0.0
 40
1270.07611491483
 40
1270.07611491483
 40
1270.07611491483
 40
1270.07611491483
 40
1270.07611491483
 40
1270.07611491483
 10
96761.5276059051
 20
25006.3085244061
 30
0.0
 10
96761.4100754058
 20
25260.3237201991
 30
0.0
 10
96761.4402825396
 20
25514.3389421284
 30
0.0
 10
96761.5027463748
 20
25768.3541613379
 30
0.0
 10
96761.227211612
 20
26022.3694945402
 30
0.0
 10
96761.440740454
 20
26276.3846277754
 30
0.0
  0
SPLINE
  5
8C
330
8E
100
AcDbEntity
  8
OUTER
 62
3
370
35
100
AcDbSpline
 70
8
 71
5
 72
12
 73
6
 74
0
 42
0.0
 43
0.0
 40
0.0
 40
0.0
 40
0.0
 40
0.0
 40
0.0
 40
0.0
 40
1799.660802033862
 40
1799.660802033862
 40
1799.660802033862
 40
1799.660802033862
 40
1799.660802033862
 40
1799.660802033862
 10
96761.440740454
 20
26276.3846277754
 30
0.0
 10
96401.5086037714
 20
26276.5153103277
 30
0.0
 10
96041.5764583522
 20
26276.5729128498
 30
0.0
 10
95681.6443042326
 20
26276.5579126874
 30
0.0
 10
95321.7121482895
 20
26276.5721153569
 30
0.0
 10
94961.7799905592
 20
26276.6160086164
 30
0.0
  0
SPLINE
  5
8D
330
8E
100
AcDbEntity
  8
OUTER
 62
3
370
35
100
AcDbSpline
 70
8
 71
5
 72
12
 73
6
 74
0
 42
0.0
 43
0.0
 40
0.0
 40
0.0
 40
0.0
 40
0.0
 40
0.0
 40
0.0
 40
1273.047114375988
 40
1273.047114375988
 40
1273.047114375988
 40
1273.047114375988
 40
1273.047114375988
 40
1273.047114375988
 10
94961.7799905592
 20
26276.6160086164
 30
0.0
 10
94977.6098971422
 20
26022.4991609381
 30
0.0
 10
94993.3620894193
 20
25768.37741037
 30
0.0
 10
95009.0152772589
 20
25514.2495029217
 30
0.0
 10
95024.4783697809
 20
25260.110073352
 30
0.0
 10
95039.7300760856
 20
25005.9578676334
 30
0.0
  0
ENDBLK
  5
91
330
8E
100
AcDbEntity
  8
0
100
AcDbBlockEnd
  0
BLOCK
  5
95
330
93
100
AcDbEntity
  8
0
100
AcDbBlockBegin
  2
V236_LW_LRU13_264 RT_TEXT_5
 70
0
 10
0.0
 20
0.0
 30
0.0
  3
V236_LW_LRU13_264 RT_TEXT_5
  1

  0
TEXT
  5
94
330
93
100
AcDbEntity
  8
TEXT
 62
14
370
13
100
AcDbText
 10
-424.328125
 20
303.898102
 30
0.0
 40
35.0
  1
V236_LW_LRU13_264 RT
 41
0.948757
 72
5
 11
182.876465
 21
303.898102
 31
0.0
100
AcDbText
  0
ENDBLK
  5
96
330
93
100
AcDbEntity
  8
0
100
AcDbBlockEnd
  0
BLOCK
  5
A1
330
9F
100
AcDbEntity
  8
0
100
AcDbBlockBegin
  2
29276884_INF_GF_HM_BI45_1000_54_CHORDWISE_V1_V236_LW_LRU13_264_R0_I30_DXF
 70
0
 10
0.0
 20
0.0
 30
0.0
  3
29276884_INF_GF_HM_BI45_1000_54_CHORDWISE_V1_V236_LW_LRU13_264_R0_I30_DXF
  1

  0
INSERT
  5
97
330
9F
100
AcDbEntity
  8
TEXT
 62
7
370
0
100
AcDbBlockReference
  2
V236_LW_LRU13_264 RT_TEXT_5
 10
96211.316406
 20
25851.364258
 30
0.0
  0
POINT
  5
98
330
9F
100
AcDbEntity
  8
STRATEGYPOINT
 62
7
370
5
100
AcDbPoint
 10
96211.316406
 20
25851.364258
 30
0.0
  0
LINE
  5
99
330
9F
100
AcDbEntity
  8
ROSETTE
 62
150
370
35
100
AcDbLine
 10
96311.316406
 20
25851.364258
 30
0.0
 11
96211.316406
 21
25851.364258
 31
0.0
  0
LINE
  5
9A
330
9F
100
AcDbEntity
  8
ROSETTE
 62
150
370
35
100
AcDbLine
 10
96211.316406
 20
25851.364258
 30
0.0
 11
96211.316406
 21
25901.364258
 31
0.0
  0
SPLINE
  5
9B
330
9F
100
AcDbEntity
  8
OUTER
 62
3
370
35
100
AcDbSpline
 70
8
 71
5
 72
12
 73
6
 74
0
 42
0.0
 43
0.0
 40
0.0
 40
0.0
 40
0.0
 40
0.0
 40
0.0
 40
0.0
 40
1677.57427844172
 40
1677.57427844172
 40
1677.57427844172
 40
1677.57427844172
 40
1677.57427844172
 40
1677.57427844172
 10
95063.9657170068
 20
24935.9083306977
 30
0.0
 10
95399.480415193
 20
24936.2334320305
 30
0.0
 10
95734.9955419244
 20
24935.7424074916
 30
0.0
 10
96070.5101965931
 20
24936.3082558665
 30
0.0
 10
96406.0250685016
 20
24936.2480497019
 30
0.0
 10
96741.5399195198
 20
24936.3040325507
 30
0.0
  0
SPLINE
  5
9C
330
9F
100
AcDbEntity
  8
OUTER
 62
3
370
35
100
AcDbSpline
 70
8
 71
5
 72
14
 73
8
 74
0
 42
0.0
 43
0.0
 40
0.0
 40
0.0
 40
0.0
 40
0.0
 40
0.0
 40
0.0
 40
305.9888527107273
 40
611.1723873587088
 40
1270.077056329335
 40
1270.077056329335
 40
1270.077056329335
 40
1270.077056329335
 40
1270.077056329335
 40
1270.077056329335
 10
96741.5399195198
 20
24936.3040325507
 30
0.0
 10
96741.6418945871
 20
24997.5017181314
 30
0.0
 10
96741.6819768819
 20
25119.7361302073
 30
0.0
 10
96741.3274276756
 20
25373.7516918432
 30
0.0
 10
96741.4329617027
 20
25627.7669589885
 30
0.0
 10
96741.4799098256
 20
25881.7824386306
 30
0.0
 10
96741.458600414
 20
26074.6000485856
 30
0.0
 10
96741.4313174924
 20
26206.3809795556
 30
0.0
  0
SPLINE
  5
9D
330
9F
100
AcDbEntity
  8
OUTER
 62
3
370
35
100
AcDbSpline
 70
8
 71
5
 72
12
 73
6
 74
0
 42
0.0
 43
0.0
 40
0.0
 40
0.0
 40
0.0
 40
0.0
 40
0.0
 40
0.0
 40
1755.255394508806
 40
1755.255394508806
 40
1755.255394508806
 40
1755.255394508806
 40
1755.255394508806
 40
1755.255394508806
 10
96741.4313174924
 20
26206.3809795556
 30
0.0
 10
96390.3802474418
 20
26206.4598085615
 30
0.0
 10
96039.3291700645
 20
26206.5550545663
 30
0.0
 10
95688.2780856197
 20
26206.6649189777
 30
0.0
 10
95337.2270115586
 20
26206.6686307627
 30
0.0
 10
94986.175948138
 20
26206.5643731479
 30
0.0
  0
SPLINE
  5
9E
330
9F
100
AcDbEntity
  8
OUTER
 62
3
370
35
100
AcDbSpline
 70
8
 71
5
 72
15
 73
9
 74
0
 42
0.0
 43
0.0
 40
0.0
 40
0.0
 40
0.0
 40
0.0
 40
0.0
 40
0.0
 40
233.8365708032792
 40
300.7879791898868
 40
622.1603830702923
 40
1273.035319857286
 40
1273.035319857286
 40
1273.035319857286
 40
1273.035319857286
 40
1273.035319857286
 40
1273.035319857286
 10
94986.1759481381
 20
26206.5643731479
 30
0.0
 10
94989.1941926733
 20
26159.8945555599
 30
0.0
 10
94992.9754352944
 20
26099.8559759811
 30
0.0
 10
95000.5841077867
 20
25975.6566357766
 30
0.0
 10
95016.1015164564
 20
25721.522582443
 30
0.0
 10
95031.7974571544
 20
25467.400000433
 30
0.0
 10
95044.3716133635
 20
25259.9409133231
 30
0.0
 10
95056.2763620556
 20
25065.8560169177
 30
0.0
 10
95063.9657170068
 20
24935.9083306977
 30
0.0
  0
ENDBLK
  5
A2
330
9F
100
AcDbEntity
  8
0
100
AcDbBlockEnd
  0
BLOCK
  5
A6
330
A4
100
AcDbEntity
  8
0
100
AcDbBlockBegin
  2
V236_LW_LRU13_265 RT_TEXT_6
 70
0
 10
0.0
 20
0.0
 30
0.0
  3
V236_LW_LRU13_265 RT_TEXT_6
  1

  0
TEXT
  5
A5
330
A4
100
AcDbEntity
  8
TEXT
 62
14
370
13
100
AcDbText
 10
-411.4375
 20
234.482101
 30
0.0
 40
35.0
  1
V236_LW_LRU13_265 RT
 41
0.948757
 72
5
 11
195.76709
 21
234.482101
 31
0.0
100
AcDbText
  0
ENDBLK
  5
A7
330
A4
100
AcDbEntity
  8
0
100
AcDbBlockEnd
  0
BLOCK
  5
B2
330
B0
100
AcDbEntity
  8
0
100
AcDbBlockBegin
  2
29276884_INF_GF_HM_BI45_1000_54_CHORDWISE_V1_V236_LW_LRU13_265_R0_I30_DXF
 70
0
 10
0.0
 20
0.0
 30
0.0
  3
29276884_INF_GF_HM_BI45_1000_54_CHORDWISE_V1_V236_LW_LRU13_265_R0_I30_DXF
  1

  0
INSERT
  5
A8
330
B0
100
AcDbEntity
  8
TEXT
 62
7
370
0
100
AcDbBlockReference
  2
V236_LW_LRU13_265 RT_TEXT_6
 10
96211.316406
 20
25851.364258
 30
0.0
  0
POINT
  5
A9
330
B0
100
AcDbEntity
  8
STRATEGYPOINT
 62
7
370
5
100
AcDbPoint
 10
96211.316406
 20
25851.364258
 30
0.0
  0
LINE
  5
AA
330
B0
100
AcDbEntity
  8
ROSETTE
 62
150
370
35
100
AcDbLine
 10
96311.316406
 20
25851.364258
 30
0.0
 11
96211.316406
 21
25851.364258
 31
0.0
  0
LINE
  5
AB
330
B0
100
AcDbEntity
  8
ROSETTE
 62
150
370
35
100
AcDbLine
 10
96211.316406
 20
25851.364258
 30
0.0
 11
96211.316406
 21
25901.364258
 31
0.0
  0
SPLINE
  5
AC
330
B0
100
AcDbEntity
  8
OUTER
 62
3
370
35
100
AcDbSpline
 70
8
 71
5
 72
12
 73
6
 74
0
 42
0.0
 43
0.0
 40
0.0
 40
0.0
 40
0.0
 40
0.0
 40
0.0
 40
0.0
 40
1633.365220807206
 40
1633.365220807206
 40
1633.365220807206
 40
1633.365220807206
 40
1633.365220807206
 40
1633.365220807206
 10
95088.2123835707
 20
24865.868251165
 30
0.0
 10
95414.8851975437
 20
24866.256057951
 30
0.0
 10
95741.5586410979
 20
24865.7825147802
 30
0.0
 10
96068.2313956997
 20
24866.2445482822
 30
0.0
 10
96394.9044880997
 20
24866.2317128925
 30
0.0
 10
96721.5775209296
 20
24866.3177559154
 30
0.0
  0
SPLINE
  5
AD
330
B0
100
AcDbEntity
  8
OUTER
 62
3
370
35
100
AcDbSpline
 70
8
 71
5
 72
12
 73
6
 74
0
 42
0.0
 43
0.0
 40
0.0
 40
0.0
 40
0.0
 40
0.0
 40
0.0
 40
0.0
 40
1270.077128592537
 40
1270.077128592537
 40
1270.077128592537
 40
1270.077128592537
 40
1270.077128592537
 40
1270.077128592537
 10
96721.5775209296
 20
24866.3177559154
 30
0.0
 10
96721.5221249282
 20
25120.3331755936
 30
0.0
 10
96721.4776022711
 20
25374.3485908271
 30
0.0
 10
96721.4439563788
 20
25628.3640016195
 30
0.0
 10
96721.4330386753
 20
25882.3794197359
 30
0.0
 10
96721.4448525811
 20
26136.3948451796
 30
0.0
  0
SPLINE
  5
AE
330
B0
100
AcDbEntity
  8
OUTER
 62
3
370
35
100
AcDbSpline
 70
8
 71
5
 72
12
 73
6
 74
0
 42
0.0
 43
0.0
 40
0.0
 40
0.0
 40
0.0
 40
0.0
 40
0.0
 40
0.0
 40
1710.884150559691
 40
1710.884150559691
 40
1710.884150559691
 40
1710.884150559691
 40
1710.884150559691
 40
1710.884150559691
 10
96721.4448525811
 20
26136.3948451796
 30
0.0
 10
96379.2680233441
 20
26136.4193105075
 30
0.0
 10
96037.091188607
 20
26136.515632717
 30
0.0
 10
95694.9143489175
 20
26136.6794051527
 30
0.0
 10
95352.7375325296
 20
26136.683343724
 30
0.0
 10
95010.5607400006
 20
26136.522968812
 30
0.0
  0
SPLINE
  5
AF
330
B0
100
AcDbEntity
  8
OUTER
 62
3
370
35
100
AcDbSpline
 70
8
 71
5
 72
12
 73
6
 74
0
 42
0.0
 43
0.0
 40
0.0
 40
0.0
 40
0.0
 40
0.0
 40
0.0
 40
0.0
 40
1273.025438690634
 40
1273.025438690634
 40
1273.025438690634
 40
1273.025438690634
 40
1273.025438690634
 40
1273.025438690634
 10
95010.5607400006
 20
26136.522968812
 30
0.0
 10
95026.3422969051
 20
25882.4074573536
 30
0.0
 10
95042.0013068668
 20
25628.2843547888
 30
0.0
 10
95057.5377554492
 20
25374.1536605291
 30
0.0
 10
95072.9414524948
 20
25120.0149595171
 30
0.0
 10
95088.2123835707
 20
24865.868251165
 30
0.0
  0
ENDBLK
  5
B3
330
B0
100
AcDbEntity
  8
0
100
AcDbBlockEnd
  0
BLOCK
  5
B7
330
B5
100
AcDbEntity
  8
0
100
AcDbBlockBegin
  2
V236_LW_LRU13_266 RT_TEXT_7
 70
0
 10
0.0
 20
0.0
 30
0.0
  3
V236_LW_LRU13_266 RT_TEXT_7
  1

  0
TEXT
  5
B6
330
B5
100
AcDbEntity
  8
TEXT
 62
14
370
13
100
AcDbText
 10
-395.289062
 20
163.171555
 30
0.0
 40
35.0
  1
V236_LW_LRU13_266 RT
 41
0.948757
 72
5
 11
211.915527
 21
163.171555
 31
0.0
100
AcDbText
  0
ENDBLK
  5
B8
330
B5
100
AcDbEntity
  8
0
100
AcDbBlockEnd
  0
BLOCK
  5
C3
330
C1
100
AcDbEntity
  8
0
100
AcDbBlockBegin
  2
29276884_INF_GF_HM_BI45_1000_54_CHORDWISE_V1_V236_LW_LRU13_266_R0_I30_DXF
 70
0
 10
0.0
 20
0.0
 30
0.0
  3
29276884_INF_GF_HM_BI45_1000_54_CHORDWISE_V1_V236_LW_LRU13_266_R0_I30_DXF
  1

  0
INSERT
  5
B9
330
C1
100
AcDbEntity
  8
TEXT
 62
7
370
0
100
AcDbBlockReference
  2
V236_LW_LRU13_266 RT_TEXT_7
 10
96211.316406
 20
25851.364258
 30
0.0
  0
POINT
  5
BA
330
C1
100
AcDbEntity
  8
STRATEGYPOINT
 62
7
370
5
100
AcDbPoint
 10
96211.316406
 20
25851.364258
 30
0.0
  0
LINE
  5
BB
330
C1
100
AcDbEntity
  8
ROSETTE
 62
150
370
35
100
AcDbLine
 10
96311.316406
 20
25851.364258
 30
0.0
 11
96211.316406
 21
25851.364258
 31
0.0
  0
LINE
  5
BC
330
C1
100
AcDbEntity
  8
ROSETTE
 62
150
370
35
100
AcDbLine
 10
96211.316406
 20
25851.364258
 30
0.0
 11
96211.316406
 21
25901.364258
 31
0.0
  0
SPLINE
  5
BD
330
C1
100
AcDbEntity
  8
OUTER
 62
3
370
35
100
AcDbSpline
 70
8
 71
5
 72
12
 73
6
 74
0
 42
0.0
 43
0.0
 40
0.0
 40
0.0
 40
0.0
 40
0.0
 40
0.0
 40
0.0
 40
1272.980754824915
 40
1272.980754824915
 40
1272.980754824915
 40
1272.980754824915
 40
1272.980754824915
 40
1272.980754824915
 10
95034.9564750657
 20
26066.4843589572
 30
0.0
 10
95050.4595618999
 20
25812.360659975
 30
0.0
 10
95066.525919041
 20
25558.271726636
 30
0.0
 10
95081.5254727165
 20
25304.1176573818
 30
0.0
 10
95097.6800046547
 20
25050.032262084
 30
0.0
 10
95112.4449181633
 20
24795.864605968
 30
0.0
  0
SPLINE
  5
BE
330
C1
100
AcDbEntity
  8
OUTER
 62
3
370
35
100
AcDbSpline
 70
8
 71
5
 72
12
 73
6
 74
0
 42
0.0
 43
0.0
 40
0.0
 40
0.0
 40
0.0
 40
0.0
 40
0.0
 40
0.0
 40
1589.181177368692
 40
1589.181177368692
 40
1589.181177368692
 40
1589.181177368692
 40
1589.181177368692
 40
1589.181177368692
 10
95112.4449181634
 20
24795.864605968
 30
0.0
 10
95430.2811530058
 20
24795.8445650247
 30
0.0
 10
95748.1173696791
 20
24795.9254156701
 30
0.0
 10
96065.953568465
 20
24796.1057925457
 30
0.0
 10
96383.7897824599
 20
24796.2275112546
 30
0.0
 10
96701.6260119345
 20
24796.2892651048
 30
0.0
  0
SPLINE
  5
BF
330
C1
100
AcDbEntity
  8
OUTER
 62
3
370
35
100
AcDbSpline
 70
8
 71
5
 72
12
 73
6
 74
0
 42
0.0
 43
0.0
 40
0.0
 40
0.0
 40
0.0
 40
0.0
 40
0.0
 40
0.0
 40
1270.082442318191
 40
1270.082442318191
 40
1270.082442318191
 40
1270.082442318191
 40
1270.082442318191
 40
1270.082442318191
 10
96701.6260119345
 20
24796.2892651048
 30
0.0
 10
96701.3315596831
 20
25050.3055829059
 30
0.0
 10
96701.2647936241
 20
25304.3220533734
 30
0.0
 10
96701.3866935408
 20
25558.3386483229
 30
0.0
 10
96701.4423388166
 20
25812.3551825872
 30
0.0
 10
96701.4515053739
 20
26066.3716708855
 30
0.0
  0
SPLINE
  5
C0
330
C1
100
AcDbEntity
  8
OUTER
 62
3
370
35
100
AcDbSpline
 70
8
 71
5
 72
12
 73
6
 74
0
 42
0.0
 43
0.0
 40
0.0
 40
0.0
 40
0.0
 40
0.0
 40
0.0
 40
0.0
 40
1666.495064944422
 40
1666.495064944422
 40
1666.495064944422
 40
1666.495064944422
 40
1666.495064944422
 40
1666.495064944422
 10
96701.4515053739
 20
26066.3716708855
 30
0.0
 10
96368.1524927644
 20
26066.387565544
 30
0.0
 10
96034.853483685
 20
26066.3828152795
 30
0.0
 10
95701.5544781193
 20
26066.3584804644
 30
0.0
 10
95368.255475251
 20
26066.3919754143
 30
0.0
 10
95034.9564750656
 20
26066.4843589571
 30
0.0
  0
ENDBLK
  5
C4
330
C1
100
AcDbEntity
  8
0
100
AcDbBlockEnd
  0
BLOCK
  5
C8
330
C6
100
AcDbEntity
  8
0
100
AcDbBlockBegin
  2
V236_LW_LRU13_267 RT_TEXT_8
 70
0
 10
0.0
 20
0.0
 30
0.0
  3
V236_LW_LRU13_267 RT_TEXT_8
  1

  0
TEXT
  5
C7
330
C6
100
AcDbEntity
  8
TEXT
 62
14
370
13
100
AcDbText
 10
-387.570312
 20
94.232094
 30
0.0
 40
35.0
  1
V236_LW_LRU13_267 RT
 41
0.948757
 72
5
 11
219.634277
 21
94.232094
 31
0.0
100
AcDbText
  0
ENDBLK
  5
C9
330
C6
100
AcDbEntity
  8
0
100
AcDbBlockEnd
  0
BLOCK
  5
D4
330
D2
100
AcDbEntity
  8
0
100
AcDbBlockBegin
  2
29276884_INF_GF_HM_BI45_1000_54_CHORDWISE_V1_V236_LW_LRU13_267_R0_I30_DXF
 70
0
 10
0.0
 20
0.0
 30
0.0
  3
29276884_INF_GF_HM_BI45_1000_54_CHORDWISE_V1_V236_LW_LRU13_267_R0_I30_DXF
  1

  0
INSERT
  5
CA
330
D2
100
AcDbEntity
  8
TEXT
 62
7
370
0
100
AcDbBlockReference
  2
V236_LW_LRU13_267 RT_TEXT_8
 10
96211.316406
 20
25851.364258
 30
0.0
  0
POINT
  5
CB
330
D2
100
AcDbEntity
  8
STRATEGYPOINT
 62
7
370
5
100
AcDbPoint
 10
96211.316406
 20
25851.364258
 30
0.0
  0
LINE
  5
CC
330
D2
100
AcDbEntity
  8
ROSETTE
 62
150
370
35
100
AcDbLine
 10
96311.316406
 20
25851.364258
 30
0.0
 11
96211.316406
 21
25851.364258
 31
0.0
  0
LINE
  5
CD
330
D2
100
AcDbEntity
  8
ROSETTE
 62
150
370
35
100
AcDbLine
 10
96211.316406
 20
25851.364258
 30
0.0
 11
96211.316406
 21
25901.364258
 31
0.0
  0
SPLINE
  5
CE
330
D2
100
AcDbEntity
  8
OUTER
 62
3
370
35
100
AcDbSpline
 70
8
 71
5
 72
12
 73
6
 74
0
 42
0.0
 43
0.0
 40
0.0
 40
0.0
 40
0.0
 40
0.0
 40
0.0
 40
0.0
 40
1544.955562490166
 40
1544.955562490166
 40
1544.955562490166
 40
1544.955562490166
 40
1544.955562490166
 40
1544.955562490166
 10
95136.6724638918
 20
24725.85066278
 30
0.0
 10
95445.6635763835
 20
24725.8527249277
 30
0.0
 10
95754.6546684546
 20
24725.9417608179
 30
0.0
 10
96063.6457402512
 20
24726.1172110579
 30
0.0
 10
96372.6368290024
 20
24726.2372579057
 30
0.0
 10
96681.6279348575
 20
24726.3013309128
 30
0.0
  0
SPLINE
  5
CF
330
D2
100
AcDbEntity
  8
OUTER
 62
3
370
35
100
AcDbSpline
 70
8
 71
5
 72
12
 73
6
 74
0
 42
0.0
 43
0.0
 40
0.0
 40
0.0
 40
0.0
 40
0.0
 40
0.0
 40
0.0
 40
1270.085254149581
 40
1270.085254149581
 40
1270.085254149581
 40
1270.085254149581
 40
1270.085254149581
 40
1270.085254149581
 10
96681.6279348575
 20
24726.3013309128
 30
0.0
 10
96681.6111552923
 20
24980.3183811886
 30
0.0
 10
96681.3513939068
 20
25234.3355930543
 30
0.0
 10
96681.925237917
 20
25488.3520296574
 30
0.0
 10
96681.0507731453
 20
25742.3698408351
 30
0.0
 10
96681.4738228894
 20
25996.3865393831
 30
0.0
  0
SPLINE
  5
D0
330
D2
100
AcDbEntity
  8
OUTER
 62
3
370
35
100
AcDbSpline
 70
8
 71
5
 72
12
 73
6
 74
0
 42
0.0
 43
0.0
 40
0.0
 40
0.0
 40
0.0
 40
0.0
 40
0.0
 40
0.0
 40
1622.160675391332
 40
1622.160675391332
 40
1622.160675391332
 40
1622.160675391332
 40
1622.160675391332
 40
1622.160675391332
 10
96681.4738228893
 20
25996.3865393832
 30
0.0
 10
96357.0417015251
 20
25996.2922116124
 30
0.0
 10
96032.6094208646
 20
25996.7053186859
 30
0.0
 10
95708.1777893511
 20
25995.8399532534
 30
0.0
 10
95383.7450482693
 20
25996.8394671998
 30
0.0
 10
95059.3131830031
 20
25996.4210521354
 30
0.0
  0
SPLINE
  5
D1
330
D2
100
AcDbEntity
  8
OUTER
 62
3
370
35
100
AcDbSpline
 70
8
 71
5
 72
13
 73
7
 74
0
 42
0.0
 43
0.0
 40
0.0
 40
0.0
 40
0.0
 40
0.0
 40
0.0
 40
0.0
 40
624.8870703750384
 40
1272.923511649169
 40
1272.923511649169
 40
1272.923511649169
 40
1272.923511649169
 40
1272.923511649169
 40
1272.923511649169
 10
95059.3131830032
 20
25996.4210521354
 30
0.0
 10
95067.0912076467
 20
25871.6859072827
 30
0.0
 10
95082.8061296654
 20
25617.5866896361
 30
0.0
 10
95098.2906812995
 20
25363.4732103004
 30
0.0
 10
95113.8684195902
 20
25109.3652051393
 30
0.0
 10
95129.0631357107
 20
24855.2343839098
 30
0.0
 10
95136.6724638918
 20
24725.8506627801
 30
0.0
  0
ENDBLK
  5
D5
330
D2
100
AcDbEntity
  8
0
100
AcDbBlockEnd
  0
BLOCK
  5
DA
330
D8
100
AcDbEntity
  8
0
100
AcDbBlockBegin
  2
V236_LW_LRU13_268 RT_TEXT_9
 70
0
 10
0.0
 20
0.0
 30
0.0
  3
V236_LW_LRU13_268 RT_TEXT_9
  1

  0
TEXT
  5
D9
330
D8
100
AcDbEntity
  8
TEXT
 62
14
370
13
100
AcDbText
 10
-384.5625
 20
-0.34017
 30
0.0
 40
35.0
  1
V236_LW_LRU13_268 RT
 41
0.948757
 72
5
 11
222.64209
 21
-0.34017
 31
0.0
100
AcDbText
  0
ENDBLK
  5
DB
330
D8
100
AcDbEntity
  8
0
100
AcDbBlockEnd
  0
BLOCK
  5
ED
330
EB
100
AcDbEntity
  8
0
100
AcDbBlockBegin
  2
29276884_INF_GF_HM_BI45_1000_54_CHORDWISE_V1_V236_LW_LRU13_268_R1_I4_DXF
 70
0
 10
0.0
 20
0.0
 30
0.0
  3
29276884_INF_GF_HM_BI45_1000_54_CHORDWISE_V1_V236_LW_LRU13_268_R1_I4_DXF
  1

  0
INSERT
  5
DC
330
EB
100
AcDbEntity
  8
TEXT
 62
7
370
0
100
AcDbBlockReference
  2
V236_LW_LRU13_268 RT_TEXT_9
 10
96211.316406
 20
25851.364258
 30
0.0
  0
POINT
  5
DD
330
EB
100
AcDbEntity
  8
STRATEGYPOINT
 62
7
370
5
100
AcDbPoint
 10
96211.316406
 20
25851.364258
 30
0.0
  0
LINE
  5
DE
330
EB
100
AcDbEntity
  8
MARKERS
 62
5
370
35
100
AcDbLine
 10
97039.316406
 20
25851.364258
 30
0.0
 11
94958.316406
 21
25851.364258
 31
0.0
  0
LINE
  5
DF
330
EB
100
AcDbEntity
  8
MARKERS
 62
5
370
35
100
AcDbLine
 10
97038.316406
 20
25551.364258
 30
0.0
 11
94975.316406
 21
25551.364258
 31
0.0
  0
LINE
  5
E0
330
EB
100
AcDbEntity
  8
MARKERS
 62
5
370
35
100
AcDbLine
 10
97038.316406
 20
25251.364258
 30
0.0
 11
94994.316406
 21
25251.364258
 31
0.0
  0
LINE
  5
E1
330
EB
100
AcDbEntity
  8
MARKERS
 62
5
370
35
100
AcDbLine
 10
96711.316406
 20
24951.364258
 30
0.0
 11
95092.316406
 21
24951.364258
 31
0.0
  0
LINE
  5
E2
330
EB
100
AcDbEntity
  8
MARKERS
 62
5
370
35
100
AcDbLine
 10
96646.316406
 20
24751.364258
 30
0.0
 11
95170.316406
 21
24751.364258
 31
0.0
  0
LINE
  5
E3
330
EB
100
AcDbEntity
  8
MARKERS
 62
5
370
35
100
AcDbLine
 10
97039.316406
 20
26151.364258
 30
0.0
 11
94939.316406
 21
26151.364258
 31
0.0
  0
LINE
  5
E4
330
EB
100
AcDbEntity
  8
MARKERS
 62
5
370
35
100
AcDbLine
 10
97041.316406
 20
26351.364258
 30
0.0
 11
94928.316406
 21
26351.364258
 31
0.0
  0
LINE
  5
E5
330
EB
100
AcDbEntity
  8
ROSETTE
 62
150
370
35
100
AcDbLine
 10
96311.316406
 20
25851.364258
 30
0.0
 11
96211.316406
 21
25851.364258
 31
0.0
  0
LINE
  5
E6
330
EB
100
AcDbEntity
  8
ROSETTE
 62
150
370
35
100
AcDbLine
 10
96211.316406
 20
25851.364258
 30
0.0
 11
96211.316406
 21
25901.364258
 31
0.0
  0
SPLINE
  5
E7
330
EB
100
AcDbEntity
  8
OUTER
 62
3
370
35
100
AcDbSpline
 70
8
 71
5
 72
12
 73
6
 74
0
 42
0.0
 43
0.0
 40
0.0
 40
0.0
 40
0.0
 40
0.0
 40
0.0
 40
0.0
 40
1500.832289714642
 40
1500.832289714642
 40
1500.832289714642
 40
1500.832289714642
 40
1500.832289714642
 40
1500.832289714642
 10
95160.8715897584
 20
24655.8099771638
 30
0.0
 10
95461.0380031837
 20
24655.973457096
 30
0.0
 10
95761.2045298557
 20
24655.9000529843
 30
0.0
 10
96061.3707343857
 20
24656.3849844008
 30
0.0
 10
96361.5375237563
 20
24655.9515287374
 30
0.0
 10
96661.703777557
 20
24656.3016041233
 30
0.0
  0
SPLINE
  5
E8
330
EB
100
AcDbEntity
  8
OUTER
 62
3
370
35
100
AcDbSpline
 70
8
 71
5
 72
12
 73
6
 74
0
 42
0.0
 43
0.0
 40
0.0
 40
0.0
 40
0.0
 40
0.0
 40
0.0
 40
0.0
 40
1270.088271358542
 40
1270.088271358542
 40
1270.088271358542
 40
1270.088271358542
 40
1270.088271358542
 40
1270.088271358542
 10
96661.703777557
 20
24656.3016041233
 30
0.0
 10
96661.4450220064
 20
24910.3191266042
 30
0.0
 10
96661.3440551189
 20
25164.3367540361
 30
0.0
 10
96661.3855592143
 20
25418.3544734033
 30
0.0
 10
96661.4295809686
 20
25672.3721657724
 30
0.0
 10
96661.4607980472
 20
25926.3898181261
 30
0.0
  0
SPLINE
  5
E9
330
EB
100
AcDbEntity
  8
OUTER
 62
3
370
35
100
AcDbSpline
 70
8
 71
5
 72
12
 73
6
 74
0
 42
0.0
 43
0.0
 40
0.0
 40
0.0
 40
0.0
 40
0.0
 40
0.0
 40
0.0
 40
1577.803411769487
 40
1577.803411769487
 40
1577.803411769487
 40
1577.803411769487
 40
1577.803411769487
 40
1577.803411769487
 10
96661.4607980472
 20
25926.3898181261
 30
0.0
 10
96345.9002253842
 20
25926.1267084963
 30
0.0
 10
96030.3394891103
 20
25926.2851403201
 30
0.0
 10
95714.7787548964
 20
25926.46508054
 30
0.0
 10
95399.2180565089
 20
25926.5440053973
 30
0.0
 10
95083.6574062982
 20
25926.4015736614
 30
0.0
  0
SPLINE
  5
EA
330
EB
100
AcDbEntity
  8
OUTER
 62
3
370
35
100
AcDbSpline
 70
8
 71
5
 72
13
 73
7
 74
0
 42
0.0
 43
0.0
 40
0.0
 40
0.0
 40
0.0
 40
0.0
 40
0.0
 40
0.0
 40
951.7533611540781
 40
1272.935976427903
 40
1272.935976427903
 40
1272.935976427903
 40
1272.935976427903
 40
1272.935976427903
 40
1272.935976427903
 10
95083.6574062982
 20
25926.4015736614
 30
0.0
 10
95095.5150243658
 20
25736.4205869484
 30
0.0
 10
95111.0593604173
 20
25482.3083252229
 30
0.0
 10
95126.4213982974
 20
25228.1850717945
 30
0.0
 10
95142.1394588422
 20
24974.0828009097
 30
0.0
 10
95157.1386066789
 20
24719.9379408887
 30
0.0
 10
95160.8715897584
 20
24655.8099771638
 30
0.0
  0
ENDBLK
  5
EE
330
EB
100
AcDbEntity
  8
0
100
AcDbBlockEnd
  0
ENDSEC
  0
SECTION
  2
ENTITIES
  0
INSERT
  5
D6
330
1F
100
AcDbEntity
  8
0
100
AcDbBlockReference
  2
29276884_INF_GF_HM_BI45_1000_54_CHORDWISE_V1_V236_LW_LRU13_267_R0_I30_DXF
 10
0.0
 20
0.0
 30
0.0
  0
POINT
  5
10E
330
1F
100
AcDbEntity
  8
STRATEGYPOINT
 62
7
370
5
100
AcDbPoint
 10
96211.316406
 20
25851.364258
 30
0.0
  0
LINE
  5
10F
330
1F
100
AcDbEntity
  8
ROSETTE
 62
150
370
35
100
AcDbLine
 10
96311.316406
 20
25851.364258
 30
0.0
 11
96211.316406
 21
25851.364258
 31
0.0
  0
LINE
  5
110
330
1F
100
AcDbEntity
  8
ROSETTE
 62
150
370
35
100
AcDbLine
 10
96211.316406
 20
25851.364258
 30
0.0
 11
96211.316406
 21
25901.364258
 31
0.0
  0
SPLINE
  5
111
330
1F
100
AcDbEntity
  8
OUTER
 62
3
370
35
100
AcDbSpline
 70
8
 71
5
 72
12
 73
6
 74
0
 42
0.0
 43
0.0
 40
0.0
 40
0.0
 40
0.0
 40
0.0
 40
0.0
 40
0.0
 40
2144.487624699441
 40
2144.487624699441
 40
2144.487624699441
 40
2144.487624699441
 40
2144.487624699441
 40
2144.487624699441
 10
94966.9040733971
 20
25216.0216157481
 30
0.0
 10
95395.8015781397
 20
25216.1532433822
 30
0.0
 10
95824.6990903745
 20
25216.2430500928
 30
0.0
 10
96253.5966094915
 20
25216.2946717901
 30
0.0
 10
96682.4941312494
 20
25216.3342664175
 30
0.0
 10
97111.3916550538
 20
25216.3654695887
 30
0.0
  0
SPLINE
  5
112
330
1F
100
AcDbEntity
  8
OUTER
 62
3
370
35
100
AcDbSpline
 70
8
 71
5
 72
12
 73
6
 74
0
 42
0.0
 43
0.0
 40
0.0
 40
0.0
 40
0.0
 40
0.0
 40
0.0
 40
0.0
 40
1270.012969494738
 40
1270.012969494738
 40
1270.012969494738
 40
1270.012969494738
 40
1270.012969494738
 40
1270.012969494738
 10
97111.3916550538
 20
25216.3654695888
 30
0.0
 10
97111.4777722319
 20
25470.3680488895
 30
0.0
 10
97111.3140937304
 20
25724.3706154763
 30
0.0
 10
97111.3032972852
 20
25978.3731952465
 30
0.0
 10
97111.4400794844
 20
26232.37577001
 30
0.0
 10
97111.3991542461
 20
26486.378360612
 30
0.0
  0
SPLINE
  5
113
330
1F
100
AcDbEntity
  8
OUTER
 62
3
370
35
100
AcDbSpline
 70
8
 71
5
 72
12
 73
6
 74
0
 42
0.0
 43
0.0
 40
0.0
 40
0.0
 40
0.0
 40
0.0
 40
0.0
 40
0.0
 40
2222.830620676729
 40
2222.830620676729
 40
2222.830620676729
 40
2222.830620676729
 40
2222.830620676729
 40
2222.830620676729
 10
97111.3991542461
 20
26486.378360612
 30
0.0
 10
96666.8330301947
 20
26486.3697844298
 30
0.0
 10
96222.2668166424
 20
26486.7231534082
 30
0.0
 10
95777.701089432
 20
26486.0198952377
 30
0.0
 10
95333.134496588
 20
26487.1655963242
 30
0.0
 10
94888.5686069191
 20
26486.7090101783
 30
0.0
  0
SPLINE
  5
114
330
1F
100
AcDbEntity
  8
OUTER
 62
3
370
35
100
AcDbSpline
 70
8
 71
5
 72
12
 73
6
 74
0
 42
0.0
 43
0.0
 40
0.0
 40
0.0
 40
0.0
 40
0.0
 40
0.0
 40
0.0
 40
1273.099965513876
 40
1273.099965513876
 40
1273.099965513876
 40
1273.099965513876
 40
1273.099965513876
 40
1273.099965513876
 10
94888.5686069191
 20
26486.7090101783
 30
0.0
 10
94904.2536872491
 20
26232.572591807
 30
0.0
 10
94920.1295488535
 20
25978.4477971325
 30
0.0
 10
94936.1123193567
 20
25724.3295235069
 30
0.0
 10
94951.7317933779
 20
25470.1891644372
 30
0.0
 10
94966.9040733971
 20
25216.0216157481
 30
0.0
  0
POINT
  5
117
330
1F
100
AcDbEntity
  8
STRATEGYPOINT
 62
7
370
5
100
AcDbPoint
 10
96211.316406
 20
25851.364258
 30
0.0
  0
LINE
  5
118
330
1F
100
AcDbEntity
  8
ROSETTE
 62
150
370
35
100
AcDbLine
 10
96311.316406
 20
25851.364258
 30
0.0
 11
96211.316406
 21
25851.364258
 31
0.0
  0
LINE
  5
119
330
1F
100
AcDbEntity
  8
ROSETTE
 62
150
370
35
100
AcDbLine
 10
96211.316406
 20
25851.364258
 30
0.0
 11
96211.316406
 21
25901.364258
 31
0.0
  0
SPLINE
  5
11A
330
1F
100
AcDbEntity
  8
OUTER
 62
3
370
35
100
AcDbSpline
 70
8
 71
5
 72
12
 73
6
 74
0
 42
0.0
 43
0.0
 40
0.0
 40
0.0
 40
0.0
 40
0.0
 40
0.0
 40
0.0
 40
1995.984318229528
 40
1995.984318229528
 40
1995.984318229528
 40
1995.984318229528
 40
1995.984318229528
 40
1995.984318229528
 10
95015.4744419238
 20
25075.9805594594
 30
0.0
 10
95414.6712838448
 20
25075.8488512728
 30
0.0
 10
95813.8681519687
 20
25076.1774130032
 30
0.0
 10
96213.0650036803
 20
25076.2588533816
 30
0.0
 10
96612.2618505655
 20
25076.27267713
 30
0.0
 10
97011.4587054142
 20
25076.3564838628
 30
0.0
  0
SPLINE
  5
11B
330
1F
100
AcDbEntity
  8
OUTER
 62
3
370
35
100
AcDbSpline
 70
8
 71
5
 72
14
 73
8
 74
0
 42
0.0
 43
0.0
 40
0.0
 40
0.0
 40
0.0
 40
0.0
 40
0.0
 40
0.0
 40
642.3668872208513
 40
955.8818037549148
 40
1270.027915688391
 40
1270.027915688391
 40
1270.027915688391
 40
1270.027915688391
 40
1270.027915688391
 40
1270.027915688391
 10
97011.4587054143
 20
25076.3564838629
 30
0.0
 10
97011.3943426409
 20
25204.8298451849
 30
0.0
 10
97011.3359721076
 20
25396.0061977174
 30
0.0
 10
97011.3087441462
 20
25650.011794748
 30
0.0
 10
97011.1914201823
 20
25904.0174446259
 30
0.0
 10
97011.2184298382
 20
26158.0230124947
 30
0.0
 10
97011.3194523811
 20
26283.5551587248
 30
0.0
 10
97011.3929333053
 20
26346.3843381422
 30
0.0
  0
SPLINE
  5
11C
330
1F
100
AcDbEntity
  8
OUTER
 62
3
370
35
100
AcDbSpline
 70
8
 71
5
 72
13
 73
7
 74
0
 42
0.0
 43
0.0
 40
0.0
 40
0.0
 40
0.0
 40
0.0
 40
0.0
 40
0.0
 40
1053.393780312436
 40
2074.014999046002
 40
2074.014999046002
 40
2074.014999046002
 40
2074.014999046002
 40
2074.014999046002
 40
2074.014999046002
 10
97011.3929333052
 20
26346.3843381422
 30
0.0
 10
96800.7141780948
 20
26346.4032839403
 30
0.0
 10
96385.9112770569
 20
26346.6044054031
 30
0.0
 10
95971.1079004019
 20
26346.1473316344
 30
0.0
 10
95556.3056093086
 20
26347.0419142896
 30
0.0
 10
95141.5019647126
 20
26346.3689793574
 30
0.0
 10
94937.3780186443
 20
26346.7175860607
 30
0.0
  0
SPLINE
  5
11D
330
1F
100
AcDbEntity
  8
OUTER
 62
3
370
35
100
AcDbSpline
 70
8
 71
5
 72
14
 73
8
 74
0
 42
0.0
 43
0.0
 40
0.0
 40
0.0
 40
0.0
 40
0.0
 40
0.0
 40
0.0
 40
339.2498157279961
 40
947.4686022920914
 40
1273.134792073459
 40
1273.134792073459
 40
1273.134792073459
 40
1273.134792073459
 40
1273.134792073459
 40
1273.134792073459
 10
94937.3780186443
 20
26346.7175860607
 30
0.0
 10
94941.5414678421
 20
26278.9954833937
 30
0.0
 10
94953.2209908101
 20
26089.8620521141
 30
0.0
 10
94969.0936908993
 20
25835.73026317
 30
0.0
 10
94984.6841268836
 20
25581.5810649517
 30
0.0
 10
95000.001533082
 20
25327.415124964
 30
0.0
 10
95011.4531614549
 20
25140.9895433775
 30
0.0
 10
95015.4744419238
 20
25075.9805594594
 30
0.0
  0
POINT
  5
120
330
1F
100
AcDbEntity
  8
STRATEGYPOINT
 62
7
370
5
100
AcDbPoint
 10
96211.316406
 20
25851.364258
 30
0.0
  0
LINE
  5
121
330
1F
100
AcDbEntity
  8
ROSETTE
 62
150
370
35
100
AcDbLine
 10
96311.316406
 20
25851.364258
 30
0.0
 11
96211.316406
 21
25851.364258
 31
0.0
  0
LINE
  5
122
330
1F
100
AcDbEntity
  8
ROSETTE
 62
150
370
35
100
AcDbLine
 10
96211.316406
 20
25851.364258
 30
0.0
 11
96211.316406
 21
25901.364258
 31
0.0
  0
SPLINE
  5
123
330
1F
100
AcDbEntity
  8
OUTER
 62
3
370
35
100
AcDbSpline
 70
8
 71
5
 72
12
 73
6
 74
0
 42
0.0
 43
0.0
 40
0.0
 40
0.0
 40
0.0
 40
0.0
 40
0.0
 40
0.0
 40
1677.57427844172
 40
1677.57427844172
 40
1677.57427844172
 40
1677.57427844172
 40
1677.57427844172
 40
1677.57427844172
 10
95063.9657170068
 20
24935.9083306977
 30
0.0
 10
95399.480415193
 20
24936.2334320305
 30
0.0
 10
95734.9955419244
 20
24935.7424074916
 30
0.0
 10
96070.5101965931
 20
24936.3082558665
 30
0.0
 10
96406.0250685016
 20
24936.2480497019
 30
0.0
 10
96741.5399195198
 20
24936.3040325507
 30
0.0
  0
SPLINE
  5
124
330
1F
100
AcDbEntity
  8
OUTER
 62
3
370
35
100
AcDbSpline
 70
8
 71
5
 72
14
 73
8
 74
0
 42
0.0
 43
0.0
 40
0.0
 40
0.0
 40
0.0
 40
0.0
 40
0.0
 40
0.0
 40
305.9888527107273
 40
611.1723873587088
 40
1270.077056329335
 40
1270.077056329335
 40
1270.077056329335
 40
1270.077056329335
 40
1270.077056329335
 40
1270.077056329335
 10
96741.5399195198
 20
24936.3040325507
 30
0.0
 10
96741.6418945871
 20
24997.5017181314
 30
0.0
 10
96741.6819768819
 20
25119.7361302073
 30
0.0
 10
96741.3274276756
 20
25373.7516918432
 30
0.0
 10
96741.4329617027
 20
25627.7669589885
 30
0.0
 10
96741.4799098256
 20
25881.7824386306
 30
0.0
 10
96741.458600414
 20
26074.6000485856
 30
0.0
 10
96741.4313174924
 20
26206.3809795556
 30
0.0
  0
SPLINE
  5
125
330
1F
100
AcDbEntity
  8
OUTER
 62
3
370
35
100
AcDbSpline
 70
8
 71
5
 72
12
 73
6
 74
0
 42
0.0
 43
0.0
 40
0.0
 40
0.0
 40
0.0
 40
0.0
 40
0.0
 40
0.0
 40
1755.255394508806
 40
1755.255394508806
 40
1755.255394508806
 40
1755.255394508806
 40
1755.255394508806
 40
1755.255394508806
 10
96741.4313174924
 20
26206.3809795556
 30
0.0
 10
96390.3802474418
 20
26206.4598085615
 30
0.0
 10
96039.3291700645
 20
26206.5550545663
 30
0.0
 10
95688.2780856197
 20
26206.6649189777
 30
0.0
 10
95337.2270115586
 20
26206.6686307627
 30
0.0
 10
94986.175948138
 20
26206.5643731479
 30
0.0
  0
SPLINE
  5
126
330
1F
100
AcDbEntity
  8
OUTER
 62
3
370
35
100
AcDbSpline
 70
8
 71
5
 72
15
 73
9
 74
0
 42
0.0
 43
0.0
 40
0.0
 40
0.0
 40
0.0
 40
0.0
 40
0.0
 40
0.0
 40
233.8365708032792
 40
300.7879791898868
 40
622.1603830702923
 40
1273.035319857286
 40
1273.035319857286
 40
1273.035319857286
 40
1273.035319857286
 40
1273.035319857286
 40
1273.035319857286
 10
94986.1759481381
 20
26206.5643731479
 30
0.0
 10
94989.1941926733
 20
26159.8945555599
 30
0.0
 10
94992.9754352944
 20
26099.8559759811
 30
0.0
 10
95000.5841077867
 20
25975.6566357766
 30
0.0
 10
95016.1015164564
 20
25721.522582443
 30
0.0
 10
95031.7974571544
 20
25467.400000433
 30
0.0
 10
95044.3716133635
 20
25259.9409133231
 30
0.0
 10
95056.2763620556
 20
25065.8560169177
 30
0.0
 10
95063.9657170068
 20
24935.9083306977
 30
0.0
  0
POINT
  5
129
330
1F
100
AcDbEntity
  8
STRATEGYPOINT
 62
7
370
5
100
AcDbPoint
 10
96211.316406
 20
25851.364258
 30
0.0
  0
LINE
  5
12A
330
1F
100
AcDbEntity
  8
ROSETTE
 62
150
370
35
100
AcDbLine
 10
96311.316406
 20
25851.364258
 30
0.0
 11
96211.316406
 21
25851.364258
 31
0.0
  0
LINE
  5
12B
330
1F
100
AcDbEntity
  8
ROSETTE
 62
150
370
35
100
AcDbLine
 10
96211.316406
 20
25851.364258
 30
0.0
 11
96211.316406
 21
25901.364258
 31
0.0
  0
SPLINE
  5
12C
330
1F
100
AcDbEntity
  8
OUTER
 62
3
370
35
100
AcDbSpline
 70
8
 71
5
 72
12
 73
6
 74
0
 42
0.0
 43
0.0
 40
0.0
 40
0.0
 40
0.0
 40
0.0
 40
0.0
 40
0.0
 40
1272.980754824915
 40
1272.980754824915
 40
1272.980754824915
 40
1272.980754824915
 40
1272.980754824915
 40
1272.980754824915
 10
95034.9564750657
 20
26066.4843589572
 30
0.0
 10
95050.4595618999
 20
25812.360659975
 30
0.0
 10
95066.525919041
 20
25558.271726636
 30
0.0
 10
95081.5254727165
 20
25304.1176573818
 30
0.0
 10
95097.6800046547
 20
25050.032262084
 30
0.0
 10
95112.4449181633
 20
24795.864605968
 30
0.0
  0
SPLINE
  5
12D
330
1F
100
AcDbEntity
  8
OUTER
 62
3
370
35
100
AcDbSpline
 70
8
 71
5
 72
12
 73
6
 74
0
 42
0.0
 43
0.0
 40
0.0
 40
0.0
 40
0.0
 40
0.0
 40
0.0
 40
0.0
 40
1589.181177368692
 40
1589.181177368692
 40
1589.181177368692
 40
1589.181177368692
 40
1589.181177368692
 40
1589.181177368692
 10
95112.4449181634
 20
24795.864605968
 30
0.0
 10
95430.2811530058
 20
24795.8445650247
 30
0.0
 10
95748.1173696791
 20
24795.9254156701
 30
0.0
 10
96065.953568465
 20
24796.1057925457
 30
0.0
 10
96383.7897824599
 20
24796.2275112546
 30
0.0
 10
96701.6260119345
 20
24796.2892651048
 30
0.0
  0
SPLINE
  5
12E
330
1F
100
AcDbEntity
  8
OUTER
 62
3
370
35
100
AcDbSpline
 70
8
 71
5
 72
12
 73
6
 74
0
 42
0.0
 43
0.0
 40
0.0
 40
0.0
 40
0.0
 40
0.0
 40
0.0
 40
0.0
 40
1270.082442318191
 40
1270.082442318191
 40
1270.082442318191
 40
1270.082442318191
 40
1270.082442318191
 40
1270.082442318191
 10
96701.6260119345
 20
24796.2892651048
 30
0.0
 10
96701.3315596831
 20
25050.3055829059
 30
0.0
 10
96701.2647936241
 20
25304.3220533734
 30
0.0
 10
96701.3866935408
 20
25558.3386483229
 30
0.0
 10
96701.4423388166
 20
25812.3551825872
 30
0.0
 10
96701.4515053739
 20
26066.3716708855
 30
0.0
  0
SPLINE
  5
12F
330
1F
100
AcDbEntity
  8
OUTER
 62
3
370
35
100
AcDbSpline
 70
8
 71
5
 72
12
 73
6
 74
0
 42
0.0
 43
0.0
 40
0.0
 40
0.0
 40
0.0
 40
0.0
 40
0.0
 40
0.0
 40
1666.495064944422
 40
1666.495064944422
 40
1666.495064944422
 40
1666.495064944422
 40
1666.495064944422
 40
1666.495064944422
 10
96701.4515053739
 20
26066.3716708855
 30
0.0
 10
96368.1524927644
 20
26066.387565544
 30
0.0
 10
96034.853483685
 20
26066.3828152795
 30
0.0
 10
95701.5544781193
 20
26066.3584804644
 30
0.0
 10
95368.255475251
 20
26066.3919754143
 30
0.0
 10
95034.9564750656
 20
26066.4843589571
 30
0.0
  0
POINT
  5
132
330
1F
100
AcDbEntity
  8
STRATEGYPOINT
 62
7
370
5
100
AcDbPoint
 10
96211.316406
 20
25851.364258
 30
0.0
  0
LINE
  5
133
330
1F
100
AcDbEntity
  8
MARKERS
 62
5
370
35
100
AcDbLine
 10
97039.316406
 20
25851.364258
 30
0.0
 11
94958.316406
 21
25851.364258
 31
0.0
  0
LINE
  5
134
330
1F
100
AcDbEntity
  8
MARKERS
 62
5
370
35
100
AcDbLine
 10
97038.316406
 20
25551.364258
 30
0.0
 11
94975.316406
 21
25551.364258
 31
0.0
  0
LINE
  5
135
330
1F
100
AcDbEntity
  8
MARKERS
 62
5
370
35
100
AcDbLine
 10
97038.316406
 20
25251.364258
 30
0.0
 11
94994.316406
 21
25251.364258
 31
0.0
  0
LINE
  5
136
330
1F
100
AcDbEntity
  8
MARKERS
 62
5
370
35
100
AcDbLine
 10
96711.316406
 20
24951.364258
 30
0.0
 11
95092.316406
 21
24951.364258
 31
0.0
  0
LINE
  5
137
330
1F
100
AcDbEntity
  8
MARKERS
 62
5
370
35
100
AcDbLine
 10
96646.316406
 20
24751.364258
 30
0.0
 11
95170.316406
 21
24751.364258
 31
0.0
  0
LINE
  5
138
330
1F
100
AcDbEntity
  8
MARKERS
 62
5
370
35
100
AcDbLine
 10
97039.316406
 20
26151.364258
 30
0.0
 11
94939.316406
 21
26151.364258
 31
0.0
  0
LINE
  5
139
330
1F
100
AcDbEntity
  8
MARKERS
 62
5
370
35
100
AcDbLine
 10
97041.316406
 20
26351.364258
 30
0.0
 11
94928.316406
 21
26351.364258
 31
0.0
  0
LINE
  5
13A
330
1F
100
AcDbEntity
  8
ROSETTE
 62
150
370
35
100
AcDbLine
 10
96311.316406
 20
25851.364258
 30
0.0
 11
96211.316406
 21
25851.364258
 31
0.0
  0
LINE
  5
13B
330
1F
100
AcDbEntity
  8
ROSETTE
 62
150
370
35
100
AcDbLine
 10
96211.316406
 20
25851.364258
 30
0.0
 11
96211.316406
 21
25901.364258
 31
0.0
  0
SPLINE
  5
13C
330
1F
100
AcDbEntity
  8
OUTER
 62
3
370
35
100
AcDbSpline
 70
8
 71
5
 72
12
 73
6
 74
0
 42
0.0
 43
0.0
 40
0.0
 40
0.0
 40
0.0
 40
0.0
 40
0.0
 40
0.0
 40
1500.832289714642
 40
1500.832289714642
 40
1500.832289714642
 40
1500.832289714642
 40
1500.832289714642
 40
1500.832289714642
 10
95160.8715897584
 20
24655.8099771638
 30
0.0
 10
95461.0380031837
 20
24655.973457096
 30
0.0
 10
95761.2045298557
 20
24655.9000529843
 30
0.0
 10
96061.3707343857
 20
24656.3849844008
 30
0.0
 10
96361.5375237563
 20
24655.9515287374
 30
0.0
 10
96661.703777557
 20
24656.3016041233
 30
0.0
  0
SPLINE
  5
13D
330
1F
100
AcDbEntity
  8
OUTER
 62
3
370
35
100
AcDbSpline
 70
8
 71
5
 72
12
 73
6
 74
0
 42
0.0
 43
0.0
 40
0.0
 40
0.0
 40
0.0
 40
0.0
 40
0.0
 40
0.0
 40
1270.088271358542
 40
1270.088271358542
 40
1270.088271358542
 40
1270.088271358542
 40
1270.088271358542
 40
1270.088271358542
 10
96661.703777557
 20
24656.3016041233
 30
0.0
 10
96661.4450220064
 20
24910.3191266042
 30
0.0
 10
96661.3440551189
 20
25164.3367540361
 30
0.0
 10
96661.3855592143
 20
25418.3544734033
 30
0.0
 10
96661.4295809686
 20
25672.3721657724
 30
0.0
 10
96661.4607980472
 20
25926.3898181261
 30
0.0
  0
SPLINE
  5
13E
330
1F
100
AcDbEntity
  8
OUTER
 62
3
370
35
100
AcDbSpline
 70
8
 71
5
 72
12
 73
6
 74
0
 42
0.0
 43
0.0
 40
0.0
 40
0.0
 40
0.0
 40
0.0
 40
0.0
 40
0.0
 40
1577.803411769487
 40
1577.803411769487
 40
1577.803411769487
 40
1577.803411769487
 40
1577.803411769487
 40
1577.803411769487
 10
96661.4607980472
 20
25926.3898181261
 30
0.0
 10
96345.9002253842
 20
25926.1267084963
 30
0.0
 10
96030.3394891103
 20
25926.2851403201
 30
0.0
 10
95714.7787548964
 20
25926.46508054
 30
0.0
 10
95399.2180565089
 20
25926.5440053973
 30
0.0
 10
95083.6574062982
 20
25926.4015736614
 30
0.0
  0
SPLINE
  5
13F
330
1F
100
AcDbEntity
  8
OUTER
 62
3
370
35
100
AcDbSpline
 70
8
 71
5
 72
13
 73
7
 74
0
 42
0.0
 43
0.0
 40
0.0
 40
0.0
 40
0.0
 40
0.0
 40
0.0
 40
0.0
 40
951.7533611540781
 40
1272.935976427903
 40
1272.935976427903
 40
1272.935976427903
 40
1272.935976427903
 40
1272.935976427903
 40
1272.935976427903
 10
95083.6574062982
 20
25926.4015736614
 30
0.0
 10
95095.5150243658
 20
25736.4205869484
 30
0.0
 10
95111.0593604173
 20
25482.3083252229
 30
0.0
 10
95126.4213982974
 20
25228.1850717945
 30
0.0
 10
95142.1394588422
 20
24974.0828009097
 30
0.0
 10
95157.1386066789
 20
24719.9379408887
 30
0.0
 10
95160.8715897584
 20
24655.8099771638
 30
0.0
  0
TEXT
  5
140
330
1F
100
AcDbEntity
  8
TEXT
 62
14
370
13
100
AcDbText
 10
95762.902344
 20
26293.551422
 30
0.0
 40
35.0
  1
V236_LW_LRU13_262 RT
 41
0.948757
 72
5
 11
96370.106933
 21
26293.551422
 31
0.0
100
AcDbText
  0
TEXT
  5
141
330
1F
100
AcDbEntity
  8
TEXT
 62
14
370
13
100
AcDbText
 10
95786.988281
 20
26155.26236
 30
0.0
 40
35.0
  1
V236_LW_LRU13_264 RT
 41
0.948757
 72
5
 11
96394.19287099999
 21
26155.26236
 31
0.0
100
AcDbText
  0
TEXT
  5
142
330
1F
100
AcDbEntity
  8
TEXT
 62
14
370
13
100
AcDbText
 10
95816.027344
 20
26014.535813000002
 30
0.0
 40
35.0
  1
V236_LW_LRU13_266 RT
 41
0.948757
 72
5
 11
96423.231933
 21
26014.535813000002
 31
0.0
100
AcDbText
  0
TEXT
  5
143
330
1F
100
AcDbEntity
  8
TEXT
 62
14
370
13
100
AcDbText
 10
95826.753906
 20
25851.024088000002
 30
0.0
 40
35.0
  1
V236_LW_LRU13_268 RT
 41
0.948757
 72
5
 11
96433.95849599999
 21
25851.024088000002
 31
0.0
100
AcDbText
  0
POINT
  5
14A
330
1F
100
AcDbEntity
  8
STRATEGYPOINT
 62
7
370
5
100
AcDbPoint
 10
96211.316406
 20
25851.364258
 30
0.0
  0
LINE
  5
14B
330
1F
100
AcDbEntity
  8
ROSETTE
 62
150
370
35
100
AcDbLine
 10
96311.316406
 20
25851.364258
 30
0.0
 11
96211.316406
 21
25851.364258
 31
0.0
  0
LINE
  5
14C
330
1F
100
AcDbEntity
  8
ROSETTE
 62
150
370
35
100
AcDbLine
 10
96211.316406
 20
25851.364258
 30
0.0
 11
96211.316406
 21
25901.364258
 31
0.0
  0
SPLINE
  5
14D
330
1F
100
AcDbEntity
  8
OUTER
 62
3
370
35
100
AcDbSpline
 70
8
 71
5
 72
12
 73
6
 74
0
 42
0.0
 43
0.0
 40
0.0
 40
0.0
 40
0.0
 40
0.0
 40
0.0
 40
0.0
 40
2070.231976844913
 40
2070.231976844913
 40
2070.231976844913
 40
2070.231976844913
 40
2070.231976844913
 40
2070.231976844913
 10
94991.2009490726
 20
25145.9845144567
 30
0.0
 10
95405.2472501379
 20
25146.2639659812
 30
0.0
 10
95819.2936307985
 20
25146.334008966
 30
0.0
 10
96233.3400887841
 20
25146.2010305246
 30
0.0
 10
96647.3865036318
 20
25146.2046174067
 30
0.0
 10
97061.4328730696
 20
25146.3511571243
 30
0.0
  0
SPLINE
  5
14E
330
1F
100
AcDbEntity
  8
OUTER
 62
3
370
35
100
AcDbSpline
 70
8
 71
5
 72
12
 73
6
 74
0
 42
0.0
 43
0.0
 40
0.0
 40
0.0
 40
0.0
 40
0.0
 40
0.0
 40
0.0
 40
1270.021333292621
 40
1270.021333292621
 40
1270.021333292621
 40
1270.021333292621
 40
1270.021333292621
 40
1270.021333292621
 10
97061.4328730696
 20
25146.3511571243
 30
0.0
 10
97061.3361867213
 20
25400.3554053812
 30
0.0
 10
97061.2730916546
 20
25654.3596879882
 30
0.0
 10
97061.1643955539
 20
25908.3640322668
 30
0.0
 10
97061.164174
 20
26162.3683119465
 30
0.0
 10
97061.3896304935
 20
26416.3724785464
 30
0.0
  0
SPLINE
  5
14F
330
1F
100
AcDbEntity
  8
OUTER
 62
3
370
35
100
AcDbSpline
 70
8
 71
5
 72
12
 73
6
 74
0
 42
0.0
 43
0.0
 40
0.0
 40
0.0
 40
0.0
 40
0.0
 40
0.0
 40
0.0
 40
2148.41777594017
 40
2148.41777594017
 40
2148.41777594017
 40
2148.41777594017
 40
2148.41777594017
 40
2148.41777594017
 10
97061.3896304936
 20
26416.3724785464
 30
0.0
 10
96631.7060873649
 20
26416.4742774144
 30
0.0
 10
96202.0225430677
 20
26416.5589760317
 30
0.0
 10
95772.3389975857
 20
26416.6265846704
 30
0.0
 10
95342.6554480488
 20
26416.6788015218
 30
0.0
 10
94912.9718944394
 20
26416.7156368142
 30
0.0
  0
SPLINE
  5
150
330
1F
100
AcDbEntity
  8
OUTER
 62
3
370
35
100
AcDbSpline
 70
8
 71
5
 72
12
 73
6
 74
0
 42
0.0
 43
0.0
 40
0.0
 40
0.0
 40
0.0
 40
0.0
 40
0.0
 40
0.0
 40
1273.137049083042
 40
1273.137049083042
 40
1273.137049083042
 40
1273.137049083042
 40
1273.137049083042
 40
1273.137049083042
 10
94912.9718944394
 20
26416.7156368142
 30
0.0
 10
94928.8656155845
 20
26162.5847503442
 30
0.0
 10
94944.6156821699
 20
25908.444985628
 30
0.0
 10
94960.3011090684
 20
25654.3009994
 30
0.0
 10
94976.0014106358
 20
25400.1578644787
 30
0.0
 10
94991.2009490726
 20
25145.9845144567
 30
0.0
  0
POINT
  5
153
330
1F
100
AcDbEntity
  8
STRATEGYPOINT
 62
7
370
5
100
AcDbPoint
 10
96211.316406
 20
25851.364258
 30
0.0
  0
LINE
  5
154
330
1F
100
AcDbEntity
  8
ROSETTE
 62
150
370
35
100
AcDbLine
 10
96311.316406
 20
25851.364258
 30
0.0
 11
96211.316406
 21
25851.364258
 31
0.0
  0
LINE
  5
155
330
1F
100
AcDbEntity
  8
ROSETTE
 62
150
370
35
100
AcDbLine
 10
96211.316406
 20
25851.364258
 30
0.0
 11
96211.316406
 21
25901.364258
 31
0.0
  0
SPLINE
  5
156
330
1F
100
AcDbEntity
  8
OUTER
 62
3
370
35
100
AcDbSpline
 70
8
 71
5
 72
12
 73
6
 74
0
 42
0.0
 43
0.0
 40
0.0
 40
0.0
 40
0.0
 40
0.0
 40
0.0
 40
0.0
 40
1633.365220807206
 40
1633.365220807206
 40
1633.365220807206
 40
1633.365220807206
 40
1633.365220807206
 40
1633.365220807206
 10
95088.2123835707
 20
24865.868251165
 30
0.0
 10
95414.8851975437
 20
24866.256057951
 30
0.0
 10
95741.5586410979
 20
24865.7825147802
 30
0.0
 10
96068.2313956997
 20
24866.2445482822
 30
0.0
 10
96394.9044880997
 20
24866.2317128925
 30
0.0
 10
96721.5775209296
 20
24866.3177559154
 30
0.0
  0
SPLINE
  5
157
330
1F
100
AcDbEntity
  8
OUTER
 62
3
370
35
100
AcDbSpline
 70
8
 71
5
 72
12
 73
6
 74
0
 42
0.0
 43
0.0
 40
0.0
 40
0.0
 40
0.0
 40
0.0
 40
0.0
 40
0.0
 40
1270.077128592537
 40
1270.077128592537
 40
1270.077128592537
 40
1270.077128592537
 40
1270.077128592537
 40
1270.077128592537
 10
96721.5775209296
 20
24866.3177559154
 30
0.0
 10
96721.5221249282
 20
25120.3331755936
 30
0.0
 10
96721.4776022711
 20
25374.3485908271
 30
0.0
 10
96721.4439563788
 20
25628.3640016195
 30
0.0
 10
96721.4330386753
 20
25882.3794197359
 30
0.0
 10
96721.4448525811
 20
26136.3948451796
 30
0.0
  0
SPLINE
  5
158
330
1F
100
AcDbEntity
  8
OUTER
 62
3
370
35
100
AcDbSpline
 70
8
 71
5
 72
12
 73
6
 74
0
 42
0.0
 43
0.0
 40
0.0
 40
0.0
 40
0.0
 40
0.0
 40
0.0
 40
0.0
 40
1710.884150559691
 40
1710.884150559691
 40
1710.884150559691
 40
1710.884150559691
 40
1710.884150559691
 40
1710.884150559691
 10
96721.4448525811
 20
26136.3948451796
 30
0.0
 10
96379.2680233441
 20
26136.4193105075
 30
0.0
 10
96037.091188607
 20
26136.515632717
 30
0.0
 10
95694.9143489175
 20
26136.6794051527
 30
0.0
 10
95352.7375325296
 20
26136.683343724
 30
0.0
 10
95010.5607400006
 20
26136.522968812
 30
0.0
  0
SPLINE
  5
159
330
1F
100
AcDbEntity
  8
OUTER
 62
3
370
35
100
AcDbSpline
 70
8
 71
5
 72
12
 73
6
 74
0
 42
0.0
 43
0.0
 40
0.0
 40
0.0
 40
0.0
 40
0.0
 40
0.0
 40
0.0
 40
1273.025438690634
 40
1273.025438690634
 40
1273.025438690634
 40
1273.025438690634
 40
1273.025438690634
 40
1273.025438690634
 10
95010.5607400006
 20
26136.522968812
 30
0.0
 10
95026.3422969051
 20
25882.4074573536
 30
0.0
 10
95042.0013068668
 20
25628.2843547888
 30
0.0
 10
95057.5377554492
 20
25374.1536605291
 30
0.0
 10
95072.9414524948
 20
25120.0149595171
 30
0.0
 10
95088.2123835707
 20
24865.868251165
 30
0.0
  0
TEXT
  5
15A
330
1F
100
AcDbEntity
  8
TEXT
 62
14
370
13
100
AcDbText
 10
95733.589844
 20
26436.279968000003
 30
0.0
 40
35.0
  1
V236_LW_LRU13_260 RT
 41
0.948757
 72
5
 11
96340.794433
 21
26436.279968000003
 31
0.0
100
AcDbText
  0
TEXT
  5
15B
330
1F
100
AcDbEntity
  8
TEXT
 62
14
370
13
100
AcDbText
 10
95752.496094
 20
26364.242859
 30
0.0
 40
35.0
  1
V236_LW_LRU13_261 RT
 41
0.948757
 72
5
 11
96359.700683
 21
26364.242859
 31
0.0
100
AcDbText
  0
TEXT
  5
15C
330
1F
100
AcDbEntity
  8
TEXT
 62
14
370
13
100
AcDbText
 10
95799.878906
 20
26085.846359000003
 30
0.0
 40
35.0
  1
V236_LW_LRU13_265 RT
 41
0.948757
 72
5
 11
96407.08349599999
 21
26085.846359000003
 31
0.0
100
AcDbText
  0
POINT
  5
15F
330
1F
100
AcDbEntity
  8
STRATEGYPOINT
 62
7
370
5
100
AcDbPoint
 10
96211.316406
 20
25851.364258
 30
0.0
  0
LINE
  5
160
330
1F
100
AcDbEntity
  8
ROSETTE
 62
150
370
35
100
AcDbLine
 10
96311.316406
 20
25851.364258
 30
0.0
 11
96211.316406
 21
25851.364258
 31
0.0
  0
LINE
  5
161
330
1F
100
AcDbEntity
  8
ROSETTE
 62
150
370
35
100
AcDbLine
 10
96211.316406
 20
25851.364258
 30
0.0
 11
96211.316406
 21
25901.364258
 31
0.0
  0
SPLINE
  5
162
330
1F
100
AcDbEntity
  8
OUTER
 62
3
370
35
100
AcDbSpline
 70
8
 71
5
 72
12
 73
6
 74
0
 42
0.0
 43
0.0
 40
0.0
 40
0.0
 40
0.0
 40
0.0
 40
0.0
 40
0.0
 40
1721.797593346653
 40
1721.797593346653
 40
1721.797593346653
 40
1721.797593346653
 40
1721.797593346653
 40
1721.797593346653
 10
95039.7300760856
 20
25005.9578676334
 30
0.0
 10
95384.0895069064
 20
25005.711891818
 30
0.0
 10
95728.4490641168
 20
25005.9493052798
 30
0.0
 10
96072.8086108267
 20
25006.2803933177
 30
0.0
 10
96417.1681115156
 20
25006.4378384466
 30
0.0
 10
96761.5276059051
 20
25006.3085244061
 30
0.0
  0
SPLINE
  5
163
330
1F
100
AcDbEntity
  8
OUTER
 62
3
370
35
100
AcDbSpline
 70
8
 71
5
 72
12
 73
6
 74
0
 42
0.0
 43
0.0
 40
0.0
 40
0.0
 40
0.0
 40
0.0
 40
0.0
 40
0.0
 40
1270.07611491483
 40
1270.07611491483
 40
1270.07611491483
 40
1270.07611491483
 40
1270.07611491483
 40
1270.07611491483
 10
96761.5276059051
 20
25006.3085244061
 30
0.0
 10
96761.4100754058
 20
25260.3237201991
 30
0.0
 10
96761.4402825396
 20
25514.3389421284
 30
0.0
 10
96761.5027463748
 20
25768.3541613379
 30
0.0
 10
96761.227211612
 20
26022.3694945402
 30
0.0
 10
96761.440740454
 20
26276.3846277754
 30
0.0
  0
SPLINE
  5
164
330
1F
100
AcDbEntity
  8
OUTER
 62
3
370
35
100
AcDbSpline
 70
8
 71
5
 72
12
 73
6
 74
0
 42
0.0
 43
0.0
 40
0.0
 40
0.0
 40
0.0
 40
0.0
 40
0.0
 40
0.0
 40
1799.660802033862
 40
1799.660802033862
 40
1799.660802033862
 40
1799.660802033862
 40
1799.660802033862
 40
1799.660802033862
 10
96761.440740454
 20
26276.3846277754
 30
0.0
 10
96401.5086037714
 20
26276.5153103277
 30
0.0
 10
96041.5764583522
 20
26276.5729128498
 30
0.0
 10
95681.6443042326
 20
26276.5579126874
 30
0.0
 10
95321.7121482895
 20
26276.5721153569
 30
0.0
 10
94961.7799905592
 20
26276.6160086164
 30
0.0
  0
SPLINE
  5
165
330
1F
100
AcDbEntity
  8
OUTER
 62
3
370
35
100
AcDbSpline
 70
8
 71
5
 72
12
 73
6
 74
0
 42
0.0
 43
0.0
 40
0.0
 40
0.0
 40
0.0
 40
0.0
 40
0.0
 40
0.0
 40
1273.047114375988
 40
1273.047114375988
 40
1273.047114375988
 40
1273.047114375988
 40
1273.047114375988
 40
1273.047114375988
 10
94961.7799905592
 20
26276.6160086164
 30
0.0
 10
94977.6098971422
 20
26022.4991609381
 30
0.0
 10
94993.3620894193
 20
25768.37741037
 30
0.0
 10
95009.0152772589
 20
25514.2495029217
 30
0.0
 10
95024.4783697809
 20
25260.110073352
 30
0.0
 10
95039.7300760856
 20
25005.9578676334
 30
0.0
  0
TEXT
  5
166
330
1F
100
AcDbEntity
  8
TEXT
 62
14
370
13
100
AcDbText
 10
95770.527344
 20
26223.832672
 30
0.0
 40
35.0
  1
V236_LW_LRU13_263 RT
 41
0.948757
 72
5
 11
96377.731933
 21
26223.832672
 31
0.0
100
AcDbText
  0
ENDSEC
  0
SECTION
  2
OBJECTS
  0
DICTIONARY
  5
C
330
0
100
AcDbDictionary
281
1
  3
ACAD_GROUP
350
D
  3
ACAD_LAYOUT
350
1A
  3
ACAD_MLINESTYLE
350
17
  3
ACAD_PLOTSETTINGS
350
19
  3
ACAD_PLOTSTYLENAME
350
E
  3
ACAD_SCALELIST
350
47
  3
DWGPROPS
350
7F
  3
ACAD_COLOR
350
102
  3
ACAD_MATERIAL
350
103
  3
ACAD_MLEADERSTYLE
350
104
  3
ACAD_TABLESTYLE
350
105
  3
ACAD_VISUALSTYLE
350
106
  3
EZDXF_META
350
146
  0
DICTIONARY
  5
D
102
{ACAD_REACTORS
330
C
102
}
330
C
100
AcDbDictionary
281
1
  0
DICTIONARY
  5
1A
102
{ACAD_REACTORS
330
C
102
}
330
C
100
AcDbDictionary
281
1
  3
Layout1
350
1E
  3
Layout2
350
26
  3
Model
350
22
  0
DICTIONARY
  5
17
102
{ACAD_REACTORS
330
C
102
}
330
C
100
AcDbDictionary
281
1
  3
Standard
350
18
  0
DICTIONARY
  5
19
102
{ACAD_REACTORS
330
C
102
}
330
C
100
AcDbDictionary
281
1
  0
ACDBDICTIONARYWDFLT
  5
E
102
{ACAD_REACTORS
330
C
102
}
330
C
100
AcDbDictionary
281
1
  3
Normal
350
F
100
AcDbDictionaryWithDefault
340
F
  0
DICTIONARY
  5
47
102
{ACAD_REACTORS
330
C
102
}
330
C
100
AcDbDictionary
281
1
  3
A0
350
48
  3
A1
350
49
  3
A2
350
4A
  3
A3
350
4B
  3
A4
350
4C
  3
A5
350
4D
  3
A6
350
4E
  3
A7
350
4F
  3
A8
350
50
  3
A9
350
51
  3
B0
350
52
  3
B1
350
53
  3
B2
350
54
  3
B3
350
55
  3
B4
350
56
  3
B5
350
57
  3
B6
350
58
  3
B7
350
59
  3
B8
350
5A
  3
B9
350
5B
  3
C0
350
5C
  3
C1
350
5D
  3
C2
350
5E
  3
C3
350
5F
  3
C4
350
60
  3
C5
350
61
  3
C6
350
62
  3
C7
350
63
  3
C8
350
64
  3
C9
350
65
  3
D0
350
66
  3
D1
350
67
  3
D2
350
68
  0
XRECORD
  5
7F
102
{ACAD_REACTORS
330
C
102
}
330
C
100
AcDbXrecord
280
1
  1
DWGPROPS COOKIE
  2

  3

  4

  6

  7

  8
JAWGT
  9

300
=
301
=
302
=
303
=
304
=
305
=
306
=
307
=
308
=
309
=
 40
0.0
 41
0.0
 42
2460090.491398
  1

 90
0
  0
LAYOUT
  5
1E
102
{ACAD_REACTORS
330
1A
102
}
330
1A
100
AcDbPlotSettings
  1

  2
none_device
  4

  6

 40
0.0
 41
0.0
 42
0.0
 43
0.0
 44
0.0
 45
0.0
 46
0.0
 47
0.0
 48
0.0
 49
0.0
140
0.0
141
0.0
142
1.0
143
1.0
 70
4784
 72
0
 73
0
 74
5
  7

 75
16
 76
0
 77
2
 78
300
147
1.0
148
0.0
149
0.0
100
AcDbLayout
  1
Layout1
 70
1
 71
1
 10
0.0
 20
0.0
 11
420.0
 21
297.0
 12
0.0
 22
0.0
 32
0.0
 14
0.0
 24
0.0
 34
0.0
 15
129.478027
 25
633.481995
 35
2.0
146
0.0
 13
0.0
 23
0.0
 33
0.0
 16
1.0
 26
0.0
 36
0.0
 17
0.0
 27
1.0
 37
0.0
 76
0
330
1B
  0
LAYOUT
  5
26
102
{ACAD_REACTORS
330
1A
102
}
330
1A
100
AcDbPlotSettings
  1

  2
none_device
  4

  6

 40
0.0
 41
0.0
 42
0.0
 43
0.0
 44
0.0
 45
0.0
 46
0.0
 47
0.0
 48
0.0
 49
0.0
140
0.0
141
0.0
142
1.0
143
1.0
 70
4784
 72
0
 73
0
 74
5
  7

 75
16
 76
0
 77
2
 78
300
147
1.0
148
0.0
149
0.0
100
AcDbLayout
  1
Layout2
 70
1
 71
2
 10
0.0
 20
0.0
 11
0.0
 21
0.0
 12
0.0
 22
0.0
 32
0.0
 14
0.0
 24
0.0
 34
0.0
 15
0.0
 25
0.0
 35
0.0
146
0.0
 13
0.0
 23
0.0
 33
0.0
 16
1.0
 26
0.0
 36
0.0
 17
0.0
 27
1.0
 37
0.0
 76
0
330
23
  0
LAYOUT
  5
22
102
{ACAD_REACTORS
330
1A
102
}
330
1A
100
AcDbPlotSettings
  1

  2
none_device
  4
Letter_(8.50_x_11.00_Inches)
  6

 40
6.35
 41
6.35
 42
6.350005
 43
6.350005
 44
215.9
 45
279.4
 46
0.0
 47
0.0
 48
0.0
 49
0.0
140
0.0
141
0.0
142
1.0
143
1.0
 70
5808
 72
0
 73
0
 74
0
  7

 75
0
 76
0
 77
2
 78
300
147
1.0
148
0.0
149
0.0
100
AcDbLayout
  1
Model
 70
1
 71
0
 10
0.0
 20
0.0
 11
420.0
 21
297.0
 12
0.0
 22
0.0
 32
0.0
 14
0.0
 24
0.0
 34
0.0
 15
129.478027
 25
633.481995
 35
2.0
146
0.0
 13
0.0
 23
0.0
 33
0.0
 16
1.0
 26
0.0
 36
0.0
 17
0.0
 27
1.0
 37
0.0
 76
0
330
1F
331
29
  0
MLINESTYLE
  5
18
102
{ACAD_REACTORS
330
17
102
}
330
17
100
AcDbMlineStyle
  2
Standard
 70
0
  3

 62
256
 51
90.0
 52
90.0
 71
2
 49
0.5
 62
256
  6
BYLAYER
 49
-0.5
 62
256
  6
BYLAYER
  0
ACDBPLACEHOLDER
  5
F
102
{ACAD_REACTORS
330
E
102
}
330
E
  0
SCALE
  5
48
102
{ACAD_REACTORS
330
47
102
}
330
47
100
AcDbScale
 70
0
300
1:1
140
1.0
141
1.0
290
1
  0
SCALE
  5
49
102
{ACAD_REACTORS
330
47
102
}
330
47
100
AcDbScale
 70
0
300
1:2
140
1.0
141
2.0
290
0
  0
SCALE
  5
4A
102
{ACAD_REACTORS
330
47
102
}
330
47
100
AcDbScale
 70
0
300
1:4
140
1.0
141
4.0
290
0
  0
SCALE
  5
4B
102
{ACAD_REACTORS
330
47
102
}
330
47
100
AcDbScale
 70
0
300
1:5
140
1.0
141
5.0
290
0
  0
SCALE
  5
4C
102
{ACAD_REACTORS
330
47
102
}
330
47
100
AcDbScale
 70
0
300
1:8
140
1.0
141
8.0
290
0
  0
SCALE
  5
4D
102
{ACAD_REACTORS
330
47
102
}
330
47
100
AcDbScale
 70
0
300
1:10
140
1.0
141
10.0
290
0
  0
SCALE
  5
4E
102
{ACAD_REACTORS
330
47
102
}
330
47
100
AcDbScale
 70
0
300
1:16
140
1.0
141
16.0
290
0
  0
SCALE
  5
4F
102
{ACAD_REACTORS
330
47
102
}
330
47
100
AcDbScale
 70
0
300
1:20
140
1.0
141
20.0
290
0
  0
SCALE
  5
50
102
{ACAD_REACTORS
330
47
102
}
330
47
100
AcDbScale
 70
0
300
1:30
140
1.0
141
30.0
290
0
  0
SCALE
  5
51
102
{ACAD_REACTORS
330
47
102
}
330
47
100
AcDbScale
 70
0
300
1:40
140
1.0
141
40.0
290
0
  0
SCALE
  5
52
102
{ACAD_REACTORS
330
47
102
}
330
47
100
AcDbScale
 70
0
300
1:50
140
1.0
141
50.0
290
0
  0
SCALE
  5
53
102
{ACAD_REACTORS
330
47
102
}
330
47
100
AcDbScale
 70
0
300
1:100
140
1.0
141
100.0
290
0
  0
SCALE
  5
54
102
{ACAD_REACTORS
330
47
102
}
330
47
100
AcDbScale
 70
0
300
2:1
140
2.0
141
1.0
290
0
  0
SCALE
  5
55
102
{ACAD_REACTORS
330
47
102
}
330
47
100
AcDbScale
 70
0
300
4:1
140
4.0
141
1.0
290
0
  0
SCALE
  5
56
102
{ACAD_REACTORS
330
47
102
}
330
47
100
AcDbScale
 70
0
300
8:1
140
8.0
141
1.0
290
0
  0
SCALE
  5
57
102
{ACAD_REACTORS
330
47
102
}
330
47
100
AcDbScale
 70
0
300
10:1
140
10.0
141
1.0
290
0
  0
SCALE
  5
58
102
{ACAD_REACTORS
330
47
102
}
330
47
100
AcDbScale
 70
0
300
100:1
140
100.0
141
1.0
290
0
  0
SCALE
  5
59
102
{ACAD_REACTORS
330
47
102
}
330
47
100
AcDbScale
 70
0
300
1/128" = 1'-0"
140
0.007812
141
12.0
290
0
  0
SCALE
  5
5A
102
{ACAD_REACTORS
330
47
102
}
330
47
100
AcDbScale
 70
0
300
1/64" = 1'-0"
140
0.015625
141
12.0
290
0
  0
SCALE
  5
5B
102
{ACAD_REACTORS
330
47
102
}
330
47
100
AcDbScale
 70
0
300
1/32" = 1'-0"
140
0.03125
141
12.0
290
0
  0
SCALE
  5
5C
102
{ACAD_REACTORS
330
47
102
}
330
47
100
AcDbScale
 70
0
300
1/16" = 1'-0"
140
0.0625
141
12.0
290
0
  0
SCALE
  5
5D
102
{ACAD_REACTORS
330
47
102
}
330
47
100
AcDbScale
 70
0
300
3/32" = 1'-0"
140
0.09375
141
12.0
290
0
  0
SCALE
  5
5E
102
{ACAD_REACTORS
330
47
102
}
330
47
100
AcDbScale
 70
0
300
1/8" = 1'-0"
140
0.125
141
12.0
290
0
  0
SCALE
  5
5F
102
{ACAD_REACTORS
330
47
102
}
330
47
100
AcDbScale
 70
0
300
3/16" = 1'-0"
140
0.1875
141
12.0
290
0
  0
SCALE
  5
60
102
{ACAD_REACTORS
330
47
102
}
330
47
100
AcDbScale
 70
0
300
1/4" = 1'-0"
140
0.25
141
12.0
290
0
  0
SCALE
  5
61
102
{ACAD_REACTORS
330
47
102
}
330
47
100
AcDbScale
 70
0
300
3/8" = 1'-0"
140
0.375
141
12.0
290
0
  0
SCALE
  5
62
102
{ACAD_REACTORS
330
47
102
}
330
47
100
AcDbScale
 70
0
300
1/2" = 1'-0"
140
0.5
141
12.0
290
0
  0
SCALE
  5
63
102
{ACAD_REACTORS
330
47
102
}
330
47
100
AcDbScale
 70
0
300
3/4" = 1'-0"
140
0.75
141
12.0
290
0
  0
SCALE
  5
64
102
{ACAD_REACTORS
330
47
102
}
330
47
100
AcDbScale
 70
0
300
1" = 1'-0"
140
1.0
141
12.0
290
0
  0
SCALE
  5
65
102
{ACAD_REACTORS
330
47
102
}
330
47
100
AcDbScale
 70
0
300
1-1/2" = 1'-0"
140
1.5
141
12.0
290
0
  0
SCALE
  5
66
102
{ACAD_REACTORS
330
47
102
}
330
47
100
AcDbScale
 70
0
300
3" = 1'-0"
140
3.0
141
12.0
290
0
  0
SCALE
  5
67
102
{ACAD_REACTORS
330
47
102
}
330
47
100
AcDbScale
 70
0
300
6" = 1'-0"
140
6.0
141
12.0
290
0
  0
SCALE
  5
68
102
{ACAD_REACTORS
330
47
102
}
330
47
100
AcDbScale
 70
0
300
1'-0" = 1'-0"
140
12.0
141
12.0
290
0
  0
DICTIONARY
  5
102
330
C
100
AcDbDictionary
280
0
281
1
  0
DICTIONARY
  5
103
330
C
100
AcDbDictionary
280
0
281
1
  3
ByBlock
350
107
  3
ByLayer
350
108
  3
Global
350
109
  0
DICTIONARY
  5
104
330
C
100
AcDbDictionary
280
0
281
1
  3
Standard
350
10B
  0
DICTIONARY
  5
105
330
C
100
AcDbDictionary
280
0
281
1
  0
DICTIONARY
  5
106
330
C
100
AcDbDictionary
280
0
281
1
  0
MATERIAL
  5
107
102
{ACAD_REACTORS
330
103
102
}
330
103
100
AcDbMaterial
  1
ByBlock
  2

 70
0
 40
1.0
 71
1
 41
1.0
 91
-1023410177
 42
1.0
 72
1
  3

 73
1
 74
1
 75
1
 44
0.5
 73
0
 45
1.0
 46
1.0
 77
1
  4

 78
1
 79
1
170
1
 48
1.0
171
1
  6

172
1
173
1
174
1
140
1.0
141
1.0
175
1
  7

176
1
177
1
178
1
143
1.0
179
1
  8

270
1
271
1
272
1
145
1.0
146
1.0
273
1
  9

274
1
275
1
276
1
 42
1.0
 72
1
  3

 73
1
 74
1
 75
1
 94
63
  0
MATERIAL
  5
108
102
{ACAD_REACTORS
330
103
102
}
330
103
100
AcDbMaterial
  1
ByLayer
  2

 70
0
 40
1.0
 71
1
 41
1.0
 91
-1023410177
 42
1.0
 72
1
  3

 73
1
 74
1
 75
1
 44
0.5
 73
0
 45
1.0
 46
1.0
 77
1
  4

 78
1
 79
1
170
1
 48
1.0
171
1
  6

172
1
173
1
174
1
140
1.0
141
1.0
175
1
  7

176
1
177
1
178
1
143
1.0
179
1
  8

270
1
271
1
272
1
145
1.0
146
1.0
273
1
  9

274
1
275
1
276
1
 42
1.0
 72
1
  3

 73
1
 74
1
 75
1
 94
63
  0
MATERIAL
  5
109
102
{ACAD_REACTORS
330
103
102
}
330
103
100
AcDbMaterial
  1
Global
  2

 70
0
 40
1.0
 71
1
 41
1.0
 91
-1023410177
 42
1.0
 72
1
  3

 73
1
 74
1
 75
1
 44
0.5
 73
0
 45
1.0
 46
1.0
 77
1
  4

 78
1
 79
1
170
1
 48
1.0
171
1
  6

172
1
173
1
174
1
140
1.0
141
1.0
175
1
  7

176
1
177
1
178
1
143
1.0
179
1
  8

270
1
271
1
272
1
145
1.0
146
1.0
273
1
  9

274
1
275
1
276
1
 42
1.0
 72
1
  3

 73
1
 74
1
 75
1
 94
63
  0
MLEADERSTYLE
  5
10B
102
{ACAD_REACTORS
330
104
102
}
330
104
100
AcDbMLeaderStyle
179
2
170
2
171
1
172
0
 90
2
 40
0.0
 41
0.0
173
1
 91
-1056964608
 92
-2
290
1
 42
2.0
291
1
 43
8.0
  3
Standard
 44
4.0
300

342
11
174
1
175
1
176
0
178
1
 93
-1056964608
 45
4.0
292
0
297
0
 46
4.0
 94
-1056964608
 47
1.0
 49
1.0
140
1.0
294
1
141
0.0
177
0
142
1.0
295
0
296
0
143
3.75
271
0
272
9
273
9
  0
DICTIONARY
  5
146
330
C
100
AcDbDictionary
281
1
  3
WRITTEN_BY_EZDXF
350
147
  0
DICTIONARYVAR
  5
147
330
146
100
DictionaryVariables
280
0
  1
1.1.3 @ 2024-04-24T12:36:56.741755+00:00
  0
ENDSEC
  0
EOF
