  0
SECTION
  2
HEADER
  9
$ACADVER
  1
AC1015
  9
$ACADMAINTVER
 70
     6
  9
$DWGCODEPAGE
  3
ANSI_1252
  9
$INSBASE
 10
0.0
 20
0.0
 30
0.0
  9
$EXTMIN
 10
0.0
 20
0.0
 30
0.0
  9
$EXTMAX
 10
484.492188
 20
901.458862
 30
2.0
  9
$LIMMIN
 10
0.0
 20
0.0
  9
$LIMMAX
 10
420.0
 20
297.0
  9
$ORTHOMODE
 70
     0
  9
$REGENMODE
 70
     1
  9
$FILLMODE
 70
     1
  9
$QTEXTMODE
 70
     0
  9
$MIRRTEXT
 70
     1
  9
$LTSCALE
 40
1.0
  9
$ATTMODE
 70
     1
  9
$TEXTSIZE
 40
2.5
  9
$TRACEWID
 40
1.0
  9
$TEXTSTYLE
  7
Standard
  9
$CLAYER
  8
0
  9
$CELTYPE
  6
ByLayer
  9
$CECOLOR
 62
   256
  9
$CELTSCALE
 40
1.0
  9
$DISPSILH
 70
     0
  9
$DIMSCALE
 40
1.0
  9
$DIMASZ
 40
2.5
  9
$DIMEXO
 40
0.625
  9
$DIMDLI
 40
3.75
  9
$DIMRND
 40
0.0
  9
$DIMDLE
 40
0.0
  9
$DIMEXE
 40
1.25
  9
$DIMTP
 40
0.0
  9
$DIMTM
 40
0.0
  9
$DIMTXT
 40
2.5
  9
$DIMCEN
 40
2.5
  9
$DIMTSZ
 40
0.0
  9
$DIMTOL
 70
     0
  9
$DIMLIM
 70
     0
  9
$DIMTIH
 70
     0
  9
$DIMTOH
 70
     0
  9
$DIMSE1
 70
     0
  9
$DIMSE2
 70
     0
  9
$DIMTAD
 70
     1
  9
$DIMZIN
 70
     8
  9
$DIMBLK
  1

  9
$DIMASO
 70
     1
  9
$DIMSHO
 70
     1
  9
$DIMPOST
  1

  9
$DIMAPOST
  1

  9
$DIMALT
 70
     0
  9
$DIMALTD
 70
     3
  9
$DIMALTF
 40
0.03937
  9
$DIMLFAC
 40
1.0
  9
$DIMTOFL
 70
     1
  9
$DIMTVP
 40
0.0
  9
$DIMTIX
 70
     0
  9
$DIMSOXD
 70
     0
  9
$DIMSAH
 70
     0
  9
$DIMBLK1
  1

  9
$DIMBLK2
  1

  9
$DIMSTYLE
  2
STANDARD
  9
$DIMCLRD
 70
     0
  9
$DIMCLRE
 70
     0
  9
$DIMCLRT
 70
     0
  9
$DIMTFAC
 40
1.0
  9
$DIMGAP
 40
0.625
  9
$DIMJUST
 70
     0
  9
$DIMSD1
 70
     0
  9
$DIMSD2
 70
     0
  9
$DIMTOLJ
 70
     0
  9
$DIMTZIN
 70
     8
  9
$DIMALTZ
 70
     0
  9
$DIMALTTZ
 70
     0
  9
$DIMUPT
 70
     0
  9
$DIMDEC
 70
     2
  9
$DIMTDEC
 70
     2
  9
$DIMALTU
 70
     2
  9
$DIMALTTD
 70
     3
  9
$DIMTXSTY
  7
Standard
  9
$DIMAUNIT
 70
     0
  9
$DIMADEC
 70
     0
  9
$DIMALTRND
 40
0.0
  9
$DIMAZIN
 70
     0
  9
$DIMDSEP
 70
    44
  9
$DIMATFIT
 70
     0
  9
$DIMFRAC
 70
     0
  9
$DIMLDRBLK
  1

  9
$DIMLUNIT
 70
     2
  9
$DIMLWD
 70
    -2
  9
$DIMLWE
 70
    -2
  9
$DIMTMOVE
 70
     0
  9
$LUNITS
 70
     2
  9
$LUPREC
 70
     4
  9
$SKETCHINC
 40
1.0
  9
$FILLETRAD
 40
2.5
  9
$AUNITS
 70
     0
  9
$AUPREC
 70
     0
  9
$MENU
  1
.
  9
$ELEVATION
 40
0.0
  9
$PELEVATION
 40
0.0
  9
$THICKNESS
 40
0.0
  9
$LIMCHECK
 70
     0
  9
$CHAMFERA
 40
2.5
  9
$CHAMFERB
 40
2.5
  9
$CHAMFERC
 40
0.0
  9
$CHAMFERD
 40
0.0
  9
$SKPOLY
 70
     0
  9
$TDCREATE
 40
2447893.041666667
  9
$TDUCREATE
 40
0.0
  9
$TDUPDATE
 40
2460090.654228762
  9
$TDUUPDATE
 40
2460090.612562095
  9
$TDINDWG
 40
0.0
  9
$TDUSRTIMER
 40
0.0
  9
$USRTIMER
 70
     1
  9
$ANGBASE
 50
0.0
  9
$ANGDIR
 70
     0
  9
$PDMODE
 70
     0
  9
$PDSIZE
 40
0.0
  9
$PLINEWID
 40
0.0
  9
$SPLFRAME
 70
     0
  9
$SPLINETYPE
 70
     6
  9
$SPLINESEGS
 70
     8
  9
$HANDSEED
  5
10E
  9
$SURFTAB1
 70
     6
  9
$SURFTAB2
 70
     6
  9
$SURFTYPE
 70
     6
  9
$SURFU
 70
     6
  9
$SURFV
 70
     6
  9
$UCSBASE
  2

  9
$UCSNAME
  2

  9
$UCSORG
 10
0.0
 20
0.0
 30
0.0
  9
$UCSXDIR
 10
1.0
 20
0.0
 30
0.0
  9
$UCSYDIR
 10
0.0
 20
1.0
 30
0.0
  9
$UCSORTHOREF
  2

  9
$UCSORTHOVIEW
 70
     1
  9
$UCSORGTOP
 10
0.0
 20
0.0
 30
0.0
  9
$UCSORGBOTTOM
 10
0.0
 20
0.0
 30
0.0
  9
$UCSORGLEFT
 10
0.0
 20
0.0
 30
0.0
  9
$UCSORGRIGHT
 10
0.0
 20
0.0
 30
0.0
  9
$UCSORGFRONT
 10
0.0
 20
0.0
 30
0.0
  9
$UCSORGBACK
 10
0.0
 20
0.0
 30
0.0
  9
$PUCSBASE
  2

  9
$PUCSNAME
  2

  9
$PUCSORG
 10
0.0
 20
0.0
 30
0.0
  9
$PUCSXDIR
 10
1.0
 20
0.0
 30
0.0
  9
$PUCSYDIR
 10
0.0
 20
1.0
 30
0.0
  9
$PUCSORTHOREF
  2

  9
$PUCSORTHOVIEW
 70
     0
  9
$PUCSORGTOP
 10
0.0
 20
0.0
 30
0.0
  9
$PUCSORGBOTTOM
 10
0.0
 20
0.0
 30
0.0
  9
$PUCSORGLEFT
 10
0.0
 20
0.0
 30
0.0
  9
$PUCSORGRIGHT
 10
0.0
 20
0.0
 30
0.0
  9
$PUCSORGFRONT
 10
0.0
 20
0.0
 30
0.0
  9
$PUCSORGBACK
 10
0.0
 20
0.0
 30
0.0
  9
$USERI1
 70
     0
  9
$USERI2
 70
     0
  9
$USERI3
 70
     0
  9
$USERI4
 70
     0
  9
$USERI5
 70
     0
  9
$USERR1
 40
0.0
  9
$USERR2
 40
0.0
  9
$USERR3
 40
0.0
  9
$USERR4
 40
0.0
  9
$USERR5
 40
0.0
  9
$WORLDVIEW
 70
     1
  9
$SHADEDGE
 70
     3
  9
$SHADEDIF
 70
    70
  9
$TILEMODE
 70
     1
  9
$MAXACTVP
 70
    64
  9
$PINSBASE
 10
0.0
 20
0.0
 30
0.0
  9
$PLIMCHECK
 70
     0
  9
$PEXTMIN
 10
0.0
 20
0.0
 30
0.0
  9
$PEXTMAX
 10
484.492188
 20
901.458862
 30
2.0
  9
$PLIMMIN
 10
0.0
 20
0.0
  9
$PLIMMAX
 10
420.0
 20
297.0
  9
$UNITMODE
 70
     0
  9
$VISRETAIN
 70
     0
  9
$PLINEGEN
 70
     0
  9
$PSLTSCALE
 70
     1
  9
$TREEDEPTH
 70
  3020
  9
$CMLSTYLE
  2
Standard
  9
$CMLJUST
 70
     0
  9
$CMLSCALE
 40
20.0
  9
$PROXYGRAPHICS
 70
     1
  9
$MEASUREMENT
 70
     1
  9
$CELWEIGHT
370
    -1
  9
$ENDCAPS
280
     0
  9
$JOINSTYLE
280
     0
  9
$LWDISPLAY
290
     0
  9
$INSUNITS
 70
     0
  9
$HYPERLINKBASE
  1

  9
$STYLESHEET
  1

  9
$XEDIT
290
     1
  9
$CEPSNTYPE
380
     0
  9
$PSTYLEMODE
290
     0
  9
$FINGERPRINTGUID
  2
{54d0275c-6010-46a1-a4ea-87830542c472}
  9
$VERSIONGUID
  2
{FAEB1C32-E019-11D5-929B-00C0DF256EC4}
  9
$EXTNAMES
290
     1
  9
$PSVPSCALE
 40
0.0
  9
$OLESTARTUP
290
     0
  0
ENDSEC
  0
SECTION
  2
CLASSES
  0
CLASS
  1
ACDBDICTIONARYWDFLT
  2
AcDbDictionaryWithDefault
  3
ObjectDBX Classes
 90
        0
280
     0
281
     0
  0
CLASS
  1
VISUALSTYLE
  2
AcDbVisualStyle
  3
ObjectDBX Classes
 90
     4095
280
     0
281
     0
  0
CLASS
  1
MATERIAL
  2
AcDbMaterial
  3
ObjectDBX Classes
 90
     1153
280
     0
281
     0
  0
CLASS
  1
SCALE
  2
AcDbScale
  3
ObjectDBX Classes
 90
     1153
280
     0
281
     0
  0
CLASS
  1
TABLESTYLE
  2
AcDbTableStyle
  3
ObjectDBX Classes
 90
     4095
280
     0
281
     0
  0
CLASS
  1
MLEADERSTYLE
  2
AcDbMLeaderStyle
  3
ACDB_MLEADERSTYLE_CLASS
 90
     4095
280
     0
281
     0
  0
CLASS
  1
SUN
  2
AcDbSun
  3
SCENEOE
 90
     1153
280
     0
281
     0
  0
CLASS
  1
ACDBPLACEHOLDER
  2
AcDbPlaceHolder
  3
ObjectDBX Classes
 90
        0
280
     0
281
     0
  0
CLASS
  1
LAYOUT
  2
AcDbLayout
  3
ObjectDBX Classes
 90
        0
280
     0
281
     0
  0
ENDSEC
  0
SECTION
  2
TABLES
  0
TABLE
  2
VPORT
  5
8
330
0
100
AcDbSymbolTable
 70
     1
  0
VPORT
  5
29
330
8
100
AcDbSymbolTableRecord
100
AcDbViewportTableRecord
  2
*Active
 70
     0
 10
0.0
 20
0.0
 11
1.0
 21
1.0
 12
10.429907
 22
4.5
 13
0.0
 23
0.0
 14
0.5
 24
0.5
 15
0.5
 25
0.5
 16
0.0
 26
0.0
 36
1.0
 17
0.0
 27
0.0
 37
0.0
 40
9.0
 41
1.972973
 42
50.0
 43
0.0
 44
0.0
 50
0.0
 51
0.0
 71
     0
 72
   100
 73
     1
 74
     3
 75
     0
 76
     0
 77
     0
 78
     0
281
     0
 65
     1
110
0.0
120
0.0
130
0.0
111
1.0
121
0.0
131
0.0
112
0.0
122
1.0
132
0.0
 79
     0
146
0.0
  0
ENDTAB
  0
TABLE
  2
LTYPE
  5
5
330
0
100
AcDbSymbolTable
 70
     1
  0
LTYPE
  5
14
330
5
100
AcDbSymbolTableRecord
100
AcDbLinetypeTableRecord
  2
ByBlock
 70
     0
  3

 72
    65
 73
     0
 40
0.0
  0
LTYPE
  5
15
330
5
100
AcDbSymbolTableRecord
100
AcDbLinetypeTableRecord
  2
ByLayer
 70
     0
  3

 72
    65
 73
     0
 40
0.0
  0
LTYPE
  5
16
330
5
100
AcDbSymbolTableRecord
100
AcDbLinetypeTableRecord
  2
Continuous
 70
     0
  3
Solid line
 72
    65
 73
     0
 40
0.0
  0
ENDTAB
  0
TABLE
  2
LAYER
  5
2
330
0
100
AcDbSymbolTable
 70
     5
  0
LAYER
  5
10
330
2
100
AcDbSymbolTableRecord
100
AcDbLayerTableRecord
  2
0
 70
     0
 62
     7
  6
Continuous
370
    13
390
F
  0
LAYER
  5
6F
330
2
100
AcDbSymbolTableRecord
100
AcDbLayerTableRecord
  2
TEXT
 70
     0
 62
     7
  6
Continuous
370
    13
390
F
  0
LAYER
  5
70
330
2
100
AcDbSymbolTableRecord
100
AcDbLayerTableRecord
  2
STRATEGYPOINT
 70
     0
 62
     7
  6
Continuous
370
    13
390
F
  0
LAYER
  5
71
330
2
100
AcDbSymbolTableRecord
100
AcDbLayerTableRecord
  2
ROSETTE
 70
     0
 62
     7
  6
Continuous
370
    13
390
F
  0
LAYER
  5
72
330
2
100
AcDbSymbolTableRecord
100
AcDbLayerTableRecord
  2
OUTER
 70
     0
 62
     7
  6
Continuous
370
    13
390
F
  0
LAYER
  5
C9
330
2
100
AcDbSymbolTableRecord
100
AcDbLayerTableRecord
  2
MARKERS
 70
     0
 62
     7
  6
Continuous
370
    13
390
F
  0
ENDTAB
  0
TABLE
  2
STYLE
  5
3
330
0
100
AcDbSymbolTable
 70
     2
  0
STYLE
  5
11
330
3
100
AcDbSymbolTableRecord
100
AcDbTextStyleTableRecord
  2
Standard
 70
     0
 40
0.0
 41
1.0
 50
0.0
 71
     0
 42
2.5
  3
isocp.shx
  4

  0
STYLE
  5
6E
330
3
100
AcDbSymbolTableRecord
100
AcDbTextStyleTableRecord
  2
GDT
 70
     0
 40
0.0
 41
1.0
 50
0.0
 71
     0
 42
0.2
  3
gdt.shx
  4

  0
ENDTAB
  0
TABLE
  2
VIEW
  5
6
330
0
100
AcDbSymbolTable
 70
     0
  0
ENDTAB
  0
TABLE
  2
UCS
  5
7
330
0
100
AcDbSymbolTable
 70
     0
  0
ENDTAB
  0
TABLE
  2
APPID
  5
9
330
0
100
AcDbSymbolTable
 70
     1
  0
APPID
  5
12
330
9
100
AcDbSymbolTableRecord
100
AcDbRegAppTableRecord
  2
ACAD
 70
     0
  0
ENDTAB
  0
TABLE
  2
DIMSTYLE
  5
A
330
0
100
AcDbSymbolTable
 70
     1
100
AcDbDimStyleTable
  0
DIMSTYLE
105
27
330
A
100
AcDbSymbolTableRecord
100
AcDbDimStyleTableRecord
  2
STANDARD
 70
     0
 41
2.5
 42
0.625
 43
3.75
 44
1.25
 73
     0
 74
     0
 77
     1
 78
     8
140
2.5
141
2.5
143
0.03937
147
0.625
171
     3
172
     1
178
     0
271
     2
272
     2
274
     3
278
    44
283
     0
284
     8
289
     0
340
0
  0
ENDTAB
  0
TABLE
  2
BLOCK_RECORD
  5
1
330
0
100
AcDbSymbolTable
 70
     2
  0
BLOCK_RECORD
  5
1F
330
1
100
AcDbSymbolTableRecord
100
AcDbBlockTableRecord
  2
*Model_Space
340
22
  0
BLOCK_RECORD
  5
1B
330
1
100
AcDbSymbolTableRecord
100
AcDbBlockTableRecord
  2
*Paper_Space
340
1E
  0
BLOCK_RECORD
  5
23
330
1
100
AcDbSymbolTableRecord
100
AcDbBlockTableRecord
  2
*Paper_Space0
340
26
  0
BLOCK_RECORD
  5
4
330
1
100
AcDbSymbolTableRecord
100
AcDbBlockTableRecord
  2
V236_WW_LRU12_260 RT_TEXT_1
340
0
102
{BLKREFS
331
2A
102
}
  0
BLOCK_RECORD
  5
32
330
1
100
AcDbSymbolTableRecord
100
AcDbBlockTableRecord
  2
29276884_INF_GF_HM_BI45_1000_54_CHORDWISE_V1_V236_WW_LRU12_260_R0_I38_DXF
340
0
102
{BLKREFS
331
36
102
}
  0
BLOCK_RECORD
  5
37
330
1
100
AcDbSymbolTableRecord
100
AcDbBlockTableRecord
  2
V236_WW_LRU12_261 RT_TEXT_2
340
0
102
{BLKREFS
331
3B
102
}
  0
BLOCK_RECORD
  5
43
330
1
100
AcDbSymbolTableRecord
100
AcDbBlockTableRecord
  2
29276884_INF_GF_HM_BI45_1000_54_CHORDWISE_V1_V236_WW_LRU12_261_R0_I38_DXF
340
0
102
{BLKREFS
331
69
102
}
  0
BLOCK_RECORD
  5
6A
330
1
100
AcDbSymbolTableRecord
100
AcDbBlockTableRecord
  2
V236_WW_LRU12_262 RT_TEXT_3
340
0
102
{BLKREFS
331
73
102
}
  0
BLOCK_RECORD
  5
7B
330
1
100
AcDbSymbolTableRecord
100
AcDbBlockTableRecord
  2
29276884_INF_GF_HM_BI45_1000_54_CHORDWISE_V1_V236_WW_LRU12_262_R0_I38_DXF
340
0
102
{BLKREFS
331
81
102
}
  0
BLOCK_RECORD
  5
82
330
1
100
AcDbSymbolTableRecord
100
AcDbBlockTableRecord
  2
V236_WW_LRU12_263 RT_TEXT_4
340
0
102
{BLKREFS
331
86
102
}
  0
BLOCK_RECORD
  5
8E
330
1
100
AcDbSymbolTableRecord
100
AcDbBlockTableRecord
  2
29276884_INF_GF_HM_BI45_1000_54_CHORDWISE_V1_V236_WW_LRU12_263_R0_I38_DXF
340
0
102
{BLKREFS
331
92
102
}
  0
BLOCK_RECORD
  5
93
330
1
100
AcDbSymbolTableRecord
100
AcDbBlockTableRecord
  2
V236_WW_LRU12_264 RT_TEXT_5
340
0
102
{BLKREFS
331
97
102
}
  0
BLOCK_RECORD
  5
9F
330
1
100
AcDbSymbolTableRecord
100
AcDbBlockTableRecord
  2
29276884_INF_GF_HM_BI45_1000_54_CHORDWISE_V1_V236_WW_LRU12_264_R0_I38_DXF
340
0
102
{BLKREFS
331
A3
102
}
  0
BLOCK_RECORD
  5
A4
330
1
100
AcDbSymbolTableRecord
100
AcDbBlockTableRecord
  2
V236_WW_LRU12_265 RT_TEXT_6
340
0
102
{BLKREFS
331
A8
102
}
  0
BLOCK_RECORD
  5
B3
330
1
100
AcDbSymbolTableRecord
100
AcDbBlockTableRecord
  2
29276884_INF_GF_HM_BI45_1000_54_CHORDWISE_V1_V236_WW_LRU12_265_R0_I38_DXF
340
0
102
{BLKREFS
331
B7
102
}
  0
BLOCK_RECORD
  5
B8
330
1
100
AcDbSymbolTableRecord
100
AcDbBlockTableRecord
  2
V236_WW_LRU12_266 RT_TEXT_7
340
0
102
{BLKREFS
331
BC
102
}
  0
BLOCK_RECORD
  5
C4
330
1
100
AcDbSymbolTableRecord
100
AcDbBlockTableRecord
  2
29276884_INF_GF_HM_BI45_1000_54_CHORDWISE_V1_V236_WW_LRU12_266_R0_I38_DXF
340
0
102
{BLKREFS
331
C8
102
}
  0
BLOCK_RECORD
  5
CA
330
1
100
AcDbSymbolTableRecord
100
AcDbBlockTableRecord
  2
V236_WW_LRU12_267 RT_TEXT_8
340
0
102
{BLKREFS
331
CE
102
}
  0
BLOCK_RECORD
  5
109
330
1
100
AcDbSymbolTableRecord
100
AcDbBlockTableRecord
  2
29276884_INF_GF_HM_BI45_1000_54_CHORDWISE_V1-V236_WW_LRU12_267_R1_I7_DXF
340
0
102
{BLKREFS
331
10D
102
}
  0
ENDTAB
  0
ENDSEC
  0
SECTION
  2
BLOCKS
  0
BLOCK
  5
20
330
1F
100
AcDbEntity
  8
0
100
AcDbBlockBegin
  2
*Model_Space
 70
     0
 10
0.0
 20
0.0
 30
0.0
  3
*Model_Space
  1

  0
ENDBLK
  5
21
330
1F
100
AcDbEntity
  8
0
100
AcDbBlockEnd
  0
BLOCK
  5
1C
330
1B
100
AcDbEntity
 67
     1
  8
0
100
AcDbBlockBegin
  2
*Paper_Space
 70
     0
 10
0.0
 20
0.0
 30
0.0
  3
*Paper_Space
  1

  0
ENDBLK
  5
1D
330
1B
100
AcDbEntity
 67
     1
  8
0
100
AcDbBlockEnd
  0
BLOCK
  5
24
330
23
100
AcDbEntity
  8
0
100
AcDbBlockBegin
  2
*Paper_Space0
 70
     0
 10
0.0
 20
0.0
 30
0.0
  3
*Paper_Space0
  1

  0
ENDBLK
  5
25
330
23
100
AcDbEntity
  8
0
100
AcDbBlockEnd
  0
BLOCK
  5
13
330
4
100
AcDbEntity
  8
0
100
AcDbBlockBegin
  2
V236_WW_LRU12_260 RT_TEXT_1
 70
     0
 10
0.0
 20
0.0
 30
0.0
  3
V236_WW_LRU12_260 RT_TEXT_1
  1

  0
TEXT
  5
B
330
4
100
AcDbEntity
  8
TEXT
 62
    14
370
    13
100
AcDbText
 10
-35.96875
 20
859.830627
 30
0.0
 40
30.0
  1
V236_WW_LRU12_260 RT
 41
0.931771
 72
     5
 11
484.492188
 21
859.830627
 31
0.0
100
AcDbText
  0
ENDBLK
  5
28
330
4
100
AcDbEntity
  8
0
100
AcDbBlockEnd
  0
BLOCK
  5
34
330
32
100
AcDbEntity
  8
0
100
AcDbBlockBegin
  2
29276884_INF_GF_HM_BI45_1000_54_CHORDWISE_V1_V236_WW_LRU12_260_R0_I38_DXF
 70
     0
 10
0.0
 20
0.0
 30
0.0
  3
29276884_INF_GF_HM_BI45_1000_54_CHORDWISE_V1_V236_WW_LRU12_260_R0_I38_DXF
  1

  0
INSERT
  5
2A
330
1F
100
AcDbEntity
  8
TEXT
 62
     7
370
     0
100
AcDbBlockReference
  2
V236_WW_LRU12_260 RT_TEXT_1
 10
39829.796875
 20
26167.436523
 30
0.0
  0
POINT
  5
2B
330
1F
100
AcDbEntity
  8
STRATEGYPOINT
 62
     7
370
     5
100
AcDbPoint
 10
39829.796875
 20
26167.436523
 30
0.0
  0
LINE
  5
2C
330
1F
100
AcDbEntity
  8
ROSETTE
 62
   150
370
    35
100
AcDbLine
 10
39839.796875
 20
26167.436523
 30
0.0
 11
39829.796875
 21
26167.436523
 31
0.0
  0
LINE
  5
2D
330
1F
100
AcDbEntity
  8
ROSETTE
 62
   150
370
    35
100
AcDbLine
 10
39829.796875
 20
26167.436523
 30
0.0
 11
39829.796875
 21
26172.436523
 31
0.0
  0
SPLINE
  5
2E
330
1F
100
AcDbEntity
  8
OUTER
 62
     3
370
    35
100
AcDbSpline
210
0.0
220
0.0
230
1.0
 70
     8
 71
     5
 72
    12
 73
     6
 74
     0
 42
0.0
 43
0.0
 40
0.0
 40
0.0
 40
0.0
 40
0.0
 40
0.0
 40
0.0
 40
1976.782181491149
 40
1976.782181491149
 40
1976.782181491149
 40
1976.782181491149
 40
1976.782181491149
 40
1976.782181491149
 10
38980.1485595772
 20
25820.4408828546
 30
0.0
 10
39375.5049910563
 20
25820.5026142073
 30
0.0
 10
39770.8613754479
 20
25820.3497044143
 30
0.0
 10
40166.2177120944
 20
25820.0182297348
 30
0.0
 10
40561.573998514
 20
25819.6352017942
 30
0.0
 10
40956.9302339694
 20
25819.2366932788
 30
0.0
  0
SPLINE
  5
2F
330
1F
100
AcDbEntity
  8
OUTER
 62
     3
370
    35
100
AcDbSpline
210
0.0
220
0.0
230
1.0
 70
     8
 71
     5
 72
    15
 73
     9
 74
     0
 42
0.0
 43
0.0
 40
0.0
 40
0.0
 40
0.0
 40
0.0
 40
0.0
 40
0.0
 40
456.5894543735035
 40
792.5403373591354
 40
960.273824301617
 40
1273.198265488996
 40
1273.198265488996
 40
1273.198265488996
 40
1273.198265488996
 40
1273.198265488996
 40
1273.198265488996
 10
40956.9302339694
 20
25819.2366932788
 30
0.0
 10
40961.6260447442
 20
25910.4337686431
 30
0.0
 10
40969.7339666353
 20
26068.7343252903
 30
0.0
 10
40979.5272078863
 20
26260.539227823
 30
0.0
 10
40992.5188624657
 20
26514.8472092166
 30
0.0
 10
41005.5983878382
 20
26769.1507732626
 30
0.0
 10
41014.0335679202
 20
26932.2546238811
 30
0.0
 10
41018.8969074906
 20
27028.2630836637
 30
0.0
 10
41022.0098694247
 20
27090.7705048526
 30
0.0
  0
SPLINE
  5
30
330
1F
100
AcDbEntity
  8
OUTER
 62
     3
370
    35
100
AcDbSpline
210
0.0
220
0.0
230
1.0
 70
     8
 71
     5
 72
    12
 73
     6
 74
     0
 42
0.0
 43
0.0
 40
0.0
 40
0.0
 40
0.0
 40
0.0
 40
0.0
 40
0.0
 40
2044.023812230381
 40
2044.023812230381
 40
2044.023812230381
 40
2044.023812230381
 40
2044.023812230381
 40
2044.023812230381
 10
41022.0098694246
 20
27090.7705048526
 30
0.0
 10
40613.2080736917
 20
27089.2130698976
 30
0.0
 10
40204.4019066411
 20
27089.0581535355
 30
0.0
 10
39795.5997031436
 20
27087.5311243582
 30
0.0
 10
39386.7943783294
 20
27087.4372650815
 30
0.0
 10
38977.98961589
 20
27087.43960668
 30
0.0
  0
SPLINE
  5
31
330
1F
100
AcDbEntity
  8
OUTER
 62
     3
370
    35
100
AcDbSpline
210
0.0
220
0.0
230
1.0
 70
     8
 71
     5
 72
    15
 73
     9
 74
     0
 42
0.0
 43
0.0
 40
0.0
 40
0.0
 40
0.0
 40
0.0
 40
0.0
 40
0.0
 40
309.1868714100853
 40
644.5380599982052
 40
788.2599028909192
 40
1267.000883471354
 40
1267.000883471354
 40
1267.000883471354
 40
1267.000883471354
 40
1267.000883471354
 40
1267.000883471354
 10
38977.98961589
 20
27087.43960668
 30
0.0
 10
38978.1026751913
 20
27025.6023357532
 30
0.0
 10
38978.391216013
 20
26896.695054302
 30
0.0
 10
38978.8613803118
 20
26739.0437222868
 30
0.0
 10
38979.2823037351
 20
26485.6438675528
 30
0.0
 10
38979.8253293006
 20
26232.2442675401
 30
0.0
 10
38979.8108253041
 20
26040.6812172189
 30
0.0
 10
38979.8288310756
 20
25916.1885451401
 30
0.0
 10
38980.1485595772
 20
25820.4408828546
 30
0.0
  0
ENDBLK
  5
35
330
32
100
AcDbEntity
  8
0
100
AcDbBlockEnd
  0
BLOCK
  5
39
330
37
100
AcDbEntity
  8
0
100
AcDbBlockBegin
  2
V236_WW_LRU12_261 RT_TEXT_2
 70
     0
 10
0.0
 20
0.0
 30
0.0
  3
V236_WW_LRU12_261 RT_TEXT_2
  1

  0
TEXT
  5
38
330
37
100
AcDbEntity
  8
TEXT
 62
    14
370
    13
100
AcDbText
 10
-34.015625
 20
788.893127
 30
0.0
 40
30.0
  1
V236_WW_LRU12_261 RT
 41
0.931771
 72
     5
 11
486.445312
 21
788.893127
 31
0.0
100
AcDbText
  0
ENDBLK
  5
3A
330
37
100
AcDbEntity
  8
0
100
AcDbBlockEnd
  0
BLOCK
  5
45
330
43
100
AcDbEntity
  8
0
100
AcDbBlockBegin
  2
29276884_INF_GF_HM_BI45_1000_54_CHORDWISE_V1_V236_WW_LRU12_261_R0_I38_DXF
 70
     0
 10
0.0
 20
0.0
 30
0.0
  3
29276884_INF_GF_HM_BI45_1000_54_CHORDWISE_V1_V236_WW_LRU12_261_R0_I38_DXF
  1

  0
INSERT
  5
3B
330
1F
100
AcDbEntity
  8
TEXT
 62
     7
370
     0
100
AcDbBlockReference
  2
V236_WW_LRU12_261 RT_TEXT_2
 10
39829.796875
 20
26167.436523
 30
0.0
  0
POINT
  5
3C
330
1F
100
AcDbEntity
  8
STRATEGYPOINT
 62
     7
370
     5
100
AcDbPoint
 10
39829.796875
 20
26167.436523
 30
0.0
  0
LINE
  5
3D
330
1F
100
AcDbEntity
  8
ROSETTE
 62
   150
370
    35
100
AcDbLine
 10
39839.796875
 20
26167.436523
 30
0.0
 11
39829.796875
 21
26167.436523
 31
0.0
  0
LINE
  5
3E
330
1F
100
AcDbEntity
  8
ROSETTE
 62
   150
370
    35
100
AcDbLine
 10
39829.796875
 20
26167.436523
 30
0.0
 11
39829.796875
 21
26172.436523
 31
0.0
  0
SPLINE
  5
3F
330
1F
100
AcDbEntity
  8
OUTER
 62
     3
370
    35
100
AcDbSpline
210
0.0
220
0.0
230
1.0
 70
     8
 71
     5
 72
    13
 73
     7
 74
     0
 42
0.0
 43
0.0
 40
0.0
 40
0.0
 40
0.0
 40
0.0
 40
0.0
 40
0.0
 40
1412.967729635937
 40
1903.20708896171
 40
1903.20708896171
 40
1903.20708896171
 40
1903.20708896171
 40
1903.20708896171
 40
1903.20708896171
 10
39030.1131289472
 20
25750.445183753
 30
0.0
 10
39312.7066733802
 20
25750.4161225312
 30
0.0
 10
39693.3480108254
 20
25750.2592405061
 30
0.0
 10
40073.9895640687
 20
25750.0582467703
 30
0.0
 10
40454.6302936357
 20
25749.4546548582
 30
0.0
 10
40835.2720679583
 20
25749.2955122774
 30
0.0
 10
40933.3195139393
 20
25749.0065246155
 30
0.0
  0
SPLINE
  5
40
330
1F
100
AcDbEntity
  8
OUTER
 62
     3
370
    35
100
AcDbSpline
210
0.0
220
0.0
230
1.0
 70
     8
 71
     5
 72
    14
 73
     8
 74
     0
 42
0.0
 43
0.0
 40
0.0
 40
0.0
 40
0.0
 40
0.0
 40
0.0
 40
0.0
 40
351.4568893528507
 40
807.4017553233347
 40
1272.971951287116
 40
1272.971951287116
 40
1272.971951287116
 40
1272.971951287116
 40
1272.971951287116
 40
1272.971951287116
 10
40933.3195139394
 20
25749.0065246156
 30
0.0
 10
40936.9125281817
 20
25819.2060121607
 30
0.0
 10
40945.1753455974
 20
25980.4748192091
 30
0.0
 10
40958.1452341325
 20
26234.7386751504
 30
0.0
 10
40971.3184853966
 20
26488.9918889659
 30
0.0
 10
40984.1324362511
 20
26743.2638359775
 30
0.0
 10
40993.489942651
 20
26927.3291805654
 30
0.0
 10
40998.420172967
 20
27020.312604485
 30
0.0
  0
SPLINE
  5
41
330
1F
100
AcDbEntity
  8
OUTER
 62
     3
370
    35
100
AcDbSpline
210
0.0
220
0.0
230
1.0
 70
     8
 71
     5
 72
    14
 73
     8
 74
     0
 42
0.0
 43
0.0
 40
0.0
 40
0.0
 40
0.0
 40
0.0
 40
0.0
 40
0.0
 40
477.3321120932021
 40
994.7241769943889
 40
1970.262404341353
 40
1970.262404341353
 40
1970.262404341353
 40
1970.262404341353
 40
1970.262404341353
 40
1970.262404341353
 10
40998.420172967
 20
27020.3126044849
 30
0.0
 10
40902.9538055625
 20
27020.2101155838
 30
0.0
 10
40704.0092770826
 20
27019.882861484
 30
0.0
 10
40309.9581251149
 20
27018.809067456
 30
0.0
 10
39915.9065020295
 20
27017.9535876202
 30
0.0
 10
39521.8540731732
 20
27017.6149776329
 30
0.0
 10
39223.2680359911
 20
27017.4894158882
 30
0.0
 10
39028.1603941126
 20
27017.4519827073
 30
0.0
  0
SPLINE
  5
42
330
1F
100
AcDbEntity
  8
OUTER
 62
     3
370
    35
100
AcDbSpline
210
0.0
220
0.0
230
1.0
 70
     8
 71
     5
 72
    12
 73
     6
 74
     0
 42
0.0
 43
0.0
 40
0.0
 40
0.0
 40
0.0
 40
0.0
 40
0.0
 40
0.0
 40
1267.008534396721
 40
1267.008534396721
 40
1267.008534396721
 40
1267.008534396721
 40
1267.008534396721
 40
1267.008534396721
 10
39028.1603941125
 20
27017.4519827073
 30
0.0
 10
39028.5963250337
 20
26764.0506507978
 30
0.0
 10
39029.4146533616
 20
26510.6501027625
 30
0.0
 10
39029.8138717649
 20
26257.2485082835
 30
0.0
 10
39029.8042706646
 20
26003.8467024064
 30
0.0
 10
39030.1131289472
 20
25750.4451837529
 30
0.0
  0
ENDBLK
  5
46
330
43
100
AcDbEntity
  8
0
100
AcDbBlockEnd
  0
BLOCK
  5
6C
330
6A
100
AcDbEntity
  8
0
100
AcDbBlockBegin
  2
V236_WW_LRU12_262 RT_TEXT_3
 70
     0
 10
0.0
 20
0.0
 30
0.0
  3
V236_WW_LRU12_262 RT_TEXT_3
  1

  0
TEXT
  5
6B
330
6A
100
AcDbEntity
  8
TEXT
 62
    14
370
    13
100
AcDbText
 10
-31.679688
 20
719.873596
 30
0.0
 40
30.0
  1
V236_WW_LRU12_262 RT
 41
0.931771
 72
     5
 11
488.78125
 21
719.873596
 31
0.0
100
AcDbText
  0
ENDBLK
  5
6D
330
6A
100
AcDbEntity
  8
0
100
AcDbBlockEnd
  0
BLOCK
  5
7D
330
7B
100
AcDbEntity
  8
0
100
AcDbBlockBegin
  2
29276884_INF_GF_HM_BI45_1000_54_CHORDWISE_V1_V236_WW_LRU12_262_R0_I38_DXF
 70
     0
 10
0.0
 20
0.0
 30
0.0
  3
29276884_INF_GF_HM_BI45_1000_54_CHORDWISE_V1_V236_WW_LRU12_262_R0_I38_DXF
  1

  0
INSERT
  5
73
330
1F
100
AcDbEntity
  8
TEXT
 62
     7
370
     0
100
AcDbBlockReference
  2
V236_WW_LRU12_262 RT_TEXT_3
 10
39829.796875
 20
26167.436523
 30
0.0
  0
POINT
  5
74
330
1F
100
AcDbEntity
  8
STRATEGYPOINT
 62
     7
370
     5
100
AcDbPoint
 10
39829.796875
 20
26167.436523
 30
0.0
  0
LINE
  5
75
330
1F
100
AcDbEntity
  8
ROSETTE
 62
   150
370
    35
100
AcDbLine
 10
39839.796875
 20
26167.436523
 30
0.0
 11
39829.796875
 21
26167.436523
 31
0.0
  0
LINE
  5
76
330
1F
100
AcDbEntity
  8
ROSETTE
 62
   150
370
    35
100
AcDbLine
 10
39829.796875
 20
26167.436523
 30
0.0
 11
39829.796875
 21
26172.436523
 31
0.0
  0
SPLINE
  5
77
330
1F
100
AcDbEntity
  8
OUTER
 62
     3
370
    35
100
AcDbSpline
210
0.0
220
0.0
230
1.0
 70
     8
 71
     5
 72
    12
 73
     6
 74
     0
 42
0.0
 43
0.0
 40
0.0
 40
0.0
 40
0.0
 40
0.0
 40
0.0
 40
0.0
 40
1829.581737758238
 40
1829.581737758238
 40
1829.581737758238
 40
1829.581737758238
 40
1829.581737758238
 40
1829.581737758238
 10
39080.1095852487
 20
25680.4177176668
 30
0.0
 10
39446.0259286598
 20
25680.3626695996
 30
0.0
 10
39811.9422608701
 20
25680.1916016907
 30
0.0
 10
40177.8585316745
 20
25679.8940828046
 30
0.0
 10
40543.7746060987
 20
25679.4420746066
 30
0.0
 10
40909.6904334096
 20
25678.8250422863
 30
0.0
  0
SPLINE
  5
78
330
1F
100
AcDbEntity
  8
OUTER
 62
     3
370
    35
100
AcDbSpline
210
0.0
220
0.0
230
1.0
 70
     8
 71
     5
 72
    14
 73
     8
 74
     0
 42
0.0
 43
0.0
 40
0.0
 40
0.0
 40
0.0
 40
0.0
 40
0.0
 40
0.0
 40
627.7874135657944
 40
951.0384662844386
 40
1272.930748198956
 40
1272.930748198956
 40
1272.930748198956
 40
1272.930748198956
 40
1272.930748198956
 40
1272.930748198956
 10
40909.6904334096
 20
25678.8250422863
 30
0.0
 10
40916.1015004167
 20
25804.218741032
 30
0.0
 10
40925.8415297548
 20
25994.1768906794
 30
0.0
 10
40938.8490498978
 20
26248.4304951056
 30
0.0
 10
40951.8630456877
 20
26502.6837902358
 30
0.0
 10
40965.0784901543
 20
26756.9268959434
 30
0.0
 10
40971.5881781923
 20
26885.7911993295
 30
0.0
 10
40974.779632739
 20
26950.0905015351
 30
0.0
  0
SPLINE
  5
79
330
1F
100
AcDbEntity
  8
OUTER
 62
     3
370
    35
100
AcDbSpline
210
0.0
220
0.0
230
1.0
 70
     8
 71
     5
 72
    12
 73
     6
 74
     0
 42
0.0
 43
0.0
 40
0.0
 40
0.0
 40
0.0
 40
0.0
 40
0.0
 40
0.0
 40
1896.456747418346
 40
1896.456747418346
 40
1896.456747418346
 40
1896.456747418346
 40
1896.456747418346
 40
1896.456747418346
 10
40974.779632739
 20
26950.0905015351
 30
0.0
 10
40595.489200131
 20
26949.2565200374
 30
0.0
 10
40216.1985268375
 20
26948.5104090534
 30
0.0
 10
39836.9076193
 20
26947.8978661529
 30
0.0
 10
39457.6164924738
 20
26947.5251990349
 30
0.0
 10
39078.3251528959
 20
26947.4385145831
 30
0.0
  0
SPLINE
  5
7A
330
1F
100
AcDbEntity
  8
OUTER
 62
     3
370
    35
100
AcDbSpline
210
0.0
220
0.0
230
1.0
 70
     8
 71
     5
 72
    12
 73
     6
 74
     0
 42
0.0
 43
0.0
 40
0.0
 40
0.0
 40
0.0
 40
0.0
 40
0.0
 40
0.0
 40
1267.022311494258
 40
1267.022311494258
 40
1267.022311494258
 40
1267.022311494258
 40
1267.022311494258
 40
1267.022311494258
 10
39078.325152896
 20
26947.4385145831
 30
0.0
 10
39078.8811278202
 20
26694.0346621957
 30
0.0
 10
39079.4391134577
 20
26440.6306467619
 30
0.0
 10
39079.9815837476
 20
26187.2264699308
 30
0.0
 10
39080.2109973093
 20
25933.8221596732
 30
0.0
 10
39080.1095852487
 20
25680.4177176668
 30
0.0
  0
ENDBLK
  5
7E
330
7B
100
AcDbEntity
  8
0
100
AcDbBlockEnd
  0
BLOCK
  5
84
330
82
100
AcDbEntity
  8
0
100
AcDbBlockBegin
  2
V236_WW_LRU12_263 RT_TEXT_4
 70
     0
 10
0.0
 20
0.0
 30
0.0
  3
V236_WW_LRU12_263 RT_TEXT_4
  1

  0
TEXT
  5
83
330
82
100
AcDbEntity
  8
TEXT
 62
    14
370
    13
100
AcDbText
 10
-29.449219
 20
649.768127
 30
0.0
 40
30.0
  1
V236_WW_LRU12_263 RT
 41
0.931771
 72
     5
 11
491.011719
 21
649.768127
 31
0.0
100
AcDbText
  0
ENDBLK
  5
85
330
82
100
AcDbEntity
  8
0
100
AcDbBlockEnd
  0
BLOCK
  5
90
330
8E
100
AcDbEntity
  8
0
100
AcDbBlockBegin
  2
29276884_INF_GF_HM_BI45_1000_54_CHORDWISE_V1_V236_WW_LRU12_263_R0_I38_DXF
 70
     0
 10
0.0
 20
0.0
 30
0.0
  3
29276884_INF_GF_HM_BI45_1000_54_CHORDWISE_V1_V236_WW_LRU12_263_R0_I38_DXF
  1

  0
INSERT
  5
86
330
1F
100
AcDbEntity
  8
TEXT
 62
     7
370
     0
100
AcDbBlockReference
  2
V236_WW_LRU12_263 RT_TEXT_4
 10
39829.796875
 20
26167.436523
 30
0.0
  0
POINT
  5
87
330
1F
100
AcDbEntity
  8
STRATEGYPOINT
 62
     7
370
     5
100
AcDbPoint
 10
39829.796875
 20
26167.436523
 30
0.0
  0
LINE
  5
88
330
1F
100
AcDbEntity
  8
ROSETTE
 62
   150
370
    35
100
AcDbLine
 10
39839.796875
 20
26167.436523
 30
0.0
 11
39829.796875
 21
26167.436523
 31
0.0
  0
LINE
  5
89
330
1F
100
AcDbEntity
  8
ROSETTE
 62
   150
370
    35
100
AcDbLine
 10
39829.796875
 20
26167.436523
 30
0.0
 11
39829.796875
 21
26172.436523
 31
0.0
  0
SPLINE
  5
8A
330
1F
100
AcDbEntity
  8
OUTER
 62
     3
370
    35
100
AcDbSpline
210
0.0
220
0.0
230
1.0
 70
     8
 71
     5
 72
    12
 73
     6
 74
     0
 42
0.0
 43
0.0
 40
0.0
 40
0.0
 40
0.0
 40
0.0
 40
0.0
 40
0.0
 40
1555.972580237472
 40
1555.972580237472
 40
1555.972580237472
 40
1555.972580237472
 40
1555.972580237472
 40
1555.972580237472
 10
39330.0821146933
 20
25610.3575396168
 30
0.0
 10
39641.2765196422
 20
25610.094582205
 30
0.0
 10
39952.4708928965
 20
25609.8106545502
 30
0.0
 10
40263.6652335887
 20
25609.5047954447
 30
0.0
 10
40574.859492156
 20
25609.1221781669
 30
0.0
 10
40886.0536677425
 20
25608.6618532218
 30
0.0
  0
SPLINE
  5
8B
330
1F
100
AcDbEntity
  8
OUTER
 62
     3
370
    35
100
AcDbSpline
210
0.0
220
0.0
230
1.0
 70
     8
 71
     5
 72
    12
 73
     6
 74
     0
 42
0.0
 43
0.0
 40
0.0
 40
0.0
 40
0.0
 40
0.0
 40
0.0
 40
0.0
 40
1272.827082145584
 40
1272.827082145584
 40
1272.827082145584
 40
1272.827082145584
 40
1272.827082145584
 40
1272.827082145584
 10
40886.0536677425
 20
25608.6618532218
 30
0.0
 10
40899.1774142055
 20
25862.8887568346
 30
0.0
 10
40912.1178652163
 20
26117.1249375294
 30
0.0
 10
40925.043178223
 20
26371.3620161879
 30
0.0
 10
40938.3393525622
 20
26625.5802306816
 30
0.0
 10
40951.154596221
 20
26879.8228722107
 30
0.0
  0
SPLINE
  5
8C
330
1F
100
AcDbEntity
  8
OUTER
 62
     3
370
    35
100
AcDbSpline
210
0.0
220
0.0
230
1.0
 70
     8
 71
     5
 72
    12
 73
     6
 74
     0
 42
0.0
 43
0.0
 40
0.0
 40
0.0
 40
0.0
 40
0.0
 40
0.0
 40
0.0
 40
1622.784469564643
 40
1622.784469564643
 40
1622.784469564643
 40
1622.784469564643
 40
1622.784469564643
 40
1622.784469564643
 10
40951.1545962211
 20
26879.8228722107
 30
0.0
 10
40626.5984836001
 20
26879.1107298358
 30
0.0
 10
40302.0421517691
 20
26878.457642515
 30
0.0
 10
39977.4856016926
 20
26877.8680718101
 30
0.0
 10
39652.9288797769
 20
26877.557237995
 30
0.0
 10
39328.3719870261
 20
26877.529770105
 30
0.0
  0
SPLINE
  5
8D
330
1F
100
AcDbEntity
  8
OUTER
 62
     3
370
    35
100
AcDbSpline
210
0.0
220
0.0
230
1.0
 70
     8
 71
     5
 72
    14
 73
     8
 74
     0
 42
0.0
 43
0.0
 40
0.0
 40
0.0
 40
0.0
 40
0.0
 40
0.0
 40
0.0
 40
156.3045267663822
 40
965.6897684552486
 40
1267.17375595698
 40
1267.17375595698
 40
1267.17375595698
 40
1267.17375595698
 40
1267.17375595698
 40
1267.17375595698
 10
39328.3719870261
 20
26877.529770105
 30
0.0
 10
39328.5042033916
 20
26846.2691443542
 30
0.0
 10
39329.2093555948
 20
26653.1325645799
 30
0.0
 10
39329.1630099117
 20
26399.696653965
 30
0.0
 10
39329.8999829251
 20
26146.2630179412
 30
0.0
 10
39329.7965459482
 20
25892.8279917392
 30
0.0
 10
39329.9994446158
 20
25670.6542804447
 30
0.0
 10
39330.0821146933
 20
25610.3575396169
 30
0.0
  0
ENDBLK
  5
91
330
8E
100
AcDbEntity
  8
0
100
AcDbBlockEnd
  0
BLOCK
  5
95
330
93
100
AcDbEntity
  8
0
100
AcDbBlockBegin
  2
V236_WW_LRU12_264 RT_TEXT_5
 70
     0
 10
0.0
 20
0.0
 30
0.0
  3
V236_WW_LRU12_264 RT_TEXT_5
  1

  0
TEXT
  5
94
330
93
100
AcDbEntity
  8
TEXT
 62
    14
370
    13
100
AcDbText
 10
-25.789062
 20
579.68219
 30
0.0
 40
30.0
  1
V236_WW_LRU12_264 RT
 41
0.931771
 72
     5
 11
494.671875
 21
579.68219
 31
0.0
100
AcDbText
  0
ENDBLK
  5
96
330
93
100
AcDbEntity
  8
0
100
AcDbBlockEnd
  0
BLOCK
  5
A1
330
9F
100
AcDbEntity
  8
0
100
AcDbBlockBegin
  2
29276884_INF_GF_HM_BI45_1000_54_CHORDWISE_V1_V236_WW_LRU12_264_R0_I38_DXF
 70
     0
 10
0.0
 20
0.0
 30
0.0
  3
29276884_INF_GF_HM_BI45_1000_54_CHORDWISE_V1_V236_WW_LRU12_264_R0_I38_DXF
  1

  0
INSERT
  5
97
330
1F
100
AcDbEntity
  8
TEXT
 62
     7
370
     0
100
AcDbBlockReference
  2
V236_WW_LRU12_264 RT_TEXT_5
 10
39829.796875
 20
26167.436523
 30
0.0
  0
POINT
  5
98
330
1F
100
AcDbEntity
  8
STRATEGYPOINT
 62
     7
370
     5
100
AcDbPoint
 10
39829.796875
 20
26167.436523
 30
0.0
  0
LINE
  5
99
330
1F
100
AcDbEntity
  8
ROSETTE
 62
   150
370
    35
100
AcDbLine
 10
39839.796875
 20
26167.436523
 30
0.0
 11
39829.796875
 21
26167.436523
 31
0.0
  0
LINE
  5
9A
330
1F
100
AcDbEntity
  8
ROSETTE
 62
   150
370
    35
100
AcDbLine
 10
39829.796875
 20
26167.436523
 30
0.0
 11
39829.796875
 21
26172.436523
 31
0.0
  0
SPLINE
  5
9B
330
1F
100
AcDbEntity
  8
OUTER
 62
     3
370
    35
100
AcDbSpline
210
0.0
220
0.0
230
1.0
 70
     8
 71
     5
 72
    15
 73
     9
 74
     0
 42
0.0
 43
0.0
 40
0.0
 40
0.0
 40
0.0
 40
0.0
 40
0.0
 40
0.0
 40
563.7529272886103
 40
769.3807350587413
 40
1341.539148130737
 40
1512.396427545162
 40
1512.396427545162
 40
1512.396427545162
 40
1512.396427545162
 40
1512.396427545162
 40
1512.396427545162
 10
39350.0614337163
 20
25540.3278647815
 30
0.0
 10
39462.8120047205
 20
25540.2707743377
 30
0.0
 10
39616.6881166377
 20
25540.1704552729
 30
0.0
 10
39884.9958479507
 20
25539.9491622264
 30
0.0
 10
40187.4749180456
 20
25539.5646725379
 30
0.0
 10
40489.9539236159
 20
25539.1577077317
 30
0.0
 10
40679.6825554062
 20
25538.9492364841
 30
0.0
 10
40828.2851621877
 20
25538.562526298
 30
0.0
 10
40862.456467439
 20
25538.4610641148
 30
0.0
  0
SPLINE
  5
9C
330
1F
100
AcDbEntity
  8
OUTER
 62
     3
370
    35
100
AcDbSpline
210
0.0
220
0.0
230
1.0
 70
     8
 71
     5
 72
    15
 73
     9
 74
     0
 42
0.0
 43
0.0
 40
0.0
 40
0.0
 40
0.0
 40
0.0
 40
0.0
 40
0.0
 40
314.321695835192
 40
640.316918247194
 40
955.7927286044603
 40
1272.695587772464
 40
1272.695587772464
 40
1272.695587772464
 40
1272.695587772464
 40
1272.695587772464
 40
1272.695587772464
 10
40862.456467439
 20
25538.4610641148
 30
0.0
 10
40865.6047574141
 20
25601.2465195099
 30
0.0
 10
40872.1138411873
 20
25729.144359837
 30
0.0
 10
40882.0373328118
 20
25920.045270545
 30
0.0
 10
40895.0320732187
 20
26174.2524475828
 30
0.0
 10
40908.1084857773
 20
26428.455372767
 30
0.0
 10
40917.6542373012
 20
26619.8926771202
 30
0.0
 10
40924.2052831774
 20
26746.1985651294
 30
0.0
 10
40927.5772539045
 20
26809.4893756738
 30
0.0
  0
SPLINE
  5
9D
330
1F
100
AcDbEntity
  8
OUTER
 62
     3
370
    35
100
AcDbSpline
210
0.0
220
0.0
230
1.0
 70
     8
 71
     5
 72
    14
 73
     8
 74
     0
 42
0.0
 43
0.0
 40
0.0
 40
0.0
 40
0.0
 40
0.0
 40
0.0
 40
0.0
 40
395.5599478206749
 40
778.4010862228445
 40
1578.999105131998
 40
1578.999105131998
 40
1578.999105131998
 40
1578.999105131998
 40
1578.999105131998
 40
1578.999105131998
 10
40927.5772539045
 20
26809.4893756737
 30
0.0
 10
40848.4653042387
 20
26809.409922613
 30
0.0
 10
40692.7855402736
 20
26809.1204278137
 30
0.0
 10
40376.9866717074
 20
26808.4604380488
 30
0.0
 10
40061.1865992457
 20
26808.1922527818
 30
0.0
 10
39745.3872622159
 20
26807.7292410863
 30
0.0
 10
39508.6994182596
 20
26807.5970209001
 30
0.0
 10
39348.5798339661
 20
26807.5180215216
 30
0.0
  0
SPLINE
  5
9E
330
1F
100
AcDbEntity
  8
OUTER
 62
     3
370
    35
100
AcDbSpline
210
0.0
220
0.0
230
1.0
 70
     8
 71
     5
 72
    15
 73
     9
 74
     0
 42
0.0
 43
0.0
 40
0.0
 40
0.0
 40
0.0
 40
0.0
 40
0.0
 40
0.0
 40
167.4846122172902
 40
314.5150746849122
 40
755.6064887772467
 40
1267.191473032941
 40
1267.191473032941
 40
1267.191473032941
 40
1267.191473032941
 40
1267.191473032941
 40
1267.191473032941
 10
39348.5798339661
 20
26807.5180215216
 30
0.0
 10
39348.5860495025
 20
26774.0210996548
 30
0.0
 10
39348.639006718
 20
26711.1181340281
 30
0.0
 10
39348.9448479779
 20
26559.9971620072
 30
0.0
 10
39349.6086086895
 20
26306.559613681
 30
0.0
 10
39349.7389188616
 20
26053.121457524
 30
0.0
 10
39350.03312989
 20
25833.1801206116
 30
0.0
 10
39350.1376212857
 20
25642.6448332673
 30
0.0
 10
39350.0614337164
 20
25540.3278647816
 30
0.0
  0
ENDBLK
  5
A2
330
9F
100
AcDbEntity
  8
0
100
AcDbBlockEnd
  0
BLOCK
  5
A6
330
A4
100
AcDbEntity
  8
0
100
AcDbBlockBegin
  2
V236_WW_LRU12_265 RT_TEXT_6
 70
     0
 10
0.0
 20
0.0
 30
0.0
  3
V236_WW_LRU12_265 RT_TEXT_6
  1

  0
TEXT
  5
A5
330
A4
100
AcDbEntity
  8
TEXT
 62
    14
370
    13
100
AcDbText
 10
-31.730469
 20
510.834534
 30
0.0
 40
30.0
  1
V236_WW_LRU12_265 RT
 41
0.931771
 72
     5
 11
488.730469
 21
510.834534
 31
0.0
100
AcDbText
  0
ENDBLK
  5
A7
330
A4
100
AcDbEntity
  8
0
100
AcDbBlockEnd
  0
BLOCK
  5
B5
330
B3
100
AcDbEntity
  8
0
100
AcDbBlockBegin
  2
29276884_INF_GF_HM_BI45_1000_54_CHORDWISE_V1_V236_WW_LRU12_265_R0_I38_DXF
 70
     0
 10
0.0
 20
0.0
 30
0.0
  3
29276884_INF_GF_HM_BI45_1000_54_CHORDWISE_V1_V236_WW_LRU12_265_R0_I38_DXF
  1

  0
INSERT
  5
A8
330
1F
100
AcDbEntity
  8
TEXT
 62
     7
370
     0
100
AcDbBlockReference
  2
V236_WW_LRU12_265 RT_TEXT_6
 10
39829.796875
 20
26167.436523
 30
0.0
  0
POINT
  5
A9
330
1F
100
AcDbEntity
  8
STRATEGYPOINT
 62
     7
370
     5
100
AcDbPoint
 10
39829.796875
 20
26167.436523
 30
0.0
  0
LINE
  5
AA
330
1F
100
AcDbEntity
  8
ROSETTE
 62
   150
370
    35
100
AcDbLine
 10
39839.796875
 20
26167.436523
 30
0.0
 11
39829.796875
 21
26167.436523
 31
0.0
  0
LINE
  5
AB
330
1F
100
AcDbEntity
  8
ROSETTE
 62
   150
370
    35
100
AcDbLine
 10
39829.796875
 20
26167.436523
 30
0.0
 11
39829.796875
 21
26172.436523
 31
0.0
  0
POLYLINE
  5
AC
330
1F
100
AcDbEntity
  8
OUTER
 62
     3
370
    35
100
AcDb2dPolyline
 66
     1
 10
1086.28125
 20
-351.213867999999
 30
0.0
  0
VERTEX
  5
AD
330
AC
100
AcDbEntity
  8
0
370
     0
100
AcDbVertex
100
AcDb2dVertex
 10
40838.822728
 20
25468.296162
 30
0.0
 42
0.000334
  0
VERTEX
  5
AE
330
AC
100
AcDbEntity
  8
0
370
     0
100
AcDbVertex
100
AcDb2dVertex
 10
39370.080389
 20
25470.313589
 30
0.0
  0
SEQEND
  5
AF
330
AC
100
AcDbEntity
  8
OUTER
 62
     3
370
    35
  0
SPLINE
  5
B0
330
1F
100
AcDbEntity
  8
OUTER
 62
     3
370
    35
100
AcDbSpline
210
0.0
220
0.0
230
1.0
 70
     8
 71
     5
 72
    12
 73
     6
 74
     0
 42
0.0
 43
0.0
 40
0.0
 40
0.0
 40
0.0
 40
0.0
 40
0.0
 40
0.0
 40
1272.648849334825
 40
1272.648849334825
 40
1272.648849334825
 40
1272.648849334825
 40
1272.648849334825
 40
1272.648849334825
 10
40838.8227298492
 20
25468.2971071915
 30
0.0
 10
40851.9317294577
 20
25722.4890777136
 30
0.0
 10
40864.9603642955
 20
25976.6851743428
 30
0.0
 10
40877.9263598349
 20
26230.8844874152
 30
0.0
 10
40890.9129578383
 20
26485.0827449738
 30
0.0
 10
40903.9378834075
 20
26739.2790373592
 30
0.0
  0
SPLINE
  5
B1
330
1F
100
AcDbEntity
  8
OUTER
 62
     3
370
    35
100
AcDbSpline
210
0.0
220
0.0
230
1.0
 70
     8
 71
     5
 72
    12
 73
     6
 74
     0
 42
0.0
 43
0.0
 40
0.0
 40
0.0
 40
0.0
 40
0.0
 40
0.0
 40
0.0
 40
1535.228255203688
 40
1535.228255203688
 40
1535.228255203688
 40
1535.228255203688
 40
1535.228255203688
 40
1535.228255203688
 10
40903.9378834075
 20
26739.2790373592
 30
0.0
 10
40596.8926639486
 20
26738.7642269383
 30
0.0
 10
40289.8476326478
 20
26738.3385825562
 30
0.0
 10
39982.8026396799
 20
26737.9923798948
 30
0.0
 10
39675.7574353407
 20
26737.7097094383
 30
0.0
 10
39368.7118695481
 20
26737.480908022
 30
0.0
  0
SPLINE
  5
B2
330
1F
100
AcDbEntity
  8
OUTER
 62
     3
370
    35
100
AcDbSpline
210
0.0
220
0.0
230
1.0
 70
     8
 71
     5
 72
    12
 73
     6
 74
     0
 42
0.0
 43
0.0
 40
0.0
 40
0.0
 40
0.0
 40
0.0
 40
0.0
 40
0.0
 40
1267.169232050677
 40
1267.169232050677
 40
1267.169232050677
 40
1267.169232050677
 40
1267.169232050677
 40
1267.169232050677
 10
39368.7118695481
 20
26737.4809080219
 30
0.0
 10
39369.1734731967
 20
26484.0474819941
 30
0.0
 10
39369.6364281809
 20
26230.6139131229
 30
0.0
 10
39370.0955736677
 20
25977.1802030808
 30
0.0
 10
39370.2453080737
 20
25723.7464508354
 30
0.0
 10
39370.0803887546
 20
25470.3126580851
 30
0.0
  0
ENDBLK
  5
B6
330
B3
100
AcDbEntity
  8
0
100
AcDbBlockEnd
  0
BLOCK
  5
BA
330
B8
100
AcDbEntity
  8
0
100
AcDbBlockBegin
  2
V236_WW_LRU12_266 RT_TEXT_7
 70
     0
 10
0.0
 20
0.0
 30
0.0
  3
V236_WW_LRU12_266 RT_TEXT_7
  1

  0
TEXT
  5
B9
330
B8
100
AcDbEntity
  8
TEXT
 62
    14
370
    13
100
AcDbText
 10
-30.996094
 20
439.809143
 30
0.0
 40
30.0
  1
V236_WW_LRU12_266 RT
 41
0.931771
 72
     5
 11
489.464844
 21
439.809143
 31
0.0
100
AcDbText
  0
ENDBLK
  5
BB
330
B8
100
AcDbEntity
  8
0
100
AcDbBlockEnd
  0
BLOCK
  5
C6
330
C4
100
AcDbEntity
  8
0
100
AcDbBlockBegin
  2
29276884_INF_GF_HM_BI45_1000_54_CHORDWISE_V1_V236_WW_LRU12_266_R0_I38_DXF
 70
     0
 10
0.0
 20
0.0
 30
0.0
  3
29276884_INF_GF_HM_BI45_1000_54_CHORDWISE_V1_V236_WW_LRU12_266_R0_I38_DXF
  1

  0
INSERT
  5
BC
330
1F
100
AcDbEntity
  8
TEXT
 62
     7
370
     0
100
AcDbBlockReference
  2
V236_WW_LRU12_266 RT_TEXT_7
 10
39829.796875
 20
26167.436523
 30
0.0
  0
POINT
  5
BD
330
1F
100
AcDbEntity
  8
STRATEGYPOINT
 62
     7
370
     5
100
AcDbPoint
 10
39829.796875
 20
26167.436523
 30
0.0
  0
LINE
  5
BE
330
1F
100
AcDbEntity
  8
ROSETTE
 62
   150
370
    35
100
AcDbLine
 10
39839.796875
 20
26167.436523
 30
0.0
 11
39829.796875
 21
26167.436523
 31
0.0
  0
LINE
  5
BF
330
1F
100
AcDbEntity
  8
ROSETTE
 62
   150
370
    35
100
AcDbLine
 10
39829.796875
 20
26167.436523
 30
0.0
 11
39829.796875
 21
26172.436523
 31
0.0
  0
SPLINE
  5
C0
330
1F
100
AcDbEntity
  8
OUTER
 62
     3
370
    35
100
AcDbSpline
210
0.0
220
0.0
230
1.0
 70
     8
 71
     5
 72
    12
 73
     6
 74
     0
 42
0.0
 43
0.0
 40
0.0
 40
0.0
 40
0.0
 40
0.0
 40
0.0
 40
0.0
 40
1425.148342393086
 40
1425.148342393086
 40
1425.148342393086
 40
1425.148342393086
 40
1425.148342393086
 40
1425.148342393086
 10
39390.0782916791
 20
25400.2840521483
 30
0.0
 10
39675.1079588875
 20
25400.2571407434
 30
0.0
 10
39960.1372548026
 20
25399.591645228
 30
0.0
 10
40245.1667462315
 20
25399.3278074868
 30
0.0
 10
40530.196015888
 20
25398.8241388943
 30
0.0
 10
40815.2248618627
 20
25398.1393941763
 30
0.0
  0
SPLINE
  5
C1
330
1F
100
AcDbEntity
  8
OUTER
 62
     3
370
    35
100
AcDbSpline
210
0.0
220
0.0
230
1.0
 70
     8
 71
     5
 72
    14
 73
     8
 74
     0
 42
0.0
 43
0.0
 40
0.0
 40
0.0
 40
0.0
 40
0.0
 40
0.0
 40
0.0
 40
637.5190329912082
 40
964.3806108858713
 40
1272.523297779312
 40
1272.523297779312
 40
1272.523297779312
 40
1272.523297779312
 40
1272.523297779312
 40
1272.523297779312
 10
40815.2248618627
 20
25398.1393941763
 30
0.0
 10
40821.7378006673
 20
25525.476750538
 30
0.0
 10
40831.5902994834
 20
25718.1010626501
 30
0.0
 10
40844.6055561835
 20
25972.2726822779
 30
0.0
 10
40857.7194146735
 20
26226.4392937786
 30
0.0
 10
40870.8488739448
 20
26480.605158586
 30
0.0
 10
40877.2435329605
 20
26607.4448803213
 30
0.0
 10
40880.3040860933
 20
26668.9973752662
 30
0.0
  0
SPLINE
  5
C2
330
1F
100
AcDbEntity
  8
OUTER
 62
     3
370
    35
100
AcDbSpline
210
0.0
220
0.0
230
1.0
 70
     8
 71
     5
 72
    12
 73
     6
 74
     0
 42
0.0
 43
0.0
 40
0.0
 40
0.0
 40
0.0
 40
0.0
 40
0.0
 40
0.0
 40
1491.473658436154
 40
1491.473658436154
 40
1491.473658436154
 40
1491.473658436154
 40
1491.473658436154
 40
1491.473658436154
 10
40880.3040860933
 20
26668.9973752662
 30
0.0
 10
40582.00944911
 20
26668.7596797974
 30
0.0
 10
40283.7149271811
 20
26668.3880554355
 30
0.0
 10
39985.4205103773
 20
26667.8951852514
 30
0.0
 10
39687.1259460994
 20
26667.6036555745
 30
0.0
 10
39388.8312245138
 20
26667.5260248581
 30
0.0
  0
SPLINE
  5
C3
330
1F
100
AcDbEntity
  8
OUTER
 62
     3
370
    35
100
AcDbSpline
210
0.0
220
0.0
230
1.0
 70
     8
 71
     5
 72
    12
 73
     6
 74
     0
 42
0.0
 43
0.0
 40
0.0
 40
0.0
 40
0.0
 40
0.0
 40
0.0
 40
0.0
 40
1267.242859333546
 40
1267.242859333546
 40
1267.242859333546
 40
1267.242859333546
 40
1267.242859333546
 40
1267.242859333546
 10
39388.8312245138
 20
26667.526024858
 30
0.0
 10
39389.395794626
 20
26414.0780817973
 30
0.0
 10
39389.5274048143
 20
26160.6294722597
 30
0.0
 10
39390.3328826595
 20
25907.1813826042
 30
0.0
 10
39389.779040475
 20
25653.7324473491
 30
0.0
 10
39390.0782916791
 20
25400.2840521482
 30
0.0
  0
ENDBLK
  5
C7
330
C4
100
AcDbEntity
  8
0
100
AcDbBlockEnd
  0
BLOCK
  5
CC
330
CA
100
AcDbEntity
  8
0
100
AcDbBlockBegin
  2
V236_WW_LRU12_267 RT_TEXT_8
 70
     0
 10
0.0
 20
0.0
 30
0.0
  3
V236_WW_LRU12_267 RT_TEXT_8
  1

  0
TEXT
  5
CB
330
CA
100
AcDbEntity
  8
TEXT
 62
    14
370
    13
100
AcDbText
 10
-31.132812
 20
364.883362
 30
0.0
 40
30.0
  1
V236_WW_LRU12_267 RT
 41
0.931771
 72
     5
 11
489.328125
 21
364.883362
 31
0.0
100
AcDbText
  0
ENDBLK
  5
CD
330
CA
100
AcDbEntity
  8
0
100
AcDbBlockEnd
  0
BLOCK
  5
10B
330
109
100
AcDbEntity
  8
0
100
AcDbBlockBegin
  2
29276884_INF_GF_HM_BI45_1000_54_CHORDWISE_V1-V236_WW_LRU12_267_R1_I7_DXF
 70
     0
 10
0.0
 20
0.0
 30
0.0
  3
29276884_INF_GF_HM_BI45_1000_54_CHORDWISE_V1-V236_WW_LRU12_267_R1_I7_DXF
  1

  0
INSERT
  5
CE
330
1F
100
AcDbEntity
  8
TEXT
 62
     7
370
     0
100
AcDbBlockReference
  2
V236_WW_LRU12_267 RT_TEXT_8
 10
39829.796875
 20
26167.436523
 30
0.0
  0
POINT
  5
CF
330
1F
100
AcDbEntity
  8
STRATEGYPOINT
 62
     7
370
     5
100
AcDbPoint
 10
39829.796875
 20
26167.436523
 30
0.0
  0
LINE
  5
D0
330
1F
100
AcDbEntity
  8
MARKERS
 62
     5
370
    35
100
AcDbLine
 10
40940.796875
 20
26167.436523
 30
0.0
 11
39053.796875
 21
26167.436523
 31
0.0
  0
LINE
  5
D1
330
1F
100
AcDbEntity
  8
MARKERS
 62
     5
370
    35
100
AcDbLine
 10
40926.796875
 20
25867.436523
 30
0.0
 11
39051.796875
 21
25867.436523
 31
0.0
  0
LINE
  5
D2
330
1F
100
AcDbEntity
  8
MARKERS
 62
     5
370
    35
100
AcDbLine
 10
40829.796875
 20
25567.436523
 30
0.0
 11
39381.796875
 21
25567.436523
 31
0.0
  0
LINE
  5
D3
330
1F
100
AcDbEntity
  8
MARKERS
 62
     5
370
    35
100
AcDbLine
 10
40787.796875
 20
25467.436523
 30
0.0
 11
39418.796875
 21
25467.436523
 31
0.0
  0
LINE
  5
D4
330
1F
100
AcDbEntity
  8
MARKERS
 62
     5
370
    35
100
AcDbLine
 10
40954.796875
 20
26467.436523
 30
0.0
 11
39053.796875
 21
26467.436523
 31
0.0
  0
LINE
  5
D5
330
1F
100
AcDbEntity
  8
MARKERS
 62
     5
370
    35
100
AcDbLine
 10
40972.796875
 20
26767.436523
 30
0.0
 11
39048.796875
 21
26767.436523
 31
0.0
  0
LINE
  5
D6
330
1F
100
AcDbEntity
  8
MARKERS
 62
     5
370
    35
100
AcDbLine
 10
40977.796875
 20
26967.436523
 30
0.0
 11
39043.796875
 21
26967.436523
 31
0.0
  0
LINE
  5
D7
330
1F
100
AcDbEntity
  8
ROSETTE
 62
   150
370
    35
100
AcDbLine
 10
39839.796875
 20
26167.436523
 30
0.0
 11
39829.796875
 21
26167.436523
 31
0.0
  0
LINE
  5
D8
330
1F
100
AcDbEntity
  8
ROSETTE
 62
   150
370
    35
100
AcDbLine
 10
39829.796875
 20
26167.436523
 30
0.0
 11
39829.796875
 21
26172.436523
 31
0.0
  0
POLYLINE
  5
D9
330
1F
100
AcDbEntity
  8
OUTER
 62
     3
370
    35
100
AcDb2dPolyline
 66
     1
 10
960.796875
 20
-307.280740999999
 30
0.0
  0
VERTEX
  5
DA
330
D9
100
AcDbEntity
  8
0
370
     0
100
AcDbVertex
100
AcDb2dVertex
 10
39410.056274
 20
25330.265747
 30
0.0
  0
VERTEX
  5
DB
330
D9
100
AcDbEntity
  8
0
370
     0
100
AcDbVertex
100
AcDb2dVertex
 10
39640.316452
 20
25330.035766
 30
0.0
  0
VERTEX
  5
DC
330
D9
100
AcDbEntity
  8
0
370
     0
100
AcDbVertex
100
AcDb2dVertex
 10
39870.576267
 20
25329.740051
 30
0.0
  0
VERTEX
  5
DD
330
D9
100
AcDbEntity
  8
0
370
     0
100
AcDbVertex
100
AcDb2dVertex
 10
40177.58902
 20
25329.252563
 30
0.0
  0
VERTEX
  5
DE
330
D9
100
AcDbEntity
  8
0
370
     0
100
AcDbVertex
100
AcDb2dVertex
 10
40382.26416
 20
25328.874206
 30
0.0
  0
VERTEX
  5
DF
330
D9
100
AcDbEntity
  8
0
370
     0
100
AcDbVertex
100
AcDb2dVertex
 10
40791.614685
 20
25328.006714
 30
0.0
  0
SEQEND
  5
E0
330
D9
100
AcDbEntity
  8
OUTER
 62
     3
370
    35
  0
POLYLINE
  5
E1
330
1F
100
AcDbEntity
  8
OUTER
 62
     3
370
    35
100
AcDb2dPolyline
 66
     1
 10
960.796875
 20
-307.280740999999
 30
0.0
  0
VERTEX
  5
E2
330
E1
100
AcDbEntity
  8
0
370
     0
100
AcDbVertex
100
AcDb2dVertex
 10
40791.614685
 20
25328.006714
 30
0.0
  0
VERTEX
  5
E3
330
E1
100
AcDbEntity
  8
0
370
     0
100
AcDbVertex
100
AcDb2dVertex
 10
40793.566223
 20
25367.44458
 30
0.0
  0
VERTEX
  5
E4
330
E1
100
AcDbEntity
  8
0
370
     0
100
AcDbVertex
100
AcDb2dVertex
 10
40795.55481
 20
25406.880615
 30
0.0
  0
VERTEX
  5
E5
330
E1
100
AcDbEntity
  8
0
370
     0
100
AcDbVertex
100
AcDb2dVertex
 10
40798.247437
 20
25459.4599
 30
0.0
  0
VERTEX
  5
E6
330
E1
100
AcDbEntity
  8
0
370
     0
100
AcDbVertex
100
AcDb2dVertex
 10
40803.692139
 20
25564.615478
 30
0.0
  0
VERTEX
  5
E7
330
E1
100
AcDbEntity
  8
0
370
     0
100
AcDbVertex
100
AcDb2dVertex
 10
40811.974121
 20
25725.366577
 30
0.0
  0
VERTEX
  5
E8
330
E1
100
AcDbEntity
  8
0
370
     0
100
AcDbVertex
100
AcDb2dVertex
 10
40818.664856
 20
25855.978973
 30
0.0
  0
VERTEX
  5
E9
330
E1
100
AcDbEntity
  8
0
370
     0
100
AcDbVertex
100
AcDb2dVertex
 10
40832.052185
 20
26117.203479
 30
0.0
  0
VERTEX
  5
EA
330
E1
100
AcDbEntity
  8
0
370
     0
100
AcDbVertex
100
AcDb2dVertex
 10
40843.045532
 20
26331.21759
 30
0.0
  0
VERTEX
  5
EB
330
E1
100
AcDbEntity
  8
0
370
     0
100
AcDbVertex
100
AcDb2dVertex
 10
40848.557129
 20
26438.223907
 30
0.0
  0
VERTEX
  5
EC
330
E1
100
AcDbEntity
  8
0
370
     0
100
AcDbVertex
100
AcDb2dVertex
 10
40852.209534
 20
26509.562561
 30
0.0
  0
VERTEX
  5
ED
330
E1
100
AcDbEntity
  8
0
370
     0
100
AcDbVertex
100
AcDb2dVertex
 10
40854.016602
 20
26545.232849
 30
0.0
  0
VERTEX
  5
EE
330
E1
100
AcDbEntity
  8
0
370
     0
100
AcDbVertex
100
AcDb2dVertex
 10
40856.684692
 20
26598.740417
 30
0.0
  0
SEQEND
  5
EF
330
E1
100
AcDbEntity
  8
OUTER
 62
     3
370
    35
  0
POLYLINE
  5
F0
330
1F
100
AcDbEntity
  8
OUTER
 62
     3
370
    35
100
AcDb2dPolyline
 66
     1
 10
960.796875
 20
-307.280740999999
 30
0.0
  0
VERTEX
  5
F1
330
F0
100
AcDbEntity
  8
0
370
     0
100
AcDbVertex
100
AcDb2dVertex
 10
40856.684692
 20
26598.740417
 30
0.0
  0
VERTEX
  5
F2
330
F0
100
AcDbEntity
  8
0
370
     0
100
AcDbVertex
100
AcDb2dVertex
 10
40803.065735
 20
26598.723083
 30
0.0
  0
VERTEX
  5
F3
330
F0
100
AcDbEntity
  8
0
370
     0
100
AcDbVertex
100
AcDb2dVertex
 10
40695.828064
 20
26598.63211
 30
0.0
  0
VERTEX
  5
F4
330
F0
100
AcDbEntity
  8
0
370
     0
100
AcDbVertex
100
AcDb2dVertex
 10
40588.590332
 20
26598.499054
 30
0.0
  0
VERTEX
  5
F5
330
F0
100
AcDbEntity
  8
0
370
     0
100
AcDbVertex
100
AcDb2dVertex
 10
40374.11499
 20
26598.21231
 30
0.0
  0
VERTEX
  5
F6
330
F0
100
AcDbEntity
  8
0
370
     0
100
AcDbVertex
100
AcDb2dVertex
 10
40213.258453
 20
26598.031921
 30
0.0
  0
VERTEX
  5
F7
330
F0
100
AcDbEntity
  8
0
370
     0
100
AcDbVertex
100
AcDb2dVertex
 10
40052.401855
 20
26597.892883
 30
0.0
  0
VERTEX
  5
F8
330
F0
100
AcDbEntity
  8
0
370
     0
100
AcDbVertex
100
AcDb2dVertex
 10
39928.769424
 20
26597.807129
 30
0.0
  0
VERTEX
  5
F9
330
F0
100
AcDbEntity
  8
0
370
     0
100
AcDbVertex
100
AcDb2dVertex
 10
39681.504547
 20
26597.657959
 30
0.0
  0
VERTEX
  5
FA
330
F0
100
AcDbEntity
  8
0
370
     0
100
AcDbVertex
100
AcDb2dVertex
 10
39499.818451
 20
26597.558349
 30
0.0
  0
VERTEX
  5
FB
330
F0
100
AcDbEntity
  8
0
370
     0
100
AcDbVertex
100
AcDb2dVertex
 10
39408.975372
 20
26597.521698
 30
0.0
  0
SEQEND
  5
FC
330
F0
100
AcDbEntity
  8
OUTER
 62
     3
370
    35
  0
POLYLINE
  5
FD
330
1F
100
AcDbEntity
  8
OUTER
 62
     3
370
    35
100
AcDb2dPolyline
 66
     1
 10
960.796875
 20
-307.280740999999
 30
0.0
  0
VERTEX
  5
FE
330
FD
100
AcDbEntity
  8
0
370
     0
100
AcDbVertex
100
AcDb2dVertex
 10
39408.975372
 20
26597.521698
 30
0.0
  0
VERTEX
  5
FF
330
FD
100
AcDbEntity
  8
0
370
     0
100
AcDbVertex
100
AcDb2dVertex
 10
39409.319275
 20
26384.045929
 30
0.0
  0
VERTEX
  5
100
330
FD
100
AcDbEntity
  8
0
370
     0
100
AcDbVertex
100
AcDb2dVertex
 10
39409.684967
 20
26117.201145
 30
0.0
  0
VERTEX
  5
101
330
FD
100
AcDbEntity
  8
0
370
     0
100
AcDbVertex
100
AcDb2dVertex
 10
39409.930542
 20
25854.889404
 30
0.0
  0
VERTEX
  5
102
330
FD
100
AcDbEntity
  8
0
370
     0
100
AcDbVertex
100
AcDb2dVertex
 10
39410.066986
 20
25680.014831
 30
0.0
  0
VERTEX
  5
103
330
FD
100
AcDbEntity
  8
0
370
     0
100
AcDbVertex
100
AcDb2dVertex
 10
39410.124786
 20
25592.577514
 30
0.0
  0
VERTEX
  5
104
330
FD
100
AcDbEntity
  8
0
370
     0
100
AcDbVertex
100
AcDb2dVertex
 10
39410.163422
 20
25475.994445
 30
0.0
  0
VERTEX
  5
106
330
FD
100
AcDbEntity
  8
0
370
     0
100
AcDbVertex
100
AcDb2dVertex
 10
39410.149689
 20
25417.702942
 30
0.0
  0
VERTEX
  5
107
330
FD
100
AcDbEntity
  8
0
370
     0
100
AcDbVertex
100
AcDb2dVertex
 10
39410.056274
 20
25330.265747
 30
0.0
  0
SEQEND
  5
108
330
FD
100
AcDbEntity
  8
OUTER
 62
     3
370
    35
  0
ENDBLK
  5
10C
330
109
100
AcDbEntity
  8
0
100
AcDbBlockEnd
  0
ENDSEC
  0
SECTION
  2
ENTITIES
  0
INSERT
  5
36
330
32
100
AcDbEntity
  8
0
100
AcDbBlockReference
  2
29276884_INF_GF_HM_BI45_1000_54_CHORDWISE_V1_V236_WW_LRU12_260_R0_I38_DXF
 10
0.0
 20
0.0
 30
0.0
  0
INSERT
  5
69
330
43
100
AcDbEntity
  8
0
100
AcDbBlockReference
  2
29276884_INF_GF_HM_BI45_1000_54_CHORDWISE_V1_V236_WW_LRU12_261_R0_I38_DXF
 10
0.0
 20
0.0
 30
0.0
  0
INSERT
  5
81
330
7B
100
AcDbEntity
  8
0
100
AcDbBlockReference
  2
29276884_INF_GF_HM_BI45_1000_54_CHORDWISE_V1_V236_WW_LRU12_262_R0_I38_DXF
 10
0.0
 20
0.0
 30
0.0
  0
INSERT
  5
92
330
8E
100
AcDbEntity
  8
0
100
AcDbBlockReference
  2
29276884_INF_GF_HM_BI45_1000_54_CHORDWISE_V1_V236_WW_LRU12_263_R0_I38_DXF
 10
0.0
 20
0.0
 30
0.0
  0
INSERT
  5
A3
330
9F
100
AcDbEntity
  8
0
100
AcDbBlockReference
  2
29276884_INF_GF_HM_BI45_1000_54_CHORDWISE_V1_V236_WW_LRU12_264_R0_I38_DXF
 10
0.0
 20
0.0
 30
0.0
  0
INSERT
  5
B7
330
B3
100
AcDbEntity
  8
0
100
AcDbBlockReference
  2
29276884_INF_GF_HM_BI45_1000_54_CHORDWISE_V1_V236_WW_LRU12_265_R0_I38_DXF
 10
0.0
 20
0.0
 30
0.0
  0
INSERT
  5
C8
330
C4
100
AcDbEntity
  8
0
100
AcDbBlockReference
  2
29276884_INF_GF_HM_BI45_1000_54_CHORDWISE_V1_V236_WW_LRU12_266_R0_I38_DXF
 10
0.0
 20
0.0
 30
0.0
  0
INSERT
  5
10D
330
109
100
AcDbEntity
  8
0
100
AcDbBlockReference
  2
29276884_INF_GF_HM_BI45_1000_54_CHORDWISE_V1-V236_WW_LRU12_267_R1_I7_DXF
 10
0.0
 20
0.0
 30
0.0
  0
ENDSEC
  0
SECTION
  2
OBJECTS
  0
DICTIONARY
  5
C
330
0
100
AcDbDictionary
281
     1
  3
ACAD_GROUP
350
D
  3
ACAD_LAYOUT
350
1A
  3
ACAD_MLINESTYLE
350
17
  3
ACAD_PLOTSETTINGS
350
19
  3
ACAD_PLOTSTYLENAME
350
E
  3
ACAD_SCALELIST
350
47
  3
DWGPROPS
350
7F
  0
DICTIONARY
  5
D
102
{ACAD_REACTORS
330
C
102
}
330
C
100
AcDbDictionary
281
     1
  0
DICTIONARY
  5
1A
102
{ACAD_REACTORS
330
C
102
}
330
C
100
AcDbDictionary
281
     1
  3
Layout1
350
1E
  3
Layout2
350
26
  3
Model
350
22
  0
DICTIONARY
  5
17
102
{ACAD_REACTORS
330
C
102
}
330
C
100
AcDbDictionary
281
     1
  3
Standard
350
18
  0
DICTIONARY
  5
19
102
{ACAD_REACTORS
330
C
102
}
330
C
100
AcDbDictionary
281
     1
  0
ACDBDICTIONARYWDFLT
  5
E
102
{ACAD_REACTORS
330
C
102
}
330
C
100
AcDbDictionary
281
     1
  3
Normal
350
F
100
AcDbDictionaryWithDefault
340
F
  0
DICTIONARY
  5
47
102
{ACAD_REACTORS
330
C
102
}
330
C
100
AcDbDictionary
281
     1
  3
A0
350
48
  3
A1
350
49
  3
A2
350
4A
  3
A3
350
4B
  3
A4
350
4C
  3
A5
350
4D
  3
A6
350
4E
  3
A7
350
4F
  3
A8
350
50
  3
A9
350
51
  3
B0
350
52
  3
B1
350
53
  3
B2
350
54
  3
B3
350
55
  3
B4
350
56
  3
B5
350
57
  3
B6
350
58
  3
B7
350
59
  3
B8
350
5A
  3
B9
350
5B
  3
C0
350
5C
  3
C1
350
5D
  3
C2
350
5E
  3
C3
350
5F
  3
C4
350
60
  3
C5
350
61
  3
C6
350
62
  3
C7
350
63
  3
C8
350
64
  3
C9
350
65
  3
D0
350
66
  3
D1
350
67
  3
D2
350
68
  0
XRECORD
  5
7F
102
{ACAD_REACTORS
330
C
102
}
330
C
100
AcDbXrecord
280
     1
  1
DWGPROPS COOKIE
  2

  3

  4

  6

  7

  8
JAWGT
  9

300
=
301
=
302
=
303
=
304
=
305
=
306
=
307
=
308
=
309
=
 40
0.0
 41
0.0
 42
2460090.612562
  1

 90
        0
  0
LAYOUT
  5
1E
102
{ACAD_REACTORS
330
1A
102
}
330
1A
100
AcDbPlotSettings
  1

  2
none_device
  4

  6

 40
0.0
 41
0.0
 42
0.0
 43
0.0
 44
0.0
 45
0.0
 46
0.0
 47
0.0
 48
0.0
 49
0.0
140
0.0
141
0.0
142
1.0
143
1.0
 70
  4784
 72
     0
 73
     0
 74
     5
  7

 75
    16
147
1.0
148
0.0
149
0.0
100
AcDbLayout
  1
Layout1
 70
     1
 71
     1
 10
0.0
 20
0.0
 11
420.0
 21
297.0
 12
0.0
 22
0.0
 32
0.0
 14
0.0
 24
0.0
 34
0.0
 15
484.492188
 25
901.458862
 35
2.0
146
0.0
 13
0.0
 23
0.0
 33
0.0
 16
1.0
 26
0.0
 36
0.0
 17
0.0
 27
1.0
 37
0.0
 76
     0
330
1B
  0
LAYOUT
  5
26
102
{ACAD_REACTORS
330
1A
102
}
330
1A
100
AcDbPlotSettings
  1

  2
none_device
  4

  6

 40
0.0
 41
0.0
 42
0.0
 43
0.0
 44
0.0
 45
0.0
 46
0.0
 47
0.0
 48
0.0
 49
0.0
140
0.0
141
0.0
142
1.0
143
1.0
 70
  4784
 72
     0
 73
     0
 74
     5
  7

 75
    16
147
1.0
148
0.0
149
0.0
100
AcDbLayout
  1
Layout2
 70
     1
 71
     2
 10
0.0
 20
0.0
 11
0.0
 21
0.0
 12
0.0
 22
0.0
 32
0.0
 14
0.0
 24
0.0
 34
0.0
 15
0.0
 25
0.0
 35
0.0
146
0.0
 13
0.0
 23
0.0
 33
0.0
 16
1.0
 26
0.0
 36
0.0
 17
0.0
 27
1.0
 37
0.0
 76
     0
330
23
  0
LAYOUT
  5
22
102
{ACAD_REACTORS
330
1A
102
}
330
1A
100
AcDbPlotSettings
  1

  2
none_device
  4
Letter_(8.50_x_11.00_Inches)
  6

 40
6.35
 41
6.35
 42
6.350005
 43
6.350005
 44
215.9
 45
279.4
 46
0.0
 47
0.0
 48
0.0
 49
0.0
140
0.0
141
0.0
142
1.0
143
1.0
 70
  5808
 72
     0
 73
     0
 74
     0
  7

 75
     0
147
1.0
148
0.0
149
0.0
100
AcDbLayout
  1
Model
 70
     1
 71
     0
 10
0.0
 20
0.0
 11
420.0
 21
297.0
 12
0.0
 22
0.0
 32
0.0
 14
0.0
 24
0.0
 34
0.0
 15
484.492188
 25
901.458862
 35
2.0
146
0.0
 13
0.0
 23
0.0
 33
0.0
 16
1.0
 26
0.0
 36
0.0
 17
0.0
 27
1.0
 37
0.0
 76
     0
330
1F
331
29
  0
MLINESTYLE
  5
18
102
{ACAD_REACTORS
330
17
102
}
330
17
100
AcDbMlineStyle
  2
Standard
 70
     0
  3

 62
   256
 51
90.0
 52
90.0
 71
     2
 49
0.5
 62
   256
  6
BYLAYER
 49
-0.5
 62
   256
  6
BYLAYER
  0
ACDBPLACEHOLDER
  5
F
102
{ACAD_REACTORS
330
E
102
}
330
E
  0
SCALE
  5
48
102
{ACAD_REACTORS
330
47
102
}
330
47
100
AcDbScale
 70
     0
300
1:1
140
1.0
141
1.0
290
     1
  0
SCALE
  5
49
102
{ACAD_REACTORS
330
47
102
}
330
47
100
AcDbScale
 70
     0
300
1:2
140
1.0
141
2.0
290
     0
  0
SCALE
  5
4A
102
{ACAD_REACTORS
330
47
102
}
330
47
100
AcDbScale
 70
     0
300
1:4
140
1.0
141
4.0
290
     0
  0
SCALE
  5
4B
102
{ACAD_REACTORS
330
47
102
}
330
47
100
AcDbScale
 70
     0
300
1:5
140
1.0
141
5.0
290
     0
  0
SCALE
  5
4C
102
{ACAD_REACTORS
330
47
102
}
330
47
100
AcDbScale
 70
     0
300
1:8
140
1.0
141
8.0
290
     0
  0
SCALE
  5
4D
102
{ACAD_REACTORS
330
47
102
}
330
47
100
AcDbScale
 70
     0
300
1:10
140
1.0
141
10.0
290
     0
  0
SCALE
  5
4E
102
{ACAD_REACTORS
330
47
102
}
330
47
100
AcDbScale
 70
     0
300
1:16
140
1.0
141
16.0
290
     0
  0
SCALE
  5
4F
102
{ACAD_REACTORS
330
47
102
}
330
47
100
AcDbScale
 70
     0
300
1:20
140
1.0
141
20.0
290
     0
  0
SCALE
  5
50
102
{ACAD_REACTORS
330
47
102
}
330
47
100
AcDbScale
 70
     0
300
1:30
140
1.0
141
30.0
290
     0
  0
SCALE
  5
51
102
{ACAD_REACTORS
330
47
102
}
330
47
100
AcDbScale
 70
     0
300
1:40
140
1.0
141
40.0
290
     0
  0
SCALE
  5
52
102
{ACAD_REACTORS
330
47
102
}
330
47
100
AcDbScale
 70
     0
300
1:50
140
1.0
141
50.0
290
     0
  0
SCALE
  5
53
102
{ACAD_REACTORS
330
47
102
}
330
47
100
AcDbScale
 70
     0
300
1:100
140
1.0
141
100.0
290
     0
  0
SCALE
  5
54
102
{ACAD_REACTORS
330
47
102
}
330
47
100
AcDbScale
 70
     0
300
2:1
140
2.0
141
1.0
290
     0
  0
SCALE
  5
55
102
{ACAD_REACTORS
330
47
102
}
330
47
100
AcDbScale
 70
     0
300
4:1
140
4.0
141
1.0
290
     0
  0
SCALE
  5
56
102
{ACAD_REACTORS
330
47
102
}
330
47
100
AcDbScale
 70
     0
300
8:1
140
8.0
141
1.0
290
     0
  0
SCALE
  5
57
102
{ACAD_REACTORS
330
47
102
}
330
47
100
AcDbScale
 70
     0
300
10:1
140
10.0
141
1.0
290
     0
  0
SCALE
  5
58
102
{ACAD_REACTORS
330
47
102
}
330
47
100
AcDbScale
 70
     0
300
100:1
140
100.0
141
1.0
290
     0
  0
SCALE
  5
59
102
{ACAD_REACTORS
330
47
102
}
330
47
100
AcDbScale
 70
     0
300
1/128" = 1'-0"
140
0.007812
141
12.0
290
     0
  0
SCALE
  5
5A
102
{ACAD_REACTORS
330
47
102
}
330
47
100
AcDbScale
 70
     0
300
1/64" = 1'-0"
140
0.015625
141
12.0
290
     0
  0
SCALE
  5
5B
102
{ACAD_REACTORS
330
47
102
}
330
47
100
AcDbScale
 70
     0
300
1/32" = 1'-0"
140
0.03125
141
12.0
290
     0
  0
SCALE
  5
5C
102
{ACAD_REACTORS
330
47
102
}
330
47
100
AcDbScale
 70
     0
300
1/16" = 1'-0"
140
0.0625
141
12.0
290
     0
  0
SCALE
  5
5D
102
{ACAD_REACTORS
330
47
102
}
330
47
100
AcDbScale
 70
     0
300
3/32" = 1'-0"
140
0.09375
141
12.0
290
     0
  0
SCALE
  5
5E
102
{ACAD_REACTORS
330
47
102
}
330
47
100
AcDbScale
 70
     0
300
1/8" = 1'-0"
140
0.125
141
12.0
290
     0
  0
SCALE
  5
5F
102
{ACAD_REACTORS
330
47
102
}
330
47
100
AcDbScale
 70
     0
300
3/16" = 1'-0"
140
0.1875
141
12.0
290
     0
  0
SCALE
  5
60
102
{ACAD_REACTORS
330
47
102
}
330
47
100
AcDbScale
 70
     0
300
1/4" = 1'-0"
140
0.25
141
12.0
290
     0
  0
SCALE
  5
61
102
{ACAD_REACTORS
330
47
102
}
330
47
100
AcDbScale
 70
     0
300
3/8" = 1'-0"
140
0.375
141
12.0
290
     0
  0
SCALE
  5
62
102
{ACAD_REACTORS
330
47
102
}
330
47
100
AcDbScale
 70
     0
300
1/2" = 1'-0"
140
0.5
141
12.0
290
     0
  0
SCALE
  5
63
102
{ACAD_REACTORS
330
47
102
}
330
47
100
AcDbScale
 70
     0
300
3/4" = 1'-0"
140
0.75
141
12.0
290
     0
  0
SCALE
  5
64
102
{ACAD_REACTORS
330
47
102
}
330
47
100
AcDbScale
 70
     0
300
1" = 1'-0"
140
1.0
141
12.0
290
     0
  0
SCALE
  5
65
102
{ACAD_REACTORS
330
47
102
}
330
47
100
AcDbScale
 70
     0
300
1-1/2" = 1'-0"
140
1.5
141
12.0
290
     0
  0
SCALE
  5
66
102
{ACAD_REACTORS
330
47
102
}
330
47
100
AcDbScale
 70
     0
300
3" = 1'-0"
140
3.0
141
12.0
290
     0
  0
SCALE
  5
67
102
{ACAD_REACTORS
330
47
102
}
330
47
100
AcDbScale
 70
     0
300
6" = 1'-0"
140
6.0
141
12.0
290
     0
  0
SCALE
  5
68
102
{ACAD_REACTORS
330
47
102
}
330
47
100
AcDbScale
 70
     0
300
1'-0" = 1'-0"
140
12.0
141
12.0
290
     0
  0
ENDSEC
  0
EOF


